<?xml version="1.0" standalone="no"?>
<!DOCTYPE svg PUBLIC "-//W3C//DTD SVG 1.1//EN" "http://www.w3.org/Graphics/SVG/1.1/DTD/svg11.dtd" >
<svg xmlns="http://www.w3.org/2000/svg" xmlns:xlink="http://www.w3.org/1999/xlink" version="1.1">
<metadata>
Created by FontForge 20200314 at Tue Nov  3 18:24:27 2015
 By Unknown
Copyright (c) 2015 by Fernando Diaz. All rights reserved.
</metadata>
<defs>
<font id="TrasandinaW03-Black" horiz-adv-x="1200" >
  <font-face 
    font-family="TrasandinaW03-Black"
    font-weight="800"
    font-stretch="normal"
    units-per-em="2048"
    panose-1="1 0 0 0 0 0 0 0 0 0"
    ascent="1638"
    descent="-410"
    x-height="996"
    cap-height="1354"
    bbox="-157 -527 2900 2183"
    underline-thickness="102"
    underline-position="-256"
    unicode-range="U+0020-FB06"
  />
<missing-glyph horiz-adv-x="1415" 
d="M467 1015l-97 -96l241 -240l-243 -245l96 -96l245 241l242 -241l96 96l-243 245l241 240l-96 96l-240 -241zM150 0v1354h1115v-1354h-1115z" />
    <glyph glyph-name="percent" unicode="&#x30;&#x2f;&#x30;" horiz-adv-x="1653" 
d="M1120 1354h194l-784 -1354h-194zM60 924v157q0 84 41 146t117.5 99.5t180.5 37.5t181 -37.5t118 -99.5t41 -146v-157q0 -84 -41 -146t-118 -99.5t-181 -37.5t-180.5 37.5t-117.5 99.5t-41 146zM325 1066v-127q0 -35 20.5 -55.5t53.5 -20.5t54 20.5t21 55.5v127
q0 35 -21 55.5t-54 20.5t-53.5 -20.5t-20.5 -55.5zM913 272v157q0 84 41 146t117.5 99.5t180.5 37.5t181 -37.5t118 -99.5t41 -146v-157q0 -84 -41 -146t-118 -99.5t-181 -37.5t-180.5 37.5t-117.5 99.5t-41 146zM1178 414v-127q0 -35 20.5 -55.5t53.5 -20.5t54 20.5
t21 55.5v127q0 35 -21 55.5t-54 20.5t-53.5 -20.5t-20.5 -55.5z" />
    <glyph glyph-name="onequarter" unicode="&#x31;&#x2f;&#x34;" horiz-adv-x="955" 
d="M157 -115v172l290 426v1h264v-409h83v-190h-83v-104h-254v104h-300zM773 1093v-222h-562v222h153v229l-146 -27l-12 218l237 61h194v-481h136zM50 760h855v-164h-855v164zM387 70h86v125z" />
    <glyph glyph-name="onehalf" unicode="&#x31;&#x2f;&#x32;" horiz-adv-x="955" 
d="M766 1093v-222h-562v222h154v229l-147 -27l-12 218l238 61h193v-481h136zM790 4v-225h-586v216q157 71 215.5 113t58.5 84q0 21 -21.5 39.5t-78.5 18.5q-67 0 -150 -18l-20 233q117 27 240 27q103 0 174.5 -33t109 -91t37.5 -141q0 -137 -208 -223h229zM50 760h855v-164
h-855v164z" />
    <glyph glyph-name="threequarters" unicode="&#x33;&#x2f;&#x34;" horiz-adv-x="955" 
d="M279 1159v129h112q77 0 77 41q0 34 -67 40q-32 4 -60 1q-44 -2 -112 -14l-19 201q30 8 96.5 17.5t134.5 9.5q141 0 229.5 -53.5t88.5 -154.5q0 -102 -92 -146q104 -41 104 -164q0 -205 -335 -205q-136 0 -228 22l18 209q55 -13 115 -15h63q39 3 57.5 12t18.5 27
q0 43 -86 43h-115zM157 -115v172l290 426v1h264v-409h83v-190h-83v-104h-254v104h-300zM50 760h855v-164h-855v164zM387 70h86v125z" />
    <glyph glyph-name="perthousand" unicode="&#x30;&#x2f;&#x30;&#x30;" horiz-adv-x="2037" 
d="M913 272v157q0 84 41 146t117.5 99.5t180.5 37.5q120 0 207 -55q87 55 207 55q104 0 181 -37.5t118 -99.5t41 -146v-157q0 -84 -41 -146t-118 -99.5t-181 -37.5q-121 0 -207 54q-85 -54 -207 -54q-104 0 -180.5 37.5t-117.5 99.5t-41 146zM60 924v157q0 84 41 146
t117.5 99.5t180.5 37.5t181 -37.5t118 -99.5t41 -146v-157q0 -84 -41 -146t-118 -99.5t-181 -37.5t-180.5 37.5t-117.5 99.5t-41 146zM1120 1354h194l-784 -1354h-194zM1178 414v-127q0 -35 20.5 -55.5t53.5 -20.5t54 20.5t21 55.5v127q0 35 -21 55.5t-54 20.5t-53.5 -20.5
t-20.5 -55.5zM1592 417v-136q2 -33 22.5 -51.5t51.5 -18.5q34 0 55 20.5t21 55.5v127q0 35 -21 55.5t-55 20.5q-32 0 -52.5 -19.5t-21.5 -53.5zM325 1066v-127q0 -35 20.5 -55.5t53.5 -20.5t54 20.5t21 55.5v127q0 35 -21 55.5t-54 20.5t-53.5 -20.5t-20.5 -55.5z" />
    <glyph glyph-name="emdash_guilsinglright.liga" unicode="&#x2d;&#x2d;&#x3e;" horiz-adv-x="2184" 
d="M117 344v307l1409 -6l-355 321l214 214l682 -683l-682 -682l-214 214l355 320z" />
    <glyph glyph-name="endash_guilsinglright.liga" unicode="&#x2d;&#x3e;" horiz-adv-x="1732" 
d="M117 344v307l956 -6l-354 321l214 214l682 -683l-682 -682l-214 214l354 320z" />
    <glyph glyph-name="guilsinglleft_hyphen_hyphen.liga" unicode="&#x3c;&#x2d;&#x2d;" horiz-adv-x="2184" 
d="M799 1180l214 -214l-355 -321l1409 6v-307l-1409 5l355 -320l-214 -214l-682 682z" />
    <glyph glyph-name="guilsinglleft_endash.liga" unicode="&#x3c;&#x2d;" horiz-adv-x="1732" 
d="M799 1180l214 -214l-354 -321l956 6v-307l-957 5l355 -320l-214 -214l-682 682z" />
    <glyph glyph-name=".notdef" horiz-adv-x="1415" 
d="M467 1015l-97 -96l241 -240l-243 -245l96 -96l245 241l242 -241l96 96l-243 245l241 240l-96 96l-240 -241zM150 0v1354h1115v-1354h-1115z" />
    <glyph glyph-name=".null" horiz-adv-x="0" 
 />
    <glyph glyph-name="nonmarkingreturn" horiz-adv-x="682" 
 />
    <glyph glyph-name="space" unicode=" " horiz-adv-x="427" 
 />
    <glyph glyph-name="exclam" unicode="!" horiz-adv-x="529" 
d="M474 1354l-55 -915h-308l-55 915h418zM71 160q0 180 194 180t194 -180t-194 -180t-194 180z" />
    <glyph glyph-name="quotedbl" unicode="&#x22;" horiz-adv-x="848" 
d="M472 1397h306l-20 -561h-266zM70 1397h306l-20 -561h-266z" />
    <glyph glyph-name="numbersign" unicode="#" horiz-adv-x="1528" 
d="M937 1354h291l-41 -300h191l-38 -275h-191l-28 -210h190l-37 -273h-191l-40 -296h-294l41 296h-186l-40 -296h-292l41 296h-196l36 273h196l28 210h-192l38 275h192l41 300h293l-41 -300h187zM670 779l-28 -210h185l30 210h-187z" />
    <glyph glyph-name="dollar" unicode="$" horiz-adv-x="1095" 
d="M401 1547h323l-20 -288q121 -10 232 -36l-38 -284q-167 36 -290 36q-68 0 -108.5 -18t-40.5 -55q0 -11 4.5 -25.5t22 -25.5t37 -17.5t169.5 -42.5t218 -119.5t68 -232.5q0 -294 -308 -341l21 -291h-323l21 287q-162 15 -276 50l49 281q52 -16 146.5 -31t161.5 -15
q149 0 149 71q0 11 -6 26t-29.5 28.5t-59.5 24t-90.5 23.5t-69.5 17q-133 33 -192 112t-59 218q0 140 79.5 234t229.5 121z" />
    <glyph glyph-name="ampersand" unicode="&#x26;" horiz-adv-x="1329" 
d="M40 386q0 94 64.5 184t189.5 156q-73 101 -102.5 163t-29.5 144q0 104 57 178.5t166.5 118.5t269.5 44q168 0 365 -52l-40 -294q-162 35 -284 35q-175 0 -175 -101q0 -26 10.5 -53.5t57.5 -91.5l321 -423q16 18 16 53q0 56 -39 130.5t-179 258.5v97h571v-271h-159
q82 -140 82 -270q0 -70 -30 -129.5t-76 -100.5l163 -204l-232 -180l-186 231q-98 -28 -232 -28q-264 0 -416.5 106t-152.5 299zM586 270q41 0 69 9l-201 251q-72 -54 -72 -126q0 -62 53.5 -98t150.5 -36z" />
    <glyph glyph-name="quotesingle" unicode="'" horiz-adv-x="420" 
d="M57 1397h306l-20 -561h-266z" />
    <glyph glyph-name="parenleft" unicode="(" horiz-adv-x="742" 
d="M457 677q0 -449 312 -881l-248 -140q-189 184 -312.5 455t-123.5 566t123.5 566.5t312.5 455.5l248 -140q-312 -432 -312 -882z" />
    <glyph glyph-name="parenright" unicode=")" horiz-adv-x="742" 
d="M285 677q0 449 -312 881l248 140q189 -184 312.5 -455t123.5 -566t-123.5 -566.5t-312.5 -455.5l-248 139q312 432 312 883z" />
    <glyph glyph-name="asterisk" unicode="*" horiz-adv-x="819" 
d="M48 1109l78 242l176 -80l-17 189h250l-18 -189l176 80l78 -242l-191 -45l127 -148l-196 -140l-101 156l-101 -156l-197 140l127 148z" />
    <glyph glyph-name="plus" unicode="+" horiz-adv-x="1103" 
d="M374 1118h354v-288h258v-306h-258v-288h-354v288h-257v306h257v288z" />
    <glyph glyph-name="comma" unicode="," horiz-adv-x="484" 
d="M86 298h321v-101q0 -257 -156 -451h-224q22 65 40.5 170.5t18.5 204.5v177z" />
    <glyph glyph-name="hyphen" unicode="-" horiz-adv-x="722" 
d="M67 355v285h588v-285h-588z" />
    <glyph glyph-name="period" unicode="." horiz-adv-x="496" 
d="M54 160q0 180 194 180t194 -180t-194 -180t-194 180z" />
    <glyph glyph-name="slash" unicode="/" horiz-adv-x="1112" 
d="M745 1679h393l-772 -2004h-393z" />
    <glyph glyph-name="zero" unicode="0" horiz-adv-x="1186" 
d="M67 444v466q0 225 138 344.5t387 119.5q250 0 388.5 -119.5t138.5 -344.5v-466q0 -226 -138 -345t-389 -119q-249 0 -387 119.5t-138 344.5zM452 931v-508q0 -75 35.5 -117.5t104.5 -42.5q70 0 106 42.5t36 117.5v508q0 74 -36.5 116t-105.5 42t-104.5 -42t-35.5 -116z
" />
    <glyph glyph-name="one" unicode="1" horiz-adv-x="760" 
d="M49 921l-29 312l364 121h272v-1354h-378v986z" />
    <glyph glyph-name="two" unicode="2" horiz-adv-x="954" 
d="M912 319v-319h-856v299q250 243 360 384.5t110 239.5q0 131 -173 131q-127 0 -273 -57l-22 313q55 24 153 44t184 20q81 0 165.5 -17.5t161.5 -67t121 -137t44 -208.5q0 -62 -23.5 -142t-102 -187t-285.5 -296h436z" />
    <glyph glyph-name="three" unicode="3" horiz-adv-x="935" 
d="M162 543v274h201q59 0 104.5 30.5t45.5 87.5q0 125 -190 125q-136 0 -258 -37l-18 297q153 54 346 54q225 0 351.5 -99t126.5 -289q0 -193 -181 -299q95 -47 149 -127.5t54 -190.5q0 -196 -141 -292.5t-402 -96.5q-152 0 -318 43l18 301q132 -30 278 -30q90 0 148.5 30.5
t58.5 94.5q0 52 -45 88t-134 36h-194z" />
    <glyph glyph-name="four" unicode="4" horiz-adv-x="1116" 
d="M641 1354h306v-828h122v-280h-122v-246h-333v246h-547v270zM415 526h207v303z" />
    <glyph glyph-name="five" unicode="5" horiz-adv-x="975" 
d="M938 411q0 -431 -536 -431q-76 0 -174 9.5t-181 28.5l28 314q49 -9 135.5 -18t153.5 -9q102 0 156.5 27t54.5 96q0 63 -61 100.5t-190 39.5q-56 1 -109 -1t-95 -5t-45 -3l30 795h765v-319h-476l-9 -196q82 -2 136 -8q142 -16 233 -70t137.5 -140.5t46.5 -209.5z" />
    <glyph glyph-name="six" unicode="6" horiz-adv-x="1091" 
d="M67 433v376q0 73 9 139q27 209 176.5 317.5t411.5 108.5q152 0 302 -44l-23 -313q-139 40 -271 40q-128 0 -189.5 -52t-66.5 -158v-48q105 35 195 35q120 0 218 -39.5t156.5 -137t58.5 -256.5q0 -74 -23 -149t-79.5 -135t-152 -98.5t-233.5 -38.5q-136 0 -247.5 45
t-176.5 148t-65 260zM549 565q-70 0 -133 -26v-120q0 -63 36.5 -99.5t102.5 -36.5q57 0 98 31.5t41 99.5q0 151 -145 151z" />
    <glyph glyph-name="seven" unicode="7" horiz-adv-x="903" 
d="M20 1040v314h843v-303l-392 -1051h-374l416 1040h-493z" />
    <glyph glyph-name="eight" unicode="8" horiz-adv-x="1081" 
d="M1038 335q0 -74 -33 -139.5t-96.5 -113.5t-157.5 -75t-210 -27q-86 0 -174 18t-158.5 61.5t-116 113.5t-45.5 166q0 105 50 187.5t179 156.5q-101 62 -151 136t-50 178q0 79 30.5 148.5t90 120.5t147.5 79.5t198 28.5q82 0 165 -19t149.5 -65t109 -119.5t42.5 -173.5
q0 -87 -44 -164t-158 -150q119 -66 176 -148.5t57 -199.5zM541 253q63 0 102 35t39 93q0 39 -24 82.5t-117 100.5q-71 -37 -105.5 -78.5t-34.5 -104.5q0 -59 38 -93.5t102 -34.5zM675 972q0 59 -38.5 91.5t-95.5 32.5q-59 0 -96.5 -32t-37.5 -92q0 -36 24.5 -76.5
t110.5 -92.5q57 32 95 70.5t38 98.5z" />
    <glyph glyph-name="nine" unicode="9" horiz-adv-x="1091" 
d="M1024 921v-387q0 -69 -8 -139q-24 -202 -165.5 -308.5t-393.5 -106.5q-77 0 -177.5 13t-166.5 34l23 313q139 -40 277 -40q136 0 196 48t66 151v52q-104 -34 -195 -34q-120 0 -218 39.5t-156.5 137t-58.5 257.5q0 202 131 312.5t357 110.5q136 0 247.5 -45t176.5 -148
t65 -260zM542 785q68 0 133 26v124q0 63 -36.5 99.5t-102.5 36.5q-57 0 -98 -32t-41 -101q0 -153 145 -153z" />
    <glyph glyph-name="colon" unicode=":" horiz-adv-x="496" 
d="M54 160q0 180 194 180t194 -180t-194 -180t-194 180zM54 836q0 180 194 180t194 -180t-194 -180t-194 180z" />
    <glyph glyph-name="semicolon" unicode=";" horiz-adv-x="483" 
d="M54 836q0 180 194 180t194 -180t-194 -180t-194 180zM97 298h321v-101q0 -255 -156 -451h-225q22 64 41 170t19 205v177z" />
    <glyph glyph-name="less" unicode="&#x3c;" horiz-adv-x="1033" 
d="M678 1209l238 -210l-350 -322l350 -322l-238 -210l-561 532z" />
    <glyph glyph-name="equal" unicode="=" horiz-adv-x="1029" 
d="M117 1026h795v-292h-795v292zM117 620h795v-292h-795v292z" />
    <glyph glyph-name="greater" unicode="&#x3e;" horiz-adv-x="1033" 
d="M354 145l-237 210l349 322l-349 322l237 210l562 -532z" />
    <glyph glyph-name="question" unicode="?" horiz-adv-x="804" 
d="M469 433h-279q-17 52 -9 117q4 29 17.5 65t38 68.5t95.5 112.5t71 141q0 110 -154 110q-98 0 -209 -43l-43 314q60 23 153.5 39.5t188.5 16.5q148 0 246.5 -47.5t148 -126.5t49.5 -190q0 -102 -45.5 -185t-133 -172t-108.5 -120q-24 -36 -27 -100zM135 160q0 180 194 180
t194 -180t-194 -180t-194 180z" />
    <glyph glyph-name="at" unicode="@" horiz-adv-x="2121" 
d="M1497 -20q-88 0 -162 43t-113 134q-69 -66 -163.5 -111.5t-207.5 -45.5q-45 0 -93 17.5t-93 66.5t-60.5 127t-3.5 160l23 162q30 209 159 326.5t341 117.5q100 0 204 -31.5t210 -115.5l-67 -499q-4 -41 11 -67.5t48 -26.5q63 0 107.5 89t53.5 235q26 271 -115 422.5
t-429 151.5q-200 0 -359 -85.5t-252 -251t-104 -377.5q-18 -284 89.5 -428.5t326.5 -144.5q133 0 317 49l37 -226q-191 -72 -406 -72q-200 0 -360.5 92t-246 279.5t-68.5 441.5q18 278 150 502.5t374 352t549 127.5q243 0 430.5 -102.5t284 -291t81.5 -410.5
q-10 -168 -72.5 -308.5t-173 -221t-247.5 -80.5zM1014 286q60 0 123 47l49 349q-54 14 -96 14q-58 0 -95 -37t-45 -94l-22 -154q-7 -56 13 -90.5t73 -34.5z" />
    <glyph glyph-name="A" unicode="A" horiz-adv-x="1291" 
d="M1279 0h-412l-56 256h-332l-56 -256h-411l361 1354h546zM645 1066l-114 -520h229z" />
    <glyph glyph-name="B" unicode="B" horiz-adv-x="1177" 
d="M633 0h-529v1354h527q234 0 350 -103.5t116 -289.5q0 -78 -39.5 -150.5t-132.5 -119.5q97 -42 156 -122.5t59 -179.5q0 -188 -131 -288.5t-376 -100.5zM767 425q0 137 -167 137h-138v-273h141q164 0 164 136zM611 814q63 0 94 35t31 91q0 58 -32.5 91.5t-96.5 33.5h-145
v-251h149z" />
    <glyph glyph-name="C" unicode="C" horiz-adv-x="966" 
d="M899 326l30 -301q-62 -19 -152.5 -32t-183.5 -13q-233 0 -379.5 121.5t-146.5 338.5v467q0 126 56 231t183 170.5t302 65.5q74 0 159 -12.5t151 -35.5l-40 -297q-24 8 -92 19.5t-135 11.5q-85 0 -140 -49.5t-55 -135.5v-405q0 -84 55 -130.5t150 -46.5t238 33z" />
    <glyph glyph-name="D" unicode="D" horiz-adv-x="1232" 
d="M104 0v1354h523q252 0 395 -119.5t143 -331.5v-466q0 -218 -140.5 -327.5t-397.5 -109.5h-523zM777 435v389q0 116 -37.5 175.5t-121.5 59.5h-129v-764h129q68 0 113.5 33t45.5 107z" />
    <glyph glyph-name="E" unicode="E" horiz-adv-x="1057" 
d="M104 0v1354h886v-318h-500v-212h479v-291h-479v-215h520v-318h-906z" />
    <glyph glyph-name="F" unicode="F" horiz-adv-x="1034" 
d="M104 0v1354h890v-311h-504v-212h483v-305h-483v-526h-386z" />
    <glyph glyph-name="G" unicode="G" horiz-adv-x="1127" 
d="M1058 699v-646q-82 -30 -205.5 -51.5t-248.5 -21.5q-148 0 -271 50t-194.5 158t-71.5 268v427q0 163 79.5 275t216 164t298.5 52q85 0 186 -14.5t179 -43.5l-52 -302q-132 43 -270 43q-115 0 -181.5 -51.5t-66.5 -142.5v-402q0 -86 49 -130t138 -44q47 0 86 9v403h329z
" />
    <glyph glyph-name="H" unicode="H" horiz-adv-x="1328" 
d="M1224 0h-385v509h-350v-509h-385v1354h385v-512h350v512h385v-1354z" />
    <glyph glyph-name="I" unicode="I" horiz-adv-x="593" 
d="M489 1354v-1354h-385v1354h385z" />
    <glyph glyph-name="J" unicode="J" horiz-adv-x="594" 
d="M104 1354h386v-1332q0 -158 -93.5 -274.5t-321.5 -215.5l-158 233q100 65 143.5 128.5t43.5 156.5v1304z" />
    <glyph glyph-name="K" unicode="K" horiz-adv-x="1206" 
d="M762 1354h415l-275 -686l291 -668h-415l-198 523h-91v-523h-385v1354h385v-506h99z" />
    <glyph glyph-name="L" unicode="L" horiz-adv-x="981" 
d="M489 1354v-1029h465v-325h-850v1354h385z" />
    <glyph glyph-name="M" unicode="M" horiz-adv-x="1563" 
d="M1118 0v790l-215 -607h-238l-214 602v-785h-347v1354h467l213 -709l213 709h467v-1354h-346z" />
    <glyph glyph-name="N" unicode="N" horiz-adv-x="1316" 
d="M837 0l-361 727v-727h-372v1354h375l361 -727v727h372v-1354h-375z" />
    <glyph glyph-name="O" unicode="O" horiz-adv-x="1223" 
d="M67 437v480q0 220 143 338.5t401 118.5t401.5 -118.5t143.5 -338.5v-480q0 -124 -51 -226.5t-176.5 -166.5t-317.5 -64q-255 0 -399.5 116t-144.5 341zM456 938v-522q0 -67 41 -107t114 -40q74 0 115 40t41 107v522q0 67 -41 106t-115 39t-114.5 -39t-40.5 -106z" />
    <glyph glyph-name="P" unicode="P" horiz-adv-x="1191" 
d="M624 360h-135v-360h-385v1354h520q245 0 382.5 -113.5t137.5 -323.5v-133q0 -209 -136.5 -316.5t-383.5 -107.5zM619 1059h-130v-404h130q71 0 105.5 41.5t34.5 136.5v72q0 154 -140 154z" />
    <glyph glyph-name="Q" unicode="Q" horiz-adv-x="1223" 
d="M67 437v480q0 220 143 338.5t401 118.5t401.5 -118.5t143.5 -338.5v-480q0 -171 -86.5 -281t-248.5 -152l160 -270l-318 -67l-126 316q-225 16 -347.5 132.5t-122.5 321.5zM456 938v-522q0 -67 41 -107t114 -40q74 0 115 40t41 107v522q0 67 -41 106t-115 39t-114.5 -39
t-40.5 -106z" />
    <glyph glyph-name="R" unicode="R" horiz-adv-x="1218" 
d="M104 1354h523q245 0 382.5 -113.5t137.5 -323.5v-99q0 -108 -45.5 -201.5t-150.5 -150.5l234 -466h-413l-174 394h-109v-394h-385v1354zM622 1059h-133v-385h133q66 0 103.5 34t37.5 95v128q0 60 -37.5 94t-103.5 34z" />
    <glyph glyph-name="S" unicode="S" horiz-adv-x="1018" 
d="M981 402q0 -422 -493 -422q-97 0 -221.5 15t-227.5 49l47 310q182 -53 331 -53q92 0 139.5 21t47.5 76q0 46 -29 68t-134.5 55t-181.5 64q-107 44 -158 127t-51 224q0 96 32 177t94.5 139t155.5 90t210 32q202 0 391 -50l-43 -314q-176 44 -294 44q-84 0 -131 -25.5
t-47 -75.5q0 -43 28 -68.5t95 -46.5l137 -43q120 -38 183 -89t91.5 -124t28.5 -180z" />
    <glyph glyph-name="T" unicode="T" horiz-adv-x="1078" 
d="M346 0v1043h-323v311h1031v-311h-322v-1043h-386z" />
    <glyph glyph-name="U" unicode="U" horiz-adv-x="1255" 
d="M775 1354h386v-927q0 -213 -139 -330t-395 -117q-255 0 -394 117t-139 330v927h385v-932q0 -59 40 -96t108 -37q69 0 108.5 36.5t39.5 96.5v932z" />
    <glyph glyph-name="V" unicode="V" horiz-adv-x="1231" 
d="M803 1354h416l-311 -1354h-584l-312 1354h417l188 -1004z" />
    <glyph glyph-name="W" unicode="W" horiz-adv-x="1807" 
d="M1376 1354h412l-264 -1354h-490l-131 722l-131 -722h-489l-264 1354h411l151 -967l146 946h353l152 -946z" />
    <glyph glyph-name="X" unicode="X" horiz-adv-x="1261" 
d="M462 1354l172 -434l165 434h423l-300 -657l312 -697h-437l-158 436l-173 -436h-439l314 675l-300 679h421z" />
    <glyph glyph-name="Y" unicode="Y" horiz-adv-x="1171" 
d="M765 1354h391l-378 -881v-473h-386v473l-377 881h391l180 -508z" />
    <glyph glyph-name="Z" unicode="Z" horiz-adv-x="1072" 
d="M77 1042v312h913v-279l-496 -763h523v-312h-967v279l496 763h-469z" />
    <glyph glyph-name="bracketleft" unicode="[" horiz-adv-x="714" 
d="M663 -31v-294h-541v2004h541v-294h-197v-1416h197z" />
    <glyph glyph-name="backslash" unicode="\" horiz-adv-x="1112" 
d="M-27 1679h393l772 -2004h-392z" />
    <glyph glyph-name="bracketright" unicode="]" horiz-adv-x="714" 
d="M51 1384v295h541v-2004h-541v294h197v1415h-197z" />
    <glyph glyph-name="asciicircum" unicode="^" horiz-adv-x="984" 
d="M371 809h-317l264 635h348l265 -635h-318l-121 396z" />
    <glyph glyph-name="underscore" unicode="_" horiz-adv-x="1071" 
d="M67 -304v265h937v-265h-937z" />
    <glyph glyph-name="grave" unicode="`" horiz-adv-x="661" 
d="M608 1103l-248 -32l-306 360l370 71z" />
    <glyph glyph-name="a" unicode="a" horiz-adv-x="1070" 
d="M45 278q0 95 48 159t133.5 98.5t199.5 34.5h152v41q0 53 -32.5 81t-117.5 28q-131 0 -297 -49l-49 279q75 25 183 45.5t219 20.5q147 0 240 -33.5t146 -117t53 -249.5v-257q0 -77 53 -77q38 0 64 7l2 -275q-29 -13 -79.5 -23.5t-105.5 -10.5q-148 0 -220 105
q-137 -105 -287 -105q-143 0 -224 74t-81 224zM468 215q53 0 110 34v142h-107q-41 0 -65 -24.5t-24 -66.5q0 -40 24 -62.5t62 -22.5z" />
    <glyph glyph-name="b" unicode="b" horiz-adv-x="1127" 
d="M1067 650v-230q0 -212 -131 -326t-381 -114q-260 0 -458 72v1392h361v-519q127 91 271 91q70 0 132.5 -24.5t108.5 -71.5t71.5 -116.5t25.5 -153.5zM588 716q-62 0 -121 -45v-386q52 -14 100 -14q65 0 97.5 37.5t32.5 92.5v192q0 58 -27.5 90.5t-81.5 32.5z" />
    <glyph glyph-name="c" unicode="c" horiz-adv-x="844" 
d="M424 556v-117q0 -79 46.5 -123t127.5 -44q87 0 183 22l21 -284q-122 -30 -278 -30q-204 0 -323 95t-136 276l-4 94v105l4 94q17 179 136 275.5t319 96.5q59 0 139.5 -9.5t143.5 -24.5l-35 -285q-108 27 -176 27q-77 0 -122.5 -45.5t-45.5 -122.5z" />
    <glyph glyph-name="d" unicode="d" horiz-adv-x="1126" 
d="M61 347v249q0 207 105.5 313.5t294.5 106.5q94 0 206 -28v456h362v-1444h-321l-15 89q-147 -104 -304 -104q-147 0 -237.5 99.5t-90.5 262.5zM538 280q64 0 121 43v389q-59 22 -108 22q-55 0 -87.5 -36t-32.5 -136v-133q0 -71 23.5 -110t83.5 -39z" />
    <glyph glyph-name="e" unicode="e" horiz-adv-x="1026" 
d="M57 406v170q0 211 122 325.5t343 114.5q212 0 329.5 -116t117.5 -327q0 -46 -4 -100t-4 -56h-548v-29q0 -126 209 -126q141 0 300 29l29 -265q-172 -46 -398 -46q-112 0 -204 27.5t-157 81t-100 134.5t-35 183zM413 628v-42h219v28q0 138 -110 138q-53 0 -81 -33t-28 -91
z" />
    <glyph glyph-name="f" unicode="f" horiz-adv-x="696" 
d="M17 717v279h112v98q0 370 372 370q120 0 222 -27l-33 -273q-63 10 -101 10q-97 0 -97 -113v-65h189v-279h-182v-717h-370v717h-112z" />
    <glyph glyph-name="g" unicode="g" horiz-adv-x="1060" 
d="M720 1261l319 -90q-30 -66 -81 -136t-100 -115q120 -88 120 -240v-46q0 -168 -122 -263.5t-350 -95.5q-50 0 -97 6q-31 -31 -31 -58q0 -41 62 -41h256q123 0 209 -45t130.5 -119.5t44.5 -177.5q0 -104 -53.5 -174t-154.5 -108.5t-249 -38.5h-186q-189 0 -292 65t-103 185
q0 61 40 115.5t114 93.5q-93 60 -93 157q0 57 35.5 109.5t88.5 86.5q-82 42 -126.5 110.5t-44.5 157.5v92q0 150 120.5 237.5t329.5 87.5q73 0 145 -16q16 34 37 109t32 152zM417 704v-75q0 -135 101 -135q48 0 73 34.5t25 100.5v35q0 136 -98 136q-48 0 -74.5 -28
t-26.5 -68zM672 -78h-238l-43 1q-47 -31 -47 -75q0 -41 31.5 -59.5t116.5 -18.5h104q95 0 134.5 15t39.5 59q0 40 -27 59t-71 19z" />
    <glyph glyph-name="h" unicode="h" horiz-adv-x="1147" 
d="M97 1444h362v-529q159 101 306 101q142 0 218 -76.5t76 -220.5v-719h-370v603q0 43 -22.5 67t-65.5 24q-64 0 -134 -48v-646h-370v1444z" />
    <glyph glyph-name="i" unicode="i" horiz-adv-x="564" 
d="M97 996h370v-996h-370v996zM88 1278q0 180 194 180t194 -180t-194 -180t-194 180z" />
    <glyph glyph-name="j" unicode="j" horiz-adv-x="564" 
d="M97 996h370v-974q0 -158 -90 -274.5t-309 -215.5l-159 233q62 41 100.5 77t63 88t24.5 121v945zM88 1278q0 180 194 180t194 -180t-194 -180t-194 180z" />
    <glyph glyph-name="k" unicode="k" horiz-adv-x="1122" 
d="M97 1444h370v-788h76l141 340h407l-242 -494l254 -502h-405l-157 367h-74v-367h-370v1444z" />
    <glyph glyph-name="l" unicode="l" horiz-adv-x="565" 
d="M97 1444h370v-1444h-370v1444z" />
    <glyph glyph-name="m" unicode="m" horiz-adv-x="1724" 
d="M97 996h321l16 -96q164 112 325 112q174 0 251 -120q75 53 164.5 88.5t170.5 35.5q140 0 215.5 -76.5t75.5 -220.5v-719h-370v603q0 91 -86 91q-59 0 -127 -49v-645h-371v603q0 91 -85 91q-59 0 -130 -50v-644h-370v996z" />
    <glyph glyph-name="n" unicode="n" horiz-adv-x="1147" 
d="M97 996h321l16 -95q176 115 331 115q142 0 218 -76.5t76 -220.5v-719h-370v603q0 43 -22.5 67t-65.5 24q-64 0 -134 -48v-646h-370v996z" />
    <glyph glyph-name="o" unicode="o" horiz-adv-x="1100" 
d="M61 416v163q0 211 128.5 324t360.5 113t360.5 -113t128.5 -324v-163q0 -210 -128.5 -323t-360.5 -113q-233 0 -361 112.5t-128 323.5zM431 607v-219q0 -58 31 -92t88 -34t88 34t31 92v219q0 57 -31.5 92t-87.5 35t-87.5 -35t-31.5 -92z" />
    <glyph glyph-name="p" unicode="p" horiz-adv-x="1128" 
d="M1067 650v-231q0 -76 -20 -153.5t-69 -140.5t-127 -104t-183 -41q-82 0 -209 25v-453h-362v1444h321l16 -89q156 109 296 109q149 0 243 -99.5t94 -266.5zM590 716q-63 0 -123 -44v-388q56 -21 110 -21q53 0 86.5 30.5t33.5 97.5v198q0 58 -27 92.5t-80 34.5z" />
    <glyph glyph-name="q" unicode="q" horiz-adv-x="1126" 
d="M61 347v228q0 212 127.5 326.5t363.5 114.5q103 0 234 -13t243 -46v-1405h-362v507q-129 -79 -262 -79q-109 0 -186.5 50t-117.5 130t-40 187zM538 277q62 0 121 43v386q-52 14 -105 14q-62 0 -92.5 -37t-30.5 -91v-192q0 -57 27 -90t80 -33z" />
    <glyph glyph-name="r" unicode="r" horiz-adv-x="760" 
d="M97 996h320l17 -116q63 55 144.5 95t160.5 41l1 -352q-66 -2 -143 -24t-130 -55v-585h-370v996z" />
    <glyph glyph-name="s" unicode="s" horiz-adv-x="866" 
d="M832 290q0 -310 -415 -310q-83 0 -191 13t-173 39l40 248q42 -15 121 -29.5t144 -14.5q63 0 93 12t30 46q0 14 -6.5 26t-21.5 20.5t-35 15.5t-42 12.5t-55.5 14t-42.5 10.5q-133 34 -180.5 105.5t-47.5 196.5q0 147 105 234t300 87q167 0 335 -37l-33 -253
q-156 34 -245 34q-111 0 -111 -64q0 -26 26 -45t151 -49q139 -35 196.5 -104t57.5 -208z" />
    <glyph glyph-name="t" unicode="t" horiz-adv-x="725" 
d="M8 717v279h123l17 278h335v-278h183v-279h-175v-352q0 -38 15 -66.5t66 -28.5q15 0 110 10l18 -272q-99 -28 -240 -28q-278 0 -322 212q-13 71 -16 164.5t-2 212t1 148.5h-113z" />
    <glyph glyph-name="u" unicode="u" horiz-adv-x="1140" 
d="M1043 0h-321l-16 95q-72 -49 -158 -82t-172 -33q-140 0 -216 76.5t-76 220.5v719h370v-604q0 -89 87 -89q66 0 131 47v646h371v-996z" />
    <glyph glyph-name="v" unicode="v" horiz-adv-x="1070" 
d="M677 996h390l-293 -996h-479l-291 996h389l142 -663z" />
    <glyph glyph-name="w" unicode="w" horiz-adv-x="1526" 
d="M1145 996h376l-234 -996h-416l-108 529l-108 -529h-415l-235 996h376l113 -642l117 629h304l117 -629z" />
    <glyph glyph-name="x" unicode="x" horiz-adv-x="1060" 
d="M417 996l111 -335l115 335h391l-210 -486l219 -510h-386l-129 357l-124 -357h-387l217 492l-208 504h391z" />
    <glyph glyph-name="y" unicode="y" horiz-adv-x="1094" 
d="M634 -448h-369l139 448h-126l-281 996h389l142 -687l153 687h403l-306 -996z" />
    <glyph glyph-name="z" unicode="z" horiz-adv-x="883" 
d="M66 728v268h756v-247l-371 -479h387v-270h-786v245l366 483h-352z" />
    <glyph glyph-name="braceleft" unicode="{" horiz-adv-x="778" 
d="M551 1287v-331q0 -118 -40 -184.5t-130 -94.5q79 -24 124.5 -83.5t45.5 -187.5v-333q0 -47 24 -73.5t63 -26.5h97v-298h-217q-132 0 -221 86.5t-89 216.5v453q0 40 -22.5 69.5t-62.5 29.5h-69v295h69q40 0 62.5 27.5t22.5 64.5v452q0 134 89 222t221 88h217v-298h-97
q-39 0 -63 -25.5t-24 -68.5z" />
    <glyph glyph-name="bar" unicode="|" horiz-adv-x="601" 
d="M122 1679h357v-2004h-357v2004z" />
    <glyph glyph-name="braceright" unicode="}" horiz-adv-x="778" 
d="M228 66v332q0 118 39.5 184.5t129.5 94.5q-79 23 -124 83t-45 188v332q0 47 -24.5 74t-63.5 27h-97v298h217q132 0 221 -87t89 -217v-452q0 -41 22.5 -70t62.5 -29h69v-295h-69q-40 0 -62.5 -28t-22.5 -65v-451q0 -134 -89 -222t-221 -88h-217v298h97q39 0 63.5 25.5
t24.5 67.5z" />
    <glyph glyph-name="asciitilde" unicode="~" horiz-adv-x="1032" 
d="M372 697q8 0 31 -1.5t49 -9t99 -36t115 -28.5q85 0 170 76l129 -173q-46 -83 -128 -137.5t-177 -54.5q-63 0 -155.5 37t-137.5 37q-82 0 -171 -75l-129 160q46 89 128 147t177 58z" />
    <glyph glyph-name="exclamdown" unicode="&#xa1;" horiz-adv-x="529" 
d="M56 -358l55 915h308l55 -915h-418zM70 836q0 180 194 180t194 -180t-194 -180t-194 180z" />
    <glyph glyph-name="cent" unicode="&#xa2;" horiz-adv-x="974" 
d="M399 1487h323l-19 -278q93 -11 149 -32l-23 -276q-100 25 -169 25q-70 0 -116 -35.5t-46 -95.5v-238q0 -59 46 -93t123 -34q80 0 177 21l16 -275q-69 -23 -169 -32l19 -277h-323l22 299q-133 37 -207.5 133.5t-74.5 239.5v274q0 150 77.5 247.5t215.5 133.5z" />
    <glyph glyph-name="sterling" unicode="&#xa3;" horiz-adv-x="1196" 
d="M150 762h118v180q0 213 131 322.5t362 109.5q142 0 292 -30l-25 -314q-118 21 -213 21q-80 0 -123 -38.5t-43 -111.5v-139h290v-171h-290v-154q0 -93 -62 -147h482v-310h-939v310q66 0 102 34.5t36 144.5v122h-118v171z" />
    <glyph glyph-name="currency" unicode="&#xa4;" horiz-adv-x="1395" 
d="M286 71l-181 175l199 232q-47 81 -47 183v34q0 90 40 170l-197 222l180 176l232 -206q89 40 187 40q94 0 184 -38l231 204l181 -175l-196 -220q42 -78 42 -173v-34q0 -104 -49 -186l197 -230l-180 -175l-243 222q-79 -32 -167 -32q-92 0 -170 33zM571 691v-26
q0 -56 33 -93t95 -37t95 37t33 93v26q0 56 -33 93t-95 37t-95 -37t-33 -93z" />
    <glyph glyph-name="yen" unicode="&#xa5;" horiz-adv-x="1327" 
d="M663 919l173 435h384l-219 -479h147v-160h-970v160h147l-218 479h384zM218 637h890v-160h-250v-477h-389v477h-251v160z" />
    <glyph glyph-name="brokenbar" unicode="&#xa6;" horiz-adv-x="601" 
d="M122 1679h357v-830h-357v830zM122 505h357v-830h-357v830z" />
    <glyph glyph-name="section" unicode="&#xa7;" horiz-adv-x="1348" 
d="M1187 1237q-147 41 -254 54q-43 -47 -43 -109q0 -34 11.5 -76.5t53.5 -117.5l196 -352q113 -204 113 -378q0 -143 -78 -257.5t-233.5 -179.5t-360.5 -65q-113 0 -247.5 23t-235.5 60l52 279q119 -38 254 -54q43 49 43 109q0 34 -11.5 76t-53.5 119l-196 351
q-113 204 -113 378q0 143 78 257.5t233.5 179.5t360.5 65q113 0 245 -22.5t237 -59.5zM793 227q0 -94 -64 -158q196 36 196 209q0 47 -16 101.5t-82 174.5l-186 331q-44 77 -65 133.5t-21 109.5q0 94 63 158q-195 -38 -195 -208q0 -47 16 -103t82 -174l186 -331
q44 -78 65 -134t21 -109z" />
    <glyph glyph-name="dieresis" unicode="&#xa8;" horiz-adv-x="973" 
d="M54 1277q0 181 194 181t194 -181q0 -180 -194 -180t-194 180zM531 1277q0 181 194 181t194 -181q0 -180 -194 -180t-194 180z" />
    <glyph glyph-name="copyright" unicode="&#xa9;" horiz-adv-x="1500" 
d="M54 676q0 194 80 353.5t241 252t373 92.5q213 0 374.5 -92.5t242.5 -252t81 -353.5q0 -193 -81 -352t-242.5 -251.5t-374.5 -92.5q-193 0 -351.5 80.5t-250.5 241.5t-92 374zM223 676q0 -116 37.5 -214.5t106.5 -168t165.5 -108.5t215.5 -39q237 0 383 146.5t146 383.5
q0 238 -146 385t-383 147q-119 0 -215.5 -39t-165.5 -108.5t-106.5 -169t-37.5 -215.5zM677 691v-30q0 -64 33 -94.5t87 -30.5q63 0 124 16l16 -235q-84 -23 -193 -23q-343 0 -343 382q0 192 94 288t272 96q91 0 170 -25l-26 -236q-68 17 -112 17q-56 0 -89 -30.5t-33 -94.5
z" />
    <glyph glyph-name="ordfeminine" unicode="&#xaa;" horiz-adv-x="770" 
d="M34 853q0 54 25.5 98.5t87 75.5t157.5 31h105v19q0 70 -100 70q-92 0 -215 -35l-36 205q48 17 128 32.5t163 15.5q170 0 243 -61.5t73 -216.5v-175q0 -49 37 -49q32 0 47 5l1 -202q-55 -25 -134 -25q-108 0 -162 75q-92 -75 -202 -75q-101 0 -159.5 52.5t-58.5 159.5z
M339 817q32 0 70 21v83h-71q-55 0 -55 -54q0 -24 15 -37t41 -13z" />
    <glyph glyph-name="guillemotleft" unicode="&#xab;" horiz-adv-x="1099" 
d="M428 498l167 -386l-274 -104l-247 490l247 490l274 -104zM902 498l144 -385l-273 -92l-218 477l218 476l273 -91z" />
    <glyph glyph-name="logicalnot" unicode="&#xac;" horiz-adv-x="1142" 
d="M676 267v257h-559v306h908v-563h-349z" />
    <glyph glyph-name="uni00AD" unicode="&#xad;" horiz-adv-x="722" 
d="M67 355v285h588v-285h-588z" />
    <glyph glyph-name="registered" unicode="&#xae;" horiz-adv-x="1500" 
d="M54 676q0 194 80 353.5t241 252t373 92.5q213 0 374.5 -92.5t242.5 -252t81 -353.5q0 -193 -81 -352t-242.5 -251.5t-374.5 -92.5q-193 0 -351.5 80.5t-250.5 241.5t-92 374zM223 676q0 -116 37.5 -214.5t106.5 -168t165.5 -108.5t215.5 -39q237 0 383 146.5t146 383.5
q0 238 -146 385t-383 147q-119 0 -215.5 -39t-165.5 -108.5t-106.5 -169t-37.5 -215.5zM1070 761q0 -68 -31 -120t-84 -83l135 -248h-264l-86 202h-54v-202h-241v733h329q137 0 216.5 -62t79.5 -188v-32zM746 857h-60v-169h60q37 0 57 17t20 46v25q0 81 -77 81z" />
    <glyph glyph-name="macron" unicode="&#xaf;" horiz-adv-x="783" 
d="M54 1136v280h675v-280h-675z" />
    <glyph glyph-name="degree" unicode="&#xb0;" horiz-adv-x="799" 
d="M60 1008v76q0 84 41 146t117.5 99.5t180.5 37.5t181 -37.5t118 -99.5t41 -146v-76q0 -84 -41 -146t-118 -99.5t-181 -37.5t-180.5 37.5t-117.5 99.5t-41 146zM319 1063v-33q0 -38 22 -60.5t58 -22.5t59 22.5t23 60.5v33q0 38 -23 60.5t-59 22.5t-58 -22.5t-22 -60.5z" />
    <glyph glyph-name="plusminus" unicode="&#xb1;" horiz-adv-x="1065" 
d="M357 1286h354v-262h237v-305h-237v-262h-354v262h-237v305h237v262zM144 344h781v-293h-781v293z" />
    <glyph glyph-name="uni00B2" unicode="&#xb2;" horiz-adv-x="663" 
d="M626 876v-225h-586v216q156 70 215 112t59 85q0 21 -21 39.5t-79 18.5q-67 0 -150 -18l-20 233q117 27 240 27q85 0 162 -27.5t118.5 -91t41.5 -146.5q0 -136 -208 -223h228z" />
    <glyph glyph-name="uni00B3" unicode="&#xb3;" horiz-adv-x="631" 
d="M101 939v129h112q78 0 78 41q0 43 -91 43q-75 0 -149 -16l-19 201q32 8 98 17.5t133 9.5q141 0 230 -53.5t89 -154.5q0 -102 -92 -146q104 -41 104 -164q0 -205 -336 -205q-134 0 -228 22l18 209q72 -17 154 -17q101 0 101 41q0 43 -86 43h-116z" />
    <glyph glyph-name="acute" unicode="&#xb4;" horiz-adv-x="661" 
d="M301 1071l-247 32l184 399l370 -71z" />
    <glyph glyph-name="uni00B5" unicode="&#xb5;" horiz-adv-x="1143" 
d="M1046 0h-321l-15 95q-111 -86 -253 -86q-6 -155 -95 -267t-304 -210l-159 233q62 41 100.5 77t63 88t24.5 121v945h370v-604q0 -43 22.5 -66t64.5 -23q65 0 132 47v646h370v-996z" />
    <glyph glyph-name="paragraph" unicode="&#xb6;" horiz-adv-x="1306" 
d="M601 1354h54v-1034h-54q-242 0 -373 119.5t-131 346.5v88q0 227 132 353.5t372 126.5zM778 1354h371v-1305q0 -158 -90 -274.5t-310 -215.5l-159 233q62 40 101 76.5t63 88.5t24 121v1276z" />
    <glyph glyph-name="periodcentered" unicode="&#xb7;" horiz-adv-x="496" 
d="M54 497q0 180 194 180t194 -180q0 -181 -194 -181t-194 181z" />
    <glyph glyph-name="cedilla" unicode="&#xb8;" horiz-adv-x="566" 
d="M158 20h159l-12 -101q95 -10 151 -59.5t56 -137.5q0 -93 -85.5 -141.5t-226.5 -48.5q-82 0 -146 16l15 189q46 -11 93 -11q41 0 67.5 12.5t26.5 38.5q0 50 -75 50h-65z" />
    <glyph glyph-name="uni00B9" unicode="&#xb9;" horiz-adv-x="615" 
d="M599 873v-222h-562v222h153v229l-147 -27l-12 218l238 61h194v-481h136z" />
    <glyph glyph-name="ordmasculine" unicode="&#xba;" horiz-adv-x="793" 
d="M50 924v157q0 84 42 146t120 99.5t184 37.5t184.5 -37t120.5 -98.5t42 -144.5v-157q0 -85 -42 -147.5t-120.5 -100.5t-184.5 -38t-184 37.5t-120 99.5t-42 146zM309 1060v-115q0 -38 24 -60t63 -22t64 23.5t25 62.5v114q0 36 -25 57.5t-64 21.5t-63 -22t-24 -60z" />
    <glyph glyph-name="guillemotright" unicode="&#xbb;" horiz-adv-x="1099" 
d="M197 497l-144 385l273 92l218 -477l-218 -476l-273 91zM672 497l-168 386l275 104l247 -490l-247 -489l-275 104z" />
    <glyph glyph-name="questiondown" unicode="&#xbf;" horiz-adv-x="804" 
d="M281 836q0 180 194 180t194 -180t-194 -180t-194 180zM335 563h279q17 -52 9 -117q-4 -29 -17.5 -65t-38 -68.5t-95.5 -112.5t-71 -141q0 -110 154 -110q98 0 209 43l43 -314q-60 -23 -153.5 -39.5t-188.5 -16.5q-148 0 -246.5 47.5t-148 126.5t-49.5 190q0 102 45.5 185
t133 172t108.5 120q24 36 27 100z" />
    <glyph glyph-name="Agrave" unicode="&#xc0;" horiz-adv-x="1291" 
d="M1279 0h-412l-56 256h-332l-56 -256h-411l361 1354h546zM645 1066l-114 -520h229zM816 1462l-248 -32l-306 360l370 71z" />
    <glyph glyph-name="Aacute" unicode="&#xc1;" horiz-adv-x="1291" 
d="M1279 0h-412l-56 256h-332l-56 -256h-411l361 1354h546zM645 1066l-114 -520h229zM705 1430l-247 32l184 399l370 -71z" />
    <glyph glyph-name="Acircumflex" unicode="&#xc2;" horiz-adv-x="1291" 
d="M1279 0h-412l-56 256h-332l-56 -256h-411l361 1354h546zM645 1066l-114 -520h229zM268 1448l181 397h391l181 -397l-304 -7l-72 215l-73 -215z" />
    <glyph glyph-name="Atilde" unicode="&#xc3;" horiz-adv-x="1291" 
d="M1279 0h-412l-56 256h-332l-56 -256h-411l361 1354h546zM645 1066l-114 -520h229zM517 1809q52 0 132 -28t109 -28q65 0 124 67l160 -114q-15 -53 -51 -113t-94 -96.5t-123 -36.5q-52 0 -132.5 28t-109.5 28q-64 0 -124 -68l-160 114q15 54 51 113.5t94 96.5t124 37z" />
    <glyph glyph-name="Adieresis" unicode="&#xc4;" horiz-adv-x="1291" 
d="M1279 0h-412l-56 256h-332l-56 -256h-411l361 1354h546zM645 1066l-114 -520h229zM209 1636q0 180 194 180t194 -180t-194 -180t-194 180zM692 1636q0 180 195 180q194 0 194 -180t-194 -180q-195 0 -195 180z" />
    <glyph glyph-name="Aring" unicode="&#xc5;" horiz-adv-x="1291" 
d="M1279 0h-412l-56 256h-332l-56 -256h-411l361 1354h546zM369 1645q0 110 74 172.5t206 62.5q125 0 198.5 -61t73.5 -165q0 -110 -74 -172.5t-207 -62.5q-124 0 -197.5 61t-73.5 165zM645 1066l-114 -520h229zM577 1650q0 -27 19 -44.5t48 -17.5q31 0 49.5 17t18.5 44
q0 28 -18.5 45.5t-48.5 17.5t-49 -17.5t-19 -44.5z" />
    <glyph glyph-name="AE" unicode="&#xc6;" horiz-adv-x="1690" 
d="M872 0l-28 252h-335l-86 -252h-411l524 1354h1086v-318h-474l32 -212h422v-291h-399l32 -215h408v-318h-771zM769 1047l-175 -504h230z" />
    <glyph glyph-name="Ccedilla" unicode="&#xc7;" horiz-adv-x="966" 
d="M899 326l30 -301q-63 -18 -156.5 -31t-186.5 -13l-8 -62q94 -10 150.5 -59.5t56.5 -137.5q0 -93 -86 -141.5t-227 -48.5q-81 0 -145 16l15 189q46 -11 93 -11q40 0 67 12.5t27 38.5q0 50 -75 50h-65l36 172q-164 37 -261 151.5t-97 289.5v467q0 126 56 231t183 170.5
t302 65.5q74 0 159 -12.5t151 -35.5l-40 -297q-24 8 -92 19.5t-135 11.5q-85 0 -140 -49.5t-55 -135.5v-405q0 -84 55 -130.5t150 -46.5t238 33z" />
    <glyph glyph-name="Egrave" unicode="&#xc8;" horiz-adv-x="1057" 
d="M104 0v1354h886v-318h-500v-212h479v-291h-479v-215h520v-318h-906zM727 1462l-247 -32l-307 360l370 71z" />
    <glyph glyph-name="Eacute" unicode="&#xc9;" horiz-adv-x="1057" 
d="M104 0v1354h886v-318h-500v-212h479v-291h-479v-215h520v-318h-906zM626 1430l-247 32l184 399l370 -71z" />
    <glyph glyph-name="Ecircumflex" unicode="&#xca;" horiz-adv-x="1057" 
d="M104 0v1354h886v-318h-500v-212h479v-291h-479v-215h520v-318h-906zM166 1448l181 397h391l181 -397l-304 -7l-73 215l-72 -215z" />
    <glyph glyph-name="Edieresis" unicode="&#xcb;" horiz-adv-x="1057" 
d="M104 0v1354h886v-318h-500v-212h479v-291h-479v-215h520v-318h-906zM110 1636q0 180 194 180t194 -180t-194 -180t-194 180zM593 1636q0 180 195 180q194 0 194 -180t-194 -180q-195 0 -195 180z" />
    <glyph glyph-name="Igrave" unicode="&#xcc;" horiz-adv-x="593" 
d="M489 1354v-1354h-385v1354h385zM484 1462l-247 -32l-307 360l370 71z" />
    <glyph glyph-name="Iacute" unicode="&#xcd;" horiz-adv-x="593" 
d="M489 1354v-1354h-385v1354h385zM370 1430l-247 32l184 399l370 -71z" />
    <glyph glyph-name="Icircumflex" unicode="&#xce;" horiz-adv-x="593" 
d="M489 1354v-1354h-385v1354h385zM-80 1448l181 397h391l181 -397l-304 -7l-72 215l-73 -215z" />
    <glyph glyph-name="Idieresis" unicode="&#xcf;" horiz-adv-x="593" 
d="M489 1354v-1354h-385v1354h385zM-136 1636q0 180 194 180t194 -180t-194 -180t-194 180zM341 1636q0 180 194 180t194 -180t-194 -180t-194 180z" />
    <glyph glyph-name="Eth" unicode="&#xd0;" horiz-adv-x="1239" 
d="M17 593v166h94v595h523q252 0 394.5 -119t142.5 -332v-466q0 -218 -140 -327.5t-397 -109.5h-523v593h-94zM783 435v410q0 107 -37.5 160.5t-120.5 53.5h-129v-300h170v-166h-170v-298h129q68 0 113 33t45 107z" />
    <glyph glyph-name="Ntilde" unicode="&#xd1;" horiz-adv-x="1316" 
d="M837 0l-361 727v-727h-372v1354h375l361 -727v727h372v-1354h-375zM526 1809q52 0 132 -28t109 -28q64 0 125 67l160 -114q-18 -66 -57.5 -122t-93 -90t-118.5 -34q-52 0 -132 28t-109 28q-65 0 -125 -68l-160 114q15 54 51.5 113.5t94.5 96.5t123 37z" />
    <glyph glyph-name="Ograve" unicode="&#xd2;" horiz-adv-x="1223" 
d="M802 1462l-247 -32l-307 360l370 71zM67 437v480q0 220 143 338.5t401 118.5t401.5 -118.5t143.5 -338.5v-480q0 -124 -51 -226.5t-176.5 -166.5t-317.5 -64q-255 0 -399.5 116t-144.5 341zM456 938v-522q0 -67 41 -107t114 -40q74 0 115 40t41 107v522q0 67 -41 106
t-115 39t-114.5 -39t-40.5 -106z" />
    <glyph glyph-name="Oacute" unicode="&#xd3;" horiz-adv-x="1223" 
d="M661 1430l-247 32l184 399l370 -71zM67 437v480q0 220 143 338.5t401 118.5t401.5 -118.5t143.5 -338.5v-480q0 -124 -51 -226.5t-176.5 -166.5t-317.5 -64q-255 0 -399.5 116t-144.5 341zM456 938v-522q0 -67 41 -107t114 -40q74 0 115 40t41 107v522q0 67 -41 106
t-115 39t-114.5 -39t-40.5 -106z" />
    <glyph glyph-name="Ocircumflex" unicode="&#xd4;" horiz-adv-x="1223" 
d="M235 1448l181 397h391l181 -397l-304 -7l-72 215l-73 -215zM67 437v480q0 220 143 338.5t401 118.5t401.5 -118.5t143.5 -338.5v-480q0 -124 -51 -226.5t-176.5 -166.5t-317.5 -64q-255 0 -399.5 116t-144.5 341zM456 938v-522q0 -67 41 -107t114 -40q74 0 115 40t41 107
v522q0 67 -41 106t-115 39t-114.5 -39t-40.5 -106z" />
    <glyph glyph-name="Otilde" unicode="&#xd5;" horiz-adv-x="1223" 
d="M482 1809q53 0 133 -28t109 -28q65 0 124 67l160 -114q-15 -53 -51 -113t-94 -96.5t-123 -36.5q-52 0 -132.5 28t-109.5 28q-64 0 -124 -68l-160 114q15 54 51 113.5t94 96.5t123 37zM67 437v480q0 220 143 338.5t401 118.5t401.5 -118.5t143.5 -338.5v-480
q0 -124 -51 -226.5t-176.5 -166.5t-317.5 -64q-255 0 -399.5 116t-144.5 341zM456 938v-522q0 -67 41 -107t114 -40q74 0 115 40t41 107v522q0 67 -41 106t-115 39t-114.5 -39t-40.5 -106z" />
    <glyph glyph-name="Odieresis" unicode="&#xd6;" horiz-adv-x="1223" 
d="M176 1636q0 180 194 180t194 -180t-194 -180t-194 180zM659 1636q0 180 194 180t194 -180t-194 -180t-194 180zM67 437v480q0 220 143 338.5t401 118.5t401.5 -118.5t143.5 -338.5v-480q0 -124 -51 -226.5t-176.5 -166.5t-317.5 -64q-255 0 -399.5 116t-144.5 341z
M456 938v-522q0 -67 41 -107t114 -40q74 0 115 40t41 107v522q0 67 -41 106t-115 39t-114.5 -39t-40.5 -106z" />
    <glyph glyph-name="multiply" unicode="&#xd7;" horiz-adv-x="1128" 
d="M774 1124l237 -237l-212 -212l208 -207l-234 -234l-208 208l-211 -212l-237 237l211 212l-207 207l234 234l207 -207z" />
    <glyph glyph-name="Oslash" unicode="&#xd8;" horiz-adv-x="1223" 
d="M67 437v480q0 220 143 338.5t401 118.5q83 0 161 -14l104 243h180l-126 -294q109 -55 167.5 -154.5t58.5 -237.5v-480q0 -124 -51 -226.5t-176.5 -166.5t-317.5 -64q-95 0 -178 17l-104 -244h-180l128 299q-210 114 -210 385zM456 938v-522q0 -67 41 -107t114 -40
q74 0 115 40t41 107v522q0 67 -41 106t-115 39t-114.5 -39t-40.5 -106z" />
    <glyph glyph-name="Ugrave" unicode="&#xd9;" horiz-adv-x="1255" 
d="M775 1354h386v-927q0 -213 -139 -330t-395 -117q-255 0 -394 117t-139 330v927h385v-932q0 -59 40 -96t108 -37q69 0 108.5 36.5t39.5 96.5v932zM792 1462l-248 -32l-306 360l370 71z" />
    <glyph glyph-name="Uacute" unicode="&#xda;" horiz-adv-x="1255" 
d="M775 1354h386v-927q0 -213 -139 -330t-395 -117q-255 0 -394 117t-139 330v927h385v-932q0 -59 40 -96t108 -37q69 0 108.5 36.5t39.5 96.5v932zM698 1430l-247 32l184 399l370 -71z" />
    <glyph glyph-name="Ucircumflex" unicode="&#xdb;" horiz-adv-x="1255" 
d="M775 1354h386v-927q0 -213 -139 -330t-395 -117q-255 0 -394 117t-139 330v927h385v-932q0 -59 40 -96t108 -37q69 0 108.5 36.5t39.5 96.5v932zM251 1448l181 397h391l181 -397l-304 -7l-72 215l-73 -215z" />
    <glyph glyph-name="Udieresis" unicode="&#xdc;" horiz-adv-x="1255" 
d="M775 1354h386v-927q0 -213 -139 -330t-395 -117q-255 0 -394 117t-139 330v927h385v-932q0 -59 40 -96t108 -37q69 0 108.5 36.5t39.5 96.5v932zM192 1636q0 180 194 180t194 -180t-194 -180t-194 180zM675 1636q0 180 194 180q195 0 195 -180t-195 -180q-194 0 -194 180
z" />
    <glyph glyph-name="Yacute" unicode="&#xdd;" horiz-adv-x="1171" 
d="M765 1354h391l-378 -881v-473h-386v473l-377 881h391l180 -508zM656 1430l-248 32l185 399l369 -71z" />
    <glyph glyph-name="Thorn" unicode="&#xde;" horiz-adv-x="1191" 
d="M624 180h-135v-180h-385v1354h385v-180h135q245 0 382.5 -113.5t137.5 -323.5v-133q0 -209 -136.5 -316.5t-383.5 -107.5zM619 879h-130v-404h130q71 0 105.5 41.5t34.5 136.5v72q0 154 -140 154z" />
    <glyph glyph-name="germandbls" unicode="&#xdf;" horiz-adv-x="1314" 
d="M464 1049v-1049h-370v1084q0 170 128.5 275t337.5 105q123 0 224.5 -29.5t171 -80.5t106 -117t36.5 -136q0 -45 -18.5 -97.5t-86.5 -142.5q-5 -7 -29 -38.5t-40.5 -59t-16.5 -55.5q0 -24 19.5 -45.5t115.5 -59.5q134 -53 189.5 -123t55.5 -198q0 -152 -100 -227t-289 -75
q-82 0 -188 13t-170 39l40 248q39 -15 112 -29.5t134 -14.5q53 0 81 12.5t28 45.5q0 8 -3.5 19t-18.5 21t-39 18.5t-62.5 20t-49.5 15.5q-101 31 -152 92.5t-51 171.5q0 47 19.5 101t75.5 130q42 58 63.5 96.5t21.5 76.5q0 52 -47 85t-106 33q-55 0 -88.5 -33t-33.5 -92z
" />
    <glyph glyph-name="agrave" unicode="&#xe0;" horiz-adv-x="1070" 
d="M45 278q0 95 48 159t133.5 98.5t199.5 34.5h152v41q0 53 -32.5 81t-117.5 28q-131 0 -297 -49l-49 279q75 25 183 45.5t219 20.5q147 0 240 -33.5t146 -117t53 -249.5v-257q0 -77 53 -77q38 0 64 7l2 -275q-29 -13 -79.5 -23.5t-105.5 -10.5q-148 0 -220 105
q-137 -105 -287 -105q-143 0 -224 74t-81 224zM468 215q53 0 110 34v142h-107q-41 0 -65 -24.5t-24 -66.5q0 -40 24 -62.5t62 -22.5zM680 1103l-248 -32l-306 360l370 71z" />
    <glyph glyph-name="aacute" unicode="&#xe1;" horiz-adv-x="1070" 
d="M45 278q0 95 48 159t133.5 98.5t199.5 34.5h152v41q0 53 -32.5 81t-117.5 28q-131 0 -297 -49l-49 279q75 25 183 45.5t219 20.5q147 0 240 -33.5t146 -117t53 -249.5v-257q0 -77 53 -77q38 0 64 7l2 -275q-29 -13 -79.5 -23.5t-105.5 -10.5q-148 0 -220 105
q-137 -105 -287 -105q-143 0 -224 74t-81 224zM468 215q53 0 110 34v142h-107q-41 0 -65 -24.5t-24 -66.5q0 -40 24 -62.5t62 -22.5zM564 1071l-248 32l185 399l369 -71z" />
    <glyph glyph-name="acircumflex" unicode="&#xe2;" horiz-adv-x="1070" 
d="M45 278q0 95 48 159t133.5 98.5t199.5 34.5h152v41q0 53 -32.5 81t-117.5 28q-131 0 -297 -49l-49 279q75 25 183 45.5t219 20.5q147 0 240 -33.5t146 -117t53 -249.5v-257q0 -77 53 -77q38 0 64 7l2 -275q-29 -13 -79.5 -23.5t-105.5 -10.5q-148 0 -220 105
q-137 -105 -287 -105q-143 0 -224 74t-81 224zM468 215q53 0 110 34v142h-107q-41 0 -65 -24.5t-24 -66.5q0 -40 24 -62.5t62 -22.5zM125 1089l181 397h391l181 -397l-304 -6l-72 214l-72 -214z" />
    <glyph glyph-name="atilde" unicode="&#xe3;" horiz-adv-x="1070" 
d="M45 278q0 95 48 159t133.5 98.5t199.5 34.5h152v41q0 53 -32.5 81t-117.5 28q-131 0 -297 -49l-49 279q75 25 183 45.5t219 20.5q147 0 240 -33.5t146 -117t53 -249.5v-257q0 -77 53 -77q38 0 64 7l2 -275q-29 -13 -79.5 -23.5t-105.5 -10.5q-148 0 -220 105
q-137 -105 -287 -105q-143 0 -224 74t-81 224zM468 215q53 0 110 34v142h-107q-41 0 -65 -24.5t-24 -66.5q0 -40 24 -62.5t62 -22.5zM348 1450q52 0 132.5 -28t109.5 -28q64 0 124 68l160 -115q-18 -66 -57.5 -122t-93 -90t-118.5 -34q-52 0 -132 28.5t-109 28.5
q-64 0 -124 -68l-160 114q15 53 51 113t94 96.5t123 36.5z" />
    <glyph glyph-name="adieresis" unicode="&#xe4;" horiz-adv-x="1070" 
d="M45 278q0 95 48 159t133.5 98.5t199.5 34.5h152v41q0 53 -32.5 81t-117.5 28q-131 0 -297 -49l-49 279q75 25 183 45.5t219 20.5q147 0 240 -33.5t146 -117t53 -249.5v-257q0 -77 53 -77q38 0 64 7l2 -275q-29 -13 -79.5 -23.5t-105.5 -10.5q-148 0 -220 105
q-137 -105 -287 -105q-143 0 -224 74t-81 224zM468 215q53 0 110 34v142h-107q-41 0 -65 -24.5t-24 -66.5q0 -40 24 -62.5t62 -22.5zM56 1277q0 181 194 181t194 -181q0 -180 -194 -180t-194 180zM539 1277q0 181 195 181q194 0 194 -181q0 -180 -194 -180q-195 0 -195 180z
" />
    <glyph glyph-name="aring" unicode="&#xe5;" horiz-adv-x="1070" 
d="M45 278q0 95 48 159t133.5 98.5t199.5 34.5h152v41q0 53 -32.5 81t-117.5 28q-131 0 -297 -49l-49 279q75 25 183 45.5t219 20.5q147 0 240 -33.5t146 -117t53 -249.5v-257q0 -77 53 -77q38 0 64 7l2 -275q-29 -13 -79.5 -23.5t-105.5 -10.5q-148 0 -220 105
q-137 -105 -287 -105q-143 0 -224 74t-81 224zM212 1287q0 110 74 172.5t206 62.5q125 0 198.5 -61t73.5 -165q0 -111 -73.5 -173.5t-206.5 -62.5q-124 0 -198 61.5t-74 165.5zM468 215q53 0 110 34v142h-107q-41 0 -65 -24.5t-24 -66.5q0 -40 24 -62.5t62 -22.5zM421 1291
q0 -27 18.5 -44.5t48.5 -17.5t49 17.5t19 44.5t-18.5 44.5t-48.5 17.5t-49 -17.5t-19 -44.5z" />
    <glyph glyph-name="ae" unicode="&#xe6;" horiz-adv-x="1527" 
d="M45 279q0 95 48 159.5t133.5 99t199.5 34.5h152v39q0 53 -32.5 81t-117.5 28q-131 0 -297 -49l-49 279q75 25 183 45.5t219 20.5q179 0 267 -76q108 76 272 76q211 0 328.5 -116t117.5 -327v-42q0 -19 -1 -42t-3.5 -48t-2.5 -28h-548v-25q0 -126 209 -126q141 0 300 29
l28 -265q-169 -46 -397 -46q-252 0 -377 136q-65 -57 -150.5 -96.5t-176.5 -39.5q-143 0 -224 74.5t-81 224.5zM914 628v-45h219v31q0 138 -110 138q-53 0 -81 -33t-28 -91zM578 378v14h-107q-41 0 -65 -24.5t-24 -66.5q0 -39 23.5 -62.5t58.5 -23.5q69 0 133 48
q-16 49 -19 115z" />
    <glyph glyph-name="ccedilla" unicode="&#xe7;" horiz-adv-x="844" 
d="M424 556v-117q0 -79 46 -123t128 -44q87 0 183 22l21 -284q-118 -28 -275 -30l-8 -61q94 -10 150.5 -59.5t56.5 -137.5q0 -93 -85.5 -141.5t-227.5 -48.5q-81 0 -145 16l15 189q46 -11 93 -11q40 0 67 12.5t27 38.5q0 50 -75 50h-65l36 170q-149 35 -227 142.5t-78 280.5
v130l2 77q13 187 132.5 288t324.5 101q59 0 139.5 -9.5t143.5 -24.5l-35 -285q-108 27 -176 27q-77 0 -122.5 -45.5t-45.5 -122.5z" />
    <glyph glyph-name="egrave" unicode="&#xe8;" horiz-adv-x="1026" 
d="M57 406v170q0 211 122 325.5t343 114.5q212 0 329.5 -116t117.5 -327q0 -46 -4 -100t-4 -56h-548v-29q0 -126 209 -126q141 0 300 29l29 -265q-172 -46 -398 -46q-112 0 -204 27.5t-157 81t-100 134.5t-35 183zM413 628v-42h219v28q0 138 -110 138q-53 0 -81 -33t-28 -91
zM683 1103l-247 -32l-307 360l370 71z" />
    <glyph glyph-name="eacute" unicode="&#xe9;" horiz-adv-x="1026" 
d="M57 406v170q0 211 122 325.5t343 114.5q212 0 329.5 -116t117.5 -327q0 -46 -4 -100t-4 -56h-548v-29q0 -126 209 -126q141 0 300 29l29 -265q-172 -46 -398 -46q-112 0 -204 27.5t-157 81t-100 134.5t-35 183zM413 628v-42h219v28q0 138 -110 138q-53 0 -81 -33t-28 -91
zM588 1071l-247 32l184 399l370 -71z" />
    <glyph glyph-name="ecircumflex" unicode="&#xea;" horiz-adv-x="1026" 
d="M57 406v170q0 211 122 325.5t343 114.5q212 0 329.5 -116t117.5 -327q0 -46 -4 -100t-4 -56h-548v-29q0 -126 209 -126q141 0 300 29l29 -265q-172 -46 -398 -46q-112 0 -204 27.5t-157 81t-100 134.5t-35 183zM413 628v-42h219v28q0 138 -110 138q-53 0 -81 -33t-28 -91
zM136 1089l181 397h391l181 -397l-304 -6l-72 214l-73 -214z" />
    <glyph glyph-name="edieresis" unicode="&#xeb;" horiz-adv-x="1026" 
d="M57 406v170q0 211 122 325.5t343 114.5q212 0 329.5 -116t117.5 -327q0 -46 -4 -100t-4 -56h-548v-29q0 -126 209 -126q141 0 300 29l29 -265q-172 -46 -398 -46q-112 0 -204 27.5t-157 81t-100 134.5t-35 183zM413 628v-42h219v28q0 138 -110 138q-53 0 -81 -33t-28 -91
zM77 1277q0 181 194 181t194 -181q0 -180 -194 -180t-194 180zM560 1277q0 181 194 181t194 -181q0 -180 -194 -180t-194 180z" />
    <glyph glyph-name="igrave" unicode="&#xec;" horiz-adv-x="551" 
d="M90 996h370v-996h-370v996zM456 1103l-247 -32l-307 360l370 71z" />
    <glyph glyph-name="iacute" unicode="&#xed;" horiz-adv-x="564" 
d="M97 996h370v-996h-370v996zM358 1071l-247 32l184 399l370 -71z" />
    <glyph glyph-name="icircumflex" unicode="&#xee;" horiz-adv-x="551" 
d="M90 996h370v-996h-370v996zM-101 1089l181 397h391l181 -397l-304 -6l-73 214l-72 -214z" />
    <glyph glyph-name="idieresis" unicode="&#xef;" horiz-adv-x="551" 
d="M90 996h370v-996h-370v996zM-157 1277q0 181 194 181t194 -181q0 -180 -194 -180t-194 180zM320 1277q0 181 194 181t194 -181q0 -180 -194 -180t-194 180z" />
    <glyph glyph-name="eth" unicode="&#xf0;" horiz-adv-x="1121" 
d="M569 995l-137 94l61 95q-35 2 -92 -5q-111 -13 -176 -45l-50 280q164 50 333 50q92 0 170 -18l95 143l137 -94l-73 -111q210 -131 210 -448v-518q0 -211 -128.5 -324.5t-366.5 -113.5q-243 0 -369 115t-126 324v122q0 75 21 148t72.5 128.5t135.5 89t205 33.5
q107 0 188 -61v46q0 121 -41 178zM427 551v-161q0 -64 30.5 -102t94.5 -38q57 0 92 34.5t35 110.5v213q-52 66 -120 66q-66 0 -99 -32.5t-33 -90.5z" />
    <glyph glyph-name="ntilde" unicode="&#xf1;" horiz-adv-x="1147" 
d="M97 996h321l16 -95q176 115 331 115q142 0 218 -76.5t76 -220.5v-719h-370v603q0 43 -22.5 67t-65.5 24q-64 0 -134 -48v-646h-370v996zM442 1450q52 0 132.5 -28t109.5 -28q64 0 124 68l160 -115q-18 -66 -57.5 -122t-93 -90t-118.5 -34q-52 0 -132 28.5t-109 28.5
q-64 0 -124 -68l-160 114q15 53 51 113t94 96.5t123 36.5z" />
    <glyph glyph-name="ograve" unicode="&#xf2;" horiz-adv-x="1100" 
d="M61 416v163q0 211 128.5 324t360.5 113t360.5 -113t128.5 -324v-163q0 -210 -128.5 -323t-360.5 -113q-233 0 -361 112.5t-128 323.5zM431 607v-191q0 -154 119 -154t119 154v163q0 155 -119 155q-56 0 -87.5 -35t-31.5 -92zM745 1103l-247 -32l-307 360l370 71z" />
    <glyph glyph-name="oacute" unicode="&#xf3;" horiz-adv-x="1100" 
d="M61 416v163q0 211 128.5 324t360.5 113t360.5 -113t128.5 -324v-163q0 -210 -128.5 -323t-360.5 -113q-233 0 -361 112.5t-128 323.5zM431 607v-191q0 -154 119 -154t119 154v163q0 155 -119 155q-56 0 -87.5 -35t-31.5 -92zM635 1071l-247 32l184 399l370 -71z" />
    <glyph glyph-name="ocircumflex" unicode="&#xf4;" horiz-adv-x="1100" 
d="M61 416v163q0 211 128.5 324t360.5 113t360.5 -113t128.5 -324v-163q0 -210 -128.5 -323t-360.5 -113q-233 0 -361 112.5t-128 323.5zM431 607v-191q0 -154 119 -154t119 154v163q0 155 -119 155q-56 0 -87.5 -35t-31.5 -92zM173 1089l182 397h390l181 -397l-304 -6
l-72 214l-72 -214z" />
    <glyph glyph-name="otilde" unicode="&#xf5;" horiz-adv-x="1100" 
d="M61 416v163q0 211 128.5 324t360.5 113t360.5 -113t128.5 -324v-163q0 -210 -128.5 -323t-360.5 -113q-233 0 -361 112.5t-128 323.5zM431 607v-191q0 -154 119 -154t119 154v163q0 155 -119 155q-56 0 -87.5 -35t-31.5 -92zM421 1450q52 0 132 -28t109 -28q65 0 124 68
l160 -115q-15 -53 -51 -113t-94 -96.5t-123 -36.5q-52 0 -132 28.5t-109 28.5q-63 0 -125 -68l-160 114q18 66 57.5 122t93 90t118.5 34z" />
    <glyph glyph-name="odieresis" unicode="&#xf6;" horiz-adv-x="1100" 
d="M61 416v163q0 211 128.5 324t360.5 113t360.5 -113t128.5 -324v-163q0 -210 -128.5 -323t-360.5 -113q-233 0 -361 112.5t-128 323.5zM431 607v-191q0 -154 119 -154t119 154v163q0 155 -119 155q-56 0 -87.5 -35t-31.5 -92zM114 1277q0 181 194 181t194 -181
q0 -180 -194 -180t-194 180zM598 1277q0 181 194 181t194 -181q0 -180 -194 -180t-194 180z" />
    <glyph glyph-name="divide" unicode="&#xf7;" horiz-adv-x="1035" 
d="M325 1056q0 180 194 180t194 -180q0 -181 -194 -181t-194 181zM117 782h804v-171h-804v171zM325 337q0 181 194 181t194 -181q0 -180 -194 -180t-194 180z" />
    <glyph glyph-name="oslash" unicode="&#xf8;" horiz-adv-x="1100" 
d="M948 1245l-120 -288q211 -104 211 -378v-163q0 -210 -128.5 -323t-360.5 -113q-61 0 -121 11l-98 -238h-176l118 285q-104 50 -158 146t-54 232v163q0 210 128.5 323.5t360.5 113.5q62 0 122 -11l99 240h177zM431 607v-191q0 -154 119 -154t119 154v163q0 155 -119 155
q-56 0 -87.5 -35t-31.5 -92z" />
    <glyph glyph-name="ugrave" unicode="&#xf9;" horiz-adv-x="1143" 
d="M1046 0h-321l-15 95q-171 -115 -330 -115q-141 0 -217 76.5t-76 220.5v719h370v-604q0 -43 22.5 -66t64.5 -23q65 0 132 47v646h370v-996zM729 1103l-248 -32l-306 360l370 71z" />
    <glyph glyph-name="uacute" unicode="&#xfa;" horiz-adv-x="1143" 
d="M1046 0h-321l-15 95q-171 -115 -330 -115q-141 0 -217 76.5t-76 220.5v719h370v-604q0 -43 22.5 -66t64.5 -23q65 0 132 47v646h370v-996zM631 1071l-247 32l184 399l370 -71z" />
    <glyph glyph-name="ucircumflex" unicode="&#xfb;" horiz-adv-x="1143" 
d="M1046 0h-321l-15 95q-171 -115 -330 -115q-141 0 -217 76.5t-76 220.5v719h370v-604q0 -43 22.5 -66t64.5 -23q65 0 132 47v646h370v-996zM195 1089l181 397h391l181 -397l-305 -6l-72 214l-72 -214z" />
    <glyph glyph-name="udieresis" unicode="&#xfc;" horiz-adv-x="1143" 
d="M1046 0h-321l-15 95q-171 -115 -330 -115q-141 0 -217 76.5t-76 220.5v719h370v-604q0 -43 22.5 -66t64.5 -23q65 0 132 47v646h370v-996zM619 1277q0 181 194 181t194 -181q0 -180 -194 -180t-194 180zM135 1277q0 181 194 181t194 -181q0 -180 -194 -180t-194 180z" />
    <glyph glyph-name="yacute" unicode="&#xfd;" horiz-adv-x="1094" 
d="M634 -448h-369l139 448h-126l-281 996h389l142 -687l153 687h403l-306 -996zM618 1071l-248 32l184 399l370 -71z" />
    <glyph glyph-name="thorn" unicode="&#xfe;" horiz-adv-x="1128" 
d="M1067 650v-231q0 -76 -20 -153.5t-69 -140.5t-127 -104t-183 -41q-82 0 -209 25v-453h-362v1892h370v-515q137 87 263 87q149 0 243 -99.5t94 -266.5zM590 716q-63 0 -123 -44v-388q56 -21 110 -21q53 0 86.5 30.5t33.5 97.5v198q0 58 -27 92.5t-80 34.5z" />
    <glyph glyph-name="ydieresis" unicode="&#xff;" horiz-adv-x="1094" 
d="M634 -448h-369l139 448h-126l-281 996h389l142 -687l153 687h403l-306 -996zM578 1277q0 181 194 181t194 -181q0 -180 -194 -180t-194 180zM101 1277q0 181 194 181t194 -181q0 -180 -194 -180t-194 180z" />
    <glyph glyph-name="Amacron" unicode="&#x100;" horiz-adv-x="1291" 
d="M1279 0h-412l-56 256h-332l-56 -256h-411l361 1354h546zM645 1066l-114 -520h229zM307 1495v279h675v-279h-675z" />
    <glyph glyph-name="amacron" unicode="&#x101;" horiz-adv-x="1070" 
d="M45 278q0 95 48 159t133.5 98.5t199.5 34.5h152v41q0 53 -32.5 81t-117.5 28q-131 0 -297 -49l-49 279q75 25 183 45.5t219 20.5q147 0 240 -33.5t146 -117t53 -249.5v-257q0 -77 53 -77q38 0 64 7l2 -275q-29 -13 -79.5 -23.5t-105.5 -10.5q-148 0 -220 105
q-137 -105 -287 -105q-143 0 -224 74t-81 224zM468 215q53 0 110 34v142h-107q-41 0 -65 -24.5t-24 -66.5q0 -40 24 -62.5t62 -22.5zM164 1136v280h676v-280h-676z" />
    <glyph glyph-name="Abreve" unicode="&#x102;" horiz-adv-x="1291" 
d="M1279 0h-412l-56 256h-332l-56 -256h-411l361 1354h546zM645 1066l-114 -520h229zM287 1815h276q4 -108 82 -108t82 108h276q0 -165 -93.5 -262t-264.5 -97t-264.5 97t-93.5 262z" />
    <glyph glyph-name="abreve" unicode="&#x103;" horiz-adv-x="1070" 
d="M45 278q0 95 48 159t133.5 98.5t199.5 34.5h152v41q0 53 -32.5 81t-117.5 28q-131 0 -297 -49l-49 279q75 25 183 45.5t219 20.5q147 0 240 -33.5t146 -117t53 -249.5v-257q0 -77 53 -77q38 0 64 7l2 -275q-29 -13 -79.5 -23.5t-105.5 -10.5q-148 0 -220 105
q-137 -105 -287 -105q-143 0 -224 74t-81 224zM468 215q53 0 110 34v142h-107q-41 0 -65 -24.5t-24 -66.5q0 -40 24 -62.5t62 -22.5zM127 1453h276q4 -109 82 -109t82 109h276q0 -166 -93.5 -262.5t-264.5 -96.5t-264.5 96.5t-93.5 262.5z" />
    <glyph glyph-name="Aogonek" unicode="&#x104;" horiz-adv-x="1291" 
d="M1279 0q-145 -103 -145 -196q0 -23 14.5 -44t53.5 -21q51 0 84 10l14 -201q-56 -16 -136 -16q-134 0 -209.5 50t-75.5 155q0 151 213 263h-225l-56 256h-332l-56 -256h-411l361 1354h546zM645 1066l-114 -520h229z" />
    <glyph glyph-name="aogonek" unicode="&#x105;" horiz-adv-x="1070" 
d="M45 278q0 95 48 159t133.5 98.5t199.5 34.5h152v41q0 53 -32.5 81t-117.5 28q-131 0 -297 -49l-49 279q75 25 183 45.5t219 20.5q147 0 240 -33.5t146 -117t53 -249.5v-257q0 -77 53 -77q38 0 64 7l2 -275l-42 -14q-145 -103 -145 -196q0 -31 19 -48t49 -17q51 0 84 10
l14 -201q-56 -16 -136 -16q-134 0 -209.5 50t-75.5 155q0 142 187 249q-95 17 -150 99q-137 -105 -287 -105q-143 0 -224 74t-81 224zM468 215q53 0 110 34v142h-107q-41 0 -65 -24.5t-24 -66.5q0 -40 24 -62.5t62 -22.5z" />
    <glyph glyph-name="Cacute" unicode="&#x106;" horiz-adv-x="966" 
d="M899 326l30 -301q-62 -19 -152.5 -32t-183.5 -13q-233 0 -379.5 121.5t-146.5 338.5v467q0 126 56 231t183 170.5t302 65.5q74 0 159 -12.5t151 -35.5l-40 -297q-24 8 -92 19.5t-135 11.5q-85 0 -140 -49.5t-55 -135.5v-405q0 -84 55 -130.5t150 -46.5t238 33zM632 1430
l-247 32l184 399l370 -71z" />
    <glyph glyph-name="cacute" unicode="&#x107;" horiz-adv-x="844" 
d="M424 556v-117q0 -79 46.5 -123t127.5 -44q87 0 183 22l21 -284q-122 -30 -278 -30q-204 0 -323 95t-136 276l-4 94v105l4 94q17 179 136 275.5t319 96.5q59 0 139.5 -9.5t143.5 -24.5l-35 -285q-108 27 -176 27q-77 0 -122.5 -45.5t-45.5 -122.5zM549 1071l-247 32
l184 399l370 -71z" />
    <glyph glyph-name="Ccircumflex" unicode="&#x108;" horiz-adv-x="966" 
d="M899 326l30 -301q-62 -19 -152.5 -32t-183.5 -13q-233 0 -379.5 121.5t-146.5 338.5v467q0 126 56 231t183 170.5t302 65.5q74 0 159 -12.5t151 -35.5l-40 -297q-24 8 -92 19.5t-135 11.5q-85 0 -140 -49.5t-55 -135.5v-405q0 -84 55 -130.5t150 -46.5t238 33zM187 1448
l181 397h390l182 -397l-305 -7l-72 215l-72 -215z" />
    <glyph glyph-name="ccircumflex" unicode="&#x109;" horiz-adv-x="844" 
d="M424 556v-117q0 -79 46.5 -123t127.5 -44q87 0 183 22l21 -284q-122 -30 -278 -30q-204 0 -323 95t-136 276l-4 94v105l4 94q17 179 136 275.5t319 96.5q59 0 139.5 -9.5t143.5 -24.5l-35 -285q-108 27 -176 27q-77 0 -122.5 -45.5t-45.5 -122.5zM118 1089l182 397h390
l181 -397l-304 -6l-72 214l-72 -214z" />
    <glyph glyph-name="Cdotaccent" unicode="&#x10a;" horiz-adv-x="966" 
d="M899 326l30 -301q-62 -19 -152.5 -32t-183.5 -13q-233 0 -379.5 121.5t-146.5 338.5v467q0 126 56 231t183 170.5t302 65.5q74 0 159 -12.5t151 -35.5l-40 -297q-24 8 -92 19.5t-135 11.5q-85 0 -140 -49.5t-55 -135.5v-405q0 -84 55 -130.5t150 -46.5t238 33zM379 1636
q0 180 194 180t194 -180t-194 -180t-194 180z" />
    <glyph glyph-name="cdotaccent" unicode="&#x10b;" horiz-adv-x="844" 
d="M424 556v-117q0 -79 46.5 -123t127.5 -44q87 0 183 22l21 -284q-122 -30 -278 -30q-204 0 -323 95t-136 276l-4 94v105l4 94q17 179 136 275.5t319 96.5q59 0 139.5 -9.5t143.5 -24.5l-35 -285q-108 27 -176 27q-77 0 -122.5 -45.5t-45.5 -122.5zM315 1277q0 181 194 181
t194 -181q0 -180 -194 -180t-194 180z" />
    <glyph glyph-name="Ccaron" unicode="&#x10c;" horiz-adv-x="966" 
d="M899 326l30 -301q-62 -19 -152.5 -32t-183.5 -13q-233 0 -379.5 121.5t-146.5 338.5v467q0 126 56 231t183 170.5t302 65.5q74 0 159 -12.5t151 -35.5l-40 -297q-24 8 -92 19.5t-135 11.5q-85 0 -140 -49.5t-55 -135.5v-405q0 -84 55 -130.5t150 -46.5t238 33zM936 1841
l-185 -396h-391l-184 396l304 7l76 -214l75 214z" />
    <glyph glyph-name="ccaron" unicode="&#x10d;" horiz-adv-x="844" 
d="M424 556v-117q0 -79 46.5 -123t127.5 -44q87 0 183 22l21 -284q-122 -30 -278 -30q-204 0 -323 95t-136 276l-4 94v105l4 94q17 179 136 275.5t319 96.5q59 0 139.5 -9.5t143.5 -24.5l-35 -285q-108 27 -176 27q-77 0 -122.5 -45.5t-45.5 -122.5zM875 1483l-184 -397
h-391l-185 397l304 6l76 -214l76 214z" />
    <glyph glyph-name="Dcaron" unicode="&#x10e;" horiz-adv-x="1232" 
d="M104 0v1354h523q252 0 395 -119.5t143 -331.5v-466q0 -218 -140.5 -327.5t-397.5 -109.5h-523zM777 435v389q0 116 -37.5 175.5t-121.5 59.5h-129v-764h129q68 0 113.5 33t45.5 107zM934 1841l-184 -396h-391l-184 396l304 7l75 -214l76 214z" />
    <glyph glyph-name="dcaron" unicode="&#x10f;" horiz-adv-x="1431" 
d="M1125 1444h306l-20 -561h-266zM61 347v249q0 207 105.5 313.5t294.5 106.5q94 0 206 -28v456h362v-1444h-321l-15 89q-147 -104 -304 -104q-147 0 -237.5 99.5t-90.5 262.5zM538 280q64 0 121 43v389q-59 22 -108 22q-55 0 -87.5 -36t-32.5 -136v-133q0 -71 23.5 -110
t83.5 -39z" />
    <glyph glyph-name="Dcroat" unicode="&#x110;" horiz-adv-x="1239" 
d="M17 593v166h94v595h523q252 0 394.5 -119t142.5 -332v-466q0 -218 -140 -327.5t-397 -109.5h-523v593h-94zM783 435v410q0 107 -37.5 160.5t-120.5 53.5h-129v-300h170v-166h-170v-298h129q68 0 113 33t45 107z" />
    <glyph glyph-name="dcroat" unicode="&#x111;" horiz-adv-x="1146" 
d="M61 347v249q0 210 106.5 314t300.5 104q98 0 199 -26v150h-268v166h268v140h362v-140h112v-166h-112v-1138h-321l-15 89q-155 -107 -301 -107q-147 0 -239 100.5t-92 264.5zM538 280q64 0 121 43v389q-59 22 -108 22q-55 0 -87.5 -36t-32.5 -136v-133q0 -71 23.5 -110
t83.5 -39z" />
    <glyph glyph-name="Emacron" unicode="&#x112;" horiz-adv-x="1057" 
d="M104 0v1354h886v-318h-500v-212h479v-291h-479v-215h520v-318h-906zM205 1495v279h675v-279h-675z" />
    <glyph glyph-name="emacron" unicode="&#x113;" horiz-adv-x="1026" 
d="M57 406v170q0 211 122 325.5t343 114.5q212 0 329.5 -116t117.5 -327q0 -46 -4 -100t-4 -56h-548v-29q0 -126 209 -126q141 0 300 29l29 -265q-172 -46 -398 -46q-112 0 -204 27.5t-157 81t-100 134.5t-35 183zM413 628v-42h219v28q0 138 -110 138q-53 0 -81 -33t-28 -91
zM181 1136v280h676v-280h-676z" />
    <glyph glyph-name="Ebreve" unicode="&#x114;" horiz-adv-x="1057" 
d="M104 0v1354h886v-318h-500v-212h479v-291h-479v-215h520v-318h-906zM184 1815h276q4 -108 82 -108q30 0 55 23t26 85h277q0 -165 -93.5 -262t-264.5 -97t-264.5 97t-93.5 262z" />
    <glyph glyph-name="ebreve" unicode="&#x115;" horiz-adv-x="1026" 
d="M57 406v170q0 211 122 325.5t343 114.5q212 0 329.5 -116t117.5 -327q0 -46 -4 -100t-4 -56h-548v-29q0 -126 209 -126q141 0 300 29l29 -265q-172 -46 -398 -46q-112 0 -204 27.5t-157 81t-100 134.5t-35 183zM413 628v-42h219v28q0 138 -110 138q-53 0 -81 -33t-28 -91
zM154 1457h277q1 -48 21 -78.5t61 -30.5q40 0 60 30.5t21 78.5h277q0 -166 -93.5 -262.5t-264.5 -96.5t-265 96.5t-94 262.5z" />
    <glyph glyph-name="Edotaccent" unicode="&#x116;" horiz-adv-x="1057" 
d="M104 0v1354h886v-318h-500v-212h479v-291h-479v-215h520v-318h-906zM348 1636q0 180 194 180t194 -180t-194 -180t-194 180z" />
    <glyph glyph-name="edotaccent" unicode="&#x117;" horiz-adv-x="1026" 
d="M57 406v170q0 211 122 325.5t343 114.5q212 0 329.5 -116t117.5 -327q0 -46 -4 -100t-4 -56h-548v-29q0 -126 209 -126q141 0 300 29l29 -265q-172 -46 -398 -46q-112 0 -204 27.5t-157 81t-100 134.5t-35 183zM413 628v-42h219v28q0 138 -110 138q-53 0 -81 -33t-28 -91
zM318 1277q0 181 195 181q194 0 194 -181q0 -180 -194 -180q-195 0 -195 180z" />
    <glyph glyph-name="Eogonek" unicode="&#x118;" horiz-adv-x="1057" 
d="M104 0v1354h886v-318h-500v-212h479v-291h-479v-215h520v-318q-145 -103 -145 -196q0 -23 15 -44t54 -21q50 0 83 10l15 -201q-58 -16 -136 -16q-135 0 -210.5 50t-75.5 155q0 151 214 263h-720z" />
    <glyph glyph-name="eogonek" unicode="&#x119;" horiz-adv-x="1026" 
d="M57 406v144l5 94q18 178 139 275t321 97q192 0 308.5 -97.5t133.5 -276.5l5 -99q0 -22 -1.5 -47.5t-4 -51t-2.5 -27.5h-548v-29q0 -64 50.5 -95t158.5 -31q141 0 300 29l29 -265q-54 -15 -122 -26q-145 -104 -145 -196q0 -23 15 -44t54 -21q50 0 83 10l15 -201
q-43 -12 -112 -14q-41 -2 -95 3q-100 11 -157.5 60.5t-57.5 139.5q0 138 179 244l-55 -1q-112 0 -204 27.5t-157 81t-100 134.5t-35 183zM413 628v-42h219v28q0 138 -110 138q-53 0 -81 -33t-28 -91z" />
    <glyph glyph-name="Ecaron" unicode="&#x11a;" horiz-adv-x="1057" 
d="M104 0v1354h886v-318h-500v-212h479v-291h-479v-215h520v-318h-906zM929 1841l-184 -396h-391l-185 396l305 7l75 -214l76 214z" />
    <glyph glyph-name="ecaron" unicode="&#x11b;" horiz-adv-x="1026" 
d="M57 406v170q0 211 122 325.5t343 114.5q212 0 329.5 -116t117.5 -327q0 -46 -4 -100t-4 -56h-548v-29q0 -126 209 -126q141 0 300 29l29 -265q-172 -46 -398 -46q-112 0 -204 27.5t-157 81t-100 134.5t-35 183zM413 628v-42h219v28q0 138 -110 138q-53 0 -81 -33t-28 -91
zM892 1476l-184 -397h-391l-184 397l304 7l76 -214l75 214z" />
    <glyph glyph-name="Gcircumflex" unicode="&#x11c;" horiz-adv-x="1127" 
d="M1058 699v-646q-82 -30 -205.5 -51.5t-248.5 -21.5q-148 0 -271 50t-194.5 158t-71.5 268v427q0 163 79.5 275t216 164t298.5 52q85 0 186 -14.5t179 -43.5l-52 -302q-132 43 -270 43q-115 0 -181.5 -51.5t-66.5 -142.5v-402q0 -86 49 -130t138 -44q47 0 86 9v403h329z
M232 1448l182 397h390l181 -397l-304 -7l-72 215l-72 -215z" />
    <glyph glyph-name="gcircumflex" unicode="&#x11d;" horiz-adv-x="1060" 
d="M56 599v92q0 54 21 110.5t71.5 104t129 79t179.5 31.5q69 0 123 -26t86.5 -90.5t25.5 -171.5q20 60 18 142t-23 146l295 -21q22 -238 -14.5 -398t-151.5 -241t-310 -81q-50 0 -97 6q-31 -31 -31 -58q0 -41 62 -41h256q123 0 209 -45t130.5 -119.5t44.5 -177.5
q0 -104 -53.5 -174t-154.5 -108.5t-249 -38.5h-186q-189 0 -292 65t-103 185q0 61 40 115.5t114 93.5q-93 60 -93 157q0 57 35.5 109.5t88.5 86.5q-82 42 -126.5 110.5t-44.5 157.5zM407 704v-75q0 -135 101 -135q48 0 73 34.5t25 100.5v35q0 136 -98 136q-48 0 -74.5 -28
t-26.5 -68zM672 -78h-238l-43 1q-47 -31 -47 -75q0 -41 31.5 -59.5t116.5 -18.5h104q95 0 134.5 15t39.5 59q0 40 -27 59t-71 19zM138 1089l181 397h391l181 -397l-305 -6l-72 214l-72 -214z" />
    <glyph glyph-name="Gbreve" unicode="&#x11e;" horiz-adv-x="1127" 
d="M1058 699v-646q-82 -30 -205.5 -51.5t-248.5 -21.5q-148 0 -271 50t-194.5 158t-71.5 268v427q0 163 79.5 275t216 164t298.5 52q85 0 186 -14.5t179 -43.5l-52 -302q-132 43 -270 43q-115 0 -181.5 -51.5t-66.5 -142.5v-402q0 -86 49 -130t138 -44q47 0 86 9v403h329z
M248 1815h276q4 -108 82 -108t82 108h276q0 -165 -93.5 -262t-264.5 -97t-264.5 97t-93.5 262z" />
    <glyph glyph-name="gbreve" unicode="&#x11f;" horiz-adv-x="1060" 
d="M56 599v92q0 54 21 110.5t71.5 104t129 79t179.5 31.5q69 0 123 -26t86.5 -90.5t25.5 -171.5q20 60 18 142t-23 146l295 -21q22 -238 -14.5 -398t-151.5 -241t-310 -81q-50 0 -97 6q-31 -31 -31 -58q0 -41 62 -41h256q123 0 209 -45t130.5 -119.5t44.5 -177.5
q0 -104 -53.5 -174t-154.5 -108.5t-249 -38.5h-186q-189 0 -292 65t-103 185q0 61 40 115.5t114 93.5q-93 60 -93 157q0 57 35.5 109.5t88.5 86.5q-82 42 -126.5 110.5t-44.5 157.5zM407 704v-75q0 -135 101 -135q48 0 73 34.5t25 100.5v35q0 136 -98 136q-48 0 -74.5 -28
t-26.5 -68zM672 -78h-238l-43 1q-47 -31 -47 -75q0 -41 31.5 -59.5t116.5 -18.5h104q95 0 134.5 15t39.5 59q0 40 -27 59t-71 19zM151 1457h276q4 -109 82 -109t82 109h276q0 -166 -93.5 -262.5t-264.5 -96.5t-264.5 96.5t-93.5 262.5z" />
    <glyph glyph-name="Gdotaccent" unicode="&#x120;" horiz-adv-x="1127" 
d="M1058 699v-646q-82 -30 -205.5 -51.5t-248.5 -21.5q-148 0 -271 50t-194.5 158t-71.5 268v427q0 163 79.5 275t216 164t298.5 52q85 0 186 -14.5t179 -43.5l-52 -302q-132 43 -270 43q-115 0 -181.5 -51.5t-66.5 -142.5v-402q0 -86 49 -130t138 -44q47 0 86 9v403h329z
M425 1636q0 180 194 180t194 -180t-194 -180t-194 180z" />
    <glyph glyph-name="gdotaccent" unicode="&#x121;" horiz-adv-x="1060" 
d="M312 1277q0 181 194 181t194 -181q0 -180 -194 -180t-194 180zM56 599v92q0 54 21 110.5t71.5 104t129 79t179.5 31.5q69 0 123 -26t86.5 -90.5t25.5 -171.5q20 60 18 142t-23 146l295 -21q22 -238 -14.5 -398t-151.5 -241t-310 -81q-50 0 -97 6q-31 -31 -31 -58
q0 -41 62 -41h256q123 0 209 -45t130.5 -119.5t44.5 -177.5q0 -104 -53.5 -174t-154.5 -108.5t-249 -38.5h-186q-189 0 -292 65t-103 185q0 61 40 115.5t114 93.5q-93 60 -93 157q0 57 35.5 109.5t88.5 86.5q-82 42 -126.5 110.5t-44.5 157.5zM407 704v-75q0 -135 101 -135
q48 0 73 34.5t25 100.5v35q0 136 -98 136q-48 0 -74.5 -28t-26.5 -68zM672 -78h-238l-43 1q-47 -31 -47 -75q0 -41 31.5 -59.5t116.5 -18.5h104q95 0 134.5 15t39.5 59q0 40 -27 59t-71 19z" />
    <glyph glyph-name="Gcommaaccent" unicode="&#x122;" horiz-adv-x="1127" 
d="M1058 699v-646q-82 -30 -205.5 -51.5t-248.5 -21.5q-148 0 -271 50t-194.5 158t-71.5 268v427q0 163 79.5 275t216 164t298.5 52q85 0 186 -14.5t179 -43.5l-52 -302q-132 43 -270 43q-115 0 -181.5 -51.5t-66.5 -142.5v-402q0 -86 49 -130t138 -44q47 0 86 9v403h329z
M465 -86h310l-10 -80q-11 -101 -51 -199.5t-89 -161.5h-225q27 81 46 179t19 181v81z" />
    <glyph glyph-name="gcommaaccent" unicode="&#x123;" horiz-adv-x="1060" 
d="M56 599v92q0 54 21 110.5t71.5 104t129 79t179.5 31.5q69 0 123 -26t86.5 -90.5t25.5 -171.5q20 60 18 142t-23 146l295 -21q22 -238 -14.5 -398t-151.5 -241t-310 -81q-50 0 -97 6q-31 -31 -31 -58q0 -41 62 -41h256q123 0 209 -45t130.5 -119.5t44.5 -177.5
q0 -104 -53.5 -174t-154.5 -108.5t-249 -38.5h-186q-189 0 -292 65t-103 185q0 61 40 115.5t114 93.5q-93 60 -93 157q0 57 35.5 109.5t88.5 86.5q-82 42 -126.5 110.5t-44.5 157.5zM407 704v-75q0 -135 101 -135q48 0 73 34.5t25 100.5v35q0 136 -98 136q-48 0 -74.5 -28
t-26.5 -68zM672 -78h-238l-43 1q-47 -31 -47 -75q0 -41 31.5 -59.5t116.5 -18.5h104q95 0 134.5 15t39.5 59q0 40 -27 59t-71 19zM641 1101h-310l10 80q11 100 51 198.5t89 162.5h225q-27 -82 -46 -180t-19 -181v-80z" />
    <glyph glyph-name="Hcircumflex" unicode="&#x124;" horiz-adv-x="1328" 
d="M1224 0h-385v509h-350v-509h-385v1354h385v-512h350v512h385v-1354zM287 1448l181 397h391l181 -397l-304 -7l-72 215l-72 -215z" />
    <glyph glyph-name="hcircumflex" unicode="&#x125;" horiz-adv-x="1147" 
d="M97 1444h362v-529q159 101 306 101q142 0 218 -76.5t76 -220.5v-719h-370v603q0 43 -22.5 67t-65.5 24q-64 0 -134 -48v-646h-370v1444zM-86 1508l181 396h391l181 -396l-304 -7l-72 214l-73 -214z" />
    <glyph glyph-name="Hbar" unicode="&#x126;" horiz-adv-x="1368" 
d="M-2 1008v166h126v180h385v-180h350v180h385v-180h126v-166h-126v-1008h-385v509h-350v-509h-385v1008h-126zM509 842h350v166h-350v-166z" />
    <glyph glyph-name="hbar" unicode="&#x127;" horiz-adv-x="1167" 
d="M117 1444h362v-140h268v-166h-268v-223q159 101 306 101q142 0 218 -76.5t76 -220.5v-719h-370v603q0 43 -22.5 67t-65.5 24q-64 0 -134 -48v-646h-370v1138h-112v166h112v140z" />
    <glyph glyph-name="Itilde" unicode="&#x128;" horiz-adv-x="593" 
d="M489 1354v-1354h-385v1354h385zM168 1809q53 0 133 -28t109 -28q65 0 124 67l160 -114q-15 -53 -51 -113t-94 -96.5t-123 -36.5q-52 0 -132.5 28t-109.5 28q-64 0 -124 -68l-160 114q15 54 51 113.5t94 96.5t123 37z" />
    <glyph glyph-name="itilde" unicode="&#x129;" horiz-adv-x="551" 
d="M90 996h370v-996h-370v996zM147 1450q52 0 132.5 -28t109.5 -28q64 0 124 68l160 -115q-18 -66 -57.5 -122t-93 -90t-118.5 -34q-52 0 -132 28.5t-109 28.5q-64 0 -124 -68l-160 114q15 53 51 113t94 96.5t123 36.5z" />
    <glyph glyph-name="Imacron" unicode="&#x12a;" horiz-adv-x="593" 
d="M489 1354v-1354h-385v1354h385zM-41 1495v279h675v-279h-675z" />
    <glyph glyph-name="imacron" unicode="&#x12b;" horiz-adv-x="551" 
d="M90 996h370v-996h-370v996zM-62 1136v280h675v-280h-675z" />
    <glyph glyph-name="Ibreve" unicode="&#x12c;" horiz-adv-x="593" 
d="M489 1354v-1354h-385v1354h385zM-62 1815h277q4 -108 82 -108q30 0 55 23t26 85h277q0 -165 -93.5 -262t-264.5 -97t-265 97t-94 262z" />
    <glyph glyph-name="ibreve" unicode="&#x12d;" horiz-adv-x="551" 
d="M90 996h370v-996h-370v996zM-83 1457h277q1 -49 20.5 -79t60.5 -30q78 0 82 109h276q0 -166 -93.5 -262.5t-264.5 -96.5t-264.5 96.5t-93.5 262.5z" />
    <glyph glyph-name="Iogonek" unicode="&#x12e;" horiz-adv-x="593" 
d="M489 1354v-1354q-145 -104 -145 -196q0 -23 15 -44t54 -21q50 0 83 10l15 -201q-43 -12 -113 -14q-53 -3 -110 6q-93 13 -146 61.5t-53 135.5q0 151 214 263h-199v1354h385z" />
    <glyph glyph-name="iogonek" unicode="&#x12f;" horiz-adv-x="551" 
d="M90 996h370v-996q-145 -103 -145 -196q0 -31 19 -48t49 -17q51 0 84 10l14 -201q-56 -16 -136 -16q-134 0 -209.5 50t-75.5 155q0 151 214 263h-184v996zM81 1277q0 181 194 181t194 -181q0 -180 -194 -180t-194 180z" />
    <glyph glyph-name="Idotaccent" unicode="&#x130;" horiz-adv-x="593" 
d="M489 1354v-1354h-385v1354h385zM103 1636q0 180 194 180t194 -180t-194 -180t-194 180z" />
    <glyph glyph-name="dotlessi" unicode="&#x131;" horiz-adv-x="551" 
d="M90 996h370v-996h-370v996z" />
    <glyph glyph-name="IJ" unicode="&#x132;" horiz-adv-x="1185" 
d="M489 1354v-1354h-385v1354h385zM696 1354h385v-1332q0 -158 -93.5 -274.5t-320.5 -215.5l-159 233q61 40 100 76t63.5 88t24.5 121v1304z" />
    <glyph glyph-name="ij" unicode="&#x133;" horiz-adv-x="1129" 
d="M662 996h370v-974q0 -158 -90 -274.5t-310 -215.5l-159 233q114 75 151.5 139.5t37.5 146.5v945zM97 996h370v-996h-370v996zM652 1278q0 180 194 180t194 -180t-194 -180t-194 180zM88 1278q0 180 194 180t194 -180t-194 -180t-194 180z" />
    <glyph glyph-name="Jcircumflex" unicode="&#x134;" horiz-adv-x="592" 
d="M103 1354h386v-1332q0 -158 -93.5 -274t-320.5 -216l-159 233q112 72 149.5 138t37.5 147v1304zM-80 1448l181 397h391l181 -397l-304 -7l-73 215l-72 -215z" />
    <glyph glyph-name="jcircumflex" unicode="&#x135;" horiz-adv-x="557" 
d="M94 996h370v-974q0 -158 -90 -274.5t-310 -215.5l-159 233q114 75 151.5 139.5t37.5 146.5v945zM-97 1089l181 397h391l181 -397l-304 -6l-73 214l-72 -214z" />
    <glyph glyph-name="Kcommaaccent" unicode="&#x136;" horiz-adv-x="1206" 
d="M762 1354h415l-275 -686l291 -668h-415l-198 523h-91v-523h-385v1354h385v-506h99zM472 -86h309l-9 -80q-12 -101 -52 -199.5t-89 -161.5h-224q27 81 46 179t19 181v81z" />
    <glyph glyph-name="kcommaaccent" unicode="&#x137;" horiz-adv-x="1122" 
d="M97 1444h370v-788h76l141 340h407l-242 -494l254 -502h-405l-157 367h-74v-367h-370v1444zM421 -86h309l-7 -70q-11 -104 -51.5 -205t-90.5 -166h-225q27 81 46 179t19 181v81z" />
    <glyph glyph-name="kgreenlandic" unicode="&#x138;" horiz-adv-x="1122" 
d="M97 996h370v-337h77l140 336h407l-242 -493l254 -502h-405l-156 364h-75v-364h-370v996z" />
    <glyph glyph-name="Lacute" unicode="&#x139;" horiz-adv-x="981" 
d="M489 1354v-1029h465v-325h-850v1354h385zM380 1430l-247 32l184 399l370 -71z" />
    <glyph glyph-name="lacute" unicode="&#x13a;" horiz-adv-x="565" 
d="M97 1444h370v-1444h-370v1444zM359 1523l-247 32l184 399l370 -71z" />
    <glyph glyph-name="Lcommaaccent" unicode="&#x13b;" horiz-adv-x="981" 
d="M489 1354v-1029h465v-325h-850v1354h385zM385 -86h309l-9 -80q-11 -101 -51 -199.5t-89 -161.5h-225q27 81 46 179t19 181v81z" />
    <glyph glyph-name="lcommaaccent" unicode="&#x13c;" horiz-adv-x="565" 
d="M97 1444h370v-1444h-370v1444zM131 -86h309l-9 -80q-11 -100 -51 -198.5t-89 -162.5h-225q27 81 46 179t19 181v81z" />
    <glyph glyph-name="Lcaron" unicode="&#x13d;" horiz-adv-x="981" 
d="M618 1444h306l-20 -561h-266zM489 1354v-1029h465v-325h-850v1354h385z" />
    <glyph glyph-name="lcaron" unicode="&#x13e;" horiz-adv-x="870" 
d="M564 1444h306l-20 -561h-266zM97 1444h370v-1444h-370v1444z" />
    <glyph glyph-name="Ldot" unicode="&#x13f;" horiz-adv-x="1025" 
d="M489 1354v-1029h465v-325h-850v1354h385zM601 722q0 180 194 180q195 0 195 -180t-195 -180q-194 0 -194 180z" />
    <glyph glyph-name="ldot" unicode="&#x140;" horiz-adv-x="940" 
d="M97 1444h370v-1444h-370v1444zM551 722q0 180 195 180q194 0 194 -180q0 -181 -194 -181q-195 0 -195 181z" />
    <glyph glyph-name="Lslash" unicode="&#x141;" horiz-adv-x="1052" 
d="M516 1354v-452l220 105l72 -150l-292 -139v-393h465v-325h-850v534l-89 -42l-72 151l161 76v635h385z" />
    <glyph glyph-name="lslash" unicode="&#x142;" horiz-adv-x="646" 
d="M138 1444h370v-494l94 55l84 -145l-178 -102v-758h-370v545l-94 -54l-83 144l177 102v707z" />
    <glyph glyph-name="Nacute" unicode="&#x143;" horiz-adv-x="1316" 
d="M837 0l-361 727v-727h-372v1354h375l361 -727v727h372v-1354h-375zM721 1430l-247 32l184 399l370 -71z" />
    <glyph glyph-name="nacute" unicode="&#x144;" horiz-adv-x="1147" 
d="M97 996h321l16 -95q176 115 331 115q142 0 218 -76.5t76 -220.5v-719h-370v603q0 43 -22.5 67t-65.5 24q-64 0 -134 -48v-646h-370v996zM620 1071l-247 32l184 399l370 -71z" />
    <glyph glyph-name="Ncommaaccent" unicode="&#x145;" horiz-adv-x="1316" 
d="M837 0l-361 727v-727h-372v1354h375l361 -727v727h372v-1354h-375zM529 -86h309l-9 -80q-12 -101 -52 -199.5t-88 -161.5h-225q27 81 46 179t19 181v81z" />
    <glyph glyph-name="ncommaaccent" unicode="&#x146;" horiz-adv-x="1147" 
d="M97 996h321l16 -95q176 115 331 115q142 0 218 -76.5t76 -220.5v-719h-370v603q0 43 -22.5 67t-65.5 24q-64 0 -134 -48v-646h-370v996zM418 -86h309l-9 -80q-12 -101 -52 -199.5t-89 -161.5h-224q27 81 46 179t19 181v81z" />
    <glyph glyph-name="Ncaron" unicode="&#x147;" horiz-adv-x="1316" 
d="M837 0l-361 727v-727h-372v1354h375l361 -727v727h372v-1354h-375zM1031 1841l-184 -396h-391l-185 396l305 7l75 -214l76 214z" />
    <glyph glyph-name="ncaron" unicode="&#x148;" horiz-adv-x="1147" 
d="M97 996h321l16 -95q176 115 331 115q142 0 218 -76.5t76 -220.5v-719h-370v603q0 43 -22.5 67t-65.5 24q-64 0 -134 -48v-646h-370v996zM949 1483l-184 -397h-391l-184 397l304 6l75 -214l76 214z" />
    <glyph glyph-name="napostrophe" unicode="&#x149;" horiz-adv-x="1147" 
d="M97 996h321l16 -95q176 115 331 115q142 0 218 -76.5t76 -220.5v-719h-370v603q0 43 -22.5 67t-65.5 24q-64 0 -134 -48v-646h-370v996zM34 1583h308v-27q0 -114 -41 -224.5t-105 -197.5h-212q19 62 34.5 169.5t15.5 209.5v70z" />
    <glyph glyph-name="Eng" unicode="&#x14a;" horiz-adv-x="1303" 
d="M473 1354l361 -728v728h365v-1332q0 -158 -89 -274.5t-305 -215.5l-159 233q98 63 142 125t46 153l-51 120l-314 590v-753h-365v1354h369z" />
    <glyph glyph-name="eng" unicode="&#x14b;" horiz-adv-x="1147" 
d="M97 995h321l16 -94q176 115 331 115q142 0 218 -76.5t76 -220.5v-697q0 -158 -90 -274.5t-309 -215.5l-159 233q113 75 150.5 139.5t37.5 146.5v552q0 43 -22.5 67t-65.5 24q-64 0 -134 -48v-646h-370v995z" />
    <glyph glyph-name="Omacron" unicode="&#x14c;" horiz-adv-x="1223" 
d="M274 1495v279h675v-279h-675zM67 437v480q0 220 143 338.5t401 118.5t401.5 -118.5t143.5 -338.5v-480q0 -124 -51 -226.5t-176.5 -166.5t-317.5 -64q-255 0 -399.5 116t-144.5 341zM456 938v-522q0 -67 41 -107t114 -40q74 0 115 40t41 107v522q0 67 -41 106t-115 39
t-114.5 -39t-40.5 -106z" />
    <glyph glyph-name="omacron" unicode="&#x14d;" horiz-adv-x="1100" 
d="M61 416v163q0 211 128.5 324t360.5 113t360.5 -113t128.5 -324v-163q0 -210 -128.5 -323t-360.5 -113q-233 0 -361 112.5t-128 323.5zM431 607v-191q0 -154 119 -154t119 154v163q0 155 -119 155q-56 0 -87.5 -35t-31.5 -92zM212 1136v280h676v-280h-676z" />
    <glyph glyph-name="Obreve" unicode="&#x14e;" horiz-adv-x="1223" 
d="M253 1815h277q4 -108 82 -108q30 0 55 23t26 85h277q0 -165 -93.5 -262t-264.5 -97t-265 97t-94 262zM67 437v480q0 220 143 338.5t401 118.5t401.5 -118.5t143.5 -338.5v-480q0 -124 -51 -226.5t-176.5 -166.5t-317.5 -64q-255 0 -399.5 116t-144.5 341zM456 938v-522
q0 -67 41 -107t114 -40q74 0 115 40t41 107v522q0 67 -41 106t-115 39t-114.5 -39t-40.5 -106z" />
    <glyph glyph-name="obreve" unicode="&#x14f;" horiz-adv-x="1100" 
d="M61 416v163q0 211 128.5 324t360.5 113t360.5 -113t128.5 -324v-163q0 -210 -128.5 -323t-360.5 -113q-233 0 -361 112.5t-128 323.5zM431 607v-219q0 -58 31 -92t88 -34t88 34t31 92v219q0 57 -31.5 92t-87.5 35t-87.5 -35t-31.5 -92zM189 1457h276q4 -109 82 -109
t82 109h276q0 -166 -93.5 -262.5t-264.5 -96.5t-264.5 96.5t-93.5 262.5z" />
    <glyph glyph-name="Ohungarumlaut" unicode="&#x150;" horiz-adv-x="1223" 
d="M513 1433l-239 18l69 422l325 -40zM880 1433l-241 19l146 417l350 -53zM67 437v480q0 220 143 338.5t401 118.5t401.5 -118.5t143.5 -338.5v-480q0 -124 -51 -226.5t-176.5 -166.5t-317.5 -64q-255 0 -399.5 116t-144.5 341zM456 938v-522q0 -67 41 -107t114 -40
q74 0 115 40t41 107v522q0 67 -41 106t-115 39t-114.5 -39t-40.5 -106z" />
    <glyph glyph-name="ohungarumlaut" unicode="&#x151;" horiz-adv-x="1100" 
d="M61 416v163q0 211 128.5 324t360.5 113t360.5 -113t128.5 -324v-163q0 -210 -128.5 -323t-360.5 -113q-233 0 -361 112.5t-128 323.5zM431 607v-219q0 -58 31 -92t88 -34t88 34t31 92v219q0 57 -31.5 92t-87.5 35t-87.5 -35t-31.5 -92zM458 1075l-239 17l69 423l326 -41z
M825 1075l-241 18l146 417l350 -53z" />
    <glyph glyph-name="OE" unicode="&#x152;" horiz-adv-x="1631" 
d="M778 0v50q-85 -70 -203 -70q-241 0 -374.5 118t-133.5 339v480q0 220 134 338.5t374 118.5q122 0 203 -70v50h786v-318h-466v-212h446v-291h-446v-215h487v-318h-807zM601 269q50 0 84.5 20.5t48.5 56.5v662q-32 75 -133 75q-70 0 -110.5 -49.5t-40.5 -186.5v-340
q0 -123 35 -180.5t116 -57.5z" />
    <glyph glyph-name="oe" unicode="&#x153;" horiz-adv-x="1567" 
d="M543 1016q142 0 271 -77q123 77 258 77q208 0 323 -116t115 -327v-40q0 -19 -1 -42t-3.5 -47.5t-2.5 -26.5h-538v-29q0 -126 207 -126q135 0 292 29l28 -265q-166 -46 -389 -46q-58 0 -135 16.5t-149 60.5q-54 -34 -127 -55.5t-149 -21.5q-205 0 -330 92.5t-146 265.5
q-6 51 -6 106v107q0 55 6 106q21 173 146 266t330 93zM629 387v180q0 55 12 103q-26 64 -98 64q-119 0 -119 -168v-137q0 -167 119 -167q75 0 98 63q-12 27 -12 62zM965 628v-42h215v28q0 138 -108 138q-52 0 -79.5 -33t-27.5 -91z" />
    <glyph glyph-name="Racute" unicode="&#x154;" horiz-adv-x="1218" 
d="M104 1354h523q245 0 382.5 -113.5t137.5 -323.5v-62q0 -143 -48 -238.5t-148 -150.5l234 -466h-413l-174 394h-109v-394h-385v1354zM616 1430l-248 32l184 399l370 -71zM622 1059h-133v-385h133q141 0 141 157v72q0 156 -141 156z" />
    <glyph glyph-name="racute" unicode="&#x155;" horiz-adv-x="760" 
d="M97 996h320l17 -116q63 55 144.5 95t160.5 41l1 -352q-66 -2 -143 -24t-130 -55v-585h-370v996zM450 1071l-248 32l184 399l370 -71z" />
    <glyph glyph-name="Rcommaaccent" unicode="&#x156;" horiz-adv-x="1218" 
d="M104 1354h523q245 0 382.5 -113.5t137.5 -323.5v-62q0 -143 -48 -238.5t-148 -150.5l234 -466h-413l-174 394h-109v-394h-385v1354zM463 -86h309l-9 -80q-11 -100 -51 -198.5t-89 -162.5h-225q27 81 46 179t19 181v81zM622 1059h-133v-385h133q141 0 141 157v72
q0 156 -141 156z" />
    <glyph glyph-name="rcommaaccent" unicode="&#x157;" horiz-adv-x="760" 
d="M97 996h320l17 -116q63 55 144.5 95t160.5 41l1 -352q-66 -2 -143 -24t-130 -55v-585h-370v996zM135 -86h309l-9 -80q-11 -100 -51 -198.5t-89 -162.5h-225q27 81 46 179t19 181v81z" />
    <glyph glyph-name="Rcaron" unicode="&#x158;" horiz-adv-x="1218" 
d="M104 1354h523q245 0 382.5 -113.5t137.5 -323.5v-62q0 -143 -48 -238.5t-148 -150.5l234 -466h-413l-174 394h-109v-394h-385v1354zM932 1841l-185 -396h-391l-184 396l304 7l76 -214l76 214zM622 1059h-133v-385h133q141 0 141 157v72q0 156 -141 156z" />
    <glyph glyph-name="rcaron" unicode="&#x159;" horiz-adv-x="760" 
d="M97 996h320l17 -116q63 55 144.5 95t160.5 41l1 -352q-66 -2 -143 -24t-130 -55v-585h-370v996zM797 1483l-184 -397h-391l-184 397l304 6l75 -214l76 214z" />
    <glyph glyph-name="Sacute" unicode="&#x15a;" horiz-adv-x="1018" 
d="M981 402q0 -422 -493 -422q-97 0 -221.5 15t-227.5 49l47 310q182 -53 331 -53q92 0 139.5 21t47.5 76q0 46 -29 68t-134.5 55t-181.5 64q-107 44 -158 127t-51 224q0 96 32 177t94.5 139t155.5 90t210 32q202 0 391 -50l-43 -314q-176 44 -294 44q-84 0 -131 -25.5
t-47 -75.5q0 -43 28 -68.5t95 -46.5l137 -43q120 -38 183 -89t91.5 -124t28.5 -180zM598 1430l-247 32l184 399l370 -71z" />
    <glyph glyph-name="sacute" unicode="&#x15b;" horiz-adv-x="866" 
d="M832 290q0 -310 -415 -310q-83 0 -191 13t-173 39l40 248q42 -15 121 -29.5t144 -14.5q63 0 93 12t30 46q0 14 -6.5 26t-21.5 20.5t-35 15.5t-42 12.5t-55.5 14t-42.5 10.5q-129 32 -177.5 103.5t-48.5 193.5q0 150 102.5 238t300.5 88q167 0 335 -37l-33 -253
q-156 34 -245 34q-111 0 -111 -64q0 -27 25.5 -45t151.5 -49q139 -35 196.5 -104t57.5 -208zM502 1071l-247 32l184 399l370 -71z" />
    <glyph glyph-name="Scircumflex" unicode="&#x15c;" horiz-adv-x="1018" 
d="M159 1448l181 397h391l181 -397l-304 -7l-73 215l-72 -215zM981 402q0 -422 -493 -422q-97 0 -221.5 15t-227.5 49l47 310q182 -53 331 -53q92 0 139.5 21t47.5 76q0 46 -29 68t-134.5 55t-181.5 64q-107 44 -158 127t-51 224q0 96 32 177t94.5 139t155.5 90t210 32
q202 0 391 -50l-43 -314q-176 44 -294 44q-84 0 -131 -25.5t-47 -75.5q0 -43 28 -68.5t95 -46.5l137 -43q120 -38 183 -89t91.5 -124t28.5 -180z" />
    <glyph glyph-name="scircumflex" unicode="&#x15d;" horiz-adv-x="866" 
d="M63 1089l181 397h391l181 -397l-304 -6l-72 214l-73 -214zM832 290q0 -310 -415 -310q-83 0 -191 13t-173 39l40 248q42 -15 121 -29.5t144 -14.5q63 0 93 12t30 46q0 14 -6.5 26t-21.5 20.5t-35 15.5t-42 12.5t-55.5 14t-42.5 10.5q-129 32 -177.5 103.5t-48.5 193.5
q0 150 102.5 238t300.5 88q167 0 335 -37l-33 -253q-156 34 -245 34q-111 0 -111 -64q0 -27 25.5 -45t151.5 -49q139 -35 196.5 -104t57.5 -208z" />
    <glyph glyph-name="Scedilla" unicode="&#x15e;" horiz-adv-x="1018" 
d="M981 402q0 -406 -457 -421l-8 -62q94 -10 150 -59.5t56 -137.5q0 -93 -85.5 -141.5t-226.5 -48.5q-82 0 -146 16l15 189q48 -11 93 -11q41 0 68 12.5t27 38.5q0 50 -76 50h-64l33 158q-195 15 -321 59l47 310q182 -53 331 -53q93 0 140 20.5t47 76.5q0 34 -28.5 62
t-144 65.5t-161.5 55.5q-113 44 -166.5 127.5t-53.5 229.5q0 95 32 175.5t94.5 138.5t156 90t209.5 32q202 0 391 -50l-43 -314q-176 44 -294 44q-83 0 -130.5 -26t-47.5 -75q0 -43 28 -68.5t95 -46.5l137 -43q120 -38 183 -89t91.5 -124t28.5 -180z" />
    <glyph glyph-name="scedilla" unicode="&#x15f;" horiz-adv-x="866" 
d="M832 290q0 -291 -366 -308l-7 -63q94 -10 150 -59.5t56 -137.5q0 -93 -85.5 -141.5t-226.5 -48.5q-82 0 -146 16l15 189q48 -11 93 -11q41 0 68 12.5t27 38.5q0 50 -76 50h-64l33 158q-162 13 -250 47l40 248q42 -15 121 -29.5t144 -14.5q63 0 93 12t30 46q0 14 -8 28.5
t-34.5 25.5t-160.5 45q-133 33 -180.5 105t-47.5 197q0 147 105 234t300 87q167 0 335 -37l-33 -253q-156 34 -245 34q-111 0 -111 -64q0 -27 25.5 -45t151.5 -49q139 -35 196.5 -104t57.5 -208z" />
    <glyph glyph-name="Scaron" unicode="&#x160;" horiz-adv-x="1018" 
d="M909 1841l-185 -396h-391l-184 396l304 7l76 -214l75 214zM981 402q0 -422 -493 -422q-97 0 -221.5 15t-227.5 49l47 310q182 -53 331 -53q92 0 139.5 21t47.5 76q0 46 -29 68t-134.5 55t-181.5 64q-107 44 -158 127t-51 224q0 96 32 177t94.5 139t155.5 90t210 32
q202 0 391 -50l-43 -314q-176 44 -294 44q-84 0 -131 -25.5t-47 -75.5q0 -43 28 -68.5t95 -46.5l137 -43q120 -38 183 -89t91.5 -124t28.5 -180z" />
    <glyph glyph-name="scaron" unicode="&#x161;" horiz-adv-x="866" 
d="M813 1483l-184 -397h-391l-185 397l304 6l76 -214l76 214zM832 290q0 -310 -415 -310q-83 0 -191 13t-173 39l40 248q42 -15 121 -29.5t144 -14.5q63 0 93 12t30 46q0 14 -6.5 26t-21.5 20.5t-35 15.5t-42 12.5t-55.5 14t-42.5 10.5q-129 32 -177.5 103.5t-48.5 193.5
q0 150 102.5 238t300.5 88q167 0 335 -37l-33 -253q-156 34 -245 34q-111 0 -111 -64q0 -27 25.5 -45t151.5 -49q139 -35 196.5 -104t57.5 -208z" />
    <glyph glyph-name="Tcommaaccent" unicode="&#x162;" horiz-adv-x="1078" 
d="M346 0v1043h-323v311h1031v-311h-322v-1043h-142l-9 -81q94 -10 150 -59.5t56 -137.5q0 -93 -85.5 -141.5t-226.5 -48.5q-82 0 -146 16l15 189q48 -11 93 -11q41 0 68 12.5t27 38.5q0 50 -76 50h-64l37 173h-83z" />
    <glyph glyph-name="tcommaaccent" unicode="&#x163;" horiz-adv-x="725" 
d="M22 717v279h122l18 278h334v-278h183v-279h-175v-352q0 -38 15 -66.5t66 -28.5q15 0 110 10l18 -272q-99 -28 -241 -28l-8 -61q94 -10 150.5 -59.5t56.5 -137.5q0 -93 -85.5 -141.5t-226.5 -48.5q-82 0 -146 16l15 189q46 -11 93 -11q40 0 67 12.5t27 38.5q0 50 -75 50
h-65l38 175q-120 42 -150 162q-14 49 -22.5 133t-7.5 250.5t1 169.5h-112z" />
    <glyph glyph-name="Tcaron" unicode="&#x164;" horiz-adv-x="1078" 
d="M346 0v1043h-323v311h1031v-311h-322v-1043h-386zM919 1841l-185 -396h-391l-184 396l304 7l76 -214l75 214z" />
    <glyph glyph-name="tcaron" unicode="&#x165;" horiz-adv-x="873" 
d="M22 717v279h122l18 278h334v-278h183v-279h-175v-352q0 -38 15 -66.5t66 -28.5q15 0 110 10l18 -272q-99 -28 -240 -28q-278 0 -322 212q-13 71 -16 164.5t-2 212t1 148.5h-112zM559 1661h306l-20 -561h-266z" />
    <glyph glyph-name="Tbar" unicode="&#x166;" horiz-adv-x="1078" 
d="M186 640v167h160v236h-323v311h1031v-311h-322v-236h158v-167h-158v-640h-386v640h-160z" />
    <glyph glyph-name="tbar" unicode="&#x167;" horiz-adv-x="725" 
d="M496 996h183v-279h-175v-115h151v-166h-151v-77q0 -89 81 -89q15 0 110 10l18 -272q-99 -28 -240 -28q-152 0 -234.5 61.5t-97.5 189.5q-7 53 -7 125v80h-116v166h116v115h-112v279h122l18 278h334v-278z" />
    <glyph glyph-name="Utilde" unicode="&#x168;" horiz-adv-x="1255" 
d="M775 1354h386v-927q0 -213 -139 -330t-395 -117q-255 0 -394 117t-139 330v927h385v-932q0 -59 40 -96t108 -37q69 0 108.5 36.5t39.5 96.5v932zM499 1809q52 0 132.5 -28t109.5 -28q63 0 124 67l160 -114q-15 -53 -51 -112.5t-94 -96.5t-123 -37q-53 0 -133 28t-109 28
q-65 0 -124 -68l-160 114q15 54 51 113.5t94 96.5t123 37z" />
    <glyph glyph-name="utilde" unicode="&#x169;" horiz-adv-x="1143" 
d="M1046 0h-321l-15 95q-171 -115 -330 -115q-141 0 -217 76.5t-76 220.5v719h370v-604q0 -43 22.5 -66t64.5 -23q65 0 132 47v646h370v-996zM440 1450q52 0 132 -28t109 -28q65 0 124 68l160 -115q-15 -53 -51 -113t-94 -96.5t-123 -36.5q-52 0 -132.5 28.5t-109.5 28.5
q-62 0 -124 -68l-160 114q18 66 57 122t92.5 90t119.5 34z" />
    <glyph glyph-name="Umacron" unicode="&#x16a;" horiz-adv-x="1255" 
d="M775 1354h386v-927q0 -213 -139 -330t-395 -117q-255 0 -394 117t-139 330v927h385v-932q0 -59 40 -96t108 -37q69 0 108.5 36.5t39.5 96.5v932zM290 1495v279h675v-279h-675z" />
    <glyph glyph-name="umacron" unicode="&#x16b;" horiz-adv-x="1143" 
d="M1046 0h-321l-15 95q-171 -115 -330 -115q-141 0 -217 76.5t-76 220.5v719h370v-604q0 -43 22.5 -66t64.5 -23q65 0 132 47v646h370v-996zM233 1136v280h676v-280h-676z" />
    <glyph glyph-name="Ubreve" unicode="&#x16c;" horiz-adv-x="1255" 
d="M775 1354h386v-927q0 -213 -139 -330t-395 -117q-255 0 -394 117t-139 330v927h385v-932q0 -59 40 -96t108 -37q69 0 108.5 36.5t39.5 96.5v932zM270 1815h276q4 -108 82 -108q30 0 55 23t26 85h277q0 -165 -93.5 -262t-264.5 -97t-264.5 97t-93.5 262z" />
    <glyph glyph-name="ubreve" unicode="&#x16d;" horiz-adv-x="1143" 
d="M1046 0h-321l-15 95q-171 -115 -330 -115q-141 0 -217 76.5t-76 220.5v719h370v-604q0 -43 22.5 -66t64.5 -23q65 0 132 47v646h370v-996zM213 1457h276q4 -109 82 -109t82 109h276q0 -166 -93.5 -262.5t-264.5 -96.5t-264.5 96.5t-93.5 262.5z" />
    <glyph glyph-name="Uring" unicode="&#x16e;" horiz-adv-x="1255" 
d="M775 1354h386v-927q0 -213 -139 -330t-395 -117q-255 0 -394 117t-139 330v927h385v-932q0 -59 40 -96t108 -37q69 0 108.5 36.5t39.5 96.5v932zM351 1645q0 110 74 172.5t206 62.5q125 0 199 -61t74 -165q0 -110 -74 -172.5t-207 -62.5q-124 0 -198 61t-74 165z
M560 1650q0 -27 18.5 -44.5t48.5 -17.5q31 0 49.5 17t18.5 44q0 28 -18.5 45.5t-48.5 17.5t-49 -17.5t-19 -44.5z" />
    <glyph glyph-name="uring" unicode="&#x16f;" horiz-adv-x="1143" 
d="M1046 0h-321l-15 95q-171 -115 -330 -115q-141 0 -217 76.5t-76 220.5v719h370v-604q0 -43 22.5 -66t64.5 -23q65 0 132 47v646h370v-996zM299 1287q0 110 74 172.5t206 62.5q125 0 198.5 -61t73.5 -165q0 -111 -73.5 -173.5t-206.5 -62.5q-124 0 -198 61.5t-74 165.5z
M508 1291q0 -27 18.5 -44.5t48.5 -17.5t49 17.5t19 44.5t-18.5 44.5t-48.5 17.5t-49 -17.5t-19 -44.5z" />
    <glyph glyph-name="Uhungarumlaut" unicode="&#x170;" horiz-adv-x="1255" 
d="M775 1354h386v-927q0 -213 -139 -330t-395 -117q-255 0 -394 117t-139 330v927h385v-932q0 -59 40 -96t108 -37q69 0 108.5 36.5t39.5 96.5v932zM545 1433l-238 18l68 422l326 -40zM912 1433l-241 19l147 417l349 -53z" />
    <glyph glyph-name="uhungarumlaut" unicode="&#x171;" horiz-adv-x="1143" 
d="M762 1510l349 -53l-254 -382l-242 18zM87 277v719h370v-604q0 -43 22.5 -66t64.5 -23q65 0 132 47v646h370v-996h-321l-15 95q-171 -115 -330 -115q-141 0 -217 76.5t-76 220.5zM319 1515l326 -41l-156 -399l-238 17z" />
    <glyph glyph-name="Uogonek" unicode="&#x172;" horiz-adv-x="1255" 
d="M775 1354h386v-927q0 -169 -88.5 -279t-255.5 -148q-145 -103 -145 -196q0 -23 15 -44t54 -21q50 0 83 10l14 -201q-56 -16 -136 -16q-134 0 -209.5 50t-75.5 155q0 138 179 244q-241 7 -371.5 123.5t-130.5 322.5v927h385v-932q0 -59 40 -96t108 -37q69 0 108.5 36.5
t39.5 96.5v932z" />
    <glyph glyph-name="uogonek" unicode="&#x173;" horiz-adv-x="1143" 
d="M1046 0q-145 -103 -145 -196q0 -31 19 -48t49 -17q51 0 84 10l14 -201q-56 -16 -136 -16q-133 0 -209 50t-76 155q0 151 214 263h-135l-15 95q-171 -115 -330 -115q-141 0 -217 76.5t-76 220.5v719h370v-604q0 -43 22.5 -66t64.5 -23q65 0 132 47v646h370v-996z" />
    <glyph glyph-name="Wcircumflex" unicode="&#x174;" horiz-adv-x="1807" 
d="M1376 1354h412l-264 -1354h-490l-131 722l-131 -722h-489l-264 1354h411l151 -967l146 946h353l152 -946zM526 1448l181 397h391l181 -397l-304 -7l-72 215l-72 -215z" />
    <glyph glyph-name="wcircumflex" unicode="&#x175;" horiz-adv-x="1526" 
d="M1145 996h376l-234 -996h-416l-108 529l-108 -529h-415l-235 996h376l113 -642l117 629h304l117 -629zM386 1089l181 397h391l181 -397l-304 -6l-72 214l-73 -214z" />
    <glyph glyph-name="Ycircumflex" unicode="&#x176;" horiz-adv-x="1171" 
d="M765 1354h391l-378 -881v-473h-386v473l-377 881h391l180 -508zM209 1448l181 397h391l181 -397l-304 -7l-72 215l-73 -215z" />
    <glyph glyph-name="ycircumflex" unicode="&#x177;" horiz-adv-x="1094" 
d="M634 -448h-369l139 448h-126l-281 996h389l142 -687l153 687h403l-306 -996zM156 1089l181 397h391l181 -397l-304 -6l-73 214l-72 -214z" />
    <glyph glyph-name="Ydieresis" unicode="&#x178;" horiz-adv-x="1171" 
d="M765 1354h391l-378 -881v-473h-386v473l-377 881h391l180 -508zM633 1636q0 180 194 180q195 0 195 -180t-195 -180q-194 0 -194 180zM150 1636q0 180 194 180t194 -180t-194 -180t-194 180z" />
    <glyph glyph-name="Zacute" unicode="&#x179;" horiz-adv-x="1072" 
d="M77 1042v312h913v-279l-496 -763h523v-312h-967v279l496 763h-469zM593 1430l-248 32l184 399l370 -71z" />
    <glyph glyph-name="zacute" unicode="&#x17a;" horiz-adv-x="883" 
d="M66 728v268h756v-247l-371 -479h387v-270h-786v245l366 483h-352zM517 1071l-248 32l184 399l370 -71z" />
    <glyph glyph-name="Zdotaccent" unicode="&#x17b;" horiz-adv-x="1072" 
d="M77 1042v312h913v-279l-496 -763h523v-312h-967v279l496 763h-469zM335 1636q0 180 194 180t194 -180t-194 -180t-194 180z" />
    <glyph glyph-name="zdotaccent" unicode="&#x17c;" horiz-adv-x="883" 
d="M66 728v268h756v-247l-371 -479h387v-270h-786v245l366 483h-352zM235 1277q0 181 194 181q195 0 195 -181q0 -180 -195 -180q-194 0 -194 180z" />
    <glyph glyph-name="Zcaron" unicode="&#x17d;" horiz-adv-x="1072" 
d="M77 1042v312h913v-279l-496 -763h523v-312h-967v279l496 763h-469zM915 1841l-184 -396h-391l-184 396l304 7l75 -214l76 214z" />
    <glyph glyph-name="zcaron" unicode="&#x17e;" horiz-adv-x="883" 
d="M86 728v268h756v-247l-371 -479h387v-270h-786v245l366 483h-352zM823 1483l-184 -397h-391l-185 397l305 6l75 -214l76 214z" />
    <glyph glyph-name="uni018F" unicode="&#x18f;" horiz-adv-x="1130" 
d="M1063 911v-468q0 -223 -141 -343t-384 -120q-237 0 -359 122.5t-122 366.5q0 66 7.5 176t19.5 162h597v60q0 94 -63.5 147t-173.5 53q-154 0 -329 -37l-42 295q74 20 184.5 34.5t226.5 14.5q283 0 431 -118.5t148 -344.5zM530 276q151 0 151 183v84h-291l-2 -88
q0 -179 142 -179z" />
    <glyph glyph-name="florin" unicode="&#x192;" horiz-adv-x="1097" 
d="M182 538v280h177l45 242q58 312 427 312q127 0 216 -25l-59 -273q-67 10 -108 10q-55 0 -84.5 -27t-40.5 -91l-26 -148h181v-280h-231l-126 -695q-56 -309 -425 -309q-50 0 -112 6.5t-103 18.5l65 273q60 -10 99 -10q54 0 85 26.5t42 88.5l105 601h-127z" />
    <glyph glyph-name="uni019D" unicode="&#x19d;" horiz-adv-x="1303" 
d="M830 0l-361 727v-615q0 -109 -23 -209q-27 -113 -111.5 -201t-259.5 -170l-158 233q100 65 143.5 128.5t43.5 156.5v1304h369l361 -727v727h365v-1354h-369z" />
    <glyph glyph-name="Gcaron" unicode="&#x1e6;" horiz-adv-x="1127" 
d="M1058 699v-646q-82 -30 -205.5 -51.5t-248.5 -21.5q-148 0 -271 50t-194.5 158t-71.5 268v427q0 163 79.5 275t216 164t298.5 52q85 0 186 -14.5t179 -43.5l-52 -302q-132 43 -270 43q-115 0 -181.5 -51.5t-66.5 -142.5v-402q0 -86 49 -130t138 -44q47 0 86 9v403h329z
M986 1841l-185 -396h-390l-185 396l304 7l76 -214l76 214z" />
    <glyph glyph-name="gcaron" unicode="&#x1e7;" horiz-adv-x="1060" 
d="M56 599v92q0 54 21 110.5t71.5 104t129 79t179.5 31.5q69 0 123 -26t86.5 -90.5t25.5 -171.5q20 60 18 142t-23 146l295 -21q22 -238 -14.5 -398t-151.5 -241t-310 -81q-50 0 -97 6q-31 -31 -31 -58q0 -41 62 -41h256q123 0 209 -45t130.5 -119.5t44.5 -177.5
q0 -104 -53.5 -174t-154.5 -108.5t-249 -38.5h-186q-189 0 -292 65t-103 185q0 61 40 115.5t114 93.5q-93 60 -93 157q0 57 35.5 109.5t88.5 86.5q-82 42 -126.5 110.5t-44.5 157.5zM407 704v-75q0 -135 101 -135q48 0 73 34.5t25 100.5v35q0 136 -98 136q-48 0 -74.5 -28
t-26.5 -68zM672 -78h-238l-43 1q-47 -31 -47 -75q0 -41 31.5 -59.5t116.5 -18.5h104q95 0 134.5 15t39.5 59q0 40 -27 59t-71 19zM885 1483l-184 -397h-391l-185 397l305 6l75 -214l76 214z" />
    <glyph glyph-name="uni01EA" unicode="&#x1ea;" horiz-adv-x="1223" 
d="M67 437v480q0 220 143 338.5t401 118.5t401.5 -118.5t143.5 -338.5v-480q0 -175 -91 -286.5t-259 -150.5h1q-146 -103 -146 -196q0 -23 15 -44t54 -21q51 0 84 10l14 -201q-58 -16 -136 -16q-135 0 -210.5 50t-75.5 155q0 138 178 244q-246 6 -381.5 123.5t-135.5 332.5z
M456 938v-522q0 -67 41 -107t114 -40q74 0 115 40t41 107v522q0 67 -41 106t-115 39t-114.5 -39t-40.5 -106z" />
    <glyph glyph-name="uni01EB" unicode="&#x1eb;" horiz-adv-x="1100" 
d="M61 416v135q0 58 7 106q21 173 147.5 266t334.5 93t334.5 -93t147.5 -266q7 -48 7 -106v-135q0 -165 -79.5 -271t-228.5 -144l1 -1q-145 -103 -145 -196q0 -23 14.5 -44t53.5 -21q51 0 84 10l14 -201q-56 -16 -136 -16q-134 0 -209.5 50t-75.5 155q0 139 179 244
q-215 9 -332.5 121t-117.5 314zM431 607v-191q0 -154 119 -154t119 154v163q0 155 -119 155q-56 0 -87.5 -35t-31.5 -92z" />
    <glyph glyph-name="Aringacute" unicode="&#x1fa;" horiz-adv-x="1291" 
d="M1279 0h-412l-56 256h-332l-56 -256h-411l361 1354h546zM645 1066l-114 -520h229zM388 1618q0 103 68.5 161.5t193.5 58.5q116 0 184 -56.5t68 -150.5q0 -104 -69 -162.5t-195 -58.5q-114 0 -182 57t-68 151zM580 1623q0 -27 17.5 -43.5t45.5 -16.5q31 0 48.5 17t17.5 46
q0 26 -17 42.5t-46 16.5q-30 0 -48 -17t-18 -45zM735 1882l-251 20l147 281l376 -48z" />
    <glyph glyph-name="aringacute" unicode="&#x1fb;" horiz-adv-x="1070" 
d="M45 278q0 95 48 159t133.5 98.5t199.5 34.5h152v41q0 53 -32.5 81t-117.5 28q-131 0 -297 -49l-49 279q75 25 183 45.5t219 20.5q147 0 240 -33.5t146 -117t53 -249.5v-257q0 -77 53 -77q38 0 64 7l2 -275q-29 -13 -79.5 -23.5t-105.5 -10.5q-148 0 -220 105
q-137 -105 -287 -105q-143 0 -224 74t-81 224zM468 215q53 0 110 34v142h-107q-41 0 -65 -24.5t-24 -66.5q0 -40 24 -62.5t62 -22.5zM236 1273q0 102 68.5 160.5t193.5 58.5q116 0 184 -56t68 -151q0 -103 -69 -161.5t-195 -58.5q-114 0 -182 56.5t-68 151.5zM429 1277
q0 -26 17 -42.5t45 -16.5q31 0 48.5 17t17.5 45q0 26 -17 42.5t-45 16.5q-31 0 -48.5 -17t-17.5 -45zM583 1536l-251 20l147 282l376 -48z" />
    <glyph glyph-name="AEacute" unicode="&#x1fc;" horiz-adv-x="1690" 
d="M872 0l-28 252h-335l-86 -252h-411l524 1354h1086v-318h-474l32 -212h422v-291h-399l32 -215h408v-318h-771zM769 1047l-175 -504h230zM974 1430l-248 32l184 399l370 -71z" />
    <glyph glyph-name="aeacute" unicode="&#x1fd;" horiz-adv-x="1527" 
d="M821 1071l-247 32l184 399l370 -71zM45 279q0 95 48 159.5t133.5 99t199.5 34.5h152v39q0 53 -32.5 81t-117.5 28q-131 0 -297 -49l-49 279q75 25 183 45.5t219 20.5q179 0 267 -76q108 76 272 76q211 0 328.5 -116t117.5 -327v-42q0 -19 -1 -42t-3.5 -48t-2.5 -28h-548
v-25q0 -126 209 -126q141 0 300 29l28 -265q-169 -46 -397 -46q-252 0 -377 136q-65 -57 -150.5 -96.5t-176.5 -39.5q-143 0 -224 74.5t-81 224.5zM914 628v-45h219v31q0 138 -110 138q-53 0 -81 -33t-28 -91zM578 378v14h-107q-41 0 -65 -24.5t-24 -66.5q0 -39 23.5 -62.5
t58.5 -23.5q69 0 133 48q-16 49 -19 115z" />
    <glyph glyph-name="Oslashacute" unicode="&#x1fe;" horiz-adv-x="1223" 
d="M742 1442l-267 32l151 399l363 -71zM67 437v480q0 220 143 338.5t401 118.5q83 0 161 -14l104 243h180l-126 -294q109 -55 167.5 -154.5t58.5 -237.5v-480q0 -124 -51 -226.5t-176.5 -166.5t-317.5 -64q-95 0 -178 17l-104 -244h-180l128 299q-210 114 -210 385zM456 938
v-522q0 -67 41 -107t114 -40q74 0 115 40t41 107v522q0 67 -41 106t-115 39t-114.5 -39t-40.5 -106z" />
    <glyph glyph-name="oslashacute" unicode="&#x1ff;" horiz-adv-x="1100" 
d="M668 1084l-267 32l151 399l363 -71l-137 -199h176l-126 -288q103 -51 157 -147t54 -231v-163q0 -210 -128.5 -323t-360.5 -113q-61 0 -121 11l-98 -238h-176l118 285q-104 50 -158 146t-54 232v163q0 210 128.5 323.5t360.5 113.5q62 0 123 -11l104 238zM431 607v-191
q0 -154 119 -154t119 154v163q0 155 -119 155q-56 0 -87.5 -35t-31.5 -92z" />
    <glyph glyph-name="Scommaaccent" unicode="&#x218;" horiz-adv-x="1018" 
d="M371 -86h309l-9 -80q-11 -100 -51 -198.5t-89 -162.5h-225q27 81 46 179t19 181v81zM981 402q0 -422 -493 -422q-97 0 -221.5 15t-227.5 49l47 310q182 -53 331 -53q92 0 139.5 21t47.5 76q0 46 -29 68t-134.5 55t-181.5 64q-107 44 -158 127t-51 224q0 96 32 177
t94.5 139t155.5 90t210 32q202 0 391 -50l-43 -314q-176 44 -294 44q-84 0 -131 -25.5t-47 -75.5q0 -43 28 -68.5t95 -46.5l137 -43q120 -38 183 -89t91.5 -124t28.5 -180z" />
    <glyph glyph-name="scommaaccent" unicode="&#x219;" horiz-adv-x="866" 
d="M281 -86h309l-9 -80q-12 -101 -52 -199.5t-89 -161.5h-224q27 81 46 179t19 181v81zM832 290q0 -310 -415 -310q-83 0 -191 13t-173 39l40 248q42 -15 121 -29.5t144 -14.5q63 0 93 12t30 46q0 14 -6.5 26t-21.5 20.5t-35 15.5t-42 12.5t-55.5 14t-42.5 10.5
q-129 32 -177.5 103.5t-48.5 193.5q0 150 102.5 238t300.5 88q167 0 335 -37l-33 -253q-156 34 -245 34q-111 0 -111 -64q0 -27 25.5 -45t151.5 -49q139 -35 196.5 -104t57.5 -208z" />
    <glyph glyph-name="uni021A" unicode="&#x21a;" horiz-adv-x="1078" 
d="M346 0v1043h-323v311h1031v-311h-322v-1043h-386zM391 -86h309l-7 -70q-11 -103 -51.5 -204t-90.5 -167h-225q27 81 46 179t19 181v81z" />
    <glyph glyph-name="uni021B" unicode="&#x21b;" horiz-adv-x="725" 
d="M22 717v279h122l18 278h334v-278h183v-279h-175v-352q0 -38 15 -66.5t66 -28.5q15 0 110 10l18 -272q-99 -28 -240 -28q-278 0 -322 212q-13 71 -16 164.5t-2 212t1 148.5h-112zM287 -86h309l-9 -80q-12 -101 -52 -199.5t-88 -161.5h-225q27 81 46 179t19 181v81z" />
    <glyph glyph-name="uni0237" unicode="&#x237;" horiz-adv-x="557" 
d="M94 996h370v-974q0 -158 -90 -274.5t-310 -215.5l-159 233q114 75 151.5 139.5t37.5 146.5v945z" />
    <glyph glyph-name="uni0259" unicode="&#x259;" horiz-adv-x="1029" 
d="M972 590v-170q0 -211 -122 -325.5t-343 -114.5q-212 0 -329.5 116t-117.5 327q0 46 4 100t4 56h548v29q0 126 -209 126q-140 0 -300 -29l-28 265q169 46 397 46q112 0 204 -27.5t157 -81t100 -134.5t35 -183zM507 244q109 0 109 137v29h-219v-29q0 -137 110 -137z" />
    <glyph glyph-name="uni0272" unicode="&#x272;" horiz-adv-x="1147" 
d="M97 995h321l16 -94q176 115 331 115q142 0 218 -76.5t76 -220.5v-719h-370v603q0 43 -22.5 67t-65.5 24q-64 0 -134 -48v-624q0 -158 -90 -274.5t-309 -215.5l-159 233q62 41 100.5 77t63 88t24.5 121v944z" />
    <glyph glyph-name="circumflex" unicode="&#x2c6;" horiz-adv-x="861" 
d="M54 1089l181 397h391l181 -397l-304 -6l-73 214l-72 -214z" />
    <glyph glyph-name="caron" unicode="&#x2c7;" horiz-adv-x="867" 
d="M814 1483l-185 -397h-391l-184 397l304 6l76 -214l75 214z" />
    <glyph glyph-name="breve" unicode="&#x2d8;" horiz-adv-x="824" 
d="M54 1457h276q4 -109 82 -109t82 109h276q0 -166 -93.5 -262.5t-264.5 -96.5t-264.5 96.5t-93.5 262.5z" />
    <glyph glyph-name="dotaccent" unicode="&#x2d9;" horiz-adv-x="496" 
d="M54 1277q0 181 194 181t194 -181q0 -180 -194 -180t-194 180z" />
    <glyph glyph-name="ring" unicode="&#x2da;" horiz-adv-x="660" 
d="M54 1287q0 110 74 172.5t206 62.5q125 0 198.5 -61t73.5 -165q0 -111 -74 -173.5t-207 -62.5q-124 0 -197.5 61.5t-73.5 165.5zM262 1291q0 -27 18.5 -44.5t48.5 -17.5q31 0 49.5 17t18.5 45q0 27 -18.5 44.5t-48.5 17.5t-49 -17.5t-19 -44.5z" />
    <glyph glyph-name="ogonek" unicode="&#x2db;" horiz-adv-x="534" 
d="M418 61l35 -61q-146 -103 -146 -196q0 -23 15 -44t54 -21q49 0 84 10l14 -201q-58 -16 -136 -16q-135 0 -210.5 50t-75.5 155q0 97 94.5 181.5t271.5 142.5z" />
    <glyph glyph-name="tilde" unicode="&#x2dc;" horiz-adv-x="902" 
d="M322 1450q52 0 132.5 -28t109.5 -28q64 0 124 68l160 -115q-15 -53 -51 -112.5t-94 -96.5t-123 -37q-53 0 -133 28.5t-109 28.5q-64 0 -124 -68l-160 114q15 53 51 113t94 96.5t123 36.5z" />
    <glyph glyph-name="hungarumlaut" unicode="&#x2dd;" horiz-adv-x="968" 
d="M292 1075l-238 17l68 423l326 -41zM659 1075l-241 18l147 417l349 -53z" />
    <glyph glyph-name="acutecomb" unicode="&#x301;" horiz-adv-x="630" 
d="M308 1032l-251 21l147 281l376 -48z" />
    <glyph glyph-name="dotbelowcomb" unicode="&#x323;" horiz-adv-x="496" 
d="M54 -301q0 180 194 180t194 -180t-194 -180t-194 180z" />
    <glyph glyph-name="uni0E3F" unicode="&#xe3f;" horiz-adv-x="1168" 
d="M380 1527h324l-20 -287q172 -15 259 -93t87 -211q0 -86 -40.5 -146.5t-110.5 -93.5q86 -36 139 -105t53 -162q0 -295 -378 -318l20 -284h-323l19 281h-282v1137h273zM709 459q0 50 -32 84t-85 34h-117v-237h118q54 0 85 34t31 85zM596 795q47 0 72.5 31.5t25.5 75.5
q0 42 -22 72t-65 36l-41 3h-91v-218h121z" />
    <glyph glyph-name="Wgrave" unicode="&#x1e80;" horiz-adv-x="1807" 
d="M1376 1354h412l-264 -1354h-490l-131 722l-131 -722h-489l-264 1354h411l151 -967l146 946h353l152 -946zM1067 1462l-247 -32l-307 360l370 71z" />
    <glyph glyph-name="wgrave" unicode="&#x1e81;" horiz-adv-x="1526" 
d="M1145 996h376l-234 -996h-416l-108 529l-108 -529h-415l-235 996h376l113 -642l117 629h304l117 -629zM927 1103l-248 -32l-306 360l370 71z" />
    <glyph glyph-name="Wacute" unicode="&#x1e82;" horiz-adv-x="1807" 
d="M1376 1354h412l-264 -1354h-490l-131 722l-131 -722h-489l-264 1354h411l151 -967l146 946h353l152 -946zM993 1430l-247 32l184 399l370 -71z" />
    <glyph glyph-name="wacute" unicode="&#x1e83;" horiz-adv-x="1526" 
d="M1145 996h376l-234 -996h-416l-108 529l-108 -529h-415l-235 996h376l113 -642l117 629h304l117 -629zM846 1071l-247 32l184 399l370 -71z" />
    <glyph glyph-name="Wdieresis" unicode="&#x1e84;" horiz-adv-x="1807" 
d="M1376 1354h412l-264 -1354h-490l-131 722l-131 -722h-489l-264 1354h411l151 -967l146 946h353l152 -946zM480 1636q0 180 194 180t194 -180t-194 -180t-194 180zM964 1636q0 180 194 180t194 -180t-194 -180t-194 180z" />
    <glyph glyph-name="wdieresis" unicode="&#x1e85;" horiz-adv-x="1526" 
d="M1145 996h376l-234 -996h-416l-108 529l-108 -529h-415l-235 996h376l113 -642l117 629h304l117 -629zM327 1277q0 181 194 181t194 -181q0 -180 -194 -180t-194 180zM810 1277q0 181 194 181t194 -181q0 -180 -194 -180t-194 180z" />
    <glyph glyph-name="uni1E9E" unicode="&#x1e9e;" horiz-adv-x="1339" 
d="M1315 376q0 -396 -457 -396q-170 0 -309 41l27 311q129 -33 240 -33q131 0 131 92q0 44 -36 72.5t-118 52.5l-190 52l214 457q-75 31 -161 31q-89 0 -140.5 -47t-51.5 -130v-879h-370v941q0 95 37 175.5t106.5 138t170.5 88.5t223 31q178 0 335.5 -57.5t263.5 -147.5
l-219 -417l30 -12q141 -56 207.5 -140.5t66.5 -223.5z" />
    <glyph glyph-name="uni1EA0" unicode="&#x1ea0;" horiz-adv-x="1291" 
d="M1279 0h-412l-56 256h-332l-56 -256h-411l361 1354h546zM645 1066l-114 -520h229zM451 -301q0 180 194 180t194 -180t-194 -180t-194 180z" />
    <glyph glyph-name="uni1EA1" unicode="&#x1ea1;" horiz-adv-x="1070" 
d="M45 278q0 95 48 159t133.5 98.5t199.5 34.5h152v41q0 53 -32.5 81t-117.5 28q-131 0 -297 -49l-49 279q75 25 183 45.5t219 20.5q147 0 240 -33.5t146 -117t53 -249.5v-257q0 -77 53 -77q38 0 64 7l2 -275q-29 -13 -79.5 -23.5t-105.5 -10.5q-148 0 -220 105
q-137 -105 -287 -105q-143 0 -224 74t-81 224zM468 215q53 0 110 34v142h-107q-41 0 -65 -24.5t-24 -66.5q0 -40 24 -62.5t62 -22.5zM351 -301q0 180 194 180t194 -180t-194 -180t-194 180z" />
    <glyph glyph-name="uni1EB8" unicode="&#x1eb8;" horiz-adv-x="1057" 
d="M104 0v1354h886v-318h-500v-212h479v-291h-479v-215h520v-318h-906zM371 -301q0 180 194 180t194 -180t-194 -180t-194 180z" />
    <glyph glyph-name="uni1EB9" unicode="&#x1eb9;" horiz-adv-x="1026" 
d="M57 406v170q0 211 122 325.5t343 114.5q212 0 329.5 -116t117.5 -327q0 -46 -4 -100t-4 -56h-548v-29q0 -126 209 -126q141 0 300 29l29 -265q-172 -46 -398 -46q-112 0 -204 27.5t-157 81t-100 134.5t-35 183zM413 628v-42h219v28q0 138 -110 138q-53 0 -81 -33t-28 -91
zM332 -301q0 180 194 180t194 -180t-194 -180t-194 180z" />
    <glyph glyph-name="uni1EBC" unicode="&#x1ebc;" horiz-adv-x="1057" 
d="M104 0v1354h886v-318h-500v-212h479v-291h-479v-215h520v-318h-906zM426 1809q53 0 133 -28t109 -28q65 0 124 67l160 -114q-15 -53 -51 -113t-94 -96.5t-123 -36.5q-52 0 -132.5 28t-109.5 28q-64 0 -124 -68l-160 114q15 54 51 113.5t94 96.5t123 37z" />
    <glyph glyph-name="uni1EBD" unicode="&#x1ebd;" horiz-adv-x="1026" 
d="M57 406v170q0 211 122 325.5t343 114.5q212 0 329.5 -116t117.5 -327q0 -46 -4 -100t-4 -56h-548v-29q0 -126 209 -126q141 0 300 29l29 -265q-172 -46 -398 -46q-112 0 -204 27.5t-157 81t-100 134.5t-35 183zM413 628v-42h219v28q0 138 -110 138q-53 0 -81 -33t-28 -91
zM384 1450q52 0 132.5 -28t109.5 -28q64 0 124 68l160 -115q-18 -66 -57.5 -122t-93 -90t-118.5 -34q-52 0 -132 28.5t-109 28.5q-64 0 -124 -68l-160 114q15 53 51 113t94 96.5t123 36.5z" />
    <glyph glyph-name="uni1ECA" unicode="&#x1eca;" horiz-adv-x="593" 
d="M489 1354v-1354h-385v1354h385zM103 -301q0 180 194 180t194 -180t-194 -180t-194 180z" />
    <glyph glyph-name="uni1ECB" unicode="&#x1ecb;" horiz-adv-x="551" 
d="M90 996h370v-996h-370v996zM81 -301q0 180 194 180t194 -180t-194 -180t-194 180zM81 1277q0 181 194 181t194 -181q0 -180 -194 -180t-194 180z" />
    <glyph glyph-name="uni1ECC" unicode="&#x1ecc;" horiz-adv-x="1223" 
d="M418 -301q0 180 194 180t194 -180t-194 -180t-194 180zM67 437v480q0 220 143 338.5t401 118.5t401.5 -118.5t143.5 -338.5v-480q0 -124 -51 -226.5t-176.5 -166.5t-317.5 -64q-255 0 -399.5 116t-144.5 341zM456 938v-522q0 -67 41 -107t114 -40q74 0 115 40t41 107v522
q0 67 -41 106t-115 39t-114.5 -39t-40.5 -106z" />
    <glyph glyph-name="uni1ECD" unicode="&#x1ecd;" horiz-adv-x="1100" 
d="M61 416v163q0 211 128.5 324t360.5 113t360.5 -113t128.5 -324v-163q0 -210 -128.5 -323t-360.5 -113q-233 0 -361 112.5t-128 323.5zM431 607v-191q0 -154 119 -154t119 154v163q0 155 -119 155q-56 0 -87.5 -35t-31.5 -92zM356 -301q0 180 194 180t194 -180t-194 -180
t-194 180z" />
    <glyph glyph-name="uni1EE4" unicode="&#x1ee4;" horiz-adv-x="1255" 
d="M775 1354h386v-927q0 -213 -139 -330t-395 -117q-255 0 -394 117t-139 330v927h385v-932q0 -59 40 -96t108 -37q69 0 108.5 36.5t39.5 96.5v932zM433 -301q0 180 194 180t194 -180t-194 -180t-194 180z" />
    <glyph glyph-name="uni1EE5" unicode="&#x1ee5;" horiz-adv-x="1143" 
d="M1046 0h-321l-15 95q-171 -115 -330 -115q-141 0 -217 76.5t-76 220.5v719h370v-604q0 -43 22.5 -66t64.5 -23q65 0 132 47v646h370v-996zM377 -301q0 180 194 180t194 -180t-194 -180t-194 180z" />
    <glyph glyph-name="Ygrave" unicode="&#x1ef2;" horiz-adv-x="1171" 
d="M765 1354h391l-378 -881v-473h-386v473l-377 881h391l180 -508zM749 1462l-247 -32l-307 360l370 71z" />
    <glyph glyph-name="ygrave" unicode="&#x1ef3;" horiz-adv-x="1094" 
d="M634 -448h-369l139 448h-126l-281 996h389l142 -687l153 687h403l-306 -996zM695 1103l-248 -32l-306 360l369 71z" />
    <glyph glyph-name="uni1EF8" unicode="&#x1ef8;" horiz-adv-x="1171" 
d="M765 1354h391l-378 -881v-473h-386v473l-377 881h391l180 -508zM459 1809q52 0 132 -28t109 -28q65 0 124 67l160 -114q-15 -53 -51 -113t-94 -96.5t-123 -36.5q-52 0 -132.5 28t-109.5 28q-64 0 -124 -68l-160 114q15 54 51 113.5t94 96.5t124 37z" />
    <glyph glyph-name="uni1EF9" unicode="&#x1ef9;" horiz-adv-x="1094" 
d="M634 -448h-369l139 448h-126l-281 996h389l142 -687l153 687h403l-306 -996zM402 1450q52 0 132 -28t109 -28q65 0 125 68l160 -115q-18 -66 -57.5 -122t-93 -90t-118.5 -34q-52 0 -132 28.5t-109 28.5q-63 0 -125 -68l-160 114q32 109 105.5 177.5t163.5 68.5z" />
    <glyph glyph-name="endash" unicode="&#x2013;" horiz-adv-x="1072" 
d="M67 355v285h938v-285h-938z" />
    <glyph glyph-name="emdash" unicode="&#x2014;" horiz-adv-x="1522" 
d="M67 355v285h1388v-285h-1388z" />
    <glyph glyph-name="quoteleft" unicode="&#x2018;" horiz-adv-x="454" 
d="M368 915h-308v98q0 259 150 458h211q-20 -64 -36.5 -172t-16.5 -210v-174z" />
    <glyph glyph-name="quoteright" unicode="&#x2019;" horiz-adv-x="471" 
d="M100 1447h308v-98q0 -259 -150 -458h-211q20 64 36.5 172t16.5 211v173z" />
    <glyph glyph-name="quotesinglbase" unicode="&#x201a;" horiz-adv-x="484" 
d="M90 297h307v-98q0 -257 -149 -458h-212q20 65 37 172.5t17 210.5v173z" />
    <glyph glyph-name="quotedblleft" unicode="&#x201c;" horiz-adv-x="873" 
d="M368 915h-308v98q0 259 150 458h211q-20 -64 -36.5 -172t-16.5 -210v-174zM786 915h-307v98q0 257 149 458h212q-20 -65 -37 -172.5t-17 -209.5v-174z" />
    <glyph glyph-name="quotedblright" unicode="&#x201d;" horiz-adv-x="890" 
d="M100 1447h308v-98q0 -259 -150 -458h-211q20 64 36.5 172t16.5 211v173zM519 1447h307v-98q0 -257 -149 -458h-212q20 65 37 172.5t17 210.5v173z" />
    <glyph glyph-name="quotedblbase" unicode="&#x201e;" horiz-adv-x="903" 
d="M90 297h307v-98q0 -257 -149 -458h-212q20 65 37 172.5t17 210.5v173zM508 297h308v-98q0 -257 -149 -458h-212q20 64 36.5 172t16.5 211v173z" />
    <glyph glyph-name="dagger" unicode="&#x2020;" horiz-adv-x="1145" 
d="M402 1579h340l-3 -433l369 12v-325l-371 11l-5 -1068h-320l-6 1068l-369 -11v325l367 -12z" />
    <glyph glyph-name="daggerdbl" unicode="&#x2021;" horiz-adv-x="1152" 
d="M43 879v325l367 -16v391h332v-391l366 16v-325l-366 14v-433l367 16v-325l-367 14v-389h-332v389l-366 -14v325l366 -16v433z" />
    <glyph glyph-name="bullet" unicode="&#x2022;" horiz-adv-x="737" 
d="M54 675q0 292 315 292q314 0 314 -292q0 -293 -314 -293q-315 0 -315 293z" />
    <glyph glyph-name="ellipsis" unicode="&#x2026;" horiz-adv-x="1544" 
d="M64 160q0 180 194 180q195 0 195 -180t-195 -180q-194 0 -194 180zM578 160q0 180 194 180t194 -180t-194 -180t-194 180zM1091 160q0 180 194 180q195 0 195 -180t-195 -180q-194 0 -194 180z" />
    <glyph glyph-name="guilsinglleft" unicode="&#x2039;" horiz-adv-x="642" 
d="M428 498l161 -373l-275 -104l-240 477l240 477l275 -104z" />
    <glyph glyph-name="guilsinglright" unicode="&#x203a;" horiz-adv-x="642" 
d="M215 497l-162 373l275 104l241 -477l-241 -476l-275 104z" />
    <glyph glyph-name="fraction" unicode="&#x2044;" horiz-adv-x="955" 
d="M50 760h855v-164h-855v164z" />
    <glyph glyph-name="uni2070" unicode="&#x2070;" horiz-adv-x="780" 
d="M50 924v157q0 84 41 146t117.5 99.5t180.5 37.5t181 -37.5t118 -99.5t41 -146v-157q0 -84 -41 -146t-118 -99.5t-181 -37.5t-180.5 37.5t-117.5 99.5t-41 146zM315 1066v-127q0 -35 20.5 -55.5t53.5 -20.5t54 20.5t21 55.5v127q0 35 -21 55.5t-54 20.5t-53.5 -20.5
t-20.5 -55.5z" />
    <glyph glyph-name="uni2074" unicode="&#x2074;" horiz-adv-x="694" 
d="M30 755v172l290 426v1h264v-409h83v-190h-83v-104h-254v104h-300zM260 940h86v125z" />
    <glyph glyph-name="franc" unicode="&#x20a3;" horiz-adv-x="1216" 
d="M219 0v189h-126v167h126v998h890v-311h-505v-212h484v-305h-484v-170h203v-167h-203v-189h-385z" />
    <glyph glyph-name="lira" unicode="&#x20a4;" horiz-adv-x="1202" 
d="M130 290q133 0 138 138v49h-118v160h789v-160h-291v-55q-4 -83 -61 -132h482v-310h-939v310zM150 875h118v67q0 213 131 322.5t362 109.5q142 0 292 -30l-25 -314q-118 21 -213 21q-80 0 -123 -38.5t-43 -111.5v-26h290v-160h-789v160z" />
    <glyph glyph-name="uni20A9" unicode="&#x20a9;" horiz-adv-x="2014" 
d="M1315 409l126 945h397l-69 -408h165v-120h-185l-19 -106h137v-120h-157l-102 -600h-489l-112 689l-111 -689h-489l-103 600h-157v120h137l-18 106h-186v120h166l-70 408h398l131 -945l126 924h353z" />
    <glyph glyph-name="Euro" unicode="&#x20ac;" horiz-adv-x="1254" 
d="M114 637h830v-160h-321v-19q0 -162 220 -162q55 0 131.5 9t131.5 25l18 -301q-156 -49 -345 -49q-142 0 -265 44.5t-197.5 145t-74.5 254.5v53h-128v160zM114 875h128v35q0 226 138 345t388 119q72 0 168.5 -14.5t162.5 -40.5l-20 -303q-52 17 -122.5 29.5t-132.5 12.5
q-100 0 -150.5 -44t-50.5 -139h321v-160h-830v160z" />
    <glyph glyph-name="uni20B1" unicode="&#x20b1;" horiz-adv-x="1437" 
d="M93 895v120h116v339h507q215 0 347.5 -87.5t162.5 -251.5h121v-120h-111v-76h111v-119h-119q-26 -157 -141 -242t-305 -96l-95 -2h-93v-360h-385v700h-116v119h116v76h-116zM594 1059v-404h117q140 0 140 153v123q0 60 -37 94t-103 34h-117z" />
    <glyph glyph-name="uni20B9" unicode="&#x20b9;" horiz-adv-x="1083" 
d="M117 798v157h342q-5 52 -45.5 79.5t-140.5 27.5h-156v292h910v-157h-281q92 -95 101 -242h156v-157h-158q-13 -127 -96.5 -215.5t-217.5 -128.5l371 -454h-433l-349 428h-1v263h127q101 0 154 24t59 83h-342z" />
    <glyph glyph-name="uni20BA" unicode="&#x20ba;" horiz-adv-x="1179" 
d="M627 1354v-247l168 114l89 -132l-257 -173v-79l168 114l89 -132l-257 -174v-357q80 0 125.5 58.5t41.5 164.5l314 10q11 -271 -132 -396t-457 -125h-277v384l-99 -67l-89 132l188 127v79l-100 -67l-89 131l189 128v507h385z" />
    <glyph glyph-name="afii61352" unicode="&#x2116;" horiz-adv-x="1989" 
d="M837 0l-361 727v-727h-372v1354h375l361 -727v727h372v-1354h-375zM1317 1052v53q0 126 89 197.5t225 71.5q100 0 171 -36.5t107.5 -95t36.5 -137.5v-53q0 -79 -36.5 -137.5t-107.5 -95t-171 -36.5q-136 0 -225 71.5t-89 197.5zM1330 697h602v-168h-602v168zM1560 1083
q0 -36 17.5 -58t53.5 -22q32 0 51.5 19.5t19.5 50.5q0 81 -71 81q-32 0 -51.5 -20t-19.5 -51z" />
    <glyph glyph-name="trademark" unicode="&#x2122;" horiz-adv-x="1172" 
d="M144 817v351h-122v186h448v-186h-121v-351h-205zM962 817v290l-65 -218h-132l-65 217v-289h-188v537h250l69 -247l69 247h250v-537h-188z" />
    <glyph glyph-name="estimated" unicode="&#x212e;" horiz-adv-x="1783" 
d="M1666 643h-1255q-10 0 -10 -10v-357q0 -23 17 -45q75 -77 194.5 -127.5t279.5 -50.5q151 0 279.5 51t220.5 148h112q-106 -125 -265.5 -198.5t-348.5 -73.5q-200 0 -377.5 86.5t-286.5 250t-109 359.5q0 177 97 338t279 260.5t397 99.5q196 0 375 -89.5t290 -256.5
t111 -362v-23zM1381 724v356q0 26 -20 45q-85 86 -207.5 131t-261.5 45q-142 0 -263.5 -44.5t-208.5 -131.5q-19 -20 -19 -49v-352q0 -12 10 -12h962q8 0 8 12z" />
    <glyph glyph-name="minus" unicode="&#x2212;" horiz-adv-x="1022" 
d="M117 830h788v-306h-788v306z" />
    <glyph glyph-name="uni2215" unicode="&#x2215;" horiz-adv-x="955" 
d="M50 760h855v-164h-855v164z" />
    <glyph glyph-name="uni2219" unicode="&#x2219;" horiz-adv-x="496" 
d="M54 677q0 180 194 180t194 -180t-194 -180t-194 180z" />
    <glyph glyph-name="approxequal" unicode="&#x2248;" horiz-adv-x="1179" 
d="M246 699l-129 160q46 89 128 147t177 58q63 0 156 -37t138 -37q83 0 170 75l129 -173q-46 -83 -128 -137.5t-177 -54.5q-8 0 -30.5 1.5t-48.5 9t-99 36t-115 28.5q-83 0 -171 -76zM266 303l-129 160q43 82 121.5 137t163.5 55q9 0 32.5 -1.5t46 -8t104 -36t131.5 -29.5
q96 0 197 76l129 -173q-51 -83 -138.5 -136.5t-190.5 -53.5q-67 0 -168 36t-148 36q-75 0 -151 -62z" />
    <glyph glyph-name="notequal" unicode="&#x2260;" horiz-adv-x="1029" 
d="M117 734v292h468l128 273l147 -65l-98 -208h150v-292h-283l-53 -114h336v-292h-470l-126 -272l-148 65l97 207h-148v292h281l54 114h-335z" />
    <glyph glyph-name="lessequal" unicode="&#x2264;" horiz-adv-x="1033" 
d="M154 174h762v-170h-762v170zM678 1347l238 -210l-350 -323l350 -322l-238 -210l-561 532z" />
    <glyph glyph-name="greaterequal" unicode="&#x2265;" horiz-adv-x="1033" 
d="M117 174h762v-170h-762v170zM354 282l-237 210l349 322l-349 323l237 210l562 -533z" />
    <glyph glyph-name="uniF6C3" unicode="&#xf6c3;" horiz-adv-x="482" 
d="M119 -86h309l-9 -80q-12 -101 -52 -199.5t-88 -161.5h-225q27 81 46 179t19 181v81z" />
    <glyph glyph-name="uniF730" unicode="&#xf730;" horiz-adv-x="1186" 
d="M67 444v308q0 225 138 344.5t387 119.5q250 0 388.5 -119.5t138.5 -344.5v-308q0 -226 -138 -345t-389 -119q-249 0 -387 119.5t-138 344.5zM452 773v-268q0 -124 34 -183t106 -59q69 0 105.5 47t36.5 154v227q0 123 -34.5 181.5t-107.5 58.5q-69 0 -104.5 -42
t-35.5 -116z" />
    <glyph glyph-name="uniF731" unicode="&#xf731;" horiz-adv-x="760" 
d="M49 763l-29 312l364 121h272v-1196h-378v828z" />
    <glyph glyph-name="uniF732" unicode="&#xf732;" horiz-adv-x="951" 
d="M903 319v-319h-855v299q308 219 388 308.5t80 155.5q0 133 -175 133q-51 0 -124 -14t-145 -43l-22 313q54 24 151 44t182 20q163 0 276.5 -53t163 -144t49.5 -206q0 -256 -353 -494h384z" />
    <glyph glyph-name="uniF733" unicode="&#xf733;" horiz-adv-x="923" 
d="M150 385v274h201q59 0 104.5 30.5t45.5 87.5q0 125 -190 125q-136 0 -258 -37l-18 297q153 54 347 54q166 0 271 -50.5t155.5 -135t50.5 -202.5q0 -193 -181 -299q95 -47 149 -127.5t54 -190.5q0 -196 -141 -292.5t-401 -96.5q-153 0 -319 43l18 301q132 -30 278 -30
q90 0 148.5 30.5t58.5 94.5q0 52 -45 88t-134 36h-194z" />
    <glyph glyph-name="uniF734" unicode="&#xf734;" horiz-adv-x="1103" 
d="M635 1203h305v-828h122v-280h-122v-246h-333v246h-547v270zM409 375h206v303z" />
    <glyph glyph-name="uniF735" unicode="&#xf735;" horiz-adv-x="968" 
d="M934 260q0 -431 -536 -431q-76 0 -176.5 9.5t-177.5 28.5l27 314q49 -9 136 -18t154 -9q115 0 163 30.5t48 91.5q0 64 -61 101.5t-191 39.5q-56 0 -108.5 -2t-94.5 -4.5t-45 -2.5l30 795h765v-319h-476l-9 -196q256 9 404 -101t148 -327z" />
    <glyph glyph-name="uniF736" unicode="&#xf736;" horiz-adv-x="1088" 
d="M67 433v376q0 73 9 139q27 209 176.5 317.5t411.5 108.5q152 0 302 -44l-23 -313q-139 40 -271 40q-256 0 -256 -210v-48q105 35 195 35q120 0 218 -39.5t156.5 -137t58.5 -256.5q0 -74 -23 -149t-79.5 -135t-152 -98.5t-233.5 -38.5q-136 0 -247.5 45t-176.5 148
t-65 260zM549 565q-70 0 -133 -26v-120q0 -63 36.5 -99.5t102.5 -36.5q57 0 98 31.5t41 99.5q0 151 -145 151z" />
    <glyph glyph-name="uniF737" unicode="&#xf737;" horiz-adv-x="903" 
d="M20 889v314h843v-303l-392 -1051h-374l416 1040h-493z" />
    <glyph glyph-name="uniF738" unicode="&#xf738;" horiz-adv-x="1095" 
d="M1044 335q0 -74 -33 -139.5t-96.5 -113.5t-157.5 -75t-210 -27t-209.5 27t-156 75.5t-95 114.5t-32.5 142q0 105 50 187.5t178 156.5q-101 62 -150.5 136t-49.5 178q0 80 30.5 149t89.5 120t147 79.5t198 28.5q82 0 165 -19t149.5 -65t109 -119.5t42.5 -173.5
q0 -87 -44 -164.5t-158 -149.5q120 -66 176.5 -148.5t56.5 -199.5zM547 253q63 0 102.5 35t39.5 93q0 39 -24 82.5t-117 100.5q-71 -37 -105.5 -78.5t-34.5 -104.5q0 -59 38 -93.5t101 -34.5zM681 972q0 60 -38 92t-96 32t-95.5 -32t-37.5 -92q0 -36 24 -76t110 -93
q58 32 95.5 70.5t37.5 98.5z" />
    <glyph glyph-name="uniF739" unicode="&#xf739;" horiz-adv-x="1088" 
d="M1020 763v-387q0 -69 -8 -139q-24 -202 -165.5 -308.5t-393.5 -106.5q-77 0 -177.5 13t-166.5 34l23 313q139 -40 277 -40q136 0 196 48t66 151v52q-104 -34 -195 -34q-120 0 -218 39.5t-156.5 137t-58.5 257.5q0 202 131 312.5t357 110.5q136 0 247.5 -45t176.5 -148
t65 -260zM538 627q68 0 133 26v124q0 63 -36.5 99.5t-102.5 36.5q-57 0 -98 -32t-41 -101q0 -153 145 -153z" />
    <glyph glyph-name="uniFB00" unicode="&#xfb00;" horiz-adv-x="1300" 
d="M17 717v279h112v82q0 171 94 268.5t278 97.5q105 0 207 -23l-47 -274q-70 7 -79 7q-96 0 -96 -98v-60h246v98q0 370 372 370q123 0 222 -27l-33 -273q-63 10 -101 10q-96 0 -96 -113v-65h188v-279h-182v-717h-370v717h-233v-717h-370v717h-112z" />
    <glyph glyph-name="uniFB02" unicode="&#xfb02;" horiz-adv-x="1220" 
d="M489 1042v-46h159v-279h-149v-717h-370v717h-112v279h112v65q0 177 103 281.5t319 115.5q110 5 219 -16q73 3 194 -2t158 -3v-1437h-370v1147q-74 18 -136 18q-64 0 -95.5 -29t-31.5 -94z" />
    <glyph glyph-name="uniFB04" unicode="&#xfb04;" horiz-adv-x="1823" 
d="M17 717v279h112v82q0 171 94 268.5t278 97.5q105 0 207 -23l-47 -274q-70 7 -79 7q-96 0 -96 -98v-60h246v65q0 177 103.5 281.5t319.5 115.5q108 5 219 -16q73 3 193.5 -2t157.5 -3v-1437h-370v1147q-72 18 -136 18t-95.5 -29t-31.5 -94v-46h160v-279h-150v-717h-370
v717h-233v-717h-370v717h-112z" />
    <glyph glyph-name="uniFB06" unicode="&#xfb06;" horiz-adv-x="1591" 
d="M832 290q0 -310 -415 -310q-83 0 -191 13t-173 39l40 248q42 -15 121 -29.5t144 -14.5q63 0 93 12t30 46q0 14 -6.5 26t-21.5 20.5t-35 15.5t-42 12.5t-55.5 14t-42.5 10.5q-133 34 -180.5 105.5t-47.5 196.5q0 152 107.5 236t310.5 85q-92 75 -92 181q0 96 56 163
t148.5 102t219.5 35h525l-15 -29l39 29v-501h183v-279h-175v-352q0 -95 81 -95q15 0 110 10l18 -272q-99 -28 -239 -28q-158 0 -240.5 65.5t-95.5 202.5q-1 20 -4 84t-1.5 207.5t1.5 177.5h-112v279h119v243h-183q-75 0 -114.5 -30t-39.5 -84q0 -92 133 -146l-33 -253
q-156 34 -245 34q-111 0 -111 -64q0 -26 26 -45t151 -49q139 -35 196.5 -104t57.5 -208z" />
    <glyph glyph-name="Euro.tnum" 
d="M108 637h830v-160h-321v-19q0 -162 221 -162q55 0 131.5 9.5t130.5 24.5l18 -301q-154 -49 -344 -49q-142 0 -265 44.5t-197.5 145t-74.5 254.5v53h-129v160zM108 875h129v35q0 226 138 345t388 119q72 0 168.5 -14.5t162.5 -40.5l-21 -303q-51 17 -121.5 29.5
t-132.5 12.5q-100 0 -150.5 -44t-51.5 -139h321v-160h-830v160z" />
    <glyph glyph-name="Euro.aalt" horiz-adv-x="1178" 
d="M108 565h774v-152h-286q1 -135 190 -135q50 0 122.5 8.5t126.5 22.5l18 -284q-58 -18 -148 -31.5t-184 -13.5q-162 0 -272.5 49.5t-170 135t-59.5 213.5v35h-111v152zM108 783h111v18q0 124 52 218t166.5 145.5t273.5 51.5q73 0 165 -11.5t161 -33.5l-27 -284
q-136 31 -235 31q-173 0 -179 -133v-2h286v-152h-774v152z" />
    <glyph glyph-name="Euro.aalt.tnum" 
d="M142 565h774v-152h-286q1 -135 190 -135q50 0 122.5 8.5t126.5 22.5l18 -284q-58 -18 -148 -31.5t-184 -13.5q-162 0 -272.5 49.5t-170 135t-59.5 213.5v35h-111v152zM142 783h111v18q0 124 52 218t166 145.5t273 51.5q73 0 165.5 -11.5t161.5 -33.5l-27 -284
q-136 31 -235 31q-173 0 -179 -133v-2h286v-152h-774v152z" />
    <glyph glyph-name="glyph55" horiz-adv-x="1187" 
d="M697 1354h386v-1332q0 -158 -93.5 -274t-320.5 -216l-159 233q100 65 143.5 128.5t43.5 156.5v1304zM489 1354v-1354h-385v1354h385zM370 1430l-247 32l184 399l370 -71zM964 1430l-248 32l184 399l370 -71z" />
    <glyph glyph-name="glyph138" horiz-adv-x="1171" 
d="M765 1354h391l-378 -881v-473h-386v473l-377 881h391l180 -508zM249 1495v279h675v-279h-675z" />
    <glyph glyph-name="a.salt" horiz-adv-x="1007" 
d="M45 278q0 95 48 159t133.5 98.5t199.5 34.5h152v41q0 53 -32.5 81t-117.5 28q-131 0 -297 -49l-49 279q75 25 183 45.5t219 20.5q147 0 240 -33.5t146 -117t53 -249.5v-616h-271l-31 73q-132 -93 -271 -93q-143 0 -224 74t-81 224zM468 215q53 0 110 34v142h-107
q-41 0 -65 -24.5t-24 -66.5q0 -40 24 -62.5t62 -22.5z" />
    <glyph glyph-name="a.sc" horiz-adv-x="1105" 
d="M1091 0h-365l-45 184h-258l-45 -184h-364l280 1036h517zM553 790l-90 -375h179z" />
    <glyph glyph-name="aacute.salt" horiz-adv-x="1007" 
d="M564 1071l-248 32l185 399l369 -71zM45 278q0 95 48 159t133.5 98.5t199.5 34.5h152v41q0 53 -32.5 81t-117.5 28q-131 0 -297 -49l-49 279q75 25 183 45.5t219 20.5q147 0 240 -33.5t146 -117t53 -249.5v-616h-271l-31 73q-132 -93 -271 -93q-143 0 -224 74t-81 224z
M468 215q53 0 110 34v142h-107q-41 0 -65 -24.5t-24 -66.5q0 -40 24 -62.5t62 -22.5z" />
    <glyph glyph-name="aacute.sc" horiz-adv-x="1105" 
d="M1091 0h-365l-45 184h-258l-45 -184h-364l280 1036h517zM553 790l-90 -375h179zM637 1104l-261 32l170 366l370 -72z" />
    <glyph glyph-name="abreve.salt" horiz-adv-x="1007" 
d="M45 278q0 95 48 159t133.5 98.5t199.5 34.5h152v41q0 53 -32.5 81t-117.5 28q-131 0 -297 -49l-49 279q75 25 183 45.5t219 20.5q147 0 240 -33.5t146 -117t53 -249.5v-616h-271l-31 73q-132 -93 -271 -93q-143 0 -224 74t-81 224zM468 215q53 0 110 34v142h-107
q-41 0 -65 -24.5t-24 -66.5q0 -40 24 -62.5t62 -22.5zM127 1453h276q4 -109 82 -109t82 109h276q0 -166 -93.5 -262.5t-264.5 -96.5t-264.5 96.5t-93.5 262.5z" />
    <glyph glyph-name="abreve.sc" horiz-adv-x="1105" 
d="M1091 0h-365l-45 184h-258l-45 -184h-364l280 1036h517zM553 790l-90 -375h179zM201 1457h276q4 -99 75 -99q37 0 55.5 27.5t19.5 71.5h277q0 -158 -92 -250.5t-260 -92.5t-259.5 92.5t-91.5 250.5z" />
    <glyph glyph-name="acircumflex.salt" horiz-adv-x="1007" 
d="M45 278q0 95 48 159t133.5 98.5t199.5 34.5h152v41q0 53 -32.5 81t-117.5 28q-131 0 -297 -49l-49 279q75 25 183 45.5t219 20.5q147 0 240 -33.5t146 -117t53 -249.5v-616h-271l-31 73q-132 -93 -271 -93q-143 0 -224 74t-81 224zM468 215q53 0 110 34v142h-107
q-41 0 -65 -24.5t-24 -66.5q0 -40 24 -62.5t62 -22.5zM125 1089l181 397h391l181 -397l-304 -6l-72 214l-72 -214z" />
    <glyph glyph-name="acircumflex.sc" horiz-adv-x="1105" 
d="M1091 0h-365l-45 184h-258l-45 -184h-364l280 1036h517zM553 790l-90 -375h179zM195 1123l162 363h390l162 -363l-293 -7l-64 181l-64 -181z" />
    <glyph glyph-name="glyph157" horiz-adv-x="655" 
d="M322 1104l-260 32l169 366l371 -72z" />
    <glyph glyph-name="glyph159" horiz-adv-x="630" 
d="M318 1045l-258 21l140 268l376 -48z" />
    <glyph glyph-name="adieresis.salt" horiz-adv-x="1007" 
d="M45 278q0 95 48 159t133.5 98.5t199.5 34.5h152v41q0 53 -32.5 81t-117.5 28q-131 0 -297 -49l-49 279q75 25 183 45.5t219 20.5q147 0 240 -33.5t146 -117t53 -249.5v-616h-271l-31 73q-132 -93 -271 -93q-143 0 -224 74t-81 224zM468 215q53 0 110 34v142h-107
q-41 0 -65 -24.5t-24 -66.5q0 -40 24 -62.5t62 -22.5zM56 1277q0 181 194 181t194 -181q0 -180 -194 -180t-194 180zM539 1277q0 181 195 181q194 0 194 -181q0 -180 -194 -180q-195 0 -195 180z" />
    <glyph glyph-name="adieresis.sc" horiz-adv-x="1105" 
d="M1091 0h-365l-45 184h-258l-45 -184h-364l280 1036h517zM553 790l-90 -375h179zM139 1291q0 167 188 167q187 0 187 -167t-187 -167q-188 0 -188 167zM590 1291q0 167 187 167q188 0 188 -167t-188 -167q-187 0 -187 167z" />
    <glyph glyph-name="uni1EA1.salt" horiz-adv-x="1007" 
d="M348 -301q0 180 194 180t194 -180t-194 -180t-194 180zM45 278q0 95 48 159t133.5 98.5t199.5 34.5h152v41q0 53 -32.5 81t-117.5 28q-131 0 -297 -49l-49 279q75 25 183 45.5t219 20.5q147 0 240 -33.5t146 -117t53 -249.5v-616h-271l-31 73q-132 -93 -271 -93
q-143 0 -224 74t-81 224zM468 215q53 0 110 34v142h-107q-41 0 -65 -24.5t-24 -66.5q0 -40 24 -62.5t62 -22.5z" />
    <glyph glyph-name="uni1EA1.sc" horiz-adv-x="1105" 
d="M1091 0h-365l-45 184h-258l-45 -184h-364l280 1036h517zM553 790l-90 -375h179zM358 -301q0 180 194 180t194 -180t-194 -180t-194 180z" />
    <glyph glyph-name="ae.sc" horiz-adv-x="1452" 
d="M724 0l-20 184h-259l-67 -184h-364l407 1036h966v-259h-419l24 -139h379v-238h-350l23 -141h359v-259h-679zM653 807l-140 -392h178z" />
    <glyph glyph-name="aeacute.sc" horiz-adv-x="1452" 
d="M724 0l-20 184h-259l-67 -184h-364l407 1036h966v-259h-419l24 -139h379v-238h-350l23 -141h359v-259h-679zM653 807l-140 -392h178zM894 1104l-260 32l169 366l371 -72z" />
    <glyph glyph-name="agrave.salt" horiz-adv-x="1007" 
d="M45 278q0 95 48 159t133.5 98.5t199.5 34.5h152v41q0 53 -32.5 81t-117.5 28q-131 0 -297 -49l-49 279q75 25 183 45.5t219 20.5q147 0 240 -33.5t146 -117t53 -249.5v-616h-271l-31 73q-132 -93 -271 -93q-143 0 -224 74t-81 224zM468 215q53 0 110 34v142h-107
q-41 0 -65 -24.5t-24 -66.5q0 -40 24 -62.5t62 -22.5zM680 1103l-248 -32l-306 360l370 71z" />
    <glyph glyph-name="agrave.sc" horiz-adv-x="1105" 
d="M1091 0h-365l-45 184h-258l-45 -184h-364l280 1036h517zM553 790l-90 -375h179zM729 1136l-253 -32l-284 326l370 72z" />
    <glyph glyph-name="amacron.salt" horiz-adv-x="1007" 
d="M45 278q0 95 48 159t133.5 98.5t199.5 34.5h152v41q0 53 -32.5 81t-117.5 28q-131 0 -297 -49l-49 279q75 25 183 45.5t219 20.5q147 0 240 -33.5t146 -117t53 -249.5v-616h-271l-31 73q-132 -93 -271 -93q-143 0 -224 74t-81 224zM468 215q53 0 110 34v142h-107
q-41 0 -65 -24.5t-24 -66.5q0 -40 24 -62.5t62 -22.5zM164 1136v280h676v-280h-676z" />
    <glyph glyph-name="amacron.sc" horiz-adv-x="1105" 
d="M1091 0h-365l-45 184h-258l-45 -184h-364l280 1036h517zM553 790l-90 -375h179zM221 1136v280h662v-280h-662z" />
    <glyph glyph-name="ampersand.sc" horiz-adv-x="1085" 
d="M40 296q0 166 191 262q-1 2 -30.5 43.5t-45 70.5t-21 56.5t-5.5 51.5q0 85 48 145.5t140 96t225 35.5q141 0 299 -43l-32 -237q-163 28 -237 28q-130 0 -130 -75q0 -21 9.5 -42t54.5 -80l220 -283q8 12 8 29t-3.5 41t-16.5 50t-28 46.5t-126 156.5v74h475v-213h-134
q71 -100 71 -201q0 -103 -82 -188l125 -153l-194 -149l-150 185q-31 -8 -87.5 -14t-97.5 -6q-211 0 -328.5 81.5t-117.5 231.5zM454 211q30 0 56 8l-147 180q-48 -36 -48 -90q0 -43 36 -70.5t103 -27.5z" />
    <glyph glyph-name="aogonek.salt" horiz-adv-x="1007" 
d="M523 -263q0 151 214 263h-85l-31 73q-109 -76 -221 -88q-31 -5 -78 -3q-131 7 -204 80.5t-73 215.5q0 95 48 159t133.5 98.5t199.5 34.5h152v41q0 53 -32.5 81t-117.5 28q-131 0 -297 -49l-49 279q75 25 183 45.5t219 20.5q147 0 240 -33.5t146 -117t53 -249.5v-616
q-145 -103 -145 -196q0 -23 14.5 -44t53.5 -21q51 0 84 10l14 -201q-56 -16 -136 -16q-134 0 -209.5 50t-75.5 155zM468 215q53 0 110 34v142h-107q-41 0 -65 -24.5t-24 -66.5q0 -40 24 -62.5t62 -22.5z" />
    <glyph glyph-name="aogonek.sc" horiz-adv-x="1105" 
d="M1091 0q-145 -104 -145 -196q0 -23 15 -44t54 -21q50 0 83 10l15 -201q-58 -16 -136 -16q-135 0 -210.5 50t-75.5 155q0 151 214 263h-179l-45 184h-258l-45 -184h-364l280 1036h517zM553 790l-90 -375h179z" />
    <glyph glyph-name="approxequal.tnum" 
d="M256 699l-129 160q47 90 128.5 147.5t176.5 57.5q63 0 156 -37t138 -37q82 0 171 75l129 -173q-47 -84 -128.5 -138t-176.5 -54q-8 0 -31 1.5t-49 9t-99 36t-115 28.5q-83 0 -171 -76zM276 303l-129 160q43 82 121.5 137t163.5 55q9 0 32.5 -1.5t46 -8t104 -36
t131.5 -29.5q98 0 197 76l129 -173q-51 -82 -137.5 -136t-190.5 -54q-68 0 -169 36t-148 36q-73 0 -151 -62z" />
    <glyph glyph-name="approxequal.aalt" horiz-adv-x="1179" 
d="M117 779q46 89 128 147.5t177 58.5q8 0 31 -1.5t49 -9t99 -36t115 -28.5q85 0 170 76l129 -173q-46 -83 -128 -137.5t-177 -54.5q-63 0 -155.5 37t-137.5 37q-82 0 -171 -75zM137 383q43 82 121.5 137t163.5 55q64 0 161.5 -37t152.5 -37q96 0 197 76l129 -173
q-51 -83 -140 -137.5t-192 -54.5q-66 0 -166 37t-147 37q-75 0 -151 -62z" />
    <glyph glyph-name="approxequal.aalt.tnum" 
d="M256 620l-129 159q47 90 128.5 148t176.5 58q8 0 31 -1.5t49 -9t99 -36t115 -28.5q83 0 171 76l129 -173q-47 -84 -128.5 -138t-176.5 -54q-63 0 -156 37t-138 37q-82 0 -171 -75zM276 224l-129 159q43 82 121.5 137t163.5 55q64 0 161.5 -37t152.5 -37q98 0 197 76
l129 -173q-52 -85 -139 -137.5t-195 -52.5q-66 0 -165.5 36t-145.5 36q-73 0 -151 -62z" />
    <glyph glyph-name="aring.salt" horiz-adv-x="1007" 
d="M212 1287q0 110 74 172.5t206 62.5q125 0 198.5 -61t73.5 -165q0 -111 -73.5 -173.5t-206.5 -62.5q-124 0 -198 61.5t-74 165.5zM421 1291q0 -27 18.5 -44.5t48.5 -17.5t49 17.5t19 44.5t-18.5 44.5t-48.5 17.5t-49 -17.5t-19 -44.5zM45 278q0 95 48 159t133.5 98.5
t199.5 34.5h152v41q0 53 -32.5 81t-117.5 28q-131 0 -297 -49l-49 279q75 25 183 45.5t219 20.5q147 0 240 -33.5t146 -117t53 -249.5v-616h-271l-31 73q-132 -93 -271 -93q-143 0 -224 74t-81 224zM468 215q53 0 110 34v142h-107q-41 0 -65 -24.5t-24 -66.5q0 -40 24 -62.5
t62 -22.5z" />
    <glyph glyph-name="aring.sc" horiz-adv-x="1105" 
d="M1091 0h-365l-45 184h-258l-45 -184h-364l280 1036h517zM553 790l-90 -375h179zM278 1297q0 105 73 165t205 60q125 0 197.5 -58.5t72.5 -157.5q0 -107 -73 -166.5t-206 -59.5q-124 0 -196.5 58.5t-72.5 158.5zM487 1301q0 -24 17.5 -39t46.5 -15q30 0 48 15t18 39
t-18 39t-47 15t-47 -15t-18 -39z" />
    <glyph glyph-name="aringacute.salt" horiz-adv-x="1007" 
d="M45 278q0 95 48 159t133.5 98.5t199.5 34.5h152v41q0 53 -32.5 81t-117.5 28q-131 0 -297 -49l-49 279q75 25 183 45.5t219 20.5q147 0 240 -33.5t146 -117t53 -249.5v-616h-271l-31 73q-132 -93 -271 -93q-143 0 -224 74t-81 224zM236 1273q0 102 68.5 160.5t193.5 58.5
q116 0 184 -56t68 -151q0 -103 -69 -161.5t-195 -58.5q-114 0 -182 56.5t-68 151.5zM468 215q53 0 110 34v142h-107q-41 0 -65 -24.5t-24 -66.5q0 -40 24 -62.5t62 -22.5zM583 1536l-251 20l147 282l376 -48zM429 1277q0 -26 17 -42.5t45 -16.5q31 0 48.5 17t17.5 45
q0 26 -17 42.5t-45 16.5q-31 0 -48.5 -17t-17.5 -45z" />
    <glyph glyph-name="aringacute.sc" horiz-adv-x="1105" 
d="M1091 0h-365l-45 184h-258l-45 -184h-364l280 1036h517zM553 790l-90 -375h179zM295 1287q0 99 70 155.5t192 56.5q115 0 184.5 -55t69.5 -148q0 -99 -70 -155.5t-193 -56.5q-115 0 -184 55t-69 148zM490 1291q0 -23 17.5 -38.5t44.5 -15.5q29 0 46 15t17 39t-17 39.5
t-45 15.5t-45.5 -15.5t-17.5 -39.5zM650 1543l-258 20l140 268l376 -48z" />
    <glyph glyph-name="atilde.salt" horiz-adv-x="1007" 
d="M45 278q0 95 48 159t133.5 98.5t199.5 34.5h152v41q0 53 -32.5 81t-117.5 28q-131 0 -297 -49l-49 279q75 25 183 45.5t219 20.5q147 0 240 -33.5t146 -117t53 -249.5v-616h-271l-31 73q-132 -93 -271 -93q-143 0 -224 74t-81 224zM468 215q53 0 110 34v142h-107
q-41 0 -65 -24.5t-24 -66.5q0 -40 24 -62.5t62 -22.5zM348 1450q52 0 132.5 -28t109.5 -28q64 0 124 68l160 -115q-18 -66 -57.5 -122t-93 -90t-118.5 -34q-52 0 -132 28.5t-109 28.5q-64 0 -124 -68l-160 114q15 53 51 113t94 96.5t123 36.5z" />
    <glyph glyph-name="atilde.sc" horiz-adv-x="1105" 
d="M1091 0h-365l-45 184h-258l-45 -184h-364l280 1036h517zM553 790l-90 -375h179zM443 1450q48 0 120.5 -21.5t108.5 -21.5q59 0 117 55l140 -121q-15 -46 -51 -98t-94 -83.5t-123 -31.5q-48 0 -120 21.5t-108 21.5q-58 0 -118 -55l-140 121q15 46 51 98t94 83.5t123 31.5z
" />
    <glyph glyph-name="b.sc" horiz-adv-x="1061" 
d="M571 0h-479v1036h451q219 0 329.5 -74.5t110.5 -214.5q0 -67 -36 -122.5t-116 -88.5q86 -32 139.5 -93t53.5 -144q0 -299 -453 -299zM667 330q0 43 -33.5 71.5t-88.5 28.5h-103v-200h105q56 0 88 28t32 72zM550 616q49 0 76 28t27 68q0 41 -27.5 67.5t-79.5 26.5h-104
v-190h108z" />
    <glyph glyph-name="braceleft.sc" horiz-adv-x="778" 
d="M551 1128v-332q0 -117 -40 -184t-130 -94q79 -24 124.5 -84t45.5 -187v-333q0 -47 24 -73.5t63 -26.5h97v-298h-217q-132 0 -221 86.5t-89 216.5v452q0 41 -22.5 70.5t-62.5 29.5h-69v295h69q40 0 62.5 27.5t22.5 64.5v451q0 134 89 222.5t221 88.5h217v-298h-97
q-39 0 -63 -25.5t-24 -68.5z" />
    <glyph glyph-name="braceright.sc" horiz-adv-x="778" 
d="M228 -92v332q0 118 39.5 184.5t129.5 94.5q-79 23 -124 83t-45 188v332q0 47 -24.5 74t-63.5 27h-97v298h217q132 0 221 -87t89 -217v-452q0 -41 22.5 -70t62.5 -29h69v-295h-69q-40 0 -62.5 -27.5t-22.5 -65.5v-451q0 -134 -89 -222t-221 -88h-217v298h97
q39 0 63.5 25.5t24.5 67.5z" />
    <glyph glyph-name="bracketleft.sc" horiz-adv-x="714" 
d="M663 -190v-295h-541v2004h541v-294h-197v-1415h197z" />
    <glyph glyph-name="bracketright.sc" horiz-adv-x="714" 
d="M51 1226v294h541v-2004h-541v295h197v1415h-197z" />
    <glyph glyph-name="glyph211" horiz-adv-x="824" 
d="M60 1457h277q1 -44 19.5 -71.5t55.5 -27.5q71 0 75 99h276q0 -158 -91.5 -250.5t-259.5 -92.5t-260 92.5t-92 250.5z" />
    <glyph glyph-name="c.sc" horiz-adv-x="829" 
d="M774 291l16 -275q-112 -36 -254 -36q-207 0 -331.5 87.5t-142.5 246.5l-5 97v210l5 96q18 163 140.5 251.5t322.5 88.5q55 0 132 -10.5t125 -29.5l-23 -276q-100 25 -169 25q-70 0 -116 -35.5t-46 -95.5v-238q0 -59 46 -93t123 -34q80 0 177 21z" />
    <glyph glyph-name="glyph216" horiz-adv-x="1972" 
d="M1911 650v-230q0 -212 -131 -326t-381 -114q-260 0 -458 72v1187h-117q-75 0 -114.5 -29t-39.5 -82q0 -43 33 -81.5t100 -64.5l-35 -285q-108 27 -176 27q-77 0 -122.5 -45.5t-45.5 -122.5v-117q0 -79 46.5 -123t127.5 -44q87 0 183 22l21 -284q-122 -30 -278 -30
q-224 0 -343.5 113t-119.5 327v156q0 203 110 316t315 123q-97 76 -97 185q0 131 110.5 214t314.5 83h489v-572q126 91 271 91q107 0 183 -50t115 -130t39 -186zM1433 716q-63 0 -122 -45v-386q52 -14 100 -14q64 0 97 36.5t33 93.5v192q0 58 -27.5 90.5t-80.5 32.5z" />
    <glyph glyph-name="glyph217" horiz-adv-x="1890" 
d="M774 291l16 -275q-112 -36 -254 -36q-207 0 -331.5 87.5t-142.5 246.5l-5 97v210l5 96q18 163 140.5 251.5t322.5 88.5q55 0 132 -10.5t125 -29.5l-23 -276q-100 25 -169 25q-70 0 -116 -35.5t-46 -95.5v-238q0 -59 46 -93t123 -34q80 0 177 21zM1399 0h-478v1036h450
q219 0 330 -74.5t111 -214.5q0 -67 -36 -122.5t-116 -88.5q86 -32 139.5 -93t53.5 -144q0 -299 -454 -299zM1496 330q0 43 -33.5 71.5t-88.5 28.5h-103v-200h105q56 0 88 28t32 72zM1379 616q49 0 75.5 28t26.5 68q0 41 -27.5 67.5t-78.5 26.5h-104v-190h108z" />
    <glyph glyph-name="glyph218" horiz-adv-x="1990" 
d="M424 556v-117q0 -79 46.5 -123t127.5 -44q87 0 183 22l21 -284q-122 -30 -278 -30q-224 0 -343.5 113t-119.5 327v156q0 203 110 316t315 123q-97 76 -97 185q0 131 110.5 214t314.5 83h489v-582q157 101 306 101q142 0 218 -76.5t76 -220.5v-719h-370v603q0 91 -89 91
q-63 0 -133 -48v-646h-370v1239h-117q-75 0 -114.5 -29t-39.5 -82q0 -43 33 -81.5t100 -64.5l-35 -285q-108 27 -176 27q-77 0 -122.5 -45.5t-45.5 -122.5z" />
    <glyph glyph-name="glyph219" horiz-adv-x="1996" 
d="M774 291l16 -275q-112 -36 -254 -36q-207 0 -331.5 87.5t-142.5 246.5l-5 97v210l5 96q18 163 140.5 251.5t322.5 88.5q55 0 132 -10.5t125 -29.5l-23 -276q-100 25 -169 25q-70 0 -116 -35.5t-46 -95.5v-238q0 -59 46 -93t123 -34q80 0 177 21zM1903 0h-370v379h-241
v-379h-371v1036h371v-377h241v377h370v-1036z" />
    <glyph glyph-name="glyph220" horiz-adv-x="1966" 
d="M424 556v-117q0 -79 46.5 -123t127.5 -44q87 0 183 22l21 -284q-122 -30 -278 -30q-224 0 -343.5 113t-119.5 327v156q0 203 110 316t315 123q-97 76 -97 185q0 131 110.5 214t314.5 83h497v-841h76l141 340h407l-243 -494l255 -502h-406l-157 367h-73v-367h-370v1239
h-117q-75 0 -114.5 -29t-39.5 -82q0 -43 33 -81.5t100 -64.5l-35 -285q-108 27 -176 27q-77 0 -122.5 -45.5t-45.5 -122.5z" />
    <glyph glyph-name="glyph221" horiz-adv-x="1947" 
d="M774 291l16 -275q-112 -36 -254 -36q-207 0 -331.5 87.5t-142.5 246.5l-5 97v210l5 96q18 163 140.5 251.5t322.5 88.5q55 0 132 -10.5t125 -29.5l-23 -276q-100 25 -169 25q-70 0 -116 -35.5t-46 -95.5v-238q0 -59 46 -93t123 -34q80 0 177 21zM1513 1036h403l-237 -520
l251 -516h-403l-155 367h-76v-367h-375v1036h375v-371h75z" />
    <glyph glyph-name="glyph222" horiz-adv-x="1408" 
d="M424 556v-117q0 -79 46.5 -123t127.5 -44q87 0 183 22l21 -284q-122 -30 -278 -30q-224 0 -343.5 113t-119.5 327v156q0 203 110 316t315 123q-97 76 -97 185q0 131 110.5 214t314.5 83h497v-1497h-370v1239h-117q-75 0 -114.5 -29t-39.5 -82q0 -43 33 -81.5t100 -64.5
l-35 -285q-108 27 -176 27q-77 0 -122.5 -45.5t-45.5 -122.5z" />
    <glyph glyph-name="glyph223" horiz-adv-x="1690" 
d="M774 291l16 -275q-112 -36 -254 -36q-207 0 -331.5 87.5t-142.5 246.5l-5 97v210l5 96q18 163 140.5 251.5t322.5 88.5q55 0 132 -10.5t125 -29.5l-23 -276q-100 25 -169 25q-70 0 -116 -35.5t-46 -95.5v-238q0 -59 46 -93t123 -34q80 0 177 21zM1292 1036v-756h371v-280
h-742v1036h371z" />
    <glyph glyph-name="glyph224" horiz-adv-x="1588" 
d="M872 717v279h119v243h-167q-75 0 -114.5 -29t-39.5 -82q0 -42 32.5 -81t100.5 -65l-35 -285q-108 27 -176 27q-77 0 -122.5 -45.5t-45.5 -122.5v-117q0 -79 46.5 -123t127.5 -44q87 0 183 22l21 -284q-122 -30 -278 -30q-224 0 -343.5 113t-119.5 327v156q0 203 110 316
t315 123q-97 74 -97 185q0 131 110.5 214t314.5 83h532v-501h183v-279h-175v-352q0 -95 81 -95q15 0 110 10l18 -272q-99 -28 -239 -28q-158 0 -240.5 65.5t-95.5 202.5q-1 20 -4 84t-1.5 207.5t1.5 177.5h-112z" />
    <glyph glyph-name="glyph225" horiz-adv-x="1746" 
d="M774 291l16 -275q-112 -36 -254 -36q-207 0 -331.5 87.5t-142.5 246.5l-5 97v210l5 96q18 163 140.5 251.5t322.5 88.5q55 0 132 -10.5t125 -29.5l-23 -276q-100 25 -169 25q-70 0 -116 -35.5t-46 -95.5v-238q0 -59 46 -93t123 -34q80 0 177 21zM1102 0v757h-253v279h877
v-279h-253v-757h-371z" />
    <glyph glyph-name="cacute.sc" horiz-adv-x="829" 
d="M774 291l16 -275q-112 -36 -254 -36q-207 0 -331.5 87.5t-142.5 246.5l-5 97v210l5 96q18 163 140.5 251.5t322.5 88.5q55 0 132 -10.5t125 -29.5l-23 -276q-100 25 -169 25q-70 0 -116 -35.5t-46 -95.5v-238q0 -59 46 -93t123 -34q80 0 177 21zM536 1104l-261 32
l169 366l371 -72z" />
    <glyph glyph-name="glyph229" horiz-adv-x="867" 
d="M805 1483l-178 -364h-387l-178 364l301 6l71 -194l70 194z" />
    <glyph glyph-name="ccaron.sc" horiz-adv-x="829" 
d="M774 291l16 -275q-112 -36 -254 -36q-207 0 -331.5 87.5t-142.5 246.5l-5 97v210l5 96q18 163 140.5 251.5t322.5 88.5q55 0 132 -10.5t125 -29.5l-23 -276q-100 25 -169 25q-70 0 -116 -35.5t-46 -95.5v-238q0 -59 46 -93t123 -34q80 0 177 21zM843 1483l-178 -364h-387
l-178 364l301 6l70 -194l71 194z" />
    <glyph glyph-name="ccedilla.sc" horiz-adv-x="829" 
d="M774 291l16 -275q-112 -36 -254 -36l-29 1l-7 -62q94 -10 150 -59.5t56 -137.5q0 -93 -85.5 -141.5t-226.5 -48.5q-82 0 -146 16l16 189q46 -11 92 -11q41 0 68 12.5t27 38.5q0 50 -76 50h-64l37 174q-125 34 -199 114t-87 199l-5 97v210l5 96q18 163 140.5 251.5
t322.5 88.5q55 0 132 -10.5t125 -29.5l-23 -276q-100 25 -169 25q-70 0 -116 -35.5t-46 -95.5v-238q0 -59 46 -93t123 -34q80 0 177 21z" />
    <glyph glyph-name="ccircumflex.sc" horiz-adv-x="829" 
d="M774 291l16 -275q-112 -36 -254 -36q-207 0 -331.5 87.5t-142.5 246.5l-5 97v210l5 96q18 163 140.5 251.5t322.5 88.5q55 0 132 -10.5t125 -29.5l-23 -276q-100 25 -169 25q-70 0 -116 -35.5t-46 -95.5v-238q0 -59 46 -93t123 -34q80 0 177 21zM98 1123l161 363h391
l161 -363l-292 -7l-64 181l-65 -181z" />
    <glyph glyph-name="cdotaccent.sc" horiz-adv-x="829" 
d="M774 291l16 -275q-112 -36 -254 -36q-207 0 -331.5 87.5t-142.5 246.5l-5 97v210l5 96q18 163 140.5 251.5t322.5 88.5q55 0 132 -10.5t125 -29.5l-23 -276q-100 25 -169 25q-70 0 -116 -35.5t-46 -95.5v-238q0 -59 46 -93t123 -34q80 0 177 21zM290 1291q0 167 187 167
q188 0 188 -167t-188 -167q-187 0 -187 167z" />
    <glyph glyph-name="cent.tnum" 
d="M521 1487h323l-19 -278q99 -11 162 -32l-22 -276q-115 25 -196 25q-82 0 -135.5 -46t-53.5 -118v-165q0 -75 54 -121t142 -46q93 0 203 21l16 -275q-74 -23 -182 -32l19 -277h-323l21 295q-152 38 -236 146t-84 270v202q0 166 87 274t244 144z" />
    <glyph glyph-name="cent.aalt" horiz-adv-x="974" 
d="M399 1411h323l-19 -279q92 -10 149 -31l-23 -276q-57 13 -94.5 18.5t-74.5 5.5q-70 0 -116 -35.5t-46 -95.5v-237q0 -60 46 -94t123 -34q80 0 177 21l16 -274q-67 -24 -169 -33l19 -277h-323l22 299q-133 38 -207.5 134t-74.5 239v274q0 150 77.5 248t215.5 134z" />
    <glyph glyph-name="cent.aalt.tnum" 
d="M521 1411h323l-19 -279q97 -9 162 -31l-22 -276q-107 19 -136 21.5t-60 2.5q-82 0 -135.5 -46t-53.5 -118v-165q0 -75 54 -121t142 -46q93 0 203 21l16 -274q-72 -24 -182 -33l19 -277h-323l21 295q-152 39 -236 147t-84 270v201q0 166 87.5 274.5t243.5 144.5z" />
    <glyph glyph-name="glyph244" horiz-adv-x="861" 
d="M74 1123l161 363h391l161 -363l-292 -7l-65 181l-64 -181z" />
    <glyph glyph-name="currency.tnum" 
d="M225 78l-181 175l189 219q-49 87 -49 190v32q0 97 42 176l-186 210l180 176l224 -198q78 32 159 32q79 0 155 -31l223 197l180 -175l-184 -208q44 -85 44 -179v-32q0 -102 -52 -193l187 -217l-180 -175l-236 215q-63 -25 -137 -25q-78 0 -142 26zM484 690v-23
q0 -55 32 -90t87 -35q54 0 85.5 35t31.5 90v23q0 54 -31 89t-86 35t-87 -35t-32 -89z" />
    <glyph glyph-name="currency.aalt" horiz-adv-x="1395" 
d="M286 3l-181 174l199 232q-47 83 -47 183v35q0 91 40 169l-197 223l180 175l232 -205q87 39 187 39q97 0 184 -38l231 204l181 -175l-196 -220q42 -78 42 -172v-35q0 -102 -49 -186l197 -229l-180 -175l-243 221q-81 -31 -167 -31q-91 0 -170 32zM571 623v-26
q0 -56 33 -93.5t95 -37.5t95 37.5t33 93.5v26q0 56 -33 93t-95 37t-95 -37t-33 -93z" />
    <glyph glyph-name="currency.aalt.tnum" 
d="M225 9l-181 175l188 220q-49 85 -49 190v31q0 98 42 177l-186 210l181 176l223 -198q76 31 159 31q78 0 155 -30l223 197l180 -176l-184 -208q44 -82 44 -179v-31q0 -106 -52 -194l187 -216l-180 -175l-236 215q-66 -26 -137 -26q-75 0 -141 26zM484 621v-22
q0 -55 31.5 -90.5t86.5 -35.5q54 0 86 35.5t32 90.5v22q0 55 -31.5 90t-86.5 35t-86.5 -35t-31.5 -90z" />
    <glyph glyph-name="d.sc" horiz-adv-x="1099" 
d="M92 0v1036h424q526 0 526 -410v-217q0 -201 -124.5 -305t-364.5 -104h-461zM672 370v245q0 151 -124 151h-102v-496h102q60 0 92 26.5t32 73.5z" />
    <glyph glyph-name="dagger.sc" horiz-adv-x="1145" 
d="M402 1419h340l-3 -433l369 12v-325l-371 10l-5 -1067h-320l-6 1067l-369 -10v325l367 -12z" />
    <glyph glyph-name="daggerdbl.sc" horiz-adv-x="1152" 
d="M43 718v325l367 -16v391h332v-391l366 16v-325l-366 15v-434l367 16v-325l-367 15v-390h-332v390l-366 -15v325l366 -16v434z" />
    <glyph glyph-name="dcaron.sc" horiz-adv-x="1099" 
d="M92 0v1036h424q526 0 526 -410v-217q0 -201 -124.5 -305t-364.5 -104h-461zM672 370v245q0 151 -124 151h-102v-496h102q60 0 92 26.5t32 73.5zM894 1483l-178 -364h-387l-178 364l301 6l71 -194l70 194z" />
    <glyph glyph-name="dcroat.sc" horiz-adv-x="1113" 
d="M17 435v167h89v434h423q469 0 518 -322q9 -61 9 -130v-133q0 -69 -9 -131q-22 -158 -146 -239t-335 -81h-460v435h-89zM685 370v260q0 58 -28 97t-96 39h-101v-164h123v-167h-123v-165h101q60 0 92 26.5t32 73.5z" />
    <glyph glyph-name="degree.aalt" horiz-adv-x="799" 
d="M60 849v76q0 84 41 146t117.5 99.5t180.5 37.5t181 -37.5t118 -99.5t41 -146v-76q0 -84 -41 -146t-118 -99.5t-181 -37.5t-180.5 37.5t-117.5 99.5t-41 146zM319 904v-33q0 -38 22 -60.5t58 -22.5t59 22.5t23 60.5v33q0 38 -23 60.5t-59 22.5t-58 -22.5t-22 -60.5z" />
    <glyph glyph-name="glyph266" horiz-adv-x="973" 
d="M60 1291q0 167 188 167q187 0 187 -167t-187 -167q-188 0 -188 167zM537 1291q0 167 188 167q187 0 187 -167t-187 -167q-188 0 -188 167z" />
    <glyph glyph-name="divide.tnum" 
d="M405 1056q0 180 194 180t194 -180q0 -181 -194 -181t-194 181zM197 782h805v-171h-805v171zM405 337q0 181 194 181t194 -181q0 -180 -194 -180t-194 180z" />
    <glyph glyph-name="divide.aalt" horiz-adv-x="1035" 
d="M325 958q0 180 194 180t194 -180t-194 -180t-194 180zM117 684h804v-171h-804v171zM325 240q0 180 194 180t194 -180q0 -181 -194 -181t-194 181z" />
    <glyph glyph-name="divide.aalt.tnum" 
d="M405 958q0 180 194 180t194 -180t-194 -180t-194 180zM197 684h805v-171h-805v171zM405 240q0 180 194 180t194 -180q0 -181 -194 -181t-194 181z" />
    <glyph glyph-name="dollar.tnum" 
d="M452 1547h323l-20 -288q118 -9 233 -36l-39 -284q-167 36 -290 36q-68 0 -108.5 -18t-40.5 -55q0 -11 4.5 -25.5t22 -25.5t37 -17.5t169.5 -42.5t218 -119.5t68 -232.5q0 -294 -307 -341l20 -291h-323l21 287q-162 15 -276 50l50 281q51 -16 145.5 -31t161.5 -15
q149 0 149 71q0 11 -6 26t-29.5 28.5t-59.5 24t-90.5 23.5t-69.5 17q-133 33 -192 112t-59 218q0 140 80 234t229 121z" />
    <glyph glyph-name="dollar.aalt" horiz-adv-x="1095" 
d="M401 1471h323l-20 -288q121 -10 232 -36l-38 -284q-167 36 -290 36q-68 0 -108.5 -18t-40.5 -55q0 -11 4.5 -25.5t24 -26.5t50.5 -21t82.5 -21t71.5 -17q150 -36 218 -119.5t68 -232.5q0 -294 -308 -341l21 -291h-323l21 287q-162 15 -276 50l49 281q52 -16 146.5 -31
t161.5 -15q149 0 149 71q0 11 -6 26t-29.5 28.5t-59.5 24t-90.5 23.5t-69.5 17q-133 33 -192 112t-59 218q0 140 79.5 234t229.5 121z" />
    <glyph glyph-name="dollar.aalt.tnum" 
d="M458 1471h324l-20 -288q121 -10 232 -36l-38 -284q-167 36 -291 36q-67 0 -107.5 -18t-40.5 -55q0 -11 4.5 -25.5t24 -26.5t50.5 -21t82.5 -21t71.5 -17q150 -36 218 -119.5t68 -232.5q0 -294 -308 -341l21 -291h-324l21 287q-161 15 -275 50l49 281q52 -16 146.5 -31
t161.5 -15q149 0 149 71q0 11 -6 26t-29.5 28.5t-59.5 24t-90.5 23.5t-69.5 17q-133 33 -192 112t-59 218q0 140 79.5 234t228.5 121z" />
    <glyph glyph-name="glyph276" horiz-adv-x="496" 
d="M60 1291q0 167 188 167q187 0 187 -167t-187 -167q-188 0 -188 167z" />
    <glyph glyph-name="e.sc" horiz-adv-x="937" 
d="M92 0v1036h780v-259h-415v-139h400v-238h-400v-141h431v-259h-796z" />
    <glyph glyph-name="eacute.sc" horiz-adv-x="937" 
d="M92 0v1036h780v-259h-415v-139h400v-238h-400v-141h431v-259h-796zM576 1104l-260 32l169 366l370 -72z" />
    <glyph glyph-name="ebreve.sc" horiz-adv-x="937" 
d="M92 0v1036h780v-259h-415v-139h400v-238h-400v-141h431v-259h-796zM127 1457h276q4 -99 75 -99q72 0 76 99h276q0 -158 -92 -250.5t-260 -92.5q-167 0 -259 92.5t-92 250.5z" />
    <glyph glyph-name="ecaron.sc" horiz-adv-x="937" 
d="M92 0v1036h780v-259h-415v-139h400v-238h-400v-141h431v-259h-796zM860 1483l-178 -364h-387l-178 364l301 6l71 -194l70 194z" />
    <glyph glyph-name="ecircumflex.sc" horiz-adv-x="937" 
d="M92 0v1036h780v-259h-415v-139h400v-238h-400v-141h431v-259h-796zM122 1123l161 363h391l161 -363l-292 -7l-65 181l-64 -181z" />
    <glyph glyph-name="edieresis.sc" horiz-adv-x="937" 
d="M92 0v1036h780v-259h-415v-139h400v-238h-400v-141h431v-259h-796zM58 1291q0 167 188 167q187 0 187 -167t-187 -167q-188 0 -188 167zM522 1291q0 167 187 167q188 0 188 -167t-188 -167q-187 0 -187 167z" />
    <glyph glyph-name="edotaccent.sc" horiz-adv-x="937" 
d="M92 0v1036h780v-259h-415v-139h400v-238h-400v-141h431v-259h-796zM294 1291q0 167 187 167q188 0 188 -167t-188 -167q-187 0 -187 167z" />
    <glyph glyph-name="uni1EB9.sc" horiz-adv-x="937" 
d="M92 0v1036h780v-259h-415v-139h400v-238h-400v-141h431v-259h-796zM294 -301q0 180 195 180q194 0 194 -180t-194 -180q-195 0 -195 180z" />
    <glyph glyph-name="egrave.sc" horiz-adv-x="937" 
d="M92 0v1036h780v-259h-415v-139h400v-238h-400v-141h431v-259h-796zM685 1136l-253 -32l-285 326l371 72z" />
    <glyph glyph-name="eight.tnum" 
d="M1103 335q0 -74 -33 -139.5t-97.5 -113.5t-159.5 -75t-213 -27t-212.5 27t-158.5 75.5t-96.5 114.5t-32.5 142q0 105 50 187.5t178 156.5q-101 62 -151 136t-50 178q0 80 31 149t91 120t149.5 79.5t201.5 28.5q82 0 165 -19t149.5 -65t109 -119.5t42.5 -173.5
q0 -87 -42.5 -164.5t-153.5 -149.5q120 -66 176.5 -148.5t56.5 -199.5zM600 253q66 0 107 34.5t41 93.5q0 39 -25.5 82.5t-122.5 100.5q-74 -37 -110 -78.5t-36 -104.5q0 -59 39.5 -93.5t106.5 -34.5zM740 972q0 58 -38.5 91t-101.5 33q-64 0 -102.5 -32.5t-38.5 -91.5
q0 -36 25.5 -76t116.5 -93q60 32 99.5 70.5t39.5 98.5z" />
    <glyph glyph-name="uniF738.tnum" 
d="M1103 335q0 -74 -33 -139.5t-97.5 -113.5t-159.5 -75t-213 -27t-212.5 27t-158.5 75.5t-96.5 114.5t-32.5 142q0 105 50 187.5t178 156.5q-101 62 -151 136t-50 178q0 80 31 149t91 120t149.5 79.5t201.5 28.5q82 0 165 -19t149.5 -65t109 -119.5t42.5 -173.5
q0 -87 -42.5 -164.5t-153.5 -149.5q120 -66 176.5 -148.5t56.5 -199.5zM600 253q66 0 107 34.5t41 93.5q0 39 -25.5 82.5t-122.5 100.5q-74 -37 -110 -78.5t-36 -104.5q0 -59 39.5 -93.5t106.5 -34.5zM740 972q0 58 -38.5 91t-101.5 33q-64 0 -102.5 -32.5t-38.5 -91.5
q0 -36 25.5 -76t116.5 -93q60 32 99.5 70.5t39.5 98.5z" />
    <glyph glyph-name="emacron.sc" horiz-adv-x="937" 
d="M92 0v1036h780v-259h-415v-139h400v-238h-400v-141h431v-259h-796zM144 1136v280h662v-280h-662z" />
    <glyph glyph-name="eng.sc" horiz-adv-x="1166" 
d="M535 -248q62 40 100.5 74.5t63.5 84.5t26 115l-269 492v-518h-364v1036h354l264 -519v519h364v-1041h-1q-7 -147 -93 -257.5t-286 -205.5z" />
    <glyph glyph-name="eogonek.sc" horiz-adv-x="937" 
d="M92 0v1036h780v-259h-415v-139h400v-238h-400v-141h431v-259q-145 -104 -145 -196q0 -23 15 -44t54 -21q50 0 83 10l15 -201q-58 -16 -136 -16q-135 0 -210.5 50t-75.5 155q0 151 214 263h-610z" />
    <glyph glyph-name="equal.tnum" 
d="M202 1026h795v-292h-795v292zM202 620h795v-292h-795v292z" />
    <glyph glyph-name="equal.aalt" horiz-adv-x="1029" 
d="M117 948h795v-293h-795v293zM117 542h795v-293h-795v293z" />
    <glyph glyph-name="equal.aalt.tnum" 
d="M202 948h795v-293h-795v293zM202 542h795v-293h-795v293z" />
    <glyph glyph-name="estimated.aalt" horiz-adv-x="1607" 
d="M1490 561h-1112q-10 0 -10 -10v-292q0 -22 17 -39q66 -69 172 -114t248 -45q126 0 236 41t191 119h115q-94 -111 -235.5 -176t-308.5 -65q-178 0 -335.5 77t-254 221.5t-96.5 318.5q0 157 86 299.5t247.5 231t352.5 88.5q174 0 332 -81t256.5 -230.5t98.5 -323.5v-20z
M1238 648v292q0 25 -18 40q-66 67 -171 112t-244 45q-126 0 -234 -39.5t-185 -117.5q-18 -18 -18 -43v-289q0 -10 10 -10h853q7 0 7 10z" />
    <glyph glyph-name="eth.sc" horiz-adv-x="1113" 
d="M17 435v167h89v434h423q469 0 518 -322q9 -61 9 -130v-133q0 -69 -9 -131q-22 -158 -146 -239t-335 -81h-460v435h-89zM685 370v260q0 58 -28 97t-96 39h-101v-164h123v-167h-123v-165h101q60 0 92 26.5t32 73.5z" />
    <glyph glyph-name="uni1EBD.sc" horiz-adv-x="937" 
d="M92 0v1036h780v-259h-415v-139h400v-238h-400v-141h431v-259h-796zM369 1450q48 0 120.5 -21.5t108.5 -21.5q59 0 117 55l140 -121q-15 -46 -51 -98t-94 -83.5t-123 -31.5q-48 0 -120 21.5t-108 21.5q-58 0 -118 -55l-140 121q15 46 51 98t94 83.5t123 31.5z" />
    <glyph glyph-name="exclam.sc" horiz-adv-x="546" 
d="M482 1196l-54 -756h-309l-54 756h417zM79 160q0 180 195 180q194 0 194 -180t-194 -180q-195 0 -195 180z" />
    <glyph glyph-name="exclamdown.sc" horiz-adv-x="546" 
d="M64 -160l55 756h308l55 -756h-418zM79 876q0 180 194 180t194 -180t-194 -180t-194 180z" />
    <glyph glyph-name="f.sc" horiz-adv-x="899" 
d="M92 0v1036h765v-279h-400v-139h385v-252h-385v-366h-365z" />
    <glyph glyph-name="glyph329" horiz-adv-x="1785" 
d="M489 1042v-46h159v-279h-149v-717h-370v717h-112v279h112v65q0 91 24.5 156t68 116.5t136.5 91t243 39.5q114 0 224 -27q255 -2 291 -1v-511q126 91 271 91q107 0 183 -50t115 -130t39 -186v-230q0 -212 -131 -326t-381 -114q-260 0 -458 72v1095q-85 18 -138 18
q-64 0 -95.5 -29t-31.5 -94zM1246 716q-63 0 -122 -45v-386q52 -14 100 -14q60 0 95 36.5t35 134.5v131q0 70 -24 106.5t-84 36.5z" />
    <glyph glyph-name="glyph330" horiz-adv-x="1961" 
d="M92 0v1036h765v-279h-400v-139h385v-252h-385v-366h-365zM1470 0h-478v1036h450q219 0 330 -74.5t111 -214.5q0 -78 -42.5 -130.5t-110.5 -80.5q87 -32 140.5 -93t53.5 -144q0 -299 -454 -299zM1566 330q0 43 -33.5 71.5t-88.5 28.5h-103v-200h105q56 0 88 28t32 72z
M1449 616q50 0 76.5 28t26.5 68q0 41 -27.5 67.5t-78.5 26.5h-105v-190h108z" />
    <glyph glyph-name="uniFB00.sc" horiz-adv-x="1798" 
d="M92 0v1036h765v-279h-400v-139h385v-252h-385v-366h-365zM992 0v1036h765v-279h-401v-139h385v-252h-385v-366h-364z" />
    <glyph glyph-name="glyph333" horiz-adv-x="2388" 
d="M17 717v279h112v82q0 172 94 269t278 97q105 0 207 -23l-47 -274q-70 7 -79 7q-96 0 -96 -98v-60h246v65q0 91 24.5 156t68 116.5t136.5 91t243 39.5q113 0 225 -27q254 -2 290 -1v-511q127 91 271 91q52 0 109 -16t107 -58t85.5 -114t35.5 -178v-230q0 -212 -131 -326
t-381 -114q-258 0 -458 72v1095q-85 18 -138 18q-64 0 -95.5 -29t-31.5 -94v-46h160v-279h-150v-717h-370v717h-233v-717h-370v717h-112zM1849 716q-63 0 -122 -45v-386q52 -14 100 -14q60 0 95 36t35 135v131q0 70 -24 106.5t-84 36.5z" />
    <glyph glyph-name="glyph334" horiz-adv-x="2860" 
d="M92 0v1036h765v-279h-400v-139h385v-252h-385v-366h-365zM992 0v1036h765v-279h-401v-139h385v-252h-385v-366h-364zM2369 0h-478v1036h450q219 0 330 -74.5t111 -214.5q0 -78 -42 -130.5t-110 -80.5q86 -32 139.5 -93t53.5 -144q0 -299 -454 -299zM2466 330
q0 43 -33.5 71.5t-88.5 28.5h-103v-200h105q56 0 88 28t32 72zM2348 616q50 0 76.5 28t26.5 68t-27.5 67t-78.5 27h-104v-190h107z" />
    <glyph glyph-name="glyph335" horiz-adv-x="2406" 
d="M17 717v279h112v82q0 172 94 269t278 97q105 0 207 -23l-47 -274q-70 7 -79 7q-96 0 -96 -98v-60h246v65q0 188 117 295.5t355 107.5q113 0 229 -28q25 0 128.5 -2t157.5 1v-520q157 101 306 101q142 0 218 -76.5t76 -220.5v-719h-370v603q0 91 -89 91q-63 0 -133 -48
v-646h-370v1147q-85 18 -138 18q-64 0 -95.5 -29t-31.5 -94v-46h160v-279h-150v-717h-370v717h-233v-717h-370v717h-112z" />
    <glyph glyph-name="glyph336" horiz-adv-x="2965" 
d="M92 0v1036h765v-279h-400v-139h385v-252h-385v-366h-365zM992 0v1036h765v-279h-401v-139h385v-252h-385v-366h-364zM2873 0h-371v379h-241v-379h-370v1036h370v-377h241v377h371v-1036z" />
    <glyph glyph-name="glyph337" horiz-adv-x="2380" 
d="M17 717v279h112v82q0 172 94 269t278 97q105 0 207 -23l-47 -274q-70 7 -79 7q-96 0 -96 -98v-60h246v65q0 188 117 295.5t355 107.5q88 0 170 -22q73 3 193.5 -2t157.5 -3v-781h76l141 339h407l-242 -493l255 -502h-406l-157 367h-74v-367h-370v1147q-72 18 -136 18
t-95.5 -29t-31.5 -94v-46h160v-279h-150v-717h-370v717h-233v-717h-370v717h-112z" />
    <glyph glyph-name="glyph338" horiz-adv-x="2917" 
d="M92 0v1036h765v-279h-400v-139h385v-252h-385v-366h-365zM992 0v1036h765v-279h-401v-139h385v-252h-385v-366h-364zM2483 1036h403l-237 -520l251 -516h-404l-155 367h-76v-367h-374v1036h374v-371h75z" />
    <glyph glyph-name="uniFB04.sc" horiz-adv-x="2659" 
d="M92 0v1036h765v-279h-400v-139h385v-252h-385v-366h-365zM992 0v1036h765v-279h-401v-139h385v-252h-385v-366h-364zM2261 1036v-756h371v-280h-741v1036h370z" />
    <glyph glyph-name="glyph341" horiz-adv-x="1934" 
d="M17 717v279h112v82q0 171 94 268.5t278 97.5q105 0 207 -23l-47 -274q-70 7 -79 7q-96 0 -96 -98v-60h246v81q0 180 100.5 283.5t284.5 103.5q98 0 203 -23l-48 -274q-52 7 -86 7q-97 0 -97 -112v-66h242l38 278h323v-278h183v-279h-175v-352q0 -95 82 -95q14 0 109 10
l18 -272q-99 -28 -239 -28q-155 0 -237.5 62.5t-96.5 194.5q-4 48 -6.5 120.5t-1 197.5t1.5 162h-228v-717h-370v717h-233v-717h-370v717h-112z" />
    <glyph glyph-name="glyph342" horiz-adv-x="2716" 
d="M92 0v1036h765v-279h-400v-139h385v-252h-385v-366h-365zM992 0v1036h765v-279h-401v-139h385v-252h-385v-366h-364zM2071 0v757h-252v279h876v-279h-252v-757h-372z" />
    <glyph glyph-name="glyph343" horiz-adv-x="1803" 
d="M17 717v279h112v65q0 91 24.5 156t68 116.5t136.5 91t243 39.5q113 0 229 -28q24 0 128 -2t158 1v-520q157 101 306 101q142 0 218 -76.5t76 -220.5v-719h-370v603q0 91 -89 91q-64 0 -133 -48v-646h-370v1147q-85 18 -138 18q-64 0 -95.5 -29t-31.5 -94v-46h159v-279
h-149v-717h-370v717h-112z" />
    <glyph glyph-name="glyph344" horiz-adv-x="2066" 
d="M92 0v1036h765v-279h-400v-139h385v-252h-385v-366h-365zM1974 0h-371v379h-241v-379h-370v1036h370v-377h241v377h371v-1036z" />
    <glyph glyph-name="glyph345" horiz-adv-x="1777" 
d="M489 1042v-47h159v-279h-149v-716h-370v716h-112v279h112v66q0 91 24.5 156t68 116.5t136.5 91t243 39.5q118 0 224 -27q38 0 115.5 -1t116 -0.5t65.5 1.5v-781h76l141 340h407l-243 -494l255 -502h-406l-156 367h-74v-367h-370v1147q-74 18 -136 18q-64 0 -95.5 -29
t-31.5 -94z" />
    <glyph glyph-name="glyph346" horiz-adv-x="2017" 
d="M92 0v1036h765v-279h-400v-139h385v-252h-385v-366h-365zM1584 1036h403l-238 -520l251 -516h-403l-155 367h-76v-367h-374v1036h374v-371h75z" />
    <glyph glyph-name="uniFB02.sc" horiz-adv-x="1760" 
d="M92 0v1036h765v-279h-400v-139h385v-252h-385v-366h-365zM1362 1036v-756h371v-280h-741v1036h370z" />
    <glyph glyph-name="glyph349" horiz-adv-x="1331" 
d="M17 717v279h112v81q0 180 100.5 283.5t284.5 103.5q100 0 202 -23l-47 -274q-52 7 -87 7q-96 0 -96 -112v-66h242l38 278h323v-278h183v-279h-175v-352q0 -38 15 -66.5t66 -28.5q15 0 110 10l18 -272q-58 -17 -158 -24q-62 -4 -112 -1q-141 7 -215 69t-88 185
q-4 48 -6.5 120.5t-1 197.5t1.5 162h-228v-717h-370v717h-112z" />
    <glyph glyph-name="glyph350" horiz-adv-x="1816" 
d="M92 0v1036h765v-279h-400v-139h385v-252h-385v-366h-365zM1172 0v757h-253v279h877v-279h-252v-757h-372z" />
    <glyph glyph-name="glyph351" horiz-adv-x="1973" 
d="M17 717v279h112v81q0 180 100.5 283.5t284.5 103.5q107 0 206 -27l-51 -270q-52 7 -87 7q-96 0 -96 -112v-66h242l38 261h323v-261h290l18 278h334v-278h183v-279h-175v-352q0 -95 81 -95q15 0 110 10l18 -272q-99 -28 -239 -28q-158 0 -240.5 65.5t-95.5 202.5
q-1 20 -4 84t-1.5 207.5t1.5 177.5h-272v-366q0 -32 15 -56.5t66 -24.5q17 0 97 10l18 -272q-99 -28 -227 -28q-157 0 -239.5 65.5t-95.5 202.5q-1 20 -4 84t-1.5 207.5t1.5 177.5h-228v-717h-370v717h-112z" />
    <glyph glyph-name="glyph352" horiz-adv-x="2734" 
d="M92 0v1036h765v-279h-400v-139h385v-252h-385v-366h-365zM1172 0v757h-253v279h877v-279h-252v-757h-372zM2089 0v757h-252v279h877v-279h-253v-757h-372z" />
    <glyph glyph-name="five.tnum" 
d="M1062 411q0 -431 -556 -431q-192 0 -368 38l28 314q50 -9 141 -18t161 -9q112 0 171.5 27t59.5 96q0 61 -66 97.5t-206 40.5q-154 2 -267 -7l30 795h804v-319h-515l-9 -196q85 0 147 -5q150 -12 247.5 -67.5t147.5 -143.5t50 -212z" />
    <glyph glyph-name="uniF735.tnum" 
d="M1062 260q0 -431 -556 -431q-192 0 -368 38l28 314q50 -9 141 -18t161 -9q112 0 171.5 27t59.5 96q0 61 -66 97.5t-206 40.5q-154 2 -267 -7l30 795h804v-319h-515l-9 -196q85 0 147 -5q150 -12 247.5 -67.5t147.5 -143.5t50 -212z" />
    <glyph glyph-name="florin.tnum" 
d="M242 538v280h177l45 242q58 312 427 312q127 0 216 -25l-59 -273q-67 10 -108 10q-55 0 -84.5 -27t-40.5 -91l-26 -148h181v-280h-231l-126 -695q-56 -309 -425 -309q-50 0 -112 6.5t-103 18.5l65 273q60 -10 99 -10q54 0 85 26.5t42 88.5l105 601h-127z" />
    <glyph glyph-name="florin.aalt" horiz-adv-x="1078" 
d="M208 582v279h168l48 251q58 304 432 304q112 0 209 -25l-62 -273q-63 10 -106 10q-54 0 -83 -27.5t-40 -91.5l-26 -148h173v-279h-223l-76 -430q-33 -189 -141.5 -280.5t-308.5 -91.5q-126 0 -212 25l68 273q63 -10 100 -10q55 0 87 28.5t43 90.5l69 395h-119z" />
    <glyph glyph-name="florin.aalt.tnum" 
d="M259 582v279h168l48 251q58 304 432 304q112 0 209 -25l-62 -273q-63 10 -106 10q-54 0 -83 -27.5t-40 -91.5l-26 -148h173v-279h-223l-76 -430q-33 -189 -141.5 -280.5t-308.5 -91.5q-126 0 -212 25l68 273q63 -10 100 -10q55 0 87 28.5t43 90.5l69 395h-119z" />
    <glyph glyph-name="glyph361" horiz-adv-x="2301" 
d="M200 945v71h295v-71h-112v-302h-80v302h-103zM449 643v253h81v-253h-81zM594 547v349h65l9 -24l8 7q6 7 23 14.5t35 7.5q48 0 75.5 -35.5t27.5 -93.5q0 -59 -33 -96t-88 -37q-23 0 -40 10v-102h-82zM676 826v-117q9 -9 30 -9q23 0 35.5 19t12.5 50t-12 50t-34 19
q-20 0 -32 -12zM1002 901q62 0 95 -36.5t33 -92.5q0 -61 -35 -97t-96 -36q-57 0 -91 35.5t-34 92.5q0 58 33.5 96t94.5 38zM1001 843q-45 0 -45 -71q0 -75 46 -75q45 0 45 72q0 74 -46 74zM1593 547v349h66l8 -24l7 7q7 7 24.5 14.5t35.5 7.5q47 0 75 -35.5t28 -93.5
q0 -59 -33.5 -96t-87.5 -37q-24 0 -42 10v-102h-81zM1674 826v-117q16 -9 33 -9q16 0 31 15t15 54q0 69 -46 69q-19 0 -33 -12zM1078 945v71h283v-71h-101v-302h-81v302h-101zM1386 659l-89 237h89l51 -173h3l41 173h88l-80 -257q-19 -54 -48.5 -78t-77.5 -24q-31 0 -60 13
l9 59q30 -6 46 -6q31 0 37 29zM2093 754h-139q4 -49 55 -49q37 0 69 13l17 -58q-39 -21 -95 -21q-58 0 -93 35.5t-35 92.5q0 58 33.5 96t94.5 38q46 0 73.5 -26.5t27.5 -68.5q0 -33 -8 -52zM1954 797h70q4 20 -4.5 33t-25.5 13q-35 0 -40 -46zM321 426h9l38 -102l37 106h12
l-43 -119h-12l-37 101l-38 -101h-10l-43 119h12l37 -106zM508 426h10l39 -102l35 106h12l-42 -119h-11l-38 101l-36 -101h-11l-43 119h10l38 -106zM697 426h9l38 -102l38 106h11l-43 -119h-12l-37 101l-37 -101h-10l-44 119h12l37 -106zM806 326q6 0 6 -8q0 -10 -8 -10
q-7 0 -7 9t9 9zM831 423v7h91v-7h-39v-112h-11v112h-41zM945 311v119h11v-119h-11zM1006 311h-10v119h36q43 0 43 -35q0 -12 -9.5 -24t-34.5 -12h-25v-48zM1031 423h-25v-56h26q14 0 23 7.5t9 19.5q0 29 -33 29zM1091 370q0 27 17 45t43 18t42 -18t16 -45t-16.5 -44.5
t-43.5 -17.5q-24 0 -41 18t-17 44zM1198 369q0 25 -13.5 39.5t-35.5 14.5q-20 0 -33 -14t-13 -38t13 -38.5t35 -14.5q20 0 33.5 13.5t13.5 37.5zM1218 423v7h91v-7h-40v-112h-10v112h-41zM1360 311v46l-45 73h11l40 -65l40 65h11l-46 -73v-46h-11zM1450 311h-10v119h37
q42 0 42 -35q0 -12 -9.5 -24t-33.5 -12h-26v-48zM1476 423h-26v-56h27q31 0 31 27q0 29 -32 29zM1616 430v-7h-61v-48h59v-9h-59v-47h63v-8h-73v119h71zM1655 326q8 0 8 -8q0 -10 -8 -10t-8 9t8 9zM1751 433l27 -6l-3 -7l-25 3q-22 0 -35.5 -13.5t-13.5 -38.5
q0 -24 14 -38.5t40 -14.5l25 4l3 -8l-30 -6q-28 0 -46 18t-18 44q0 28 17 45.5t45 17.5zM1800 370q0 28 16 45.5t43 17.5q25 0 42 -18t17 -45q0 -26 -17 -44t-43 -18q-25 0 -41.5 18t-16.5 44zM1906 369q0 25 -13.5 39.5t-34.5 14.5t-34.5 -14t-13.5 -38t13.5 -38.5
t35.5 -14.5q20 0 33.5 13.5t13.5 37.5zM1948 311v119h15l50 -90l48 90h16v-119h-11v108l-49 -91h-8l-50 91v-108h-11z" />
    <glyph glyph-name="four.tnum" 
d="M665 1354h306v-828h155v-280h-155v-246h-333v246h-547v277zM439 526h206v303z" />
    <glyph glyph-name="uniF734.tnum" 
d="M665 1203h306v-828h155v-280h-155v-246h-333v246h-547v276zM439 375h206v303z" />
    <glyph glyph-name="uni2074.aalt" horiz-adv-x="694" 
d="M30 597v172l290 426v1h264v-409h83v-190h-83v-104h-254v104h-300zM260 782h86v125z" />
    <glyph glyph-name="fraction.aalt" horiz-adv-x="955" 
d="M50 680h855v-164h-855v164z" />
    <glyph glyph-name="franc.tnum" 
d="M197 0v189h-125v167h125v998h890v-311h-504v-212h484v-305h-484v-170h203v-167h-203v-189h-386z" />
    <glyph glyph-name="franc.aalt" horiz-adv-x="1137" 
d="M203 0v150h-113v167h113v879h831v-293h-457v-173h439v-288h-439v-125h196v-167h-196v-150h-374z" />
    <glyph glyph-name="franc.aalt.tnum" 
d="M225 0v150h-114v167h114v879h831v-293h-458v-173h439v-288h-439v-125h197v-167h-197v-150h-373z" />
    <glyph glyph-name="g.salt" horiz-adv-x="1060" 
d="M56 599v92q0 54 21 110.5t71.5 104t129 79t179.5 31.5q69 0 123 -26t86.5 -90.5t25.5 -171.5q20 60 18 142t-23 146l295 -21q22 -238 -14.5 -398t-151.5 -241t-310 -81q-50 0 -97 6q-31 -31 -31 -58q0 -41 62 -41h256q123 0 209 -45t130.5 -119.5t44.5 -177.5
q0 -104 -53.5 -174t-154.5 -108.5t-249 -38.5h-186q-189 0 -292 65t-103 185q0 61 40 115.5t114 93.5q-93 60 -93 157q0 57 35.5 109.5t88.5 86.5q-82 42 -126.5 110.5t-44.5 157.5zM407 704v-75q0 -135 101 -135q48 0 73 34.5t25 100.5v35q0 136 -98 136q-48 0 -74.5 -28
t-26.5 -68zM672 -78h-238l-43 1q-47 -31 -47 -75q0 -41 31.5 -59.5t116.5 -18.5h104q95 0 134.5 15t39.5 59q0 40 -27 59t-71 19z" />
    <glyph glyph-name="g.sc" horiz-adv-x="981" 
d="M917 542v-505q-74 -24 -182 -40.5t-217 -16.5q-186 0 -309 86.5t-145 245.5q-7 50 -7 115v216q0 77 24.5 150t83.5 131t158.5 95.5t244.5 37.5q73 0 163.5 -14t156.5 -39l-47 -274q-125 36 -236 36q-91 0 -143.5 -38.5t-52.5 -108.5v-207q0 -70 34.5 -106.5t99.5 -36.5
q32 0 69 7v266h305z" />
    <glyph glyph-name="gbreve.sc" horiz-adv-x="981" 
d="M917 542v-505q-74 -24 -182 -40.5t-217 -16.5q-186 0 -309 86.5t-145 245.5q-7 50 -7 115v216q0 77 24.5 150t83.5 131t158.5 95.5t244.5 37.5q73 0 163.5 -14t156.5 -39l-47 -274q-125 36 -236 36q-91 0 -143.5 -38.5t-52.5 -108.5v-207q0 -70 34.5 -106.5t99.5 -36.5
q32 0 69 7v266h305zM162 1457h277q2 -99 75 -99q71 0 75 99h276q0 -158 -92 -250.5t-259 -92.5q-168 0 -260 92.5t-92 250.5z" />
    <glyph glyph-name="gcaron.sc" horiz-adv-x="981" 
d="M917 542v-505q-74 -24 -182 -40.5t-217 -16.5q-186 0 -309 86.5t-145 245.5q-7 50 -7 115v216q0 77 24.5 150t83.5 131t158.5 95.5t244.5 37.5q73 0 163.5 -14t156.5 -39l-47 -274q-125 36 -236 36q-91 0 -143.5 -38.5t-52.5 -108.5v-207q0 -70 34.5 -106.5t99.5 -36.5
q32 0 69 7v266h305zM895 1483l-178 -364h-387l-178 364l301 6l71 -194l70 194z" />
    <glyph glyph-name="gcircumflex.sc" horiz-adv-x="981" 
d="M917 542v-505q-74 -24 -182 -40.5t-217 -16.5q-186 0 -309 86.5t-145 245.5q-7 50 -7 115v216q0 77 24.5 150t83.5 131t158.5 95.5t244.5 37.5q73 0 163.5 -14t156.5 -39l-47 -274q-125 36 -236 36q-91 0 -143.5 -38.5t-52.5 -108.5v-207q0 -70 34.5 -106.5t99.5 -36.5
q32 0 69 7v266h305zM162 1123l161 363h391l161 -363l-292 -7l-64 181l-64 -181z" />
    <glyph glyph-name="gcommaaccent.sc" horiz-adv-x="981" 
d="M917 542v-505q-74 -24 -182 -40.5t-217 -16.5q-186 0 -309 86.5t-145 245.5q-7 50 -7 115v216q0 77 24.5 150t83.5 131t158.5 95.5t244.5 37.5q73 0 163.5 -14t156.5 -39l-47 -274q-125 36 -236 36q-91 0 -143.5 -38.5t-52.5 -108.5v-207q0 -70 34.5 -106.5t99.5 -36.5
q32 0 69 7v266h305zM388 -86h310l-10 -80q-11 -101 -51 -199.5t-89 -161.5h-225q27 81 46 179t19 181v81z" />
    <glyph glyph-name="gdotaccent.sc" horiz-adv-x="981" 
d="M917 542v-505q-74 -24 -182 -40.5t-217 -16.5q-186 0 -309 86.5t-145 245.5q-7 50 -7 115v216q0 77 24.5 150t83.5 131t158.5 95.5t244.5 37.5q73 0 163.5 -14t156.5 -39l-47 -274q-125 36 -236 36q-91 0 -143.5 -38.5t-52.5 -108.5v-207q0 -70 34.5 -106.5t99.5 -36.5
q32 0 69 7v266h305zM333 1291q0 167 187 167q188 0 188 -167t-188 -167q-187 0 -187 167z" />
    <glyph glyph-name="germandbls.sc" horiz-adv-x="1802" 
d="M867 300q0 -320 -437 -320q-86 0 -195.5 12.5t-181.5 38.5l40 257q48 -15 131 -29t153 -14q65 0 99 13t34 52q0 22 -19 40.5t-109.5 41t-115.5 29.5q-106 28 -160 98t-54 205q0 152 108.5 242t310.5 90q159 0 349 -38l-32 -262q-159 35 -258 35q-122 0 -122 -68
q0 -16 8.5 -30.5t32.5 -26.5t90 -29t76 -20q133 -34 192.5 -107t59.5 -210zM1768 300q0 -320 -438 -320q-86 0 -195 12.5t-181 38.5l39 257q48 -15 131.5 -29t152.5 -14q66 0 100 13t34 52q0 22 -19 40.5t-108.5 41t-116.5 29.5q-106 28 -160 98t-54 205q0 152 108.5 242
t310.5 90q159 0 349 -38l-33 -262q-156 35 -257 35q-122 0 -122 -68q0 -16 8.5 -30.5t32.5 -26.5t90 -29t76 -20q133 -34 192.5 -107t59.5 -210z" />
    <glyph glyph-name="glyph390" horiz-adv-x="655" 
d="M592 1136l-254 -32l-284 326l370 72z" />
    <glyph glyph-name="greater.tnum" 
d="M472 145l-238 210l350 322l-350 322l238 210l561 -532z" />
    <glyph glyph-name="greater.aalt" horiz-adv-x="1033" 
d="M354 65l-237 210l349 322l-349 323l237 210l562 -533z" />
    <glyph glyph-name="greater.aalt.tnum" 
d="M472 65l-238 210l350 322l-350 323l238 210l561 -533z" />
    <glyph glyph-name="greaterequal.tnum" 
d="M234 174h762v-170h-762v170zM472 282l-238 210l350 322l-350 323l238 210l561 -533z" />
    <glyph glyph-name="greaterequal.aalt" horiz-adv-x="1033" 
d="M117 103h762v-170h-762v170zM354 211l-237 210l349 323l-349 322l237 210l562 -532z" />
    <glyph glyph-name="greaterequal.aalt.tnum" 
d="M234 103h762v-170h-762v170zM472 211l-238 210l350 323l-350 322l238 210l561 -532z" />
    <glyph glyph-name="h.sc" horiz-adv-x="1167" 
d="M1075 0h-371v379h-241v-379h-371v1036h371v-377h241v377h371v-1036z" />
    <glyph glyph-name="hbar.sc" horiz-adv-x="1207" 
d="M2 762v160h110v114h371v-114h241v114h371v-114h110v-160h-110v-762h-371v379h-241v-379h-371v762h-110zM483 659h241v103h-241v-103z" />
    <glyph glyph-name="hcircumflex.sc" horiz-adv-x="1167" 
d="M1075 0h-371v379h-241v-379h-371v1036h371v-377h241v377h371v-1036zM226 1123l162 363h390l162 -363l-293 -7l-64 181l-64 -181z" />
    <glyph glyph-name="glyph412" horiz-adv-x="968" 
d="M304 1108l-245 17l63 390l326 -41zM681 1108l-251 18l135 384l349 -53z" />
    <glyph glyph-name="i.aalt" horiz-adv-x="551" 
d="M90 996h370v-996h-370v996zM75 1277q0 181 194 181t194 -181q0 -180 -194 -180t-194 180z" />
    <glyph glyph-name="i.sc" horiz-adv-x="555" 
d="M463 1036v-1036h-371v1036h371z" />
    <glyph glyph-name="iacute.sc" horiz-adv-x="555" 
d="M463 1036v-1036h-371v1036h371zM369 1104l-261 32l170 366l370 -72z" />
    <glyph glyph-name="ibreve.sc" horiz-adv-x="555" 
d="M463 1036v-1036h-371v1036h371zM-74 1457h277q4 -99 75 -99t75 99h276q0 -158 -91.5 -250.5t-259.5 -92.5t-260 92.5t-92 250.5z" />
    <glyph glyph-name="icircumflex.sc" horiz-adv-x="555" 
d="M463 1036v-1036h-371v1036h371zM-79 1123l162 363h390l162 -363l-293 -7l-64 181l-64 -181z" />
    <glyph glyph-name="idieresis.sc" horiz-adv-x="555" 
d="M463 1036v-1036h-371v1036h371zM-131 1291q0 167 187 167q188 0 188 -167t-188 -167q-187 0 -187 167zM312 1291q0 167 188 167q187 0 187 -167t-187 -167q-188 0 -188 167z" />
    <glyph glyph-name="i.aalt.sc" horiz-adv-x="555" 
d="M463 1036v-1036h-371v1036h371zM90 1291q0 167 187 167q188 0 188 -167t-188 -167q-187 0 -187 167z" />
    <glyph glyph-name="uni1ECB.sc" horiz-adv-x="555" 
d="M463 1036v-1036h-371v1036h371zM83 -301q0 180 194 180t194 -180t-194 -180t-194 180z" />
    <glyph glyph-name="igrave.sc" horiz-adv-x="555" 
d="M463 1036v-1036h-371v1036h371zM458 1136l-253 -32l-285 326l370 72z" />
    <glyph glyph-name="ij.sc" horiz-adv-x="1111" 
d="M463 1036v-1036h-371v1036h371zM648 1036h371v-1023q0 -148 -88 -256.5t-283 -187.5l-158 218q84 54 121 108t37 134v1007z" />
    <glyph glyph-name="glyph432" horiz-adv-x="1118" 
d="M651 996h370v-974q0 -158 -90 -274.5t-309 -215.5l-159 233q62 41 100.5 77t63 88t24.5 121v945zM97 996h370v-996h-370v996zM358 1071l-247 32l184 399l370 -71zM913 1071l-247 32l184 399l370 -71z" />
    <glyph glyph-name="glyph433" horiz-adv-x="1111" 
d="M648 1036h371v-1023q0 -148 -88 -256.5t-283 -187.5l-158 218q84 54 121 108t37 134v1007zM463 1036v-1036h-371v1036h371zM369 1104l-261 32l170 366l370 -72zM924 1104l-260 32l169 366l370 -72z" />
    <glyph glyph-name="imacron.sc" horiz-adv-x="555" 
d="M463 1036v-1036h-371v1036h371zM-53 1136v280h662v-280h-662z" />
    <glyph glyph-name="iogonek.sc" horiz-adv-x="555" 
d="M463 1036v-1036q-145 -103 -145 -196q0 -23 15 -44t54 -21q50 0 83 10l14 -201q-56 -16 -136 -16q-134 0 -209.5 50t-75.5 155q0 151 214 263h-185v1036h371z" />
    <glyph glyph-name="itilde.sc" horiz-adv-x="555" 
d="M463 1036v-1036h-371v1036h371zM169 1450q48 0 120 -21.5t108 -21.5q58 0 118 55l140 -121q-15 -46 -51 -98t-94 -83.5t-123 -31.5q-48 0 -120.5 21.5t-108.5 21.5q-59 0 -117 -55l-140 121q15 46 51 98t94 83.5t123 31.5z" />
    <glyph glyph-name="j.sc" horiz-adv-x="556" 
d="M92 1036h371v-1023q0 -148 -87.5 -257t-282.5 -187l-158 218q83 54 120 108t37 134v1007z" />
    <glyph glyph-name="jcircumflex.sc" horiz-adv-x="556" 
d="M92 1036h371v-1023q0 -148 -87.5 -257t-282.5 -187l-158 218q83 54 120 108t37 134v1007zM-72 1123l162 363h390l162 -363l-293 -7l-64 181l-64 -181z" />
    <glyph glyph-name="k.sc" horiz-adv-x="1118" 
d="M685 1036h403l-238 -520l251 -516h-403l-155 367h-76v-367h-375v1036h375v-371h75z" />
    <glyph glyph-name="kcommaaccent.sc" horiz-adv-x="1118" 
d="M685 1036h403l-238 -520l251 -516h-403l-155 367h-76v-367h-375v1036h375v-371h75zM423 -86h310l-7 -70q-11 -103 -52 -204.5t-91 -166.5h-224q27 80 45.5 178t18.5 182v81z" />
    <glyph glyph-name="kgreenlandic.sc" horiz-adv-x="1118" 
d="M685 1036h403l-238 -520l251 -516h-403l-155 367h-76v-367h-375v1036h375v-371h75z" />
    <glyph glyph-name="l.sc" horiz-adv-x="861" 
d="M463 1036v-756h371v-280h-742v1036h371z" />
    <glyph glyph-name="lacute.sc" horiz-adv-x="861" 
d="M463 1036v-756h371v-280h-742v1036h371zM355 1104l-260 32l169 366l371 -72z" />
    <glyph glyph-name="lcaron.sc" horiz-adv-x="908" 
d="M580 1133h293l-20 -544h-253zM463 1036v-756h371v-280h-742v1036h371z" />
    <glyph glyph-name="lcommaaccent.sc" horiz-adv-x="861" 
d="M463 1036v-756h371v-280h-742v1036h371zM302 -86h309l-9 -80q-12 -101 -52 -199.5t-89 -161.5h-224q27 81 46 179t19 181v81z" />
    <glyph glyph-name="ldot.sc" horiz-adv-x="946" 
d="M463 1036v-756h371v-280h-742v1036h371zM556 592q0 167 187 167q188 0 188 -167t-188 -167q-187 0 -187 167z" />
    <glyph glyph-name="less.tnum" 
d="M728 1209l238 -210l-350 -322l350 -322l-238 -210l-561 532z" />
    <glyph glyph-name="less.aalt" horiz-adv-x="1033" 
d="M678 1130l238 -210l-350 -322l350 -322l-238 -210l-561 532z" />
    <glyph glyph-name="less.aalt.tnum" 
d="M728 1130l238 -210l-350 -322l350 -322l-238 -210l-561 532z" />
    <glyph glyph-name="lessequal.tnum" 
d="M204 174h762v-170h-762v170zM728 1347l238 -210l-350 -323l350 -322l-238 -210l-561 532z" />
    <glyph glyph-name="lessequal.aalt" horiz-adv-x="1033" 
d="M154 103h762v-170h-762v170zM678 1276l238 -210l-350 -322l350 -323l-238 -210l-561 533z" />
    <glyph glyph-name="lessequal.aalt.tnum" 
d="M204 103h762v-170h-762v170zM728 1276l238 -210l-350 -322l350 -323l-238 -210l-561 533z" />
    <glyph glyph-name="lira.tnum" horiz-adv-x="1194" 
d="M139 290q133 0 137 138v49h-117v160h788v-160h-290v-55q-4 -82 -61 -132h482v-310h-939v310zM159 875h118v67q0 213 131 322.5t362 109.5q145 0 291 -30l-25 -314q-113 21 -212 21q-80 0 -123 -38.5t-43 -111.5v-26h289v-160h-788v160z" />
    <glyph glyph-name="lira.aalt" horiz-adv-x="1134" 
d="M144 565h748v-152h-266v-44q-6 -54 -37 -92h423v-297h-886v297h14q101 2 110 95v41h-106v152zM144 783h108v45q0 191 122.5 289.5t338.5 98.5q144 0 284 -32l-25 -291q-106 15 -137 17.5t-60 2.5q-137 0 -145 -130h262v-152h-748v152z" />
    <glyph glyph-name="lira.aalt.tnum" 
d="M185 565h749v-152h-267v-44q-6 -56 -36 -92h422v-297h-886v297h15q100 2 109 95v41h-106v152zM185 783h108v45q0 191 122.5 289.5t338.5 98.5q141 0 285 -32l-25 -291q-129 18 -157.5 19t-40.5 1q-137 0 -145 -130h263v-152h-749v152z" />
    <glyph glyph-name="logicalnot.tnum" 
d="M705 267v257h-560v306h908v-563h-348z" />
    <glyph glyph-name="logicalnot.aalt" horiz-adv-x="1142" 
d="M676 187v258h-559v306h908v-564h-349z" />
    <glyph glyph-name="logicalnot.aalt.tnum" 
d="M705 187v258h-560v306h908v-564h-348z" />
    <glyph glyph-name="lslash.sc" horiz-adv-x="901" 
d="M503 1036v-272l147 70l72 -150l-219 -104v-300h371v-280h-742v403l-77 -36l-71 150l148 71v448h371z" />
    <glyph glyph-name="m.sc" horiz-adv-x="1349" 
d="M908 0v540l-148 -389h-174l-146 389v-540h-348v1036h414l168 -507l168 507h414v-1036h-348z" />
    <glyph glyph-name="glyph481" horiz-adv-x="783" 
d="M60 1136v280h663v-280h-663z" />
    <glyph glyph-name="minus.tnum" 
d="M205 830h788v-306h-788v306z" />
    <glyph glyph-name="minus.aalt" horiz-adv-x="1022" 
d="M117 750h788v-306h-788v306z" />
    <glyph glyph-name="minus.aalt.tnum" 
d="M205 750h788v-306h-788v306z" />
    <glyph glyph-name="uni00B5.tnum" 
d="M1086 0h-321l-15 95q-111 -86 -253 -86q-6 -155 -95 -267t-304 -210l-159 233q62 41 100.5 77t63 88t24.5 121v945h371v-604q0 -89 86 -89q65 0 132 47v646h370v-996z" />
    <glyph glyph-name="uni00B5.aalt" horiz-adv-x="1143" 
d="M1046 0h-321l-15 95q-111 -86 -253 -86q-6 -155 -95 -267t-304 -210l-159 233q62 41 100.5 77t63 88t24.5 121v944h370v-603q0 -43 22.5 -66t64.5 -23q65 0 132 47v645h370v-995z" />
    <glyph glyph-name="uni00B5.aalt.tnum" 
d="M1086 0h-321l-15 95q-111 -86 -253 -86q-6 -155 -95 -267t-304 -210l-159 233q62 41 100.5 77t63 88t24.5 121v945h371v-604q0 -89 86 -89q65 0 132 47v646h370v-996z" />
    <glyph glyph-name="multiply.tnum" 
d="M810 1124l237 -237l-213 -212l208 -207l-233 -234l-208 208l-211 -212l-237 237l211 212l-207 207l234 234l207 -207z" />
    <glyph glyph-name="multiply.aalt" horiz-adv-x="1128" 
d="M774 1045l237 -237l-212 -212l208 -207l-234 -235l-208 208l-211 -211l-237 237l211 211l-207 208l234 234l207 -207z" />
    <glyph glyph-name="multiply.aalt.tnum" 
d="M810 1045l237 -237l-213 -212l208 -207l-233 -235l-208 208l-211 -211l-237 237l211 211l-207 208l234 234l207 -207z" />
    <glyph glyph-name="n.sc" horiz-adv-x="1166" 
d="M721 0l-265 514v-514h-364v1036h354l264 -514v514h364v-1036h-353z" />
    <glyph glyph-name="nacute.sc" horiz-adv-x="1166" 
d="M721 0l-265 514v-514h-364v1036h354l264 -514v514h364v-1036h-353zM645 1104l-261 32l170 366l370 -72z" />
    <glyph glyph-name="napostrophe.sc" horiz-adv-x="1166" 
d="M31 1600h308v-27q0 -112 -41 -221.5t-105 -193.5h-212q18 62 34 167.5t16 204.5v70zM721 0l-265 514v-514h-364v1036h354l264 -514v514h364v-1036h-353z" />
    <glyph glyph-name="ncaron.sc" horiz-adv-x="1166" 
d="M721 0l-265 514v-514h-364v1036h354l264 -514v514h364v-1036h-353zM954 1483l-181 -371h-387l-182 371l301 6l74 -201l74 201z" />
    <glyph glyph-name="ncommaaccent.sc" horiz-adv-x="1166" 
d="M721 0l-265 514v-514h-364v1036h354l264 -514v514h364v-1036h-353zM447 -86h310l-10 -80q-11 -101 -51 -199.5t-89 -161.5h-225q28 79 46.5 177.5t18.5 182.5v81z" />
    <glyph glyph-name="uni0272.sc" horiz-adv-x="1166" 
d="M721 0l-265 514v-358q0 -163 -56 -309q-33 -93 -110 -168.5t-227 -146.5l-159 220q62 43 100.5 80t63 92t24.5 127v985h354l264 -514v514h364v-1036h-353z" />
    <glyph glyph-name="nine.tnum" 
d="M1078 921v-387q0 -69 -8 -139q-24 -202 -165.5 -308.5t-393.5 -106.5q-77 0 -177.5 13t-166.5 34l23 313q139 -40 277 -40q136 0 196 48t66 151v52q-104 -34 -195 -34q-120 0 -218 39.5t-156.5 137t-58.5 257.5q0 202 131 312.5t357 110.5q136 0 247.5 -45t176.5 -148
t65 -260zM596 785q68 0 133 26v124q0 63 -36.5 99.5t-102.5 36.5q-57 0 -98 -32t-41 -101q0 -153 145 -153z" />
    <glyph glyph-name="uniF739.tnum" 
d="M1078 763v-387q0 -69 -8 -139q-24 -202 -165.5 -308.5t-393.5 -106.5q-77 0 -177.5 13t-166.5 34l23 313q139 -40 277 -40q136 0 196 48t66 151v52q-104 -34 -195 -34q-120 0 -218 39.5t-156.5 137t-58.5 257.5q0 202 131 312.5t357 110.5q136 0 247.5 -45t176.5 -148
t65 -260zM596 627q68 0 133 26v124q0 63 -36.5 99.5t-102.5 36.5q-57 0 -98 -32t-41 -101q0 -153 145 -153z" />
    <glyph glyph-name="notequal.tnum" 
d="M202 734v292h468l128 273l147 -65l-98 -208h150v-292h-283l-53 -114h336v-292h-469l-127 -272l-147 65l96 207h-148v292h281l54 114h-335z" />
    <glyph glyph-name="notequal.aalt" horiz-adv-x="1029" 
d="M117 654v293h468l128 273l147 -66l-98 -207h150v-293h-283l-53 -113h336v-293h-470l-126 -271l-148 65l97 206h-148v293h281l54 113h-335z" />
    <glyph glyph-name="notequal.aalt.tnum" 
d="M202 654v293h468l128 273l147 -66l-98 -207h150v-293h-283l-53 -113h336v-293h-469l-127 -271l-147 65l96 206h-148v293h281l54 113h-335z" />
    <glyph glyph-name="ntilde.sc" horiz-adv-x="1166" 
d="M721 0l-265 514v-514h-364v1036h354l264 -514v514h364v-1036h-353zM463 1450q47 0 119.5 -21.5t108.5 -21.5q58 0 118 55l140 -121q-15 -46 -51 -98t-94.5 -83.5t-123.5 -31.5q-48 0 -120 21.5t-108 21.5q-58 0 -118 -55l-140 121q15 47 51 98.5t94 83t124 31.5z" />
    <glyph glyph-name="numbersign.tnum" 
d="M779 1354h278l-41 -300h168l-38 -275h-168l-28 -210h166l-37 -273h-167l-40 -296h-281l41 296h-165l-40 -296h-279l41 296h-173l37 273h172l29 210h-169l37 275h169l41 300h280l-41 -300h166zM533 779l-28 -210h165l29 210h-166z" />
    <glyph glyph-name="numbersign.aalt" horiz-adv-x="1430" 
d="M424 1203h298l-37 -263h159l38 263h296l-37 -263h182l-40 -261h-179l-22 -159h178l-38 -260h-177l-37 -260h-299l37 260h-158l-37 -260h-298l37 260h-183l37 260h183l22 159h-181l38 261h180zM648 679l-23 -159h158l23 159h-158z" />
    <glyph glyph-name="numbersign.aalt.tnum" 
d="M326 1203h285l-38 -263h153l37 263h284l-38 -263h162l-39 -261h-160l-22 -159h158l-37 -260h-158l-36 -260h-287l38 260h-152l-36 -260h-285l37 260h-163l37 260h163l22 159h-161l38 261h160zM537 679l-23 -159h151l23 159h-151z" />
    <glyph glyph-name="o.sc" horiz-adv-x="1111" 
d="M57 394v248q0 202 127.5 308.5t371.5 106.5q243 0 370 -106.5t127 -308.5v-248q0 -201 -127 -307.5t-370 -106.5q-244 0 -371.5 106.5t-127.5 307.5zM434 671v-299q0 -50 31.5 -80.5t90.5 -30.5q57 0 88.5 30.5t31.5 80.5v292q0 49 -31.5 80t-88.5 31q-58 0 -90 -28.5
t-32 -75.5z" />
    <glyph glyph-name="oacute.sc" horiz-adv-x="1111" 
d="M57 394v205q0 74 13 147q26 151 152 231t334 80q243 0 370 -106.5t127 -308.5v-205q0 -82 -13 -147q-26 -152 -151 -231t-333 -79q-244 0 -371.5 106.5t-127.5 307.5zM434 671v-237q0 -88 29 -130.5t93 -42.5q120 0 120 142v199q0 173 -120 173q-58 0 -90 -28.5
t-32 -75.5zM620 1104l-261 32l169 366l371 -72z" />
    <glyph glyph-name="obreve.sc" horiz-adv-x="1111" 
d="M57 394v248q0 202 127.5 308.5t371.5 106.5q243 0 370 -106.5t127 -308.5v-248q0 -201 -127 -307.5t-370 -106.5q-244 0 -371.5 106.5t-127.5 307.5zM434 671v-299q0 -50 31.5 -80.5t90.5 -30.5q57 0 88.5 30.5t31.5 80.5v292q0 49 -31.5 80t-88.5 31q-58 0 -90 -28.5
t-32 -75.5zM203 1457h277q2 -99 75 -99q71 0 75 99h276q0 -158 -92 -250.5t-259 -92.5q-168 0 -260 92.5t-92 250.5z" />
    <glyph glyph-name="ocircumflex.sc" horiz-adv-x="1111" 
d="M57 394v205q0 74 13 147q26 151 152 231t334 80q243 0 370 -106.5t127 -308.5v-205q0 -82 -13 -147q-26 -152 -151 -231t-333 -79q-244 0 -371.5 106.5t-127.5 307.5zM434 671v-237q0 -88 29 -130.5t93 -42.5q120 0 120 142v199q0 173 -120 173q-58 0 -90 -28.5
t-32 -75.5zM198 1123l161 363h391l161 -363l-292 -7l-64 181l-64 -181z" />
    <glyph glyph-name="odieresis.sc" horiz-adv-x="1111" 
d="M57 394v205q0 74 13 147q26 151 152 231t334 80q243 0 370 -106.5t127 -308.5v-205q0 -82 -13 -147q-26 -152 -151 -231t-333 -79q-244 0 -371.5 106.5t-127.5 307.5zM434 671v-237q0 -88 29 -130.5t93 -42.5q120 0 120 142v199q0 173 -120 173q-58 0 -90 -28.5
t-32 -75.5zM142 1291q0 167 188 167q187 0 187 -167t-187 -167q-188 0 -188 167zM593 1291q0 167 187 167q188 0 188 -167t-188 -167q-187 0 -187 167z" />
    <glyph glyph-name="uni1ECD.sc" horiz-adv-x="1111" 
d="M57 394v205q0 74 13 147q26 151 152 231t334 80q243 0 370 -106.5t127 -308.5v-205q0 -82 -13 -147q-26 -152 -151 -231t-333 -79q-244 0 -371.5 106.5t-127.5 307.5zM434 671v-237q0 -88 29 -130.5t93 -42.5q120 0 120 142v199q0 173 -120 173q-58 0 -90 -28.5
t-32 -75.5zM361 -301q0 180 194 180t194 -180t-194 -180t-194 180z" />
    <glyph glyph-name="oe.sc" horiz-adv-x="1502" 
d="M731 0v51q-88 -71 -218 -71q-198 0 -314.5 87t-135.5 250q-6 57 -6 120v162q0 63 6 120q19 164 136 251t314 87q132 0 218 -72v51h708v-259h-409v-139h393v-238h-393v-141h425v-259h-724zM549 261q73 0 104 53v408q-34 54 -104 54q-115 0 -115 -132v-245q0 -138 115 -138
z" />
    <glyph glyph-name="ograve.sc" horiz-adv-x="1111" 
d="M57 394v205q0 74 13 147q26 151 152 231t334 80q243 0 370 -106.5t127 -308.5v-205q0 -82 -13 -147q-26 -152 -151 -231t-333 -79q-244 0 -371.5 106.5t-127.5 307.5zM434 671v-237q0 -88 29 -130.5t93 -42.5q120 0 120 142v199q0 173 -120 173q-58 0 -90 -28.5
t-32 -75.5zM731 1136l-253 -32l-284 326l370 72z" />
    <glyph glyph-name="ohungarumlaut.sc" horiz-adv-x="1111" 
d="M57 394v205q0 74 13 147q26 151 152 231t334 80q243 0 370 -106.5t127 -308.5v-205q0 -82 -13 -147q-26 -152 -151 -231t-333 -79q-244 0 -371.5 106.5t-127.5 307.5zM434 671v-237q0 -88 29 -130.5t93 -42.5q120 0 120 142v199q0 173 -120 173q-58 0 -90 -28.5
t-32 -75.5zM460 1108l-245 17l64 390l325 -41zM837 1108l-251 18l135 384l350 -53z" />
    <glyph glyph-name="omacron.sc" horiz-adv-x="1111" 
d="M57 394v205q0 74 13 147q26 151 152 231t334 80q243 0 370 -106.5t127 -308.5v-205q0 -82 -13 -147q-26 -152 -151 -231t-333 -79q-244 0 -371.5 106.5t-127.5 307.5zM434 671v-237q0 -88 29 -130.5t93 -42.5q120 0 120 142v199q0 173 -120 173q-58 0 -90 -28.5
t-32 -75.5zM224 1136v280h662v-280h-662z" />
    <glyph glyph-name="one.tnum" 
d="M1095 319v-319h-930v319h301v666l-296 -71l-29 312l431 128h272v-1035h251z" />
    <glyph glyph-name="uniF731.tnum" 
d="M1095 319v-319h-930v319h301v508l-296 -71l-29 311l431 128h272v-876h251z" />
    <glyph glyph-name="onehalf.aalt" horiz-adv-x="955" 
d="M766 1013v-222h-561v222h153v229l-147 -27l-12 218l238 61h193v-481h136zM790 -76v-225h-586v216q157 71 215.5 113t58.5 84q0 21 -21 39.5t-79 18.5q-67 0 -150 -18l-20 233q117 27 240 27q85 0 162 -27.5t118.5 -91t41.5 -146.5q0 -136 -208 -223h228zM50 680h855v-164
h-855v164z" />
    <glyph glyph-name="onequarter.aalt" horiz-adv-x="955" 
d="M157 -195v172l290 426v1h264v-409h83v-190h-83v-104h-254v104h-300zM773 1013v-222h-562v222h154v229l-147 -27l-12 218l238 61h193v-481h136zM50 680h855v-164h-855v164zM387 -10h86v125z" />
    <glyph glyph-name="uni00B9.aalt" horiz-adv-x="615" 
d="M599 715v-222h-562v222h153v229l-147 -27l-12 218l238 61h194v-481h136z" />
    <glyph glyph-name="uni01EB.sc" horiz-adv-x="1111" 
d="M57 394v248q0 202 127.5 308.5t371.5 106.5q243 0 370 -106.5t127 -308.5v-248q0 -158 -78.5 -258t-230.5 -136q-145 -103 -145 -196q0 -23 15 -44t54 -21q50 0 83 10l15 -201q-58 -16 -136 -16q-135 0 -210.5 50t-75.5 155q0 139 179 244q-228 7 -347 112.5t-119 300.5z
M434 671v-299q0 -50 31.5 -80.5t90.5 -30.5q57 0 88.5 30.5t31.5 80.5v292q0 49 -31.5 80t-88.5 31q-58 0 -90 -28.5t-32 -75.5z" />
    <glyph glyph-name="ordfeminine.aalt" horiz-adv-x="770" 
d="M34 697q0 93 70.5 149t199.5 56h105v19q0 70 -100 70q-92 0 -215 -35l-36 205q48 17 128 32.5t163 15.5q170 0 243 -61.5t73 -216.5v-175q0 -49 37 -49l47 5l1 -202q-55 -25 -134 -25q-108 0 -162 75q-92 -75 -202 -75q-101 0 -159.5 52.5t-58.5 159.5zM339 661
q32 0 70 21v83h-71q-55 0 -55 -53q0 -18 11.5 -34.5t44.5 -16.5z" />
    <glyph glyph-name="ordmasculine.aalt" horiz-adv-x="793" 
d="M50 769v157q0 84 42 146t120 99.5t184 37.5t184.5 -37t120.5 -98.5t42 -144.5v-157q0 -85 -42 -147.5t-120.5 -100.5t-184.5 -38t-184 37.5t-120 99.5t-42 146zM309 905v-115q0 -38 24 -60t63 -22t64 23.5t25 62.5v114q0 36 -25 57.5t-64 21.5t-63 -22t-24 -60z" />
    <glyph glyph-name="glyph557" horiz-adv-x="1632" 
d="M799 1359l214 -214l-354 -320l856 5v-306l-856 4l354 -319l-214 -214l-682 682z" />
    <glyph glyph-name="glyph558" horiz-adv-x="1632" 
d="M619 965l214 214l682 -682l-682 -682l-214 214l354 319l-856 -4v306l856 -5z" />
    <glyph glyph-name="glyph559" horiz-adv-x="1599" 
d="M959 -190h-320l15 850l-320 -342l-217 217l682 649l683 -649l-218 -217l-320 342z" />
    <glyph glyph-name="glyph560" horiz-adv-x="1599" 
d="M1264 676l218 -217l-683 -649l-682 649l217 217l320 -343l-15 851h320l-15 -850z" />
    <glyph glyph-name="glyph561" horiz-adv-x="1362" 
d="M117 996h302l-24 -509l633 640l217 -217l-640 -632l508 24v-302h-996v996z" />
    <glyph glyph-name="glyph562" horiz-adv-x="1362" 
d="M117 910l217 217l633 -640l-25 509h303v-996h-996v302l507 -24z" />
    <glyph glyph-name="glyph563" horiz-adv-x="1362" 
d="M419 0h-302v996h996v-302l-508 24l640 -632l-217 -217l-633 640z" />
    <glyph glyph-name="glyph564" horiz-adv-x="1362" 
d="M334 -131l-217 217l639 632l-507 -24v302h996v-996h-303l25 508z" />
    <glyph glyph-name="glyph565" horiz-adv-x="1632" 
d="M619 1145l214 214l682 -682l-682 -682l-214 214l354 319l-856 -4v306l856 -5z" />
    <glyph glyph-name="glyph566" horiz-adv-x="1599" 
d="M959 0h-320l15 850l-320 -342l-217 217l682 649l683 -649l-218 -217l-320 342z" />
    <glyph glyph-name="glyph567" horiz-adv-x="1599" 
d="M1264 860l218 -217l-683 -650l-682 650l217 217l320 -344l-15 851h320l-15 -850z" />
    <glyph glyph-name="glyph568" horiz-adv-x="1362" 
d="M117 996h302l-24 -509l633 640l217 -217l-640 -632l508 24v-302h-996v996z" />
    <glyph glyph-name="glyph569" horiz-adv-x="1362" 
d="M117 910l217 217l633 -640l-25 509h303v-996h-996v302l507 -24z" />
    <glyph glyph-name="glyph570" horiz-adv-x="1362" 
d="M419 358h-302v996h996v-302l-508 24l640 -632l-217 -217l-633 639z" />
    <glyph glyph-name="glyph571" horiz-adv-x="1362" 
d="M334 227l-217 217l639 632l-507 -24v302h996v-996h-303l25 508z" />
    <glyph glyph-name="glyph572" horiz-adv-x="1632" 
d="M1013 29l-214 -214l-682 682l682 682l214 -214l-354 -320l856 5v-306l-856 4z" />
    <glyph glyph-name="oslash.sc" horiz-adv-x="1111" 
d="M157 -247l116 280q-184 82 -210 287q-6 51 -6 106v184l5 99q18 169 145.5 258.5t348.5 89.5q64 0 124 -11l99 239h177l-118 -282q185 -83 209 -287q6 -51 6 -106v-184l-5 -99q-18 -169 -144.5 -258t-347.5 -89q-66 0 -125 9l-98 -236h-176zM434 671v-237q0 -88 29 -130.5
t93 -42.5q120 0 120 142v199q0 173 -120 173q-58 0 -90 -28.5t-32 -75.5z" />
    <glyph glyph-name="oslashacute.sc" horiz-adv-x="1111" 
d="M656 1118l-267 31l145 366l364 -71l-118 -159h175l-123 -280q189 -81 215 -288q6 -51 6 -107v-184l-5 -99q-18 -169 -144.5 -258t-347.5 -89q-68 0 -132 11l-98 -238h-176l116 282q-179 83 -203 286q-6 51 -6 105v184l5 99q18 169 145.5 258.5t348.5 89.5q56 0 118 -10
l101 231zM434 671v-237q0 -88 29 -130.5t93 -42.5q120 0 120 142v199q0 173 -120 173q-58 0 -90 -28.5t-32 -75.5z" />
    <glyph glyph-name="otilde.sc" horiz-adv-x="1111" 
d="M57 394v205q0 74 13 147q26 151 152 231t334 80q243 0 370 -106.5t127 -308.5v-205q0 -82 -13 -147q-26 -152 -151 -231t-333 -79q-244 0 -371.5 106.5t-127.5 307.5zM434 671v-237q0 -88 29 -130.5t93 -42.5q120 0 120 142v199q0 173 -120 173q-58 0 -90 -28.5
t-32 -75.5zM446 1450q48 0 120.5 -21.5t108.5 -21.5q59 0 117 55l141 -121q-15 -47 -51.5 -98.5t-94.5 -83t-123 -31.5q-48 0 -120 21.5t-108 21.5q-58 0 -118 -55l-140 121q15 46 51 98t94 83.5t123 31.5z" />
    <glyph glyph-name="p.sc" horiz-adv-x="1049" 
d="M579 266h-133v-266h-354v1036h424q176 0 280 -35t158.5 -104t54.5 -187v-119q0 -96 -47.5 -167t-142.5 -114.5t-240 -43.5zM546 792h-100v-282h100q109 0 109 121v42q0 119 -109 119z" />
    <glyph glyph-name="paragraph.sc" horiz-adv-x="1291" 
d="M778 1036h371v-1014q0 -158 -90 -274.5t-310 -215.5l-159 233q61 40 100 76t63.5 88.5t24.5 121.5v985zM611 1036h44v-954h-44q-241 0 -372.5 120t-131.5 343v14q0 224 132.5 350.5t371.5 126.5z" />
    <glyph glyph-name="parenleft.sc" horiz-adv-x="745" 
d="M457 517q0 -449 312 -881l-248 -140q-189 184 -312.5 455t-123.5 566t123.5 566.5t312.5 455.5l248 -139q-312 -432 -312 -883z" />
    <glyph glyph-name="parenright.sc" horiz-adv-x="745" 
d="M288 518q0 450 -312 882l249 139q189 -184 312 -455t123 -566q0 -190 -53 -375t-156.5 -356.5t-225.5 -290.5l-249 140q312 432 312 882z" />
    <glyph glyph-name="percent.aalt" horiz-adv-x="1729" 
d="M1128 1216h193l-717 -1216h-194zM60 783v157q0 84 41 146t117.5 99.5t180.5 37.5t181 -37.5t118 -99.5t41 -146v-157q0 -84 -41 -146t-118 -99.5t-181 -37.5t-180.5 37.5t-117.5 99.5t-41 146zM325 925v-127q0 -35 20.5 -55.5t53.5 -20.5t54 20.5t21 55.5v127
q0 35 -21 55.5t-54 20.5t-53.5 -20.5t-20.5 -55.5zM990 272v157q0 84 41 146t117.5 99.5t180.5 37.5t180.5 -37.5t118 -99.5t41.5 -146v-157q0 -84 -41.5 -146t-118 -99.5t-180.5 -37.5t-180.5 37.5t-117.5 99.5t-41 146zM1255 414v-127q0 -35 20 -55.5t54 -20.5
q33 0 54 20.5t21 55.5v127q0 35 -21 55.5t-54 20.5q-34 0 -54 -20.5t-20 -55.5z" />
    <glyph glyph-name="perthousand.aalt" horiz-adv-x="2113" 
d="M990 272v157q0 84 41 146t117.5 99.5t180.5 37.5q119 0 206 -55q87 55 208 55q104 0 180.5 -37.5t118 -99.5t41.5 -146v-157q0 -84 -41.5 -146t-118 -99.5t-180.5 -37.5q-122 0 -208 54q-85 -54 -206 -54q-104 0 -180.5 37.5t-117.5 99.5t-41 146zM60 783v157
q0 84 41 146t117.5 99.5t180.5 37.5t181 -37.5t118 -99.5t41 -146v-157q0 -84 -41 -146t-118 -99.5t-181 -37.5t-180.5 37.5t-117.5 99.5t-41 146zM1128 1216h193l-717 -1216h-194zM1255 414v-127q0 -35 20 -55.5t54 -20.5q32 0 52.5 19t22.5 52v132q0 35 -21 55.5t-54 20.5
q-34 0 -54 -20.5t-20 -55.5zM1669 418v-137q1 -33 21.5 -51.5t52.5 -18.5q33 0 54 20.5t21 55.5v127q0 35 -21 55.5t-54 20.5t-53 -19t-21 -53zM325 925v-127q0 -35 20.5 -55.5t53.5 -20.5t54 20.5t21 55.5v127q0 35 -21 55.5t-54 20.5t-53.5 -20.5t-20.5 -55.5z" />
    <glyph glyph-name="plus.tnum" 
d="M423 1118h353v-288h258v-306h-258v-288h-353v288h-258v306h258v288z" />
    <glyph glyph-name="plus.aalt" horiz-adv-x="1103" 
d="M374 1039h354v-289h258v-306h-258v-287h-354v287h-257v306h257v289z" />
    <glyph glyph-name="plus.aalt.tnum" 
d="M423 1039h353v-289h258v-306h-258v-287h-353v287h-258v306h258v289z" />
    <glyph glyph-name="plusminus.tnum" 
d="M423 1286h353v-262h238v-305h-238v-262h-353v262h-238v305h238v262zM209 344h781v-293h-781v293z" />
    <glyph glyph-name="plusminus.aalt" horiz-adv-x="1062" 
d="M354 1214h354v-262h237v-306h-237v-261h-354v261h-237v306h237v262zM141 271h781v-293h-781v293z" />
    <glyph glyph-name="plusminus.aalt.tnum" 
d="M423 1216h353v-262h238v-306h-238v-261h-353v261h-238v306h238v262zM209 273h781v-292h-781v292z" />
    <glyph glyph-name="q.sc" horiz-adv-x="1111" 
d="M57 394v248q0 202 127.5 308.5t371.5 106.5q243 0 370 -106.5t127 -308.5v-248q0 -159 -80 -259.5t-233 -135.5l169 -249l-316 -55l-103 288q-210 13 -321.5 118.5t-111.5 292.5zM434 671v-299q0 -50 31.5 -80.5t90.5 -30.5q57 0 88.5 30.5t31.5 80.5v292q0 49 -31.5 80
t-88.5 31q-58 0 -90 -28.5t-32 -75.5z" />
    <glyph glyph-name="question.sc" horiz-adv-x="730" 
d="M452 433h-289q-14 31 -3 95q2 21 15 54.5t67 96.5t68 91.5t14 54.5q0 89 -122 89q-40 0 -88.5 -8.5t-80.5 -21.5l-36 285q141 47 299 47q196 0 306.5 -85.5t110.5 -238.5q0 -52 -14 -92t-37.5 -78.5t-125.5 -140.5q-41 -42 -61 -75t-23 -73zM116 160q0 180 194 180
t194 -180t-194 -180t-194 180z" />
    <glyph glyph-name="questiondown.sc" horiz-adv-x="730" 
d="M278 603h289q6 -13 7.5 -39.5t-4.5 -55.5q-2 -21 -15 -54.5t-66.5 -96.5t-67.5 -91.5t-14 -54.5q0 -89 121 -89q79 0 169 30l36 -285q-141 -47 -299 -47q-196 0 -306.5 85.5t-110.5 238.5q0 52 14 92t37.5 78.5t125.5 140.5q40 40 59.5 73t24.5 75zM227 876
q0 180 194 180t194 -180t-194 -180t-194 180z" />
    <glyph glyph-name="r.sc" horiz-adv-x="1061" 
d="M1011 677q0 -107 -33 -188t-129 -136l190 -353h-378l-127 286h-88v-286h-354v1036h427q138 0 248 -27.5t177 -103t67 -208.5v-20zM548 792h-102v-277h102q110 0 110 120v38q0 119 -110 119z" />
    <glyph glyph-name="racute.sc" horiz-adv-x="1061" 
d="M1011 624q0 -81 -38 -152.5t-124 -118.5l190 -353h-378l-127 286h-88v-286h-354v1036h490q142 0 236.5 -41.5t143.5 -115.5t49 -182v-73zM548 792h-102v-277h102q110 0 110 120v38q0 119 -110 119zM558 1104l-260 32l169 366l371 -72z" />
    <glyph glyph-name="rcaron.sc" horiz-adv-x="1061" 
d="M1011 624q0 -81 -38 -152.5t-124 -118.5l190 -353h-378l-127 286h-88v-286h-354v1036h490q142 0 236.5 -41.5t143.5 -115.5t49 -182v-73zM548 792h-102v-277h102q110 0 110 120v38q0 119 -110 119zM868 1483l-177 -364h-387l-179 364l301 6l71 -194l71 194z" />
    <glyph glyph-name="rcommaaccent.sc" horiz-adv-x="1061" 
d="M1011 624q0 -81 -38 -152.5t-124 -118.5l190 -353h-378l-127 286h-88v-286h-354v1036h490q142 0 236.5 -41.5t143.5 -115.5t49 -182v-73zM548 792h-102v-277h102q110 0 110 120v38q0 119 -110 119zM395 -86h309l-9 -80q-12 -101 -52 -199.5t-89 -161.5h-224q27 81 46 179
t19 181v81z" />
    <glyph glyph-name="glyph625" horiz-adv-x="656" 
d="M54 1297q0 105 73 165t205 60q125 0 197.5 -58.5t72.5 -157.5q0 -107 -73 -166.5t-206 -59.5q-124 0 -196.5 58.5t-72.5 158.5zM263 1301q0 -24 17.5 -39t46.5 -15q30 0 48 15t18 39t-17.5 39t-46.5 15q-30 0 -48 -15t-18 -39z" />
    <glyph glyph-name="glyph626" horiz-adv-x="622" 
d="M54 1273q0 102 69 160.5t194 58.5q115 0 183 -56.5t68 -150.5q0 -103 -69 -161.5t-195 -58.5q-114 0 -182 56.5t-68 151.5zM247 1277q0 -26 17.5 -42.5t44.5 -16.5q31 0 49 17t18 45q0 26 -17.5 42.5t-45.5 16.5q-31 0 -48.5 -17t-17.5 -45z" />
    <glyph glyph-name="glyph627" horiz-adv-x="623" 
d="M54 1280q0 99 70 155.5t191 56.5q116 0 185 -54.5t69 -147.5q0 -99 -69.5 -155.5t-192.5 -56.5q-115 0 -184 54.5t-69 147.5zM249 1285q0 -24 17.5 -39t44.5 -15q29 0 46 15t17 39t-17.5 39t-44.5 15q-28 0 -45.5 -15t-17.5 -39z" />
    <glyph glyph-name="s.sc" horiz-adv-x="901" 
d="M867 300q0 -320 -437 -320q-86 0 -195.5 12.5t-181.5 38.5l40 257q48 -15 131 -29t153 -14q65 0 99 13t34 52q0 22 -19 40.5t-109.5 41t-115.5 29.5q-106 28 -160 98t-54 205q0 152 108.5 242t310.5 90q159 0 349 -38l-32 -262q-159 35 -258 35q-122 0 -122 -68
q0 -16 8.5 -30.5t32.5 -26.5t90 -29t76 -20q133 -34 192.5 -107t59.5 -210z" />
    <glyph glyph-name="glyph630" horiz-adv-x="1994" 
d="M1933 650v-230q0 -212 -131 -326t-381 -114q-260 0 -458 72v1187h-152q-75 0 -114.5 -30t-39.5 -84q0 -92 133 -146l-33 -253q-156 34 -245 34q-111 0 -111 -64q0 -26 26 -45t151 -49q139 -35 196.5 -104t57.5 -208q0 -310 -415 -310q-83 0 -191 13t-173 39l40 248
q42 -15 121 -29.5t144 -14.5q63 0 93 12t30 46q0 14 -6.5 26t-21.5 20.5t-35 15.5t-42 12.5t-55.5 14t-42.5 10.5q-133 34 -180.5 105.5t-47.5 196.5q0 152 107.5 236t310.5 85q-92 75 -92 181q0 96 56 163t148.5 102t219.5 35h525v-572q127 91 271 91q52 0 109 -16t107 -58
t85.5 -114t35.5 -178zM1455 716q-63 0 -122 -45v-386q52 -14 100 -14q60 0 95 36t35 135v131q0 70 -24 106.5t-84 36.5z" />
    <glyph glyph-name="glyph631" horiz-adv-x="1962" 
d="M867 300q0 -320 -437 -320q-86 0 -195.5 12.5t-181.5 38.5l40 257q48 -15 131 -29t153 -14q65 0 99 13t34 52q0 22 -19 40.5t-109.5 41t-115.5 29.5q-106 28 -160 98t-54 205q0 152 108.5 242t310.5 90q159 0 349 -38l-32 -262q-159 35 -258 35q-122 0 -122 -68
q0 -16 8.5 -30.5t32.5 -26.5t90 -29t76 -20q133 -34 192.5 -107t59.5 -210zM1472 0h-479v1036h451q219 0 329.5 -74.5t110.5 -214.5q0 -67 -36 -122.5t-116 -88.5q86 -32 139.5 -93t53.5 -144q0 -299 -453 -299zM1568 330q0 43 -33.5 71.5t-88.5 28.5h-103v-200h105
q56 0 88 28t32 72zM1451 616q49 0 76 28t27 68q0 41 -27.5 67.5t-79.5 26.5h-104v-190h108z" />
    <glyph glyph-name="glyph632" horiz-adv-x="2013" 
d="M832 290q0 -310 -415 -310q-83 0 -191 13t-173 39l40 248q42 -15 121 -29.5t144 -14.5q63 0 93 12t30 46q0 14 -6.5 26t-21.5 20.5t-35 15.5t-42 12.5t-55.5 14t-42.5 10.5q-133 34 -180.5 105.5t-47.5 196.5q0 152 107.5 236t310.5 85q-92 75 -92 181q0 96 56 163
t148.5 102t219.5 35h525v-582q157 101 306 101q142 0 218 -76.5t76 -220.5v-719h-370v603q0 91 -89 91q-63 0 -133 -48v-646h-370v1239h-152q-75 0 -114.5 -30t-39.5 -84q0 -92 133 -146l-33 -253q-156 34 -245 34q-111 0 -111 -64q0 -26 26 -45t151 -49q139 -35 196.5 -104
t57.5 -208z" />
    <glyph glyph-name="glyph633" horiz-adv-x="2068" 
d="M867 300q0 -320 -437 -320q-86 0 -195.5 12.5t-181.5 38.5l40 257q48 -15 131 -29t153 -14q65 0 99 13t34 52q0 22 -19 40.5t-109.5 41t-115.5 29.5q-106 28 -160 98t-54 205q0 152 108.5 242t310.5 90q159 0 349 -38l-32 -262q-159 35 -258 35q-122 0 -122 -68
q0 -16 8.5 -30.5t32.5 -26.5t90 -29t76 -20q133 -34 192.5 -107t59.5 -210zM1976 0h-371v379h-241v-379h-371v1036h371v-377h241v377h371v-1036z" />
    <glyph glyph-name="glyph634" horiz-adv-x="1988" 
d="M832 290q0 -310 -415 -310q-83 0 -191 13t-173 39l40 248q42 -15 121 -29.5t144 -14.5q63 0 93 12t30 46q0 14 -6.5 26t-21.5 20.5t-35 15.5t-42 12.5t-55.5 14t-42.5 10.5q-133 34 -180.5 105.5t-47.5 196.5q0 152 107.5 236t310.5 85q-92 75 -92 181q0 96 56 163
t148.5 102t219.5 35h534v-841h75l141 340h407l-242 -494l255 -502h-406l-157 367h-73v-367h-370v1239h-153q-75 0 -114.5 -30t-39.5 -84q0 -92 133 -146l-33 -253q-156 34 -245 34q-111 0 -111 -64q0 -26 26 -45t151 -49q139 -35 196.5 -104t57.5 -208z" />
    <glyph glyph-name="glyph635" horiz-adv-x="2019" 
d="M867 300q0 -320 -437 -320q-86 0 -195.5 12.5t-181.5 38.5l40 257q48 -15 131 -29t153 -14q65 0 99 13t34 52q0 22 -19 40.5t-109.5 41t-115.5 29.5q-106 28 -160 98t-54 205q0 152 108.5 242t310.5 90q159 0 349 -38l-32 -262q-159 35 -258 35q-122 0 -122 -68
q0 -16 8.5 -30.5t32.5 -26.5t90 -29t76 -20q133 -34 192.5 -107t59.5 -210zM1586 1036h402l-237 -520l251 -516h-403l-155 367h-76v-367h-375v1036h375v-371h75z" />
    <glyph glyph-name="glyph636" horiz-adv-x="1431" 
d="M832 290q0 -310 -415 -310q-83 0 -191 13t-173 39l40 248q42 -15 121 -29.5t144 -14.5q63 0 93 12t30 46q0 14 -6.5 26t-21.5 20.5t-35 15.5t-42 12.5t-55.5 14t-42.5 10.5q-113 28 -170.5 96.5t-57.5 205.5q0 153 105.5 236.5t312.5 84.5q-92 75 -92 181q0 96 56 163
t148.5 102t219.5 35h534v-1497h-370v1239h-153q-75 0 -114.5 -30t-39.5 -84q0 -92 133 -146l-33 -253q-156 34 -245 34q-111 0 -111 -64q0 -27 25.5 -45t151.5 -49q139 -35 196.5 -104t57.5 -208z" />
    <glyph glyph-name="glyph637" horiz-adv-x="1762" 
d="M867 300q0 -320 -437 -320q-86 0 -195.5 12.5t-181.5 38.5l40 257q48 -15 131 -29t153 -14q65 0 99 13t34 52q0 22 -19 40.5t-109.5 41t-115.5 29.5q-106 28 -160 98t-54 205q0 152 108.5 242t310.5 90q159 0 349 -38l-32 -262q-159 35 -258 35q-122 0 -122 -68
q0 -16 8.5 -30.5t32.5 -26.5t90 -29t76 -20q133 -34 192.5 -107t59.5 -210zM1364 1036v-756h371v-280h-742v1036h371z" />
    <glyph glyph-name="uniFB06.sc" horiz-adv-x="1818" 
d="M867 300q0 -320 -437 -320q-86 0 -195.5 12.5t-181.5 38.5l40 257q48 -15 131 -29t153 -14q65 0 99 13t34 52q0 22 -19 40.5t-109.5 41t-115.5 29.5q-106 28 -160 98t-54 205q0 152 108.5 242t310.5 90q159 0 349 -38l-32 -262q-159 35 -258 35q-122 0 -122 -68
q0 -16 8.5 -30.5t32.5 -26.5t90 -29t76 -20q133 -34 192.5 -107t59.5 -210zM1174 0v757h-253v279h877v-279h-253v-757h-371z" />
    <glyph glyph-name="sacute.sc" horiz-adv-x="901" 
d="M867 300q0 -320 -437 -320q-86 0 -195.5 12.5t-181.5 38.5l40 257q48 -15 131 -29t153 -14q65 0 99 13t34 52q0 22 -19 40.5t-109.5 41t-115.5 29.5q-106 28 -160 98t-54 205q0 152 108.5 242t310.5 90q159 0 349 -38l-32 -262q-159 35 -258 35q-122 0 -122 -68
q0 -16 8.5 -30.5t32.5 -26.5t90 -29t76 -20q133 -34 192.5 -107t59.5 -210zM518 1104l-261 32l170 366l370 -72z" />
    </font>
</defs>
</svg>
