<?xml version="1.0" standalone="no"?>
<!DOCTYPE svg PUBLIC "-//W3C//DTD SVG 1.1//EN" "http://www.w3.org/Graphics/SVG/1.1/DTD/svg11.dtd" >
<svg xmlns="http://www.w3.org/2000/svg" xmlns:xlink="http://www.w3.org/1999/xlink" version="1.1">
<metadata>
Created by FontForge 20200314 at Tue Nov  3 19:16:44 2015
 By Unknown
Copyright (c) 2015 by Fernando Diaz. All rights reserved.
</metadata>
<defs>
<font id="TrasandinaW03-Bold" horiz-adv-x="1200" >
  <font-face 
    font-family="TrasandinaW03-Bold"
    font-weight="700"
    font-stretch="normal"
    units-per-em="2048"
    panose-1="1 0 0 0 0 0 0 0 0 0"
    ascent="1638"
    descent="-410"
    x-height="996"
    cap-height="1354"
    bbox="-109 -526 2834 2204"
    underline-thickness="102"
    underline-position="-256"
    unicode-range="U+0020-FB06"
  />
<missing-glyph horiz-adv-x="1415" 
d="M467 1015l-97 -96l241 -240l-243 -245l96 -96l245 241l242 -241l96 96l-243 245l241 240l-96 96l-240 -241zM150 0v1354h1115v-1354h-1115z" />
    <glyph glyph-name="percent" unicode="&#x30;&#x2f;&#x30;" horiz-adv-x="1658" 
d="M1129 1354h182l-784 -1354h-182zM77 924v157q0 84 39.5 146t113 99.5t172.5 37.5q100 0 173.5 -37.5t113 -99.5t39.5 -146v-157q0 -84 -39.5 -146t-113 -99.5t-173.5 -37.5q-99 0 -172.5 37.5t-113 99.5t-39.5 146zM298 1069v-133q0 -49 28.5 -78t75.5 -29t76.5 29
t29.5 78v133q0 49 -29.5 78t-76.5 29t-75.5 -29t-28.5 -78zM930 272v157q0 84 39.5 146t113 99.5t172.5 37.5q100 0 173.5 -37.5t113 -99.5t39.5 -146v-157q0 -84 -39.5 -146t-113 -99.5t-173.5 -37.5q-99 0 -172.5 37.5t-113 99.5t-39.5 146zM1151 417v-133q0 -49 28.5 -78
t75.5 -29t76.5 29t29.5 78v133q0 49 -29.5 78t-76.5 29t-75.5 -29t-28.5 -78z" />
    <glyph glyph-name="onequarter" unicode="&#x31;&#x2f;&#x34;" horiz-adv-x="967" 
d="M181 -100v153l295 429v2h217v-419h97v-165h-97v-119h-215v119h-297zM779 1057v-186h-545v186h168v304l-167 -33l-12 180l237 66h168v-517h151zM23 754h845v-152h-845v152zM385 60h107v156z" />
    <glyph glyph-name="onehalf" unicode="&#x31;&#x2f;&#x32;" horiz-adv-x="967" 
d="M766 1057v-186h-545v186h168v304l-166 -33l-12 180l237 66h167v-517h151zM791 -33v-188h-566v178q164 93 209.5 127t69 65t23.5 62q0 40 -33 60t-87 20q-72 0 -158 -18l-20 192q113 27 226 27q81 0 156 -27t116 -89.5t41 -145.5q0 -147 -232 -263h255zM23 754h845v-152
h-845v152z" />
    <glyph glyph-name="threequarters" unicode="&#x33;&#x2f;&#x34;" horiz-adv-x="967" 
d="M181 -100v153l295 429v2h217v-419h97v-165h-97v-119h-215v119h-297zM300 1160v127h120q89 0 89 56q0 42 -63 54q-29 6 -64 5q-58 -1 -132 -16l-19 171q100 27 211 27q142 0 225 -54t83 -154q0 -103 -98 -146q50 -18 80 -59.5t30 -104.5q0 -102 -84 -153.5t-241 -51.5
q-118 0 -208 22l18 179q68 -16 134 -17q33 -1 68 4q72 11 72 52q0 22 -22 40.5t-78 18.5h-121zM23 754h845v-152h-845v152zM385 60h107v156z" />
    <glyph glyph-name="perthousand" unicode="&#x30;&#x2f;&#x30;&#x30;" horiz-adv-x="2050" 
d="M930 272v157q0 84 39.5 146t113 99.5t172.5 37.5q128 0 215 -66q87 66 216 66q100 0 173.5 -37.5t113 -99.5t39.5 -146v-157q0 -84 -39.5 -146t-113 -99.5t-173.5 -37.5q-130 0 -216 66q-85 -66 -215 -66q-99 0 -172.5 37.5t-113 99.5t-39.5 146zM77 924v157
q0 84 39.5 146t113 99.5t172.5 37.5q100 0 173.5 -37.5t113 -99.5t39.5 -146v-157q0 -84 -39.5 -146t-113 -99.5t-173.5 -37.5q-99 0 -172.5 37.5t-113 99.5t-39.5 146zM1129 1354h182l-784 -1354h-182zM1151 417v-133q0 -49 28.5 -78t75.5 -29t76.5 29t29.5 78v133
q0 49 -29.5 78t-76.5 29t-75.5 -29t-28.5 -78zM1581 422v-144q2 -47 31 -74t74 -27q47 0 76 29t29 78v133q0 49 -29 78t-76 29q-46 0 -75 -27.5t-30 -74.5zM298 1069v-133q0 -49 28.5 -78t75.5 -29t76.5 29t29.5 78v133q0 49 -29.5 78t-76.5 29t-75.5 -29t-28.5 -78z" />
    <glyph glyph-name="emdash_guilsinglright.liga" unicode="&#x2d;&#x2d;&#x3e;" horiz-adv-x="2184" 
d="M131 375v247l1475 -4l-396 377l173 173l670 -670l-670 -671l-173 173l397 378z" />
    <glyph glyph-name="endash_guilsinglright.liga" unicode="&#x2d;&#x3e;" horiz-adv-x="1732" 
d="M131 375v247l1023 -4l-396 377l173 173l670 -670l-670 -671l-173 173l396 377z" />
    <glyph glyph-name="guilsinglleft_hyphen_hyphen.liga" unicode="&#x3c;&#x2d;&#x2d;" horiz-adv-x="2184" 
d="M801 1168l173 -173l-397 -378l1476 4v-247l-1475 3l396 -377l-173 -173l-670 671z" />
    <glyph glyph-name="guilsinglleft_endash.liga" unicode="&#x3c;&#x2d;" horiz-adv-x="1732" 
d="M801 1168l173 -173l-396 -377l1023 3v-247l-1023 2l396 -376l-173 -173l-670 671z" />
    <glyph glyph-name=".notdef" horiz-adv-x="1415" 
d="M467 1015l-97 -96l241 -240l-243 -245l96 -96l245 241l242 -241l96 96l-243 245l241 240l-96 96l-240 -241zM150 0v1354h1115v-1354h-1115z" />
    <glyph glyph-name=".null" horiz-adv-x="0" 
 />
    <glyph glyph-name="nonmarkingreturn" horiz-adv-x="682" 
 />
    <glyph glyph-name="space" unicode=" " horiz-adv-x="450" 
 />
    <glyph glyph-name="exclam" unicode="!" horiz-adv-x="479" 
d="M402 1354l-42 -948h-241l-42 948h325zM83 128q0 149 157 149q156 0 156 -149q0 -64 -35.5 -106t-120.5 -42q-76 0 -116.5 37.5t-40.5 110.5z" />
    <glyph glyph-name="quotedbl" unicode="&#x22;" horiz-adv-x="783" 
d="M454 1392h246l-16 -539h-214zM83 1392h246l-16 -539h-214z" />
    <glyph glyph-name="numbersign" unicode="#" horiz-adv-x="1513" 
d="M962 1354h236l-46 -331h211l-30 -219h-211l-35 -260h210l-30 -217h-210l-44 -327h-239l45 327h-234l-44 -327h-237l44 327h-217l29 217h218l34 260h-212l29 219h214l45 331h238l-45 -331h234zM651 804l-35 -260h232l37 260h-234z" />
    <glyph glyph-name="dollar" unicode="$" horiz-adv-x="1076" 
d="M414 1542h262l-15 -281q121 -8 239 -40l-34 -227q-148 37 -287 37q-85 0 -134.5 -27.5t-49.5 -80.5q0 -26 9 -46t29 -34t46.5 -23.5t55 -17.5t72 -19.5t55.5 -14.5q146 -39 214.5 -119.5t68.5 -222.5q0 -290 -317 -331l15 -283h-262l16 281q-153 13 -275 52l41 226
q54 -17 144 -32.5t163 -15.5q92 0 144 24t52 85q0 17 -6.5 35.5t-24.5 34.5t-52.5 32t-220.5 65q-124 33 -181 113t-57 209t81 219.5t225 115.5z" />
    <glyph glyph-name="ampersand" unicode="&#x26;" horiz-adv-x="1299" 
d="M61 377q0 221 242 367q-67 94 -95 155.5t-28 139.5q0 102 53 175.5t156 116.5t256 43q169 0 360 -58l-36 -234q-55 16 -140 30.5t-156 14.5q-108 0 -162.5 -28.5t-54.5 -91.5q0 -35 14 -73.5t77 -118.5l369 -474q20 30 20 83q0 67 -37 142.5t-216 283.5v106h556v-221
h-203q134 -150 134 -334q0 -77 -30 -144t-71 -106l161 -200l-189 -146l-174 217q-103 -41 -253 -41q-254 0 -403.5 102.5t-149.5 293.5zM601 209q69 0 114 16l-276 353q-46 -34 -71.5 -75.5t-25.5 -102.5q0 -88 68.5 -139.5t190.5 -51.5z" />
    <glyph glyph-name="quotesingle" unicode="'" horiz-adv-x="396" 
d="M75 1392h246l-16 -539h-214z" />
    <glyph glyph-name="parenleft" unicode="(" horiz-adv-x="706" 
d="M396 677q0 -457 342 -900l-190 -121q-195 193 -318.5 459.5t-123.5 561.5t123.5 562t318.5 460l190 -121q-342 -443 -342 -901z" />
    <glyph glyph-name="parenright" unicode=")" horiz-adv-x="706" 
d="M310 676q0 457 -342 900l190 121q194 -191 318 -458.5t124 -562.5t-123.5 -562t-318.5 -460l-190 121q106 138 181.5 279t118 303t42.5 319z" />
    <glyph glyph-name="asterisk" unicode="*" horiz-adv-x="789" 
d="M46 1133l63 197l198 -84l-15 210h205l-15 -210l198 84l63 -197l-213 -57l138 -166l-160 -113l-113 170l-114 -170l-160 113l138 166z" />
    <glyph glyph-name="plus" unicode="+" horiz-adv-x="1114" 
d="M419 1111h276v-313h288v-242h-288v-313h-276v313h-288v242h288v313z" />
    <glyph glyph-name="comma" unicode="," horiz-adv-x="439" 
d="M92 248h256v-102q0 -237 -139 -418h-185q27 64 47.5 164.5t20.5 197.5v158z" />
    <glyph glyph-name="hyphen" unicode="-" horiz-adv-x="745" 
d="M81 386v224h583v-224h-583z" />
    <glyph glyph-name="period" unicode="." horiz-adv-x="459" 
d="M73 128q0 149 157 149q156 0 156 -149q0 -64 -35.5 -106t-120.5 -42q-76 0 -116.5 37.5t-40.5 110.5z" />
    <glyph glyph-name="slash" unicode="/" horiz-adv-x="1043" 
d="M771 1679h304l-803 -2004h-304z" />
    <glyph glyph-name="zero" unicode="0" horiz-adv-x="1181" 
d="M90 440v474q0 83 24 164t83.5 147t157 107.5t235.5 41.5q228 0 364.5 -119.5t136.5 -340.5v-474q0 -125 -50 -228.5t-166.5 -167.5t-284.5 -64q-227 0 -363.5 119.5t-136.5 340.5zM387 920v-486q0 -105 52 -164.5t151 -59.5t151.5 59.5t52.5 164.5v486q0 105 -52.5 164
t-151.5 59t-151 -59t-52 -164z" />
    <glyph glyph-name="one" unicode="1" horiz-adv-x="736" 
d="M64 986l-27 245l351 123h216v-1354h-293v1064z" />
    <glyph glyph-name="two" unicode="2" horiz-adv-x="971" 
d="M907 252v-252h-830v232q220 234 319.5 352.5t149 210t49.5 167.5q0 69 -47 113.5t-153 44.5q-135 0 -283 -57l-26 243q64 29 156.5 48.5t179.5 19.5q150 0 251.5 -51.5t154 -140.5t52.5 -216q0 -86 -33 -169.5t-104.5 -182.5t-327.5 -362h492z" />
    <glyph glyph-name="three" unicode="3" horiz-adv-x="938" 
d="M190 570v224h188q80 0 138 44t58 120q0 83 -57 125.5t-163 42.5q-136 0 -264 -37l-21 231q146 54 331 54q209 0 330 -99t121 -282q0 -90 -44 -170t-144 -134q97 -44 153.5 -127.5t56.5 -198.5q0 -119 -54 -202t-164 -132t-284 -49q-162 0 -316 43l20 237q130 -32 279 -32
q62 0 120 18t90 59.5t32 95.5q0 81 -64.5 125t-158.5 44h-183z" />
    <glyph glyph-name="four" unicode="4" horiz-adv-x="1137" 
d="M670 1354h249v-852h148v-226h-148v-276h-266v276h-563v216zM374 502h285v427z" />
    <glyph glyph-name="five" unicode="5" horiz-adv-x="986" 
d="M926 400q0 -212 -130.5 -316t-377.5 -104q-187 0 -348 39l29 247q48 -10 133 -20t158 -10q118 0 184 39.5t66 133.5q0 86 -67.5 137t-216.5 52q-59 0 -112 -1.5t-95.5 -3.5t-44.5 -2l30 763h722v-252h-491l-13 -283q61 0 133 -5q150 -11 246.5 -64.5t145.5 -140.5
t49 -209z" />
    <glyph glyph-name="six" unicode="6" horiz-adv-x="1094" 
d="M90 411v424q0 270 137.5 404.5t418.5 134.5q151 0 298 -42l-28 -246q-138 37 -265 37q-150 0 -219 -68t-69 -205v-78q125 48 232 48q142 0 236.5 -49.5t143.5 -138t49 -218.5q0 -203 -124.5 -318.5t-342.5 -115.5q-102 0 -188 26.5t-147.5 79.5t-96.5 134t-35 191z
M550 597q-101 0 -187 -39v-156q0 -85 52 -133.5t142 -48.5q89 0 140 52t51 140q0 185 -198 185z" />
    <glyph glyph-name="seven" unicode="7" horiz-adv-x="908" 
d="M29 1105v249h822v-238l-424 -1116h-297l441 1105h-542z" />
    <glyph glyph-name="eight" unicode="8" horiz-adv-x="1069" 
d="M1010 326q0 -153 -128 -249.5t-348 -96.5q-111 0 -200 26t-149 73.5t-91 112.5t-31 142q0 102 53.5 187t195.5 163q-112 64 -166.5 140.5t-54.5 182.5q0 78 30 145.5t87 117t140.5 77t185.5 27.5q76 0 154.5 -18.5t142.5 -62.5t105.5 -116t41.5 -170q0 -88 -48 -167
t-174 -152q131 -71 192.5 -157t61.5 -205zM534 200q84 0 138 43t54 117q0 57 -40 111t-154 115q-96 -45 -142 -95.5t-46 -130.5q0 -74 53.5 -117t136.5 -43zM713 991q0 75 -50 115.5t-129 40.5t-128.5 -40t-49.5 -116q0 -52 38.5 -99.5t142.5 -105.5q87 42 131.5 88.5
t44.5 116.5z" />
    <glyph glyph-name="nine" unicode="9" horiz-adv-x="1094" 
d="M1003 943v-454q0 -509 -556 -509q-166 0 -310 48l28 246q145 -43 277 -43q150 0 219 61t69 182v100q-125 -48 -232 -48q-142 0 -236.5 50.5t-143.5 140.5t-49 223q0 203 124.5 318.5t342.5 115.5q102 0 188 -26.5t147.5 -79.5t96.5 -134t35 -191zM543 749q101 0 187 39
v164q0 85 -52 133.5t-142 48.5q-89 0 -140 -52t-51 -140q0 -193 198 -193z" />
    <glyph glyph-name="colon" unicode=":" horiz-adv-x="459" 
d="M73 128q0 149 157 149q156 0 156 -149q0 -64 -35.5 -106t-120.5 -42q-76 0 -116.5 37.5t-40.5 110.5zM73 868q0 148 157 148q76 0 116 -37.5t40 -110.5q0 -149 -156 -149q-76 0 -116.5 37.5t-40.5 111.5z" />
    <glyph glyph-name="semicolon" unicode=";" horiz-adv-x="436" 
d="M73 868q0 148 157 148q76 0 116 -37.5t40 -110.5q0 -149 -156 -149q-76 0 -116.5 37.5t-40.5 111.5zM108 248h256v-102q0 -235 -139 -418h-185q27 64 47.5 164.5t20.5 197.5v158z" />
    <glyph glyph-name="less" unicode="&#x3c;" horiz-adv-x="1009" 
d="M691 1184l187 -168l-385 -339l385 -339l-187 -168l-560 507z" />
    <glyph glyph-name="equal" unicode="=" horiz-adv-x="1020" 
d="M131 979h758v-234h-758v234zM131 609h758v-234h-758v234z" />
    <glyph glyph-name="greater" unicode="&#x3e;" horiz-adv-x="1009" 
d="M318 170l-187 168l384 339l-384 339l187 168l560 -507z" />
    <glyph glyph-name="question" unicode="?" horiz-adv-x="786" 
d="M429 402h-222q-11 42 -7 100q3 35 18 77.5t41.5 79t112.5 133t86 182.5q0 66 -44.5 104t-139.5 38q-98 0 -230 -46l-42 245q160 59 334 59q131 0 224 -44.5t142.5 -121t49.5 -184.5q0 -59 -17.5 -120.5t-57.5 -120t-123.5 -148.5t-103.5 -135q-18 -41 -21 -98zM164 128
q0 149 156 149t156 -149q0 -148 -156 -148q-76 0 -116 37.5t-40 110.5z" />
    <glyph glyph-name="at" unicode="@" horiz-adv-x="2117" 
d="M1490 -20q-92 0 -158 46.5t-97 120.5q-169 -147 -365 -147q-46 0 -95.5 18t-91 63t-65.5 122t-9 186l22 156q29 202 159 316.5t331 114.5q219 0 392 -125l-74 -541q-4 -50 17.5 -84.5t66.5 -34.5q81 0 140 107t64 290q9 167 -45.5 300t-187 210t-337.5 77
q-211 0 -384 -93t-274.5 -273.5t-108.5 -409.5q-10 -281 112.5 -437.5t352.5 -156.5q133 0 309 46l31 -189q-185 -66 -383 -66q-194 0 -353 91.5t-247.5 275t-78.5 425.5q10 278 139 508t372 364t553 134q239 0 419.5 -100.5t273 -284t84.5 -398.5q-6 -174 -65.5 -319.5
t-169 -228.5t-249.5 -83zM991 232q87 0 181 74l59 421q-70 22 -136 22q-87 0 -139 -52t-64 -139l-20 -140q-12 -86 17 -136t102 -50z" />
    <glyph glyph-name="A" unicode="A" horiz-adv-x="1244" 
d="M1222 0h-317l-75 289h-416l-75 -289h-317l388 1354h425zM622 1128l-158 -606h317z" />
    <glyph glyph-name="B" unicode="B" horiz-adv-x="1155" 
d="M627 0h-495v1354h490q217 0 326 -99.5t109 -279.5q0 -95 -47.5 -167t-135.5 -112q103 -39 166.5 -122t63.5 -188q0 -187 -126 -286.5t-351 -99.5zM814 411q0 91 -57.5 135t-161.5 44h-181v-359h185q215 0 215 180zM608 795q82 0 124 44t42 122q0 77 -43.5 119.5
t-130.5 42.5h-186v-328h194z" />
    <glyph glyph-name="C" unicode="C" horiz-adv-x="969" 
d="M899 269l28 -237q-62 -23 -151.5 -37.5t-183.5 -14.5q-102 0 -194 30.5t-160 88.5t-108 142t-40 192v475q0 125 55 229.5t176.5 170.5t281.5 66q74 0 160.5 -14t147.5 -38l-36 -238q-37 12 -106 26t-141 14q-104 0 -172 -65t-68 -175v-427q0 -107 69.5 -167t184.5 -60
q125 0 257 39z" />
    <glyph glyph-name="D" unicode="D" horiz-adv-x="1220" 
d="M132 0v1354h484q111 0 206 -30.5t164 -88.5t106.5 -141.5t37.5 -183.5v-474q0 -216 -139.5 -326t-374.5 -110h-484zM832 440v419q0 126 -62.5 193.5t-166.5 67.5h-174v-886h174q111 0 170 54t59 152z" />
    <glyph glyph-name="E" unicode="E" horiz-adv-x="1040" 
d="M132 0v1354h835v-251h-537v-305h517v-235h-517v-312h558v-251h-856z" />
    <glyph glyph-name="F" unicode="F" horiz-adv-x="1015" 
d="M132 0v1354h835v-247h-537v-305h516v-243h-516v-559h-298z" />
    <glyph glyph-name="G" unicode="G" horiz-adv-x="1116" 
d="M1032 678v-622q-77 -33 -193.5 -54.5t-234.5 -21.5q-137 0 -255 50t-188.5 156.5t-70.5 260.5v443q0 131 57.5 240t188.5 176.5t315 67.5q81 0 178 -15t179 -47l-45 -239q-54 19 -131.5 34t-149.5 15q-138 0 -216 -66t-78 -183v-417q0 -114 65 -172t184 -58q74 0 134 17
v435h261z" />
    <glyph glyph-name="H" unicode="H" horiz-adv-x="1319" 
d="M1187 0h-297v548h-461v-548h-297v1354h297v-546h461v546h297v-1354z" />
    <glyph glyph-name="I" unicode="I" horiz-adv-x="561" 
d="M429 1354v-1354h-297v1354h297z" />
    <glyph glyph-name="J" unicode="J" horiz-adv-x="562" 
d="M132 1354h298v-1348q0 -153 -81 -264.5t-285 -209.5l-126 185q120 79 157 150t37 159v1328z" />
    <glyph glyph-name="K" unicode="K" horiz-adv-x="1165" 
d="M806 1354h322l-315 -685l331 -669h-324l-258 557h-133v-557h-297v1354h297v-542h145z" />
    <glyph glyph-name="L" unicode="L" horiz-adv-x="970" 
d="M429 1354v-1099h508v-255h-805v1354h297z" />
    <glyph glyph-name="M" unicode="M" horiz-adv-x="1566" 
d="M1170 0v903l-289 -724h-187l-289 721v-900h-273v1354h360l295 -806l296 806h360v-1354h-273z" />
    <glyph glyph-name="N" unicode="N" horiz-adv-x="1317" 
d="M889 0l-467 861v-861h-290v1354h296l467 -861v861h290v-1354h-296z" />
    <glyph glyph-name="O" unicode="O" horiz-adv-x="1219" 
d="M90 436v482q0 218 142 337t377 119q236 0 378.5 -119t142.5 -337v-482q0 -219 -142 -337.5t-379 -118.5q-236 0 -377.5 118.5t-141.5 337.5zM388 925v-496q0 -100 58 -158t163 -58t163.5 58t58.5 158v496q0 100 -58.5 157.5t-163.5 57.5t-163 -57.5t-58 -157.5z" />
    <glyph glyph-name="P" unicode="P" horiz-adv-x="1158" 
d="M614 407h-185v-407h-297v1354h482q104 0 193 -27t154 -80.5t100.5 -133t35.5 -178.5v-115q0 -125 -54.5 -215t-162 -144t-266.5 -54zM605 1120h-176v-479h176q98 0 147 56.5t49 156.5v68q0 93 -50 145.5t-146 52.5z" />
    <glyph glyph-name="Q" unicode="Q" horiz-adv-x="1219" 
d="M90 436v482q0 218 142 337t377 119q236 0 378.5 -119t142.5 -337v-482q0 -174 -91.5 -286t-252.5 -150l159 -280l-253 -57l-130 318q-105 6 -192.5 38t-149.5 89.5t-96 141t-34 186.5zM388 925v-496q0 -100 58 -158t163 -58t163.5 58t58.5 158v496q0 100 -58.5 157.5
t-163.5 57.5t-163 -57.5t-58 -157.5z" />
    <glyph glyph-name="R" unicode="R" horiz-adv-x="1183" 
d="M132 1354h488q159 0 266.5 -56t162 -147t54.5 -216v-87q0 -131 -62 -223t-167 -138l252 -487h-321l-208 435h-168v-435h-297v1354zM611 1120h-182v-460h182q90 0 143 48.5t53 136.5v92q0 87 -53 135t-143 48z" />
    <glyph glyph-name="S" unicode="S" horiz-adv-x="1008" 
d="M953 381q0 -194 -117.5 -297.5t-357.5 -103.5q-96 0 -210.5 15.5t-209.5 48.5l39 245q180 -54 331 -54q114 0 173.5 31t59.5 112q0 61 -36.5 97t-162 78t-171.5 59q-111 41 -165.5 127.5t-54.5 224.5q0 87 30.5 162.5t89.5 131t145.5 86t193.5 30.5q197 0 371 -51
l-35 -249q-163 46 -298 46q-99 0 -155.5 -37.5t-56.5 -106.5q0 -56 28 -93t119 -66l150 -47q156 -49 228 -138t72 -251z" />
    <glyph glyph-name="T" unicode="T" horiz-adv-x="1051" 
d="M377 0v1107h-351v247h999v-247h-350v-1107h-298z" />
    <glyph glyph-name="U" unicode="U" horiz-adv-x="1258" 
d="M838 1354h298v-936q0 -205 -136 -321.5t-371 -116.5t-371 116.5t-136 321.5v936h297v-938q0 -86 57.5 -139t152.5 -53t152 53t57 139v938z" />
    <glyph glyph-name="V" unicode="V" horiz-adv-x="1202" 
d="M861 1354h319l-356 -1354h-445l-357 1354h319l261 -1077z" />
    <glyph glyph-name="W" unicode="W" horiz-adv-x="1797" 
d="M1453 1354h317l-302 -1354h-386l-184 870l-183 -870h-386l-302 1354h316l210 -1048l202 1028h286l205 -1028z" />
    <glyph glyph-name="X" unicode="X" horiz-adv-x="1199" 
d="M370 1354l231 -483l228 483h327l-336 -661l351 -693h-338l-229 489l-237 -489h-339l351 675l-335 679h326z" />
    <glyph glyph-name="Y" unicode="Y" horiz-adv-x="1150" 
d="M816 1354h306l-399 -871v-483h-297v483l-398 871h305l242 -582z" />
    <glyph glyph-name="Z" unicode="Z" horiz-adv-x="1054" 
d="M87 1106v248h875v-220l-561 -886h590v-248h-932v220l559 886h-531z" />
    <glyph glyph-name="bracketleft" unicode="[" horiz-adv-x="661" 
d="M616 -95v-230h-476v2004h476v-230h-204v-1544h204z" />
    <glyph glyph-name="backslash" unicode="\" horiz-adv-x="1043" 
d="M-32 1679h304l803 -2004h-304z" />
    <glyph glyph-name="bracketright" unicode="]" horiz-adv-x="661" 
d="M44 1449v229h476v-2004h-476v230h204v1545h-204z" />
    <glyph glyph-name="asciicircum" unicode="^" horiz-adv-x="990" 
d="M332 809h-259l285 635h273l285 -635h-259l-162 429z" />
    <glyph glyph-name="underscore" unicode="_" horiz-adv-x="1069" 
d="M81 -267v213h907v-213h-907z" />
    <glyph glyph-name="grave" unicode="`" horiz-adv-x="639" 
d="M565 1135l-176 -54l-316 326l264 93z" />
    <glyph glyph-name="a" unicode="a" horiz-adv-x="1033" 
d="M58 268q0 92 44.5 156t126 100.5t192.5 36.5h177v69q0 73 -38 110.5t-136 37.5q-128 0 -285 -47l-36 225q186 60 362 60q217 0 311.5 -92t94.5 -302v-326q0 -38 15.5 -58.5t43.5 -20.5q29 0 64 8l3 -216q-65 -29 -156 -29q-134 0 -197 102q-139 -102 -285 -102
q-138 0 -219.5 72.5t-81.5 215.5zM435 175q83 0 163 52v177h-147q-60 0 -94 -31.5t-34 -88.5q0 -52 32 -80.5t80 -28.5z" />
    <glyph glyph-name="b" unicode="b" horiz-adv-x="1117" 
d="M1031 634v-229q0 -204 -125.5 -314.5t-351.5 -110.5q-242 0 -426 74v1390h280v-529q136 101 283 101q105 0 182 -52t117.5 -135.5t40.5 -194.5zM592 776q-93 0 -177 -68v-473q74 -22 148 -22q80 0 130.5 44.5t50.5 141.5v197q0 180 -152 180z" />
    <glyph glyph-name="c" unicode="c" horiz-adv-x="853" 
d="M369 571v-149q0 -98 55.5 -152.5t153.5 -54.5q99 0 198 24l19 -227q-117 -32 -262 -32q-197 0 -316 99t-129 286l-2 87v92l2 87q10 183 129 284t310 101q58 0 132.5 -9.5t132.5 -25.5l-31 -229q-1 0 -2.5 0.5t-33.5 8t-75.5 13.5t-79.5 6q-95 0 -148 -56t-53 -153z" />
    <glyph glyph-name="d" unicode="d" horiz-adv-x="1116" 
d="M86 363v239q0 201 111 307.5t301 106.5q99 0 210 -32v460h280v-1444h-245l-15 96q-69 -52 -142.5 -81t-166.5 -29q-52 0 -108.5 17.5t-106 61t-84 118t-34.5 180.5zM524 220q93 0 177 66v472q-79 30 -153 30q-175 0 -175 -210v-162q0 -196 151 -196z" />
    <glyph glyph-name="e" unicode="e" horiz-adv-x="1015" 
d="M80 397v194q0 99 31 179.5t88.5 135t137.5 82.5t176 28q93 0 171 -28.5t134 -83t86.5 -134.5t30.5 -180l-4 -165h-573v-38q0 -177 229 -177q141 0 306 35l23 -216q-170 -49 -371 -49q-102 0 -188 27t-148 80t-95.5 132t-33.5 178zM358 620v-42h310v34q0 187 -155 187
q-76 0 -115.5 -46t-39.5 -133z" />
    <glyph glyph-name="f" unicode="f" horiz-adv-x="666" 
d="M22 775v221h131v116q0 167 88.5 259.5t256.5 92.5q107 0 200 -24l-27 -220q-69 12 -113 12q-60 0 -91 -33.5t-31 -111.5v-91h221v-221h-217v-775h-287v775h-131z" />
    <glyph glyph-name="g" unicode="g" horiz-adv-x="1016" 
d="M724 1236l253 -71q-21 -48 -64.5 -117t-103.5 -126q116 -92 116 -252v-39q0 -153 -116.5 -249.5t-317.5 -96.5q-55 0 -103 9q-49 -42 -49 -78q0 -18 14.5 -34.5t53.5 -16.5h246q117 0 199 -43.5t124.5 -115.5t42.5 -170q0 -95 -49.5 -163.5t-144.5 -108.5t-230 -40h-170
q-176 0 -274.5 67t-98.5 188q0 64 41 121.5t118 99.5q-43 24 -69.5 63.5t-26.5 85.5q0 42 27 93.5t95 98.5q-80 42 -124 112t-44 157v80q0 145 116 235.5t306 90.5q81 0 155 -22q16 32 39 98.5t39 143.5zM347 693v-61q0 -68 37 -114t113 -46q67 0 108.5 41.5t41.5 118.5v38
q0 68 -37 115.5t-113 47.5q-72 0 -111 -40.5t-39 -99.5zM626 -45h-195l-55 1q-34 -19 -59 -50.5t-25 -70.5q0 -105 171 -105h107q106 0 151.5 24.5t45.5 84.5q0 116 -141 116z" />
    <glyph glyph-name="h" unicode="h" horiz-adv-x="1135" 
d="M128 1444h280v-542q167 114 324 114q136 0 210.5 -74.5t74.5 -214.5v-727h-287v638q0 121 -116 121q-44 0 -97.5 -19.5t-101.5 -53.5v-686h-287v1444z" />
    <glyph glyph-name="i" unicode="i" horiz-adv-x="543" 
d="M128 996h287v-996h-287v996zM116 1283q0 148 155 148q157 0 157 -148t-157 -148q-75 0 -115 37.5t-40 110.5z" />
    <glyph glyph-name="j" unicode="j" horiz-adv-x="543" 
d="M128 996h287v-990q0 -153 -79 -265t-277 -209l-126 186q108 72 151.5 140t43.5 168v970zM116 1283q0 148 155 148q157 0 157 -148t-157 -148q-75 0 -115 37.5t-40 110.5z" />
    <glyph glyph-name="k" unicode="k" horiz-adv-x="1069" 
d="M128 1444h287v-820h105l190 372h318l-276 -491l288 -505h-317l-205 397h-103v-397h-287v1444z" />
    <glyph glyph-name="l" unicode="l" horiz-adv-x="543" 
d="M128 1444h287v-1444h-287v1444z" />
    <glyph glyph-name="m" unicode="m" horiz-adv-x="1711" 
d="M128 996h246l15 -107q168 123 332 123q92 0 154.5 -35t94.5 -95q79 59 169.5 96.5t174.5 37.5q133 0 206 -74.5t73 -214.5v-727h-287v638q0 121 -111 121q-41 0 -92.5 -19.5t-98.5 -53.5v-686h-287v638q0 121 -110 121q-41 0 -92.5 -20t-99.5 -54v-685h-287v996z" />
    <glyph glyph-name="n" unicode="n" horiz-adv-x="1135" 
d="M128 996h246l15 -106q178 126 343 126q136 0 210.5 -74.5t74.5 -214.5v-727h-287v638q0 121 -116 121q-44 0 -97.5 -19.5t-101.5 -53.5v-686h-287v996z" />
    <glyph glyph-name="o" unicode="o" horiz-adv-x="1093" 
d="M86 398v199q0 74 22 149t77 134.5t144.5 97.5t217.5 38q101 0 186 -27t146 -80.5t94.5 -132.5t33.5 -179v-199q0 -74 -22 -148.5t-77 -134t-144.5 -97.5t-216.5 -38q-101 0 -186.5 27t-146.5 80t-94.5 132.5t-33.5 178.5zM373 608v-221q0 -84 45.5 -131.5t128.5 -47.5
t128 47.5t45 131.5v221q0 83 -45 131.5t-128 48.5t-128.5 -48.5t-45.5 -131.5z" />
    <glyph glyph-name="p" unicode="p" horiz-adv-x="1117" 
d="M1032 634v-230q0 -73 -20.5 -148.5t-70.5 -136t-130.5 -100t-191.5 -39.5q-87 0 -211 30v-458h-280v1444h246l14 -96q156 116 303 116q51 0 108.5 -17t108.5 -61t87.5 -119.5t36.5 -184.5zM593 776q-93 0 -178 -67v-471q82 -30 154 -30q79 0 127.5 43.5t48.5 141.5v200
q0 86 -37 134.5t-115 48.5z" />
    <glyph glyph-name="q" unicode="q" horiz-adv-x="1116" 
d="M86 363v227q0 204 123.5 315t341.5 111q255 0 437 -66v-1398h-280v522q-137 -94 -278 -94q-69 0 -131.5 25.5t-110.5 74.5t-75 121.5t-27 161.5zM524 218q94 0 177 67v473q-78 22 -151 22q-90 0 -133.5 -50t-43.5 -135v-196q0 -181 151 -181z" />
    <glyph glyph-name="r" unicode="r" horiz-adv-x="739" 
d="M128 996h244l17 -133q63 60 151.5 106t168.5 47l2 -276q-72 -4 -155 -36t-141 -77v-627h-287v996z" />
    <glyph glyph-name="s" unicode="s" horiz-adv-x="850" 
d="M797 280q0 -300 -387 -300q-78 0 -177 12.5t-167 38.5l35 204q44 -15 121 -29.5t145 -14.5q83 0 121.5 17.5t38.5 67.5q0 48 -37 75t-181 62q-144 37 -193.5 107t-49.5 194q0 136 101 219t280 83q156 0 309 -36l-28 -208q-135 33 -243 33q-74 0 -111.5 -21.5t-37.5 -71.5
q0 -43 33.5 -68t161.5 -57q147 -36 206.5 -103t59.5 -204z" />
    <glyph glyph-name="t" unicode="t" horiz-adv-x="702" 
d="M15 775v221h138l16 278h257l1 -278h211v-221h-205v-451q0 -54 23 -83t80 -29q55 0 120 13l16 -219q-92 -26 -214 -26q-133 0 -211.5 57.5t-90.5 176.5q-5 56 -8 143t-2.5 244.5t0.5 173.5h-131z" />
    <glyph glyph-name="u" unicode="u" horiz-adv-x="1123" 
d="M994 0h-245l-15 106q-77 -56 -165.5 -91t-174.5 -35q-135 0 -208.5 74.5t-73.5 214.5v727h287v-639q0 -120 113 -120q42 0 95 19.5t100 53.5v686h287v-996z" />
    <glyph glyph-name="v" unicode="v" horiz-adv-x="1027" 
d="M710 996h302l-315 -996h-367l-315 996h302l196 -730z" />
    <glyph glyph-name="w" unicode="w" horiz-adv-x="1515" 
d="M1204 996h294l-260 -996h-330l-151 600l-149 -600h-330l-260 996h294l160 -716l167 700h237l167 -700z" />
    <glyph glyph-name="x" unicode="x" horiz-adv-x="1011" 
d="M345 996l160 -355l162 355h308l-252 -484l266 -512h-305l-179 378l-178 -378h-305l265 496l-250 500h308z" />
    <glyph glyph-name="y" unicode="y" horiz-adv-x="1054" 
d="M549 -448h-288l154 448h-93l-311 996h302l201 -746l212 746h310l-332 -996z" />
    <glyph glyph-name="z" unicode="z" horiz-adv-x="859" 
d="M76 781v215h718v-199l-423 -581h439v-216h-748v195l419 586h-405z" />
    <glyph glyph-name="braceleft" unicode="{" horiz-adv-x="739" 
d="M502 1330v-372q0 -122 -39 -188t-130 -93q80 -22 124.5 -80.5t44.5 -187.5v-372q0 -60 28 -93t75 -33h96v-236h-165q-135 0 -219 82.5t-84 210.5v453q0 53 -28.5 96.5t-84.5 43.5h-55v233h55q54 0 83.5 39.5t29.5 88.5v452q0 135 83.5 220t219.5 85h165v-236h-96
q-46 0 -74.5 -31t-28.5 -82z" />
    <glyph glyph-name="bar" unicode="|" horiz-adv-x="560" 
d="M140 1679h280v-2004h-280v2004z" />
    <glyph glyph-name="braceright" unicode="}" horiz-adv-x="739" 
d="M236 24v371q0 123 39 189t131 92q-80 22 -125 81t-45 187v373q0 59 -28 92t-74 33h-96v236h165q135 0 218.5 -82.5t83.5 -210.5v-452q0 -53 28.5 -96.5t84.5 -43.5h56v-234h-56q-54 0 -83.5 -39.5t-29.5 -88.5v-451q0 -135 -83 -220.5t-219 -85.5h-165v236h96
q45 0 73.5 31t28.5 83z" />
    <glyph glyph-name="asciitilde" unicode="~" horiz-adv-x="1005" 
d="M355 670q63 0 158 -37t139 -37q80 0 163 77l109 -133q-42 -74 -115 -125t-160 -51q-62 0 -157 37t-140 37q-81 0 -162 -77l-109 126q42 78 114.5 130.5t159.5 52.5z" />
    <glyph glyph-name="exclamdown" unicode="&#xa1;" horiz-adv-x="479" 
d="M77 -358l42 948h241l42 -948h-325zM83 868q0 64 35.5 106t120.5 42q156 0 156 -148q0 -149 -156 -149t-156 149z" />
    <glyph glyph-name="cent" unicode="&#xa2;" horiz-adv-x="993" 
d="M447 1482h262l-15 -272q96 -10 162 -34l-25 -222q-103 30 -195 30q-86 0 -142 -45.5t-56 -122.5v-285q0 -74 57 -116.5t151 -42.5q90 0 203 26l19 -219q-82 -27 -186 -36l15 -271h-262l16 285q-136 32 -218.5 125.5t-82.5 232.5v318q0 148 85.5 243.5t227.5 124.5z" />
    <glyph glyph-name="sterling" unicode="&#xa3;" horiz-adv-x="1191" 
d="M159 758h140v189q0 82 23.5 158t79 135t145.5 96.5t217 37.5q129 0 280 -33l-24 -247q-125 24 -224 24t-151 -51t-52 -149v-160h335v-164h-335v-209q0 -102 -61 -161h526v-244h-919v244q80 0 120 39t40 128v203h-140v164z" />
    <glyph glyph-name="currency" unicode="&#xa4;" horiz-adv-x="1346" 
d="M256 96l-153 143l190 222q-53 88 -53 197v40q0 104 49 188l-189 215l153 144l214 -196q96 47 207 47t205 -46l215 195l152 -144l-188 -214q50 -85 50 -189v-40q0 -111 -55 -198l190 -221l-152 -143l-223 207q-87 -43 -194 -43q-109 0 -196 43zM495 691v-25
q0 -82 47.5 -132t131.5 -50t131.5 50t47.5 132v25q0 81 -47.5 131t-131.5 50t-131.5 -50t-47.5 -131z" />
    <glyph glyph-name="yen" unicode="&#xa5;" horiz-adv-x="1304" 
d="M651 875l238 479h303l-253 -476h172v-153h-918v153h170l-251 476h304zM224 627h856v-153h-278v-474h-300v474h-278v153z" />
    <glyph glyph-name="brokenbar" unicode="&#xa6;" horiz-adv-x="560" 
d="M140 1679h280v-803h-280v803zM140 478h280v-802h-280v802z" />
    <glyph glyph-name="section" unicode="&#xa7;" horiz-adv-x="1317" 
d="M1145 1293q-147 48 -281 62q-57 -56 -57 -138q0 -92 76 -230l190 -340q64 -113 98 -211.5t34 -199.5q0 -136 -71.5 -245.5t-214 -172t-331.5 -62.5q-107 0 -234.5 23t-226.5 63l45 221q132 -48 280 -63q58 57 58 138q0 93 -77 230l-190 340q-64 115 -97.5 212.5
t-33.5 198.5q0 136 71 245.5t213.5 172t331.5 62.5q108 0 232.5 -22.5t228.5 -62.5zM776 184q0 -107 -74 -181q236 35 236 246q0 54 -19 119.5t-93 196.5l-200 351q-86 150 -86 255q0 109 74 181q-236 -36 -236 -245q0 -54 19.5 -119.5t93.5 -197.5l199 -351
q86 -150 86 -255z" />
    <glyph glyph-name="dieresis" unicode="&#xa8;" horiz-adv-x="891" 
d="M73 1283q0 148 157 148q76 0 116 -37.5t40 -110.5q0 -149 -156 -149q-76 0 -116.5 37.5t-40.5 111.5zM505 1283q0 64 35.5 106t120.5 42q157 0 157 -148q0 -149 -157 -149q-156 0 -156 149z" />
    <glyph glyph-name="copyright" unicode="&#xa9;" horiz-adv-x="1539" 
d="M73 676q0 186 83 346.5t245 256t366 95.5q187 0 347 -83.5t255.5 -246.5t95.5 -368q0 -186 -83.5 -345.5t-246 -255t-368.5 -95.5q-185 0 -344.5 83.5t-254.5 245.5t-95 367zM235 676q0 -113 39.5 -212t111.5 -171.5t171 -112.5t211 -40q113 0 212 40t171.5 112.5
t112.5 171.5t40 212q0 114 -40 213.5t-112.5 172t-171.5 112.5t-212 40q-112 0 -211 -40t-171 -112.5t-111.5 -172t-39.5 -213.5zM652 702v-53q0 -77 41.5 -118.5t114.5 -41.5q71 0 136 17l14 -188q-79 -24 -183 -24q-152 0 -245.5 80t-100.5 237l-1 66l2 66q5 95 46.5 164
t119.5 111t190 42q41 0 89 -7t80 -19l-23 -189q-70 19 -127 19q-74 0 -113.5 -42.5t-39.5 -119.5z" />
    <glyph glyph-name="ordfeminine" unicode="&#xaa;" horiz-adv-x="763" 
d="M45 848q0 53 24 97.5t83.5 76.5t154.5 32h123v33q0 42 -24.5 66.5t-89.5 24.5q-98 0 -214 -34l-28 176q45 16 119.5 30.5t151.5 14.5q161 0 231 -61.5t70 -209.5v-219q0 -48 41 -48l49 5l2 -169q-49 -22 -119 -22q-47 0 -87 19.5t-64 55.5q-38 -31 -91 -53t-110 -22
q-100 0 -161 51.5t-61 155.5zM327 799q47 0 103 32v93h-98q-76 0 -76 -64q0 -30 19.5 -45.5t51.5 -15.5z" />
    <glyph glyph-name="guillemotleft" unicode="&#xab;" horiz-adv-x="1033" 
d="M367 498l187 -378l-217 -89l-252 467l252 467l217 -89zM804 498l173 -378l-216 -81l-236 459l236 459l216 -81z" />
    <glyph glyph-name="logicalnot" unicode="&#xac;" horiz-adv-x="1128" 
d="M731 307v249h-600v242h866v-491h-266z" />
    <glyph glyph-name="uni00AD" unicode="&#xad;" horiz-adv-x="745" 
d="M81 386v224h583v-224h-583z" />
    <glyph glyph-name="registered" unicode="&#xae;" horiz-adv-x="1539" 
d="M73 676q0 186 83 346.5t245 256t366 95.5q187 0 347 -83.5t255.5 -246.5t95.5 -368q0 -186 -83.5 -345.5t-246 -255t-368.5 -95.5q-185 0 -344.5 83.5t-254.5 245.5t-95 367zM235 676q0 -113 39.5 -212t111.5 -171.5t171 -112.5t211 -40q113 0 212 40t171.5 112.5
t112.5 171.5t40 212q0 114 -40 213.5t-112.5 172t-171.5 112.5t-212 40q-112 0 -211 -40t-171 -112.5t-111.5 -172t-39.5 -213.5zM1076 769q0 -72 -37 -125t-97 -80l148 -257h-218l-113 222h-81v-222h-198v739h309q127 0 207 -62t80 -181v-34zM765 886h-87v-205h87
q51 0 80 22.5t29 62.5v24q0 44 -28 70t-81 26z" />
    <glyph glyph-name="macron" unicode="&#xaf;" horiz-adv-x="769" 
d="M73 1170v221h623v-221h-623z" />
    <glyph glyph-name="degree" unicode="&#xb0;" horiz-adv-x="788" 
d="M69 1011v76q0 84 39 146t112.5 99.5t173.5 37.5t173.5 -37.5t113 -99.5t39.5 -146v-76q0 -84 -39.5 -146t-113 -99.5t-173.5 -37.5t-173.5 37.5t-112.5 99.5t-39 146zM285 1072v-45q0 -51 30 -81t79 -30q48 0 78.5 30t30.5 81v45q0 50 -30.5 80t-78.5 30q-49 0 -79 -30
t-30 -80z" />
    <glyph glyph-name="plusminus" unicode="&#xb1;" horiz-adv-x="1062" 
d="M396 1267h276v-281h259v-241h-259v-281h-276v281h-259v241h259v281zM168 327h733v-234h-733v234z" />
    <glyph glyph-name="uni00B2" unicode="&#xb2;" horiz-adv-x="649" 
d="M611 839v-188h-567v178q39 22 84 47.5t103.5 63.5t86.5 75t28 68q0 40 -32.5 60t-87.5 20q-68 0 -158 -18l-20 192q113 27 226 27q99 0 169 -32t107.5 -89.5t37.5 -140.5q0 -146 -232 -263h255z" />
    <glyph glyph-name="uni00B3" unicode="&#xb3;" horiz-adv-x="622" 
d="M110 940v127h119q90 0 90 56q0 29 -27.5 44.5t-78.5 15.5q-75 0 -153 -17l-19 171q30 8 90.5 17.5t120.5 9.5q142 0 224.5 -54t82.5 -154q0 -103 -97 -146q50 -18 79.5 -59.5t29.5 -104.5q0 -102 -83.5 -153.5t-240.5 -51.5q-118 0 -208 22l18 179q77 -18 156 -18
q118 0 118 57q0 22 -22.5 40.5t-77.5 18.5h-121z" />
    <glyph glyph-name="acute" unicode="&#xb4;" horiz-adv-x="639" 
d="M250 1081l-177 54l229 365l263 -93z" />
    <glyph glyph-name="uni00B5" unicode="&#xb5;" horiz-adv-x="1129" 
d="M1001 0h-246l-15 105q-118 -94 -227 -101q-57 -7 -108 6q-4 -157 -80.5 -268.5t-275.5 -209.5l-126 186q108 72 151.5 140t43.5 168v970h287v-639q0 -120 113 -120q43 0 95.5 19.5t100.5 53.5v686h287v-996z" />
    <glyph glyph-name="paragraph" unicode="&#xb6;" horiz-adv-x="1232" 
d="M581 1354h65v-1004h-65q-225 0 -356 120.5t-131 336.5v82q0 216 131.5 340.5t355.5 124.5zM780 1354h290v-1299q0 -153 -79 -264t-279 -209l-126 185q120 79 157 150t37 158v1279z" />
    <glyph glyph-name="periodcentered" unicode="&#xb7;" horiz-adv-x="459" 
d="M73 497q0 149 157 149q156 0 156 -149q0 -64 -35.5 -106t-120.5 -42q-76 0 -116.5 37.5t-40.5 110.5z" />
    <glyph glyph-name="cedilla" unicode="&#xb8;" horiz-adv-x="576" 
d="M183 20h139l-15 -114q90 -9 143 -56t53 -132q0 -46 -25.5 -85.5t-91 -70t-174.5 -30.5q-79 0 -139 15l17 161q50 -11 92 -11q48 0 78 15.5t30 45.5q0 29 -24 44.5t-66 15.5h-63z" />
    <glyph glyph-name="uni00B9" unicode="&#xb9;" horiz-adv-x="608" 
d="M590 837v-186h-544v186h167v304l-166 -33l-12 180l237 66h168v-517h150z" />
    <glyph glyph-name="ordmasculine" unicode="&#xba;" horiz-adv-x="802" 
d="M63 924v157q0 84 41 146t117 99.5t179 37.5q104 0 180.5 -36.5t117.5 -97.5t41 -143v-157q0 -86 -41 -149t-117.5 -101.5t-180.5 -38.5q-103 0 -179 37.5t-117 99.5t-41 146zM280 1065v-125q0 -51 33 -81t87 -30t88 31.5t34 85.5v126q0 48 -34 76t-88 28t-87 -30t-33 -81
z" />
    <glyph glyph-name="guillemotright" unicode="&#xbb;" horiz-adv-x="1033" 
d="M229 498l-173 377l216 82l236 -459l-236 -459l-216 81zM666 498l-187 378l217 88l252 -466l-252 -467l-217 88z" />
    <glyph glyph-name="questiondown" unicode="&#xbf;" horiz-adv-x="786" 
d="M309 868q0 148 157 148q76 0 116 -37.5t40 -110.5q0 -149 -156 -149q-76 0 -116.5 37.5t-40.5 111.5zM357 594h222q11 -42 7 -100q-3 -35 -18 -77.5t-41.5 -79t-112.5 -133t-86 -182.5q0 -66 44.5 -104t139.5 -38q98 0 230 46l42 -245q-160 -59 -334 -59
q-131 0 -224 44.5t-142.5 121t-49.5 184.5q0 59 17.5 120.5t57.5 120t123.5 148.5t103.5 135q18 41 21 98z" />
    <glyph glyph-name="Agrave" unicode="&#xc0;" horiz-adv-x="1244" 
d="M1222 0h-317l-75 289h-416l-75 -289h-317l388 1354h425zM622 1128l-158 -606h317zM773 1494l-177 -54l-315 326l263 92z" />
    <glyph glyph-name="Aacute" unicode="&#xc1;" horiz-adv-x="1244" 
d="M1222 0h-317l-75 289h-416l-75 -289h-317l388 1354h425zM622 1128l-158 -606h317zM625 1440l-176 54l228 364l264 -92z" />
    <glyph glyph-name="Acircumflex" unicode="&#xc2;" horiz-adv-x="1244" 
d="M1222 0h-317l-75 289h-416l-75 -289h-317l388 1354h425zM622 1128l-158 -606h317zM280 1469l199 364h285l199 -364l-243 -13l-98 212l-99 -212z" />
    <glyph glyph-name="Atilde" unicode="&#xc3;" horiz-adv-x="1244" 
d="M1222 0h-317l-75 289h-416l-75 -289h-317l388 1354h425zM622 1128l-158 -606h317zM499 1784q48 0 126.5 -30t110.5 -30q60 0 119 69l131 -94q-12 -34 -40.5 -82t-81.5 -86t-119 -38q-48 0 -126.5 29.5t-110.5 29.5q-62 0 -119 -69l-131 94q12 34 40.5 82t81 86.5
t119.5 38.5z" />
    <glyph glyph-name="Adieresis" unicode="&#xc4;" horiz-adv-x="1244" 
d="M1222 0h-317l-75 289h-416l-75 -289h-317l388 1354h425zM622 1128l-158 -606h317zM248 1641q0 148 156 148t156 -148q0 -64 -35.5 -106t-120.5 -42q-76 0 -116 37.5t-40 110.5zM683 1641q0 148 156 148q157 0 157 -148t-157 -148q-76 0 -116 37.5t-40 110.5z" />
    <glyph glyph-name="Aring" unicode="&#xc5;" horiz-adv-x="1244" 
d="M1222 0h-317l-75 289h-416l-75 -289h-317l388 1354h425zM365 1654q0 104 70.5 166.5t188.5 62.5q114 0 184.5 -61.5t70.5 -160.5q0 -104 -70.5 -166.5t-189.5 -62.5q-114 0 -184 61.5t-70 160.5zM622 1128l-158 -606h317zM538 1658q0 -33 24 -55.5t59 -22.5
q37 0 60.5 21.5t23.5 54.5q0 35 -23.5 57.5t-59.5 22.5t-60 -22t-24 -56z" />
    <glyph glyph-name="AE" unicode="&#xc6;" horiz-adv-x="1658" 
d="M914 0l-42 283h-421l-112 -283h-317l569 1354h994v-251h-535l53 -305h462v-235h-435l55 -312h421v-251h-692zM761 1093l-231 -577h317z" />
    <glyph glyph-name="Ccedilla" unicode="&#xc7;" horiz-adv-x="969" 
d="M899 269l28 -237q-64 -22 -155 -37t-179 -15l-9 -74q90 -9 142.5 -56t52.5 -132q0 -46 -25.5 -85.5t-91 -70t-174.5 -30.5q-78 0 -138 15l17 161q50 -11 92 -11q48 0 77.5 15.5t29.5 45.5q0 29 -24 44.5t-66 15.5h-62l40 177q-98 21 -185 79.5t-133 154.5t-46 204v475
q0 125 55 229.5t176.5 170.5t281.5 66q74 0 160.5 -14t147.5 -38l-36 -238q-37 12 -106 26t-141 14q-104 0 -172 -65t-68 -175v-427q0 -106 69 -166.5t185 -60.5q125 0 257 39z" />
    <glyph glyph-name="Egrave" unicode="&#xc8;" horiz-adv-x="1040" 
d="M132 0v1354h835v-251h-537v-305h517v-235h-517v-312h558v-251h-856zM721 1494l-177 -54l-315 326l263 92z" />
    <glyph glyph-name="Eacute" unicode="&#xc9;" horiz-adv-x="1040" 
d="M132 0v1354h835v-251h-537v-305h517v-235h-517v-312h558v-251h-856zM575 1440l-177 54l229 364l263 -92z" />
    <glyph glyph-name="Ecircumflex" unicode="&#xca;" horiz-adv-x="1040" 
d="M132 0v1354h835v-251h-537v-305h517v-235h-517v-312h558v-251h-856zM204 1469l199 364h284l200 -364l-244 -13l-98 212l-98 -212z" />
    <glyph glyph-name="Edieresis" unicode="&#xcb;" horiz-adv-x="1040" 
d="M132 0v1354h835v-251h-537v-305h517v-235h-517v-312h558v-251h-856zM177 1641q0 148 156 148t156 -148q0 -64 -35.5 -106t-120.5 -42q-76 0 -116 37.5t-40 110.5zM612 1641q0 148 156 148q157 0 157 -148t-157 -148q-76 0 -116 37.5t-40 110.5z" />
    <glyph glyph-name="Igrave" unicode="&#xcc;" horiz-adv-x="561" 
d="M429 1354v-1354h-297v1354h297zM445 1494l-176 -54l-316 326l264 92z" />
    <glyph glyph-name="Iacute" unicode="&#xcd;" horiz-adv-x="561" 
d="M429 1354v-1354h-297v1354h297zM301 1440l-177 54l228 364l264 -92z" />
    <glyph glyph-name="Icircumflex" unicode="&#xce;" horiz-adv-x="561" 
d="M429 1354v-1354h-297v1354h297zM-61 1469l199 364h285l199 -364l-243 -13l-98 212l-98 -212z" />
    <glyph glyph-name="Idieresis" unicode="&#xcf;" horiz-adv-x="561" 
d="M429 1354v-1354h-297v1354h297zM-87 1641q0 148 156 148t156 -148t-156 -148q-76 0 -116 37.5t-40 110.5zM336 1641q0 148 156 148t156 -148t-156 -148q-76 0 -116 37.5t-40 110.5z" />
    <glyph glyph-name="Eth" unicode="&#xd0;" horiz-adv-x="1232" 
d="M31 598v156h113v600h484q111 0 206.5 -30.5t164.5 -88.5t106.5 -141.5t37.5 -183.5v-474q0 -216 -139.5 -326t-375.5 -110h-484v598h-113zM845 440v431q0 63 -22.5 122.5t-77 93t-129.5 33.5h-174v-366h228v-156h-228v-364h174q112 0 170.5 54.5t58.5 151.5z" />
    <glyph glyph-name="Ntilde" unicode="&#xd1;" horiz-adv-x="1317" 
d="M889 0l-467 861v-861h-290v1354h296l467 -861v861h290v-1354h-296zM533 1784q48 0 126.5 -30t110.5 -30q60 0 119 69l131 -94q-12 -34 -40.5 -82t-81 -86t-119.5 -38q-48 0 -126.5 29.5t-110.5 29.5q-61 0 -118 -69l-132 94q12 34 40.5 82t81 86.5t119.5 38.5z" />
    <glyph glyph-name="Ograve" unicode="&#xd2;" horiz-adv-x="1219" 
d="M789 1494l-177 -54l-315 326l263 92zM90 436v482q0 218 142 337t377 119q236 0 378.5 -119t142.5 -337v-482q0 -219 -142 -337.5t-379 -118.5q-236 0 -377.5 118.5t-141.5 337.5zM388 925v-496q0 -100 58 -158t163 -58t163.5 58t58.5 158v496q0 100 -58.5 157.5
t-163.5 57.5t-163 -57.5t-58 -157.5z" />
    <glyph glyph-name="Oacute" unicode="&#xd3;" horiz-adv-x="1219" 
d="M612 1440l-177 54l228 364l264 -92zM90 436v482q0 218 142 337t377 119q236 0 378.5 -119t142.5 -337v-482q0 -219 -142 -337.5t-379 -118.5q-236 0 -377.5 118.5t-141.5 337.5zM388 925v-496q0 -100 58 -158t163 -58t163.5 58t58.5 158v496q0 100 -58.5 157.5
t-163.5 57.5t-163 -57.5t-58 -157.5z" />
    <glyph glyph-name="Ocircumflex" unicode="&#xd4;" horiz-adv-x="1219" 
d="M268 1469l199 364h285l199 -364l-243 -13l-98 212l-98 -212zM90 436v482q0 218 142 337t377 119q236 0 378.5 -119t142.5 -337v-482q0 -219 -142 -337.5t-379 -118.5q-236 0 -377.5 118.5t-141.5 337.5zM388 925v-496q0 -100 58 -158t163 -58t163.5 58t58.5 158v496
q0 100 -58.5 157.5t-163.5 57.5t-163 -57.5t-58 -157.5z" />
    <glyph glyph-name="Otilde" unicode="&#xd5;" horiz-adv-x="1219" 
d="M486 1784q48 0 126.5 -30t110.5 -30q60 0 119 69l131 -94q-12 -34 -40.5 -82t-81 -86t-119.5 -38q-48 0 -126.5 29.5t-110.5 29.5q-61 0 -118 -69l-132 94q12 34 40.5 82t81 86.5t119.5 38.5zM90 436v482q0 218 142 337t377 119q236 0 378.5 -119t142.5 -337v-482
q0 -219 -142 -337.5t-379 -118.5q-236 0 -377.5 118.5t-141.5 337.5zM388 925v-496q0 -100 58 -158t163 -58t163.5 58t58.5 158v496q0 100 -58.5 157.5t-163.5 57.5t-163 -57.5t-58 -157.5z" />
    <glyph glyph-name="Odieresis" unicode="&#xd6;" horiz-adv-x="1219" 
d="M236 1641q0 148 156 148t156 -148t-156 -148q-76 0 -116 37.5t-40 110.5zM671 1641q0 148 156 148q157 0 157 -148t-157 -148q-75 0 -115.5 37.5t-40.5 110.5zM90 436v482q0 218 142 337t377 119q236 0 378.5 -119t142.5 -337v-482q0 -219 -142 -337.5t-379 -118.5
q-236 0 -377.5 118.5t-141.5 337.5zM388 925v-496q0 -100 58 -158t163 -58t163.5 58t58.5 158v496q0 100 -58.5 157.5t-163.5 57.5t-163 -57.5t-58 -157.5z" />
    <glyph glyph-name="multiply" unicode="&#xd7;" horiz-adv-x="1104" 
d="M788 1098l185 -185l-239 -240l231 -230l-179 -180l-231 232l-239 -239l-185 185l238 239l-231 231l179 179l232 -230z" />
    <glyph glyph-name="Oslash" unicode="&#xd8;" horiz-adv-x="1219" 
d="M90 436v482q0 218 142 337t377 119q98 0 182 -21l104 244h169l-130 -303q93 -57 144.5 -152.5t51.5 -223.5v-482q0 -219 -142 -337.5t-379 -118.5q-103 0 -190 23l-106 -245h-168l130 307q-185 120 -185 371zM388 925v-496q0 -100 58 -158t163 -58t163.5 58t58.5 158v496
q0 100 -58.5 157.5t-163.5 57.5t-163 -57.5t-58 -157.5z" />
    <glyph glyph-name="Ugrave" unicode="&#xd9;" horiz-adv-x="1258" 
d="M838 1354h298v-936q0 -205 -136 -321.5t-371 -116.5t-371 116.5t-136 321.5v936h297v-938q0 -86 57.5 -139t152.5 -53t152 53t57 139v938zM768 1494l-177 -54l-315 326l263 92z" />
    <glyph glyph-name="Uacute" unicode="&#xda;" horiz-adv-x="1258" 
d="M838 1354h298v-936q0 -205 -136 -321.5t-371 -116.5t-371 116.5t-136 321.5v936h297v-938q0 -86 57.5 -139t152.5 -53t152 53t57 139v938zM651 1440l-176 54l228 364l264 -92z" />
    <glyph glyph-name="Ucircumflex" unicode="&#xdb;" horiz-adv-x="1258" 
d="M838 1354h298v-936q0 -205 -136 -321.5t-371 -116.5t-371 116.5t-136 321.5v936h297v-938q0 -86 57.5 -139t152.5 -53t152 53t57 139v938zM288 1469l199 364h284l200 -364l-244 -13l-98 212l-98 -212z" />
    <glyph glyph-name="Udieresis" unicode="&#xdc;" horiz-adv-x="1258" 
d="M838 1354h298v-936q0 -205 -136 -321.5t-371 -116.5t-371 116.5t-136 321.5v936h297v-938q0 -86 57.5 -139t152.5 -53t152 53t57 139v938zM255 1641q0 148 156 148q157 0 157 -148t-157 -148q-75 0 -115.5 37.5t-40.5 110.5zM690 1641q0 148 157 148q156 0 156 -148
q0 -64 -35.5 -106t-120.5 -42q-76 0 -116.5 37.5t-40.5 110.5z" />
    <glyph glyph-name="Yacute" unicode="&#xdd;" horiz-adv-x="1150" 
d="M816 1354h306l-399 -871v-483h-297v483l-398 871h305l242 -582zM605 1440l-176 54l228 364l264 -92z" />
    <glyph glyph-name="Thorn" unicode="&#xde;" horiz-adv-x="1158" 
d="M614 203h-185v-203h-297v1354h297v-203h185q158 0 266 -56t162.5 -147.5t54.5 -216.5v-115q0 -125 -54.5 -215t-162 -144t-266.5 -54zM605 916h-176v-478h176q98 0 147 56t49 156v69q0 93 -50 145t-146 52z" />
    <glyph glyph-name="germandbls" unicode="&#xdf;" horiz-adv-x="1246" 
d="M409 1073v-1073h-287v1101q0 58 21 120.5t71.5 116t133 90t193.5 36.5q83 0 169 -18t164.5 -66.5t115.5 -120t37 -141.5q0 -50 -20.5 -104.5t-100.5 -148.5q-62 -72 -83.5 -104t-21.5 -62t19.5 -53.5t132.5 -63.5q141 -51 198.5 -118.5t57.5 -189.5q0 -146 -95.5 -220
t-275.5 -74q-76 0 -171.5 12.5t-159.5 38.5l34 204q42 -15 113 -29.5t134 -14.5q151 0 151 86q0 40 -33.5 63.5t-162.5 63.5q-107 34 -160.5 94t-53.5 163q0 7 1.5 27t14 63.5t103.5 154.5q53 65 79 107t26 79q0 60 -55.5 100t-136.5 40q-70 0 -111 -41.5t-41 -117.5z" />
    <glyph glyph-name="agrave" unicode="&#xe0;" horiz-adv-x="1033" 
d="M58 268q0 92 44.5 156t126 100.5t192.5 36.5h177v69q0 73 -38 110.5t-136 37.5q-128 0 -285 -47l-36 225q186 60 362 60q217 0 311.5 -92t94.5 -302v-326q0 -38 15.5 -58.5t43.5 -20.5q29 0 64 8l3 -216q-65 -29 -156 -29q-134 0 -197 102q-139 -102 -285 -102
q-138 0 -219.5 72.5t-81.5 215.5zM435 175q83 0 163 52v177h-147q-60 0 -94 -31.5t-34 -88.5q0 -52 32 -80.5t80 -28.5zM652 1135l-177 -54l-315 326l264 93z" />
    <glyph glyph-name="aacute" unicode="&#xe1;" horiz-adv-x="1033" 
d="M58 268q0 92 44.5 156t126 100.5t192.5 36.5h177v69q0 73 -38 110.5t-136 37.5q-128 0 -285 -47l-36 225q186 60 362 60q217 0 311.5 -92t94.5 -302v-326q0 -38 15.5 -58.5t43.5 -20.5q29 0 64 8l3 -216q-65 -29 -156 -29q-134 0 -197 102q-139 -102 -285 -102
q-138 0 -219.5 72.5t-81.5 215.5zM435 175q83 0 163 52v177h-147q-60 0 -94 -31.5t-34 -88.5q0 -52 32 -80.5t80 -28.5zM485 1081l-177 54l228 365l264 -93z" />
    <glyph glyph-name="acircumflex" unicode="&#xe2;" horiz-adv-x="1033" 
d="M58 268q0 92 44.5 156t126 100.5t192.5 36.5h177v69q0 73 -38 110.5t-136 37.5q-128 0 -285 -47l-36 225q186 60 362 60q217 0 311.5 -92t94.5 -302v-326q0 -38 15.5 -58.5t43.5 -20.5q29 0 64 8l3 -216q-65 -29 -156 -29q-134 0 -197 102q-139 -102 -285 -102
q-138 0 -219.5 72.5t-81.5 215.5zM435 175q83 0 163 52v177h-147q-60 0 -94 -31.5t-34 -88.5q0 -52 32 -80.5t80 -28.5zM139 1110l199 365h284l200 -365l-244 -12l-98 211l-98 -211z" />
    <glyph glyph-name="atilde" unicode="&#xe3;" horiz-adv-x="1033" 
d="M58 268q0 92 44.5 156t126 100.5t192.5 36.5h177v69q0 73 -38 110.5t-136 37.5q-128 0 -285 -47l-36 225q186 60 362 60q217 0 311.5 -92t94.5 -302v-326q0 -38 15.5 -58.5t43.5 -20.5q29 0 64 8l3 -216q-65 -29 -156 -29q-134 0 -197 102q-139 -102 -285 -102
q-138 0 -219.5 72.5t-81.5 215.5zM435 175q83 0 163 52v177h-147q-60 0 -94 -31.5t-34 -88.5q0 -52 32 -80.5t80 -28.5zM334 1425q48 0 126.5 -29.5t110.5 -29.5q61 0 119 68l131 -93q-12 -34 -40.5 -82t-81.5 -86.5t-119 -38.5q-48 0 -126.5 29.5t-110.5 29.5
q-62 0 -118 -68l-132 93q12 34 40.5 82.5t81 86.5t119.5 38z" />
    <glyph glyph-name="adieresis" unicode="&#xe4;" horiz-adv-x="1033" 
d="M58 268q0 92 44.5 156t126 100.5t192.5 36.5h177v69q0 73 -38 110.5t-136 37.5q-128 0 -285 -47l-36 225q186 60 362 60q217 0 311.5 -92t94.5 -302v-326q0 -38 15.5 -58.5t43.5 -20.5q29 0 64 8l3 -216q-65 -29 -156 -29q-134 0 -197 102q-139 -102 -285 -102
q-138 0 -219.5 72.5t-81.5 215.5zM435 175q83 0 163 52v177h-147q-60 0 -94 -31.5t-34 -88.5q0 -52 32 -80.5t80 -28.5zM96 1283q0 148 157 148q76 0 116 -37.5t40 -110.5q0 -149 -156 -149q-76 0 -116.5 37.5t-40.5 111.5zM532 1283q0 148 156 148t156 -148
q0 -149 -156 -149t-156 149z" />
    <glyph glyph-name="aring" unicode="&#xe5;" horiz-adv-x="1033" 
d="M58 268q0 92 44.5 156t126 100.5t192.5 36.5h177v69q0 73 -38 110.5t-136 37.5q-128 0 -285 -47l-36 225q186 60 362 60q217 0 311.5 -92t94.5 -302v-326q0 -38 15.5 -58.5t43.5 -20.5q29 0 64 8l3 -216q-65 -29 -156 -29q-134 0 -197 102q-139 -102 -285 -102
q-138 0 -219.5 72.5t-81.5 215.5zM211 1296q0 103 70.5 166t188.5 63q114 0 184.5 -61.5t70.5 -161.5q0 -103 -71 -165.5t-189 -62.5q-114 0 -184 61.5t-70 160.5zM435 175q83 0 163 52v177h-147q-60 0 -94 -31.5t-34 -88.5q0 -52 32 -80.5t80 -28.5zM384 1300
q0 -33 24 -55.5t59 -22.5q37 0 61 21.5t24 54.5q0 35 -24 57t-60 22t-60 -22t-24 -55z" />
    <glyph glyph-name="ae" unicode="&#xe6;" horiz-adv-x="1522" 
d="M58 270q0 92 44.5 156t126 101t192.5 37h177v66q0 73 -38 110.5t-136 37.5q-128 0 -285 -47l-36 225q186 60 362 60q193 0 276 -95q52 46 124.5 70.5t154.5 24.5q192 0 307 -112.5t115 -313.5v-64l-4 -107h-572v-32q0 -177 229 -177q140 0 305 35l24 -216
q-173 -49 -371 -49q-115 0 -208 35.5t-153 103.5q-63 -56 -152 -97.5t-181 -41.5q-138 0 -219.5 73.5t-81.5 216.5zM866 620v-48h309v40q0 187 -155 187q-76 0 -115 -46t-39 -133zM599 381l-8 26h-140q-60 0 -94 -32t-34 -89q0 -50 30 -79.5t74 -31.5q103 0 194 70
q-22 63 -22 136z" />
    <glyph glyph-name="ccedilla" unicode="&#xe7;" horiz-adv-x="853" 
d="M369 571v-149q0 -98 55 -152.5t154 -54.5t198 24l19 -227q-121 -32 -248 -32l-23 1l-10 -75q90 -9 143 -56t53 -132q0 -46 -25.5 -85.5t-91 -70t-174.5 -30.5q-78 0 -138 15l16 161q50 -11 92 -11q47 0 77.5 15.5t30.5 45.5q0 29 -24 44.5t-66 15.5h-62l40 179
q-142 34 -220.5 138t-78.5 270v139l1 76q3 69 26 139.5t75 127t136.5 93t202.5 36.5q58 0 132.5 -9.5t132.5 -25.5l-31 -229q-1 0 -2.5 0.5t-33.5 8t-75.5 13.5t-79.5 6q-95 0 -148 -56t-53 -153z" />
    <glyph glyph-name="egrave" unicode="&#xe8;" horiz-adv-x="1015" 
d="M80 397v194q0 99 31 179.5t88.5 135t137.5 82.5t176 28q93 0 171 -28.5t134 -83t86.5 -134.5t30.5 -180l-4 -165h-573v-38q0 -177 229 -177q141 0 306 35l23 -216q-170 -49 -371 -49q-102 0 -188 27t-148 80t-95.5 132t-33.5 178zM358 620v-42h310v34q0 187 -155 187
q-76 0 -115.5 -46t-39.5 -133zM666 1135l-176 -54l-316 326l264 93z" />
    <glyph glyph-name="eacute" unicode="&#xe9;" horiz-adv-x="1015" 
d="M80 397v194q0 99 31 179.5t88.5 135t137.5 82.5t176 28q93 0 171 -28.5t134 -83t86.5 -134.5t30.5 -180l-4 -165h-573v-38q0 -177 229 -177q141 0 306 35l23 -216q-170 -49 -371 -49q-102 0 -188 27t-148 80t-95.5 132t-33.5 178zM358 620v-42h310v34q0 187 -155 187
q-76 0 -115.5 -46t-39.5 -133zM519 1081l-177 54l228 365l264 -93z" />
    <glyph glyph-name="ecircumflex" unicode="&#xea;" horiz-adv-x="1015" 
d="M80 397v194q0 99 31 179.5t88.5 135t137.5 82.5t176 28q93 0 171 -28.5t134 -83t86.5 -134.5t30.5 -180l-4 -165h-573v-38q0 -177 229 -177q141 0 306 35l23 -216q-170 -49 -371 -49q-102 0 -188 27t-148 80t-95.5 132t-33.5 178zM358 620v-42h310v34q0 187 -155 187
q-76 0 -115.5 -46t-39.5 -133zM166 1110l199 365h284l200 -365l-244 -12l-98 211l-98 -211z" />
    <glyph glyph-name="edieresis" unicode="&#xeb;" horiz-adv-x="1015" 
d="M80 397v194q0 99 31 179.5t88.5 135t137.5 82.5t176 28q93 0 171 -28.5t134 -83t86.5 -134.5t30.5 -180l-4 -165h-573v-38q0 -177 229 -177q141 0 306 35l23 -216q-170 -49 -371 -49q-102 0 -188 27t-148 80t-95.5 132t-33.5 178zM358 620v-42h310v34q0 187 -155 187
q-76 0 -115.5 -46t-39.5 -133zM133 1283q0 148 157 148q76 0 116 -37.5t40 -110.5q0 -149 -156 -149q-76 0 -116.5 37.5t-40.5 111.5zM569 1283q0 148 156 148q76 0 116 -37.5t40 -110.5q0 -149 -156 -149t-156 149z" />
    <glyph glyph-name="igrave" unicode="&#xec;" horiz-adv-x="518" 
d="M115 996h287v-996h-287v996zM420 1135l-177 -54l-315 326l263 93z" />
    <glyph glyph-name="iacute" unicode="&#xed;" horiz-adv-x="543" 
d="M128 996h287v-996h-287v996zM292 1081l-177 54l229 365l263 -93z" />
    <glyph glyph-name="icircumflex" unicode="&#xee;" horiz-adv-x="518" 
d="M115 996h287v-996h-287v996zM-82 1110l199 365h284l200 -365l-244 -12l-98 211l-98 -211z" />
    <glyph glyph-name="idieresis" unicode="&#xef;" horiz-adv-x="518" 
d="M115 996h287v-996h-287v996zM-109 1283q0 148 157 148q76 0 116 -37.5t40 -110.5q0 -149 -156 -149q-76 0 -116.5 37.5t-40.5 111.5zM314 1283q0 148 157 148q76 0 116 -37.5t40 -110.5q0 -149 -156 -149q-76 0 -116.5 37.5t-40.5 111.5z" />
    <glyph glyph-name="eth" unicode="&#xf0;" horiz-adv-x="1132" 
d="M591 1026l-131 84l75 126q-33 4 -85 0q-48 -3 -109 -14.5t-106 -32.5l-43 221q158 54 319 54q83 0 165 -18l95 152l131 -84l-79 -128q199 -127 199 -436v-548q0 -202 -126 -312t-346 -110q-228 0 -349 113t-121 311v158q0 119 48.5 204t143.5 135t237 50q133 0 228 -82
v65q0 159 -63 230zM367 559v-180q0 -82 47.5 -130t135.5 -48q89 0 138 50.5t49 136.5v242q-71 100 -180 100q-94 0 -142 -44.5t-48 -126.5z" />
    <glyph glyph-name="ntilde" unicode="&#xf1;" horiz-adv-x="1135" 
d="M128 996h246l15 -106q178 126 343 126q136 0 210.5 -74.5t74.5 -214.5v-727h-287v638q0 121 -116 121q-44 0 -97.5 -19.5t-101.5 -53.5v-686h-287v996zM443 1425q48 0 126.5 -29.5t110.5 -29.5q61 0 119 68l131 -93q-12 -34 -40.5 -82t-81.5 -86.5t-119 -38.5
q-48 0 -126.5 29.5t-110.5 29.5q-61 0 -119 -68l-131 93q12 34 40.5 82.5t81 86.5t119.5 38z" />
    <glyph glyph-name="ograve" unicode="&#xf2;" horiz-adv-x="1093" 
d="M86 398v199q0 74 22 149t77 134.5t144.5 97.5t217.5 38q101 0 186 -27t146 -80.5t94.5 -132.5t33.5 -179v-199q0 -74 -22 -148.5t-77 -134t-144.5 -97.5t-216.5 -38q-101 0 -186.5 27t-146.5 80t-94.5 132.5t-33.5 178.5zM373 608v-205q0 -91 43.5 -143t130.5 -52
q86 0 129.5 52t43.5 143v189q0 89 -43.5 142.5t-129.5 53.5q-83 0 -128.5 -48.5t-45.5 -131.5zM726 1135l-177 -54l-315 326l263 93z" />
    <glyph glyph-name="oacute" unicode="&#xf3;" horiz-adv-x="1093" 
d="M86 398v199q0 74 22 149t77 134.5t144.5 97.5t217.5 38q101 0 186 -27t146 -80.5t94.5 -132.5t33.5 -179v-199q0 -74 -22 -148.5t-77 -134t-144.5 -97.5t-216.5 -38q-101 0 -186.5 27t-146.5 80t-94.5 132.5t-33.5 178.5zM373 608v-205q0 -91 43.5 -143t130.5 -52
q86 0 129.5 52t43.5 143v189q0 89 -43.5 142.5t-129.5 53.5q-83 0 -128.5 -48.5t-45.5 -131.5zM568 1081l-177 54l228 365l264 -93z" />
    <glyph glyph-name="ocircumflex" unicode="&#xf4;" horiz-adv-x="1093" 
d="M86 398v199q0 74 22 149t77 134.5t144.5 97.5t217.5 38q101 0 186 -27t146 -80.5t94.5 -132.5t33.5 -179v-199q0 -74 -22 -148.5t-77 -134t-144.5 -97.5t-216.5 -38q-101 0 -186.5 27t-146.5 80t-94.5 132.5t-33.5 178.5zM373 608v-205q0 -91 43.5 -143t130.5 -52
q86 0 129.5 52t43.5 143v189q0 89 -43.5 142.5t-129.5 53.5q-83 0 -128.5 -48.5t-45.5 -131.5zM205 1110l199 365h285l199 -365l-243 -12l-98 211l-98 -211z" />
    <glyph glyph-name="otilde" unicode="&#xf5;" horiz-adv-x="1093" 
d="M86 398v199q0 74 22 149t77 134.5t144.5 97.5t217.5 38q101 0 186 -27t146 -80.5t94.5 -132.5t33.5 -179v-199q0 -74 -22 -148.5t-77 -134t-144.5 -97.5t-216.5 -38q-101 0 -186.5 27t-146.5 80t-94.5 132.5t-33.5 178.5zM373 608v-205q0 -91 43.5 -143t130.5 -52
q86 0 129.5 52t43.5 143v189q0 89 -43.5 142.5t-129.5 53.5q-83 0 -128.5 -48.5t-45.5 -131.5zM423 1425q48 0 126.5 -29.5t110.5 -29.5q61 0 119 68l131 -93q-12 -34 -40.5 -82t-81.5 -86.5t-119 -38.5q-48 0 -126.5 29.5t-110.5 29.5q-61 0 -119 -68l-131 93
q12 34 40.5 82.5t81 86.5t119.5 38z" />
    <glyph glyph-name="odieresis" unicode="&#xf6;" horiz-adv-x="1093" 
d="M86 398v199q0 74 22 149t77 134.5t144.5 97.5t217.5 38q101 0 186 -27t146 -80.5t94.5 -132.5t33.5 -179v-199q0 -74 -22 -148.5t-77 -134t-144.5 -97.5t-216.5 -38q-101 0 -186.5 27t-146.5 80t-94.5 132.5t-33.5 178.5zM373 608v-205q0 -91 43.5 -143t130.5 -52
q86 0 129.5 52t43.5 143v189q0 89 -43.5 142.5t-129.5 53.5q-83 0 -128.5 -48.5t-45.5 -131.5zM173 1283q0 148 156 148q76 0 116 -37.5t40 -110.5q0 -149 -156 -149t-156 149zM608 1283q0 64 35.5 106t120.5 42q157 0 157 -148q0 -149 -157 -149q-156 0 -156 149z" />
    <glyph glyph-name="divide" unicode="&#xf7;" horiz-adv-x="1037" 
d="M365 1023q0 148 156 148t156 -148t-156 -148q-76 0 -116 37.5t-40 110.5zM131 770h781v-164h-781v164zM365 353q0 149 156 149t156 -149q0 -148 -156 -148q-76 0 -116 37.5t-40 110.5z" />
    <glyph glyph-name="oslash" unicode="&#xf8;" horiz-adv-x="1093" 
d="M939 1238l-121 -288q91 -50 140 -139.5t49 -213.5v-199q0 -74 -22 -148.5t-77 -134t-144.5 -97.5t-216.5 -38q-69 0 -131 15l-98 -237h-163l121 287q-92 50 -141 139.5t-49 213.5v199q0 125 51 216t153.5 147t256.5 56q66 0 130 -14l100 236h162zM373 608v-205
q0 -91 43.5 -143t130.5 -52q86 0 129.5 52t43.5 143v189q0 89 -43.5 142.5t-129.5 53.5q-83 0 -128.5 -48.5t-45.5 -131.5z" />
    <glyph glyph-name="ugrave" unicode="&#xf9;" horiz-adv-x="1129" 
d="M1001 0h-246l-15 106q-77 -56 -165 -91t-175 -35q-135 0 -208.5 74.5t-73.5 214.5v727h287v-639q0 -120 113 -120q43 0 95.5 19.5t100.5 53.5v686h287v-996zM699 1135l-177 -54l-315 326l263 93z" />
    <glyph glyph-name="uacute" unicode="&#xfa;" horiz-adv-x="1129" 
d="M1001 0h-246l-15 106q-77 -56 -165 -91t-175 -35q-135 0 -208.5 74.5t-73.5 214.5v727h287v-639q0 -120 113 -120q43 0 95.5 19.5t100.5 53.5v686h287v-996zM575 1081l-177 54l229 365l263 -93z" />
    <glyph glyph-name="ucircumflex" unicode="&#xfb;" horiz-adv-x="1129" 
d="M1001 0h-246l-15 106q-77 -56 -165 -91t-175 -35q-135 0 -208.5 74.5t-73.5 214.5v727h287v-639q0 -120 113 -120q43 0 95.5 19.5t100.5 53.5v686h287v-996zM222 1110l200 365h284l199 -365l-243 -12l-98 211l-98 -211z" />
    <glyph glyph-name="udieresis" unicode="&#xfc;" horiz-adv-x="1129" 
d="M1001 0h-246l-15 106q-77 -56 -165 -91t-175 -35q-135 0 -208.5 74.5t-73.5 214.5v727h287v-639q0 -120 113 -120q43 0 95.5 19.5t100.5 53.5v686h287v-996zM625 1283q0 148 157 148q76 0 116 -37.5t40 -110.5q0 -149 -156 -149q-76 0 -116.5 37.5t-40.5 111.5zM190 1283
q0 64 35.5 106t120.5 42q156 0 156 -148q0 -149 -156 -149t-156 149z" />
    <glyph glyph-name="yacute" unicode="&#xfd;" horiz-adv-x="1054" 
d="M549 -448h-288l154 448h-93l-311 996h302l201 -746l212 746h310l-332 -996zM558 1081l-177 54l229 365l263 -93z" />
    <glyph glyph-name="thorn" unicode="&#xfe;" horiz-adv-x="1117" 
d="M1032 634v-230q0 -73 -20.5 -148.5t-70.5 -136t-130.5 -100t-191.5 -39.5q-87 0 -211 30v-458h-280v1892h287v-525q139 97 276 97q51 0 108.5 -17t108.5 -61t87.5 -119.5t36.5 -184.5zM593 776q-93 0 -178 -67v-471q82 -30 154 -30q79 0 127.5 43.5t48.5 141.5v200
q0 86 -37 134.5t-115 48.5z" />
    <glyph glyph-name="ydieresis" unicode="&#xff;" horiz-adv-x="1054" 
d="M549 -448h-288l154 448h-93l-311 996h302l201 -746l212 746h310l-332 -996zM579 1283q0 64 35.5 106t120.5 42q156 0 156 -148q0 -149 -156 -149t-156 149zM147 1283q0 148 157 148q76 0 116 -37.5t40 -110.5q0 -149 -156 -149q-76 0 -116.5 37.5t-40.5 111.5z" />
    <glyph glyph-name="Amacron" unicode="&#x100;" horiz-adv-x="1244" 
d="M1222 0h-317l-75 289h-416l-75 -289h-317l388 1354h425zM622 1128l-158 -606h317zM310 1528v221h623v-221h-623z" />
    <glyph glyph-name="amacron" unicode="&#x101;" horiz-adv-x="1033" 
d="M58 268q0 92 44.5 156t126 100.5t192.5 36.5h177v69q0 73 -38 110.5t-136 37.5q-128 0 -285 -47l-36 225q186 60 362 60q217 0 311.5 -92t94.5 -302v-326q0 -38 15.5 -58.5t43.5 -20.5q29 0 64 8l3 -216q-65 -29 -156 -29q-134 0 -197 102q-139 -102 -285 -102
q-138 0 -219.5 72.5t-81.5 215.5zM435 175q83 0 163 52v177h-147q-60 0 -94 -31.5t-34 -88.5q0 -52 32 -80.5t80 -28.5zM169 1170v221h622v-221h-622z" />
    <glyph glyph-name="Abreve" unicode="&#x102;" horiz-adv-x="1244" 
d="M1222 0h-317l-75 289h-416l-75 -289h-317l388 1354h425zM622 1128l-158 -606h317zM300 1802h223q4 -120 99 -120q49 0 72.5 33t25.5 87h223q0 -148 -85.5 -235.5t-235.5 -87.5t-236 87.5t-86 235.5z" />
    <glyph glyph-name="abreve" unicode="&#x103;" horiz-adv-x="1033" 
d="M58 268q0 92 44.5 156t126 100.5t192.5 36.5h177v69q0 73 -38 110.5t-136 37.5q-128 0 -285 -47l-36 225q186 60 362 60q217 0 311.5 -92t94.5 -302v-326q0 -38 15.5 -58.5t43.5 -20.5q29 0 64 8l3 -216q-65 -29 -156 -29q-134 0 -197 102q-139 -102 -285 -102
q-138 0 -219.5 72.5t-81.5 215.5zM435 175q83 0 163 52v177h-147q-60 0 -94 -31.5t-34 -88.5q0 -52 32 -80.5t80 -28.5zM145 1442h223q2 -54 25.5 -87.5t72.5 -33.5t73 33.5t26 87.5h223q0 -149 -85.5 -236.5t-236.5 -87.5q-150 0 -235.5 87.5t-85.5 236.5z" />
    <glyph glyph-name="Aogonek" unicode="&#x104;" horiz-adv-x="1244" 
d="M1222 0q-163 -112 -163 -213q0 -35 22 -54.5t59 -19.5q54 0 91 13l16 -175q-57 -19 -137 -19q-121 0 -192 48.5t-71 149.5q0 69 51.5 139t156.5 131h-150l-75 289h-416l-75 -289h-317l388 1354h425zM622 1128l-158 -606h317z" />
    <glyph glyph-name="aogonek" unicode="&#x105;" horiz-adv-x="1033" 
d="M58 268q0 92 44.5 156t126 100.5t192.5 36.5h177v69q0 73 -38 110.5t-136 37.5q-128 0 -285 -47l-36 225q186 60 362 60q217 0 311.5 -92t94.5 -302v-326q0 -38 15.5 -58.5t43.5 -20.5q29 0 64 8l3 -216l-26 -9q-163 -112 -163 -213q0 -35 21.5 -54.5t58.5 -19.5
q53 0 92 13l15 -175q-55 -19 -137 -19q-120 0 -191 48.5t-71 149.5q0 64 45.5 130.5t138.5 125.5q-88 18 -136 96q-139 -102 -285 -102q-138 0 -219.5 72.5t-81.5 215.5zM435 175q83 0 163 52v177h-147q-60 0 -94 -31.5t-34 -88.5q0 -52 32 -80.5t80 -28.5z" />
    <glyph glyph-name="Cacute" unicode="&#x106;" horiz-adv-x="969" 
d="M899 269l28 -237q-62 -23 -151.5 -37.5t-183.5 -14.5q-102 0 -194 30.5t-160 88.5t-108 142t-40 192v475q0 125 55 229.5t176.5 170.5t281.5 66q74 0 160.5 -14t147.5 -38l-36 -238q-37 12 -106 26t-141 14q-104 0 -172 -65t-68 -175v-427q0 -107 69.5 -167t184.5 -60
q125 0 257 39zM565 1440l-177 54l229 364l263 -92z" />
    <glyph glyph-name="cacute" unicode="&#x107;" horiz-adv-x="853" 
d="M369 571v-149q0 -98 55.5 -152.5t153.5 -54.5q99 0 198 24l19 -227q-117 -32 -262 -32q-197 0 -316 99t-129 286l-2 87v92l2 87q10 183 129 284t310 101q58 0 132.5 -9.5t132.5 -25.5l-31 -229q-1 0 -2.5 0.5t-33.5 8t-75.5 13.5t-79.5 6q-95 0 -148 -56t-53 -153z
M499 1081l-177 54l229 365l263 -93z" />
    <glyph glyph-name="Ccircumflex" unicode="&#x108;" horiz-adv-x="969" 
d="M899 269l28 -237q-62 -23 -151.5 -37.5t-183.5 -14.5q-102 0 -194 30.5t-160 88.5t-108 142t-40 192v475q0 125 55 229.5t176.5 170.5t281.5 66q74 0 160.5 -14t147.5 -38l-36 -238q-37 12 -106 26t-141 14q-104 0 -172 -65t-68 -175v-427q0 -107 69.5 -167t184.5 -60
q125 0 257 39zM223 1469l200 364h284l199 -364l-243 -13l-98 212l-98 -212z" />
    <glyph glyph-name="ccircumflex" unicode="&#x109;" horiz-adv-x="853" 
d="M369 571v-149q0 -98 55.5 -152.5t153.5 -54.5q99 0 198 24l19 -227q-117 -32 -262 -32q-197 0 -316 99t-129 286l-2 87v92l2 87q10 183 129 284t310 101q58 0 132.5 -9.5t132.5 -25.5l-31 -229q-1 0 -2.5 0.5t-33.5 8t-75.5 13.5t-79.5 6q-95 0 -148 -56t-53 -153z
M153 1110l199 365h284l200 -365l-244 -12l-98 211l-98 -211z" />
    <glyph glyph-name="Cdotaccent" unicode="&#x10a;" horiz-adv-x="969" 
d="M899 269l28 -237q-62 -23 -151.5 -37.5t-183.5 -14.5q-102 0 -194 30.5t-160 88.5t-108 142t-40 192v475q0 125 55 229.5t176.5 170.5t281.5 66q74 0 160.5 -14t147.5 -38l-36 -238q-37 12 -106 26t-141 14q-104 0 -172 -65t-68 -175v-427q0 -107 69.5 -167t184.5 -60
q125 0 257 39zM418 1641q0 148 157 148q156 0 156 -148q0 -64 -35.5 -106t-120.5 -42q-76 0 -116.5 37.5t-40.5 110.5z" />
    <glyph glyph-name="cdotaccent" unicode="&#x10b;" horiz-adv-x="853" 
d="M369 571v-149q0 -98 55.5 -152.5t153.5 -54.5q99 0 198 24l19 -227q-117 -32 -262 -32q-197 0 -316 99t-129 286l-2 87v92l2 87q10 183 129 284t310 101q58 0 132.5 -9.5t132.5 -25.5l-31 -229q-1 0 -2.5 0.5t-33.5 8t-75.5 13.5t-79.5 6q-95 0 -148 -56t-53 -153z
M350 1283q0 64 35.5 106t120.5 42q156 0 156 -148q0 -149 -156 -149t-156 149z" />
    <glyph glyph-name="Ccaron" unicode="&#x10c;" horiz-adv-x="969" 
d="M899 269l28 -237q-62 -23 -151.5 -37.5t-183.5 -14.5q-102 0 -194 30.5t-160 88.5t-108 142t-40 192v475q0 125 55 229.5t176.5 170.5t281.5 66q74 0 160.5 -14t147.5 -38l-36 -238q-37 12 -106 26t-141 14q-104 0 -172 -65t-68 -175v-427q0 -107 69.5 -167t184.5 -60
q125 0 257 39zM908 1827l-205 -364h-285l-205 364l243 12l105 -211l104 211z" />
    <glyph glyph-name="ccaron" unicode="&#x10d;" horiz-adv-x="853" 
d="M369 571v-149q0 -98 55.5 -152.5t153.5 -54.5q99 0 198 24l19 -227q-117 -32 -262 -32q-197 0 -316 99t-129 286l-2 87v92l2 87q10 183 129 284t310 101q58 0 132.5 -9.5t132.5 -25.5l-31 -229q-1 0 -2.5 0.5t-33.5 8t-75.5 13.5t-79.5 6q-95 0 -148 -56t-53 -153z
M850 1468l-205 -364h-284l-206 364l243 13l105 -211l104 211z" />
    <glyph glyph-name="Dcaron" unicode="&#x10e;" horiz-adv-x="1220" 
d="M132 0v1354h484q111 0 206 -30.5t164 -88.5t106.5 -141.5t37.5 -183.5v-474q0 -216 -139.5 -326t-374.5 -110h-484zM832 440v419q0 126 -62.5 193.5t-166.5 67.5h-174v-886h174q111 0 170 54t59 152zM893 1827l-206 -364h-284l-206 364l244 12l104 -211l104 211z" />
    <glyph glyph-name="dcaron" unicode="&#x10f;" horiz-adv-x="1360" 
d="M86 363v239q0 201 111 307.5t301 106.5q99 0 210 -32v460h280v-1444h-245l-15 96q-126 -96 -244 -104q-63 -11 -122 -1q-124 21 -200 119.5t-76 252.5zM524 220q93 0 177 66v472q-79 30 -153 30q-175 0 -175 -210v-162q0 -196 151 -196zM1114 1444h246l-16 -538h-214z
" />
    <glyph glyph-name="Dcroat" unicode="&#x110;" horiz-adv-x="1232" 
d="M31 598v156h113v600h484q111 0 206.5 -30.5t164.5 -88.5t106.5 -141.5t37.5 -183.5v-474q0 -216 -139.5 -326t-375.5 -110h-484v598h-113zM845 440v431q0 63 -22.5 122.5t-77 93t-129.5 33.5h-174v-366h228v-156h-228v-364h174q112 0 170.5 54.5t58.5 151.5z" />
    <glyph glyph-name="dcroat" unicode="&#x111;" horiz-adv-x="1136" 
d="M86 363v239q0 184 92.5 288t255.5 120q45 6 101 4q83 -3 173 -30v164h-286v156h286v140h280v-140h123v-156h-123v-1148h-245l-15 96q-136 -102 -262 -110q-44 -6 -86 0q-130 16 -212 116.5t-82 260.5zM524 220q93 0 177 66v472q-79 30 -153 30q-175 0 -175 -210v-162
q0 -196 151 -196z" />
    <glyph glyph-name="Emacron" unicode="&#x112;" horiz-adv-x="1040" 
d="M132 0v1354h835v-251h-537v-305h517v-235h-517v-312h558v-251h-856zM235 1528v221h622v-221h-622z" />
    <glyph glyph-name="emacron" unicode="&#x113;" horiz-adv-x="1015" 
d="M80 397v194q0 99 31 179.5t88.5 135t137.5 82.5t176 28q93 0 171 -28.5t134 -83t86.5 -134.5t30.5 -180l-4 -165h-573v-38q0 -177 229 -177q141 0 306 35l23 -216q-170 -49 -371 -49q-102 0 -188 27t-148 80t-95.5 132t-33.5 178zM358 620v-42h310v34q0 187 -155 187
q-76 0 -115.5 -46t-39.5 -133zM200 1170v221h622v-221h-622z" />
    <glyph glyph-name="Ebreve" unicode="&#x114;" horiz-adv-x="1040" 
d="M132 0v1354h835v-251h-537v-305h517v-235h-517v-312h558v-251h-856zM223 1802h222q2 -53 26 -86.5t73 -33.5t73 33.5t26 86.5h222q0 -148 -85.5 -235.5t-235.5 -87.5t-235.5 87.5t-85.5 235.5z" />
    <glyph glyph-name="ebreve" unicode="&#x115;" horiz-adv-x="1015" 
d="M80 397v194q0 99 31 179.5t88.5 135t137.5 82.5t176 28q93 0 171 -28.5t134 -83t86.5 -134.5t30.5 -180l-4 -165h-573v-38q0 -177 229 -177q141 0 306 35l23 -216q-170 -49 -371 -49q-102 0 -188 27t-148 80t-95.5 132t-33.5 178zM358 620v-42h310v34q0 187 -155 187
q-76 0 -115.5 -46t-39.5 -133zM186 1444h222q2 -54 26 -87.5t73 -33.5t73 33.5t26 87.5h222q0 -149 -85.5 -236.5t-235.5 -87.5t-235.5 87.5t-85.5 236.5z" />
    <glyph glyph-name="Edotaccent" unicode="&#x116;" horiz-adv-x="1040" 
d="M132 0v1354h835v-251h-537v-305h517v-235h-517v-312h558v-251h-856zM389 1641q0 148 156 148t156 -148t-156 -148q-76 0 -116 37.5t-40 110.5z" />
    <glyph glyph-name="edotaccent" unicode="&#x117;" horiz-adv-x="1015" 
d="M80 397v194q0 99 31 179.5t88.5 135t137.5 82.5t176 28q93 0 171 -28.5t134 -83t86.5 -134.5t30.5 -180l-4 -165h-573v-38q0 -177 229 -177q141 0 306 35l23 -216q-170 -49 -371 -49q-102 0 -188 27t-148 80t-95.5 132t-33.5 178zM358 620v-42h310v34q0 187 -155 187
q-76 0 -115.5 -46t-39.5 -133zM351 1283q0 64 35.5 106t120.5 42q157 0 157 -148q0 -149 -157 -149q-156 0 -156 149z" />
    <glyph glyph-name="Eogonek" unicode="&#x118;" horiz-adv-x="1040" 
d="M132 0v1354h835v-251h-537v-305h517v-235h-517v-312h558v-251q-163 -112 -163 -213q0 -35 21.5 -54.5t58.5 -19.5q53 0 92 13l15 -175q-55 -19 -137 -19q-120 0 -191 48.5t-71 149.5q0 69 51.5 139t156.5 131h-689z" />
    <glyph glyph-name="eogonek" unicode="&#x119;" horiz-adv-x="1015" 
d="M80 397v147l3 87q10 182 127.5 283.5t302.5 101.5q180 0 295 -102.5t125 -284.5l2 -94l-4 -110h-573v-38q0 -177 229 -177q154 0 306 35l23 -216q-50 -16 -123 -29q-164 -113 -164 -213q0 -35 22 -54.5t59 -19.5q54 0 91 13l16 -175q-33 -11 -93 -16q-44 -3 -85 0
q-101 6 -161.5 54.5t-60.5 140.5q0 63 43 127.5t133 123.5l-48 -1q-102 0 -188 27t-148 80t-95.5 132t-33.5 178zM358 620v-42h310v34q0 187 -155 187q-76 0 -115.5 -46t-39.5 -133z" />
    <glyph glyph-name="Ecaron" unicode="&#x11a;" horiz-adv-x="1040" 
d="M132 0v1354h835v-251h-537v-305h517v-235h-517v-312h558v-251h-856zM905 1827l-205 -364h-285l-205 364l243 12l105 -211l104 211z" />
    <glyph glyph-name="ecaron" unicode="&#x11b;" horiz-adv-x="1015" 
d="M80 397v194q0 99 31 179.5t88.5 135t137.5 82.5t176 28q93 0 171 -28.5t134 -83t86.5 -134.5t30.5 -180l-4 -165h-573v-38q0 -177 229 -177q141 0 306 35l23 -216q-170 -49 -371 -49q-102 0 -188 27t-148 80t-95.5 132t-33.5 178zM358 620v-42h310v34q0 187 -155 187
q-76 0 -115.5 -46t-39.5 -133zM855 1465l-206 -365h-284l-205 365l243 12l104 -211l104 211z" />
    <glyph glyph-name="Gcircumflex" unicode="&#x11c;" horiz-adv-x="1116" 
d="M1032 678v-622q-77 -33 -193.5 -54.5t-234.5 -21.5q-137 0 -255 50t-188.5 156.5t-70.5 260.5v443q0 131 57.5 240t188.5 176.5t315 67.5q81 0 178 -15t179 -47l-45 -239q-54 19 -131.5 34t-149.5 15q-138 0 -216 -66t-78 -183v-417q0 -114 65 -172t184 -58q74 0 134 17
v435h261zM267 1469l200 364h284l199 -364l-243 -13l-98 212l-98 -212z" />
    <glyph glyph-name="gcircumflex" unicode="&#x11d;" horiz-adv-x="1016" 
d="M69 610v80q0 52 20 108t68 104t124 81t173 33q84 0 139.5 -33.5t86 -95.5t31.5 -153q8 48 7 125.5t-25 156.5l243 -20q36 -367 -78 -539t-367 -172q-55 0 -103 9q-49 -42 -49 -78q0 -18 14.5 -34.5t53.5 -16.5h246q117 0 199 -43.5t124.5 -115.5t42.5 -170
q0 -95 -49.5 -163.5t-144.5 -108.5t-230 -40h-170q-176 0 -274.5 67t-98.5 188q0 64 41 121.5t118 99.5q-43 24 -69.5 63.5t-26.5 85.5q0 42 27 93.5t95 98.5q-80 42 -124 112t-44 157zM341 693v-61q0 -68 37 -114t114 -46q66 0 107.5 41.5t41.5 118.5v38q0 78 -41 120.5
t-108 42.5q-72 0 -111.5 -40.5t-39.5 -99.5zM626 -45h-195l-55 1q-34 -19 -59 -50.5t-25 -70.5q0 -105 171 -105h107q106 0 151.5 24.5t45.5 84.5q0 116 -141 116zM153 1110l199 365h285l199 -365l-243 -12l-98 211l-98 -211z" />
    <glyph glyph-name="Gbreve" unicode="&#x11e;" horiz-adv-x="1116" 
d="M1032 678v-622q-77 -33 -193.5 -54.5t-234.5 -21.5q-137 0 -255 50t-188.5 156.5t-70.5 260.5v443q0 131 57.5 240t188.5 176.5t315 67.5q81 0 178 -15t179 -47l-45 -239q-54 19 -131.5 34t-149.5 15q-138 0 -216 -66t-78 -183v-417q0 -114 65 -172t184 -58q74 0 134 17
v435h261zM282 1802h223q2 -54 25.5 -87t72.5 -33q95 0 99 120h223q0 -148 -86 -235.5t-236 -87.5t-235.5 87.5t-85.5 235.5z" />
    <glyph glyph-name="gbreve" unicode="&#x11f;" horiz-adv-x="1016" 
d="M69 610v80q0 52 20 108t68 104t124 81t173 33q84 0 139.5 -33.5t86 -95.5t31.5 -153q8 48 7 125.5t-25 156.5l243 -20q36 -367 -78 -539t-367 -172q-55 0 -103 9q-49 -42 -49 -78q0 -18 14.5 -34.5t53.5 -16.5h246q117 0 199 -43.5t124.5 -115.5t42.5 -170
q0 -95 -49.5 -163.5t-144.5 -108.5t-230 -40h-170q-176 0 -274.5 67t-98.5 188q0 64 41 121.5t118 99.5q-43 24 -69.5 63.5t-26.5 85.5q0 42 27 93.5t95 98.5q-80 42 -124 112t-44 157zM341 693v-61q0 -68 37 -114t114 -46q66 0 107.5 41.5t41.5 118.5v38q0 78 -41 120.5
t-108 42.5q-72 0 -111.5 -40.5t-39.5 -99.5zM626 -45h-195l-55 1q-34 -19 -59 -50.5t-25 -70.5q0 -105 171 -105h107q106 0 151.5 24.5t45.5 84.5q0 116 -141 116zM168 1444h223q2 -54 26 -87.5t73 -33.5t72.5 33.5t25.5 87.5h223q0 -148 -85.5 -236t-235.5 -88t-236 88
t-86 236z" />
    <glyph glyph-name="Gdotaccent" unicode="&#x120;" horiz-adv-x="1116" 
d="M1032 678v-622q-77 -33 -193.5 -54.5t-234.5 -21.5q-137 0 -255 50t-188.5 156.5t-70.5 260.5v443q0 131 57.5 240t188.5 176.5t315 67.5q81 0 178 -15t179 -47l-45 -239q-54 19 -131.5 34t-149.5 15q-138 0 -216 -66t-78 -183v-417q0 -114 65 -172t184 -58q74 0 134 17
v435h261zM455 1641q0 148 156 148t156 -148t-156 -148q-76 0 -116 37.5t-40 110.5z" />
    <glyph glyph-name="gdotaccent" unicode="&#x121;" horiz-adv-x="1016" 
d="M334 1283q0 148 156 148t156 -148q0 -149 -156 -149t-156 149zM69 610v80q0 52 20 108t68 104t124 81t173 33q84 0 139.5 -33.5t86 -95.5t31.5 -153q8 48 7 125.5t-25 156.5l243 -20q36 -367 -78 -539t-367 -172q-55 0 -103 9q-49 -42 -49 -78q0 -18 14.5 -34.5
t53.5 -16.5h246q117 0 199 -43.5t124.5 -115.5t42.5 -170q0 -95 -49.5 -163.5t-144.5 -108.5t-230 -40h-170q-176 0 -274.5 67t-98.5 188q0 64 41 121.5t118 99.5q-43 24 -69.5 63.5t-26.5 85.5q0 42 27 93.5t95 98.5q-80 42 -124 112t-44 157zM341 693v-61q0 -68 37 -114
t114 -46q66 0 107.5 41.5t41.5 118.5v38q0 78 -41 120.5t-108 42.5q-72 0 -111.5 -40.5t-39.5 -99.5zM626 -45h-195l-55 1q-34 -19 -59 -50.5t-25 -70.5q0 -105 171 -105h107q106 0 151.5 24.5t45.5 84.5q0 116 -141 116z" />
    <glyph glyph-name="Gcommaaccent" unicode="&#x122;" horiz-adv-x="1116" 
d="M1032 678v-622q-77 -33 -193.5 -54.5t-234.5 -21.5q-137 0 -255 50t-188.5 156.5t-70.5 260.5v443q0 131 57.5 240t188.5 176.5t315 67.5q81 0 178 -15t179 -47l-45 -239q-54 19 -131.5 34t-149.5 15q-138 0 -216 -66t-78 -183v-417q0 -114 65 -172t184 -58q74 0 134 17
v435h261zM488 -93h252l-5 -68q-6 -107 -47.5 -206.5t-91.5 -158.5h-185q31 75 54 170t23 182v81z" />
    <glyph glyph-name="gcommaaccent" unicode="&#x123;" horiz-adv-x="1016" 
d="M69 610v80q0 52 20 108t68 104t124 81t173 33q84 0 139.5 -33.5t86 -95.5t31.5 -153q8 48 7 125.5t-25 156.5l243 -20q36 -367 -78 -539t-367 -172q-55 0 -103 9q-49 -42 -49 -78q0 -18 14.5 -34.5t53.5 -16.5h246q117 0 199 -43.5t124.5 -115.5t42.5 -170
q0 -95 -49.5 -163.5t-144.5 -108.5t-230 -40h-170q-176 0 -274.5 67t-98.5 188q0 64 41 121.5t118 99.5q-43 24 -69.5 63.5t-26.5 85.5q0 42 27 93.5t95 98.5q-80 42 -124 112t-44 157zM598 1123h-252l6 69q6 107 47.5 206t91.5 158h185q-32 -76 -55 -170.5t-23 -181.5v-81z
M626 -45h-195l-55 1q-34 -19 -59 -50.5t-25 -70.5q0 -105 171 -105h107q106 0 151.5 24.5t45.5 84.5q0 116 -141 116zM341 693v-61q0 -68 37 -114t114 -46q66 0 107.5 41.5t41.5 118.5v38q0 78 -41 120.5t-108 42.5q-72 0 -111.5 -40.5t-39.5 -99.5z" />
    <glyph glyph-name="Hcircumflex" unicode="&#x124;" horiz-adv-x="1319" 
d="M1187 0h-297v548h-461v-548h-297v1354h297v-546h461v546h297v-1354zM318 1469l199 364h285l199 -364l-243 -13l-98 212l-98 -212z" />
    <glyph glyph-name="hcircumflex" unicode="&#x125;" horiz-adv-x="1135" 
d="M128 1444h280v-542q167 114 324 114q136 0 210.5 -74.5t74.5 -214.5v-727h-287v638q0 121 -116 121q-44 0 -97.5 -19.5t-101.5 -53.5v-686h-287v1444zM-66 1503l199 364h285l199 -364l-243 -12l-98 211l-99 -211z" />
    <glyph glyph-name="Hbar" unicode="&#x126;" horiz-adv-x="1359" 
d="M21 994v156h131v204h297v-204h461v204h297v-204h131v-156h-131v-994h-297v548h-461v-548h-297v994h-131zM449 808h461v186h-461v-186z" />
    <glyph glyph-name="hbar" unicode="&#x127;" horiz-adv-x="1155" 
d="M148 1444h280v-140h286v-156h-286v-246q167 114 324 114q136 0 210.5 -74.5t74.5 -214.5v-727h-287v638q0 121 -116 121q-44 0 -97.5 -19.5t-101.5 -53.5v-686h-287v1148h-123v156h123v140z" />
    <glyph glyph-name="Itilde" unicode="&#x128;" horiz-adv-x="561" 
d="M429 1354v-1354h-297v1354h297zM158 1784q48 0 126.5 -30t110.5 -30q60 0 119 69l131 -94q-12 -34 -40.5 -82t-81 -86t-119.5 -38q-48 0 -126.5 29.5t-110.5 29.5q-61 0 -118 -69l-132 94q12 34 40.5 82t81 86.5t119.5 38.5z" />
    <glyph glyph-name="itilde" unicode="&#x129;" horiz-adv-x="518" 
d="M115 996h287v-996h-287v996zM136 1425q48 0 127 -29.5t111 -29.5q60 0 118 68l131 -93q-11 -33 -39.5 -81.5t-81.5 -87t-119 -38.5q-48 0 -127 29.5t-110 29.5q-61 0 -119 -68l-131 93q12 34 40.5 82t81 86.5t118.5 38.5z" />
    <glyph glyph-name="Imacron" unicode="&#x12a;" horiz-adv-x="561" 
d="M429 1354v-1354h-297v1354h297zM-30 1528v221h622v-221h-622z" />
    <glyph glyph-name="imacron" unicode="&#x12b;" horiz-adv-x="518" 
d="M115 996h287v-996h-287v996zM-52 1170v221h622v-221h-622z" />
    <glyph glyph-name="Ibreve" unicode="&#x12c;" horiz-adv-x="561" 
d="M429 1354v-1354h-297v1354h297zM-41 1802h223q4 -120 99 -120q49 0 72.5 33t25.5 87h223q0 -148 -85.5 -235.5t-235.5 -87.5t-236 87.5t-86 235.5z" />
    <glyph glyph-name="ibreve" unicode="&#x12d;" horiz-adv-x="518" 
d="M115 996h287v-996h-287v996zM-62 1444h222q2 -54 26 -87.5t73 -33.5t73 33.5t26 87.5h222q0 -149 -85.5 -236.5t-235.5 -87.5t-235.5 87.5t-85.5 236.5z" />
    <glyph glyph-name="Iogonek" unicode="&#x12e;" horiz-adv-x="561" 
d="M429 1354v-1354q-163 -112 -163 -213q0 -35 22 -54.5t59 -19.5q54 0 91 13l16 -175q-34 -11 -94 -16q-46 -3 -93 2q-97 7 -155 55t-58 138q0 69 51.5 139t156.5 131h-130v1354h297z" />
    <glyph glyph-name="iogonek" unicode="&#x12f;" horiz-adv-x="518" 
d="M115 996h287v-996q-163 -112 -163 -213q0 -35 22 -54.5t59 -19.5q54 0 91 13l15 -175q-55 -19 -136 -19q-121 0 -192 48.5t-71 149.5q0 69 51.5 139t156.5 131h-120v996zM103 1283q0 148 156 148t156 -148q0 -149 -156 -149t-156 149z" />
    <glyph glyph-name="Idotaccent" unicode="&#x130;" horiz-adv-x="561" 
d="M429 1354v-1354h-297v1354h297zM124 1641q0 148 157 148q156 0 156 -148q0 -64 -35.5 -106t-120.5 -42q-76 0 -116.5 37.5t-40.5 110.5z" />
    <glyph glyph-name="dotlessi" unicode="&#x131;" horiz-adv-x="518" 
d="M115 996h287v-996h-287v996z" />
    <glyph glyph-name="IJ" unicode="&#x132;" horiz-adv-x="1122" 
d="M429 1354v-1354h-297v1354h297zM693 1354h297v-1348q0 -153 -81 -264.5t-284 -209.5l-126 185q107 71 150.5 139.5t43.5 169.5v1328z" />
    <glyph glyph-name="ij" unicode="&#x133;" horiz-adv-x="1086" 
d="M671 996h287v-990q0 -154 -79 -265.5t-278 -208.5l-125 186q108 72 151.5 140t43.5 168v970zM128 996h287v-996h-287v996zM659 1283q0 148 155 148q157 0 157 -148t-157 -148q-155 0 -155 148zM116 1283q0 148 155 148q157 0 157 -148t-157 -148q-75 0 -115 37.5
t-40 110.5z" />
    <glyph glyph-name="Jcircumflex" unicode="&#x134;" horiz-adv-x="561" 
d="M132 1354h298v-1348q0 -153 -81 -264t-285 -210l-126 185q107 71 150.5 139.5t43.5 169.5v1328zM-61 1469l200 364h284l199 -364l-243 -13l-98 212l-98 -212z" />
    <glyph glyph-name="jcircumflex" unicode="&#x135;" horiz-adv-x="530" 
d="M122 996h287v-990q0 -154 -79 -265.5t-278 -208.5l-126 186q108 71 152 139.5t44 168.5v970zM-76 1110l199 365h285l199 -365l-243 -12l-98 211l-98 -211z" />
    <glyph glyph-name="Kcommaaccent" unicode="&#x136;" horiz-adv-x="1165" 
d="M806 1354h322l-315 -685l331 -669h-324l-258 557h-133v-557h-297v1354h297v-542h145zM485 -93h252l-5 -68q-7 -108 -48 -207.5t-91 -157.5h-185q31 75 54 170t23 182v81z" />
    <glyph glyph-name="kcommaaccent" unicode="&#x137;" horiz-adv-x="1069" 
d="M128 1444h287v-820h105l190 372h318l-276 -491l288 -505h-317l-205 397h-103v-397h-287v1444zM429 -93h252l-5 -62q-6 -109 -47.5 -210.5t-92.5 -160.5h-185q32 76 55 170.5t23 181.5v81z" />
    <glyph glyph-name="kgreenlandic" unicode="&#x138;" horiz-adv-x="1069" 
d="M128 996h287v-370h106l189 370h318l-276 -491l288 -505h-317l-204 395h-104v-395h-287v996z" />
    <glyph glyph-name="Lacute" unicode="&#x139;" horiz-adv-x="970" 
d="M429 1354v-1099h508v-255h-805v1354h297zM310 1440l-177 54l229 364l263 -92z" />
    <glyph glyph-name="lacute" unicode="&#x13a;" horiz-adv-x="543" 
d="M128 1444h287v-1444h-287v1444zM289 1536l-177 54l229 365l263 -93z" />
    <glyph glyph-name="Lcommaaccent" unicode="&#x13b;" horiz-adv-x="970" 
d="M429 1354v-1099h508v-255h-805v1354h297zM420 -93h252l-6 -68q-6 -107 -47 -206.5t-91 -158.5h-185q31 77 54 171.5t23 180.5v81z" />
    <glyph glyph-name="lcommaaccent" unicode="&#x13c;" horiz-adv-x="543" 
d="M128 1444h287v-1444h-287v1444zM148 -93h251l-5 -68q-6 -107 -47.5 -206.5t-91.5 -158.5h-185q32 76 55 170.5t23 181.5v81z" />
    <glyph glyph-name="Lcaron" unicode="&#x13d;" horiz-adv-x="970" 
d="M619 1444h246l-16 -538h-214zM429 1354v-1099h508v-255h-805v1354h297z" />
    <glyph glyph-name="lcaron" unicode="&#x13e;" horiz-adv-x="787" 
d="M541 1444h246l-16 -538h-214zM128 1444h287v-1444h-287v1444z" />
    <glyph glyph-name="Ldot" unicode="&#x13f;" horiz-adv-x="995" 
d="M429 1354v-1099h508v-255h-805v1354h297zM602 722q0 148 156 148q76 0 116 -37.5t40 -110.5q0 -64 -35.5 -106t-120.5 -42q-76 0 -116 37.5t-40 110.5z" />
    <glyph glyph-name="ldot" unicode="&#x140;" horiz-adv-x="848" 
d="M128 1444h287v-1444h-287v1444zM527 721q0 149 156 149q157 0 157 -149q0 -148 -157 -148q-75 0 -115.5 37.5t-40.5 110.5z" />
    <glyph glyph-name="Lslash" unicode="&#x141;" horiz-adv-x="1019" 
d="M453 1354v-481l248 119l68 -142l-316 -149v-446h508v-255h-805v559l-110 -52l-67 141l177 84v622h297z" />
    <glyph glyph-name="lslash" unicode="&#x142;" horiz-adv-x="607" 
d="M160 1444h287v-525l121 70l78 -136l-199 -115v-738h-287v573l-120 -69l-78 135l198 115v690z" />
    <glyph glyph-name="Nacute" unicode="&#x143;" horiz-adv-x="1317" 
d="M889 0l-467 861v-861h-290v1354h296l467 -861v861h290v-1354h-296zM680 1440l-176 54l228 364l264 -92z" />
    <glyph glyph-name="nacute" unicode="&#x144;" horiz-adv-x="1135" 
d="M128 996h246l15 -106q178 126 343 126q136 0 210.5 -74.5t74.5 -214.5v-727h-287v638q0 121 -116 121q-44 0 -97.5 -19.5t-101.5 -53.5v-686h-287v996zM563 1081l-177 54l229 365l263 -93z" />
    <glyph glyph-name="Ncommaaccent" unicode="&#x145;" horiz-adv-x="1317" 
d="M889 0l-467 861v-861h-290v1354h296l467 -861v861h290v-1354h-296zM567 -93h252l-6 -68q-6 -107 -47.5 -206.5t-91.5 -158.5h-185q32 76 55 170.5t23 181.5v81z" />
    <glyph glyph-name="ncommaaccent" unicode="&#x146;" horiz-adv-x="1135" 
d="M128 996h246l15 -106q178 126 343 126q136 0 210.5 -74.5t74.5 -214.5v-727h-287v638q0 121 -116 121q-44 0 -97.5 -19.5t-101.5 -53.5v-686h-287v996zM444 -93h252l-6 -68q-6 -107 -47.5 -206.5t-91.5 -158.5h-185q32 76 55 170.5t23 181.5v81z" />
    <glyph glyph-name="Ncaron" unicode="&#x147;" horiz-adv-x="1317" 
d="M889 0l-467 861v-861h-290v1354h296l467 -861v861h290v-1354h-296zM1002 1827l-206 -364h-284l-206 364l244 12l104 -211l104 211z" />
    <glyph glyph-name="ncaron" unicode="&#x148;" horiz-adv-x="1135" 
d="M128 996h246l15 -106q178 126 343 126q136 0 210.5 -74.5t74.5 -214.5v-727h-287v638q0 121 -116 121q-44 0 -97.5 -19.5t-101.5 -53.5v-686h-287v996zM908 1468l-205 -364h-284l-206 364l244 13l104 -211l104 211z" />
    <glyph glyph-name="napostrophe" unicode="&#x149;" horiz-adv-x="1135" 
d="M128 996h246l15 -106q178 126 343 126q136 0 210.5 -74.5t74.5 -214.5v-727h-287v638q0 121 -116 121q-44 0 -97.5 -19.5t-101.5 -53.5v-686h-287v996zM63 1583h248v-43q0 -116 -36 -220.5t-93 -185.5h-177q23 64 40.5 167t17.5 202v80z" />
    <glyph glyph-name="Eng" unicode="&#x14a;" horiz-adv-x="1309" 
d="M424 1354l467 -863v863h286v-1348q0 -153 -78.5 -264.5t-275.5 -209.5l-126 185q119 79 156 149t38 156l-29 72l-444 783v-877h-286v1354h292z" />
    <glyph glyph-name="eng" unicode="&#x14b;" horiz-adv-x="1135" 
d="M128 996h246l15 -106q178 126 343 126q136 0 210.5 -74.5t74.5 -214.5v-721q0 -154 -79 -265.5t-278 -208.5l-126 186q108 71 152 139.5t44 168.5v612q0 121 -116 121q-44 0 -97.5 -19.5t-101.5 -53.5v-686h-287v996z" />
    <glyph glyph-name="Omacron" unicode="&#x14c;" horiz-adv-x="1219" 
d="M299 1528v221h622v-221h-622zM90 436v482q0 218 142 337t377 119q236 0 378.5 -119t142.5 -337v-482q0 -219 -142 -337.5t-379 -118.5q-236 0 -377.5 118.5t-141.5 337.5zM388 925v-496q0 -100 58 -158t163 -58t163.5 58t58.5 158v496q0 100 -58.5 157.5t-163.5 57.5
t-163 -57.5t-58 -157.5z" />
    <glyph glyph-name="omacron" unicode="&#x14d;" horiz-adv-x="1093" 
d="M86 398v199q0 74 22 149t77 134.5t144.5 97.5t217.5 38q101 0 186 -27t146 -80.5t94.5 -132.5t33.5 -179v-199q0 -74 -22 -148.5t-77 -134t-144.5 -97.5t-216.5 -38q-101 0 -186.5 27t-146.5 80t-94.5 132.5t-33.5 178.5zM373 608v-205q0 -91 43.5 -143t130.5 -52
q86 0 129.5 52t43.5 143v189q0 89 -43.5 142.5t-129.5 53.5q-83 0 -128.5 -48.5t-45.5 -131.5zM235 1170v221h623v-221h-623z" />
    <glyph glyph-name="Obreve" unicode="&#x14e;" horiz-adv-x="1219" 
d="M288 1802h223q4 -120 99 -120q49 0 72.5 33t25.5 87h223q0 -148 -85.5 -235.5t-235.5 -87.5t-236 87.5t-86 235.5zM90 436v482q0 218 142 337t377 119q236 0 378.5 -119t142.5 -337v-482q0 -219 -142 -337.5t-379 -118.5q-236 0 -377.5 118.5t-141.5 337.5zM388 925v-496
q0 -100 58 -158t163 -58t163.5 58t58.5 158v496q0 100 -58.5 157.5t-163.5 57.5t-163 -57.5t-58 -157.5z" />
    <glyph glyph-name="obreve" unicode="&#x14f;" horiz-adv-x="1093" 
d="M86 398v199q0 74 22 149t77 134.5t144.5 97.5t217.5 38q101 0 186 -27t146 -80.5t94.5 -132.5t33.5 -179v-199q0 -74 -22 -148.5t-77 -134t-144.5 -97.5t-216.5 -38q-101 0 -186.5 27t-146.5 80t-94.5 132.5t-33.5 178.5zM373 608v-221q0 -84 45.5 -131.5t128.5 -47.5
t128 47.5t45 131.5v221q0 83 -45 131.5t-128 48.5t-128.5 -48.5t-45.5 -131.5zM220 1444h223q2 -54 26 -87.5t73 -33.5t72.5 33.5t25.5 87.5h223q0 -148 -85.5 -236t-235.5 -88t-236 88t-86 236z" />
    <glyph glyph-name="Ohungarumlaut" unicode="&#x150;" horiz-adv-x="1219" 
d="M499 1446l-182 27l101 404l255 -50zM839 1446l-182 30l151 397l268 -60zM90 436v482q0 218 142 337t377 119q236 0 378.5 -119t142.5 -337v-482q0 -219 -142 -337.5t-379 -118.5q-236 0 -377.5 118.5t-141.5 337.5zM388 925v-496q0 -100 58 -158t163 -58t163.5 58
t58.5 158v496q0 100 -58.5 157.5t-163.5 57.5t-163 -57.5t-58 -157.5z" />
    <glyph glyph-name="ohungarumlaut" unicode="&#x151;" horiz-adv-x="1093" 
d="M86 398v199q0 74 22 149t77 134.5t144.5 97.5t217.5 38q101 0 186 -27t146 -80.5t94.5 -132.5t33.5 -179v-199q0 -74 -22 -148.5t-77 -134t-144.5 -97.5t-216.5 -38q-101 0 -186.5 27t-146.5 80t-94.5 132.5t-33.5 178.5zM373 608v-221q0 -84 45.5 -131.5t128.5 -47.5
t128 47.5t45 131.5v221q0 83 -45 131.5t-128 48.5t-128.5 -48.5t-45.5 -131.5zM433 1088l-181 27l100 404l255 -50zM773 1088l-182 29l152 398l268 -61z" />
    <glyph glyph-name="OE" unicode="&#x152;" horiz-adv-x="1647" 
d="M805 0v55q-96 -75 -221 -75q-80 0 -165 19.5t-157.5 70t-122 140.5t-49.5 226v482q0 96 27.5 173.5t82.5 138.5t151.5 102.5t232.5 41.5q133 0 221 -74v54h769v-251h-509v-305h489v-235h-489v-312h530v-251h-790zM599 213q63 0 109.5 23.5t70.5 65.5v749q-54 89 -180 89
q-99 0 -156.5 -65.5t-57.5 -202.5v-390q0 -138 57.5 -203.5t156.5 -65.5z" />
    <glyph glyph-name="oe" unicode="&#x153;" horiz-adv-x="1568" 
d="M543 1016q152 0 272 -84q113 84 258 84q91 0 168 -28.5t132.5 -83t85.5 -134.5t30 -180v-61l-4 -104h-563v-38q0 -177 226 -177q137 0 299 35l23 -216q-167 -49 -364 -49q-82 0 -156.5 22.5t-129.5 62.5q-54 -40 -127 -62.5t-150 -22.5q-194 0 -317.5 97t-135.5 276
l-4 97v96l4 96q12 179 135.5 276.5t317.5 97.5zM655 386v200q0 71 21 137q-43 65 -133 65q-87 0 -130.5 -56t-43.5 -147v-174q0 -93 43 -148t131 -55q93 0 134 65q-22 50 -22 113zM922 620v-42h303v34q0 187 -152 187q-151 0 -151 -179z" />
    <glyph glyph-name="Racute" unicode="&#x154;" horiz-adv-x="1183" 
d="M132 1354h488q159 0 266.5 -56t162 -147t54.5 -216v-66q0 -123 -53 -224.5t-176 -157.5l252 -487h-321l-208 435h-168v-435h-297v1354zM611 1120h-182v-460h182q96 0 146 53t50 148v60q0 94 -50 146.5t-146 52.5zM556 1440l-177 54l229 364l263 -92z" />
    <glyph glyph-name="racute" unicode="&#x155;" horiz-adv-x="739" 
d="M128 996h244l17 -133q63 60 151.5 106t168.5 47l2 -276q-72 -4 -155 -36t-141 -77v-627h-287v996zM374 1081l-177 54l229 365l263 -93z" />
    <glyph glyph-name="Rcommaaccent" unicode="&#x156;" horiz-adv-x="1183" 
d="M132 1354h488q159 0 266.5 -56t162 -147t54.5 -216v-66q0 -123 -53 -224.5t-176 -157.5l252 -487h-321l-208 435h-168v-435h-297v1354zM611 1120h-182v-460h182q96 0 146 53t50 148v60q0 94 -50 146.5t-146 52.5zM478 -93h252l-6 -68q-6 -107 -47 -206.5t-91 -158.5h-185
q31 77 54 171.5t23 180.5v81z" />
    <glyph glyph-name="rcommaaccent" unicode="&#x157;" horiz-adv-x="739" 
d="M128 996h244l17 -133q63 60 151.5 106t168.5 47l2 -276q-72 -4 -155 -36t-141 -77v-627h-287v996zM150 -93h252l-6 -68q-6 -107 -47 -206.5t-91 -158.5h-185q31 77 54 171.5t23 180.5v81z" />
    <glyph glyph-name="Rcaron" unicode="&#x158;" horiz-adv-x="1183" 
d="M132 1354h488q159 0 266.5 -56t162 -147t54.5 -216v-66q0 -123 -53 -224.5t-176 -157.5l252 -487h-321l-208 435h-168v-435h-297v1354zM894 1827l-206 -364h-284l-206 364l244 12l104 -211l104 211zM611 1120h-182v-460h182q96 0 146 53t50 148v60q0 94 -50 146.5
t-146 52.5z" />
    <glyph glyph-name="rcaron" unicode="&#x159;" horiz-adv-x="739" 
d="M128 996h244l17 -133q63 60 151.5 106t168.5 47l2 -276q-72 -4 -155 -36t-141 -77v-627h-287v996zM769 1468l-206 -364h-284l-206 364l244 13l104 -211l104 211z" />
    <glyph glyph-name="Sacute" unicode="&#x15a;" horiz-adv-x="1008" 
d="M524 1440l-176 54l228 364l264 -92zM953 381q0 -194 -117.5 -297.5t-357.5 -103.5q-96 0 -210.5 15.5t-209.5 48.5l39 245q180 -54 331 -54q114 0 173.5 31t59.5 112q0 61 -36.5 97t-162 78t-171.5 59q-111 41 -165.5 127.5t-54.5 224.5q0 87 30.5 162.5t89.5 131
t145.5 86t193.5 30.5q197 0 371 -51l-35 -249q-163 46 -298 46q-99 0 -155.5 -37.5t-56.5 -106.5q0 -56 28 -93t119 -66l150 -47q156 -49 228 -138t72 -251z" />
    <glyph glyph-name="sacute" unicode="&#x15b;" horiz-adv-x="850" 
d="M797 280q0 -300 -387 -300q-78 0 -177 12.5t-167 38.5l35 204q44 -15 121 -29.5t145 -14.5q83 0 121.5 17.5t38.5 67.5q0 42 -29.5 70t-188.5 67q-124 30 -182.5 95.5t-58.5 204.5q0 135 99.5 219t279.5 84q156 0 309 -36l-28 -208q-135 33 -243 33q-74 0 -111.5 -21.5
t-37.5 -71.5q0 -43 34 -68.5t161 -56.5q148 -37 207 -104t59 -203zM413 1081l-177 54l228 365l264 -93z" />
    <glyph glyph-name="Scircumflex" unicode="&#x15c;" horiz-adv-x="1008" 
d="M186 1469l199 364h285l199 -364l-243 -13l-98 212l-98 -212zM953 381q0 -194 -117.5 -297.5t-357.5 -103.5q-96 0 -210.5 15.5t-209.5 48.5l39 245q180 -54 331 -54q114 0 173.5 31t59.5 112q0 61 -36.5 97t-162 78t-171.5 59q-111 41 -165.5 127.5t-54.5 224.5
q0 87 30.5 162.5t89.5 131t145.5 86t193.5 30.5q197 0 371 -51l-35 -249q-163 46 -298 46q-99 0 -155.5 -37.5t-56.5 -106.5q0 -56 28 -93t119 -66l150 -47q156 -49 228 -138t72 -251z" />
    <glyph glyph-name="scircumflex" unicode="&#x15d;" horiz-adv-x="850" 
d="M87 1110l200 365h284l199 -365l-243 -12l-98 211l-98 -211zM797 280q0 -300 -387 -300q-78 0 -177 12.5t-167 38.5l35 204q44 -15 121 -29.5t145 -14.5q83 0 121.5 17.5t38.5 67.5q0 48 -37 75t-181 62q-144 37 -193.5 107t-49.5 194q0 136 101 219t280 83q156 0 309 -36
l-28 -208q-135 33 -243 33q-74 0 -111.5 -21.5t-37.5 -71.5q0 -43 33.5 -68t161.5 -57q147 -36 206.5 -103t59.5 -204z" />
    <glyph glyph-name="Scedilla" unicode="&#x15e;" horiz-adv-x="1008" 
d="M953 381q0 -185 -106.5 -287.5t-324.5 -111.5l-10 -76q89 -9 142 -56.5t53 -131.5q0 -46 -25.5 -85.5t-91 -70t-174.5 -30.5q-78 0 -138 15l16 161q50 -11 93 -11q47 0 77 15.5t30 45.5q0 29 -24 44.5t-66 15.5h-62l37 166q-191 12 -321 60l39 245q180 -54 331 -54
q115 0 174 30.5t59 112.5q0 47 -32 89t-178.5 90.5t-153.5 51.5q-115 40 -171 128.5t-56 229.5q0 86 31 161t90.5 130t146 85.5t192.5 30.5q197 0 371 -51l-35 -249q-163 46 -298 46q-99 0 -155.5 -37.5t-56.5 -106.5q0 -56 28 -93t119 -66l150 -47q156 -49 228 -138
t72 -251z" />
    <glyph glyph-name="scedilla" unicode="&#x15f;" horiz-adv-x="850" 
d="M797 280q0 -283 -346 -299l-9 -75q89 -9 142 -56.5t53 -131.5q0 -46 -25.5 -85.5t-91 -70t-174.5 -30.5q-78 0 -138 15l17 161q50 -11 92 -11q47 0 77 15.5t30 45.5q0 29 -24 44.5t-66 15.5h-62l38 166q-57 5 -126 17t-118 30l35 204q44 -15 121 -29.5t145 -14.5
q83 0 121.5 17.5t38.5 67.5q0 42 -29.5 70t-188.5 67q-144 36 -193.5 107t-49.5 194q0 136 101 219t280 83q156 0 309 -36l-28 -208q-135 33 -243 33q-74 0 -111.5 -21.5t-37.5 -71.5q0 -43 34 -68.5t161 -56.5q148 -37 207 -104t59 -203z" />
    <glyph glyph-name="Scaron" unicode="&#x160;" horiz-adv-x="1008" 
d="M863 1827l-206 -364h-284l-205 364l243 12l104 -211l104 211zM953 381q0 -194 -117.5 -297.5t-357.5 -103.5q-96 0 -210.5 15.5t-209.5 48.5l39 245q180 -54 331 -54q114 0 173.5 31t59.5 112q0 61 -36.5 97t-162 78t-171.5 59q-111 41 -165.5 127.5t-54.5 224.5
q0 87 30.5 162.5t89.5 131t145.5 86t193.5 30.5q197 0 371 -51l-35 -249q-163 46 -298 46q-99 0 -155.5 -37.5t-56.5 -106.5q0 -56 28 -93t119 -66l150 -47q156 -49 228 -138t72 -251z" />
    <glyph glyph-name="scaron" unicode="&#x161;" horiz-adv-x="850" 
d="M773 1468l-206 -364h-284l-206 364l244 13l104 -211l104 211zM797 280q0 -300 -387 -300q-78 0 -177 12.5t-167 38.5l35 204q44 -15 121 -29.5t145 -14.5q83 0 121.5 17.5t38.5 67.5q0 48 -37 75t-181 62q-144 37 -193.5 107t-49.5 194q0 136 101 219t280 83
q156 0 309 -36l-28 -208q-135 33 -243 33q-74 0 -111.5 -21.5t-37.5 -71.5q0 -43 33.5 -68t161.5 -57q147 -36 206.5 -103t59.5 -204z" />
    <glyph glyph-name="Tcommaaccent" unicode="&#x162;" horiz-adv-x="1051" 
d="M377 0v1107h-351v247h999v-247h-350v-1107h-100l-12 -94q90 -9 142.5 -56t52.5 -132q0 -46 -25.5 -85.5t-91 -70t-174.5 -30.5q-78 0 -138 15l17 161q50 -11 92 -11q48 0 77.5 15.5t29.5 45.5q0 29 -24 44.5t-66 15.5h-62l41 182h-57z" />
    <glyph glyph-name="tcommaaccent" unicode="&#x163;" horiz-adv-x="702" 
d="M23 775v221h138l15 278h258l1 -278h211v-221h-206v-451q0 -54 23.5 -83t80.5 -29q52 0 120 13l16 -219q-89 -26 -222 -26l-9 -74q89 -9 142 -56.5t53 -131.5q0 -46 -25.5 -85.5t-91 -70t-174.5 -30.5q-78 0 -138 15l17 161q50 -11 92 -11q47 0 77 15.5t30 45.5
q0 29 -24 44.5t-66 15.5h-62l42 183q-133 48 -150 196q-7 52 -11.5 119.5t-6 147.5t-1 183t0.5 128h-130z" />
    <glyph glyph-name="Tcaron" unicode="&#x164;" horiz-adv-x="1051" 
d="M377 0v1107h-351v247h999v-247h-350v-1107h-298zM873 1827l-206 -364h-284l-205 364l243 12l104 -211l104 211z" />
    <glyph glyph-name="tcaron" unicode="&#x165;" horiz-adv-x="787" 
d="M23 775v221h138l15 278h258l1 -278h211v-221h-206v-451q0 -54 23.5 -83t80.5 -29q52 0 120 13l16 -219q-92 -26 -214 -26q-133 0 -211.5 57.5t-90.5 176.5q-5 59 -8 135t-3 426h-130zM526 1666h246l-16 -538h-214z" />
    <glyph glyph-name="Tbar" unicode="&#x166;" horiz-adv-x="1051" 
d="M201 659v156h176v292h-351v247h999v-247h-350v-292h174v-156h-174v-659h-298v659h-176z" />
    <glyph glyph-name="tbar" unicode="&#x167;" horiz-adv-x="702" 
d="M435 996h211v-221h-206v-160h188v-156h-188v-138q1 -53 24 -81t80 -28q52 0 120 13l16 -219q-92 -26 -214 -26q-291 0 -308 256l-5 125v98h-128v156h128v160h-130v221h138l15 278h258z" />
    <glyph glyph-name="Utilde" unicode="&#x168;" horiz-adv-x="1258" 
d="M838 1354h298v-936q0 -205 -136 -321.5t-371 -116.5t-371 116.5t-136 321.5v936h297v-938q0 -86 57.5 -139t152.5 -53t152 53t57 139v938zM506 1784q48 0 126.5 -30t110.5 -30q60 0 119 69l131 -94q-12 -34 -40.5 -82t-81.5 -86t-119 -38q-48 0 -126.5 29.5t-110.5 29.5
q-62 0 -119 -69l-131 94q12 34 40.5 82t81 86.5t119.5 38.5z" />
    <glyph glyph-name="utilde" unicode="&#x169;" horiz-adv-x="1129" 
d="M1001 0h-246l-15 106q-77 -56 -165 -91t-175 -35q-135 0 -208.5 74.5t-73.5 214.5v727h287v-639q0 -120 113 -120q43 0 95.5 19.5t100.5 53.5v686h287v-996zM435 1425q48 0 126.5 -29.5t110.5 -29.5q61 0 119 68l131 -93q-12 -34 -40.5 -82t-81 -86.5t-119.5 -38.5
q-48 0 -126.5 29.5t-110.5 29.5q-60 0 -118 -68l-132 93q12 34 40.5 82.5t81 86.5t119.5 38z" />
    <glyph glyph-name="Umacron" unicode="&#x16a;" horiz-adv-x="1258" 
d="M838 1354h298v-936q0 -205 -136 -321.5t-371 -116.5t-371 116.5t-136 321.5v936h297v-938q0 -86 57.5 -139t152.5 -53t152 53t57 139v938zM318 1528v221h622v-221h-622z" />
    <glyph glyph-name="umacron" unicode="&#x16b;" horiz-adv-x="1129" 
d="M1001 0h-246l-15 106q-77 -56 -165 -91t-175 -35q-135 0 -208.5 74.5t-73.5 214.5v727h287v-639q0 -120 113 -120q43 0 95.5 19.5t100.5 53.5v686h287v-996zM253 1170v221h622v-221h-622z" />
    <glyph glyph-name="Ubreve" unicode="&#x16c;" horiz-adv-x="1258" 
d="M838 1354h298v-936q0 -205 -136 -321.5t-371 -116.5t-371 116.5t-136 321.5v936h297v-938q0 -86 57.5 -139t152.5 -53t152 53t57 139v938zM308 1802h222q2 -54 26 -87t73 -33t73 33.5t26 86.5h222q0 -148 -85.5 -235.5t-235.5 -87.5t-235.5 87.5t-85.5 235.5z" />
    <glyph glyph-name="ubreve" unicode="&#x16d;" horiz-adv-x="1129" 
d="M1001 0h-246l-15 106q-77 -56 -165 -91t-175 -35q-135 0 -208.5 74.5t-73.5 214.5v727h287v-639q0 -120 113 -120q43 0 95.5 19.5t100.5 53.5v686h287v-996zM243 1444h222q2 -54 26 -87.5t73 -33.5t73 33.5t26 87.5h222q0 -149 -85.5 -236.5t-235.5 -87.5t-235.5 87.5
t-85.5 236.5z" />
    <glyph glyph-name="Uring" unicode="&#x16e;" horiz-adv-x="1258" 
d="M838 1354h298v-936q0 -205 -136 -321.5t-371 -116.5t-371 116.5t-136 321.5v936h297v-938q0 -86 57.5 -139t152.5 -53t152 53t57 139v938zM372 1654q0 104 70.5 166.5t188.5 62.5q114 0 184.5 -61.5t70.5 -160.5q0 -104 -70.5 -166.5t-189.5 -62.5q-114 0 -184 61.5
t-70 160.5zM545 1658q0 -33 24 -55.5t59 -22.5q37 0 60.5 21.5t23.5 54.5q0 35 -23.5 57.5t-59.5 22.5t-60 -22t-24 -56z" />
    <glyph glyph-name="uring" unicode="&#x16f;" horiz-adv-x="1129" 
d="M1001 0h-246l-15 106q-77 -56 -165 -91t-175 -35q-135 0 -208.5 74.5t-73.5 214.5v727h287v-639q0 -120 113 -120q43 0 95.5 19.5t100.5 53.5v686h287v-996zM314 1296q0 103 71 166t189 63q114 0 184.5 -62t70.5 -161q0 -103 -71 -165.5t-189 -62.5q-114 0 -184.5 61.5
t-70.5 160.5zM488 1300q0 -33 24 -55.5t59 -22.5q37 0 60.5 21.5t23.5 54.5q0 35 -23.5 57t-59.5 22t-60 -22t-24 -55z" />
    <glyph glyph-name="Uhungarumlaut" unicode="&#x170;" horiz-adv-x="1258" 
d="M838 1354h298v-936q0 -205 -136 -321.5t-371 -116.5t-371 116.5t-136 321.5v936h297v-938q0 -86 57.5 -139t152.5 -53t152 53t57 139v938zM524 1446l-182 27l100 404l256 -50zM863 1446l-182 30l152 397l268 -60z" />
    <glyph glyph-name="uhungarumlaut" unicode="&#x171;" horiz-adv-x="1129" 
d="M771 1515l268 -61l-237 -366l-183 29zM118 269v727h287v-639q0 -120 113 -120q43 0 95.5 19.5t100.5 53.5v686h287v-996h-246l-15 106q-77 -56 -165 -91t-175 -35q-135 0 -208.5 74.5t-73.5 214.5zM380 1519l256 -50l-174 -381l-182 27z" />
    <glyph glyph-name="Uogonek" unicode="&#x172;" horiz-adv-x="1258" 
d="M838 1354h298v-936q0 -162 -87 -271t-244 -147q-164 -113 -164 -213q0 -35 22 -54.5t59 -19.5q54 0 91 13l16 -175q-57 -19 -137 -19q-120 0 -191.5 48.5t-71.5 149.5q0 63 43.5 127.5t133.5 123.5q-225 5 -354.5 121.5t-129.5 315.5v936h297v-938q0 -86 57.5 -139
t152.5 -53t152 53t57 139v938z" />
    <glyph glyph-name="uogonek" unicode="&#x173;" horiz-adv-x="1129" 
d="M1001 0q-164 -112 -164 -213q0 -35 22 -54.5t59 -19.5q54 0 91 13l16 -175q-57 -19 -137 -19q-120 0 -191.5 48.5t-71.5 149.5q0 69 51.5 139t156.5 131h-78l-15 106q-77 -56 -165 -91t-175 -35q-135 0 -208.5 74.5t-73.5 214.5v727h287v-639q0 -120 113 -120
q43 0 95.5 19.5t100.5 53.5v686h287v-996z" />
    <glyph glyph-name="Wcircumflex" unicode="&#x174;" horiz-adv-x="1797" 
d="M1453 1354h317l-302 -1354h-386l-184 870l-183 -870h-386l-302 1354h316l210 -1048l202 1028h286l205 -1028zM556 1469l200 364h284l199 -364l-243 -13l-98 212l-98 -212z" />
    <glyph glyph-name="wcircumflex" unicode="&#x175;" horiz-adv-x="1515" 
d="M1204 996h294l-260 -996h-330l-151 600l-149 -600h-330l-260 996h294l160 -716l167 700h237l167 -700zM416 1110l199 365h284l200 -365l-244 -12l-98 211l-98 -211z" />
    <glyph glyph-name="Ycircumflex" unicode="&#x176;" horiz-adv-x="1150" 
d="M816 1354h306l-399 -871v-483h-297v483l-398 871h305l242 -582zM233 1469l200 364h284l199 -364l-243 -13l-98 212l-98 -212z" />
    <glyph glyph-name="ycircumflex" unicode="&#x177;" horiz-adv-x="1054" 
d="M549 -448h-288l154 448h-93l-311 996h302l201 -746l212 746h310l-332 -996zM177 1110l199 365h285l199 -365l-243 -12l-98 211l-98 -211z" />
    <glyph glyph-name="Ydieresis" unicode="&#x178;" horiz-adv-x="1150" 
d="M816 1354h306l-399 -871v-483h-297v483l-398 871h305l242 -582zM636 1641q0 148 156 148q157 0 157 -148t-157 -148q-75 0 -115.5 37.5t-40.5 110.5zM201 1641q0 148 156 148t156 -148t-156 -148q-76 0 -116 37.5t-40 110.5z" />
    <glyph glyph-name="Zacute" unicode="&#x179;" horiz-adv-x="1054" 
d="M87 1106v248h875v-220l-561 -886h590v-248h-932v220l559 886h-531zM533 1440l-177 54l229 364l263 -92z" />
    <glyph glyph-name="zacute" unicode="&#x17a;" horiz-adv-x="859" 
d="M76 781v215h718v-199l-423 -581h439v-216h-748v195l419 586h-405zM459 1081l-177 54l228 365l264 -93z" />
    <glyph glyph-name="Zdotaccent" unicode="&#x17b;" horiz-adv-x="1054" 
d="M87 1106v248h875v-220l-561 -886h590v-248h-932v220l559 886h-531zM367 1641q0 148 156 148t156 -148t-156 -148q-76 0 -116 37.5t-40 110.5z" />
    <glyph glyph-name="zdotaccent" unicode="&#x17c;" horiz-adv-x="859" 
d="M76 781v215h718v-199l-423 -581h439v-216h-748v195l419 586h-405zM266 1283q0 64 35.5 106t120.5 42q157 0 157 -148q0 -149 -157 -149q-75 0 -115.5 37.5t-40.5 111.5z" />
    <glyph glyph-name="Zcaron" unicode="&#x17d;" horiz-adv-x="1054" 
d="M87 1106v248h875v-220l-561 -886h590v-248h-932v220l559 886h-531zM874 1827l-205 -364h-284l-206 364l244 12l104 -211l104 211z" />
    <glyph glyph-name="zcaron" unicode="&#x17e;" horiz-adv-x="859" 
d="M87 781v215h718v-199l-422 -581h438v-216h-748v195l419 586h-405zM778 1468l-205 -364h-285l-205 364l243 13l104 -211l105 211z" />
    <glyph glyph-name="uni018F" unicode="&#x18f;" horiz-adv-x="1139" 
d="M1049 915v-476q0 -220 -137.5 -339.5t-364.5 -119.5q-220 0 -343.5 121.5t-123.5 356.5q0 68 7 170t16 149h652v107q0 114 -72.5 179t-201.5 65q-30 0 -67.5 -1.5t-81.5 -6.5t-82.5 -11.5t-73 -14t-38.5 -8.5l-41 233q189 55 408 55q261 0 402.5 -118t141.5 -341z
M543 217q103 0 157.5 63.5t54.5 172.5v109h-407l-3 -115q0 -105 49 -167.5t149 -62.5z" />
    <glyph glyph-name="florin" unicode="&#x192;" horiz-adv-x="1070" 
d="M185 567v222h190l47 260q28 160 133.5 241.5t282.5 81.5q102 0 182 -22l-49 -220q-69 12 -119 12q-68 0 -104 -34t-51 -121l-35 -198h216v-222h-255l-129 -717q-57 -317 -400 -317q-105 0 -186 23l52 220q66 -12 111 -12q65 0 100 32.5t50 116.5l115 654h-151z" />
    <glyph glyph-name="uni019D" unicode="&#x19d;" horiz-adv-x="1309" 
d="M885 0l-467 861v-691q0 -112 -13 -232q-16 -127 -92 -222.5t-249 -183.5l-126 185q120 79 157 150t37 159v1328h292l467 -861v861h286v-1354h-292z" />
    <glyph glyph-name="Gcaron" unicode="&#x1e6;" horiz-adv-x="1116" 
d="M1032 678v-622q-77 -33 -193.5 -54.5t-234.5 -21.5q-137 0 -255 50t-188.5 156.5t-70.5 260.5v443q0 131 57.5 240t188.5 176.5t315 67.5q81 0 178 -15t179 -47l-45 -239q-54 19 -131.5 34t-149.5 15q-138 0 -216 -66t-78 -183v-417q0 -114 65 -172t184 -58q74 0 134 17
v435h261zM955 1827l-205 -364h-284l-206 364l243 12l105 -211l104 211z" />
    <glyph glyph-name="gcaron" unicode="&#x1e7;" horiz-adv-x="1016" 
d="M69 610v80q0 52 20 108t68 104t124 81t173 33q84 0 139.5 -33.5t86 -95.5t31.5 -153q8 48 7 125.5t-25 156.5l243 -20q36 -367 -78 -539t-367 -172q-55 0 -103 9q-49 -42 -49 -78q0 -18 14.5 -34.5t53.5 -16.5h246q117 0 199 -43.5t124.5 -115.5t42.5 -170
q0 -95 -49.5 -163.5t-144.5 -108.5t-230 -40h-170q-176 0 -274.5 67t-98.5 188q0 64 41 121.5t118 99.5q-43 24 -69.5 63.5t-26.5 85.5q0 42 27 93.5t95 98.5q-80 42 -124 112t-44 157zM341 693v-61q0 -68 37 -114t114 -46q66 0 107.5 41.5t41.5 118.5v38q0 78 -41 120.5
t-108 42.5q-72 0 -111.5 -40.5t-39.5 -99.5zM626 -45h-195l-55 1q-34 -19 -59 -50.5t-25 -70.5q0 -105 171 -105h107q106 0 151.5 24.5t45.5 84.5q0 116 -141 116zM835 1468l-205 -364h-285l-205 364l243 13l104 -211l105 211z" />
    <glyph glyph-name="uni01EA" unicode="&#x1ea;" horiz-adv-x="1219" 
d="M90 436v482q0 218 142 337t377 119q236 0 378.5 -119t142.5 -337v-482q0 -174 -91.5 -285.5t-251.5 -150.5h1q-163 -112 -163 -213q0 -35 21.5 -54.5t58.5 -19.5q53 0 92 13l15 -175q-55 -19 -137 -19q-120 0 -191 48.5t-71 149.5q0 63 42.5 127.5t132.5 123.5
q-81 2 -167 22.5t-159 71.5t-122.5 139.5t-49.5 221.5zM388 925v-496q0 -100 58 -158t163 -58t163.5 58t58.5 158v496q0 100 -58.5 157.5t-163.5 57.5t-163 -57.5t-58 -157.5z" />
    <glyph glyph-name="uni01EB" unicode="&#x1eb;" horiz-adv-x="1093" 
d="M86 398v148l4 96q12 179 137 276.5t320 97.5t319.5 -97.5t136.5 -276.5l4 -96v-148q0 -157 -78.5 -258.5t-216.5 -138.5l1 -1q-163 -112 -163 -213q0 -35 21.5 -54.5t58.5 -19.5q53 0 92 13l15 -175q-55 -19 -137 -19q-120 0 -191.5 48.5t-71.5 149.5q0 63 43.5 128
t133.5 123q-95 4 -174 33t-136 81.5t-87.5 129.5t-30.5 173zM373 608v-205q0 -91 43.5 -143t130.5 -52q86 0 129.5 52t43.5 143v189q0 89 -43.5 142.5t-129.5 53.5q-83 0 -128.5 -48.5t-45.5 -131.5z" />
    <glyph glyph-name="Aringacute" unicode="&#x1fa;" horiz-adv-x="1244" 
d="M1222 0h-317l-75 289h-416l-75 -289h-317l388 1354h425zM622 1128l-158 -606h317zM382 1628q0 98 65.5 157.5t179.5 59.5q104 0 169 -57.5t65 -147.5q0 -98 -66 -157.5t-180 -59.5q-103 0 -168 58t-65 147zM544 1632q0 -32 21 -53t54 -21q38 0 59.5 22t21.5 57
q0 31 -21 52t-55 21q-37 0 -58.5 -21.5t-21.5 -56.5zM664 1891l-183 37l160 276l275 -68z" />
    <glyph glyph-name="aringacute" unicode="&#x1fb;" horiz-adv-x="1033" 
d="M58 268q0 92 44.5 156t126 100.5t192.5 36.5h177v69q0 73 -38 110.5t-136 37.5q-128 0 -285 -47l-36 225q186 60 362 60q217 0 311.5 -92t94.5 -302v-326q0 -38 15.5 -58.5t43.5 -20.5q29 0 64 8l3 -216q-65 -29 -156 -29q-134 0 -197 102q-139 -102 -285 -102
q-138 0 -219.5 72.5t-81.5 215.5zM435 175q83 0 163 52v177h-147q-60 0 -94 -31.5t-34 -88.5q0 -52 32 -80.5t80 -28.5zM233 1278q0 98 65.5 157t178.5 59q105 0 169.5 -57.5t64.5 -147.5q0 -98 -65.5 -157.5t-179.5 -59.5q-103 0 -168 58t-65 148zM394 1281q0 -31 21.5 -52
t53.5 -21q38 0 59.5 21.5t21.5 56.5q0 32 -21 52.5t-55 20.5q-36 0 -58 -22t-22 -56zM514 1540l-182 37l160 276l275 -68z" />
    <glyph glyph-name="AEacute" unicode="&#x1fc;" horiz-adv-x="1658" 
d="M914 0l-42 283h-421l-112 -283h-317l569 1354h994v-251h-535l53 -305h462v-235h-435l55 -312h421v-251h-692zM761 1093l-231 -577h317zM975 1440l-177 54l229 364l263 -92z" />
    <glyph glyph-name="aeacute" unicode="&#x1fd;" horiz-adv-x="1522" 
d="M58 270q0 92 44.5 156t126 101t192.5 37h177v66q0 73 -38 110.5t-136 37.5q-128 0 -285 -47l-36 225q186 60 362 60q193 0 276 -95q52 46 124.5 70.5t154.5 24.5q192 0 307 -112.5t115 -313.5v-64l-4 -107h-572v-32q0 -177 229 -177q140 0 305 35l24 -216
q-173 -49 -371 -49q-115 0 -208 35.5t-153 103.5q-63 -56 -152 -97.5t-181 -41.5q-138 0 -219.5 73.5t-81.5 216.5zM866 620v-48h309v40q0 187 -155 187q-76 0 -115 -46t-39 -133zM599 381l-8 26h-140q-60 0 -94 -32t-34 -89q0 -50 30 -79.5t74 -31.5q103 0 194 70
q-22 63 -22 136zM770 1081l-177 54l229 365l263 -93z" />
    <glyph glyph-name="Oslashacute" unicode="&#x1fe;" horiz-adv-x="1219" 
d="M658 1447l-188 54l209 365l260 -93zM90 436v482q0 218 142 337t377 119q98 0 182 -21l104 244h169l-130 -303q93 -57 144.5 -152.5t51.5 -223.5v-482q0 -219 -142 -337.5t-379 -118.5q-103 0 -190 23l-106 -245h-168l130 307q-185 120 -185 371zM388 925v-496
q0 -100 58 -158t163 -58t163.5 58t58.5 158v496q0 100 -58.5 157.5t-163.5 57.5t-163 -57.5t-58 -157.5z" />
    <glyph glyph-name="oslashacute" unicode="&#x1ff;" horiz-adv-x="1093" 
d="M587 1089l-189 54l210 365l260 -93zM943 1238l-125 -287q91 -51 140 -140.5t49 -213.5v-199q0 -74 -22 -148.5t-77 -134t-144.5 -97.5t-216.5 -38q-69 0 -131 15l-98 -237h-163l121 287q-92 50 -141 139.5t-49 213.5v199q0 125 51 216t153.5 147t256.5 56q66 0 131 -14
l103 236h162zM373 608v-205q0 -91 43.5 -143t130.5 -52q86 0 129.5 52t43.5 143v189q0 89 -43.5 142.5t-129.5 53.5q-83 0 -128.5 -48.5t-45.5 -131.5z" />
    <glyph glyph-name="Scommaaccent" unicode="&#x218;" horiz-adv-x="1008" 
d="M399 -93h252l-5 -68q-7 -107 -48 -206.5t-91 -158.5h-185q31 77 54 171.5t23 180.5v81zM953 381q0 -194 -117.5 -297.5t-357.5 -103.5q-96 0 -210.5 15.5t-209.5 48.5l39 245q180 -54 331 -54q114 0 173.5 31t59.5 112q0 61 -36.5 97t-162 78t-171.5 59
q-111 41 -165.5 127.5t-54.5 224.5q0 87 30.5 162.5t89.5 131t145.5 86t193.5 30.5q197 0 371 -51l-35 -249q-163 46 -298 46q-99 0 -155.5 -37.5t-56.5 -106.5q0 -56 28 -93t119 -66l150 -47q156 -49 228 -138t72 -251z" />
    <glyph glyph-name="scommaaccent" unicode="&#x219;" horiz-adv-x="850" 
d="M797 280q0 -300 -387 -300q-78 0 -177 12.5t-167 38.5l35 204q44 -15 121 -29.5t145 -14.5q83 0 121.5 17.5t38.5 67.5q0 42 -29.5 70t-188.5 67q-124 30 -182.5 95.5t-58.5 204.5q0 135 99.5 219t279.5 84q156 0 309 -36l-28 -208q-135 33 -243 33q-74 0 -111.5 -21.5
t-37.5 -71.5q0 -43 34 -68.5t161 -56.5q148 -37 207 -104t59 -203zM308 -93h251l-5 -68q-7 -108 -48 -207.5t-91 -157.5h-185q32 76 55 170.5t23 181.5v81z" />
    <glyph glyph-name="uni021A" unicode="&#x21a;" horiz-adv-x="1051" 
d="M377 0v1107h-351v247h999v-247h-350v-1107h-298zM403 -93h252l-4 -62q-6 -109 -47.5 -210.5t-92.5 -160.5h-185q31 75 54 170t23 182v81z" />
    <glyph glyph-name="uni021B" unicode="&#x21b;" horiz-adv-x="702" 
d="M23 775v221h138l15 278h258l1 -278h211v-221h-206v-451q0 -54 23.5 -83t80.5 -29q52 0 120 13l16 -219q-92 -26 -214 -26q-133 0 -211.5 57.5t-90.5 176.5q-5 59 -8 135t-3 426h-130zM307 -93h252l-5 -68q-7 -108 -48 -207.5t-91 -157.5h-185q31 75 54 170t23 182v81z
" />
    <glyph glyph-name="uni0237" unicode="&#x237;" horiz-adv-x="530" 
d="M122 996h287v-990q0 -154 -79 -265.5t-278 -208.5l-126 186q108 71 152 139.5t44 168.5v970z" />
    <glyph glyph-name="uni0259" unicode="&#x259;" horiz-adv-x="1017" 
d="M937 599v-194q0 -200 -118.5 -312.5t-314.5 -112.5q-93 0 -171.5 28t-134.5 83t-86.5 135t-30.5 180l5 165h572v38q0 177 -229 177q-140 0 -305 -35l-24 216q173 49 371 49q102 0 188 -27t148 -80t96 -132t34 -178zM504 197q154 0 154 186v35h-309v-35q0 -186 155 -186z
" />
    <glyph glyph-name="uni0272" unicode="&#x272;" horiz-adv-x="1135" 
d="M128 996h246l15 -106q178 126 343 126q136 0 210.5 -74.5t74.5 -214.5v-727h-287v638q0 121 -116 121q-44 0 -97.5 -19.5t-101.5 -53.5v-680q0 -153 -79 -265t-277 -209l-126 186q108 72 151.5 140t43.5 168v970z" />
    <glyph glyph-name="circumflex" unicode="&#x2c6;" horiz-adv-x="830" 
d="M73 1110l200 365h284l199 -365l-243 -12l-98 211l-98 -211z" />
    <glyph glyph-name="caron" unicode="&#x2c7;" horiz-adv-x="842" 
d="M769 1468l-206 -364h-284l-206 364l244 13l104 -211l104 211z" />
    <glyph glyph-name="breve" unicode="&#x2d8;" horiz-adv-x="789" 
d="M73 1444h223q2 -54 26 -87.5t73 -33.5t72.5 33.5t25.5 87.5h223q0 -148 -85.5 -236t-235.5 -88t-236 88t-86 236z" />
    <glyph glyph-name="dotaccent" unicode="&#x2d9;" horiz-adv-x="459" 
d="M73 1283q0 148 157 148q76 0 116 -37.5t40 -110.5q0 -149 -156 -149q-76 0 -116.5 37.5t-40.5 111.5z" />
    <glyph glyph-name="ring" unicode="&#x2da;" horiz-adv-x="661" 
d="M73 1296q0 103 71 166t189 63q114 0 184.5 -62t70.5 -161q0 -103 -71 -165.5t-189 -62.5q-114 0 -184.5 61.5t-70.5 160.5zM247 1300q0 -33 24 -55.5t59 -22.5q37 0 60.5 21.5t23.5 54.5q0 34 -23.5 56.5t-59.5 22.5t-60 -22t-24 -55z" />
    <glyph glyph-name="ogonek" unicode="&#x2db;" horiz-adv-x="556" 
d="M409 60l37 -60q-163 -112 -163 -213q0 -35 22 -54.5t59 -19.5q54 0 91 13l16 -175q-57 -19 -137 -19q-121 0 -192 48.5t-71 149.5q0 94 91 182.5t247 147.5z" />
    <glyph glyph-name="tilde" unicode="&#x2dc;" horiz-adv-x="874" 
d="M314 1425q48 0 126.5 -29.5t110.5 -29.5q61 0 119 68l131 -93q-12 -34 -40.5 -82t-81.5 -86.5t-119 -38.5q-48 0 -126.5 29.5t-110.5 29.5q-62 0 -118 -68l-132 93q12 34 40.5 82.5t81 86.5t119.5 38z" />
    <glyph glyph-name="hungarumlaut" unicode="&#x2dd;" horiz-adv-x="906" 
d="M255 1088l-182 27l100 404l256 -50zM595 1088l-182 29l151 398l268 -61z" />
    <glyph glyph-name="acutecomb" unicode="&#x301;" horiz-adv-x="582" 
d="M262 1038l-182 37l159 276l276 -68z" />
    <glyph glyph-name="dotbelowcomb" unicode="&#x323;" horiz-adv-x="459" 
d="M73 -294q0 148 157 148q156 0 156 -148q0 -64 -35.5 -106t-120.5 -42q-76 0 -116.5 37.5t-40.5 110.5z" />
    <glyph glyph-name="uni0E3F" unicode="&#xe3f;" horiz-adv-x="1149" 
d="M409 1522h261l-15 -280q169 -10 255 -88.5t86 -214.5q0 -86 -43.5 -148t-120.5 -94q91 -34 148.5 -104t57.5 -164q0 -148 -97 -230t-280 -89l15 -278h-262l15 276h-279v1137h273zM750 450q0 66 -44.5 104.5t-118.5 38.5h-166v-289h169q76 0 118 39t42 107zM595 786
q64 0 96 37.5t32 93.5q0 55 -31 90.5t-95 39.5l-57 2h-119v-263h174z" />
    <glyph glyph-name="Wgrave" unicode="&#x1e80;" horiz-adv-x="1797" 
d="M1453 1354h317l-302 -1354h-386l-184 870l-183 -870h-386l-302 1354h316l210 -1048l202 1028h286l205 -1028zM1036 1494l-176 -54l-316 326l264 92z" />
    <glyph glyph-name="wgrave" unicode="&#x1e81;" horiz-adv-x="1515" 
d="M1204 996h294l-260 -996h-330l-151 600l-149 -600h-330l-260 996h294l160 -716l167 700h237l167 -700zM896 1135l-177 -54l-315 326l263 93z" />
    <glyph glyph-name="Wacute" unicode="&#x1e82;" horiz-adv-x="1797" 
d="M1453 1354h317l-302 -1354h-386l-184 870l-183 -870h-386l-302 1354h316l210 -1048l202 1028h286l205 -1028zM932 1440l-177 54l228 364l264 -92z" />
    <glyph glyph-name="wacute" unicode="&#x1e83;" horiz-adv-x="1515" 
d="M1204 996h294l-260 -996h-330l-151 600l-149 -600h-330l-260 996h294l160 -716l167 700h237l167 -700zM787 1081l-177 54l229 365l263 -93z" />
    <glyph glyph-name="Wdieresis" unicode="&#x1e84;" horiz-adv-x="1797" 
d="M1453 1354h317l-302 -1354h-386l-184 870l-183 -870h-386l-302 1354h316l210 -1048l202 1028h286l205 -1028zM531 1641q0 148 157 148q156 0 156 -148q0 -64 -35.5 -106t-120.5 -42q-76 0 -116.5 37.5t-40.5 110.5zM967 1641q0 148 156 148t156 -148t-156 -148
q-76 0 -116 37.5t-40 110.5z" />
    <glyph glyph-name="wdieresis" unicode="&#x1e85;" horiz-adv-x="1515" 
d="M1204 996h294l-260 -996h-330l-151 600l-149 -600h-330l-260 996h294l160 -716l167 700h237l167 -700zM383 1283q0 148 157 148q76 0 116 -37.5t40 -110.5q0 -149 -156 -149q-76 0 -116.5 37.5t-40.5 111.5zM819 1283q0 148 156 148q76 0 116 -37.5t40 -110.5
q0 -149 -156 -149t-156 149z" />
    <glyph glyph-name="uni1E9E" unicode="&#x1e9e;" horiz-adv-x="1297" 
d="M1258 367q0 -187 -113 -287t-328 -100q-172 0 -305 42l27 244q126 -34 246 -34q185 0 185 142q0 59 -43 104t-162 80l-175 51l257 473q-94 43 -199 43q-111 0 -175 -56.5t-64 -156.5v-912h-287v955q0 92 35.5 170t101.5 133.5t161 85.5t208 30q151 0 299 -49t254 -136
l-252 -438l27 -10q153 -57 227.5 -144.5t74.5 -229.5z" />
    <glyph glyph-name="uni1EA0" unicode="&#x1ea0;" horiz-adv-x="1244" 
d="M1222 0h-317l-75 289h-416l-75 -289h-317l388 1354h425zM622 1128l-158 -606h317zM465 -294q0 148 157 148q156 0 156 -148q0 -64 -35.5 -106t-120.5 -42q-76 0 -116.5 37.5t-40.5 110.5z" />
    <glyph glyph-name="uni1EA1" unicode="&#x1ea1;" horiz-adv-x="1033" 
d="M58 268q0 92 44.5 156t126 100.5t192.5 36.5h177v69q0 73 -38 110.5t-136 37.5q-128 0 -285 -47l-36 225q186 60 362 60q217 0 311.5 -92t94.5 -302v-326q0 -38 15.5 -58.5t43.5 -20.5q29 0 64 8l3 -216q-65 -29 -156 -29q-134 0 -197 102q-139 -102 -285 -102
q-138 0 -219.5 72.5t-81.5 215.5zM435 175q83 0 163 52v177h-147q-60 0 -94 -31.5t-34 -88.5q0 -52 32 -80.5t80 -28.5zM362 -294q0 148 156 148t156 -148q0 -64 -35.5 -106t-120.5 -42q-76 0 -116 37.5t-40 110.5z" />
    <glyph glyph-name="uni1EB8" unicode="&#x1eb8;" horiz-adv-x="1040" 
d="M132 0v1354h835v-251h-537v-305h517v-235h-517v-312h558v-251h-856zM418 -294q0 148 157 148q156 0 156 -148q0 -64 -35.5 -106t-120.5 -42q-76 0 -116.5 37.5t-40.5 110.5z" />
    <glyph glyph-name="uni1EB9" unicode="&#x1eb9;" horiz-adv-x="1015" 
d="M80 397v194q0 99 31 179.5t88.5 135t137.5 82.5t176 28q93 0 171 -28.5t134 -83t86.5 -134.5t30.5 -180l-4 -165h-573v-38q0 -177 229 -177q141 0 306 35l23 -216q-170 -49 -371 -49q-102 0 -188 27t-148 80t-95.5 132t-33.5 178zM358 620v-42h310v34q0 187 -155 187
q-76 0 -115.5 -46t-39.5 -133zM359 -294q0 148 156 148t156 -148q0 -64 -35.5 -106t-120.5 -42q-76 0 -116 37.5t-40 110.5z" />
    <glyph glyph-name="uni1EBC" unicode="&#x1ebc;" horiz-adv-x="1040" 
d="M132 0v1354h835v-251h-537v-305h517v-235h-517v-312h558v-251h-856zM433 1784q48 0 127 -30t111 -30q59 0 118 69l131 -94q-11 -33 -39.5 -81.5t-81.5 -86.5t-119 -38q-48 0 -127 29.5t-110 29.5q-62 0 -119 -69l-131 94q12 34 40.5 82t81 86.5t118.5 38.5z" />
    <glyph glyph-name="uni1EBD" unicode="&#x1ebd;" horiz-adv-x="1015" 
d="M80 397v194q0 99 31 179.5t88.5 135t137.5 82.5t176 28q93 0 171 -28.5t134 -83t86.5 -134.5t30.5 -180l-4 -165h-573v-38q0 -177 229 -177q141 0 306 35l23 -216q-170 -49 -371 -49q-102 0 -188 27t-148 80t-95.5 132t-33.5 178zM358 620v-42h310v34q0 187 -155 187
q-76 0 -115.5 -46t-39.5 -133zM384 1425q48 0 126.5 -29.5t110.5 -29.5q61 0 119 68l131 -93q-12 -34 -40.5 -82t-81.5 -86.5t-119 -38.5q-48 0 -126.5 29.5t-110.5 29.5q-62 0 -118 -68l-132 93q12 34 40.5 82.5t81 86.5t119.5 38z" />
    <glyph glyph-name="uni1ECA" unicode="&#x1eca;" horiz-adv-x="561" 
d="M429 1354v-1354h-297v1354h297zM124 -294q0 148 157 148q156 0 156 -148q0 -64 -35.5 -106t-120.5 -42q-76 0 -116.5 37.5t-40.5 110.5z" />
    <glyph glyph-name="uni1ECB" unicode="&#x1ecb;" horiz-adv-x="518" 
d="M115 996h287v-996h-287v996zM102 -294q0 148 157 148q156 0 156 -148q0 -64 -35.5 -106t-120.5 -42q-76 0 -116.5 37.5t-40.5 110.5zM103 1283q0 148 156 148t156 -148q0 -149 -156 -149t-156 149z" />
    <glyph glyph-name="uni1ECC" unicode="&#x1ecc;" horiz-adv-x="1219" 
d="M453 -294q0 148 157 148q156 0 156 -148q0 -64 -35.5 -106t-120.5 -42q-76 0 -116.5 37.5t-40.5 110.5zM90 436v482q0 218 142 337t377 119q236 0 378.5 -119t142.5 -337v-482q0 -219 -142 -337.5t-379 -118.5q-236 0 -377.5 118.5t-141.5 337.5zM388 925v-496
q0 -100 58 -158t163 -58t163.5 58t58.5 158v496q0 100 -58.5 157.5t-163.5 57.5t-163 -57.5t-58 -157.5z" />
    <glyph glyph-name="uni1ECD" unicode="&#x1ecd;" horiz-adv-x="1093" 
d="M86 398v199q0 74 22 149t77 134.5t144.5 97.5t217.5 38q101 0 186 -27t146 -80.5t94.5 -132.5t33.5 -179v-199q0 -74 -22 -148.5t-77 -134t-144.5 -97.5t-216.5 -38q-101 0 -186.5 27t-146.5 80t-94.5 132.5t-33.5 178.5zM373 608v-205q0 -91 43.5 -143t130.5 -52
q86 0 129.5 52t43.5 143v189q0 89 -43.5 142.5t-129.5 53.5q-83 0 -128.5 -48.5t-45.5 -131.5zM390 -294q0 148 157 148q156 0 156 -148q0 -64 -35.5 -106t-120.5 -42q-76 0 -116.5 37.5t-40.5 110.5z" />
    <glyph glyph-name="uni1EE4" unicode="&#x1ee4;" horiz-adv-x="1258" 
d="M838 1354h298v-936q0 -205 -136 -321.5t-371 -116.5t-371 116.5t-136 321.5v936h297v-938q0 -86 57.5 -139t152.5 -53t152 53t57 139v938zM472 -294q0 148 157 148q156 0 156 -148q0 -64 -35.5 -106t-120.5 -42q-76 0 -116.5 37.5t-40.5 110.5z" />
    <glyph glyph-name="uni1EE5" unicode="&#x1ee5;" horiz-adv-x="1129" 
d="M1001 0h-246l-15 106q-77 -56 -165 -91t-175 -35q-135 0 -208.5 74.5t-73.5 214.5v727h287v-639q0 -120 113 -120q43 0 95.5 19.5t100.5 53.5v686h287v-996zM412 -294q0 148 156 148t156 -148t-156 -148q-76 0 -116 37.5t-40 110.5z" />
    <glyph glyph-name="Ygrave" unicode="&#x1ef2;" horiz-adv-x="1150" 
d="M816 1354h306l-399 -871v-483h-297v483l-398 871h305l242 -582zM713 1494l-177 -54l-315 326l263 92z" />
    <glyph glyph-name="ygrave" unicode="&#x1ef3;" horiz-adv-x="1054" 
d="M549 -448h-288l154 448h-93l-311 996h302l201 -746l212 746h310l-332 -996zM660 1135l-176 -54l-316 326l264 93z" />
    <glyph glyph-name="uni1EF8" unicode="&#x1ef8;" horiz-adv-x="1150" 
d="M816 1354h306l-399 -871v-483h-297v483l-398 871h305l242 -582zM452 1784q48 0 127 -30t110 -30q60 0 119 69l131 -94q-12 -34 -40.5 -82t-81 -86t-118.5 -38q-48 0 -127 29.5t-111 29.5q-61 0 -118 -69l-131 94q11 34 39.5 82t81 86.5t119.5 38.5z" />
    <glyph glyph-name="uni1EF9" unicode="&#x1ef9;" horiz-adv-x="1054" 
d="M549 -448h-288l154 448h-93l-311 996h302l201 -746l212 746h310l-332 -996zM394 1425q48 0 127 -29.5t110 -29.5q61 0 119 68l131 -93q-12 -34 -40.5 -82t-81 -86.5t-119.5 -38.5q-47 0 -126 29.5t-111 29.5q-60 0 -118 -68l-131 93q11 34 39.5 82t81 86.5t119.5 38.5z
" />
    <glyph glyph-name="endash" unicode="&#x2013;" horiz-adv-x="1094" 
d="M81 386v224h932v-224h-932z" />
    <glyph glyph-name="emdash" unicode="&#x2014;" horiz-adv-x="1545" 
d="M81 386v224h1383v-224h-1383z" />
    <glyph glyph-name="quoteleft" unicode="&#x2018;" horiz-adv-x="418" 
d="M322 933h-249v113q0 244 136 430h177q-25 -65 -44.5 -169t-19.5 -205v-169z" />
    <glyph glyph-name="quoteright" unicode="&#x2019;" horiz-adv-x="449" 
d="M121 1450h249v-113q0 -244 -136 -431h-177q25 66 44.5 170t19.5 205v169z" />
    <glyph glyph-name="quotesinglbase" unicode="&#x201a;" horiz-adv-x="439" 
d="M94 248h248v-113q0 -244 -135 -431h-178q26 65 45.5 169.5t19.5 205.5v169z" />
    <glyph glyph-name="quotedblleft" unicode="&#x201c;" horiz-adv-x="803" 
d="M322 933h-249v113q0 244 136 430h177q-25 -65 -44.5 -169t-19.5 -205v-169zM707 933h-249v113q0 244 136 430h177q-25 -65 -44.5 -169t-19.5 -205v-169z" />
    <glyph glyph-name="quotedblright" unicode="&#x201d;" horiz-adv-x="834" 
d="M121 1450h249v-113q0 -244 -136 -431h-177q25 66 44.5 170t19.5 205v169zM506 1450h249v-113q0 -244 -136 -431h-177q25 66 44.5 170t19.5 205v169z" />
    <glyph glyph-name="quotedblbase" unicode="&#x201e;" horiz-adv-x="824" 
d="M94 248h248v-113q0 -244 -135 -431h-178q26 65 45.5 169.5t19.5 205.5v169zM479 248h249v-113q0 -245 -136 -431h-177q25 65 44.5 169.5t19.5 205.5v169z" />
    <glyph glyph-name="dagger" unicode="&#x2020;" horiz-adv-x="1112" 
d="M421 1579h269l-3 -443l387 11v-256l-388 9l-6 -1124h-249l-7 1124l-386 -9v256l385 -11z" />
    <glyph glyph-name="daggerdbl" unicode="&#x2021;" horiz-adv-x="1125" 
d="M42 922v256l388 -13v414h263v-414l389 13v-256l-389 12v-514l390 13v-256l-390 11v-412h-263v412l-388 -11v256l388 -13v514z" />
    <glyph glyph-name="bullet" unicode="&#x2022;" horiz-adv-x="685" 
d="M73 676q0 126 70 191t200 65t199.5 -65t69.5 -191q0 -127 -69.5 -192t-199.5 -65t-200 65.5t-70 191.5z" />
    <glyph glyph-name="ellipsis" unicode="&#x2026;" horiz-adv-x="1402" 
d="M79 128q0 149 157 149q156 0 156 -149q0 -64 -35.5 -106t-120.5 -42q-76 0 -116.5 37.5t-40.5 110.5zM545 128q0 149 156 149t156 -149q0 -148 -156 -148q-76 0 -116 37.5t-40 110.5zM1010 128q0 149 156 149q157 0 157 -149q0 -148 -157 -148q-75 0 -115.5 37.5
t-40.5 110.5z" />
    <glyph glyph-name="guilsinglleft" unicode="&#x2039;" horiz-adv-x="607" 
d="M367 498l183 -371l-217 -88l-248 459l248 459l217 -88z" />
    <glyph glyph-name="guilsinglright" unicode="&#x203a;" horiz-adv-x="607" 
d="M240 498l-184 370l217 89l249 -459l-249 -459l-217 88z" />
    <glyph glyph-name="fraction" unicode="&#x2044;" horiz-adv-x="944" 
d="M50 754h844v-152h-844v152z" />
    <glyph glyph-name="uni2070" unicode="&#x2070;" horiz-adv-x="777" 
d="M63 924v157q0 84 39 146t112.5 99.5t173.5 37.5t173.5 -37.5t113 -99.5t39.5 -146v-157q0 -84 -39.5 -146t-113 -99.5t-173.5 -37.5t-173.5 37.5t-112.5 99.5t-39 146zM283 1069v-133q0 -49 29 -78t76 -29t76 29t29 78v133q0 49 -29 78t-76 29t-76 -29t-29 -78z" />
    <glyph glyph-name="uni2074" unicode="&#x2074;" horiz-adv-x="663" 
d="M30 770v153l295 429v2h217v-419h97v-165h-97v-119h-215v119h-297zM234 930h107v156z" />
    <glyph glyph-name="franc" unicode="&#x20a3;" horiz-adv-x="1190" 
d="M243 0v204h-147v157h147v993h835v-247h-537v-305h516v-243h-516v-198h246v-157h-246v-204h-298z" />
    <glyph glyph-name="lira" unicode="&#x20a4;" horiz-adv-x="1194" 
d="M139 224q79 0 119 38t41 123v89h-140v153h769v-153h-335v-98q-3 -94 -61 -152h526v-244h-919v244zM159 878h140v69q0 82 23.5 158t79 135t145.5 96.5t217 37.5q129 0 280 -33l-24 -247q-125 24 -224 24t-151 -51t-52 -149v-40h335v-153h-769v153z" />
    <glyph glyph-name="uni20A9" unicode="&#x20a9;" horiz-adv-x="2042" 
d="M1349 320l188 1034h308l-83 -411h200v-117h-223l-23 -109h174v-117h-197l-122 -600h-386l-164 844l-163 -844h-386l-122 600h-198v117h175l-23 109h-224v117h201l-84 411h309l190 -1034l182 1014h287z" />
    <glyph glyph-name="Euro" unicode="&#x20ac;" horiz-adv-x="1256" 
d="M125 627h796v-153h-363v-25q0 -105 73 -161t198 -56q57 0 133 10t139 29l21 -237q-147 -54 -340 -54q-131 0 -250 47t-193 149t-74 248v50h-140v153zM125 878h140v32q0 132 55.5 237t176.5 166t281 61q72 0 165.5 -15t154.5 -41l-24 -242q-138 46 -263 46
q-120 0 -186 -62.5t-67 -181.5h363v-153h-796v153z" />
    <glyph glyph-name="uni20B1" unicode="&#x20b1;" horiz-adv-x="1401" 
d="M96 922v117h129v315h474q185 0 311 -81.5t160 -233.5h132v-117h-120v-83h120v-117h-131q-31 -147 -147 -227.5t-287 -86.5l-90 -1h-125v-407h-297v722h-129v117h129v83h-129zM522 1120v-479h168q96 0 146 51.5t50 146.5v98q0 87 -53 135t-143 48h-168z" />
    <glyph glyph-name="uni20B9" unicode="&#x20b9;" horiz-adv-x="1076" 
d="M131 833v147h387q-18 146 -220 146h-167v228h892v-147h-298q87 -90 97 -227h174v-147h-176q-12 -129 -109.5 -216t-247.5 -120l388 -497h-333l-383 493v194h114q249 0 269 146h-387z" />
    <glyph glyph-name="uni20BA" unicode="&#x20ba;" horiz-adv-x="1122" 
d="M559 1354v-285l207 140l80 -118l-287 -194v-91l208 141l80 -118l-288 -194v-403q109 0 170 71t55 203l250 10q7 -168 -53.5 -285t-185.5 -174t-299 -57h-235v434l-125 -84l-79 118l204 138v90l-125 -84l-80 118l205 138v486h298z" />
    <glyph glyph-name="afii61352" unicode="&#x2116;" horiz-adv-x="1956" 
d="M889 0l-467 861v-861h-290v1354h296l467 -861v861h290v-1354h-296zM1317 1066v50q0 119 84 188.5t212 69.5t212 -69.5t84 -188.5v-50q0 -119 -84 -188.5t-212 -69.5t-212 69.5t-84 188.5zM1325 717h576v-154h-576v154zM1523 1100q0 -107 90 -107q41 0 65.5 25t24.5 64
q0 107 -90 107q-41 0 -65.5 -25t-24.5 -64z" />
    <glyph glyph-name="trademark" unicode="&#x2122;" horiz-adv-x="1137" 
d="M160 817v382h-137v155h444v-155h-136v-382h-171zM954 817v308l-86 -239h-109l-85 237v-306h-160v537h199l100 -276l103 276h198v-537h-160z" />
    <glyph glyph-name="estimated" unicode="&#x212e;" horiz-adv-x="1811" 
d="M1680 643h-1255q-10 0 -10 -10v-357q0 -23 17 -45q75 -77 194.5 -127.5t279.5 -50.5q151 0 279.5 51t220.5 148h112q-106 -125 -265.5 -198.5t-348.5 -73.5q-200 0 -377.5 86.5t-286.5 250t-109 359.5q0 177 97 338t279 260.5t397 99.5q196 0 375 -89.5t290 -256.5
t111 -362v-23zM1395 724v356q0 26 -20 45q-85 86 -207.5 131t-261.5 45q-142 0 -263.5 -44.5t-208.5 -131.5q-19 -20 -19 -49v-352q0 -12 10 -12h962q8 0 8 12z" />
    <glyph glyph-name="minus" unicode="&#x2212;" horiz-adv-x="1008" 
d="M131 798h746v-242h-746v242z" />
    <glyph glyph-name="uni2215" unicode="&#x2215;" horiz-adv-x="944" 
d="M50 754h844v-152h-844v152z" />
    <glyph glyph-name="uni2219" unicode="&#x2219;" horiz-adv-x="459" 
d="M73 677q0 148 157 148q76 0 116 -37.5t40 -110.5q0 -64 -35.5 -106t-120.5 -42q-76 0 -116.5 37.5t-40.5 110.5z" />
    <glyph glyph-name="approxequal" unicode="&#x2248;" horiz-adv-x="1148" 
d="M240 711l-109 126q42 78 114.5 130.5t159.5 52.5q63 0 158 -36.5t139 -36.5q82 0 163 77l109 -134q-42 -74 -115 -124.5t-160 -50.5q-62 0 -157 36.5t-140 36.5q-81 0 -162 -77zM260 339l-109 126q37 70 107.5 122.5t155.5 52.5q9 0 32 -1.5t47.5 -8.5t103.5 -35t125 -28
q92 0 186 77l109 -134q-44 -74 -121.5 -123.5t-174.5 -49.5q-66 0 -165 35.5t-145 35.5q-78 0 -151 -69z" />
    <glyph glyph-name="notequal" unicode="&#x2260;" horiz-adv-x="1020" 
d="M131 745v234h439l141 287l135 -61l-111 -226h154v-234h-264l-66 -136h330v-234h-440l-140 -287l-135 61l110 226h-153v234h263l67 136h-330z" />
    <glyph glyph-name="lessequal" unicode="&#x2264;" horiz-adv-x="1009" 
d="M165 187h713v-164h-713v164zM691 1324l187 -168l-385 -339l385 -339l-187 -168l-560 507z" />
    <glyph glyph-name="greaterequal" unicode="&#x2265;" horiz-adv-x="1009" 
d="M131 187h713v-164h-713v164zM318 310l-187 168l384 339l-384 339l187 168l560 -507z" />
    <glyph glyph-name="uniF6C3" unicode="&#xf6c3;" horiz-adv-x="476" 
d="M151 -93h252l-6 -68q-6 -107 -47.5 -206.5t-91.5 -158.5h-185q32 76 55 170.5t23 181.5v81z" />
    <glyph glyph-name="uniF730" unicode="&#xf730;" horiz-adv-x="1181" 
d="M90 440v316q0 83 24 164t83.5 147t157 107.5t235.5 41.5q228 0 364.5 -119.5t136.5 -340.5v-316q0 -125 -50 -228.5t-166.5 -167.5t-284.5 -64q-227 0 -363.5 119.5t-136.5 340.5zM387 762v-281q0 -123 49 -197t154 -74q104 0 154 66t50 181v258q0 122 -49.5 196
t-154.5 74q-99 0 -151 -59t-52 -164z" />
    <glyph glyph-name="uniF731" unicode="&#xf731;" horiz-adv-x="736" 
d="M64 828l-27 245l351 123h216v-1196h-293v906z" />
    <glyph glyph-name="uniF732" unicode="&#xf732;" horiz-adv-x="965" 
d="M891 252v-252h-830v232q261 219 349 305t125.5 149.5t37.5 114.5q0 81 -53 121t-147 40q-132 0 -276 -57l-27 243q62 29 153.5 48.5t176.5 19.5q145 0 246 -48t154 -132t53 -205q0 -136 -101.5 -270.5t-317.5 -308.5h457z" />
    <glyph glyph-name="uniF733" unicode="&#xf733;" horiz-adv-x="916" 
d="M168 412v224h188q80 0 138 44t58 120q0 83 -57 125.5t-163 42.5q-134 0 -264 -37l-21 231q146 54 331 54q209 0 330.5 -99t121.5 -282q0 -90 -44 -170t-144 -134q97 -44 153.5 -128t56.5 -198q0 -74 -24.5 -142.5t-82 -121.5t-155 -86t-241.5 -33q-160 0 -316 43l20 237
q130 -32 280 -32q103 0 172 44t69 129q0 81 -64.5 125t-158.5 44h-183z" />
    <glyph glyph-name="uniF734" unicode="&#xf734;" horiz-adv-x="1112" 
d="M658 1208h249v-851h148v-227h-148v-276h-266v276h-564v217zM361 357h286v426z" />
    <glyph glyph-name="uniF735" unicode="&#xf735;" horiz-adv-x="973" 
d="M920 255q0 -212 -130.5 -316.5t-377.5 -104.5q-191 0 -349 40l29 246q159 -30 292 -30q118 0 183.5 39.5t65.5 133.5q0 187 -284 189q-59 0 -111.5 -1.5t-95 -3.5t-44.5 -2l30 763h722v-251h-491l-13 -284q61 0 133 -5q150 -10 246.5 -63.5t145.5 -140.5t49 -209z" />
    <glyph glyph-name="uniF736" unicode="&#xf736;" horiz-adv-x="1087" 
d="M90 411v424q0 270 137.5 404.5t418.5 134.5q151 0 298 -42l-28 -246q-138 37 -265 37q-150 0 -219 -68t-69 -205v-78q125 48 232 48q142 0 236.5 -49.5t143.5 -138t49 -218.5q0 -203 -124.5 -318.5t-342.5 -115.5q-102 0 -188 26.5t-147.5 79.5t-96.5 134t-35 191z
M550 597q-101 0 -187 -39v-156q0 -85 52 -133.5t142 -48.5q89 0 140 52t51 140q0 185 -198 185z" />
    <glyph glyph-name="uniF737" unicode="&#xf737;" horiz-adv-x="908" 
d="M29 960v248h822v-238l-424 -1116h-297l441 1106h-542z" />
    <glyph glyph-name="uniF738" unicode="&#xf738;" horiz-adv-x="1094" 
d="M1023 326q0 -55 -21.5 -114t-76 -110t-148.5 -86.5t-230 -35.5q-109 0 -198 25.5t-149.5 72.5t-92 112t-31.5 141q0 104 53 189t196 164q-113 64 -167.5 140.5t-54.5 182.5q0 78 26 137t70.5 106.5t132 85.5t215.5 38q76 0 154.5 -18.5t142.5 -62.5t105.5 -116t41.5 -170
q0 -88 -48 -166.5t-174 -152.5q131 -71 192.5 -157t61.5 -205zM547 200q83 0 137.5 43t54.5 117q0 57 -40 111t-154 115q-96 -45 -142 -95.5t-46 -130.5q0 -74 53.5 -117t136.5 -43zM725 991q0 75 -50 115.5t-128 40.5q-79 0 -128.5 -40t-49.5 -116q0 -52 38 -99.5
t142 -105.5q87 42 131.5 88t44.5 117z" />
    <glyph glyph-name="uniF739" unicode="&#xf739;" horiz-adv-x="1087" 
d="M1003 785v-454q0 -509 -556 -509q-166 0 -310 48l28 246q145 -43 277 -43q150 0 219 61t69 182v100q-125 -48 -232 -48q-142 0 -236.5 50.5t-143.5 140.5t-49 223q0 203 124.5 318.5t342.5 115.5q102 0 188 -26.5t147.5 -79.5t96.5 -134t35 -191zM543 591q101 0 187 39
v164q0 85 -52 133.5t-142 48.5q-89 0 -140 -52t-51 -140q0 -193 198 -193z" />
    <glyph glyph-name="uniFB00" unicode="&#xfb00;" horiz-adv-x="1253" 
d="M22 775v221h131v110q0 155 90.5 246.5t254.5 91.5q96 0 190 -22l-36 -220q-55 10 -97 10q-62 0 -92.5 -30t-30.5 -96v-90h308v116q0 167 88.5 259.5t256.5 92.5q107 0 200 -24l-27 -220q-69 12 -113 12q-61 0 -91.5 -34t-30.5 -111v-91h221v-221h-217v-775h-287v775h-300
v-775h-287v775h-131z" />
    <glyph glyph-name="uniFB02" unicode="&#xfb02;" horiz-adv-x="1175" 
d="M434 1061v-65h192v-221h-186v-775h-287v775h-131v221h131v79q0 158 90 258t269 120q91 10 188 -2q89 2 213.5 -13.5t133.5 -15.5v-1422h-287v1209q-89 17 -152 17q-87 0 -130.5 -39t-43.5 -126z" />
    <glyph glyph-name="uniFB04" unicode="&#xfb04;" horiz-adv-x="1762" 
d="M22 775v221h131v110q0 155 90 246.5t255 91.5q96 0 190 -22l-36 -220q-55 10 -97 10q-62 0 -92.5 -30t-30.5 -96v-90h308v79q0 158 90 258t269 120q91 10 188 -2q89 2 215 -13.5t132 -15.5v-1422h-287v1209q-89 17 -152 17q-87 0 -130.5 -39t-43.5 -126v-65h192v-221
h-186v-775h-287v775h-300v-775h-287v775h-131z" />
    <glyph glyph-name="uniFB06" unicode="&#xfb06;" horiz-adv-x="1552" 
d="M866 775v221h135v287h-235q-84 0 -129 -35t-45 -97q0 -109 164 -171l-28 -208q-135 33 -243 33q-74 0 -111.5 -21.5t-37.5 -71.5q0 -43 33.5 -68t161.5 -57q147 -36 206.5 -103t59.5 -204q0 -300 -387 -300q-78 0 -176.5 12.5t-167.5 38.5l35 204q44 -15 121 -29.5
t145 -14.5q83 0 121.5 17.5t38.5 67.5q0 48 -36.5 74.5t-181.5 62.5q-144 36 -193.5 106.5t-49.5 194.5q0 138 101 219t283 83q-92 76 -92 182q0 92 52 158t139 101t207 35h521v-496h211v-221h-205v-451q0 -54 23 -83t80 -29q55 0 120 13l16 -219q-92 -26 -214 -26
q-296 0 -309 266q-3 86 -3 529h-130z" />
    <glyph glyph-name="Euro.tnum" 
d="M117 627h796v-153h-362v-25q0 -105 73 -161t198 -56q57 0 133 10t139 29l20 -237q-147 -54 -339 -54q-159 0 -276.5 59t-179.5 155.5t-62 229.5v50h-140v153zM117 878h140v32q0 132 56 237t177 166t281 61q72 0 165.5 -15t154.5 -41l-25 -242q-138 46 -262 46
q-120 0 -186.5 -62.5t-66.5 -181.5h362v-153h-796v153z" />
    <glyph glyph-name="Euro.aalt" horiz-adv-x="1162" 
d="M115 559h735v-148h-324q0 -94 61 -142.5t176 -48.5q52 0 124.5 9.5t128.5 25.5l21 -226q-58 -20 -144.5 -34.5t-176.5 -14.5q-147 0 -254.5 52.5t-165 139.5t-57.5 205v34h-124v148zM115 784h124v18q0 118 51.5 211.5t163 148t259.5 54.5q69 0 156.5 -13t149.5 -35
l-28 -229q-142 37 -241 37q-101 0 -162 -49t-62 -140v-3h324v-148h-735v148z" />
    <glyph glyph-name="Euro.aalt.tnum" 
d="M154 559h734v-148h-324q1 -94 62 -142.5t176 -48.5q52 0 124.5 9.5t128.5 25.5l21 -226q-59 -20 -145 -34.5t-176 -14.5q-147 0 -255 52.5t-165.5 139.5t-57.5 205v34h-123v148zM154 784h123v18q0 79 25 153.5t85 132.5t151.5 93t212.5 35q69 0 156 -13t151 -35l-29 -229
q-142 37 -241 37q-100 0 -161 -49t-63 -140v-3h324v-148h-734v148z" />
    <glyph glyph-name="glyph55" horiz-adv-x="1123" 
d="M693 1354h298v-1348q0 -153 -81 -264.5t-284 -209.5l-126 185q107 71 150 139.5t43 169.5v1328zM429 1354v-1354h-297v1354h297zM301 1440l-177 54l228 364l264 -92zM862 1440l-177 54l229 364l263 -92z" />
    <glyph glyph-name="glyph138" horiz-adv-x="1150" 
d="M816 1354h306l-399 -871v-483h-297v483l-398 871h305l242 -582zM264 1528v221h622v-221h-622z" />
    <glyph glyph-name="a.salt" horiz-adv-x="983" 
d="M58 268q0 92 44.5 156t126 100.5t192.5 36.5h177v69q0 73 -38 110.5t-136 37.5q-128 0 -285 -47l-36 225q186 60 362 60q217 0 311.5 -92t94.5 -302v-622h-217l-22 74q-57 -40 -128.5 -67t-144.5 -27q-138 0 -219.5 72.5t-81.5 215.5zM435 175q83 0 163 52v177h-147
q-60 0 -94 -31.5t-34 -88.5q0 -52 32 -80.5t80 -28.5z" />
    <glyph glyph-name="a.sc" horiz-adv-x="1083" 
d="M1058 0h-290l-61 208h-331l-61 -208h-290l314 1036h406zM542 836l-126 -434h252z" />
    <glyph glyph-name="aacute.salt" horiz-adv-x="983" 
d="M485 1081l-177 54l228 365l264 -93zM58 268q0 92 44.5 156t126 100.5t192.5 36.5h177v69q0 73 -38 110.5t-136 37.5q-128 0 -285 -47l-36 225q186 60 362 60q217 0 311.5 -92t94.5 -302v-622h-217l-22 74q-57 -40 -128.5 -67t-144.5 -27q-138 0 -219.5 72.5t-81.5 215.5z
M435 175q83 0 163 52v177h-147q-60 0 -94 -31.5t-34 -88.5q0 -52 32 -80.5t80 -28.5z" />
    <glyph glyph-name="aacute.sc" horiz-adv-x="1083" 
d="M1058 0h-290l-61 208h-331l-61 -208h-290l314 1036h406zM542 836l-126 -434h252zM559 1109l-184 54l212 337l264 -94z" />
    <glyph glyph-name="abreve.salt" horiz-adv-x="983" 
d="M58 268q0 92 44.5 156t126 100.5t192.5 36.5h177v69q0 73 -38 110.5t-136 37.5q-128 0 -285 -47l-36 225q186 60 362 60q217 0 311.5 -92t94.5 -302v-622h-217l-22 74q-57 -40 -128.5 -67t-144.5 -27q-138 0 -219.5 72.5t-81.5 215.5zM435 175q83 0 163 52v177h-147
q-60 0 -94 -31.5t-34 -88.5q0 -52 32 -80.5t80 -28.5zM145 1442h223q2 -54 25.5 -87.5t72.5 -33.5t73 33.5t26 87.5h223q0 -149 -85.5 -236.5t-236.5 -87.5q-150 0 -235.5 87.5t-85.5 236.5z" />
    <glyph glyph-name="abreve.sc" horiz-adv-x="1083" 
d="M1058 0h-290l-61 208h-331l-61 -208h-290l314 1036h406zM542 836l-126 -434h252zM224 1444h222q2 -50 25 -80.5t70 -30.5q91 0 95 111h223q0 -142 -84.5 -226t-233.5 -84q-148 0 -232.5 84t-84.5 226z" />
    <glyph glyph-name="acircumflex.salt" horiz-adv-x="983" 
d="M58 268q0 92 44.5 156t126 100.5t192.5 36.5h177v69q0 73 -38 110.5t-136 37.5q-128 0 -285 -47l-36 225q186 60 362 60q217 0 311.5 -92t94.5 -302v-622h-217l-22 74q-57 -40 -128.5 -67t-144.5 -27q-138 0 -219.5 72.5t-81.5 215.5zM435 175q83 0 163 52v177h-147
q-60 0 -94 -31.5t-34 -88.5q0 -52 32 -80.5t80 -28.5zM139 1110l199 365h284l200 -365l-244 -12l-98 211l-98 -211z" />
    <glyph glyph-name="acircumflex.sc" horiz-adv-x="1083" 
d="M1058 0h-290l-61 208h-331l-61 -208h-290l314 1036h406zM542 836l-126 -434h252zM216 1138l183 337h285l183 -337l-236 -12l-90 183l-89 -183z" />
    <glyph glyph-name="glyph157" horiz-adv-x="628" 
d="M262 1109l-184 54l212 337l264 -94z" />
    <glyph glyph-name="glyph159" horiz-adv-x="582" 
d="M264 1046l-187 37l156 268l275 -68z" />
    <glyph glyph-name="adieresis.salt" horiz-adv-x="983" 
d="M58 268q0 92 44.5 156t126 100.5t192.5 36.5h177v69q0 73 -38 110.5t-136 37.5q-128 0 -285 -47l-36 225q186 60 362 60q217 0 311.5 -92t94.5 -302v-622h-217l-22 74q-57 -40 -128.5 -67t-144.5 -27q-138 0 -219.5 72.5t-81.5 215.5zM435 175q83 0 163 52v177h-147
q-60 0 -94 -31.5t-34 -88.5q0 -52 32 -80.5t80 -28.5zM96 1283q0 148 157 148q76 0 116 -37.5t40 -110.5q0 -149 -156 -149q-76 0 -116.5 37.5t-40.5 111.5zM532 1283q0 148 156 148t156 -148q0 -149 -156 -149t-156 149z" />
    <glyph glyph-name="adieresis.sc" horiz-adv-x="1083" 
d="M1058 0h-290l-61 208h-331l-61 -208h-290l314 1036h406zM542 836l-126 -434h252zM181 1290q0 141 152 141q74 0 113.5 -35.5t39.5 -105.5q0 -140 -153 -140q-73 0 -112.5 35.5t-39.5 104.5zM597 1290q0 61 35 101t118 40q152 0 152 -141q0 -140 -152 -140
q-153 0 -153 140z" />
    <glyph glyph-name="uni1EA1.salt" horiz-adv-x="983" 
d="M355 -294q0 148 157 148q156 0 156 -148q0 -64 -35.5 -106t-120.5 -42q-76 0 -116.5 37.5t-40.5 110.5zM58 268q0 92 44.5 156t126 100.5t192.5 36.5h177v69q0 73 -38 110.5t-136 37.5q-128 0 -285 -47l-36 225q186 60 362 60q217 0 311.5 -92t94.5 -302v-622h-217
l-22 74q-57 -40 -128.5 -67t-144.5 -27q-138 0 -219.5 72.5t-81.5 215.5zM435 175q83 0 163 52v177h-147q-60 0 -94 -31.5t-34 -88.5q0 -52 32 -80.5t80 -28.5z" />
    <glyph glyph-name="uni1EA1.sc" horiz-adv-x="1083" 
d="M1058 0h-290l-61 208h-331l-61 -208h-290l314 1036h406zM542 836l-126 -434h252zM385 -294q0 148 156 148q157 0 157 -148t-157 -148q-75 0 -115.5 37.5t-40.5 110.5z" />
    <glyph glyph-name="ae.sc" horiz-adv-x="1420" 
d="M757 0l-32 208h-324l-86 -208h-290l441 1036h882v-214h-448l37 -202h394v-199h-365l38 -207h360v-214h-607zM643 840l-178 -438h241z" />
    <glyph glyph-name="aeacute.sc" horiz-adv-x="1420" 
d="M757 0l-32 208h-324l-86 -208h-290l441 1036h882v-214h-448l37 -202h394v-199h-365l38 -207h360v-214h-607zM643 840l-178 -438h241zM864 1109l-184 54l211 337l265 -94z" />
    <glyph glyph-name="agrave.salt" horiz-adv-x="983" 
d="M58 268q0 92 44.5 156t126 100.5t192.5 36.5h177v69q0 73 -38 110.5t-136 37.5q-128 0 -285 -47l-36 225q186 60 362 60q217 0 311.5 -92t94.5 -302v-622h-217l-22 74q-57 -40 -128.5 -67t-144.5 -27q-138 0 -219.5 72.5t-81.5 215.5zM435 175q83 0 163 52v177h-147
q-60 0 -94 -31.5t-34 -88.5q0 -52 32 -80.5t80 -28.5zM652 1135l-177 -54l-315 326l264 93z" />
    <glyph glyph-name="agrave.sc" horiz-adv-x="1083" 
d="M1058 0h-290l-61 208h-331l-61 -208h-290l314 1036h406zM542 836l-126 -434h252zM704 1163l-180 -54l-295 297l265 94z" />
    <glyph glyph-name="amacron.salt" horiz-adv-x="983" 
d="M58 268q0 92 44.5 156t126 100.5t192.5 36.5h177v69q0 73 -38 110.5t-136 37.5q-128 0 -285 -47l-36 225q186 60 362 60q217 0 311.5 -92t94.5 -302v-622h-217l-22 74q-57 -40 -128.5 -67t-144.5 -27q-138 0 -219.5 72.5t-81.5 215.5zM435 175q83 0 163 52v177h-147
q-60 0 -94 -31.5t-34 -88.5q0 -52 32 -80.5t80 -28.5zM169 1170v221h622v-221h-622z" />
    <glyph glyph-name="amacron.sc" horiz-adv-x="1083" 
d="M1058 0h-290l-61 208h-331l-61 -208h-290l314 1036h406zM542 836l-126 -434h252zM234 1170v221h615v-221h-615z" />
    <glyph glyph-name="ampersand.sc" horiz-adv-x="1020" 
d="M40 284q0 179 188 290q-1 1 -26.5 38.5t-44.5 76t-19 96.5q0 82 44 141t129.5 94.5t208.5 35.5q64 0 144.5 -11t140.5 -30l-30 -209q-145 31 -243 31q-141 0 -141 -81q0 -27 13.5 -58.5t72.5 -103.5l230 -297q19 15 19 48q0 12 -3 36t-22 66t-149 194v90h423v-185h-136
q55 -67 78.5 -116t23.5 -113q0 -99 -101 -193l123 -155l-156 -125l-136 171q-33 -13 -85.5 -23t-100.5 -10q-205 0 -325 77.5t-120 224.5zM467 177q41 0 66 10l-190 243q-59 -44 -59 -123q0 -58 43 -94t140 -36z" />
    <glyph glyph-name="aogonek.salt" horiz-adv-x="983" 
d="M495 -270q0 69 51.5 139t156.5 131h-49l-22 74q-121 -84 -244 -91q-44 -3 -79 1q-117 12 -184 83.5t-67 200.5q0 92 44.5 156t126 100.5t192.5 36.5h177v69q0 73 -38 110.5t-136 37.5q-128 0 -285 -47l-36 225q186 60 362 60q217 0 311.5 -92t94.5 -302v-622
q-164 -113 -164 -213q0 -35 22 -54.5t59 -19.5q54 0 91 13l16 -175q-57 -19 -137 -19q-120 0 -191.5 48.5t-71.5 149.5zM435 175q83 0 163 52v177h-147q-60 0 -94 -31.5t-34 -88.5q0 -52 32 -80.5t80 -28.5z" />
    <glyph glyph-name="aogonek.sc" horiz-adv-x="1083" 
d="M1058 0q-163 -112 -163 -213q0 -35 22 -54.5t59 -19.5q54 0 91 13l16 -175q-57 -19 -137 -19q-120 0 -191.5 48.5t-71.5 149.5q0 69 51.5 139t156.5 131h-123l-61 208h-331l-61 -208h-290l314 1036h406zM542 836l-126 -434h252z" />
    <glyph glyph-name="approxequal.tnum" 
d="M265 711l-109 126q42 78 114.5 130.5t160.5 52.5q62 0 157 -36.5t140 -36.5q81 0 162 77l109 -134q-42 -74 -114.5 -124.5t-159.5 -50.5q-63 0 -158 36.5t-139 36.5q-80 0 -163 -77zM285 339l-109 126q38 70 108.5 122.5t154.5 52.5q64 0 149.5 -32t113.5 -36.5t46 -4.5
q92 0 186 77l109 -134q-46 -74 -123 -123.5t-173 -49.5q-67 0 -166.5 35.5t-144.5 35.5q-76 0 -151 -69z" />
    <glyph glyph-name="approxequal.aalt" horiz-adv-x="1148" 
d="M131 758q42 78 114.5 131t159.5 53q63 0 158 -37t139 -37q82 0 163 77l109 -134q-42 -74 -115 -124.5t-160 -50.5q-62 0 -157 37t-140 37q-79 0 -162 -77zM151 386q37 70 108 123t155 53q9 0 32 -1.5t47.5 -8.5t103.5 -35.5t125 -28.5q92 0 186 77l109 -134
q-45 -74 -124 -124.5t-174 -50.5q-64 0 -163.5 37t-144.5 37q-77 0 -151 -70z" />
    <glyph glyph-name="approxequal.aalt.tnum" 
d="M265 633l-109 125q42 78 114.5 131t160.5 53q62 0 157 -37t140 -37q81 0 162 77l109 -134q-42 -74 -114.5 -124.5t-159.5 -50.5q-63 0 -158 37t-139 37q-77 0 -163 -77zM285 260l-109 126q38 70 108.5 123t154.5 53q9 0 32 -1.5t47.5 -8.5t104 -35.5t125.5 -28.5
q92 0 186 77l109 -134q-46 -73 -123.5 -123t-172.5 -50q-67 0 -166.5 36t-144.5 36q-75 0 -151 -70z" />
    <glyph glyph-name="aring.salt" horiz-adv-x="983" 
d="M211 1296q0 103 70.5 166t188.5 63q114 0 184.5 -61.5t70.5 -161.5q0 -103 -71 -165.5t-189 -62.5q-114 0 -184 61.5t-70 160.5zM384 1300q0 -33 24 -55.5t59 -22.5q37 0 61 21.5t24 54.5q0 35 -24 57t-60 22t-60 -22t-24 -55zM58 268q0 92 44.5 156t126 100.5
t192.5 36.5h177v69q0 73 -38 110.5t-136 37.5q-128 0 -285 -47l-36 225q186 60 362 60q217 0 311.5 -92t94.5 -302v-622h-217l-22 74q-57 -40 -128.5 -67t-144.5 -27q-138 0 -219.5 72.5t-81.5 215.5zM435 175q83 0 163 52v177h-147q-60 0 -94 -31.5t-34 -88.5
q0 -52 32 -80.5t80 -28.5z" />
    <glyph glyph-name="aring.sc" horiz-adv-x="1083" 
d="M1058 0h-290l-61 208h-331l-61 -208h-290l314 1036h406zM542 836l-126 -434h252zM287 1306q0 99 69.5 159t186.5 60q114 0 183 -59t69 -154q0 -99 -69.5 -158.5t-187.5 -59.5q-113 0 -182 58.5t-69 153.5zM462 1310q0 -31 22 -51t56 -20q36 0 58 19.5t22 49.5
q0 31 -22 51.5t-57 20.5t-57 -19.5t-22 -50.5z" />
    <glyph glyph-name="aringacute.salt" horiz-adv-x="983" 
d="M58 268q0 92 44.5 156t126 100.5t192.5 36.5h177v69q0 73 -38 110.5t-136 37.5q-128 0 -285 -47l-36 225q186 60 362 60q217 0 311.5 -92t94.5 -302v-622h-217l-22 74q-57 -40 -128.5 -67t-144.5 -27q-138 0 -219.5 72.5t-81.5 215.5zM233 1278q0 98 65.5 157t178.5 59
q105 0 169.5 -57.5t64.5 -147.5q0 -98 -65.5 -157.5t-179.5 -59.5q-103 0 -168 58t-65 148zM435 175q83 0 163 52v177h-147q-60 0 -94 -31.5t-34 -88.5q0 -52 32 -80.5t80 -28.5zM514 1540l-182 37l160 276l275 -68zM394 1281q0 -31 21.5 -52t53.5 -21q38 0 59.5 21.5
t21.5 56.5q0 32 -21 52.5t-55 20.5q-36 0 -58 -22t-22 -56z" />
    <glyph glyph-name="aringacute.sc" horiz-adv-x="1083" 
d="M1058 0h-290l-61 208h-331l-61 -208h-290l314 1036h406zM542 836l-126 -434h252zM302 1291q0 93 67.5 150t174.5 57q104 0 171 -56t67 -145q0 -93 -67.5 -149.5t-175.5 -56.5q-103 0 -170 55.5t-67 144.5zM468 1295q0 -28 21 -48t52 -20q33 0 54 19t21 47q0 30 -21 50
t-53 20t-53 -19.5t-21 -48.5zM588 1544l-187 37l156 268l276 -68z" />
    <glyph glyph-name="atilde.salt" horiz-adv-x="983" 
d="M58 268q0 92 44.5 156t126 100.5t192.5 36.5h177v69q0 73 -38 110.5t-136 37.5q-128 0 -285 -47l-36 225q186 60 362 60q217 0 311.5 -92t94.5 -302v-622h-217l-22 74q-57 -40 -128.5 -67t-144.5 -27q-138 0 -219.5 72.5t-81.5 215.5zM435 175q83 0 163 52v177h-147
q-60 0 -94 -31.5t-34 -88.5q0 -52 32 -80.5t80 -28.5zM334 1425q48 0 126.5 -29.5t110.5 -29.5q61 0 119 68l131 -93q-12 -34 -40.5 -82t-81.5 -86.5t-119 -38.5q-48 0 -126.5 29.5t-110.5 29.5q-62 0 -118 -68l-132 93q12 34 40.5 82.5t81 86.5t119.5 38z" />
    <glyph glyph-name="atilde.sc" horiz-adv-x="1083" 
d="M1058 0h-290l-61 208h-331l-61 -208h-290l314 1036h406zM542 836l-126 -434h252zM430 1425q45 0 119 -25.5t110 -25.5q57 0 115 60l120 -97q-12 -31 -40.5 -75t-81 -78.5t-119.5 -34.5q-45 0 -119 26t-110 26q-57 0 -115 -61l-120 97q12 31 40.5 75t81 78.5t119.5 34.5z
" />
    <glyph glyph-name="b.sc" horiz-adv-x="1036" 
d="M562 0h-443v1036h424q199 0 299.5 -74.5t100.5 -211.5q0 -66 -37 -123.5t-121 -90.5q89 -31 144.5 -93.5t55.5 -146.5q0 -144 -107 -220t-316 -76zM706 320q0 59 -46 92.5t-125 33.5h-141v-253h145q79 0 123 33.5t44 93.5zM544 608q68 0 102 34t34 85q0 54 -36 85
t-106 31h-144v-235h150z" />
    <glyph glyph-name="braceleft.sc" horiz-adv-x="739" 
d="M502 1171v-372q0 -122 -39 -188t-130 -93q80 -22 124.5 -80t44.5 -187v-373q0 -59 28 -92.5t75 -33.5h96v-236h-165q-135 0 -219 82.5t-84 210.5v453q0 53 -28.5 96.5t-84.5 43.5h-55v234h55q54 0 83.5 39t29.5 88v452q0 135 83.5 220t219.5 85h165v-236h-96
q-46 0 -74.5 -31t-28.5 -82z" />
    <glyph glyph-name="braceright.sc" horiz-adv-x="739" 
d="M236 -133v371q0 123 39 189t131 92q-80 22 -125 81t-45 187v372q0 60 -28 93t-74 33h-96v236h165q135 0 218.5 -82.5t83.5 -210.5v-452q0 -54 28.5 -97t84.5 -43h56v-234h-56q-54 0 -83.5 -39.5t-29.5 -88.5v-451q0 -135 -83 -220.5t-219 -85.5h-165v236h96q45 0 73.5 31
t28.5 83z" />
    <glyph glyph-name="bracketleft.sc" horiz-adv-x="661" 
d="M616 -255v-229h-476v2004h476v-230h-204v-1545h204z" />
    <glyph glyph-name="bracketright.sc" horiz-adv-x="661" 
d="M44 1291v230h476v-2004h-476v229h204v1545h-204z" />
    <glyph glyph-name="glyph211" horiz-adv-x="789" 
d="M77 1444h223q4 -111 95 -111q47 0 70 30.5t25 80.5h222q0 -142 -84.5 -226t-232.5 -84q-149 0 -233.5 84t-84.5 226z" />
    <glyph glyph-name="c.sc" horiz-adv-x="843" 
d="M779 238l19 -219q-115 -39 -269 -39q-189 0 -312.5 90t-133.5 247l-3 97v200l3 96q3 61 27.5 122.5t78.5 111t138.5 81t198.5 31.5q58 0 134.5 -10.5t125.5 -29.5l-25 -222q-103 30 -195 30q-86 0 -142 -45.5t-56 -122.5v-285q0 -74 57 -116.5t151 -42.5q90 0 203 26z
" />
    <glyph glyph-name="glyph216" horiz-adv-x="1971" 
d="M1885 634v-229q0 -203 -126 -314t-351 -111q-243 0 -427 74v1229h-180q-84 0 -129 -34t-45 -96q0 -49 39 -94.5t126 -77.5l-31 -229q-1 0 -2.5 0.5t-33.5 8t-75.5 13.5t-79.5 6q-95 0 -148 -56t-53 -153v-149q0 -98 55.5 -152.5t153.5 -54.5q99 0 198 24l19 -227
q-117 -32 -262 -32q-101 0 -184 27t-141.5 81t-90 134.5t-31.5 182.5v186q0 192 108 302t295 121q-96 79 -96 185q0 92 52 158t139 100.5t207 34.5h470v-577q138 101 284 101q68 0 130 -25.5t109 -74.5t74 -121.5t27 -160.5zM1446 776q-94 0 -178 -68v-473q76 -22 148 -22
q81 0 131.5 44.5t50.5 141.5v197q0 180 -152 180z" />
    <glyph glyph-name="glyph217" horiz-adv-x="1879" 
d="M779 238l19 -219q-115 -39 -269 -39q-189 0 -312.5 90t-133.5 247l-3 97v200l3 96q3 61 27.5 122.5t78.5 111t138.5 81t198.5 31.5q58 0 134.5 -10.5t125.5 -29.5l-25 -222q-103 30 -195 30q-86 0 -142 -45.5t-56 -122.5v-285q0 -74 57 -116.5t151 -42.5q90 0 203 26z
M1405 0h-443v1036h424q199 0 300 -74.5t101 -211.5q0 -76 -42 -130.5t-116 -83.5q88 -31 143.5 -93.5t55.5 -146.5q0 -144 -107 -220t-316 -76zM1549 320q0 59 -46 92.5t-124 33.5h-142v-253h145q79 0 123 33.5t44 93.5zM1387 608q67 0 101.5 33t34.5 86q0 54 -36 85
t-106 31h-144v-235h150z" />
    <glyph glyph-name="glyph218" horiz-adv-x="1988" 
d="M369 571v-149q0 -98 55.5 -152.5t153.5 -54.5q99 0 198 24l19 -227q-117 -32 -262 -32q-101 0 -184 27t-141.5 81t-90 134.5t-31.5 182.5v186q0 192 108 302t295 121q-96 79 -96 185q0 92 52 158t139 100.5t207 34.5h470v-590q167 114 324 114q136 0 210.5 -74.5
t74.5 -214.5v-727h-287v638q0 121 -116 121q-44 0 -97.5 -19.5t-101.5 -53.5v-686h-287v1283h-180q-84 0 -129 -34t-45 -96q0 -49 39 -94.5t126 -77.5l-31 -229q-1 0 -2.5 0.5t-33.5 8t-75.5 13.5t-79.5 6q-95 0 -148 -56t-53 -153z" />
    <glyph glyph-name="glyph219" horiz-adv-x="2007" 
d="M779 238l19 -219q-115 -39 -269 -39q-189 0 -312.5 90t-133.5 247l-3 97v200l3 96q3 61 27.5 122.5t78.5 111t138.5 81t198.5 31.5q58 0 134.5 -10.5t125.5 -29.5l-25 -222q-103 30 -195 30q-86 0 -142 -45.5t-56 -122.5v-285q0 -74 57 -116.5t151 -42.5q90 0 203 26z
M1888 0h-288v406h-350v-406h-288v1036h288v-403h350v403h288v-1036z" />
    <glyph glyph-name="glyph220" horiz-adv-x="1923" 
d="M369 571v-149q0 -98 55.5 -152.5t153.5 -54.5q99 0 198 24l19 -227q-117 -32 -262 -32q-101 0 -184 27t-141.5 81t-90 134.5t-31.5 182.5v186q0 192 108 302t295 121q-96 79 -96 185q0 92 52 158t139 100.5t207 34.5h477v-868h105l190 372h318l-276 -491l288 -505h-317
l-205 397h-103v-397h-287v1283h-180q-84 0 -129 -34t-45 -96q0 -49 39 -94.5t126 -77.5l-31 -229q-1 0 -2.5 0.5t-33.5 8t-75.5 13.5t-79.5 6q-95 0 -148 -56t-53 -153z" />
    <glyph glyph-name="glyph221" horiz-adv-x="1910" 
d="M779 238l19 -219q-115 -39 -269 -39q-189 0 -312.5 90t-133.5 247l-3 97v200l3 96q3 61 27.5 122.5t78.5 111t138.5 81t198.5 31.5q58 0 134.5 -10.5t125.5 -29.5l-25 -222q-103 30 -195 30q-86 0 -142 -45.5t-56 -122.5v-285q0 -74 57 -116.5t151 -42.5q90 0 203 26z
M1555 1036h314l-267 -522l281 -514h-316l-206 402h-108v-402h-291v1036h291v-400h113z" />
    <glyph glyph-name="glyph222" horiz-adv-x="1396" 
d="M369 571v-149q0 -98 55.5 -152.5t153.5 -54.5q99 0 198 24l19 -227q-117 -32 -262 -32q-101 0 -184 27t-141.5 81t-90 134.5t-31.5 182.5v186q0 192 108 302t295 121q-96 79 -96 185q0 92 52 158t139 100.5t207 34.5h477v-1492h-287v1283h-180q-84 0 -129 -34t-45 -96
q0 -49 39 -94.5t126 -77.5l-31 -229q-1 0 -2.5 0.5t-33.5 8t-75.5 13.5t-79.5 6q-95 0 -148 -56t-53 -153z" />
    <glyph glyph-name="glyph223" horiz-adv-x="1703" 
d="M779 238l19 -219q-115 -39 -269 -39q-189 0 -312.5 90t-133.5 247l-3 97v200l3 96q3 61 27.5 122.5t78.5 111t138.5 81t198.5 31.5q58 0 134.5 -10.5t125.5 -29.5l-25 -222q-103 30 -195 30q-86 0 -142 -45.5t-56 -122.5v-285q0 -74 57 -116.5t151 -42.5q90 0 203 26z
M1250 1036v-809h416v-227h-704v1036h288z" />
    <glyph glyph-name="glyph224" horiz-adv-x="1567" 
d="M880 775v221h136v287h-215q-84 0 -129 -34t-45 -96q0 -49 39 -94.5t126 -77.5l-31 -229q-1 0 -2.5 0.5t-33.5 8t-75.5 13.5t-79.5 6q-95 0 -148 -56t-53 -153v-149q0 -98 55.5 -152.5t153.5 -54.5q99 0 198 24l19 -227q-117 -32 -262 -32q-101 0 -184 27t-141.5 81
t-90 134.5t-31.5 182.5v186q0 192 108 302t295 121q-96 79 -96 185q0 92 52 158t139 100.5t207 34.5h500v-496h211v-221h-205v-451q0 -54 23 -83t80 -29q55 0 120 13l17 -219q-92 -26 -214 -26q-296 0 -310 266q-3 86 -3 529h-130z" />
    <glyph glyph-name="glyph225" horiz-adv-x="1757" 
d="M779 238l19 -219q-115 -39 -269 -39q-189 0 -312.5 90t-133.5 247l-3 97v200l3 96q3 61 27.5 122.5t78.5 111t138.5 81t198.5 31.5q58 0 134.5 -10.5t125.5 -29.5l-25 -222q-103 30 -195 30q-86 0 -142 -45.5t-56 -122.5v-285q0 -74 57 -116.5t151 -42.5q90 0 203 26z
M1156 0v811h-284v225h857v-225h-284v-811h-289z" />
    <glyph glyph-name="cacute.sc" horiz-adv-x="843" 
d="M779 238l19 -219q-115 -39 -269 -39q-189 0 -312.5 90t-133.5 247l-3 97v200l3 96q3 61 27.5 122.5t78.5 111t138.5 81t198.5 31.5q58 0 134.5 -10.5t125.5 -29.5l-25 -222q-103 30 -195 30q-86 0 -142 -45.5t-56 -122.5v-285q0 -74 57 -116.5t151 -42.5q90 0 203 26z
M490 1109l-184 54l211 337l265 -94z" />
    <glyph glyph-name="glyph229" horiz-adv-x="842" 
d="M760 1468l-198 -336h-282l-198 336l242 13l97 -191l97 191z" />
    <glyph glyph-name="ccaron.sc" horiz-adv-x="843" 
d="M779 238l19 -219q-115 -39 -269 -39q-189 0 -312.5 90t-133.5 247l-3 97v200l3 96q3 61 27.5 122.5t78.5 111t138.5 81t198.5 31.5q58 0 134.5 -10.5t125.5 -29.5l-25 -222q-103 30 -195 30q-86 0 -142 -45.5t-56 -122.5v-285q0 -74 57 -116.5t151 -42.5q90 0 203 26z
M831 1468l-197 -336h-283l-197 336l241 13l97 -191l97 191z" />
    <glyph glyph-name="ccedilla.sc" horiz-adv-x="843" 
d="M779 238l19 -219q-117 -39 -286 -39l-9 -74q89 -9 142 -56.5t53 -131.5q0 -46 -25.5 -85.5t-91 -70t-174.5 -30.5q-78 0 -138 15l16 161q50 -11 92 -11q47 0 77.5 15.5t30.5 45.5q0 29 -24 44.5t-66 15.5h-62l40 180q-128 31 -207 116.5t-85 211.5l-1 76v224l1 77
q9 167 132 260t313 93q58 0 134.5 -10.5t125.5 -29.5l-25 -222q-103 30 -195 30q-86 0 -142 -45.5t-56 -122.5v-285q0 -74 57 -116.5t151 -42.5q87 0 203 26z" />
    <glyph glyph-name="ccircumflex.sc" horiz-adv-x="843" 
d="M779 238l19 -219q-115 -39 -269 -39q-189 0 -312.5 90t-133.5 247l-3 97v200l3 96q3 61 27.5 122.5t78.5 111t138.5 81t198.5 31.5q58 0 134.5 -10.5t125.5 -29.5l-25 -222q-103 30 -195 30q-86 0 -142 -45.5t-56 -122.5v-285q0 -74 57 -116.5t151 -42.5q90 0 203 26z
M144 1138l184 337h284l184 -337l-237 -12l-89 183l-89 -183z" />
    <glyph glyph-name="cdotaccent.sc" horiz-adv-x="843" 
d="M779 238l19 -219q-115 -39 -269 -39q-189 0 -312.5 90t-133.5 247l-3 97v200l3 96q3 61 27.5 122.5t78.5 111t138.5 81t198.5 31.5q58 0 134.5 -10.5t125.5 -29.5l-25 -222q-103 30 -195 30q-86 0 -142 -45.5t-56 -122.5v-285q0 -74 57 -116.5t151 -42.5q90 0 203 26z
M343 1290q0 61 35 101t118 40q152 0 152 -141q0 -140 -152 -140q-153 0 -153 140z" />
    <glyph glyph-name="cent.tnum" 
d="M556 1482h262l-15 -272q100 -10 169 -34l-24 -222q-111 30 -211 30q-92 0 -152.5 -51.5t-60.5 -135.5v-243q0 -84 61.5 -133t161.5 -49q98 0 219 26l18 -219q-84 -27 -193 -36l14 -271h-261l15 283q-147 32 -235 132.5t-88 249.5v277q0 157 91.5 259t243.5 131z" />
    <glyph glyph-name="cent.aalt" horiz-adv-x="993" 
d="M447 1408h262l-15 -272q96 -10 162 -34l-25 -222q-103 30 -195 30q-86 0 -142 -45.5t-56 -121.5v-285q0 -75 57 -117.5t151 -42.5q98 0 203 27l19 -220q-78 -26 -186 -35l15 -271h-262l16 285q-136 31 -218.5 124.5t-82.5 232.5v318q0 148 85.5 244t227.5 125z" />
    <glyph glyph-name="cent.aalt.tnum" 
d="M556 1408h262l-15 -272q100 -10 169 -34l-24 -222q-111 30 -211 30q-92 0 -152.5 -51.5t-60.5 -134.5v-244q0 -83 61.5 -132.5t161.5 -49.5q106 0 219 27l18 -220q-80 -26 -193 -35l14 -271h-261l15 282q-147 32 -235 132.5t-88 250.5v276q0 158 91 259.5t244 130.5z" />
    <glyph glyph-name="glyph244" horiz-adv-x="830" 
d="M89 1138l184 337h284l184 -337l-237 -12l-89 183l-89 -183z" />
    <glyph glyph-name="currency.tnum" 
d="M217 109l-153 143l182 212q-52 87 -52 197v34q0 105 47 188l-180 206l153 143l207 -189q84 41 181 41q96 0 178 -41l207 189l153 -143l-180 -205q49 -84 49 -189v-34q0 -107 -54 -199l182 -211l-153 -143l-216 201q-74 -37 -166 -37q-94 0 -169 37zM441 688v-19
q0 -76 42.5 -124.5t118.5 -48.5q74 0 117 48.5t43 124.5v19q0 76 -42.5 124t-117.5 48q-76 0 -118.5 -48t-42.5 -124z" />
    <glyph glyph-name="currency.aalt" horiz-adv-x="1346" 
d="M256 24l-153 143l190 222q-53 88 -53 197v40q0 104 49 188l-189 215l153 144l214 -196q96 47 207 47q113 0 205 -47l215 196l152 -144l-188 -214q50 -85 50 -189v-40q0 -110 -55 -199l190 -220l-152 -143l-223 206q-88 -42 -194 -42q-109 0 -196 43zM495 619v-25
q0 -82 47.5 -132.5t131.5 -50.5t131.5 50.5t47.5 132.5v25q0 81 -47.5 131t-131.5 50t-131.5 -50t-47.5 -131z" />
    <glyph glyph-name="currency.aalt.tnum" 
d="M216 37l-153 142l183 213q-52 84 -52 197v34q0 105 47 188l-180 206l152 143l208 -189q82 41 180 41q92 0 179 -41l207 189l152 -143l-179 -205q48 -85 48 -189v-34q0 -109 -53 -199l181 -211l-152 -143l-216 201q-75 -37 -167 -37q-94 0 -169 37zM441 616v-19
q0 -76 42.5 -124.5t117.5 -48.5t117.5 48.5t42.5 124.5v19q0 76 -42.5 124t-117.5 48t-117.5 -48t-42.5 -124z" />
    <glyph glyph-name="d.sc" horiz-adv-x="1086" 
d="M119 0v1036h405q225 0 353.5 -98.5t128.5 -279.5v-281q0 -116 -49.5 -198t-150.5 -130.5t-261 -48.5h-426zM719 357v285q0 74 -45 125.5t-137 51.5h-140v-603h140q88 0 135 37t47 104z" />
    <glyph glyph-name="dagger.sc" horiz-adv-x="1112" 
d="M421 1419h269l-3 -443l387 11v-256l-388 9l-6 -1124h-249l-7 1124l-386 -9v256l385 -11z" />
    <glyph glyph-name="daggerdbl.sc" horiz-adv-x="1125" 
d="M42 762v256l388 -13v414h263v-414l389 13v-256l-389 12v-515l390 13v-256l-390 12v-412h-263v412l-388 -12v256l388 -13v515z" />
    <glyph glyph-name="dcaron.sc" horiz-adv-x="1086" 
d="M119 0v1036h405q225 0 353.5 -98.5t128.5 -279.5v-281q0 -116 -49.5 -198t-150.5 -130.5t-261 -48.5h-426zM719 357v285q0 74 -45 125.5t-137 51.5h-140v-603h140q88 0 135 37t47 104zM857 1468l-197 -336h-282l-198 336l241 13l98 -191l97 191z" />
    <glyph glyph-name="dcroat.sc" horiz-adv-x="1102" 
d="M31 441v156h104v439h405q207 0 335 -85t142 -242q5 -51 5 -128v-128q0 -76 -5 -127q-8 -100 -60.5 -171t-150 -113t-245.5 -42h-426v441h-104zM735 357v293q0 71 -45.5 120t-136.5 49h-139v-222h168v-156h-168v-225h139q89 0 135.5 37t46.5 104z" />
    <glyph glyph-name="degree.aalt" horiz-adv-x="788" 
d="M69 852v76q0 84 39 146t112.5 99.5t173.5 37.5t173.5 -37.5t113 -99.5t39.5 -146v-76q0 -84 -39.5 -146t-113 -99.5t-173.5 -37.5t-173.5 37.5t-112.5 99.5t-39 146zM285 913v-45q0 -51 30 -81t79 -30q48 0 78.5 30t30.5 81v45q0 50 -30.5 80t-78.5 30q-49 0 -79 -30
t-30 -80z" />
    <glyph glyph-name="glyph266" horiz-adv-x="891" 
d="M77 1290q0 61 35 101t118 40q152 0 152 -141q0 -140 -152 -140q-153 0 -153 140zM509 1290q0 141 152 141q74 0 113.5 -35.5t39.5 -105.5q0 -140 -153 -140q-73 0 -112.5 35.5t-39.5 104.5z" />
    <glyph glyph-name="divide.tnum" 
d="M443 1023q0 148 156 148t156 -148t-156 -148q-76 0 -116 37.5t-40 110.5zM209 770h781v-164h-781v164zM443 353q0 149 156 149t156 -149q0 -148 -156 -148q-76 0 -116 37.5t-40 110.5z" />
    <glyph glyph-name="divide.aalt" horiz-adv-x="1037" 
d="M365 934q0 148 156 148t156 -148q0 -149 -156 -149t-156 149zM131 681h781v-164h-781v164zM365 264q0 148 156 148t156 -148t-156 -148t-156 148z" />
    <glyph glyph-name="divide.aalt.tnum" 
d="M443 934q0 148 156 148t156 -148q0 -149 -156 -149t-156 149zM209 681h781v-164h-781v164zM443 264q0 148 156 148t156 -148t-156 -148t-156 148z" />
    <glyph glyph-name="dollar.tnum" 
d="M474 1542h262l-15 -281q123 -9 238 -40l-34 -227q-146 37 -286 37q-86 0 -135 -27.5t-49 -80.5q0 -26 9 -46t29 -34t46.5 -23.5t55 -17.5t72 -19.5t55.5 -14.5q146 -39 214 -119.5t68 -222.5q0 -290 -317 -331l16 -283h-262l16 281q-155 13 -275 52l41 226
q54 -17 144 -32.5t163 -15.5q91 0 143 24t52 85q0 17 -7.5 39t-32.5 39.5t-60 30.5t-203 58q-124 33 -181.5 113t-57.5 209t81.5 219.5t225.5 115.5z" />
    <glyph glyph-name="dollar.aalt" horiz-adv-x="1076" 
d="M414 1468h262l-15 -281q111 -8 239 -39l-34 -228q-152 38 -287 38q-85 0 -134.5 -28t-49.5 -81q0 -26 9 -46t29 -33.5t46.5 -23t55 -17.5t70.5 -19t57 -15q146 -39 214.5 -120t68.5 -222q0 -290 -317 -331l15 -283h-262l16 280q-149 12 -275 53l41 226q51 -17 142.5 -33
t164.5 -16q196 0 196 109q0 26 -12 47.5t-37.5 37t-56 27t-62.5 20.5t-77 20.5t-59 15.5q-124 33 -181 113t-57 209t81 219.5t225 114.5z" />
    <glyph glyph-name="dollar.aalt.tnum" 
d="M478 1468h261l-14 -281q114 -8 238 -39l-34 -228q-150 38 -286 38q-86 0 -135 -28t-49 -81q0 -26 9 -46t29 -33.5t46.5 -23t55 -17.5t70.5 -19t57 -15q145 -39 213.5 -120t68.5 -222q0 -290 -317 -331l15 -283h-261l16 280q-151 13 -275 53l41 226q52 -17 142.5 -33
t163.5 -16q196 0 196 109q0 26 -12 47.5t-37 37t-56 27t-62.5 20.5t-76.5 20.5t-59 15.5q-124 33 -181.5 113t-57.5 209t81.5 219.5t225.5 114.5z" />
    <glyph glyph-name="glyph276" horiz-adv-x="459" 
d="M77 1290q0 61 35 101t118 40q152 0 152 -141q0 -140 -152 -140q-153 0 -153 140z" />
    <glyph glyph-name="e.sc" horiz-adv-x="926" 
d="M119 0v1036h734v-214h-449v-202h433v-199h-433v-207h466v-214h-751z" />
    <glyph glyph-name="eacute.sc" horiz-adv-x="926" 
d="M119 0v1036h734v-214h-449v-202h433v-199h-433v-207h466v-214h-751zM523 1109l-184 54l212 337l264 -94z" />
    <glyph glyph-name="ebreve.sc" horiz-adv-x="926" 
d="M119 0v1036h734v-214h-449v-202h433v-199h-433v-207h466v-214h-751zM164 1444h222q2 -49 25 -80t70 -31q91 0 95 111h223q0 -142 -85 -226t-233 -84t-232.5 84t-84.5 226z" />
    <glyph glyph-name="ecaron.sc" horiz-adv-x="926" 
d="M119 0v1036h734v-214h-449v-202h433v-199h-433v-207h466v-214h-751zM838 1468l-197 -336h-282l-198 336l242 13l97 -191l97 191z" />
    <glyph glyph-name="ecircumflex.sc" horiz-adv-x="926" 
d="M119 0v1036h734v-214h-449v-202h433v-199h-433v-207h466v-214h-751zM155 1138l184 337h284l184 -337l-237 -12l-89 183l-89 -183z" />
    <glyph glyph-name="edieresis.sc" horiz-adv-x="926" 
d="M119 0v1036h734v-214h-449v-202h433v-199h-433v-207h466v-214h-751zM115 1290q0 141 152 141q74 0 113.5 -35.5t39.5 -105.5q0 -140 -153 -140q-73 0 -112.5 35.5t-39.5 104.5zM539 1290q0 141 152 141q74 0 113.5 -35.5t39.5 -105.5q0 -140 -153 -140q-73 0 -112.5 35.5
t-39.5 104.5z" />
    <glyph glyph-name="edotaccent.sc" horiz-adv-x="926" 
d="M119 0v1036h734v-214h-449v-202h433v-199h-433v-207h466v-214h-751zM334 1290q0 61 35 101t118 40q152 0 152 -141q0 -140 -152 -140q-153 0 -153 140z" />
    <glyph glyph-name="uni1EB9.sc" horiz-adv-x="926" 
d="M119 0v1036h734v-214h-449v-202h433v-199h-433v-207h466v-214h-751zM343 -294q0 148 157 148q156 0 156 -148q0 -64 -35.5 -106t-120.5 -42q-76 0 -116.5 37.5t-40.5 110.5z" />
    <glyph glyph-name="egrave.sc" horiz-adv-x="926" 
d="M119 0v1036h734v-214h-449v-202h433v-199h-433v-207h466v-214h-751zM674 1163l-181 -54l-295 297l265 94z" />
    <glyph glyph-name="eight.tnum" 
d="M1079 326q0 -153 -129 -249.5t-351 -96.5q-224 0 -349.5 98t-125.5 256q0 102 53.5 187t195.5 163q-112 65 -166.5 141t-54.5 182q0 58 20 120.5t70.5 116.5t139 92t217.5 38q76 0 154.5 -18.5t142.5 -62.5t105.5 -116t41.5 -170q0 -88 -47 -166.5t-171 -152.5
q131 -71 192.5 -157t61.5 -205zM599 200q86 0 141 43t55 117q0 57 -40.5 111t-157.5 115q-98 -45 -145 -95.5t-47 -130.5q0 -74 54.5 -117t139.5 -43zM782 991q0 75 -51.5 115.5t-131.5 40.5t-130.5 -40t-50.5 -116q0 -52 39 -99.5t145 -105.5q89 42 134.5 88.5t45.5 116.5z
" />
    <glyph glyph-name="uniF738.tnum" 
d="M1079 326q0 -153 -129 -249.5t-351 -96.5q-224 0 -349.5 98t-125.5 256q0 102 53.5 187t195.5 163q-112 65 -166.5 141t-54.5 182q0 58 20 120.5t70.5 116.5t139 92t217.5 38q76 0 154.5 -18.5t142.5 -62.5t105.5 -116t41.5 -170q0 -88 -47 -166.5t-171 -152.5
q131 -71 192.5 -157t61.5 -205zM599 200q86 0 141 43t55 117q0 57 -40.5 111t-157.5 115q-98 -45 -145 -95.5t-47 -130.5q0 -74 54.5 -117t139.5 -43zM782 991q0 75 -51.5 115.5t-131.5 40.5t-130.5 -40t-50.5 -116q0 -52 39 -99.5t145 -105.5q89 42 134.5 88.5t45.5 116.5z
" />
    <glyph glyph-name="emacron.sc" horiz-adv-x="926" 
d="M119 0v1036h734v-214h-449v-202h433v-199h-433v-207h466v-214h-751zM167 1170v221h615v-221h-615z" />
    <glyph glyph-name="eng.sc" horiz-adv-x="1166" 
d="M575 -290q108 70 152.5 135.5t46.5 161.5l-371 617v-624h-284v1036h281l363 -631v631h284v-1046h-1q-4 -147 -80.5 -255t-264.5 -203z" />
    <glyph glyph-name="eogonek.sc" horiz-adv-x="926" 
d="M119 0v1036h734v-214h-449v-202h433v-199h-433v-207h466v-214q-163 -112 -163 -213q0 -35 22 -54.5t59 -19.5q54 0 91 13l16 -175q-57 -19 -137 -19q-121 0 -192 48.5t-71 149.5q0 69 51.5 139t156.5 131h-584z" />
    <glyph glyph-name="equal.tnum" 
d="M220 979h759v-234h-759v234zM220 609h759v-234h-759v234z" />
    <glyph glyph-name="equal.aalt" horiz-adv-x="1020" 
d="M131 900h758v-234h-758v234zM131 531h758v-234h-758v234z" />
    <glyph glyph-name="equal.aalt.tnum" 
d="M220 900h759v-234h-759v234zM220 531h759v-234h-759v234z" />
    <glyph glyph-name="estimated.aalt" horiz-adv-x="1635" 
d="M1504 561h-1112q-10 0 -10 -10v-292q0 -22 17 -39q66 -69 172 -114t248 -45q126 0 236 41t191 119h115q-94 -111 -235.5 -176t-308.5 -65q-178 0 -335.5 77t-254 221.5t-96.5 318.5q0 157 86 299.5t247.5 231t352.5 88.5q174 0 332 -81t256.5 -230.5t98.5 -323.5v-20z
M1252 648v292q0 25 -18 40q-66 67 -171 112t-244 45q-126 0 -234 -39.5t-185 -117.5q-18 -18 -18 -43v-289q0 -10 10 -10h853q7 0 7 10z" />
    <glyph glyph-name="eth.sc" horiz-adv-x="1102" 
d="M31 441v156h104v439h405q207 0 335 -85t142 -242q5 -51 5 -128v-128q0 -76 -5 -127q-8 -100 -60.5 -171t-150 -113t-245.5 -42h-426v441h-104zM735 357v293q0 71 -45.5 120t-136.5 49h-139v-222h168v-156h-168v-225h139q89 0 135.5 37t46.5 104z" />
    <glyph glyph-name="uni1EBD.sc" horiz-adv-x="926" 
d="M119 0v1036h734v-214h-449v-202h433v-199h-433v-207h466v-214h-751zM370 1425q45 0 119 -25.5t110 -25.5q57 0 115 60l120 -97q-12 -31 -40.5 -75t-81 -78.5t-119.5 -34.5q-45 0 -119 26t-110 26q-57 0 -115 -61l-120 97q12 31 40.5 75t81 78.5t119.5 34.5z" />
    <glyph glyph-name="exclam.sc" horiz-adv-x="510" 
d="M418 1196l-42 -789h-241l-42 789h325zM99 128q0 149 156 149t156 -149q0 -148 -156 -148q-76 0 -116 37.5t-40 110.5z" />
    <glyph glyph-name="exclamdown.sc" horiz-adv-x="510" 
d="M92 -160l42 789h240l43 -789h-325zM98 908q0 148 157 148q76 0 116 -37.5t40 -110.5q0 -149 -156 -149q-76 0 -116.5 37.5t-40.5 111.5z" />
    <glyph glyph-name="f.sc" horiz-adv-x="894" 
d="M119 0v1036h724v-225h-439v-202h423v-208h-423v-401h-285z" />
    <glyph glyph-name="glyph329" horiz-adv-x="1752" 
d="M434 1061v-65h192v-221h-186v-775h-287v775h-131v221h131v79q0 180 114.5 284.5t334.5 104.5q102 0 198 -21q39 -3 127 -12t116 -9v-507q136 101 283 101q105 0 182 -52t117.5 -135.5t40.5 -194.5v-229q0 -204 -125.5 -314.5t-351.5 -110.5q-242 0 -426 74v1154
q-86 18 -155 18q-87 0 -130.5 -39t-43.5 -126zM1227 776q-93 0 -177 -68v-473q74 -22 148 -22q181 0 181 209v162q0 93 -35.5 142.5t-116.5 49.5z" />
    <glyph glyph-name="glyph330" horiz-adv-x="1931" 
d="M119 0v1036h724v-225h-439v-202h423v-208h-423v-401h-285zM1456 0h-443v1036h425q198 0 299 -74.5t101 -211.5q0 -76 -42 -130.5t-116 -83.5q88 -31 144 -93.5t56 -146.5q0 -144 -107.5 -220t-316.5 -76zM1601 320q0 59 -46 92.5t-125 33.5h-142v-253h145
q79 0 123.5 33.5t44.5 93.5zM1438 608q67 0 101.5 33t34.5 86q0 54 -35.5 85t-106.5 31h-144v-235h150z" />
    <glyph glyph-name="uniFB00.sc" horiz-adv-x="1789" 
d="M119 0v1036h724v-225h-439v-202h423v-208h-423v-401h-285zM1013 0v1036h724v-225h-439v-202h423v-208h-423v-401h-285z" />
    <glyph glyph-name="glyph333" horiz-adv-x="2339" 
d="M22 775v221h131v110q0 155 90.5 246.5t254.5 91.5q96 0 190 -22l-36 -220q-55 10 -97 10q-62 0 -92.5 -30t-30.5 -96v-90h308v79q0 180 114.5 284.5t334.5 104.5q102 0 198 -21q39 -3 127 -12t116 -9v-507q136 101 283 101q105 0 182 -52t117.5 -135.5t40.5 -194.5v-229
q0 -204 -125.5 -314.5t-351.5 -110.5q-242 0 -426 74v1154q-86 18 -155 18q-87 0 -130.5 -39t-43.5 -126v-65h192v-221h-186v-775h-287v775h-300v-775h-287v775h-131zM1814 776q-93 0 -177 -68v-473q74 -22 148 -22q181 0 181 209v162q0 93 -35.5 142.5t-116.5 49.5z" />
    <glyph glyph-name="glyph334" horiz-adv-x="2825" 
d="M119 0v1036h724v-225h-439v-202h423v-208h-423v-401h-285zM1013 0v1036h724v-225h-439v-202h423v-208h-423v-401h-285zM2350 0h-442v1036h424q199 0 299.5 -74.5t100.5 -211.5q0 -76 -42 -130.5t-116 -83.5q89 -31 144.5 -93.5t55.5 -146.5q0 -144 -107.5 -220
t-316.5 -76zM2495 320q0 59 -46 92.5t-125 33.5h-141v-253h145q79 0 123 33.5t44 93.5zM2333 608q68 0 101.5 34t33.5 85q0 54 -35.5 85t-105.5 31h-144v-235h150z" />
    <glyph glyph-name="glyph335" horiz-adv-x="2357" 
d="M22 775v221h131v110q0 155 90.5 246.5t254.5 91.5q96 0 190 -22l-36 -220q-55 10 -97 10q-62 0 -92.5 -30t-30.5 -96v-90h308v79q0 179 114.5 284t334.5 105q98 0 201 -22q39 -3 125.5 -12t114.5 -9v-519q167 114 323 114q137 0 211 -74.5t74 -214.5v-727h-286v638
q0 121 -117 121q-43 0 -96.5 -19.5t-101.5 -53.5v-686h-287v1208q-86 18 -155 18q-87 0 -130.5 -39t-43.5 -126v-65h192v-221h-186v-775h-287v775h-300v-775h-287v775h-131z" />
    <glyph glyph-name="glyph336" horiz-adv-x="2952" 
d="M119 0v1036h724v-225h-439v-202h423v-208h-423v-401h-285zM1013 0v1036h724v-225h-439v-202h423v-208h-423v-401h-285zM2834 0h-289v406h-349v-406h-288v1036h288v-403h349v403h289v-1036z" />
    <glyph glyph-name="glyph337" horiz-adv-x="2288" 
d="M22 775v221h131v110q0 155 90.5 246.5t254.5 91.5q96 0 190 -22l-36 -220q-55 10 -97 10q-62 0 -92.5 -30t-30.5 -96v-90h308v79q0 179 114.5 284t334.5 105q50 0 98 -13q89 2 215 -13.5t132 -15.5v-798h105l190 372h317l-275 -491l287 -505h-317l-204 397h-103v-397
h-287v1209q-89 17 -152 17q-87 0 -130.5 -39t-43.5 -126v-65h192v-221h-186v-775h-287v775h-300v-775h-287v775h-131z" />
    <glyph glyph-name="glyph338" horiz-adv-x="2855" 
d="M119 0v1036h724v-225h-439v-202h423v-208h-423v-401h-285zM1013 0v1036h724v-225h-439v-202h423v-208h-423v-401h-285zM2500 1036h314l-266 -522l281 -514h-317l-206 402h-108v-402h-290v1036h290v-400h114z" />
    <glyph glyph-name="uniFB04.sc" horiz-adv-x="2648" 
d="M119 0v1036h724v-225h-439v-202h423v-208h-423v-401h-285zM1013 0v1036h724v-225h-439v-202h423v-208h-423v-401h-285zM2196 1036v-809h415v-227h-703v1036h288z" />
    <glyph glyph-name="glyph341" horiz-adv-x="1875" 
d="M22 775v221h131v110q0 155 90.5 246.5t254.5 91.5q96 0 190 -22l-36 -220q-55 10 -97 10q-62 0 -92.5 -30t-30.5 -96v-90h308v102q0 171 93 268.5t259 97.5q93 0 190 -22l-36 -220q-67 10 -104 10q-64 0 -93.5 -33t-29.5 -118v-85h302l28 278h251l1 -278h211v-221h-206
v-451q0 -54 23.5 -83t80.5 -29q52 0 120 13l16 -219q-92 -26 -214 -26q-293 0 -309 260q-4 97 -4 535h-292v-775h-287v775h-300v-775h-287v775h-131z" />
    <glyph glyph-name="glyph342" horiz-adv-x="2703" 
d="M119 0v1036h724v-225h-439v-202h423v-208h-423v-401h-285zM1013 0v1036h724v-225h-439v-202h423v-208h-423v-401h-285zM2101 0v811h-283v225h856v-225h-283v-811h-290z" />
    <glyph glyph-name="glyph343" horiz-adv-x="1770" 
d="M22 775v221h131v79q0 180 114.5 284.5t334.5 104.5q98 0 201 -22q39 -3 125.5 -12t114.5 -9v-519q167 114 323 114q137 0 211 -74.5t74 -214.5v-727h-286v638q0 121 -117 121q-43 0 -96.5 -19.5t-101.5 -53.5v-686h-287v1208q-86 18 -155 18q-87 0 -130.5 -39t-43.5 -126
v-65h192v-221h-186v-775h-287v775h-131z" />
    <glyph glyph-name="glyph344" horiz-adv-x="2058" 
d="M119 0v1036h724v-225h-439v-202h423v-208h-423v-401h-285zM1939 0h-288v406h-350v-406h-288v1036h288v-403h350v403h288v-1036z" />
    <glyph glyph-name="glyph345" horiz-adv-x="1701" 
d="M434 1061v-65h192v-221h-186v-775h-287v775h-131v221h131v79q0 180 114.5 284.5t334.5 104.5q98 0 198 -21q40 -3 129 -12t118 -9v-798h105l190 372h317l-275 -491l287 -505h-317l-204 397h-103v-397h-287v1209q-89 17 -152 17q-87 0 -130.5 -39t-43.5 -126z" />
    <glyph glyph-name="glyph346" horiz-adv-x="1961" 
d="M119 0v1036h724v-225h-439v-202h423v-208h-423v-401h-285zM1606 1036h314l-267 -522l281 -514h-316l-206 402h-108v-402h-291v1036h291v-400h113z" />
    <glyph glyph-name="uniFB02.sc" horiz-adv-x="1754" 
d="M119 0v1036h724v-225h-439v-202h423v-208h-423v-401h-285zM1301 1036v-809h416v-227h-704v1036h288z" />
    <glyph glyph-name="glyph349" horiz-adv-x="1288" 
d="M22 775v221h131v102q0 171 93 268.5t259 97.5q93 0 190 -22l-36 -220q-67 10 -104 10q-64 0 -93.5 -33t-29.5 -118v-85h302l28 278h251l1 -278h211v-221h-206v-451q0 -54 23.5 -83t80.5 -29q52 0 120 13l16 -219q-67 -20 -168 -24q-53 -2 -102 4q-237 24 -253 254
q-4 97 -4 535h-292v-775h-287v775h-131z" />
    <glyph glyph-name="glyph350" horiz-adv-x="1809" 
d="M119 0v1036h724v-225h-439v-202h423v-208h-423v-401h-285zM1207 0v811h-284v225h857v-225h-284v-811h-289z" />
    <glyph glyph-name="glyph351" horiz-adv-x="1908" 
d="M22 775v221h131v102q0 171 93 268.5t259 97.5q99 0 192 -24l-38 -218q-67 10 -104 10q-64 0 -93.5 -33t-29.5 -118v-85h302l28 264h251l1 -264h346l15 278h258l1 -278h211v-221h-206v-451q0 -54 23.5 -83t80.5 -29q52 0 120 13l16 -219q-92 -26 -214 -26q-296 0 -310 266
q-3 103 -3 529h-333v-459q0 -45 21 -74.5t83 -29.5q50 0 112 13l16 -219q-90 -26 -206 -26q-296 0 -310 266q-3 103 -3 529h-292v-775h-287v775h-131z" />
    <glyph glyph-name="glyph352" horiz-adv-x="2723" 
d="M119 0v1036h724v-225h-439v-202h423v-208h-423v-401h-285zM1207 0v811h-284v225h857v-225h-284v-811h-289zM2121 0v811h-284v225h857v-225h-284v-811h-289z" />
    <glyph glyph-name="five.tnum" 
d="M1033 400q0 -212 -133 -316t-386 -104q-190 0 -356 39l29 247q50 -10 137.5 -20t161.5 -10q124 0 192.5 40t68.5 133q0 85 -70.5 135.5t-225.5 52.5q-77 1 -262 -6l30 763h744v-252h-513l-13 -283l139 -5q155 -11 255 -64.5t151 -140.5t51 -209z" />
    <glyph glyph-name="uniF735.tnum" 
d="M1033 255q0 -212 -133 -316.5t-386 -104.5q-196 0 -356 40l29 246q162 -30 299 -30q124 0 192.5 40t68.5 133q0 85 -70.5 135.5t-225.5 52.5q-146 2 -262 -6l30 763h744v-251h-513l-13 -284l139 -5q155 -10 255 -63.5t151 -140.5t51 -209z" />
    <glyph glyph-name="florin.tnum" 
d="M253 567v222h190l47 260q28 160 133.5 241.5t282.5 81.5q102 0 182 -22l-49 -220q-69 12 -119 12q-68 0 -104 -34t-51 -121l-35 -198h216v-222h-255l-129 -717q-57 -317 -400 -317q-105 0 -186 23l52 220q66 -12 111 -12q65 0 100 32.5t50 116.5l115 654h-151z" />
    <glyph glyph-name="florin.aalt" horiz-adv-x="1059" 
d="M207 593l16 221h174l49 265q59 318 415 318q102 0 182 -22l-55 -220q-66 12 -114 12q-68 0 -103 -34t-50 -121l-35 -198h217l-16 -221h-240l-77 -437q-32 -180 -136 -269t-290 -88q-106 0 -183 22l58 220q66 -12 111 -12q68 0 104.5 35.5t51.5 119.5l72 409h-151z" />
    <glyph glyph-name="florin.aalt.tnum" 
d="M284 593l16 221h174l49 265q59 318 415 318q102 0 182 -22l-55 -220q-66 12 -114 12q-68 0 -103 -34t-50 -121l-35 -198h217l-16 -221h-240l-77 -437q-32 -180 -136 -269t-290 -88q-106 0 -183 22l58 220q66 -12 111 -12q68 0 104.5 35.5t51.5 119.5l72 409h-151z" />
    <glyph glyph-name="glyph361" horiz-adv-x="2301" 
d="M200 945v71h295v-71h-112v-302h-80v302h-103zM449 643v253h81v-253h-81zM594 547v349h65l9 -24l8 7q6 7 23 14.5t35 7.5q48 0 75.5 -35.5t27.5 -93.5q0 -59 -33 -96t-88 -37q-23 0 -40 10v-102h-82zM676 826v-117q9 -9 30 -9q23 0 35.5 19t12.5 50t-12 50t-34 19
q-20 0 -32 -12zM1002 901q62 0 95 -36.5t33 -92.5q0 -61 -35 -97t-96 -36q-57 0 -91 35.5t-34 92.5q0 58 33.5 96t94.5 38zM1001 843q-45 0 -45 -71q0 -75 46 -75q45 0 45 72q0 74 -46 74zM1593 547v349h66l8 -24l7 7q7 7 24.5 14.5t35.5 7.5q47 0 75 -35.5t28 -93.5
q0 -59 -33.5 -96t-87.5 -37q-24 0 -42 10v-102h-81zM1674 826v-117q16 -9 33 -9q16 0 31 15t15 54q0 69 -46 69q-19 0 -33 -12zM1078 945v71h283v-71h-101v-302h-81v302h-101zM1386 659l-89 237h89l51 -173h3l41 173h88l-80 -257q-19 -54 -48.5 -78t-77.5 -24q-31 0 -60 13
l9 59q30 -6 46 -6q31 0 37 29zM2093 754h-139q4 -49 55 -49q37 0 69 13l17 -58q-39 -21 -95 -21q-58 0 -93 35.5t-35 92.5q0 58 33.5 96t94.5 38q46 0 73.5 -26.5t27.5 -68.5q0 -33 -8 -52zM1954 797h70q4 20 -4.5 33t-25.5 13q-35 0 -40 -46zM321 426h9l38 -102l37 106h12
l-43 -119h-12l-37 101l-38 -101h-10l-43 119h12l37 -106zM508 426h10l39 -102l35 106h12l-42 -119h-11l-38 101l-36 -101h-11l-43 119h10l38 -106zM697 426h9l38 -102l38 106h11l-43 -119h-12l-37 101l-37 -101h-10l-44 119h12l37 -106zM806 326q6 0 6 -8q0 -10 -8 -10
q-7 0 -7 9t9 9zM831 423v7h91v-7h-39v-112h-11v112h-41zM945 311v119h11v-119h-11zM1006 311h-10v119h36q43 0 43 -35q0 -12 -9.5 -24t-34.5 -12h-25v-48zM1031 423h-25v-56h26q14 0 23 7.5t9 19.5q0 29 -33 29zM1091 370q0 27 17 45t43 18t42 -18t16 -45t-16.5 -44.5
t-43.5 -17.5q-24 0 -41 18t-17 44zM1198 369q0 25 -13.5 39.5t-35.5 14.5q-20 0 -33 -14t-13 -38t13 -38.5t35 -14.5q20 0 33.5 13.5t13.5 37.5zM1218 423v7h91v-7h-40v-112h-10v112h-41zM1360 311v46l-45 73h11l40 -65l40 65h11l-46 -73v-46h-11zM1450 311h-10v119h37
q42 0 42 -35q0 -12 -9.5 -24t-33.5 -12h-26v-48zM1476 423h-26v-56h27q31 0 31 27q0 29 -32 29zM1616 430v-7h-61v-48h59v-9h-59v-47h63v-8h-73v119h71zM1655 326q8 0 8 -8q0 -10 -8 -10t-8 9t8 9zM1751 433l27 -6l-3 -7l-25 3q-22 0 -35.5 -13.5t-13.5 -38.5
q0 -24 14 -38.5t40 -14.5l25 4l3 -8l-30 -6q-28 0 -46 18t-18 44q0 28 17 45.5t45 17.5zM1800 370q0 28 16 45.5t43 17.5q25 0 42 -18t17 -45q0 -26 -17 -44t-43 -18q-25 0 -41.5 18t-16.5 44zM1906 369q0 25 -13.5 39.5t-34.5 14.5t-34.5 -14t-13.5 -38t13.5 -38.5
t35.5 -14.5q20 0 33.5 13.5t13.5 37.5zM1948 311v119h15l50 -90l48 90h16v-119h-11v108l-49 -91h-8l-50 91v-108h-11z" />
    <glyph glyph-name="four.tnum" 
d="M691 1354h249v-852h167v-226h-167v-276h-266v276h-564v220zM394 502h286v427z" />
    <glyph glyph-name="uniF734.tnum" 
d="M691 1208h249v-851h167v-227h-167v-276h-266v276h-564v220zM394 357h286v426z" />
    <glyph glyph-name="uni2074.aalt" horiz-adv-x="663" 
d="M30 612v153l295 429v2h217v-419h97v-165h-97v-119h-215v119h-297zM234 772h107v156z" />
    <glyph glyph-name="fraction.aalt" horiz-adv-x="1025" 
d="M100 674h844v-152h-844v152z" />
    <glyph glyph-name="franc.tnum" 
d="M235 0v204h-146v157h146v993h835v-247h-537v-305h517v-243h-517v-198h246v-157h-246v-204h-298z" />
    <glyph glyph-name="franc.aalt" horiz-adv-x="1096" 
d="M222 0v169h-132v157h132v870h770v-235h-484v-251h466v-233h-466v-151h229v-157h-229v-169h-286z" />
    <glyph glyph-name="franc.aalt.tnum" 
d="M267 0v169h-132v157h132v870h770v-235h-484v-251h466v-233h-466v-151h229v-157h-229v-169h-286z" />
    <glyph glyph-name="g.salt" horiz-adv-x="1016" 
d="M69 610v80q0 52 20 108t68 104t124 81t173 33q84 0 139.5 -33.5t86 -95.5t31.5 -153q8 48 7 125.5t-25 156.5l243 -20q36 -367 -78 -539t-367 -172q-55 0 -103 9q-49 -42 -49 -78q0 -18 14.5 -34.5t53.5 -16.5h246q117 0 199 -43.5t124.5 -115.5t42.5 -170
q0 -95 -49.5 -163.5t-144.5 -108.5t-230 -40h-170q-176 0 -274.5 67t-98.5 188q0 64 41 121.5t118 99.5q-43 24 -69.5 63.5t-26.5 85.5q0 42 27 93.5t95 98.5q-80 42 -124 112t-44 157zM341 693v-61q0 -68 37 -114t114 -46q66 0 107.5 41.5t41.5 118.5v38q0 78 -41 120.5
t-108 42.5q-72 0 -111.5 -40.5t-39.5 -99.5zM626 -45h-195l-55 1q-34 -19 -59 -50.5t-25 -70.5q0 -105 171 -105h107q106 0 151.5 24.5t45.5 84.5q0 116 -141 116z" />
    <glyph glyph-name="g.sc" horiz-adv-x="982" 
d="M900 527v-489q-69 -24 -171 -41t-204 -17q-88 0 -166.5 22t-137.5 65.5t-95 107.5t-42 145l-4 117v226q0 70 23.5 140t81 126t152.5 91.5t229 35.5q70 0 154.5 -12.5t157.5 -38.5l-41 -220q-124 39 -243 39q-112 0 -174.5 -47.5t-62.5 -132.5v-263q0 -84 49.5 -127
t142.5 -43q57 0 106 11v305h245z" />
    <glyph glyph-name="gbreve.sc" horiz-adv-x="982" 
d="M900 527v-489q-69 -24 -171 -41t-204 -17q-88 0 -166.5 22t-137.5 65.5t-95 107.5t-42 145l-4 117v226q0 70 23.5 140t81 126t152.5 91.5t229 35.5q70 0 154.5 -12.5t157.5 -38.5l-41 -220q-124 39 -243 39q-112 0 -174.5 -47.5t-62.5 -132.5v-263q0 -84 49.5 -127
t142.5 -43q57 0 106 11v305h245zM199 1444h223q4 -111 95 -111q47 0 70 31t25 80h222q0 -142 -84.5 -226t-232.5 -84t-233 84t-85 226z" />
    <glyph glyph-name="gcaron.sc" horiz-adv-x="982" 
d="M900 527v-489q-69 -24 -171 -41t-204 -17q-88 0 -166.5 22t-137.5 65.5t-95 107.5t-42 145l-4 117v226q0 70 23.5 140t81 126t152.5 91.5t229 35.5q70 0 154.5 -12.5t157.5 -38.5l-41 -220q-124 39 -243 39q-112 0 -174.5 -47.5t-62.5 -132.5v-263q0 -84 49.5 -127
t142.5 -43q57 0 106 11v305h245zM865 1468l-197 -336h-282l-198 336l242 13l97 -191l97 191z" />
    <glyph glyph-name="gcircumflex.sc" horiz-adv-x="982" 
d="M900 527v-489q-69 -24 -171 -41t-204 -17q-88 0 -166.5 22t-137.5 65.5t-95 107.5t-42 145l-4 117v226q0 70 23.5 140t81 126t152.5 91.5t229 35.5q70 0 154.5 -12.5t157.5 -38.5l-41 -220q-124 39 -243 39q-112 0 -174.5 -47.5t-62.5 -132.5v-263q0 -84 49.5 -127
t142.5 -43q57 0 106 11v305h245zM200 1138l184 337h284l184 -337l-237 -12l-89 183l-89 -183z" />
    <glyph glyph-name="gcommaaccent.sc" horiz-adv-x="982" 
d="M900 527v-489q-69 -24 -171 -41t-204 -17q-88 0 -166.5 22t-137.5 65.5t-95 107.5t-42 145l-4 117v226q0 70 23.5 140t81 126t152.5 91.5t229 35.5q70 0 154.5 -12.5t157.5 -38.5l-41 -220q-124 39 -243 39q-112 0 -174.5 -47.5t-62.5 -132.5v-263q0 -84 49.5 -127
t142.5 -43q57 0 106 11v305h245zM415 -93h252l-6 -68q-6 -107 -47 -206.5t-91 -158.5h-185q31 77 54 171.5t23 180.5v81z" />
    <glyph glyph-name="gdotaccent.sc" horiz-adv-x="982" 
d="M900 527v-489q-69 -24 -171 -41t-204 -17q-88 0 -166.5 22t-137.5 65.5t-95 107.5t-42 145l-4 117v226q0 70 23.5 140t81 126t152.5 91.5t229 35.5q70 0 154.5 -12.5t157.5 -38.5l-41 -220q-124 39 -243 39q-112 0 -174.5 -47.5t-62.5 -132.5v-263q0 -84 49.5 -127
t142.5 -43q57 0 106 11v305h245zM368 1290q0 61 35 101t118 40q152 0 152 -141q0 -140 -152 -140q-153 0 -153 140z" />
    <glyph glyph-name="germandbls.sc" horiz-adv-x="1793" 
d="M843 289q0 -154 -107 -231.5t-311 -77.5q-83 0 -184 12t-175 38l34 211q53 -16 132.5 -29.5t151.5 -13.5q88 0 134 20t46 76q0 32 -18 53.5t-49 35t-63 23t-82 23t-73 19.5q-208 56 -208 294q0 140 105 227t291 87q160 0 329 -39l-29 -215q-139 36 -258 36
q-78 0 -119 -25t-41 -72q0 -15 5 -34.5t25.5 -35.5t53.5 -27.5t87.5 -26t69.5 -18.5q131 -36 192 -108t61 -202zM1740 289q0 -154 -107 -231.5t-311 -77.5q-83 0 -184 12t-175 38l34 211q148 -43 284 -43q88 0 134 20t46 76q0 32 -18 53.5t-49 35t-63 23t-82 23t-73 19.5
q-208 55 -208 294q0 140 104.5 227t291.5 87q157 0 329 -39l-29 -215q-142 36 -258 36q-78 0 -119.5 -25t-41.5 -72q0 -15 5 -34.5t25.5 -35.5t54 -27.5t88 -26t69.5 -18.5q131 -36 192 -108t61 -202z" />
    <glyph glyph-name="glyph390" horiz-adv-x="628" 
d="M549 1163l-181 -54l-295 297l265 94z" />
    <glyph glyph-name="greater.tnum" 
d="M458 170l-187 168l385 339l-385 339l187 168l560 -507z" />
    <glyph glyph-name="greater.aalt" horiz-adv-x="1009" 
d="M318 90l-187 168l384 340l-384 339l187 168l560 -507z" />
    <glyph glyph-name="greater.aalt.tnum" 
d="M458 90l-187 168l385 340l-385 339l187 168l560 -507z" />
    <glyph glyph-name="greaterequal.tnum" 
d="M271 187h713v-164h-713v164zM458 310l-187 168l385 339l-385 339l187 168l560 -507z" />
    <glyph glyph-name="greaterequal.aalt" horiz-adv-x="1009" 
d="M131 124h713v-164h-713v164zM318 247l-187 168l384 339l-384 339l187 168l560 -507z" />
    <glyph glyph-name="greaterequal.aalt.tnum" 
d="M271 124h713v-164h-713v164zM458 247l-187 168l385 339l-385 339l187 168l560 -507z" />
    <glyph glyph-name="h.sc" horiz-adv-x="1164" 
d="M1045 0h-288v406h-350v-406h-288v1036h288v-403h350v403h288v-1036z" />
    <glyph glyph-name="hbar.sc" horiz-adv-x="1204" 
d="M20 754v150h119v132h288v-132h350v132h288v-132h119v-150h-119v-754h-288v406h-350v-406h-288v754h-119zM427 633h350v121h-350v-121z" />
    <glyph glyph-name="hcircumflex.sc" horiz-adv-x="1164" 
d="M1045 0h-288v406h-350v-406h-288v1036h288v-403h350v403h288v-1036zM255 1138l184 337h284l184 -337l-237 -12l-89 183l-89 -183z" />
    <glyph glyph-name="glyph412" horiz-adv-x="906" 
d="M266 1115l-186 27l93 377l256 -50zM611 1115l-188 30l141 370l268 -61z" />
    <glyph glyph-name="i.aalt" horiz-adv-x="518" 
d="M115 996h287v-996h-287v996zM99 1283q0 148 157 148q76 0 116 -37.5t40 -110.5q0 -149 -156 -149q-76 0 -116.5 37.5t-40.5 111.5z" />
    <glyph glyph-name="i.sc" horiz-adv-x="526" 
d="M407 1036v-1036h-288v1036h288z" />
    <glyph glyph-name="iacute.sc" horiz-adv-x="526" 
d="M407 1036v-1036h-288v1036h288zM293 1109l-184 54l211 337l265 -94z" />
    <glyph glyph-name="ibreve.sc" horiz-adv-x="526" 
d="M407 1036v-1036h-288v1036h288zM-54 1444h222q2 -49 25 -80t70 -31q91 0 95 111h222q0 -142 -84.5 -226t-232.5 -84t-232.5 84t-84.5 226z" />
    <glyph glyph-name="icircumflex.sc" horiz-adv-x="526" 
d="M407 1036v-1036h-288v1036h288zM-63 1138l184 337h284l184 -337l-237 -12l-89 183l-89 -183z" />
    <glyph glyph-name="idieresis.sc" horiz-adv-x="526" 
d="M407 1036v-1036h-288v1036h288zM-91 1290q0 141 152 141q74 0 113.5 -35.5t39.5 -105.5q0 -140 -153 -140q-73 0 -112.5 35.5t-39.5 104.5zM313 1290q0 141 152 141q74 0 113.5 -35.5t39.5 -105.5q0 -140 -153 -140q-73 0 -112.5 35.5t-39.5 104.5z" />
    <glyph glyph-name="i.aalt.sc" horiz-adv-x="526" 
d="M407 1036v-1036h-288v1036h288zM110 1290q0 61 35 101t118 40q152 0 152 -141q0 -140 -152 -140q-153 0 -153 140z" />
    <glyph glyph-name="uni1ECB.sc" horiz-adv-x="526" 
d="M407 1036v-1036h-288v1036h288zM106 -294q0 148 157 148q156 0 156 -148q0 -64 -35.5 -106t-120.5 -42q-76 0 -116.5 37.5t-40.5 110.5z" />
    <glyph glyph-name="igrave.sc" horiz-adv-x="526" 
d="M407 1036v-1036h-288v1036h288zM423 1163l-180 -54l-295 297l265 94z" />
    <glyph glyph-name="ij.sc" horiz-adv-x="1052" 
d="M407 1036v-1036h-288v1036h288zM645 1036h289v-1031q0 -133 -75.5 -230.5t-253.5 -174.5l-124 174q89 53 126.5 109t37.5 136v1017z" />
    <glyph glyph-name="glyph432" horiz-adv-x="1067" 
d="M652 996h287v-990q0 -154 -78.5 -265.5t-277.5 -208.5l-126 186q108 72 151.5 140t43.5 168v970zM128 996h287v-996h-287v996zM292 1081l-177 54l229 365l263 -93zM817 1081l-176 54l228 365l264 -93z" />
    <glyph glyph-name="glyph433" horiz-adv-x="1052" 
d="M645 1036h289v-1031q0 -133 -75.5 -230.5t-253.5 -174.5l-124 174q89 53 126.5 109t37.5 136v1017zM407 1036v-1036h-288v1036h288zM293 1109l-184 54l211 337l265 -94zM819 1109l-184 54l211 337l265 -94z" />
    <glyph glyph-name="imacron.sc" horiz-adv-x="526" 
d="M407 1036v-1036h-288v1036h288zM-44 1170v221h614v-221h-614z" />
    <glyph glyph-name="iogonek.sc" horiz-adv-x="526" 
d="M407 1036v-1036q-163 -112 -163 -213q0 -35 21.5 -54.5t58.5 -19.5q53 0 92 13l15 -175q-55 -19 -137 -19q-120 0 -191 48.5t-71 149.5q0 69 51.5 139t156.5 131h-121v1036h288z" />
    <glyph glyph-name="itilde.sc" horiz-adv-x="526" 
d="M407 1036v-1036h-288v1036h288zM152 1425q45 0 119 -25.5t110 -25.5q57 0 115 60l120 -97q-12 -31 -40.5 -75t-81 -78.5t-119.5 -34.5q-45 0 -119.5 26t-110.5 26q-58 0 -114 -61l-120 97q12 31 40.5 75t81 78.5t119.5 34.5z" />
    <glyph glyph-name="j.sc" horiz-adv-x="527" 
d="M119 1036h289v-1031q0 -133 -75.5 -230.5t-253.5 -174.5l-124 174q89 53 126.5 109t37.5 136v1017z" />
    <glyph glyph-name="jcircumflex.sc" horiz-adv-x="527" 
d="M119 1036h289v-1031q0 -133 -75.5 -230.5t-253.5 -174.5l-124 174q89 53 126.5 109t37.5 136v1017zM-58 1138l183 337h285l183 -337l-236 -12l-89 183l-90 -183z" />
    <glyph glyph-name="k.sc" horiz-adv-x="1066" 
d="M712 1036h313l-266 -522l281 -514h-317l-205 402h-109v-402h-290v1036h290v-400h114z" />
    <glyph glyph-name="kcommaaccent.sc" horiz-adv-x="1066" 
d="M712 1036h313l-266 -522l281 -514h-317l-205 402h-109v-402h-290v1036h290v-400h114zM430 -93h252l-5 -62q-6 -109 -47.5 -210.5t-92.5 -160.5h-185q32 76 55 170.5t23 181.5v81z" />
    <glyph glyph-name="kgreenlandic.sc" horiz-adv-x="1066" 
d="M712 1036h313l-266 -522l281 -514h-317l-205 402h-109v-402h-290v1036h290v-400h114z" />
    <glyph glyph-name="l.sc" horiz-adv-x="859" 
d="M407 1036v-809h416v-227h-704v1036h288z" />
    <glyph glyph-name="lacute.sc" horiz-adv-x="859" 
d="M407 1036v-809h416v-227h-704v1036h288zM281 1109l-184 54l212 337l264 -94z" />
    <glyph glyph-name="lcaron.sc" horiz-adv-x="886" 
d="M576 1138h238l-16 -508h-207zM407 1036v-809h416v-227h-704v1036h288z" />
    <glyph glyph-name="lcommaaccent.sc" horiz-adv-x="859" 
d="M407 1036v-809h416v-227h-704v1036h288zM338 -93h252l-5 -68q-7 -108 -48 -207.5t-91 -157.5h-185q31 75 54 170t23 182v81z" />
    <glyph glyph-name="ldot.sc" horiz-adv-x="908" 
d="M407 1036v-809h416v-227h-704v1036h288zM550 582q0 61 35 101t118 40q152 0 152 -141q0 -140 -152 -140q-153 0 -153 140z" />
    <glyph glyph-name="less.tnum" 
d="M742 1184l187 -168l-385 -339l385 -339l-187 -168l-560 507z" />
    <glyph glyph-name="less.aalt" horiz-adv-x="1009" 
d="M691 1105l187 -168l-385 -339l385 -339l-187 -168l-560 507z" />
    <glyph glyph-name="less.aalt.tnum" 
d="M742 1105l187 -168l-385 -339l385 -339l-187 -168l-560 507z" />
    <glyph glyph-name="lessequal.tnum" 
d="M216 187h713v-164h-713v164zM742 1324l187 -168l-385 -339l385 -339l-187 -168l-560 507z" />
    <glyph glyph-name="lessequal.aalt" horiz-adv-x="1009" 
d="M165 124h713v-164h-713v164zM691 1261l187 -168l-385 -339l385 -339l-187 -168l-560 507z" />
    <glyph glyph-name="lessequal.aalt.tnum" 
d="M216 124h713v-164h-713v164zM742 1261l187 -168l-385 -339l385 -339l-187 -168l-560 507z" />
    <glyph glyph-name="lira.tnum" horiz-adv-x="1189" 
d="M148 224q79 0 119 38t41 123v89h-140v153h769v-153h-335v-98q-3 -94 -61 -152h526v-244h-919v244zM168 878h140v69q0 82 23.5 158t79 135t145.5 96.5t217 37.5q125 0 281 -33l-25 -247q-125 24 -224 24t-151 -51t-52 -149v-40h335v-153h-769v153z" />
    <glyph glyph-name="lira.aalt" horiz-adv-x="1108" 
d="M149 559h717v-148h-304v-79q-3 -71 -40 -117h463v-235h-854v235h10q65 2 98 30.5t36 93.5v72h-126v148zM149 784h127v50q0 117 48.5 200t144 132.5t237.5 49.5q121 0 267 -32l-24 -234q-126 23 -207 23q-83 0 -129 -42t-49 -147h302v-148h-717v148z" />
    <glyph glyph-name="lira.aalt.tnum" 
d="M202 559h717v-148h-304v-79q-3 -71 -40 -117h463v-235h-854v235h11q65 2 97.5 30.5t35.5 93.5v72h-126v148zM202 784h127v50q0 117 48.5 200t144 132.5t237.5 49.5q121 0 267 -32l-24 -234q-126 23 -207 23q-83 0 -129 -42t-49 -147h302v-148h-717v148z" />
    <glyph glyph-name="logicalnot.tnum" 
d="M766 307v249h-600v242h866v-491h-266z" />
    <glyph glyph-name="logicalnot.aalt" horiz-adv-x="1128" 
d="M731 228v250h-600v241h866v-491h-266z" />
    <glyph glyph-name="logicalnot.aalt.tnum" 
d="M766 228v250h-600v241h866v-491h-266z" />
    <glyph glyph-name="lslash.sc" horiz-adv-x="891" 
d="M438 1036v-324l175 83l67 -141l-242 -115v-312h416v-227h-704v402l-88 -42l-67 141l155 74v461h288z" />
    <glyph glyph-name="m.sc" horiz-adv-x="1359" 
d="M968 0v637l-215 -493h-149l-213 492v-636h-272v1036h324l236 -587l236 587h325v-1036h-272z" />
    <glyph glyph-name="glyph481" horiz-adv-x="769" 
d="M77 1170v221h615v-221h-615z" />
    <glyph glyph-name="minus.tnum" 
d="M226 798h746v-242h-746v242z" />
    <glyph glyph-name="minus.aalt" horiz-adv-x="1008" 
d="M131 718h746v-241h-746v241z" />
    <glyph glyph-name="minus.aalt.tnum" 
d="M226 718h746v-241h-746v241z" />
    <glyph glyph-name="uni00B5.tnum" 
d="M1045 0h-246l-15 105q-118 -94 -226 -101q-58 -7 -109 6q-4 -157 -80.5 -268.5t-275.5 -209.5l-126 186q108 72 151.5 140t43.5 168v970h287v-639q0 -120 114 -120q42 0 95 19.5t100 53.5v686h287v-996z" />
    <glyph glyph-name="uni00B5.aalt" horiz-adv-x="1129" 
d="M1001 0h-246l-15 105q-118 -94 -227 -101q-57 -7 -108 6q-4 -157 -80.5 -268.5t-275.5 -209.5l-126 186q108 72 151.5 140t43.5 168v970h287v-639q0 -120 113 -120q43 0 95.5 19.5t100.5 53.5v686h287v-996z" />
    <glyph glyph-name="uni00B5.aalt.tnum" 
d="M1045 0h-246l-15 105q-118 -94 -226 -101q-58 -7 -109 6q-4 -157 -80.5 -268.5t-275.5 -209.5l-126 186q108 72 151.5 140t43.5 168v970h287v-639q0 -120 114 -120q42 0 95 19.5t100 53.5v686h287v-996z" />
    <glyph glyph-name="multiply.tnum" 
d="M836 1098l185 -185l-240 -240l232 -230l-179 -180l-231 232l-239 -239l-185 185l238 239l-231 231l179 179l231 -230z" />
    <glyph glyph-name="multiply.aalt" horiz-adv-x="1104" 
d="M788 1020l185 -186l-239 -239l231 -231l-179 -180l-231 232l-239 -239l-185 186l238 238l-231 232l179 179l232 -231z" />
    <glyph glyph-name="multiply.aalt.tnum" 
d="M836 1020l185 -186l-240 -239l232 -231l-179 -180l-231 232l-239 -239l-185 186l238 238l-231 232l179 179l231 -231z" />
    <glyph glyph-name="n.sc" horiz-adv-x="1166" 
d="M766 0l-363 622v-622h-284v1036h281l363 -622v622h284v-1036h-281z" />
    <glyph glyph-name="nacute.sc" horiz-adv-x="1166" 
d="M766 0l-363 622v-622h-284v1036h281l363 -622v622h284v-1036h-281zM608 1109l-184 54l212 337l264 -94z" />
    <glyph glyph-name="napostrophe.sc" horiz-adv-x="1166" 
d="M56 1614h249v-43q0 -86 -28 -192t-101 -210h-178q23 63 40.5 164.5t17.5 200.5v80zM766 0l-363 622v-622h-284v1036h281l363 -622v622h284v-1036h-281z" />
    <glyph glyph-name="ncaron.sc" horiz-adv-x="1166" 
d="M766 0l-363 622v-622h-284v1036h281l363 -622v622h284v-1036h-281zM921 1468l-204 -349h-282l-204 349l242 13l103 -204l103 204z" />
    <glyph glyph-name="ncommaaccent.sc" horiz-adv-x="1166" 
d="M766 0l-363 622v-622h-284v1036h281l363 -622v622h284v-1036h-281zM479 -93h252l-5 -68q-7 -107 -48 -206.5t-91 -158.5h-185q31 77 54 171.5t23 180.5v81z" />
    <glyph glyph-name="uni0272.sc" horiz-adv-x="1166" 
d="M766 0l-363 622v-373q0 -166 -33 -344q-19 -116 -90.5 -204t-230.5 -169l-126 178q121 81 158.5 153.5t37.5 162.5v1010h281l363 -622v622h284v-1036h-281z" />
    <glyph glyph-name="nine.tnum" 
d="M1057 943v-454q0 -509 -556 -509q-166 0 -310 48l28 246q145 -43 277 -43q150 0 219 61t69 182v100q-125 -48 -232 -48q-142 0 -236.5 50.5t-143.5 140.5t-49 223q0 203 124.5 318.5t342.5 115.5q102 0 188 -26.5t147.5 -79.5t96.5 -134t35 -191zM597 749q101 0 187 39
v164q0 85 -52 133.5t-142 48.5q-89 0 -140 -52t-51 -140q0 -193 198 -193z" />
    <glyph glyph-name="uniF739.tnum" 
d="M1057 785v-454q0 -509 -556 -509q-166 0 -310 48l28 246q145 -43 277 -43q150 0 219 61t69 182v100q-125 -48 -232 -48q-142 0 -236.5 50.5t-143.5 140.5t-49 223q0 203 124.5 318.5t342.5 115.5q102 0 188 -26.5t147.5 -79.5t96.5 -134t35 -191zM597 591q101 0 187 39
v164q0 85 -52 133.5t-142 48.5q-89 0 -140 -52t-51 -140q0 -193 198 -193z" />
    <glyph glyph-name="notequal.tnum" 
d="M220 745v234h440l140 287l136 -61l-112 -226h155v-234h-264l-67 -136h331v-234h-441l-139 -287l-136 61l110 226h-153v234h263l67 136h-330z" />
    <glyph glyph-name="notequal.aalt" horiz-adv-x="1020" 
d="M131 666v234h439l141 288l135 -61l-111 -227h154v-234h-264l-66 -136h330v-233h-440l-140 -287l-135 60l110 227h-153v233h263l67 136h-330z" />
    <glyph glyph-name="notequal.aalt.tnum" 
d="M220 666v234h440l140 288l136 -61l-112 -227h155v-234h-264l-67 -136h331v-233h-441l-139 -287l-136 60l110 227h-153v233h263l67 136h-330z" />
    <glyph glyph-name="ntilde.sc" horiz-adv-x="1166" 
d="M766 0l-363 622v-622h-284v1036h281l363 -622v622h284v-1036h-281zM458 1425q45 0 119.5 -25.5t110.5 -25.5q58 0 114 60l120 -97q-12 -31 -40.5 -75t-81 -78.5t-119.5 -34.5q-45 0 -119 26t-110 26q-57 0 -115 -61l-120 97q12 31 40.5 75t81 78.5t119.5 34.5z" />
    <glyph glyph-name="numbersign.tnum" 
d="M796 1354h229l-46 -331h193l-30 -219h-193l-35 -260h192l-30 -217h-192l-44 -327h-232l45 327h-196l-44 -327h-230l45 327h-200l29 217h200l35 260h-195l29 219h196l45 331h231l-45 -331h197zM522 804l-34 -260h195l37 260h-198z" />
    <glyph glyph-name="numbersign.aalt" horiz-adv-x="1413" 
d="M453 1209h239l-41 -294h203l41 294h239l-41 -294h195l-32 -213h-193l-27 -199h191l-31 -213h-190l-40 -290h-242l41 290h-201l-40 -290h-241l40 290h-198l30 213h198l28 199h-196l31 213h195zM622 702l-28 -199h201l28 199h-201z" />
    <glyph glyph-name="numbersign.aalt.tnum" 
d="M360 1209h232l-41 -294h190l42 294h231l-41 -294h175l-32 -213h-173l-28 -199h172l-31 -213h-170l-40 -290h-235l42 290h-190l-40 -290h-233l41 290h-178l30 213h178l28 199h-176l30 213h176zM522 702l-29 -199h189l29 199h-189z" />
    <glyph glyph-name="o.sc" horiz-adv-x="1094" 
d="M80 366v304q0 115 50 199t153 135.5t264 51.5t264 -51.5t153 -135.5t50 -199v-304q0 -186 -124.5 -286t-342.5 -100t-342.5 100t-124.5 286zM371 682v-315q0 -73 45.5 -117t130.5 -44q84 0 129.5 44t45.5 117v302q0 73 -45.5 117t-129.5 44t-130 -40t-46 -108z" />
    <glyph glyph-name="oacute.sc" horiz-adv-x="1094" 
d="M80 366v225q0 77 7 139q15 157 139 241.5t321 84.5q161 0 264 -51.5t153 -135.5t50 -199v-225q0 -77 -7 -139q-15 -157 -139 -241.5t-321 -84.5q-218 0 -342.5 100t-124.5 286zM371 682v-280q0 -99 47.5 -147.5t128.5 -48.5q78 0 126.5 43t48.5 135v250q0 85 -42.5 140.5
t-132.5 55.5q-84 0 -130 -40t-46 -108zM544 1109l-184 54l211 337l265 -94z" />
    <glyph glyph-name="obreve.sc" horiz-adv-x="1094" 
d="M80 366v304q0 115 50 199t153 135.5t264 51.5t264 -51.5t153 -135.5t50 -199v-304q0 -186 -124.5 -286t-342.5 -100t-342.5 100t-124.5 286zM371 682v-315q0 -73 45.5 -117t130.5 -44q84 0 129.5 44t45.5 117v302q0 73 -45.5 117t-129.5 44t-130 -40t-46 -108zM229 1444
h222q2 -50 25 -80.5t70 -30.5q91 0 95 111h223q0 -142 -84.5 -226t-233.5 -84q-148 0 -232.5 84t-84.5 226z" />
    <glyph glyph-name="ocircumflex.sc" horiz-adv-x="1094" 
d="M80 366v225q0 77 7 139q15 157 139 241.5t321 84.5q161 0 264 -51.5t153 -135.5t50 -199v-225q0 -77 -7 -139q-15 -157 -139 -241.5t-321 -84.5q-218 0 -342.5 100t-124.5 286zM371 682v-280q0 -99 47.5 -147.5t128.5 -48.5q78 0 126.5 43t48.5 135v250q0 85 -42.5 140.5
t-132.5 55.5q-84 0 -130 -40t-46 -108zM221 1138l183 337h285l183 -337l-236 -12l-90 183l-89 -183z" />
    <glyph glyph-name="odieresis.sc" horiz-adv-x="1094" 
d="M80 366v225q0 77 7 139q15 157 139 241.5t321 84.5q161 0 264 -51.5t153 -135.5t50 -199v-225q0 -77 -7 -139q-15 -157 -139 -241.5t-321 -84.5q-218 0 -342.5 100t-124.5 286zM371 682v-280q0 -99 47.5 -147.5t128.5 -48.5q78 0 126.5 43t48.5 135v250q0 85 -42.5 140.5
t-132.5 55.5q-84 0 -130 -40t-46 -108zM186 1290q0 141 152 141q74 0 113.5 -35.5t39.5 -105.5q0 -140 -153 -140q-73 0 -112.5 35.5t-39.5 104.5zM602 1290q0 61 35 101t118 40q73 0 112.5 -36t39.5 -105t-39.5 -104.5t-112.5 -35.5q-153 0 -153 140z" />
    <glyph glyph-name="uni1ECD.sc" horiz-adv-x="1094" 
d="M80 366v225q0 77 7 139q15 157 139 241.5t321 84.5q161 0 264 -51.5t153 -135.5t50 -199v-225q0 -77 -7 -139q-15 -157 -139 -241.5t-321 -84.5q-218 0 -342.5 100t-124.5 286zM371 682v-280q0 -99 47.5 -147.5t128.5 -48.5q78 0 126.5 43t48.5 135v250q0 85 -42.5 140.5
t-132.5 55.5q-84 0 -130 -40t-46 -108zM390 -294q0 148 156 148q157 0 157 -148t-157 -148q-75 0 -115.5 37.5t-40.5 110.5z" />
    <glyph glyph-name="oe.sc" horiz-adv-x="1479" 
d="M725 0v45q-89 -65 -215 -65q-89 0 -165.5 22t-133 65.5t-90 108t-38.5 146.5l-3 123v146l3 123q4 61 27 122t74.5 109.5t132.5 79.5t193 31q127 0 215 -66v46h684v-214h-437v-202h421v-199h-421v-207h454v-214h-701zM535 206q90 0 145 55v514q-58 56 -145 56
q-164 0 -164 -164v-285q0 -79 40.5 -127.5t123.5 -48.5z" />
    <glyph glyph-name="ograve.sc" horiz-adv-x="1094" 
d="M80 366v225q0 77 7 139q15 157 139 241.5t321 84.5q161 0 264 -51.5t153 -135.5t50 -199v-225q0 -77 -7 -139q-15 -157 -139 -241.5t-321 -84.5q-218 0 -342.5 100t-124.5 286zM371 682v-280q0 -99 47.5 -147.5t128.5 -48.5q78 0 126.5 43t48.5 135v250q0 85 -42.5 140.5
t-132.5 55.5q-84 0 -130 -40t-46 -108zM709 1163l-180 -54l-295 297l264 94z" />
    <glyph glyph-name="ohungarumlaut.sc" horiz-adv-x="1094" 
d="M80 366v225q0 77 7 139q15 157 139 241.5t321 84.5q161 0 264 -51.5t153 -135.5t50 -199v-225q0 -77 -7 -139q-15 -157 -139 -241.5t-321 -84.5q-218 0 -342.5 100t-124.5 286zM371 682v-280q0 -99 47.5 -147.5t128.5 -48.5q78 0 126.5 43t48.5 135v250q0 85 -42.5 140.5
t-132.5 55.5q-84 0 -130 -40t-46 -108zM434 1115l-185 27l93 377l255 -50zM780 1115l-188 30l141 370l268 -61z" />
    <glyph glyph-name="omacron.sc" horiz-adv-x="1094" 
d="M80 366v225q0 77 7 139q15 157 139 241.5t321 84.5q161 0 264 -51.5t153 -135.5t50 -199v-225q0 -77 -7 -139q-15 -157 -139 -241.5t-321 -84.5q-218 0 -342.5 100t-124.5 286zM371 682v-280q0 -99 47.5 -147.5t128.5 -48.5q78 0 126.5 43t48.5 135v250q0 85 -42.5 140.5
t-132.5 55.5q-84 0 -130 -40t-46 -108zM239 1170v221h615v-221h-615z" />
    <glyph glyph-name="one.tnum" 
d="M1074 252v-252h-887v252h318v811l-319 -89l-27 244l424 136h216v-1102h275z" />
    <glyph glyph-name="uniF731.tnum" 
d="M1074 252v-252h-887v252h318v652l-319 -88l-27 244l424 136h216v-944h275z" />
    <glyph glyph-name="onehalf.aalt" horiz-adv-x="1029" 
d="M785 977v-186h-545v186h168v304l-166 -33l-12 180l237 66h167v-517h151zM810 -113v-188h-567v178q39 22 84 47.5t103.5 63.5t86.5 75t28 68q0 40 -32.5 60t-87.5 20q-68 0 -158 -18l-20 192q117 27 226 27q82 0 157 -27t116 -89.5t41 -145.5q0 -146 -232 -263h255z
M42 674h844v-152h-844v152z" />
    <glyph glyph-name="onequarter.aalt" horiz-adv-x="1029" 
d="M200 -180v153l295 429v2h217v-419h97v-165h-97v-119h-216v119h-296zM797 977v-186h-545v186h168v304l-166 -33l-12 180l237 66h167v-517h151zM42 674h844v-152h-844v152zM404 -20h106v156z" />
    <glyph glyph-name="uni00B9.aalt" horiz-adv-x="608" 
d="M590 679v-186h-544v186h167v304l-166 -33l-12 180l237 66h168v-517h150z" />
    <glyph glyph-name="uni01EB.sc" horiz-adv-x="1094" 
d="M80 366v304q0 115 50 199t153 135.5t264 51.5t264 -51.5t153 -135.5t50 -199v-304q0 -145 -76.5 -238.5t-216.5 -127.5q-162 -112 -162 -213q0 -35 21.5 -54.5t58.5 -19.5q53 0 92 13l15 -175q-55 -19 -137 -19q-120 0 -191 48.5t-71 149.5q0 63 43 127.5t132 122.5
q-206 5 -324 105t-118 281zM371 682v-315q0 -73 45.5 -117t130.5 -44q84 0 129.5 44t45.5 117v302q0 73 -45.5 117t-129.5 44t-130 -40t-46 -108z" />
    <glyph glyph-name="ordfeminine.aalt" horiz-adv-x="763" 
d="M45 695q0 53 24 97.5t83.5 76.5t154.5 32h123v32q0 42 -24.5 66.5t-89.5 24.5q-98 0 -214 -34l-28 177q45 16 119.5 30.5t151.5 14.5q162 0 231.5 -61.5t69.5 -210.5v-219q0 -47 41 -47q32 0 49 5l2 -170q-52 -21 -119 -21q-47 0 -87 19.5t-64 55.5q-37 -32 -90 -53.5
t-111 -21.5q-100 0 -161 51.5t-61 155.5zM327 646q47 0 103 32v92h-98q-76 0 -76 -64q0 -29 19.5 -44.5t51.5 -15.5z" />
    <glyph glyph-name="ordmasculine.aalt" horiz-adv-x="802" 
d="M63 772v157q0 84 41 146t117 99.5t179 37.5t180 -37t118 -97.5t41 -142.5v-157q0 -86 -41 -149.5t-117.5 -101.5t-180.5 -38q-103 0 -179 37.5t-117 99.5t-41 146zM280 913v-126q0 -51 33 -80.5t87 -29.5t88 31.5t34 84.5v126q0 48 -34 76.5t-88 28.5t-87 -30t-33 -81z
" />
    <glyph glyph-name="glyph557" horiz-adv-x="1632" 
d="M801 1347l173 -173l-396 -377l923 3v-247l-923 3l396 -376l-173 -173l-670 670z" />
    <glyph glyph-name="glyph558" horiz-adv-x="1632" 
d="M658 994l173 173l670 -670l-670 -670l-173 173l396 376l-923 -3v247l923 -3z" />
    <glyph glyph-name="glyph559" horiz-adv-x="1603" 
d="M929 -190h-255l9 938l-377 -390l-175 175l670 651l671 -651l-175 -175l-377 389z" />
    <glyph glyph-name="glyph560" horiz-adv-x="1603" 
d="M1297 636l175 -175l-671 -651l-670 651l175 175l376 -390l-8 938h254l-9 -938z" />
    <glyph glyph-name="glyph561" horiz-adv-x="1374" 
d="M131 996h245l-14 -596l706 712l175 -175l-710 -706l594 14v-245h-996v996z" />
    <glyph glyph-name="glyph562" horiz-adv-x="1374" 
d="M131 937l174 175l707 -712l-14 596h245v-996h-996v245l594 -14z" />
    <glyph glyph-name="glyph563" horiz-adv-x="1374" 
d="M376 0h-245v996h996v-245l-594 14l710 -706l-175 -175l-706 712z" />
    <glyph glyph-name="glyph564" horiz-adv-x="1374" 
d="M305 -116l-174 175l710 706l-594 -14v245h996v-996h-245l14 595z" />
    <glyph glyph-name="glyph565" horiz-adv-x="1632" 
d="M658 1174l173 173l670 -670l-670 -670l-173 173l396 376l-923 -3v247l923 -3z" />
    <glyph glyph-name="glyph566" horiz-adv-x="1603" 
d="M928 0h-254l8 937l-376 -389l-175 175l670 651l671 -651l-175 -175l-378 390z" />
    <glyph glyph-name="glyph567" horiz-adv-x="1603" 
d="M1297 814l175 -175l-671 -651l-670 651l175 175l376 -390l-8 938h254l-9 -938z" />
    <glyph glyph-name="glyph568" horiz-adv-x="1374" 
d="M131 996h245l-14 -596l706 712l175 -175l-710 -706l594 14v-245h-996v996z" />
    <glyph glyph-name="glyph569" horiz-adv-x="1374" 
d="M131 937l174 175l707 -712l-14 596h245v-996h-996v245l594 -14z" />
    <glyph glyph-name="glyph570" horiz-adv-x="1374" 
d="M376 358h-245v996h996v-245l-594 14l710 -706l-175 -175l-706 711z" />
    <glyph glyph-name="glyph571" horiz-adv-x="1374" 
d="M305 242l-174 175l710 706l-594 -14v245h996v-996h-245l14 595z" />
    <glyph glyph-name="glyph572" horiz-adv-x="1632" 
d="M974 0l-173 -173l-670 670l670 670l173 -173l-396 -376l923 3v-247l-923 3z" />
    <glyph glyph-name="oslash.sc" horiz-adv-x="1094" 
d="M150 -242l119 281q-171 87 -186 284l-3 102v186l3 98q10 167 134.5 257t329.5 90q71 0 136 -14l99 237h163l-120 -283q171 -87 186 -283l3 -102v-186l-3 -98q-10 -167 -134.5 -257t-329.5 -90q-75 0 -136 13l-99 -235h-162zM371 682v-280q0 -99 47.5 -147.5t128.5 -48.5
q78 0 126.5 43t48.5 135v250q0 85 -42.5 140.5t-132.5 55.5q-84 0 -130 -40t-46 -108z" />
    <glyph glyph-name="oslashacute.sc" horiz-adv-x="1094" 
d="M565 1117l-188 53l198 338l260 -94zM146 -242l119 282q-169 89 -182 284l-3 101v186l3 98q10 167 134.5 257t329.5 90q65 0 132 -13l103 235h162l-122 -280q175 -87 188 -285l4 -102v-186l-3 -98q-10 -167 -134.5 -257t-329.5 -90q-72 0 -140 14l-99 -236h-162zM371 682
v-280q0 -99 47.5 -147.5t128.5 -48.5q78 0 126.5 43t48.5 135v250q0 85 -42.5 140.5t-132.5 55.5q-84 0 -130 -40t-46 -108z" />
    <glyph glyph-name="otilde.sc" horiz-adv-x="1094" 
d="M80 366v225q0 77 7 139q15 157 139 241.5t321 84.5q161 0 264 -51.5t153 -135.5t50 -199v-225q0 -77 -7 -139q-15 -157 -139 -241.5t-321 -84.5q-218 0 -342.5 100t-124.5 286zM371 682v-280q0 -99 47.5 -147.5t128.5 -48.5q78 0 126.5 43t48.5 135v250q0 85 -42.5 140.5
t-132.5 55.5q-84 0 -130 -40t-46 -108zM435 1425q45 0 119.5 -25.5t110.5 -25.5q58 0 114 60l120 -97q-12 -31 -40.5 -75t-81 -78.5t-118.5 -34.5q-45 0 -119.5 26t-110.5 26q-57 0 -115 -61l-119 97q11 31 39.5 75t81 78.5t119.5 34.5z" />
    <glyph glyph-name="p.sc" horiz-adv-x="1027" 
d="M560 297h-163v-297h-278v1036h405q150 0 247.5 -37.5t148 -107t50.5 -174.5v-102q0 -94 -47 -163.5t-138.5 -112t-224.5 -42.5zM537 835h-140v-337h140q66 0 110.5 35t44.5 112v46q0 66 -39.5 105t-115.5 39z" />
    <glyph glyph-name="paragraph.sc" horiz-adv-x="1204" 
d="M780 1036h290v-1031q0 -153 -79 -264t-279 -209l-126 185q120 79 157 150t37 159v1010zM600 1036h46v-933h-46q-224 0 -356 121t-132 330v23q0 209 132.5 334t355.5 125z" />
    <glyph glyph-name="parenleft.sc" horiz-adv-x="712" 
d="M396 518q0 -457 342 -900l-190 -121q-194 191 -318 458.5t-124 562.5t123.5 562t318.5 460l190 -121q-106 -138 -181.5 -279t-118 -303t-42.5 -319z" />
    <glyph glyph-name="parenright.sc" horiz-adv-x="712" 
d="M315 519q0 125 -27.5 256.5t-96.5 290t-218 353.5l190 121q195 -193 318.5 -459.5t123.5 -561.5t-124 -563t-318 -459l-190 121q342 443 342 901z" />
    <glyph glyph-name="percent.aalt" horiz-adv-x="1729" 
d="M1140 1216h182l-728 -1216h-183zM77 780v157q0 84 39.5 146t113 99.5t172.5 37.5q100 0 173.5 -37.5t113 -99.5t39.5 -146v-157q0 -84 -39.5 -146t-113 -99.5t-173.5 -37.5q-99 0 -172.5 37.5t-113 99.5t-39.5 146zM298 925v-134q0 -49 29 -77.5t75 -28.5q47 0 76.5 28.5
t29.5 77.5v134q0 49 -29.5 78t-76.5 29q-46 0 -75 -29t-29 -78zM1001 272v157q0 84 39 146t112.5 99.5t173.5 37.5t173.5 -37.5t113 -99.5t39.5 -146v-157q0 -84 -39.5 -146t-113 -99.5t-173.5 -37.5t-173.5 37.5t-112.5 99.5t-39 146zM1221 417v-133q0 -50 29 -78.5
t76 -28.5t76 29t29 78v133q0 49 -29 78t-76 29t-76 -28.5t-29 -78.5z" />
    <glyph glyph-name="perthousand.aalt" horiz-adv-x="2121" 
d="M1001 272v157q0 84 39 146t112.5 99.5t173.5 37.5q126 0 215 -66q87 66 215 66q100 0 173.5 -37.5t113 -99.5t39.5 -146v-157q0 -84 -39.5 -146t-113 -99.5t-173.5 -37.5q-129 0 -215 66q-87 -66 -215 -66q-100 0 -173.5 37.5t-112.5 99.5t-39 146zM77 780v157
q0 84 39.5 146t113 99.5t172.5 37.5q100 0 173.5 -37.5t113 -99.5t39.5 -146v-157q0 -84 -39.5 -146t-113 -99.5t-173.5 -37.5q-99 0 -172.5 37.5t-113 99.5t-39.5 146zM1140 1216h182l-728 -1216h-183zM1221 417v-133q0 -50 29 -78.5t76 -28.5q45 0 74.5 27.5t30.5 73.5
v139q0 49 -29 78t-76 29t-76 -28.5t-29 -78.5zM1652 419v-141q1 -47 30 -74t74 -27q47 0 76.5 29t29.5 78v133q0 49 -29.5 78t-76.5 29q-46 0 -74.5 -28.5t-29.5 -76.5zM298 925v-134q0 -49 29 -77.5t75 -28.5q47 0 76.5 28.5t29.5 77.5v134q0 49 -29.5 78t-76.5 29
q-46 0 -75 -29t-29 -78z" />
    <glyph glyph-name="plus.tnum" 
d="M462 1111h275v-313h288v-242h-288v-313h-275v313h-288v242h288v313z" />
    <glyph glyph-name="plus.aalt" horiz-adv-x="1114" 
d="M419 1032h276v-314h288v-241h-288v-313h-276v313h-288v241h288v314z" />
    <glyph glyph-name="plus.aalt.tnum" 
d="M462 1032h275v-314h288v-241h-288v-313h-275v313h-288v241h288v314z" />
    <glyph glyph-name="plusminus.tnum" 
d="M462 1267h275v-281h260v-241h-260v-281h-275v281h-260v241h260v281zM233 327h734v-234h-734v234z" />
    <glyph glyph-name="plusminus.aalt" horiz-adv-x="1057" 
d="M391 1185h275v-282h260v-241h-260v-281h-275v281h-260v241h260v282zM162 244h734v-234h-734v234z" />
    <glyph glyph-name="plusminus.aalt.tnum" 
d="M462 1189h275v-282h260v-241h-260v-281h-275v281h-260v241h260v282zM233 248h734v-234h-734v234z" />
    </font>
</defs>
</svg>
