<?xml version="1.0" standalone="no"?>
<!DOCTYPE svg PUBLIC "-//W3C//DTD SVG 1.1//EN" "http://www.w3.org/Graphics/SVG/1.1/DTD/svg11.dtd" >
<svg xmlns="http://www.w3.org/2000/svg" xmlns:xlink="http://www.w3.org/1999/xlink" version="1.1">
<metadata>
Created by FontForge 20200314 at Tue Nov  3 19:29:02 2015
 By Unknown
Copyright (c) 2015 by Fernando Diaz. All rights reserved.
</metadata>
<defs>
<font id="TrasandinaW03-BoldItalic" horiz-adv-x="1164" >
  <font-face 
    font-family="TrasandinaW03-BoldItalic"
    font-weight="700"
    font-style="italic"
    font-stretch="normal"
    units-per-em="2048"
    panose-1="1 0 0 0 0 0 0 0 0 0"
    ascent="1638"
    descent="-410"
    x-height="996"
    cap-height="1354"
    bbox="-210 -526 2854 2203"
    underline-thickness="102"
    underline-position="-256"
    unicode-range="U+0020-FB06"
  />
<missing-glyph horiz-adv-x="1373" 
d="M550 1015l-109 -96l198 -240l-272 -245l79 -96l273 241l199 -241l107 96l-199 245l270 240l-79 96l-269 -241zM91 0l202 1354h1081l-202 -1354h-1081z" />
    <glyph glyph-name="percent" unicode="&#x30;&#x2f;&#x30;" horiz-adv-x="1610" 
d="M1241 1354h178l-962 -1354h-179zM155 924l24 157q10 67 51.5 133.5t126 108t181.5 41.5q98 0 164 -37.5t95.5 -99.5t16.5 -146l-23 -157q-13 -84 -60.5 -146t-125 -99.5t-175.5 -37.5q-97 0 -163 37.5t-95.5 99.5t-16.5 146zM397 1069l-20 -133q-7 -49 16 -77.5t66 -28.5
t74.5 28.5t39.5 77.5l19 133q7 49 -15.5 77.5t-66.5 28.5q-43 0 -74.5 -28.5t-38.5 -77.5zM885 272l24 157q10 67 51.5 133.5t126 108t181.5 41.5q98 0 164 -37.5t95.5 -99.5t16.5 -146l-23 -157q-13 -84 -60.5 -146t-125 -99.5t-175.5 -37.5q-97 0 -163 37.5t-95.5 99.5
t-16.5 146zM1127 417l-20 -133q-7 -49 16 -77.5t66 -28.5t74.5 28.5t39.5 77.5l19 133q7 49 -16 77.5t-66 28.5t-74.5 -28.5t-38.5 -77.5z" />
    <glyph glyph-name="onequarter" unicode="&#x31;&#x2f;&#x34;" horiz-adv-x="942" 
d="M106 -101l23 154l349 429v2h217l-62 -419h92l-25 -166h-92l-18 -118h-214l18 118h-288zM861 1058l-28 -187h-531l28 187h161l45 302l-163 -33l14 181l240 66h167l-77 -516h144zM78 754h820l-23 -152h-820zM331 60h100l24 155z" />
    <glyph glyph-name="onehalf" unicode="&#x31;&#x2f;&#x32;" horiz-adv-x="942" 
d="M850 1058l-29 -187h-530l28 187h161l44 302l-163 -33l16 181l240 66h165l-76 -516h144zM711 -32l-29 -189h-551l26 179q161 87 217 123t83.5 71.5t27.5 68.5q0 34 -28 51.5t-75 17.5q-65 0 -155 -18l10 193q113 27 225 27q87 0 147 -27.5t91.5 -76t31.5 -118.5
q0 -77 -54 -151.5t-211 -150.5h244zM78 754h820l-23 -152h-820z" />
    <glyph glyph-name="threequarters" unicode="&#x33;&#x2f;&#x34;" horiz-adv-x="942" 
d="M106 -101l23 154l349 429v2h217l-62 -419h92l-25 -166h-92l-18 -118h-214l18 118h-288zM409 1160l20 127h115q41 0 67.5 15t26.5 48q0 36 -55 46q-26 6 -60 5q-57 -1 -128 -16l7 172q104 27 212 27q125 0 198 -47.5t73 -134.5q0 -121 -118 -172q38 -16 61 -50.5t23 -84.5
q0 -115 -91 -174.5t-259 -59.5q-116 0 -202 22l45 180q61 -16 125 -17q31 -1 66 4q78 11 78 58q0 20 -19 36t-67 16h-118zM78 754h820l-23 -152h-820zM331 60h100l24 155z" />
    <glyph glyph-name="perthousand" unicode="&#x30;&#x2f;&#x30;&#x30;" horiz-adv-x="1987" 
d="M885 272l24 157q10 67 51.5 133.5t126 108t181.5 41.5q123 0 198 -66q95 66 218 66q97 0 163.5 -37.5t96 -99.5t16.5 -146l-23 -157q-21 -134 -124.5 -208.5t-236.5 -74.5q-126 0 -198 66q-94 -66 -218 -66q-97 0 -163 37.5t-95.5 99.5t-16.5 146zM155 924l24 157
q10 67 51.5 133.5t126 108t181.5 41.5q98 0 164 -37.5t95.5 -99.5t16.5 -146l-23 -157q-13 -84 -60.5 -146t-125 -99.5t-175.5 -37.5q-97 0 -163 37.5t-95.5 99.5t-16.5 146zM1241 1354h178l-962 -1354h-179zM1127 417l-20 -133q-7 -49 16 -77.5t66 -28.5t74.5 28.5
t39.5 77.5l19 133q7 49 -16 77.5t-66 28.5t-74.5 -28.5t-38.5 -77.5zM1543 422l-21 -144q-5 -46 17.5 -73t64.5 -27q44 0 75.5 28.5t38.5 77.5l20 133q7 49 -16 77.5t-66 28.5t-74 -27.5t-39 -73.5zM397 1069l-20 -133q-7 -49 16 -77.5t66 -28.5t74.5 28.5t39.5 77.5l19 133
q7 49 -15.5 77.5t-66.5 28.5q-43 0 -74.5 -28.5t-38.5 -77.5z" />
    <glyph glyph-name="emdash_guilsinglright.liga" unicode="&#x2d;&#x2d;&#x3e;" horiz-adv-x="2119" 
d="M126 374l37 249l1421 -4l-323 375l200 174l552 -670l-753 -671l-147 174l436 376z" />
    <glyph glyph-name="endash_guilsinglright.liga" unicode="&#x2d;&#x3e;" horiz-adv-x="1680" 
d="M126 374l37 249l982 -4l-322 375l200 174l551 -670l-752 -671l-147 174l435 375z" />
    <glyph glyph-name="guilsinglleft_hyphen_hyphen.liga" unicode="&#x3c;&#x2d;&#x2d;" horiz-adv-x="2118" 
d="M897 1168l147 -174l-435 -376l1422 4l-37 -249l-1421 3l323 -375l-200 -174l-551 671z" />
    <glyph glyph-name="guilsinglleft_endash.liga" unicode="&#x3c;&#x2d;" horiz-adv-x="1680" 
d="M897 1168l147 -174l-435 -375l984 3l-37 -249l-983 2l323 -374l-200 -174l-551 671z" />
    <glyph glyph-name=".notdef" horiz-adv-x="1373" 
d="M550 1015l-109 -96l198 -240l-272 -245l79 -96l273 241l199 -241l107 96l-199 245l270 240l-79 96l-269 -241zM91 0l202 1354h1081l-202 -1354h-1081z" />
    <glyph glyph-name=".null" horiz-adv-x="0" 
 />
    <glyph glyph-name="nonmarkingreturn" horiz-adv-x="682" 
 />
    <glyph glyph-name="space" unicode=" " horiz-adv-x="433" 
 />
    <glyph glyph-name="exclam" unicode="!" horiz-adv-x="472" 
d="M547 1354l-185 -947h-242l99 947h328zM41 102q0 86 47 131.5t134 45.5q138 0 138 -122q0 -86 -47 -131.5t-135 -45.5q-66 0 -101.5 31t-35.5 91z" />
    <glyph glyph-name="quotedbl" unicode="&#x22;" horiz-adv-x="769" 
d="M596 1392h247l-96 -540h-215zM232 1392h247l-97 -540h-215z" />
    <glyph glyph-name="numbersign" unicode="#" horiz-adv-x="1470" 
d="M1077 1354h237l-94 -330h202l-63 -221h-202l-71 -258h200l-62 -219h-202l-90 -326h-240l92 326h-220l-91 -326h-238l92 326h-208l62 219h208l71 258h-203l62 221h205l92 330h239l-93 -330h221zM699 803l-71 -258h218l74 258h-221z" />
    <glyph glyph-name="dollar" unicode="$" horiz-adv-x="1046" 
d="M576 1542h262l-57 -281q120 -9 224 -40l-67 -229q-139 37 -273 37q-88 0 -140 -31.5t-52 -93.5q0 -21 8.5 -37.5t27 -28.5t41.5 -21t48 -16.5t61 -18t48 -13.5q117 -33 173 -100.5t56 -178.5q0 -166 -89 -268t-273 -127l-27 -283h-262l58 281q-148 13 -259 52l75 228
q50 -17 134 -32.5t153 -15.5q204 0 204 122q0 22 -11.5 42t-46 40t-206.5 69q-191 56 -191 260q0 155 95 262t259 136z" />
    <glyph glyph-name="ampersand" unicode="&#x26;" horiz-adv-x="1268" 
d="M41 326q0 126 72 228t230 190q-43 77 -63 132.5t-20 115.5q0 116 60.5 199.5t176 133t282.5 49.5q170 0 352 -58l-71 -234q-53 16 -136 30.5t-154 14.5q-119 0 -178 -34t-59 -112q0 -28 11 -63.5t54 -102.5l298 -474q36 43 36 118q0 66 -37 145t-156 246l16 106h556
l-33 -221h-203q90 -119 90 -273q0 -90 -38.5 -172t-105.5 -139l131 -200l-211 -146l-142 217q-109 -41 -259 -41q-171 0 -281 45.5t-164 120.5t-54 179zM561 209q69 0 117 16l-224 353q-60 -40 -92.5 -87t-32.5 -115q0 -77 60.5 -122t171.5 -45z" />
    <glyph glyph-name="quotesingle" unicode="'" horiz-adv-x="387" 
d="M223 1392h247l-96 -540h-215z" />
    <glyph glyph-name="parenleft" unicode="(" horiz-adv-x="690" 
d="M425 520q0 -185 53 -377.5t154 -364.5l-211 -122q-80 96 -149.5 241t-105 302t-35.5 312q0 322 154 627.5t442 560.5l175 -122q-139 -156 -212 -265t-133.5 -233t-96 -269.5t-35.5 -289.5z" />
    <glyph glyph-name="parenright" unicode=")" horiz-adv-x="690" 
d="M357 833q0 186 -53 379.5t-154 362.5l211 122q80 -96 149.5 -240.5t105 -301.5t35.5 -312q0 -322 -154 -628t-442 -561l-174 122q128 145 202.5 252t138.5 238.5t99.5 277t35.5 289.5z" />
    <glyph glyph-name="asterisk" unicode="*" horiz-adv-x="770" 
d="M159 1132l93 199l177 -84l16 209h204l-45 -209l201 84l34 -199l-212 -56l108 -166l-178 -114l-83 170l-133 -170l-144 114l157 166z" />
    <glyph glyph-name="plus" unicode="+" horiz-adv-x="1079" 
d="M512 1111h278l-47 -312h275l-37 -244h-275l-46 -312h-278l46 312h-275l36 244h276z" />
    <glyph glyph-name="comma" unicode="," horiz-adv-x="432" 
d="M71 250h257l-15 -102q-35 -237 -200 -419h-185q35 63 70 164t49 198z" />
    <glyph glyph-name="hyphen" unicode="-" horiz-adv-x="719" 
d="M79 385l34 226h566l-34 -226h-566z" />
    <glyph glyph-name="period" unicode="." horiz-adv-x="450" 
d="M30 102q0 86 47.5 131.5t134.5 45.5q137 0 137 -122q0 -86 -47 -131.5t-134 -45.5q-138 0 -138 122z" />
    <glyph glyph-name="slash" unicode="/" horiz-adv-x="1021" 
d="M940 1679h307l-1074 -2004h-307z" />
    <glyph glyph-name="zero" unicode="0" horiz-adv-x="1146" 
d="M94 440l71 474q34 221 184.5 340.5t373.5 119.5q221 0 337.5 -117.5t83.5 -342.5l-71 -474q-12 -82 -47.5 -164.5t-103 -147.5t-169 -106.5t-238.5 -41.5q-136 0 -241 48.5t-154 153.5t-26 258zM467 920l-73 -486q-15 -105 24.5 -163.5t131.5 -58.5q91 0 148.5 59
t73.5 163l73 486q15 104 -25 162.5t-132 58.5t-149 -58.5t-72 -162.5z" />
    <glyph glyph-name="one" unicode="1" horiz-adv-x="717" 
d="M152 984l11 247l360 123h217l-202 -1354h-296l159 1061z" />
    <glyph glyph-name="two" unicode="2" horiz-adv-x="939" 
d="M864 254l-39 -254h-808l35 234q266 255 378 373t170.5 212t58.5 170q0 129 -170 129q-52 0 -128 -13.5t-153 -43.5l12 245q63 29 157 48.5t179 19.5q128 0 215.5 -40.5t132.5 -110t45 -168.5q0 -50 -12 -114t-46.5 -133.5t-111 -169t-386.5 -384.5h471z" />
    <glyph glyph-name="three" unicode="3" horiz-adv-x="909" 
d="M210 569l34 226h184q49 0 100.5 21.5t81 67t29.5 100.5q0 69 -48 104.5t-139 35.5q-131 0 -261 -37l15 233q151 54 331 54q183 0 286.5 -83.5t103.5 -238.5q0 -243 -232 -363q75 -37 117 -108t42 -166q0 -212 -149.5 -323.5t-405.5 -111.5q-157 0 -300 43l55 239
q121 -32 266 -32q64 0 125.5 20.5t96 67t34.5 106.5q0 70 -53 107.5t-134 37.5h-179z" />
    <glyph glyph-name="four" unicode="4" horiz-adv-x="1100" 
d="M793 1354h250l-127 -851h140l-35 -228h-140l-41 -275h-267l41 275h-544l33 218zM389 503h265l64 422z" />
    <glyph glyph-name="five" unicode="5" horiz-adv-x="955" 
d="M911 468q0 -242 -145 -365t-421 -123q-182 0 -333 39l65 249q47 -10 127.5 -20t150.5 -10q265 0 265 200q0 72 -58.5 115t-186.5 44q-57 0 -108.5 -1.5t-93.5 -3.5t-43 -2l143 764h707l-39 -254h-474l-53 -280q59 0 129 -5q126 -10 206.5 -55.5t121 -118t40.5 -173.5z
" />
    <glyph glyph-name="six" unicode="6" horiz-adv-x="1061" 
d="M90 412l57 381l26 135q49 216 204.5 331t401.5 115q153 0 283 -42l-63 -248q-132 37 -252 37q-274 0 -313 -261l-13 -87q125 48 226 48q121 0 200.5 -43t120 -119t40.5 -186q0 -229 -143 -361t-383 -132q-207 0 -315 110t-77 322zM568 596q-94 0 -180 -39l-24 -154
q-13 -84 28.5 -132.5t125.5 -48.5q95 0 151.5 57t56.5 157q0 160 -158 160z" />
    <glyph glyph-name="seven" unicode="7" horiz-adv-x="880" 
d="M136 1103l38 251h800l-35 -240l-574 -1114h-299l590 1103h-520z" />
    <glyph glyph-name="eight" unicode="8" horiz-adv-x="1039" 
d="M983 380q0 -63 -24 -131.5t-85 -127.5t-164 -100t-249 -41q-193 0 -301.5 80.5t-108.5 213.5q0 122 64 222t230 188q-168 109 -168 275q0 85 34 161.5t98.5 133.5t157 88.5t202.5 31.5q182 0 282.5 -88t100.5 -231q0 -105 -56 -193.5t-208 -173.5q195 -120 195 -308z
M494 202q87 0 146.5 50.5t59.5 133.5q0 107 -150 199q-97 -44 -154.5 -106.5t-57.5 -142.5q0 -62 43 -98t113 -36zM782 1015q0 63 -40.5 96.5t-106.5 33.5q-82 0 -136.5 -46.5t-54.5 -128.5q0 -95 140 -183q92 43 145 92t53 136z" />
    <glyph glyph-name="nine" unicode="9" horiz-adv-x="1061" 
d="M1062 942l-58 -394l-26 -137q-46 -208 -195.5 -319.5t-387.5 -111.5q-89 0 -181 15t-136 33l64 248q90 -25 142.5 -33t110.5 -8q131 0 212.5 49t107.5 199l16 91q-122 -46 -226 -46q-122 0 -201 42.5t-119.5 118.5t-40.5 187q0 231 143 364.5t383 133.5
q126 0 223.5 -44.5t144 -142.5t24.5 -245zM584 751q90 0 180 40l24 160q13 85 -28 133t-126 48q-95 0 -151.5 -58.5t-56.5 -160.5q0 -162 158 -162z" />
    <glyph glyph-name="colon" unicode=":" horiz-adv-x="450" 
d="M30 102q0 86 47.5 131.5t134.5 45.5q137 0 137 -122q0 -86 -47 -131.5t-134 -45.5q-138 0 -138 122zM140 840q0 85 47.5 130.5t134.5 45.5q137 0 137 -122q0 -86 -47 -131.5t-134 -45.5q-138 0 -138 123z" />
    <glyph glyph-name="semicolon" unicode=";" horiz-adv-x="429" 
d="M140 840q0 85 47.5 130.5t134.5 45.5q137 0 137 -122q0 -86 -47 -131.5t-134 -45.5q-138 0 -138 123zM85 250h258l-15 -102q-36 -238 -201 -419h-185q35 63 70 164t50 198z" />
    <glyph glyph-name="less" unicode="&#x3c;" horiz-adv-x="982" 
d="M791 1185l162 -170l-418 -338l317 -338l-213 -170l-468 508z" />
    <glyph glyph-name="equal" unicode="=" horiz-adv-x="991" 
d="M216 981h741l-35 -236h-740zM161 609h741l-35 -236h-741z" />
    <glyph glyph-name="greater" unicode="&#x3e;" horiz-adv-x="982" 
d="M283 169l-163 170l419 338l-317 338l214 170l467 -508z" />
    <glyph glyph-name="question" unicode="?" horiz-adv-x="765" 
d="M117 102q0 86 47 131.5t134 45.5q138 0 138 -122q0 -86 -47.5 -131.5t-134.5 -45.5q-66 0 -101.5 31t-35.5 91zM426 402h-222q-4 46 7 100q22 105 136.5 217t139 147.5t35.5 67t11 66.5q0 116 -154 116q-94 0 -232 -48l-4 247q163 59 334 59q116 0 196 -37t121.5 -101
t41.5 -154q0 -68 -21.5 -138t-72.5 -138.5t-153.5 -164.5t-127.5 -141q-23 -41 -35 -98z" />
    <glyph glyph-name="at" unicode="@" horiz-adv-x="2071" 
d="M1388 -20q-79 0 -140.5 41.5t-84.5 125.5q-79 -63 -176 -105t-201 -42q-60 0 -107.5 27t-75.5 78t-31.5 123.5t21.5 159.5l45 157q58 202 201 316.5t340 114.5q223 0 364 -126l-151 -539q-12 -50 3 -84t57 -34q76 0 147.5 106t103.5 288q35 166 2.5 299.5t-149.5 210.5
t-315 77q-203 0 -382.5 -93t-304 -272.5t-165.5 -408.5q-53 -281 41 -437t315 -156q137 0 307 46l3 -191q-185 -66 -385 -66q-189 0 -329.5 91.5t-198.5 275t-12 426.5q53 278 213 508t415.5 363.5t555.5 133.5q232 0 393 -100.5t224 -284t22 -399.5q-19 -103 -61 -212
t-117.5 -207.5t-176 -154.5t-210.5 -56zM945 234q82 0 178 73l118 418q-62 22 -123 22q-80 0 -136.5 -52t-79.5 -137l-41 -140q-23 -85 -3.5 -134.5t87.5 -49.5z" />
    <glyph glyph-name="A" unicode="A" horiz-adv-x="1213" 
d="M1138 0h-320l-28 288h-391l-113 -288h-321l575 1354h429zM719 1126l-237 -603h296z" />
    <glyph glyph-name="B" unicode="B" horiz-adv-x="1124" 
d="M554 0h-485l202 1354h481q188 0 282 -82.5t94 -231.5q0 -123 -58.5 -209.5t-165.5 -134.5q81 -35 129.5 -107t48.5 -163q0 -199 -141.5 -312.5t-386.5 -113.5zM792 442q0 65 -42 106t-139 41h-170l-53 -356h174q110 0 170 52.5t60 156.5zM654 796q89 0 136 53.5t47 141.5
q0 62 -35.5 96t-106.5 34h-174l-49 -325h182z" />
    <glyph glyph-name="C" unicode="C" horiz-adv-x="939" 
d="M858 271l-9 -239q-144 -52 -333 -52q-126 0 -231.5 50.5t-158.5 154.5t-32 248l70 475q13 86 52 168t110.5 147.5t175.5 108t234 42.5q72 0 153.5 -14t137.5 -38l-71 -240q-32 12 -97 26t-134 14q-99 0 -172 -64.5t-90 -173.5l-64 -427q-16 -106 40 -165.5t166 -59.5
q118 0 253 39z" />
    <glyph glyph-name="D" unicode="D" horiz-adv-x="1185" 
d="M69 0l202 1354h475q225 0 346 -120t90 -324l-71 -474q-20 -136 -89.5 -231t-188 -150t-289.5 -55h-475zM810 440l63 418q12 79 -3.5 137t-57.5 90.5t-113 32.5h-162l-132 -882h162q103 0 166 53.5t77 150.5z" />
    <glyph glyph-name="E" unicode="E" horiz-adv-x="1011" 
d="M69 0l202 1354h817l-37 -253h-516l-45 -302h496l-35 -237h-497l-46 -309h536l-38 -253h-837z" />
    <glyph glyph-name="F" unicode="F" horiz-adv-x="987" 
d="M69 0l202 1354h818l-37 -249h-516l-45 -302h496l-37 -245h-497l-83 -558h-301z" />
    <glyph glyph-name="G" unicode="G" horiz-adv-x="1084" 
d="M1051 679l-93 -623q-80 -33 -197 -54.5t-233 -21.5q-163 0 -271 65t-144 170.5t-18 231.5l67 443q19 131 91.5 240t211 176.5t318.5 67.5q79 0 172 -15t166 -47l-80 -241q-48 19 -120.5 34t-143.5 15q-131 0 -214.5 -65.5t-101.5 -181.5l-62 -417q-17 -112 35.5 -170
t163.5 -58q67 0 126 17l64 434h263z" />
    <glyph glyph-name="H" unicode="H" horiz-adv-x="1281" 
d="M1101 0h-300l82 547h-432l-82 -547h-300l202 1354h301l-81 -545h431l82 545h300z" />
    <glyph glyph-name="I" unicode="I" horiz-adv-x="549" 
d="M572 1354l-203 -1354h-300l202 1354h301z" />
    <glyph glyph-name="J" unicode="J" horiz-adv-x="550" 
d="M271 1354h302l-202 -1347q-23 -154 -119.5 -265t-312.5 -210l-99 187q127 79 173.5 150t59.5 158l14 92z" />
    <glyph glyph-name="K" unicode="K" horiz-adv-x="1136" 
d="M923 1354h325l-402 -685l215 -669h-326l-160 556h-123l-83 -556h-300l202 1354h301l-80 -541h133z" />
    <glyph glyph-name="L" unicode="L" horiz-adv-x="942" 
d="M572 1354l-164 -1096h487l-39 -258h-787l202 1354h301z" />
    <glyph glyph-name="M" unicode="M" horiz-adv-x="1519" 
d="M1073 0l135 899l-378 -720h-190l-161 717l-135 -896h-275l202 1354h365l155 -803l395 803h364l-202 -1354h-275z" />
    <glyph glyph-name="N" unicode="N" horiz-adv-x="1277" 
d="M800 0l-311 856l-127 -856h-293l202 1354h299l310 -856l128 856h293l-203 -1354h-298z" />
    <glyph glyph-name="O" unicode="O" horiz-adv-x="1183" 
d="M94 436l72 482q12 81 48.5 162.5t106 146t174.5 106t246 41.5q233 0 353 -118.5t88 -337.5l-72 -482q-12 -81 -48.5 -162.5t-106 -146.5t-175 -106t-247.5 -41t-251 48.5t-160 152.5t-28 255zM469 925l-65 -434q-21 -142 23.5 -209t141.5 -67q96 0 160.5 67.5t85.5 208.5
l56 372q21 141 -23.5 208t-141.5 67q-98 0 -160 -56.5t-77 -156.5z" />
    <glyph glyph-name="P" unicode="P" horiz-adv-x="1128" 
d="M603 405h-173l-61 -405h-300l202 1354h473q76 0 154.5 -18t145.5 -68t97.5 -135t13.5 -199l-17 -115q-19 -126 -85 -216t-179 -144t-271 -54zM701 1118h-164l-72 -476h165q181 0 214 211l9 68q15 93 -23.5 145t-128.5 52z" />
    <glyph glyph-name="Q" unicode="Q" horiz-adv-x="1183" 
d="M94 436l72 482q12 81 48.5 162.5t106 146t174.5 106t246 41.5q233 0 353 -118.5t88 -337.5l-72 -482q-26 -175 -132 -286.5t-266 -149.5l113 -280l-263 -57l-79 320q-206 10 -313 127.5t-76 325.5zM469 925l-65 -434q-21 -142 23.5 -209t141.5 -67q96 0 160.5 67.5
t85.5 208.5l56 372q21 141 -23.5 208t-141.5 67q-98 0 -160 -56.5t-77 -156.5z" />
    <glyph glyph-name="R" unicode="R" horiz-adv-x="1152" 
d="M271 1354h479q76 0 154.5 -18t146 -68t97.5 -135t13 -199l-13 -87q-17 -115 -83.5 -211.5t-188.5 -149.5l169 -486h-324l-133 434h-153l-66 -434h-300zM707 1118h-170l-69 -458h170q84 0 140.5 48t69.5 136l14 93q13 86 -29 133.5t-126 47.5z" />
    <glyph glyph-name="S" unicode="S" horiz-adv-x="979" 
d="M938 457q0 -138 -51.5 -246.5t-171.5 -169.5t-308 -61q-94 0 -204.5 15.5t-197.5 48.5l76 247q167 -54 313 -54q120 0 182 36t62 130q0 50 -33 81t-138.5 69t-152.5 58q-166 68 -166 263q0 76 23.5 160t87.5 164t169 128t238 48q196 0 355 -51l-72 -251q-152 46 -282 46
q-104 0 -164.5 -44.5t-60.5 -127.5q0 -34 20.5 -67.5t97.5 -60.5l137 -47q123 -42 182 -116t59 -198z" />
    <glyph glyph-name="T" unicode="T" horiz-adv-x="1023" 
d="M306 0l165 1105h-336l37 249h974l-38 -249h-335l-165 -1105h-302z" />
    <glyph glyph-name="U" unicode="U" horiz-adv-x="1220" 
d="M951 1354h302l-140 -936q-31 -205 -180.5 -321.5t-380.5 -116.5q-113 0 -201.5 30t-144.5 86.5t-77.5 138.5t-6.5 183l140 936h300l-140 -938q-13 -84 32.5 -137t134.5 -53q88 0 149 52.5t74 137.5z" />
    <glyph glyph-name="V" unicode="V" horiz-adv-x="1170" 
d="M974 1354h323l-541 -1354h-451l-138 1354h323l82 -1074z" />
    <glyph glyph-name="W" unicode="W" horiz-adv-x="1745" 
d="M1546 1354h321l-490 -1354h-389l-42 865l-299 -865h-389l-85 1354h319l40 -1045l341 1025h287l38 -1025z" />
    <glyph glyph-name="X" unicode="X" horiz-adv-x="1172" 
d="M519 1354l144 -481l284 481h331l-420 -661l232 -693h-342l-140 487l-293 -487h-343l436 675l-218 679h329z" />
    <glyph glyph-name="Y" unicode="Y" horiz-adv-x="1119" 
d="M932 1354h308l-514 -871l-72 -483h-300l71 483l-252 871h308l139 -579z" />
    <glyph glyph-name="Z" unicode="Z" horiz-adv-x="1025" 
d="M193 1104l37 250h854l-33 -222l-666 -882h562l-37 -250h-909l33 222l666 882h-507z" />
    <glyph glyph-name="bracketleft" unicode="[" horiz-adv-x="649" 
d="M535 -93l-35 -232h-470l299 2004h471l-35 -232h-196l-230 -1540h196z" />
    <glyph glyph-name="backslash" unicode="\" horiz-adv-x="1021" 
d="M166 1679h307l475 -2004h-307z" />
    <glyph glyph-name="bracketright" unicode="]" horiz-adv-x="649" 
d="M205 1447l35 231h470l-299 -2004h-471l35 232h197l230 1541h-197z" />
    <glyph glyph-name="asciicircum" unicode="^" horiz-adv-x="960" 
d="M393 809h-259l368 635h276l178 -635h-259l-88 428z" />
    <glyph glyph-name="underscore" unicode="_" horiz-adv-x="1037" 
d="M-19 -268l32 215h884l-32 -215h-884z" />
    <glyph glyph-name="grave" unicode="`" horiz-adv-x="623" 
d="M669 1134l-189 -53l-256 327l284 92z" />
    <glyph glyph-name="a" unicode="a" horiz-adv-x="1084" 
d="M79 362l34 227q19 127 80.5 219.5t170.5 150t268 57.5q126 0 235.5 -18.5t183.5 -47.5l-142 -950h-248v96q-167 -116 -310 -116q-104 0 -170.5 53t-92.5 136.5t-9 192.5zM488 220q87 0 174 66l71 470q-70 22 -138 22q-72 0 -124.5 -44t-66.5 -139l-30 -196
q-26 -179 114 -179z" />
    <glyph glyph-name="b" unicode="b" horiz-adv-x="1089" 
d="M1045 635l-34 -229q-15 -101 -58.5 -181t-112 -134.5t-160.5 -82.5t-201 -28q-236 0 -407 74l209 1390h283l-79 -529q145 101 287 101q67 0 123.5 -25.5t94.5 -74.5t53 -121t2 -160zM634 774q-83 0 -174 -67l-70 -470q66 -22 134 -22q85 0 134 50t62 134l30 197
q26 178 -116 178z" />
    <glyph glyph-name="c" unicode="c" horiz-adv-x="826" 
d="M396 570l-23 -147q-14 -98 30.5 -152t137.5 -54q94 0 193 24l-15 -229q-121 -32 -261 -32q-93 0 -167.5 24.5t-124 73t-71.5 121.5t-13 166l10 87l14 92l16 87q23 114 84.5 197.5t162 135.5t238.5 52q57 0 129 -9.5t125 -25.5l-65 -231q-2 0 -18.5 4.5t-34.5 8.5t-42.5 8
t-46.5 5.5t-36 1.5q-90 0 -149 -56t-73 -152z" />
    <glyph glyph-name="d" unicode="d" horiz-adv-x="1084" 
d="M79 362l36 240q30 201 153 307.5t307 106.5q94 0 198 -32l69 460h283l-216 -1444h-248v96q-74 -53 -148.5 -81.5t-162.5 -28.5q-54 0 -108.5 19t-95 64.5t-61.5 119.5t-6 173zM488 222q86 0 174 65l70 469q-69 30 -138 30q-162 0 -193 -209l-24 -161q-29 -194 111 -194z
" />
    <glyph glyph-name="e" unicode="e" horiz-adv-x="984" 
d="M78 397l30 193q11 74 43 149.5t92.5 136.5t152.5 100.5t216 39.5q167 0 264 -78.5t97 -208.5q0 -167 -105.5 -247.5t-343.5 -80.5q-91 0 -162 12l-4 -26q-26 -175 193 -175q133 0 295 35l-9 -218q-173 -49 -365 -49q-74 0 -150 18t-136 64.5t-93 128.5t-15 206zM393 620
l-7 -49q62 -12 118 -12q94 0 141.5 29.5t47.5 105.5q0 47 -31 75t-91 28q-152 0 -178 -177z" />
    <glyph glyph-name="f" unicode="f" horiz-adv-x="646" 
d="M78 773l33 223h124l17 115q25 168 125 260.5t266 92.5q107 0 194 -24l-60 -222q-63 12 -106 12q-58 0 -91.5 -33.5t-45.5 -110.5l-14 -90h210l-32 -223h-207l-182 -1221h-290l182 1221h-123z" />
    <glyph glyph-name="g" unicode="g" horiz-adv-x="1084" 
d="M628 -14l13 90q-149 -96 -285 -96q-103 0 -171 52t-95.5 135.5t-10.5 194.5l34 227q19 127 80.5 219.5t170.5 150t268 57.5q126 0 235.5 -18.5t183.5 -47.5l-140 -934q-36 -241 -179 -362.5t-407 -121.5q-75 0 -161 12t-150 36l61 230q123 -41 251 -41q143 0 214 53
t88 164zM488 220q87 0 174 66l71 470q-70 22 -138 22q-72 0 -124.5 -44t-66.5 -139l-30 -196q-26 -179 114 -179z" />
    <glyph glyph-name="h" unicode="h" horiz-adv-x="1106" 
d="M281 1444h283l-81 -542q176 114 329 114q132 0 193.5 -74.5t40.5 -214.5l-109 -727h-290l96 637q17 120 -92 120q-40 0 -92 -19t-102 -53l-102 -685h-290z" />
    <glyph glyph-name="i" unicode="i" horiz-adv-x="530" 
d="M214 996h290l-149 -996h-290zM243 1256q0 86 46.5 131t134.5 45q137 0 137 -121q0 -86 -47 -131.5t-135 -45.5q-136 0 -136 122z" />
    <glyph glyph-name="j" unicode="j" horiz-adv-x="530" 
d="M214 996h290l-160 -1072l-23 -120q-31 -142 -113 -207t-232 -65q-84 0 -158 20l49 229q40 -10 87 -10q77 0 93 112l10 64zM243 1256q0 86 46.5 131t134.5 45q137 0 137 -121q0 -86 -47 -131.5t-135 -45.5q-136 0 -136 122z" />
    <glyph glyph-name="k" unicode="k" horiz-adv-x="1053" 
d="M281 1444h290l-122 -817h98l232 369h321l-337 -491l119 -254q15 -32 47 -32q39 0 79 10l-27 -219q-74 -30 -172 -30q-75 0 -129.5 35t-104.5 174l-74 205h-87l-59 -394h-290z" />
    <glyph glyph-name="l" unicode="l" horiz-adv-x="606" 
d="M281 1444h290l-171 -1141q-12 -84 64 -84q33 0 86 10l-30 -219q-83 -30 -181 -30q-128 0 -185.5 56.5t-50.5 172.5q5 79 22 192z" />
    <glyph glyph-name="m" unicode="m" horiz-adv-x="1665" 
d="M214 996h249l-2 -107q159 111 297 121q56 6 106 -5q59 -9 100 -41.5t59 -81.5q86 59 178.5 96.5t174.5 37.5q130 0 190 -74.5t39 -214.5l-109 -727h-290l96 637q17 120 -87 120q-82 0 -187 -72l-102 -685h-290l95 637q17 120 -85 120q-38 0 -89 -19.5t-100 -53.5
l-102 -684h-290z" />
    <glyph glyph-name="n" unicode="n" horiz-adv-x="1106" 
d="M214 996h249l-2 -106q191 126 351 126q132 0 193.5 -74.5t40.5 -214.5l-109 -727h-290l96 637q17 120 -92 120q-40 0 -92 -19t-102 -53l-102 -685h-290z" />
    <glyph glyph-name="o" unicode="o" horiz-adv-x="1065" 
d="M84 399l30 197q11 74 43.5 149.5t95 135t156 97.5t219.5 38q100 0 179.5 -27t131 -80.5t72 -133t5.5 -179.5l-30 -197q-11 -74 -43.5 -149t-94.5 -134.5t-155.5 -97.5t-219.5 -38q-100 0 -179.5 27t-131.5 80t-72.5 132.5t-5.5 179.5zM405 608l-32 -221q-13 -83 22 -130
t112 -47t126 47t61 130l33 221q13 83 -21.5 130.5t-111.5 47.5t-127 -48t-62 -130z" />
    <glyph glyph-name="p" unicode="p" horiz-adv-x="1090" 
d="M1046 635l-35 -230q-11 -74 -42 -149t-88.5 -136t-141 -100.5t-190.5 -39.5q-84 0 -200 30l-68 -458h-283l216 1444h249v-96q165 116 309 116q50 0 103.5 -17t96.5 -61t66.5 -119t7.5 -184zM636 774q-84 0 -176 -66l-69 -468q72 -30 138 -30q163 0 190 183l31 200
q13 85 -14.5 133t-99.5 48z" />
    <glyph glyph-name="q" unicode="q" horiz-adv-x="1084" 
d="M79 362l34 227q19 127 80.5 219.5t170.5 150t268 57.5q126 0 235.5 -18.5t183.5 -47.5l-209 -1398h-283l78 521q-148 -93 -281 -93q-103 0 -171 52t-95.5 135.5t-10.5 194.5zM488 220q87 0 174 66l71 470q-70 22 -138 22q-72 0 -124.5 -44t-66.5 -139l-30 -196
q-26 -179 114 -179z" />
    <glyph glyph-name="r" unicode="r" horiz-adv-x="720" 
d="M214 996h247l-4 -132q72 60 163 105.5t169 46.5l-41 -279q-69 -4 -153.5 -35.5t-146.5 -76.5l-93 -625h-290z" />
    <glyph glyph-name="s" unicode="s" horiz-adv-x="827" 
d="M771 345q0 -185 -111 -275t-319 -90q-77 0 -172 12.5t-157 38.5l65 206q42 -15 114.5 -29.5t137.5 -14.5q84 0 124 23t40 80q0 33 -28 57t-163 59q-100 28 -147.5 80t-47.5 155q0 168 114 268.5t311 100.5q156 0 297 -36l-58 -210q-129 33 -232 33q-78 0 -116.5 -25
t-38.5 -83q0 -29 26 -51.5t144 -55.5q116 -31 166.5 -86.5t50.5 -156.5z" />
    <glyph glyph-name="t" unicode="t" horiz-adv-x="684" 
d="M75 773l32 223h132l58 278h259l-40 -278h201l-34 -223h-195l-66 -448q-9 -54 8.5 -82.5t71.5 -28.5t116 13l-16 -221q-92 -26 -215 -26q-130 0 -197.5 57.5t-63.5 175.5q3 56 11 129t61 431h-123z" />
    <glyph glyph-name="u" unicode="u" horiz-adv-x="1092" 
d="M916 0h-248v106q-80 -55 -171.5 -90.5t-174.5 -35.5q-132 0 -192.5 74.5t-39.5 214.5l109 727h290l-96 -638q-17 -119 88 -119q40 0 91.5 19t100.5 53l102 685h290z" />
    <glyph glyph-name="v" unicode="v" horiz-adv-x="1002" 
d="M759 996h305q-59 -221 -178.5 -475.5t-301.5 -520.5h-349l-131 996h304l64 -725q167 334 287 725z" />
    <glyph glyph-name="w" unicode="w" horiz-adv-x="1496" 
d="M1282 996h300q-57 -221 -170.5 -475.5t-285.5 -520.5h-289l-71 527q-115 -281 -247 -527h-296l-119 996h296l49 -724q160 359 258 708h263l50 -708q156 344 262 724z" />
    <glyph glyph-name="x" unicode="x" horiz-adv-x="987" 
d="M439 996l95 -354l204 354h310l-311 -484l175 -512h-307l-110 377l-222 -377h-307l324 496l-162 500h311z" />
    <glyph glyph-name="y" unicode="y" horiz-adv-x="1032" 
d="M98 996h301l94 -838q181 397 285 838h308q-83 -317 -183.5 -578t-227.5 -460.5t-286.5 -312.5t-348.5 -113q-154 0 -250 42l61 230q31 -12 86 -22t112 -10q97 0 189.5 59t140.5 133h-144z" />
    <glyph glyph-name="z" unicode="z" horiz-adv-x="831" 
d="M133 779l32 217h699l-31 -201l-490 -582q87 0 210.5 -8t224.5 -28l-66 -227q-100 21 -242.5 35.5t-283.5 14.5h-183l30 197l486 582h-386z" />
    <glyph glyph-name="braceleft" unicode="{" horiz-adv-x="722" 
d="M633 1330l-52 -372q-17 -122 -65 -188t-143 -93q77 -22 113 -80.5t18 -187.5l-52 -372q-9 -60 14.5 -93t70.5 -33h96l-33 -236h-165q-135 0 -207.5 82.5t-54.5 210.5l64 453q7 53 -15.5 96.5t-78.5 43.5h-55l33 233h55q54 0 89 39.5t42 88.5l64 452q19 135 114 220
t231 85h165l-33 -236h-96q-46 0 -79 -31t-40 -82z" />
    <glyph glyph-name="bar" unicode="|" horiz-adv-x="549" 
d="M329 1679h283l-300 -2004h-282z" />
    <glyph glyph-name="braceright" unicode="}" horiz-adv-x="722" 
d="M200 24l52 372q17 122 65 188t143 93q-77 22 -113 80.5t-18 187.5l52 372q9 60 -14.5 93t-70.5 33h-96l33 236h165q135 0 207.5 -82.5t54.5 -210.5l-64 -453q-7 -53 15.5 -96.5t78.5 -43.5h55l-33 -233h-55q-54 0 -89 -39.5t-42 -88.5l-64 -452q-19 -135 -114 -220
t-231 -85h-165l33 236h96q46 0 79 31t40 82z" />
    <glyph glyph-name="asciitilde" unicode="~" horiz-adv-x="979" 
d="M393 671q8 0 29.5 -1.5t45 -9t92.5 -35.5t109 -28q78 0 170 77l89 -135q-51 -71 -130.5 -123.5t-166.5 -52.5q-41 0 -71 9t-98 37t-108 28q-81 0 -170 -77l-89 127q50 75 129.5 129.5t168.5 54.5z" />
    <glyph glyph-name="exclamdown" unicode="&#xa1;" horiz-adv-x="472" 
d="M-37 -358l184 947h243l-99 -947h-328zM151 840q0 86 47 131t134 45q138 0 138 -122q0 -86 -47.5 -131.5t-135.5 -45.5q-136 0 -136 123z" />
    <glyph glyph-name="cent" unicode="&#xa2;" horiz-adv-x="961" 
d="M593 1482h263l-56 -272q89 -10 150 -34l-56 -224q-99 30 -182 30q-81 0 -140.5 -45.5t-71.5 -121.5l-42 -283q-12 -74 35.5 -116t137.5 -42q84 0 197 26l-16 -221q-80 -27 -183 -36l-26 -271h-262l59 285q-127 32 -191.5 126t-44.5 233l47 316q14 92 58.5 165.5
t119 127.5t178.5 76z" />
    <glyph glyph-name="sterling" unicode="&#xa3;" horiz-adv-x="1156" 
d="M211 758h133l28 189q20 131 85 224t174 148t260 55q123 0 269 -33l-61 -249q-120 24 -213 24t-149.5 -51t-71.5 -148l-24 -159h319l-25 -164h-318l-31 -207q-16 -102 -84 -161h505l-37 -246h-894l36 246q76 0 120 39t58 128l8 55l22 146h-134z" />
    <glyph glyph-name="currency" unicode="&#xa4;" horiz-adv-x="1312" 
d="M211 95l-130 144l219 223q-38 90 -21 196l6 40q14 101 74 187l-153 216l174 145l181 -197q99 47 205 47t189 -46l240 196l130 -145l-215 -215q34 -85 18 -188l-6 -40q-16 -113 -81 -197l152 -222l-173 -144l-188 208q-89 -43 -191 -43q-103 0 -180 43zM539 691l-4 -25
q-12 -81 25 -130.5t115 -49.5t130 49.5t63 130.5l4 25q12 80 -24.5 129.5t-114.5 49.5t-130 -49.5t-64 -129.5z" />
    <glyph glyph-name="yen" unicode="&#xa5;" horiz-adv-x="1268" 
d="M709 877l293 477h305l-311 -476h163l-23 -153h-898l23 153h163l-169 476h306zM255 627h835l-23 -153h-266l-70 -474h-304l72 474h-267z" />
    <glyph glyph-name="brokenbar" unicode="&#xa6;" horiz-adv-x="549" 
d="M329 1679h283l-121 -804h-281zM150 479h282l-120 -803h-282z" />
    <glyph glyph-name="section" unicode="&#xa7;" horiz-adv-x="1282" 
d="M1254 1291q-129 48 -259 62q-77 -69 -77 -174q0 -84 41 -192l135 -340q70 -181 70 -329q0 -144 -70.5 -270.5t-230.5 -209t-384 -82.5q-105 0 -226 23.5t-211 62.5l78 223q115 -47 259 -63q78 72 78 174q0 82 -42 192l-134 340q-72 186 -72 329q0 160 81.5 288.5
t240.5 201t363 72.5q105 0 226 -23t212 -62zM732 227q0 -131 -102 -222q265 42 265 294q0 101 -65 266l-139 350q-49 120 -49 213q0 130 100 222q-263 -42 -263 -293q0 -105 64 -267l140 -350q49 -124 49 -213z" />
    <glyph glyph-name="dieresis" unicode="&#xa8;" horiz-adv-x="876" 
d="M202 1255q0 86 47 131.5t135 45.5q138 0 138 -122q0 -86 -47.5 -131.5t-134.5 -45.5q-138 0 -138 122zM627 1255q0 86 47.5 131.5t135.5 45.5q66 0 101.5 -31t35.5 -91q0 -86 -47 -131.5t-135 -45.5q-138 0 -138 122z" />
    <glyph glyph-name="copyright" unicode="&#xa9;" horiz-adv-x="1487" 
d="M105 575q0 208 98 391.5t282.5 295.5t406.5 112q162 0 295.5 -71t210 -209.5t76.5 -316.5q0 -208 -98.5 -391t-284 -294.5t-408.5 -111.5q-161 0 -293 70.5t-208.5 209t-76.5 315.5zM265 598q0 -97 31.5 -182t90 -146.5t141 -95.5t180.5 -34q155 0 294.5 75t225.5 219
t86 320q0 98 -31.5 183.5t-90.5 147t-142 95.5t-181 34q-155 0 -294 -75.5t-224.5 -219.5t-85.5 -321zM686 702l-8 -53q-11 -77 21.5 -117.5t100.5 -40.5t133 17l-14 -190q-83 -24 -183 -24q-109 0 -175 40.5t-94 109.5t-18 167l9 66l11 66q30 152 138 234.5t256 82.5
q96 0 161 -26l-52 -191q-63 19 -118 19q-69 0 -113 -42t-55 -118z" />
    <glyph glyph-name="ordfeminine" unicode="&#xaa;" horiz-adv-x="741" 
d="M110 812q0 62 27 114.5t94 90t169 37.5h116l5 33q6 41 -13.5 65.5t-81.5 24.5q-93 0 -212 -34l-2 177q46 16 121.5 30.5t150.5 14.5q158 0 217 -61.5t36 -209.5l-32 -218q-8 -48 32 -48l48 5l-23 -170q-54 -22 -121 -22q-46 0 -82 19.5t-55 55.5q-101 -75 -206 -75
q-86 0 -137 43t-51 128zM384 800q45 0 99 31l14 93h-91q-38 0 -59.5 -19t-21.5 -55q0 -18 12.5 -34t46.5 -16z" />
    <glyph glyph-name="guillemotleft" unicode="&#xab;" horiz-adv-x="1011" 
d="M384 498l122 -378l-232 -90l-174 468l314 468l205 -90zM813 498l107 -378l-230 -82l-157 460l295 460l205 -82z" />
    <glyph glyph-name="logicalnot" unicode="&#xac;" horiz-adv-x="1096" 
d="M692 306l37 249h-576l36 244h846l-73 -493h-270z" />
    <glyph glyph-name="uni00AD" unicode="&#xad;" horiz-adv-x="719" 
d="M79 385l34 226h566l-34 -226h-566z" />
    <glyph glyph-name="registered" unicode="&#xae;" horiz-adv-x="1487" 
d="M105 575q0 208 98 391.5t282.5 295.5t406.5 112q162 0 295.5 -71t210 -209.5t76.5 -316.5q0 -208 -98.5 -391t-284 -294.5t-408.5 -111.5q-161 0 -293 70.5t-208.5 209t-76.5 315.5zM265 598q0 -97 31.5 -182t90 -146.5t141 -95.5t180.5 -34q155 0 294.5 75t225.5 219
t86 320q0 98 -31.5 183.5t-90.5 147t-142 95.5t-181 34q-155 0 -294 -75.5t-224.5 -219.5t-85.5 -321zM1103 769q-11 -72 -54 -125t-105 -80l104 -257h-217l-73 221h-75l-33 -221h-199l111 739h303q125 0 193 -62t50 -181zM817 885h-81l-30 -204h81q47 0 77 22t36 62l4 25
q7 44 -15 69.5t-72 25.5z" />
    <glyph glyph-name="macron" unicode="&#xaf;" horiz-adv-x="748" 
d="M188 1169l33 223h612l-34 -223h-611z" />
    <glyph glyph-name="degree" unicode="&#xb0;" horiz-adv-x="766" 
d="M161 1011l12 76q13 84 60.5 146t124.5 99.5t174 37.5q98 0 164 -37.5t95.5 -99.5t16.5 -146l-11 -76q-13 -84 -60.5 -146t-125 -99.5t-175.5 -37.5q-97 0 -163 37.5t-95.5 99.5t-16.5 146zM386 1072l-6 -45q-8 -50 15.5 -80t69.5 -30q45 0 78 30t40 80l7 45
q8 50 -16 79.5t-70 29.5q-45 0 -77.5 -29.5t-40.5 -79.5z" />
    <glyph glyph-name="plusminus" unicode="&#xb1;" horiz-adv-x="1031" 
d="M513 1268h278l-41 -281h248l-36 -243h-249l-42 -280h-278l42 280h-249l37 243h248zM153 328h719l-36 -236h-718z" />
    <glyph glyph-name="uni00B2" unicode="&#xb2;" horiz-adv-x="631" 
d="M665 840l-28 -189h-553l28 179q199 108 240.5 140.5t64 61t22.5 61.5q0 34 -28 51.5t-75 17.5q-65 0 -155 -18l10 193q113 27 225 27q87 0 147 -27.5t91.5 -76t31.5 -118.5q0 -88 -62.5 -161t-201.5 -141h243z" />
    <glyph glyph-name="uni00B3" unicode="&#xb3;" horiz-adv-x="604" 
d="M191 940l19 127h115q41 0 67.5 15t26.5 48q0 52 -93 52q-72 0 -150 -17l7 172q31 8 91.5 17.5t120.5 9.5q125 0 198 -47.5t73 -134.5q0 -121 -118 -172q84 -34 84 -135q0 -115 -90.5 -174.5t-259.5 -59.5q-117 0 -201 22l44 180q72 -18 148 -18q122 0 122 63
q0 20 -19.5 36t-67.5 16h-117z" />
    <glyph glyph-name="acute" unicode="&#xb4;" horiz-adv-x="623" 
d="M356 1081l-173 53l270 366l257 -92z" />
    <glyph glyph-name="uni00B5" unicode="&#xb5;" horiz-adv-x="1097" 
d="M922 0h-249l1 105q-124 -93 -225 -100q-54 -9 -103 5q-27 -157 -119.5 -268t-302.5 -210l-99 188q114 71 166.5 139t67.5 168l145 969h290l-95 -638q-19 -119 89 -119q39 0 90 19t101 53l102 685h290z" />
    <glyph glyph-name="paragraph" unicode="&#xb6;" horiz-adv-x="1205" 
d="M714 1354h61l-150 -1005h-61q-221 0 -330.5 120.5t-76.5 336.5l12 82q33 217 179 341.5t366 124.5zM904 1354h292l-194 -1299q-23 -153 -117.5 -264t-305.5 -210l-99 187q114 72 165.5 139.5t66.5 167.5z" />
    <glyph glyph-name="periodcentered" unicode="&#xb7;" horiz-adv-x="450" 
d="M85 470q0 86 47 131.5t135 45.5q137 0 137 -122q0 -86 -47 -131.5t-135 -45.5q-66 0 -101.5 31t-35.5 91z" />
    <glyph glyph-name="cedilla" unicode="&#xb8;" horiz-adv-x="557" 
d="M122 20h138l-31 -114q77 -9 121 -49t44 -111q0 -66 -37.5 -112.5t-108 -74t-169.5 -27.5q-78 0 -133 15l40 162q47 -11 88 -11q49 0 80.5 17.5t31.5 51.5q0 24 -21 37.5t-57 13.5h-60z" />
    <glyph glyph-name="uni00B9" unicode="&#xb9;" horiz-adv-x="591" 
d="M644 838l-28 -187h-530l27 187h161l45 302l-163 -33l15 181l240 66h166l-77 -516h144z" />
    <glyph glyph-name="ordmasculine" unicode="&#xba;" horiz-adv-x="777" 
d="M142 924l24 157q10 67 52.5 133.5t130 108t187.5 41.5q101 0 170 -36.5t100 -97.5t18 -143l-23 -157q-13 -86 -62.5 -149t-129.5 -101.5t-181 -38.5q-100 0 -168.5 37.5t-99.5 99.5t-18 146zM379 1065l-18 -125q-8 -50 19 -80t77 -30t86.5 31.5t43.5 84.5l19 126
q7 47 -20.5 75t-77.5 28t-85.5 -30t-43.5 -80z" />
    <glyph glyph-name="guillemotright" unicode="&#xbb;" horiz-adv-x="1011" 
d="M237 498l-107 377l230 83l157 -460l-294 -460l-206 82zM666 498l-122 378l232 89l174 -467l-314 -468l-205 89z" />
    <glyph glyph-name="questiondown" unicode="&#xbf;" horiz-adv-x="765" 
d="M368 840q0 86 47 131t135 45q137 0 137 -122q0 -86 -47 -131.5t-135 -45.5q-137 0 -137 123zM378 594h222q4 -46 -7 -100q-22 -105 -136.5 -217t-139 -147.5t-35.5 -67t-11 -66.5q0 -116 154 -116q94 0 232 48l4 -247q-163 -59 -334 -59q-116 0 -196 37t-121.5 101
t-41.5 154q0 68 21.5 138t72.5 138.5t153.5 164.5t127.5 141q23 41 35 98z" />
    <glyph glyph-name="Agrave" unicode="&#xc0;" horiz-adv-x="1213" 
d="M1138 0h-320l-28 288h-391l-113 -288h-321l575 1354h429zM719 1126l-237 -603h296zM923 1493l-189 -53l-256 327l284 91z" />
    <glyph glyph-name="Aacute" unicode="&#xc1;" horiz-adv-x="1213" 
d="M1138 0h-320l-28 288h-391l-113 -288h-321l575 1354h429zM719 1126l-237 -603h296zM777 1440l-173 53l270 365l257 -91z" />
    <glyph glyph-name="Acircumflex" unicode="&#xc2;" horiz-adv-x="1213" 
d="M1138 0h-320l-28 288h-391l-113 -288h-321l575 1354h429zM719 1126l-237 -603h296zM435 1468l245 365h290l137 -365l-246 -13l-61 213l-123 -213z" />
    <glyph glyph-name="Atilde" unicode="&#xc3;" horiz-adv-x="1213" 
d="M1138 0h-320l-28 288h-391l-113 -288h-321l575 1354h429zM719 1126l-237 -603h296zM698 1785q47 0 119.5 -30t102.5 -30q59 0 126 69l117 -95q-16 -34 -51.5 -82t-93 -86.5t-123.5 -38.5q-47 0 -119 29.5t-103 29.5q-59 0 -126 -69l-117 94q45 94 118 151.5t150 57.5z
" />
    <glyph glyph-name="Adieresis" unicode="&#xc4;" horiz-adv-x="1213" 
d="M1138 0h-320l-28 288h-391l-113 -288h-321l575 1354h429zM719 1126l-237 -603h296zM423 1613q0 86 47 131.5t134 45.5q137 0 137 -121q0 -86 -47 -131.5t-135 -45.5q-136 0 -136 121zM851 1613q0 86 47 131.5t136 45.5q66 0 101.5 -31t35.5 -90q0 -86 -47 -131.5
t-135 -45.5q-138 0 -138 121z" />
    <glyph glyph-name="Aring" unicode="&#xc5;" horiz-adv-x="1213" 
d="M1138 0h-320l-28 288h-391l-113 -288h-321l575 1354h429zM544 1624q0 114 81 186.5t210 72.5q101 0 160.5 -52.5t59.5 -139.5q0 -115 -81.5 -187t-211.5 -72q-100 0 -159 52.5t-59 139.5zM719 1126l-237 -603h296zM720 1647q0 -29 18.5 -48t48.5 -19q39 0 65.5 25.5
t26.5 62.5q0 29 -19 48t-49 19q-38 0 -64.5 -25.5t-26.5 -62.5z" />
    <glyph glyph-name="AE" unicode="&#xc6;" horiz-adv-x="1613" 
d="M826 0l3 282h-396l-147 -282h-321l748 1354h977l-38 -253h-511l5 -302h441l-36 -237h-416l4 -309h406l-37 -253h-682zM848 1091l-303 -574h295z" />
    <glyph glyph-name="Ccedilla" unicode="&#xc7;" horiz-adv-x="939" 
d="M858 271l-9 -239q-155 -51 -333 -52l-19 -74q77 -9 121 -49t44 -111q0 -66 -37.5 -112.5t-108.5 -74t-170 -27.5q-75 0 -133 15l41 162q47 -11 88 -11q49 0 80.5 17.5t31.5 51.5q0 24 -21 37.5t-57 13.5h-60l64 177q-151 34 -231.5 149.5t-54.5 288.5l70 475
q13 86 52 168t110.5 147.5t175.5 108t234 42.5q72 0 153.5 -14t137.5 -38l-71 -240q-32 12 -97 26t-134 14q-99 0 -172 -64.5t-90 -173.5l-64 -427q-16 -105 40.5 -165t165.5 -60q121 0 253 39z" />
    <glyph glyph-name="Egrave" unicode="&#xc8;" horiz-adv-x="1011" 
d="M69 0l202 1354h817l-37 -253h-516l-45 -302h496l-35 -237h-497l-46 -309h536l-38 -253h-837zM869 1493l-190 -53l-256 327l284 91z" />
    <glyph glyph-name="Eacute" unicode="&#xc9;" horiz-adv-x="1011" 
d="M69 0l202 1354h817l-37 -253h-516l-45 -302h496l-35 -237h-497l-46 -309h536l-38 -253h-837zM725 1440l-173 53l270 365l256 -91z" />
    <glyph glyph-name="Ecircumflex" unicode="&#xca;" horiz-adv-x="1011" 
d="M69 0l202 1354h817l-37 -253h-516l-45 -302h496l-35 -237h-497l-46 -309h536l-38 -253h-837zM357 1468l245 365h291l136 -365l-247 -13l-59 213l-124 -213z" />
    <glyph glyph-name="Edieresis" unicode="&#xcb;" horiz-adv-x="1011" 
d="M69 0l202 1354h817l-37 -253h-516l-45 -302h496l-35 -237h-497l-46 -309h536l-38 -253h-837zM350 1613q0 86 47 131.5t134 45.5q138 0 138 -121q0 -86 -47.5 -131.5t-134.5 -45.5q-137 0 -137 121zM779 1613q0 86 47 131.5t135 45.5q66 0 101.5 -31t35.5 -90
q0 -86 -47 -131.5t-135 -45.5q-137 0 -137 121z" />
    <glyph glyph-name="Igrave" unicode="&#xcc;" horiz-adv-x="549" 
d="M572 1354l-203 -1354h-300l202 1354h301zM606 1493l-190 -53l-256 327l285 91z" />
    <glyph glyph-name="Iacute" unicode="&#xcd;" horiz-adv-x="549" 
d="M572 1354l-203 -1354h-300l202 1354h301zM462 1440l-174 53l270 365l257 -91z" />
    <glyph glyph-name="Icircumflex" unicode="&#xce;" horiz-adv-x="549" 
d="M572 1354l-203 -1354h-300l202 1354h301zM103 1468l245 365h291l136 -365l-246 -13l-61 213l-122 -213z" />
    <glyph glyph-name="Idieresis" unicode="&#xcf;" horiz-adv-x="549" 
d="M572 1354l-203 -1354h-300l202 1354h301zM96 1613q0 86 47 131.5t135 45.5q137 0 137 -121q0 -86 -46.5 -131.5t-134.5 -45.5q-138 0 -138 121zM514 1613q0 86 47 131.5t135 45.5q137 0 137 -121q0 -86 -47 -131.5t-134 -45.5q-138 0 -138 121z" />
    <glyph glyph-name="Eth" unicode="&#xd0;" horiz-adv-x="1196" 
d="M63 598l23 156h107l89 600h475q226 0 346.5 -120t89.5 -324l-70 -474q-33 -217 -184.5 -326.5t-383.5 -109.5h-475l90 598h-107zM822 440l64 430q18 122 -30 185t-146 63h-162l-54 -364h213l-23 -156h-213l-55 -362h163q104 0 166 53.5t77 150.5z" />
    <glyph glyph-name="Ntilde" unicode="&#xd1;" horiz-adv-x="1277" 
d="M800 0l-311 856l-127 -856h-293l202 1354h299l310 -856l128 856h293l-203 -1354h-298zM728 1785q47 0 119 -30t103 -30q58 0 125 69l117 -95q-16 -33 -51 -81.5t-93 -87t-124 -38.5q-47 0 -119 29.5t-102 29.5q-60 0 -127 -69l-117 94q16 34 51.5 82.5t93.5 87.5t124 39z
" />
    <glyph glyph-name="Ograve" unicode="&#xd2;" horiz-adv-x="1183" 
d="M94 436l72 482q12 81 48.5 162.5t106 146t174.5 106t246 41.5q233 0 353 -118.5t88 -337.5l-72 -482q-12 -81 -48.5 -162.5t-106 -146.5t-175 -106t-247.5 -41t-251 48.5t-160 152.5t-28 255zM469 925l-65 -434q-21 -142 23.5 -209t141.5 -67q96 0 160.5 67.5t85.5 208.5
l56 372q21 141 -23.5 208t-141.5 67q-98 0 -160 -56.5t-77 -156.5zM935 1493l-189 -53l-256 327l284 91z" />
    <glyph glyph-name="Oacute" unicode="&#xd3;" horiz-adv-x="1183" 
d="M94 436l72 482q12 81 48.5 162.5t106 146t174.5 106t246 41.5q233 0 353 -118.5t88 -337.5l-72 -482q-12 -81 -48.5 -162.5t-106 -146.5t-175 -106t-247.5 -41t-251 48.5t-160 152.5t-28 255zM469 925l-65 -434q-21 -142 23.5 -209t141.5 -67q96 0 160.5 67.5t85.5 208.5
l56 372q21 141 -23.5 208t-141.5 67q-98 0 -160 -56.5t-77 -156.5zM760 1440l-173 53l270 365l257 -91z" />
    <glyph glyph-name="Ocircumflex" unicode="&#xd4;" horiz-adv-x="1183" 
d="M94 436l72 482q12 81 48.5 162.5t106 146t174.5 106t246 41.5q233 0 353 -118.5t88 -337.5l-72 -482q-12 -81 -48.5 -162.5t-106 -146.5t-175 -106t-247.5 -41t-251 48.5t-160 152.5t-28 255zM469 925l-65 -434q-21 -142 23.5 -209t141.5 -67q96 0 160.5 67.5t85.5 208.5
l56 372q21 141 -23.5 208t-141.5 67q-98 0 -160 -56.5t-77 -156.5zM420 1468l245 365h291l136 -365l-246 -13l-60 213l-123 -213z" />
    <glyph glyph-name="Otilde" unicode="&#xd5;" horiz-adv-x="1183" 
d="M94 436l72 482q12 81 48.5 162.5t106 146t174.5 106t246 41.5q233 0 353 -118.5t88 -337.5l-72 -482q-12 -81 -48.5 -162.5t-106 -146.5t-175 -106t-247.5 -41t-251 48.5t-160 152.5t-28 255zM469 925l-65 -434q-21 -142 23.5 -209t141.5 -67q96 0 160.5 67.5t85.5 208.5
l56 372q21 141 -23.5 208t-141.5 67q-98 0 -160 -56.5t-77 -156.5zM682 1785q47 0 119.5 -30t103.5 -30q58 0 125 69l117 -95q-16 -33 -51 -81.5t-93 -87t-124 -38.5q-47 0 -119 29.5t-102 29.5q-60 0 -127 -69l-117 94q45 94 118 151.5t150 57.5z" />
    <glyph glyph-name="Odieresis" unicode="&#xd6;" horiz-adv-x="1183" 
d="M94 436l72 482q12 81 48.5 162.5t106 146t174.5 106t246 41.5q233 0 353 -118.5t88 -337.5l-72 -482q-12 -81 -48.5 -162.5t-106 -146.5t-175 -106t-247.5 -41t-251 48.5t-160 152.5t-28 255zM469 925l-65 -434q-21 -142 23.5 -209t141.5 -67q96 0 160.5 67.5t85.5 208.5
l56 372q21 141 -23.5 208t-141.5 67q-98 0 -160 -56.5t-77 -156.5zM408 1613q0 86 47 131.5t135 45.5q137 0 137 -121q0 -86 -47.5 -131.5t-134.5 -45.5q-137 0 -137 121zM837 1613q0 86 47 131.5t135 45.5q137 0 137 -121q0 -86 -47 -131.5t-135 -45.5q-137 0 -137 121z
" />
    <glyph glyph-name="multiply" unicode="&#xd7;" horiz-adv-x="1075" 
d="M871 1099l160 -187l-265 -239l188 -229l-209 -182l-187 231l-263 -238l-159 187l263 238l-186 230l208 181l187 -229z" />
    <glyph glyph-name="Oslash" unicode="&#xd8;" horiz-adv-x="1183" 
d="M94 436l72 482q12 81 48.5 162.5t106 146t174.5 106t246 41.5q92 0 168 -26l141 249h164l-173 -307q87 -55 123.5 -150t17.5 -222l-72 -482q-12 -81 -48.5 -162.5t-106 -146.5t-175 -106t-247.5 -41q-97 0 -178 26l-140 -248h-165l174 310q-167 115 -130 368zM469 925
l-65 -434q-21 -142 23.5 -209t141.5 -67q96 0 160.5 67.5t85.5 208.5l56 372q21 141 -23.5 208t-141.5 67q-98 0 -160 -56.5t-77 -156.5z" />
    <glyph glyph-name="Ugrave" unicode="&#xd9;" horiz-adv-x="1220" 
d="M951 1354h302l-140 -936q-31 -205 -180.5 -321.5t-380.5 -116.5q-113 0 -201.5 30t-144.5 86.5t-77.5 138.5t-6.5 183l140 936h300l-140 -938q-13 -84 32.5 -137t134.5 -53q88 0 149 52.5t74 137.5zM916 1493l-189 -53l-256 327l284 91z" />
    <glyph glyph-name="Uacute" unicode="&#xda;" horiz-adv-x="1220" 
d="M951 1354h302l-140 -936q-31 -205 -180.5 -321.5t-380.5 -116.5q-113 0 -201.5 30t-144.5 86.5t-77.5 138.5t-6.5 183l140 936h300l-140 -938q-13 -84 32.5 -137t134.5 -53q88 0 149 52.5t74 137.5zM799 1440l-174 53l271 365l256 -91z" />
    <glyph glyph-name="Ucircumflex" unicode="&#xdb;" horiz-adv-x="1220" 
d="M951 1354h302l-140 -936q-31 -205 -180.5 -321.5t-380.5 -116.5q-113 0 -201.5 30t-144.5 86.5t-77.5 138.5t-6.5 183l140 936h300l-140 -938q-13 -84 32.5 -137t134.5 -53q88 0 149 52.5t74 137.5zM438 1468l246 365h291l135 -365l-246 -13l-60 213l-123 -213z" />
    <glyph glyph-name="Udieresis" unicode="&#xdc;" horiz-adv-x="1220" 
d="M951 1354h302l-140 -936q-31 -205 -180.5 -321.5t-380.5 -116.5q-113 0 -201.5 30t-144.5 86.5t-77.5 138.5t-6.5 183l140 936h300l-140 -938q-13 -84 32.5 -137t134.5 -53q88 0 149 52.5t74 137.5zM426 1613q0 86 47 131.5t135 45.5q137 0 137 -121q0 -86 -47 -131.5
t-134 -45.5q-138 0 -138 121zM856 1613q0 86 46.5 131.5t134.5 45.5q137 0 137 -121q0 -86 -47 -131.5t-135 -45.5q-136 0 -136 121z" />
    <glyph glyph-name="Yacute" unicode="&#xdd;" horiz-adv-x="1119" 
d="M932 1354h308l-514 -871l-72 -483h-300l71 483l-252 871h308l139 -579zM754 1440l-173 53l271 365l256 -91z" />
    <glyph glyph-name="Thorn" unicode="&#xde;" horiz-adv-x="1128" 
d="M572 202h-172l-31 -202h-300l202 1354h301l-30 -202h172q76 0 154.5 -18t145.5 -68.5t97.5 -135.5t13.5 -199l-17 -115q-19 -126 -85.5 -216t-179.5 -144t-271 -54zM670 915h-163l-72 -476h165q81 0 138.5 49t74.5 162l10 69q14 93 -24.5 144.5t-128.5 51.5z" />
    <glyph glyph-name="germandbls" unicode="&#xdf;" horiz-adv-x="1218" 
d="M510 1072l-161 -1072h-290l165 1100q9 58 38.5 121t87 116.5t144.5 90t197 36.5q199 0 314.5 -85t115.5 -214q0 -67 -27 -130.5t-128 -169.5q-76 -80 -100.5 -112.5t-24.5 -66.5q0 -24 19.5 -46t109.5 -57q109 -43 157 -101t48 -152q0 -172 -107.5 -261t-304.5 -89
q-74 0 -166.5 12.5t-150.5 38.5l65 206q36 -15 104 -29.5t128 -14.5q69 0 112 23.5t43 72.5q0 30 -25 52t-144 62q-85 30 -128.5 81t-43.5 133q0 35 7.5 70t29 75t115.5 143q68 74 98.5 116.5t30.5 83.5q0 54 -46 89.5t-116 35.5q-65 0 -110 -41.5t-56 -116.5z" />
    <glyph glyph-name="agrave" unicode="&#xe0;" horiz-adv-x="1084" 
d="M821 1134l-189 -53l-256 327l285 92zM79 362l34 227q19 127 80.5 219.5t170.5 150t268 57.5q126 0 235.5 -18.5t183.5 -47.5l-142 -950h-248v96q-167 -116 -310 -116q-104 0 -170.5 53t-92.5 136.5t-9 192.5zM488 220q87 0 174 66l71 470q-70 22 -138 22
q-72 0 -124.5 -44t-66.5 -139l-30 -196q-26 -179 114 -179z" />
    <glyph glyph-name="aacute" unicode="&#xe1;" horiz-adv-x="1084" 
d="M667 1081l-174 53l271 366l256 -92zM79 362l34 227q19 127 80.5 219.5t170.5 150t268 57.5q126 0 235.5 -18.5t183.5 -47.5l-142 -950h-248v96q-167 -116 -310 -116q-104 0 -170.5 53t-92.5 136.5t-9 192.5zM488 220q87 0 174 66l71 470q-70 22 -138 22q-72 0 -124.5 -44
t-66.5 -139l-30 -196q-26 -179 114 -179z" />
    <glyph glyph-name="acircumflex" unicode="&#xe2;" horiz-adv-x="1084" 
d="M313 1109l245 366h291l136 -366l-247 -12l-59 212l-124 -212zM79 362l34 227q19 127 80.5 219.5t170.5 150t268 57.5q126 0 235.5 -18.5t183.5 -47.5l-142 -950h-248v96q-167 -116 -310 -116q-104 0 -170.5 53t-92.5 136.5t-9 192.5zM488 220q87 0 174 66l71 470
q-70 22 -138 22q-72 0 -124.5 -44t-66.5 -139l-30 -196q-26 -179 114 -179z" />
    <glyph glyph-name="atilde" unicode="&#xe3;" horiz-adv-x="1084" 
d="M577 1426q47 0 119.5 -29.5t103.5 -29.5q59 0 125 68l117 -94q-45 -93 -118.5 -150.5t-149.5 -57.5q-47 0 -119 29.5t-103 29.5q-60 0 -126 -68l-117 93q45 94 118 151.5t150 57.5zM79 362l34 227q19 127 80.5 219.5t170.5 150t268 57.5q126 0 235.5 -18.5t183.5 -47.5
l-142 -950h-248v96q-167 -116 -310 -116q-104 0 -170.5 53t-92.5 136.5t-9 192.5zM488 220q87 0 174 66l71 470q-70 22 -138 22q-72 0 -124.5 -44t-66.5 -139l-30 -196q-26 -179 114 -179z" />
    <glyph glyph-name="adieresis" unicode="&#xe4;" horiz-adv-x="1084" 
d="M302 1255q0 86 47 131.5t135 45.5q137 0 137 -122q0 -86 -47 -131.5t-135 -45.5q-66 0 -101.5 31t-35.5 91zM731 1255q0 86 47 131.5t135 45.5q137 0 137 -122q0 -86 -47 -131.5t-135 -45.5q-66 0 -101.5 31t-35.5 91zM79 362l34 227q19 127 80.5 219.5t170.5 150
t268 57.5q126 0 235.5 -18.5t183.5 -47.5l-142 -950h-248v96q-167 -116 -310 -116q-104 0 -170.5 53t-92.5 136.5t-9 192.5zM488 220q87 0 174 66l71 470q-70 22 -138 22q-72 0 -124.5 -44t-66.5 -139l-30 -196q-26 -179 114 -179z" />
    <glyph glyph-name="aring" unicode="&#xe5;" horiz-adv-x="1084" 
d="M425 1265q0 115 80.5 187.5t210.5 72.5q100 0 159.5 -53t59.5 -140q0 -115 -81 -186.5t-211 -71.5q-100 0 -159 52t-59 139zM600 1289q0 -29 18.5 -48t49.5 -19q39 0 65.5 25t26.5 62q0 30 -19 48.5t-50 18.5q-38 0 -64.5 -25t-26.5 -62zM79 362l34 227
q19 127 80.5 219.5t170.5 150t268 57.5q126 0 235.5 -18.5t183.5 -47.5l-142 -950h-248v96q-167 -116 -310 -116q-104 0 -170.5 53t-92.5 136.5t-9 192.5zM488 220q87 0 174 66l71 470q-70 22 -138 22q-72 0 -124.5 -44t-66.5 -139l-30 -196q-26 -179 114 -179z" />
    <glyph glyph-name="ae" unicode="&#xe6;" horiz-adv-x="1481" 
d="M35 219q0 108 51 183.5t142 118.5t210 43h169l9 65q13 81 -23.5 114t-119.5 33q-126 0 -285 -47l-3 227q68 22 167 41t198 19q184 0 253 -94q118 94 284 94q189 0 284 -112.5t65 -314.5l-9 -63l-21 -107h-552l-5 -32q-26 -175 193 -175q133 0 302 35l-10 -218
q-173 -49 -370 -49q-113 0 -198.5 35.5t-133.5 103.5q-70 -57 -162 -98t-181 -41q-118 0 -186 60.5t-68 178.5zM884 620l-7 -48h287l6 40q28 185 -116 185q-142 0 -170 -177zM580 381l4 25h-138q-64 0 -101.5 -37.5t-37.5 -100.5q0 -42 23 -67t60 -25q91 0 191 70
q-11 62 -1 135z" />
    <glyph glyph-name="ccedilla" unicode="&#xe7;" horiz-adv-x="826" 
d="M396 570l-23 -147q-14 -98 30 -152t138 -54t193 24l-15 -229q-133 -34 -268 -31l-20 -75q77 -9 121 -49t44 -111q0 -66 -37.5 -112.5t-108 -74t-169.5 -27.5q-78 0 -133 15l40 162q47 -11 87 -11q49 0 81 17.5t32 51.5q0 18 -16 34.5t-61 16.5h-60l64 179
q-133 33 -193.5 137t-36.5 272l21 138l13 76q36 188 167.5 292t320.5 104q57 0 129 -9.5t125 -25.5l-65 -231q-2 0 -18.5 4.5t-34.5 8.5t-42.5 8t-46.5 5.5t-36 1.5q-90 0 -149 -56t-73 -152z" />
    <glyph glyph-name="egrave" unicode="&#xe8;" horiz-adv-x="981" 
d="M763 1134l-189 -53l-256 327l284 92zM78 397l30 193q11 74 43 149.5t92.5 136.5t152.5 100.5t216 39.5q167 0 264 -78.5t97 -208.5q0 -167 -105.5 -247.5t-343.5 -80.5q-91 0 -162 12l-4 -26q-26 -175 193 -175q133 0 295 35l-9 -218q-173 -49 -365 -49q-74 0 -150 18
t-136 64.5t-93 128.5t-15 206zM393 620l-7 -49q62 -12 118 -12q94 0 141.5 29.5t47.5 105.5q0 47 -31 75t-91 28q-152 0 -178 -177z" />
    <glyph glyph-name="eacute" unicode="&#xe9;" horiz-adv-x="981" 
d="M619 1081l-173 53l270 366l257 -92zM78 397l30 193q11 74 43 149.5t92.5 136.5t152.5 100.5t216 39.5q167 0 264 -78.5t97 -208.5q0 -167 -105.5 -247.5t-343.5 -80.5q-91 0 -162 12l-4 -26q-26 -175 193 -175q133 0 295 35l-9 -218q-173 -49 -365 -49q-74 0 -150 18
t-136 64.5t-93 128.5t-15 206zM393 620l-7 -49q62 -12 118 -12q94 0 141.5 29.5t47.5 105.5q0 47 -31 75t-91 28q-152 0 -178 -177z" />
    <glyph glyph-name="ecircumflex" unicode="&#xea;" horiz-adv-x="984" 
d="M268 1109l245 366h291l136 -366l-247 -12l-59 212l-124 -212zM78 397l30 193q11 74 43 149.5t92.5 136.5t152.5 100.5t216 39.5q167 0 264 -78.5t97 -208.5q0 -167 -105.5 -247.5t-343.5 -80.5q-91 0 -162 12l-4 -26q-26 -175 193 -175q133 0 295 35l-9 -218
q-173 -49 -365 -49q-74 0 -150 18t-136 64.5t-93 128.5t-15 206zM393 620l-7 -49q62 -12 118 -12q94 0 141.5 29.5t47.5 105.5q0 47 -31 75t-91 28q-152 0 -178 -177z" />
    <glyph glyph-name="edieresis" unicode="&#xeb;" horiz-adv-x="984" 
d="M255 1255q0 86 47.5 131.5t134.5 45.5q137 0 137 -122q0 -86 -47 -131.5t-134 -45.5q-138 0 -138 122zM685 1255q0 86 47 131.5t134 45.5q137 0 137 -122q0 -86 -47 -131.5t-135 -45.5q-136 0 -136 122zM78 397l30 193q11 74 43 149.5t92.5 136.5t152.5 100.5t216 39.5
q167 0 264 -78.5t97 -208.5q0 -167 -105.5 -247.5t-343.5 -80.5q-91 0 -162 12l-4 -26q-26 -175 193 -175q133 0 295 35l-9 -218q-173 -49 -365 -49q-74 0 -150 18t-136 64.5t-93 128.5t-15 206zM393 620l-7 -49q62 -12 118 -12q94 0 141.5 29.5t47.5 105.5q0 47 -31 75
t-91 28q-152 0 -178 -177z" />
    <glyph glyph-name="igrave" unicode="&#xec;" horiz-adv-x="507" 
d="M202 996h290l-149 -996h-290zM527 1134l-189 -53l-256 327l284 92z" />
    <glyph glyph-name="iacute" unicode="&#xed;" horiz-adv-x="530" 
d="M214 996h290l-149 -996h-290zM399 1081l-173 53l270 366l256 -92z" />
    <glyph glyph-name="icircumflex" unicode="&#xee;" horiz-adv-x="507" 
d="M202 996h290l-149 -996h-290zM28 1109l245 366h292l135 -366l-246 -12l-60 212l-123 -212z" />
    <glyph glyph-name="idieresis" unicode="&#xef;" horiz-adv-x="507" 
d="M202 996h290l-149 -996h-290zM22 1255q0 86 47 131.5t135 45.5q66 0 101.5 -31t35.5 -91q0 -86 -47 -131.5t-135 -45.5q-137 0 -137 122zM439 1255q0 86 47.5 131.5t135.5 45.5q66 0 101.5 -31t35.5 -91q0 -86 -47 -131.5t-135 -45.5q-138 0 -138 122z" />
    <glyph glyph-name="eth" unicode="&#xf0;" horiz-adv-x="1103" 
d="M668 1025l-115 84l90 125q-32 4 -84 0q-46 -3 -105.5 -14.5t-104.5 -32.5l-10 223q162 54 320 54q81 0 158 -18l115 152l115 -85l-94 -127q174 -127 129 -436l-82 -547q-30 -203 -169 -313t-355 -110q-223 0 -324.5 113t-71.5 312l23 156q18 120 77.5 205t159.5 135
t238 50q126 0 204 -82l9 65q23 157 -24 228zM393 559l-26 -180q-12 -81 24 -128.5t118 -47.5q83 0 136 49.5t65 135.5l36 241q-52 99 -151 99q-87 0 -138.5 -44t-63.5 -125z" />
    <glyph glyph-name="ntilde" unicode="&#xf1;" horiz-adv-x="1103" 
d="M214 996h249l-2 -106q191 126 351 126q132 0 193.5 -74.5t40.5 -214.5l-109 -727h-290l96 637q17 120 -92 120q-40 0 -92 -19t-102 -53l-102 -685h-290zM588 1426q47 0 119 -29.5t103 -29.5q59 0 125 68l118 -94q-17 -34 -52.5 -82.5t-93 -87t-123.5 -38.5
q-47 0 -119 29.5t-102 29.5q-59 0 -127 -68l-117 93q16 34 51.5 83t93 87.5t124.5 38.5z" />
    <glyph glyph-name="ograve" unicode="&#xf2;" horiz-adv-x="1065" 
d="M84 399l30 197q11 74 43.5 149.5t95 135t156 97.5t219.5 38q100 0 179.5 -27t131 -80.5t72 -133t5.5 -179.5l-30 -197q-11 -74 -43.5 -149t-94.5 -134.5t-155.5 -97.5t-219.5 -38q-100 0 -179.5 27t-131.5 80t-72.5 132.5t-5.5 179.5zM405 608l-30 -205
q-14 -89 18.5 -141t113.5 -52t129 52t61 141l28 189q13 88 -19 141t-112 53q-77 0 -127 -48t-62 -130zM821 1134l-189 -53l-256 327l285 92z" />
    <glyph glyph-name="oacute" unicode="&#xf3;" horiz-adv-x="1065" 
d="M84 399l30 197q11 74 43.5 149.5t95 135t156 97.5t219.5 38q100 0 179.5 -27t131 -80.5t72 -133t5.5 -179.5l-30 -197q-11 -74 -43.5 -149t-94.5 -134.5t-155.5 -97.5t-219.5 -38q-100 0 -179.5 27t-131.5 80t-72.5 132.5t-5.5 179.5zM405 608l-30 -205
q-14 -89 18.5 -141t113.5 -52t129 52t61 141l28 189q13 88 -19 141t-112 53q-77 0 -127 -48t-62 -130zM667 1081l-174 53l271 366l256 -92z" />
    <glyph glyph-name="ocircumflex" unicode="&#xf4;" horiz-adv-x="1065" 
d="M84 399l30 197q11 74 43.5 149.5t95 135t156 97.5t219.5 38q100 0 179.5 -27t131 -80.5t72 -133t5.5 -179.5l-30 -197q-11 -74 -43.5 -149t-94.5 -134.5t-155.5 -97.5t-219.5 -38q-100 0 -179.5 27t-131.5 80t-72.5 132.5t-5.5 179.5zM405 608l-30 -205
q-14 -89 18.5 -141t113.5 -52t129 52t61 141l28 189q13 88 -19 141t-112 53q-77 0 -127 -48t-62 -130zM305 1109l246 366h290l137 -366l-247 -12l-60 212l-123 -212z" />
    <glyph glyph-name="otilde" unicode="&#xf5;" horiz-adv-x="1061" 
d="M84 399l30 197q11 74 43.5 149.5t95 135t156 97.5t219.5 38q100 0 179.5 -27t131 -80.5t72 -133t5.5 -179.5l-30 -197q-11 -74 -43.5 -149t-94.5 -134.5t-155.5 -97.5t-219.5 -38q-100 0 -179.5 27t-131.5 80t-72.5 132.5t-5.5 179.5zM405 608l-30 -205
q-14 -89 18.5 -141t113.5 -52t129 52t61 141l28 189q13 88 -19 141t-112 53q-77 0 -127 -48t-62 -130zM568 1426q47 0 119.5 -29.5t102.5 -29.5q60 0 126 68l117 -94q-45 -93 -118.5 -150.5t-149.5 -57.5q-47 0 -119.5 29.5t-102.5 29.5q-58 0 -126 -68l-117 93
q45 94 118 151.5t150 57.5z" />
    <glyph glyph-name="odieresis" unicode="&#xf6;" horiz-adv-x="1065" 
d="M84 399l30 197q11 74 43.5 149.5t95 135t156 97.5t219.5 38q100 0 179.5 -27t131 -80.5t72 -133t5.5 -179.5l-30 -197q-11 -74 -43.5 -149t-94.5 -134.5t-155.5 -97.5t-219.5 -38q-100 0 -179.5 27t-131.5 80t-72.5 132.5t-5.5 179.5zM405 608l-30 -205
q-14 -89 18.5 -141t113.5 -52t129 52t61 141l28 189q13 88 -19 141t-112 53q-77 0 -127 -48t-62 -130zM293 1255q0 86 47.5 131.5t134.5 45.5q137 0 137 -122q0 -86 -47 -131.5t-135 -45.5q-66 0 -101.5 31t-35.5 91zM722 1255q0 86 47.5 131.5t135.5 45.5q66 0 101.5 -31
t35.5 -91q0 -86 -47.5 -131.5t-134.5 -45.5q-138 0 -138 122z" />
    <glyph glyph-name="divide" unicode="&#xf7;" horiz-adv-x="1006" 
d="M443 997q0 85 47.5 130.5t134.5 45.5q138 0 138 -121q0 -86 -47.5 -131.5t-134.5 -45.5q-138 0 -138 122zM185 770h761l-24 -164h-761zM343 325q0 86 47 132t135 46q137 0 137 -123q0 -86 -47 -131.5t-135 -45.5q-66 0 -101.5 31t-35.5 91z" />
    <glyph glyph-name="oslash" unicode="&#xf8;" horiz-adv-x="1061" 
d="M1043 1238l-161 -288q83 -50 117.5 -139.5t16.5 -214.5l-30 -197q-11 -74 -43.5 -149t-94.5 -134.5t-155.5 -97.5t-219.5 -38q-67 0 -124 15l-130 -237h-160l160 287q-83 50 -118 139.5t-17 214.5l30 197q30 201 169 310.5t345 109.5q64 0 123 -14l132 236h160zM405 608
l-30 -205q-14 -89 18.5 -141t113.5 -52t129 52t61 141l28 189q13 88 -19 141t-112 53q-77 0 -127 -48t-62 -130z" />
    <glyph glyph-name="ugrave" unicode="&#xf9;" horiz-adv-x="1097" 
d="M922 0h-249l2 106q-186 -126 -348 -126q-131 0 -191.5 74.5t-39.5 214.5l108 727h290l-95 -638q-19 -119 89 -119q39 0 90 19t101 53l102 685h290zM796 1134l-189 -53l-255 327l283 92z" />
    <glyph glyph-name="uacute" unicode="&#xfa;" horiz-adv-x="1097" 
d="M922 0h-249l2 106q-186 -126 -348 -126q-131 0 -191.5 74.5t-39.5 214.5l108 727h290l-95 -638q-19 -119 89 -119q39 0 90 19t101 53l102 685h290zM672 1081l-173 53l270 366l257 -92z" />
    <glyph glyph-name="ucircumflex" unicode="&#xfb;" horiz-adv-x="1097" 
d="M922 0h-249l2 106q-186 -126 -348 -126q-131 0 -191.5 74.5t-39.5 214.5l108 727h290l-95 -638q-19 -119 89 -119q39 0 90 19t101 53l102 685h290zM323 1109l245 366h290l137 -366l-246 -12l-60 212l-123 -212z" />
    <glyph glyph-name="udieresis" unicode="&#xfc;" horiz-adv-x="1097" 
d="M922 0h-249l2 106q-186 -126 -348 -126q-131 0 -191.5 74.5t-39.5 214.5l108 727h290l-95 -638q-19 -119 89 -119q39 0 90 19t101 53l102 685h290zM739 1255q0 86 47.5 131.5t135.5 45.5q66 0 101.5 -31t35.5 -91q0 -86 -47 -131.5t-135 -45.5q-138 0 -138 122zM311 1255
q0 86 47 131.5t135 45.5q136 0 136 -122q0 -86 -46.5 -131.5t-134.5 -45.5q-137 0 -137 122z" />
    <glyph glyph-name="yacute" unicode="&#xfd;" horiz-adv-x="1032" 
d="M654 1081l-173 53l270 366l257 -92zM98 996h301l94 -838q181 397 285 838h308q-83 -317 -183.5 -578t-227.5 -460.5t-286.5 -312.5t-348.5 -113q-154 0 -250 42l61 230q31 -12 86 -22t112 -10q97 0 189.5 59t140.5 133h-144z" />
    <glyph glyph-name="thorn" unicode="&#xfe;" horiz-adv-x="1090" 
d="M1046 635l-35 -230q-11 -74 -42 -149t-88.5 -136t-141 -100.5t-190.5 -39.5q-84 0 -200 30l-68 -458h-283l283 1892h290l-79 -525q150 97 280 97q50 0 103.5 -17t96.5 -61t66.5 -119t7.5 -184zM636 774q-84 0 -176 -66l-69 -468q72 -30 138 -30q163 0 190 183l31 200
q13 85 -14.5 133t-99.5 48z" />
    <glyph glyph-name="ydieresis" unicode="&#xff;" horiz-adv-x="1032" 
d="M694 1255q0 86 47 131.5t135 45.5q137 0 137 -122q0 -86 -47 -131.5t-135 -45.5q-137 0 -137 122zM269 1255q0 86 47 131.5t135 45.5q66 0 101.5 -31t35.5 -91q0 -86 -47 -131.5t-135 -45.5q-137 0 -137 122zM98 996h301l94 -838q181 397 285 838h308
q-83 -317 -183.5 -578t-227.5 -460.5t-286.5 -312.5t-348.5 -113q-154 0 -250 42l61 230q31 -12 86 -22t112 -10q97 0 189.5 59t140.5 133h-144z" />
    <glyph glyph-name="Amacron" unicode="&#x100;" horiz-adv-x="1213" 
d="M1138 0h-320l-28 288h-391l-113 -288h-321l575 1354h429zM719 1126l-237 -603h296zM474 1527l33 223h611l-33 -223h-611z" />
    <glyph glyph-name="amacron" unicode="&#x101;" horiz-adv-x="1084" 
d="M353 1169l33 223h611l-33 -223h-611zM79 362l34 227q19 127 80.5 219.5t170.5 150t268 57.5q126 0 235.5 -18.5t183.5 -47.5l-142 -950h-248v96q-167 -116 -310 -116q-104 0 -170.5 53t-92.5 136.5t-9 192.5zM488 220q87 0 174 66l71 470q-70 22 -138 22
q-72 0 -124.5 -44t-66.5 -139l-30 -196q-26 -179 114 -179z" />
    <glyph glyph-name="Abreve" unicode="&#x102;" horiz-adv-x="1213" 
d="M1138 0h-320l-28 288h-391l-113 -288h-321l575 1354h429zM719 1126l-237 -603h296zM504 1802h223q-6 -53 11.5 -86t63.5 -33q47 0 74.5 33t37.5 86h223q-22 -149 -119 -236.5t-246 -87.5t-220 87.5t-48 236.5z" />
    <glyph glyph-name="abreve" unicode="&#x103;" horiz-adv-x="1084" 
d="M374 1442h223q-6 -53 11.5 -86.5t64.5 -33.5q46 0 73.5 33.5t37.5 86.5h223q-22 -149 -119 -237t-246 -88q-148 0 -219.5 88t-48.5 237zM79 362l34 227q19 127 80.5 219.5t170.5 150t268 57.5q126 0 235.5 -18.5t183.5 -47.5l-142 -950h-248v96q-167 -116 -310 -116
q-104 0 -170.5 53t-92.5 136.5t-9 192.5zM488 220q87 0 174 66l71 470q-70 22 -138 22q-72 0 -124.5 -44t-66.5 -139l-30 -196q-26 -179 114 -179z" />
    <glyph glyph-name="Aogonek" unicode="&#x104;" horiz-adv-x="1213" 
d="M1138 0q-188 -122 -188 -225q0 -29 18 -45t49 -16q52 0 89 13l-11 -176q-57 -19 -136 -19q-107 0 -169.5 41.5t-62.5 126.5q0 166 247 300h-156l-28 288h-391l-113 -288h-321l575 1354h429zM719 1126l-237 -603h296z" />
    <glyph glyph-name="aogonek" unicode="&#x105;" horiz-adv-x="1084" 
d="M79 362l34 227q19 127 80.5 219.5t170.5 150t268 57.5q126 0 235.5 -18.5t183.5 -47.5l-142 -950q-189 -122 -189 -225q0 -29 18 -45t49 -16q52 0 89 13l-11 -176q-55 -19 -136 -19q-107 0 -169 41.5t-62 126.5q0 80 61.5 157.5t186.5 142.5h-85v96q-167 -116 -310 -116
q-104 0 -170.5 53t-92.5 136.5t-9 192.5zM488 220q87 0 174 66l71 470q-70 22 -138 22q-72 0 -124.5 -44t-66.5 -139l-30 -196q-26 -179 114 -179z" />
    <glyph glyph-name="Cacute" unicode="&#x106;" horiz-adv-x="939" 
d="M858 271l-9 -239q-144 -52 -333 -52q-126 0 -231.5 50.5t-158.5 154.5t-32 248l70 475q13 86 52 168t110.5 147.5t175.5 108t234 42.5q72 0 153.5 -14t137.5 -38l-71 -240q-32 12 -97 26t-134 14q-99 0 -172 -64.5t-90 -173.5l-64 -427q-16 -106 40 -165.5t166 -59.5
q118 0 253 39zM717 1440l-173 53l270 365l257 -91z" />
    <glyph glyph-name="cacute" unicode="&#x107;" horiz-adv-x="826" 
d="M396 570l-23 -147q-14 -98 30.5 -152t137.5 -54q94 0 193 24l-15 -229q-121 -32 -261 -32q-93 0 -167.5 24.5t-124 73t-71.5 121.5t-13 166l10 87l14 92l16 87q23 114 84.5 197.5t162 135.5t238.5 52q57 0 129 -9.5t125 -25.5l-65 -231q-2 0 -18.5 4.5t-34.5 8.5t-42.5 8
t-46.5 5.5t-36 1.5q-90 0 -149 -56t-73 -152zM597 1081l-173 53l270 366l257 -92z" />
    <glyph glyph-name="Ccircumflex" unicode="&#x108;" horiz-adv-x="939" 
d="M858 271l-9 -239q-144 -52 -333 -52q-126 0 -231.5 50.5t-158.5 154.5t-32 248l70 475q13 86 52 168t110.5 147.5t175.5 108t234 42.5q72 0 153.5 -14t137.5 -38l-71 -240q-32 12 -97 26t-134 14q-99 0 -172 -64.5t-90 -173.5l-64 -427q-16 -106 40 -165.5t166 -59.5
q118 0 253 39zM376 1468l245 365h291l136 -365l-246 -13l-61 213l-122 -213z" />
    <glyph glyph-name="ccircumflex" unicode="&#x109;" horiz-adv-x="826" 
d="M396 570l-23 -147q-14 -98 30.5 -152t137.5 -54q94 0 193 24l-15 -229q-121 -32 -261 -32q-93 0 -167.5 24.5t-124 73t-71.5 121.5t-13 166l10 87l14 92l16 87q23 114 84.5 197.5t162 135.5t238.5 52q57 0 129 -9.5t125 -25.5l-65 -231q-2 0 -18.5 4.5t-34.5 8.5t-42.5 8
t-46.5 5.5t-36 1.5q-90 0 -149 -56t-73 -152zM254 1109l245 366h292l135 -366l-246 -12l-60 212l-123 -212z" />
    <glyph glyph-name="Cdotaccent" unicode="&#x10a;" horiz-adv-x="939" 
d="M858 271l-9 -239q-144 -52 -333 -52q-126 0 -231.5 50.5t-158.5 154.5t-32 248l70 475q13 86 52 168t110.5 147.5t175.5 108t234 42.5q72 0 153.5 -14t137.5 -38l-71 -240q-32 12 -97 26t-134 14q-99 0 -172 -64.5t-90 -173.5l-64 -427q-16 -106 40 -165.5t166 -59.5
q118 0 253 39zM588 1613q0 86 47 131.5t135 45.5q66 0 101.5 -31t35.5 -90q0 -86 -47 -131.5t-135 -45.5q-137 0 -137 121z" />
    <glyph glyph-name="cdotaccent" unicode="&#x10b;" horiz-adv-x="826" 
d="M396 570l-23 -147q-14 -98 30.5 -152t137.5 -54q94 0 193 24l-15 -229q-121 -32 -261 -32q-93 0 -167.5 24.5t-124 73t-71.5 121.5t-13 166l10 87l14 92l16 87q23 114 84.5 197.5t162 135.5t238.5 52q57 0 129 -9.5t125 -25.5l-65 -231q-2 0 -18.5 4.5t-34.5 8.5t-42.5 8
t-46.5 5.5t-36 1.5q-90 0 -149 -56t-73 -152zM469 1255q0 86 47 131.5t134 45.5q137 0 137 -122q0 -86 -46.5 -131.5t-134.5 -45.5q-137 0 -137 122z" />
    <glyph glyph-name="Ccaron" unicode="&#x10c;" horiz-adv-x="939" 
d="M858 271l-9 -239q-144 -52 -333 -52q-126 0 -231.5 50.5t-158.5 154.5t-32 248l70 475q13 86 52 168t110.5 147.5t175.5 108t234 42.5q72 0 153.5 -14t137.5 -38l-71 -240q-32 12 -97 26t-134 14q-99 0 -172 -64.5t-90 -173.5l-64 -427q-16 -106 40 -165.5t166 -59.5
q118 0 253 39zM1103 1828l-251 -366h-290l-143 366l247 11l66 -211l128 211z" />
    <glyph glyph-name="ccaron" unicode="&#x10d;" horiz-adv-x="826" 
d="M396 570l-23 -147q-14 -98 30.5 -152t137.5 -54q94 0 193 24l-15 -229q-121 -32 -261 -32q-93 0 -167.5 24.5t-124 73t-71.5 121.5t-13 166l10 87l14 92l16 87q23 114 84.5 197.5t162 135.5t238.5 52q57 0 129 -9.5t125 -25.5l-65 -231q-2 0 -18.5 4.5t-34.5 8.5t-42.5 8
t-46.5 5.5t-36 1.5q-90 0 -149 -56t-73 -152zM993 1469l-251 -366h-291l-142 366l247 12l65 -211l129 211z" />
    <glyph glyph-name="Dcaron" unicode="&#x10e;" horiz-adv-x="1185" 
d="M69 0l202 1354h475q225 0 346 -120t90 -324l-71 -474q-20 -136 -89.5 -231t-188 -150t-289.5 -55h-475zM810 440l63 418q12 79 -3.5 137t-57.5 90.5t-113 32.5h-162l-132 -882h162q103 0 166 53.5t77 150.5zM1090 1828l-251 -366h-291l-142 366l247 11l65 -211l129 211z
" />
    <glyph glyph-name="dcaron" unicode="&#x10f;" horiz-adv-x="1329" 
d="M1243 1444h247l-96 -539h-215zM79 362l36 240q30 201 153 307.5t307 106.5q94 0 198 -32l69 460h283l-216 -1444h-248v96q-74 -53 -148.5 -81.5t-162.5 -28.5q-54 0 -108.5 19t-95 64.5t-61.5 119.5t-6 173zM488 222q86 0 174 65l70 469q-69 30 -138 30q-162 0 -193 -209
l-24 -161q-29 -194 111 -194z" />
    <glyph glyph-name="Dcroat" unicode="&#x110;" horiz-adv-x="1196" 
d="M63 598l23 156h107l89 600h475q226 0 346.5 -120t89.5 -324l-70 -474q-33 -217 -184.5 -326.5t-383.5 -109.5h-475l90 598h-107zM822 440l64 430q18 122 -30 185t-146 63h-162l-54 -364h213l-23 -156h-213l-55 -362h163q104 0 166 53.5t77 150.5z" />
    <glyph glyph-name="dcroat" unicode="&#x111;" horiz-adv-x="1103" 
d="M79 362l36 240q30 201 153 307.5t307 106.5q94 0 198 -32l24 164h-274l23 156h275l21 140h283l-21 -140h118l-24 -156h-118l-171 -1148h-248v96q-74 -53 -148.5 -81.5t-162.5 -28.5q-54 0 -108.5 19t-95 64.5t-61.5 119.5t-6 173zM488 222q86 0 174 65l70 469
q-69 30 -138 30q-162 0 -193 -209l-24 -161q-29 -194 111 -194z" />
    <glyph glyph-name="Emacron" unicode="&#x112;" horiz-adv-x="1011" 
d="M69 0l202 1354h817l-37 -253h-516l-45 -302h496l-35 -237h-497l-46 -309h536l-38 -253h-837zM397 1527l33 223h611l-34 -223h-610z" />
    <glyph glyph-name="emacron" unicode="&#x113;" horiz-adv-x="984" 
d="M311 1169l33 223h611l-33 -223h-611zM78 397l30 193q11 74 43 149.5t92.5 136.5t152.5 100.5t216 39.5q167 0 264 -78.5t97 -208.5q0 -167 -105.5 -247.5t-343.5 -80.5q-91 0 -162 12l-4 -26q-26 -175 193 -175q133 0 295 35l-9 -218q-173 -49 -365 -49q-74 0 -150 18
t-136 64.5t-93 128.5t-15 206zM393 620l-7 -49q62 -12 118 -12q94 0 141.5 29.5t47.5 105.5q0 47 -31 75t-91 28q-152 0 -178 -177z" />
    <glyph glyph-name="Ebreve" unicode="&#x114;" horiz-adv-x="1011" 
d="M69 0l202 1354h817l-37 -253h-516l-45 -302h496l-35 -237h-497l-46 -309h536l-38 -253h-837zM425 1802h223q-6 -53 11.5 -86t64.5 -33q46 0 73.5 33t37.5 86h224q-23 -149 -120 -236.5t-246 -87.5t-220 87.5t-48 236.5z" />
    <glyph glyph-name="ebreve" unicode="&#x115;" horiz-adv-x="984" 
d="M337 1444h223q-6 -53 11.5 -86.5t64.5 -33.5q46 0 73.5 33.5t37.5 86.5h223q-22 -149 -119 -237t-246 -88q-148 0 -219 88t-49 237zM78 397l30 193q11 74 43 149.5t92.5 136.5t152.5 100.5t216 39.5q167 0 264 -78.5t97 -208.5q0 -167 -105.5 -247.5t-343.5 -80.5
q-91 0 -162 12l-4 -26q-26 -175 193 -175q133 0 295 35l-9 -218q-173 -49 -365 -49q-74 0 -150 18t-136 64.5t-93 128.5t-15 206zM393 620l-7 -49q62 -12 118 -12q94 0 141.5 29.5t47.5 105.5q0 47 -31 75t-91 28q-152 0 -178 -177z" />
    <glyph glyph-name="Edotaccent" unicode="&#x116;" horiz-adv-x="1011" 
d="M69 0l202 1354h817l-37 -253h-516l-45 -302h496l-35 -237h-497l-46 -309h536l-38 -253h-837zM559 1613q0 86 47 131.5t135 45.5q137 0 137 -121q0 -86 -47 -131.5t-134 -45.5q-138 0 -138 121z" />
    <glyph glyph-name="edotaccent" unicode="&#x117;" horiz-adv-x="984" 
d="M470 1255q0 86 47 131.5t135 45.5q137 0 137 -122q0 -86 -47 -131.5t-135 -45.5q-66 0 -101.5 31t-35.5 91zM78 397l30 193q11 74 43 149.5t92.5 136.5t152.5 100.5t216 39.5q167 0 264 -78.5t97 -208.5q0 -167 -105.5 -247.5t-343.5 -80.5q-91 0 -162 12l-4 -26
q-26 -175 193 -175q133 0 295 35l-9 -218q-173 -49 -365 -49q-74 0 -150 18t-136 64.5t-93 128.5t-15 206zM393 620l-7 -49q62 -12 118 -12q94 0 141.5 29.5t47.5 105.5q0 47 -31 75t-91 28q-152 0 -178 -177z" />
    <glyph glyph-name="Eogonek" unicode="&#x118;" horiz-adv-x="1011" 
d="M69 0l202 1354h817l-37 -253h-516l-45 -302h496l-35 -237h-497l-46 -309h536l-38 -253q-188 -122 -188 -225q0 -61 67 -61q50 0 89 13l-12 -176q-55 -19 -135 -19q-107 0 -169 41.5t-62 126.5q0 166 246 300h-673z" />
    <glyph glyph-name="eogonek" unicode="&#x119;" horiz-adv-x="981" 
d="M78 397l30 193q11 74 43 149.5t92.5 136.5t152.5 100.5t216 39.5q167 0 264 -78.5t97 -208.5q0 -167 -105.5 -247.5t-343.5 -80.5q-91 0 -162 12l-4 -26q-26 -175 193 -175q133 0 295 35l-9 -218q-61 -17 -122 -28l1 -1q-189 -121 -189 -225q0 -29 17.5 -45t48.5 -16
q51 0 90 13l-12 -176q-55 -19 -135 -19q-107 0 -169 41.5t-62 126.5q0 72 52 144t160 137l-45 -1q-74 0 -150 18t-136 64.5t-93 128.5t-15 206zM393 620l-7 -49q62 -12 118 -12q94 0 141.5 29.5t47.5 105.5q0 47 -31 75t-91 28q-152 0 -178 -177z" />
    <glyph glyph-name="Ecaron" unicode="&#x11a;" horiz-adv-x="1011" 
d="M69 0l202 1354h817l-37 -253h-516l-45 -302h496l-35 -237h-497l-46 -309h536l-38 -253h-837zM1099 1828l-251 -366h-290l-142 366l246 11l66 -211l129 211z" />
    <glyph glyph-name="ecaron" unicode="&#x11b;" horiz-adv-x="984" 
d="M998 1465l-251 -366h-290l-142 366l246 12l66 -211l129 211zM78 397l30 193q11 74 43 149.5t92.5 136.5t152.5 100.5t216 39.5q167 0 264 -78.5t97 -208.5q0 -167 -105.5 -247.5t-343.5 -80.5q-91 0 -162 12l-4 -26q-26 -175 193 -175q133 0 295 35l-9 -218
q-173 -49 -365 -49q-74 0 -150 18t-136 64.5t-93 128.5t-15 206zM393 620l-7 -49q62 -12 118 -12q94 0 141.5 29.5t47.5 105.5q0 47 -31 75t-91 28q-152 0 -178 -177z" />
    <glyph glyph-name="Gcircumflex" unicode="&#x11c;" horiz-adv-x="1084" 
d="M1051 679l-93 -623q-80 -33 -197 -54.5t-233 -21.5q-163 0 -271 65t-144 170.5t-18 231.5l67 443q19 131 91.5 240t211 176.5t318.5 67.5q79 0 172 -15t166 -47l-80 -241q-48 19 -120.5 34t-143.5 15q-131 0 -214.5 -65.5t-101.5 -181.5l-62 -417q-17 -112 35.5 -170
t163.5 -58q67 0 126 17l64 434h263zM419 1468l245 365h291l136 -365l-246 -13l-60 213l-123 -213z" />
    <glyph glyph-name="gcircumflex" unicode="&#x11d;" horiz-adv-x="1056" 
d="M312 1109l246 366h290l136 -366l-246 -12l-60 212l-123 -212zM628 -14l13 90q-149 -96 -285 -96q-103 0 -171 52t-95.5 135.5t-10.5 194.5l34 227q19 127 80.5 219.5t170.5 150t268 57.5q126 0 235.5 -18.5t183.5 -47.5l-140 -934q-36 -241 -179 -362.5t-407 -121.5
q-75 0 -161 12t-150 36l61 230q123 -41 251 -41q143 0 214 53t88 164zM488 220q87 0 174 66l71 470q-70 22 -138 22q-72 0 -124.5 -44t-66.5 -139l-30 -196q-26 -179 114 -179z" />
    <glyph glyph-name="Gbreve" unicode="&#x11e;" horiz-adv-x="1084" 
d="M1051 679l-93 -623q-80 -33 -197 -54.5t-233 -21.5q-163 0 -271 65t-144 170.5t-18 231.5l67 443q19 131 91.5 240t211 176.5t318.5 67.5q79 0 172 -15t166 -47l-80 -241q-48 19 -120.5 34t-143.5 15q-131 0 -214.5 -65.5t-101.5 -181.5l-62 -417q-17 -112 35.5 -170
t163.5 -58q67 0 126 17l64 434h263zM484 1802h222q-6 -53 12 -86t64 -33q47 0 74.5 33t37.5 86h223q-23 -149 -119.5 -236.5t-245.5 -87.5t-220 87.5t-48 236.5z" />
    <glyph glyph-name="gbreve" unicode="&#x11f;" horiz-adv-x="1056" 
d="M370 1444h223q-6 -53 11.5 -86.5t64.5 -33.5q46 0 73.5 33.5t37.5 86.5h223q-22 -149 -119 -237t-246 -88q-148 0 -219 88t-49 237zM628 -14l13 90q-149 -96 -285 -96q-103 0 -171 52t-95.5 135.5t-10.5 194.5l34 227q19 127 80.5 219.5t170.5 150t268 57.5
q126 0 235.5 -18.5t183.5 -47.5l-140 -934q-36 -241 -179 -362.5t-407 -121.5q-75 0 -161 12t-150 36l61 230q123 -41 251 -41q143 0 214 53t88 164zM488 220q87 0 174 66l71 470q-70 22 -138 22q-72 0 -124.5 -44t-66.5 -139l-30 -196q-26 -179 114 -179z" />
    <glyph glyph-name="Gdotaccent" unicode="&#x120;" horiz-adv-x="1084" 
d="M1051 679l-93 -623q-80 -33 -197 -54.5t-233 -21.5q-163 0 -271 65t-144 170.5t-18 231.5l67 443q19 131 91.5 240t211 176.5t318.5 67.5q79 0 172 -15t166 -47l-80 -241q-48 19 -120.5 34t-143.5 15q-131 0 -214.5 -65.5t-101.5 -181.5l-62 -417q-17 -112 35.5 -170
t163.5 -58q67 0 126 17l64 434h263zM625 1613q0 86 47 131.5t134 45.5q137 0 137 -121q0 -86 -47 -131.5t-135 -45.5q-136 0 -136 121z" />
    <glyph glyph-name="gdotaccent" unicode="&#x121;" horiz-adv-x="1056" 
d="M507 1255q0 86 46.5 131.5t134.5 45.5q137 0 137 -122q0 -86 -47 -131.5t-135 -45.5q-136 0 -136 122zM628 -14l13 90q-149 -96 -285 -96q-103 0 -171 52t-95.5 135.5t-10.5 194.5l34 227q19 127 80.5 219.5t170.5 150t268 57.5q126 0 235.5 -18.5t183.5 -47.5l-140 -934
q-36 -241 -179 -362.5t-407 -121.5q-75 0 -161 12t-150 36l61 230q123 -41 251 -41q143 0 214 53t88 164zM488 220q87 0 174 66l71 470q-70 22 -138 22q-72 0 -124.5 -44t-66.5 -139l-30 -196q-26 -179 114 -179z" />
    <glyph glyph-name="Gcommaaccent" unicode="&#x122;" horiz-adv-x="1084" 
d="M1051 679l-93 -623q-80 -33 -197 -54.5t-233 -21.5q-163 0 -271 65t-144 170.5t-18 231.5l67 443q19 131 91.5 240t211 176.5t318.5 67.5q79 0 172 -15t166 -47l-80 -241q-48 19 -120.5 34t-143.5 15q-131 0 -214.5 -65.5t-101.5 -181.5l-62 -417q-17 -112 35.5 -170
t163.5 -58q67 0 126 17l64 434h263zM402 -93h252l-16 -68q-23 -108 -77.5 -207.5t-111.5 -157.5h-185q40 74 76 169.5t50 182.5z" />
    <glyph glyph-name="gcommaaccent" unicode="&#x123;" horiz-adv-x="1056" 
d="M749 1122h-253l17 70q23 107 77.5 206t111.5 157h185q-101 -186 -126 -352zM628 -14l13 90q-149 -96 -285 -96q-103 0 -171 52t-95.5 135.5t-10.5 194.5l34 227q19 127 80.5 219.5t170.5 150t268 57.5q126 0 235.5 -18.5t183.5 -47.5l-140 -934q-36 -241 -179 -362.5
t-407 -121.5q-75 0 -161 12t-150 36l61 230q123 -41 251 -41q143 0 214 53t88 164zM488 220q87 0 174 66l71 470q-70 22 -138 22q-72 0 -124.5 -44t-66.5 -139l-30 -196q-26 -179 114 -179z" />
    <glyph glyph-name="Hcircumflex" unicode="&#x124;" horiz-adv-x="1281" 
d="M1101 0h-300l82 547h-432l-82 -547h-300l202 1354h301l-81 -545h431l82 545h300zM469 1468l245 365h291l136 -365l-246 -13l-61 213l-122 -213z" />
    <glyph glyph-name="hcircumflex" unicode="&#x125;" horiz-adv-x="1106" 
d="M281 1444h283l-81 -542q176 114 329 114q132 0 193.5 -74.5t40.5 -214.5l-109 -727h-290l96 637q17 120 -92 120q-40 0 -92 -19t-102 -53l-102 -685h-290zM103 1503l245 365h291l136 -365l-247 -12l-59 211l-123 -211z" />
    <glyph glyph-name="Hbar" unicode="&#x126;" horiz-adv-x="1319" 
d="M111 995l23 156h127l30 203h300l-30 -203h432l30 203h300l-30 -203h126l-23 -156h-126l-149 -995h-300l81 547h-431l-82 -547h-300l148 995h-126zM510 809h432l27 186h-431z" />
    <glyph glyph-name="hbar" unicode="&#x127;" horiz-adv-x="1125" 
d="M300 1444h283l-21 -140h275l-23 -156h-275l-37 -246q178 114 329 114q133 0 194 -74.5t40 -214.5l-108 -727h-290l95 637q17 120 -91 120q-40 0 -92 -19t-102 -53l-103 -685h-290l172 1148h-118l23 156h118z" />
    <glyph glyph-name="Itilde" unicode="&#x128;" horiz-adv-x="549" 
d="M572 1354l-203 -1354h-300l202 1354h301zM366 1785q47 0 119.5 -30t102.5 -30q59 0 126 69l117 -95q-16 -33 -51 -81.5t-93 -87t-124 -38.5q-47 0 -119 29.5t-103 29.5q-59 0 -126 -69l-117 94q45 94 118 151.5t150 57.5z" />
    <glyph glyph-name="itilde" unicode="&#x129;" horiz-adv-x="507" 
d="M202 996h290l-149 -996h-290zM292 1426q47 0 119 -29.5t103 -29.5q58 0 126 68l117 -94q-45 -93 -118.5 -150.5t-149.5 -57.5q-47 0 -119.5 29.5t-103.5 29.5q-59 0 -125 -68l-117 93q45 94 118 151.5t150 57.5z" />
    <glyph glyph-name="Imacron" unicode="&#x12a;" horiz-adv-x="549" 
d="M572 1354l-203 -1354h-300l202 1354h301zM142 1527l33 223h612l-34 -223h-611z" />
    <glyph glyph-name="imacron" unicode="&#x12b;" horiz-adv-x="507" 
d="M202 996h290l-149 -996h-290zM68 1169l33 223h611l-34 -223h-610z" />
    <glyph glyph-name="Ibreve" unicode="&#x12c;" horiz-adv-x="549" 
d="M572 1354l-203 -1354h-300l202 1354h301zM172 1802h223q-6 -53 12 -86t64 -33t73.5 33t37.5 86h223q-22 -149 -119 -236.5t-246 -87.5t-219.5 87.5t-48.5 236.5z" />
    <glyph glyph-name="ibreve" unicode="&#x12d;" horiz-adv-x="507" 
d="M202 996h290l-149 -996h-290zM98 1444h223q-6 -53 11.5 -86.5t63.5 -33.5q88 0 112 120h223q-22 -149 -119.5 -237t-246.5 -88q-148 0 -219 88t-48 237z" />
    <glyph glyph-name="Iogonek" unicode="&#x12e;" horiz-adv-x="549" 
d="M572 1354l-203 -1354q-188 -123 -188 -225q0 -29 18 -45t49 -16q52 0 89 13l-11 -176q-35 -11 -96 -16q-47 -3 -92 2q-82 6 -130.5 47t-48.5 116q0 166 246 300h-136l202 1354h301z" />
    <glyph glyph-name="iogonek" unicode="&#x12f;" horiz-adv-x="507" 
d="M202 996h290l-149 -996q-189 -122 -189 -225q0 -29 18 -45t49 -16q51 0 90 13l-12 -176q-55 -19 -135 -19q-107 0 -169.5 41.5t-62.5 126.5q0 166 246 300h-125zM231 1255q0 86 47 131.5t134 45.5q138 0 138 -122q0 -86 -47.5 -131.5t-134.5 -45.5q-66 0 -101.5 31
t-35.5 91z" />
    <glyph glyph-name="Idotaccent" unicode="&#x130;" horiz-adv-x="549" 
d="M572 1354l-203 -1354h-300l202 1354h301zM305 1613q0 86 47 131.5t135 45.5q137 0 137 -121q0 -86 -47 -131.5t-135 -45.5q-137 0 -137 121z" />
    <glyph glyph-name="dotlessi" unicode="&#x131;" horiz-adv-x="507" 
d="M202 996h290l-149 -996h-290z" />
    <glyph glyph-name="IJ" unicode="&#x132;" horiz-adv-x="1097" 
d="M572 1354l-203 -1354h-300l202 1354h301zM820 1354h300l-200 -1347q-23 -154 -120 -265t-313 -210l-99 187q113 70 165.5 138.5t67.5 169.5z" />
    <glyph glyph-name="ij" unicode="&#x133;" horiz-adv-x="1059" 
d="M743 996h290l-148 -989q-23 -154 -117.5 -266t-305.5 -209l-98 188q115 72 167.5 139.5t67.5 167.5l13 87zM214 996h290l-149 -996h-290zM772 1256q0 86 47 131t135 45q137 0 137 -121q0 -86 -47 -131.5t-135 -45.5q-137 0 -137 122zM243 1256q0 86 46.5 131t134.5 45
q137 0 137 -121q0 -86 -47 -131.5t-135 -45.5q-136 0 -136 122z" />
    <glyph glyph-name="Jcircumflex" unicode="&#x134;" horiz-adv-x="548" 
d="M271 1354h302l-202 -1347q-23 -153 -119.5 -264.5t-312.5 -210.5l-100 187q113 70 165.5 138.5t68.5 169.5l14 92zM103 1468l245 365h291l136 -365l-246 -13l-60 213l-123 -213z" />
    <glyph glyph-name="jcircumflex" unicode="&#x135;" horiz-adv-x="530" 
d="M40 1109l245 366h291l136 -366l-247 -12l-60 212l-123 -212zM214 996h290l-160 -1072l-23 -120q-31 -142 -113 -207t-232 -65q-84 0 -158 20l49 229q40 -10 87 -10q77 0 93 112l10 64z" />
    <glyph glyph-name="Kcommaaccent" unicode="&#x136;" horiz-adv-x="1136" 
d="M923 1354h325l-402 -685l215 -669h-326l-160 556h-123l-83 -556h-300l202 1354h301l-80 -541h133zM400 -93h252l-16 -68q-23 -108 -77.5 -207.5t-111.5 -157.5h-185q40 74 76 169.5t50 182.5z" />
    <glyph glyph-name="kcommaaccent" unicode="&#x137;" horiz-adv-x="1053" 
d="M346 -93h252l-14 -62q-23 -109 -78 -210.5t-113 -160.5h-185q41 75 77 170.5t49 181.5zM281 1444h290l-122 -817h98l232 369h321l-337 -491l119 -254q15 -32 47 -32q39 0 79 10l-27 -219q-74 -30 -172 -30q-75 0 -129.5 35t-104.5 174l-74 205h-87l-59 -394h-290z" />
    <glyph glyph-name="kgreenlandic" unicode="&#x138;" horiz-adv-x="1044" 
d="M214 996h290l-55 -369h98l232 369h321l-337 -491l200 -505h-320l-132 394h-97l-59 -394h-290z" />
    <glyph glyph-name="Lacute" unicode="&#x139;" horiz-adv-x="942" 
d="M572 1354l-164 -1096h487l-39 -258h-787l202 1354h301zM470 1440l-172 53l269 365l257 -91z" />
    <glyph glyph-name="lacute" unicode="&#x13a;" horiz-adv-x="606" 
d="M464 1536l-173 53l271 366l256 -92zM281 1444h290l-171 -1141q-12 -84 64 -84q33 0 86 10l-30 -219q-83 -30 -181 -30q-128 0 -185.5 56.5t-50.5 172.5q5 79 22 192z" />
    <glyph glyph-name="Lcommaaccent" unicode="&#x13b;" horiz-adv-x="942" 
d="M572 1354l-164 -1096h487l-39 -258h-787l202 1354h301zM333 -93h253l-16 -68q-18 -81 -66.5 -184.5t-122.5 -180.5h-185q101 186 125 352z" />
    <glyph glyph-name="lcommaaccent" unicode="&#x13c;" horiz-adv-x="606" 
d="M72 -93h252l-16 -68q-23 -108 -77.5 -207.5t-111.5 -157.5h-185q41 75 77 170.5t49 181.5zM281 1444h290l-171 -1141q-12 -84 64 -84q33 0 86 10l-30 -219q-83 -30 -181 -30q-128 0 -185.5 56.5t-50.5 172.5q5 79 22 192z" />
    <glyph glyph-name="Lcaron" unicode="&#x13d;" horiz-adv-x="942" 
d="M761 1444h247l-97 -539h-215zM572 1354l-164 -1096h487l-39 -258h-787l202 1354h301z" />
    <glyph glyph-name="lcaron" unicode="&#x13e;" horiz-adv-x="775" 
d="M689 1444h247l-96 -539h-215zM281 1444h290l-171 -1141q-12 -84 64 -84q33 0 86 10l-30 -219q-83 -30 -181 -30q-128 0 -185.5 56.5t-50.5 172.5q5 79 22 192z" />
    <glyph glyph-name="Ldot" unicode="&#x13f;" horiz-adv-x="969" 
d="M572 1354l-164 -1096h487l-39 -258h-787l202 1354h301zM634 695q0 86 47 131t134 45q138 0 138 -122q0 -85 -47.5 -130.5t-134.5 -45.5q-137 0 -137 122z" />
    <glyph glyph-name="ldot" unicode="&#x140;" horiz-adv-x="835" 
d="M565 694q0 86 47 131.5t135 45.5q66 0 101.5 -31t35.5 -91q0 -86 -47 -131.5t-135 -45.5q-137 0 -137 122zM281 1444h290l-171 -1141q-12 -84 64 -84q33 0 86 10l-30 -219q-83 -30 -181 -30q-128 0 -185.5 56.5t-50.5 172.5q5 79 22 192z" />
    <glyph glyph-name="Lslash" unicode="&#x141;" horiz-adv-x="993" 
d="M595 1354l-71 -480l255 119l44 -143l-324 -148l-67 -444h487l-39 -258h-787l83 558l-111 -52l-46 142l183 84l93 622h300z" />
    <glyph glyph-name="lslash" unicode="&#x142;" horiz-adv-x="606" 
d="M281 1444h290l-79 -524h1l124 70l56 -137l-207 -114l-1 -1l-65 -435q-12 -84 64 -84q33 0 86 10l-30 -219q-83 -30 -181 -30q-128 0 -185.5 56.5t-50.5 172.5q5 79 22 192l25 170l-122 -67l-56 135l205 114z" />
    <glyph glyph-name="Nacute" unicode="&#x143;" horiz-adv-x="1277" 
d="M800 0l-311 856l-127 -856h-293l202 1354h299l310 -856l128 856h293l-203 -1354h-298zM826 1440l-174 53l271 365l257 -91z" />
    <glyph glyph-name="nacute" unicode="&#x144;" horiz-adv-x="1106" 
d="M214 996h249l-2 -106q191 126 351 126q132 0 193.5 -74.5t40.5 -214.5l-109 -727h-290l96 637q17 120 -92 120q-40 0 -92 -19t-102 -53l-102 -685h-290zM661 1081l-173 53l269 366l257 -92z" />
    <glyph glyph-name="Ncommaaccent" unicode="&#x145;" horiz-adv-x="1277" 
d="M800 0l-311 856l-127 -856h-293l202 1354h299l310 -856l128 856h293l-203 -1354h-298zM476 -93h252l-16 -68q-23 -108 -78 -207.5t-112 -157.5h-185q42 75 78 170.5t48 181.5z" />
    <glyph glyph-name="ncommaaccent" unicode="&#x146;" horiz-adv-x="1106" 
d="M214 996h249l-2 -106q191 126 351 126q132 0 193.5 -74.5t40.5 -214.5l-109 -727h-290l96 637q17 120 -92 120q-40 0 -92 -19t-102 -53l-102 -685h-290zM358 -93h252l-16 -68q-23 -108 -77.5 -207.5t-111.5 -157.5h-185q41 75 77 170.5t49 181.5z" />
    <glyph glyph-name="Ncaron" unicode="&#x147;" horiz-adv-x="1277" 
d="M800 0l-311 856l-127 -856h-293l202 1354h299l310 -856l128 856h293l-203 -1354h-298zM1194 1828l-251 -366h-291l-141 366l246 11l65 -211l129 211z" />
    <glyph glyph-name="ncaron" unicode="&#x148;" horiz-adv-x="1104" 
d="M214 996h249l-2 -106q191 126 351 126q132 0 193.5 -74.5t40.5 -214.5l-109 -727h-290l96 637q17 120 -92 120q-40 0 -92 -19t-102 -53l-102 -685h-290zM1052 1469l-252 -366h-290l-142 366l246 12l66 -211l129 211z" />
    <glyph glyph-name="napostrophe" unicode="&#x149;" horiz-adv-x="1106" 
d="M214 996h249l-2 -106q191 126 351 126q132 0 193.5 -74.5t40.5 -214.5l-109 -727h-290l96 637q17 120 -92 120q-40 0 -92 -19t-102 -53l-102 -685h-290zM239 1583h248l-6 -42q-17 -116 -68.5 -221.5t-119.5 -185.5h-176q31 65 63 168t47 201z" />
    <glyph glyph-name="Eng" unicode="&#x14a;" horiz-adv-x="1269" 
d="M565 1354l310 -858l129 858h288l-202 -1347q-22 -154 -116 -265t-303 -210l-99 187q113 71 165 138t68 166l-20 73l-297 777l-130 -873h-289l202 1354h294z" />
    <glyph glyph-name="eng" unicode="&#x14b;" horiz-adv-x="1106" 
d="M214 996h249l-2 -106q191 126 351 126q132 0 193.5 -74.5t40.5 -214.5l-108 -720q-23 -154 -117.5 -266t-305.5 -209l-98 188q115 72 167.5 139.5t67.5 167.5l91 610q17 120 -92 120q-40 0 -92 -19t-102 -53l-102 -685h-290z" />
    <glyph glyph-name="Omacron" unicode="&#x14c;" horiz-adv-x="1183" 
d="M94 436l72 482q12 81 48.5 162.5t106 146t174.5 106t246 41.5q233 0 353 -118.5t88 -337.5l-72 -482q-12 -81 -48.5 -162.5t-106 -146.5t-175 -106t-247.5 -41t-251 48.5t-160 152.5t-28 255zM469 925l-65 -434q-21 -142 23.5 -209t141.5 -67q96 0 160.5 67.5t85.5 208.5
l56 372q21 141 -23.5 208t-141.5 67q-98 0 -160 -56.5t-77 -156.5zM460 1527l33 223h611l-34 -223h-610z" />
    <glyph glyph-name="omacron" unicode="&#x14d;" horiz-adv-x="1065" 
d="M84 399l30 197q11 74 43.5 149.5t95 135t156 97.5t219.5 38q100 0 179.5 -27t131 -80.5t72 -133t5.5 -179.5l-30 -197q-11 -74 -43.5 -149t-94.5 -134.5t-155.5 -97.5t-219.5 -38q-100 0 -179.5 27t-131.5 80t-72.5 132.5t-5.5 179.5zM405 608l-30 -205
q-14 -89 18.5 -141t113.5 -52t129 52t61 141l28 189q13 88 -19 141t-112 53q-77 0 -127 -48t-62 -130zM345 1169l33 223h611l-33 -223h-611z" />
    <glyph glyph-name="Obreve" unicode="&#x14e;" horiz-adv-x="1183" 
d="M94 436l72 482q12 81 48.5 162.5t106 146t174.5 106t246 41.5q233 0 353 -118.5t88 -337.5l-72 -482q-12 -81 -48.5 -162.5t-106 -146.5t-175 -106t-247.5 -41t-251 48.5t-160 152.5t-28 255zM469 925l-65 -434q-21 -142 23.5 -209t141.5 -67q96 0 160.5 67.5t85.5 208.5
l56 372q21 141 -23.5 208t-141.5 67q-98 0 -160 -56.5t-77 -156.5zM489 1802h223q-6 -53 12 -86t64 -33t73.5 33t37.5 86h223q-22 -149 -119 -236.5t-246 -87.5t-219.5 87.5t-48.5 236.5z" />
    <glyph glyph-name="obreve" unicode="&#x14f;" horiz-adv-x="1065" 
d="M84 399l30 197q11 74 43.5 149.5t95 135t156 97.5t219.5 38q100 0 179.5 -27t131 -80.5t72 -133t5.5 -179.5l-30 -197q-11 -74 -43.5 -149t-94.5 -134.5t-155.5 -97.5t-219.5 -38q-100 0 -179.5 27t-131.5 80t-72.5 132.5t-5.5 179.5zM405 608l-32 -221q-13 -83 22 -130
t112 -47t126 47t61 130l33 221q13 83 -21.5 130.5t-111.5 47.5t-127 -48t-62 -130zM370 1444h223q-6 -53 12 -86.5t64 -33.5q34 0 66 25.5t46 94.5h222q-22 -149 -119 -237t-246 -88q-148 0 -219 88t-49 237z" />
    <glyph glyph-name="Ohungarumlaut" unicode="&#x150;" horiz-adv-x="1183" 
d="M94 436l72 482q12 81 48.5 162.5t106 146t174.5 106t246 41.5q233 0 353 -118.5t88 -337.5l-72 -482q-12 -81 -48.5 -162.5t-106 -146.5t-175 -106t-247.5 -41t-251 48.5t-160 152.5t-28 255zM469 925l-65 -434q-21 -142 23.5 -209t141.5 -67q96 0 160.5 67.5t85.5 208.5
l56 372q21 141 -23.5 208t-141.5 67q-98 0 -160 -56.5t-77 -156.5zM647 1446l-180 26l153 405l250 -50zM980 1446l-180 29l206 398l262 -60z" />
    <glyph glyph-name="ohungarumlaut" unicode="&#x151;" horiz-adv-x="1061" 
d="M84 399l30 197q11 74 43.5 149.5t95 135t156 97.5t219.5 38q100 0 179.5 -27t131 -80.5t72 -133t5.5 -179.5l-30 -197q-11 -74 -43.5 -149t-94.5 -134.5t-155.5 -97.5t-219.5 -38q-100 0 -179.5 27t-131.5 80t-72.5 132.5t-5.5 179.5zM405 608l-32 -221q-13 -83 22 -130
t112 -47t126 47t61 130l33 221q13 83 -21.5 130.5t-111.5 47.5t-127 -48t-62 -130zM532 1088l-181 26l153 405l250 -50zM865 1088l-181 28l206 399l263 -61z" />
    <glyph glyph-name="OE" unicode="&#x152;" horiz-adv-x="1595" 
d="M722 0l8 55q-102 -75 -223 -75q-219 0 -332.5 118.5t-80.5 337.5l72 482q12 81 47.5 162.5t102 146t166 106t233.5 41.5q127 0 201 -74l8 54h749l-38 -253h-488l-45 -302h468l-35 -237h-468l-46 -309h508l-38 -253h-769zM559 215q59 0 105.5 23.5t75.5 65.5l112 745
q-37 89 -156 89q-198 0 -239 -267l-58 -388q-40 -268 160 -268z" />
    <glyph glyph-name="oe" unicode="&#x153;" horiz-adv-x="1526" 
d="M624 1016q147 0 250 -84q123 84 263 84q186 0 279.5 -112.5t63.5 -314.5l-8 -60l-21 -104h-542l-6 -38q-25 -175 191 -175q129 0 294 35l-10 -218q-170 -49 -364 -49q-79 0 -148 22.5t-116 62.5q-58 -40 -132 -62.5t-149 -22.5q-140 0 -228.5 49.5t-128 130.5t-30.5 192
q1 38 10 98l14 96l19 97q39 179 174 276t325 97zM634 386l30 199q9 65 40 136q-30 65 -115 65q-71 0 -123.5 -49.5t-67.5 -152.5l-26 -172q-14 -93 17.5 -147.5t113.5 -54.5q87 0 135 65q-13 46 -4 111zM939 620l-7 -42h282l5 34q27 185 -114 185t-166 -177z" />
    <glyph glyph-name="Racute" unicode="&#x154;" horiz-adv-x="1152" 
d="M271 1354h479q190 0 303.5 -93t113.5 -263l-9 -86l-7 -43q-42 -279 -275 -383l169 -486h-324l-133 434h-153l-66 -434h-300zM707 1118h-170l-69 -458h170q90 0 144 52.5t68 147.5l9 60q14 93 -24 145.5t-128 52.5zM708 1440l-173 53l270 365l256 -91z" />
    <glyph glyph-name="racute" unicode="&#x155;" horiz-adv-x="720" 
d="M214 996h247l-4 -132q72 60 163 105.5t169 46.5l-41 -279q-69 -4 -153.5 -35.5t-146.5 -76.5l-93 -625h-290zM480 1081l-173 53l270 366l256 -92z" />
    <glyph glyph-name="Rcommaaccent" unicode="&#x156;" horiz-adv-x="1152" 
d="M392 -93h253l-16 -68q-18 -81 -66.5 -184.5t-122.5 -180.5h-185q101 186 125 352zM271 1354h479q76 0 154.5 -18t146 -68t97.5 -135t13 -199l-13 -87q-17 -115 -83.5 -211.5t-188.5 -149.5l169 -486h-324l-133 434h-153l-66 -434h-300zM707 1118h-170l-69 -458h170
q84 0 140.5 48t69.5 136l14 93q13 86 -29 133.5t-126 47.5z" />
    <glyph glyph-name="rcommaaccent" unicode="&#x157;" horiz-adv-x="720" 
d="M214 996h247l-4 -132q72 60 163 105.5t169 46.5l-41 -279q-69 -4 -153.5 -35.5t-146.5 -76.5l-93 -625h-290zM74 -93h253l-16 -68q-23 -108 -78 -207.5t-112 -157.5h-185q41 75 77 170.5t49 181.5z" />
    <glyph glyph-name="Rcaron" unicode="&#x158;" horiz-adv-x="1152" 
d="M1090 1828l-251 -366h-291l-141 366l246 11l66 -211l128 211zM271 1354h479q76 0 154.5 -18t146 -68t97.5 -135t13 -199l-13 -87q-17 -115 -83.5 -211.5t-188.5 -149.5l169 -486h-324l-133 434h-153l-66 -434h-300zM707 1118h-170l-69 -458h170q84 0 140.5 48t69.5 136
l14 93q13 86 -29 133.5t-126 47.5z" />
    <glyph glyph-name="rcaron" unicode="&#x159;" horiz-adv-x="720" 
d="M214 996h247l-4 -132q72 60 163 105.5t169 46.5l-41 -279q-69 -4 -153.5 -35.5t-146.5 -76.5l-93 -625h-290zM914 1469l-251 -366h-291l-142 366l247 12l65 -211l129 211z" />
    <glyph glyph-name="Sacute" unicode="&#x15a;" horiz-adv-x="979" 
d="M938 457q0 -138 -51.5 -246.5t-171.5 -169.5t-308 -61q-94 0 -204.5 15.5t-197.5 48.5l76 247q167 -54 313 -54q120 0 182 36t62 130q0 50 -33 81t-138.5 69t-152.5 58q-166 68 -166 263q0 76 23.5 160t87.5 164t169 128t238 48q196 0 355 -51l-72 -251q-152 46 -282 46
q-104 0 -164.5 -44.5t-60.5 -127.5q0 -34 20.5 -67.5t97.5 -60.5l137 -47q123 -42 182 -116t59 -198zM679 1440l-173 53l270 365l256 -91z" />
    <glyph glyph-name="sacute" unicode="&#x15b;" horiz-adv-x="827" 
d="M771 345q0 -185 -111 -275t-319 -90q-77 0 -172 12.5t-157 38.5l65 206q42 -15 114.5 -29.5t137.5 -14.5q84 0 124 23t40 80q0 33 -28 56t-163 60q-98 26 -145.5 75t-47.5 145q0 124 55 209.5t147.5 130t220.5 44.5q156 0 297 -36l-58 -210q-129 33 -232 33
q-78 0 -116.5 -24.5t-38.5 -83.5q0 -34 31.5 -56t138.5 -51q116 -32 166.5 -87t50.5 -156zM519 1081l-173 53l270 366l257 -92z" />
    <glyph glyph-name="Scircumflex" unicode="&#x15c;" horiz-adv-x="979" 
d="M341 1468l246 365h290l137 -365l-247 -13l-60 213l-123 -213zM938 457q0 -138 -51.5 -246.5t-171.5 -169.5t-308 -61q-94 0 -204.5 15.5t-197.5 48.5l76 247q167 -54 313 -54q120 0 182 36t62 130q0 50 -33 81t-138.5 69t-152.5 58q-166 68 -166 263q0 76 23.5 160
t87.5 164t169 128t238 48q196 0 355 -51l-72 -251q-152 46 -282 46q-104 0 -164.5 -44.5t-60.5 -127.5q0 -34 20.5 -67.5t97.5 -60.5l137 -47q123 -42 182 -116t59 -198z" />
    <glyph glyph-name="scircumflex" unicode="&#x15d;" horiz-adv-x="827" 
d="M192 1109l246 366h290l136 -366l-246 -12l-60 212l-123 -212zM771 345q0 -185 -111 -275t-319 -90q-77 0 -172 12.5t-157 38.5l65 206q42 -15 114.5 -29.5t137.5 -14.5q84 0 124 23t40 80q0 33 -28 56t-163 60q-98 26 -145.5 75t-47.5 145q0 124 55 209.5t147.5 130
t220.5 44.5q156 0 297 -36l-58 -210q-129 33 -232 33q-78 0 -116.5 -24.5t-38.5 -83.5q0 -34 31.5 -56t138.5 -51q116 -32 166.5 -87t50.5 -156z" />
    <glyph glyph-name="Scedilla" unicode="&#x15e;" horiz-adv-x="979" 
d="M938 457q0 -216 -119.5 -340.5t-369.5 -134.5l-21 -76q77 -9 121.5 -49t44.5 -111q0 -66 -38 -112.5t-108.5 -74t-169.5 -27.5q-78 0 -133 15l40 162q47 -11 88 -11q49 0 80.5 17.5t31.5 51.5q0 24 -20.5 37.5t-56.5 13.5h-60l59 166q-184 12 -302 60l76 247
q167 -54 313 -54q120 0 182 35.5t62 129.5q0 49 -37 83t-146.5 73.5t-134.5 49.5q-173 67 -173 266q0 76 23.5 160t88 164.5t169.5 128t238 47.5q196 0 355 -51l-72 -251q-152 46 -282 46q-103 0 -164 -44.5t-61 -127.5q0 -34 20.5 -67.5t97.5 -60.5l137 -47
q123 -42 182 -116t59 -198z" />
    <glyph glyph-name="scedilla" unicode="&#x15f;" horiz-adv-x="827" 
d="M771 345q0 -345 -389 -364l-21 -75q77 -9 121.5 -49t44.5 -111q0 -66 -37.5 -112.5t-108 -74t-169.5 -27.5q-78 0 -133 15l40 162q47 -11 88 -11q49 0 80.5 17.5t31.5 51.5q0 24 -20.5 37.5t-56.5 13.5h-61l61 166q-147 13 -230 47l65 206q42 -15 114.5 -29.5
t137.5 -14.5q84 0 124 23t40 80q0 33 -28 57t-163 59q-100 28 -147.5 80t-47.5 155q0 168 114 268.5t311 100.5q156 0 297 -36l-58 -210q-129 33 -232 33q-78 0 -116.5 -25t-38.5 -83q0 -29 26 -51.5t144 -55.5q116 -31 166.5 -86.5t50.5 -156.5z" />
    <glyph glyph-name="Scaron" unicode="&#x160;" horiz-adv-x="979" 
d="M1062 1828l-251 -366h-291l-142 366l247 11l65 -211l128 211zM938 457q0 -138 -51.5 -246.5t-171.5 -169.5t-308 -61q-94 0 -204.5 15.5t-197.5 48.5l76 247q167 -54 313 -54q120 0 182 36t62 130q0 50 -33 81t-138.5 69t-152.5 58q-166 68 -166 263q0 76 23.5 160
t87.5 164t169 128t238 48q196 0 355 -51l-72 -251q-152 46 -282 46q-104 0 -164.5 -44.5t-60.5 -127.5q0 -34 20.5 -67.5t97.5 -60.5l137 -47q123 -42 182 -116t59 -198z" />
    <glyph glyph-name="scaron" unicode="&#x161;" horiz-adv-x="827" 
d="M920 1469l-252 -366h-290l-142 366l247 12l65 -211l129 211zM771 345q0 -185 -111 -275t-319 -90q-77 0 -172 12.5t-157 38.5l65 206q42 -15 114.5 -29.5t137.5 -14.5q84 0 124 23t40 80q0 33 -28 56t-163 60q-98 26 -145.5 75t-47.5 145q0 124 55 209.5t147.5 130
t220.5 44.5q156 0 297 -36l-58 -210q-129 33 -232 33q-78 0 -116.5 -24.5t-38.5 -83.5q0 -34 31.5 -56t138.5 -51q116 -32 166.5 -87t50.5 -156z" />
    <glyph glyph-name="Tcommaaccent" unicode="&#x162;" horiz-adv-x="1023" 
d="M306 0l165 1105h-336l37 249h974l-38 -249h-335l-165 -1105h-103l-25 -94q76 -9 120.5 -49t44.5 -111q0 -66 -38 -112.5t-108.5 -74t-169.5 -27.5q-75 0 -133 15l40 162q50 -11 89 -11q49 0 80.5 17.5t31.5 51.5q0 24 -21 37.5t-57 13.5h-60l66 182h-59z" />
    <glyph glyph-name="tcommaaccent" unicode="&#x163;" horiz-adv-x="684" 
d="M82 773l34 223h132l56 278h261l-41 -278h201l-33 -223h-196l-66 -448q-8 -54 9.5 -82.5t70.5 -28.5q52 0 117 13l-17 -221q-89 -26 -222 -26l-19 -74q76 -9 120.5 -49t44.5 -111q0 -66 -38 -112.5t-108.5 -74t-169.5 -27.5q-75 0 -133 15l41 162q47 -11 88 -11
q48 0 80 17.5t32 51.5q0 24 -21 37.5t-57 13.5h-60l67 183q-120 48 -116 195q0 45 4.5 107t15 144.5t28.5 196t20 129.5h-125z" />
    <glyph glyph-name="Tcaron" unicode="&#x164;" horiz-adv-x="1023" 
d="M306 0l165 1105h-336l37 249h974l-38 -249h-335l-165 -1105h-302zM1071 1828l-251 -366h-290l-142 366l246 11l65 -211l129 211z" />
    <glyph glyph-name="tcaron" unicode="&#x165;" horiz-adv-x="775" 
d="M82 773l34 223h132l56 278h261l-41 -278h201l-33 -223h-196l-66 -448q-8 -54 9.5 -82.5t70.5 -28.5q52 0 117 13l-17 -221q-95 -26 -215 -26q-129 0 -197 57.5t-64 175.5q3 52 9.5 117.5t17.5 143t26.5 175.5t19.5 124h-125zM709 1666h246l-96 -539h-215z" />
    <glyph glyph-name="Tbar" unicode="&#x166;" horiz-adv-x="1023" 
d="M237 658l23 157h168l43 290h-336l37 249h974l-38 -249h-335l-44 -290h167l-24 -157h-166l-98 -658h-302l99 658h-168z" />
    <glyph glyph-name="tbar" unicode="&#x167;" horiz-adv-x="684" 
d="M524 996h201l-33 -223h-196l-23 -158h177l-24 -157h-177l-20 -136q-8 -53 10 -80.5t71 -27.5q52 0 117 13l-17 -221q-95 -26 -215 -26q-284 0 -264 256q5 72 14 125l14 97h-121l23 157h122l24 158h-125l34 223h132l56 278h261z" />
    <glyph glyph-name="Utilde" unicode="&#x168;" horiz-adv-x="1220" 
d="M951 1354h302l-140 -936q-31 -205 -180.5 -321.5t-380.5 -116.5q-113 0 -201.5 30t-144.5 86.5t-77.5 138.5t-6.5 183l140 936h300l-140 -938q-13 -84 32.5 -137t134.5 -53q88 0 149 52.5t74 137.5zM701 1785q47 0 119.5 -30t103.5 -30q58 0 125 69l117 -95
q-16 -34 -51.5 -82t-93 -86.5t-123.5 -38.5q-47 0 -119 29.5t-103 29.5q-60 0 -126 -69l-117 94q45 94 118 151.5t150 57.5z" />
    <glyph glyph-name="utilde" unicode="&#x169;" horiz-adv-x="1097" 
d="M922 0h-249l2 106q-186 -126 -348 -126q-131 0 -191.5 74.5t-39.5 214.5l108 727h290l-95 -638q-19 -119 89 -119q39 0 90 19t101 53l102 685h290zM581 1426q47 0 119 -29.5t103 -29.5q59 0 125 68l117 -94q-16 -34 -51 -82t-93 -87t-124 -39q-47 0 -119 29.5t-102 29.5
q-59 0 -127 -68l-117 93q16 34 51.5 83t93 87.5t124.5 38.5z" />
    <glyph glyph-name="Umacron" unicode="&#x16a;" horiz-adv-x="1220" 
d="M951 1354h302l-140 -936q-31 -205 -180.5 -321.5t-380.5 -116.5q-113 0 -201.5 30t-144.5 86.5t-77.5 138.5t-6.5 183l140 936h300l-140 -938q-13 -84 32.5 -137t134.5 -53q88 0 149 52.5t74 137.5zM478 1527l33 223h611l-33 -223h-611z" />
    <glyph glyph-name="umacron" unicode="&#x16b;" horiz-adv-x="1097" 
d="M922 0h-249l2 106q-186 -126 -348 -126q-131 0 -191.5 74.5t-39.5 214.5l108 727h290l-95 -638q-19 -119 89 -119q39 0 90 19t101 53l102 685h290zM362 1169l34 223h610l-33 -223h-611z" />
    <glyph glyph-name="Ubreve" unicode="&#x16c;" horiz-adv-x="1220" 
d="M951 1354h302l-140 -936q-31 -205 -180.5 -321.5t-380.5 -116.5q-113 0 -201.5 30t-144.5 86.5t-77.5 138.5t-6.5 183l140 936h300l-140 -938q-13 -84 32.5 -137t134.5 -53q88 0 149 52.5t74 137.5zM508 1802h223q-6 -53 11.5 -86t63.5 -33q89 0 112 119h223
q-22 -148 -119.5 -236t-245.5 -88q-149 0 -220 87.5t-48 236.5z" />
    <glyph glyph-name="ubreve" unicode="&#x16d;" horiz-adv-x="1097" 
d="M922 0h-249l2 106q-186 -126 -348 -126q-131 0 -191.5 74.5t-39.5 214.5l108 727h290l-95 -638q-19 -119 89 -119q39 0 90 19t101 53l102 685h290zM392 1444h223q-6 -53 12 -86.5t64 -33.5t73.5 33.5t37.5 86.5h224q-23 -149 -120 -237t-246 -88t-220 88t-48 237z" />
    <glyph glyph-name="Uring" unicode="&#x16e;" horiz-adv-x="1220" 
d="M951 1354h302l-140 -936q-31 -205 -180.5 -321.5t-380.5 -116.5q-113 0 -201.5 30t-144.5 86.5t-77.5 138.5t-6.5 183l140 936h300l-140 -938q-13 -84 32.5 -137t134.5 -53q88 0 149 52.5t74 137.5zM547 1624q0 114 81 186.5t210 72.5q101 0 160.5 -52.5t59.5 -139.5
q0 -115 -81 -187t-212 -72q-100 0 -159 52.5t-59 139.5zM723 1647q0 -29 18.5 -48t49.5 -19q39 0 65 25t26 63q0 29 -18.5 48t-49.5 19q-38 0 -64.5 -25.5t-26.5 -62.5z" />
    <glyph glyph-name="uring" unicode="&#x16f;" horiz-adv-x="1097" 
d="M922 0h-249l2 106q-186 -126 -348 -126q-131 0 -191.5 74.5t-39.5 214.5l108 727h290l-95 -638q-19 -119 89 -119q39 0 90 19t101 53l102 685h290zM439 1265q0 115 80.5 187.5t210.5 72.5q101 0 160.5 -53t59.5 -140q0 -114 -81 -186t-212 -72q-100 0 -159 52t-59 139z
M614 1289q0 -29 19 -48t49 -19q39 0 65.5 25t26.5 62q0 30 -18.5 48.5t-49.5 18.5q-38 0 -65 -25t-27 -62z" />
    <glyph glyph-name="Uhungarumlaut" unicode="&#x170;" horiz-adv-x="1220" 
d="M951 1354h302l-140 -936q-31 -205 -180.5 -321.5t-380.5 -116.5q-113 0 -201.5 30t-144.5 86.5t-77.5 138.5t-6.5 183l140 936h300l-140 -938q-13 -84 32.5 -137t134.5 -53q88 0 149 52.5t74 137.5zM672 1446l-180 26l153 405l250 -50zM1005 1446l-180 29l206 398
l262 -60z" />
    <glyph glyph-name="uhungarumlaut" unicode="&#x171;" horiz-adv-x="1097" 
d="M918 1515l262 -61l-287 -366l-181 28zM96 269l108 727h290l-95 -638q-19 -119 89 -119q39 0 90 19t101 53l102 685h290l-149 -996h-249l2 106q-186 -126 -348 -126q-131 0 -191.5 74.5t-39.5 214.5zM532 1519l251 -50l-224 -381l-180 26z" />
    <glyph glyph-name="Uogonek" unicode="&#x172;" horiz-adv-x="1220" 
d="M951 1354h302l-140 -936q-24 -163 -125 -271.5t-260 -146.5q-190 -122 -190 -225q0 -29 18 -45t49 -16q52 0 89 13l-11 -176q-55 -19 -135 -19q-107 0 -169 41.5t-62 126.5q0 153 212 281q-108 3 -191.5 34t-136.5 87.5t-73.5 137t-5.5 178.5l140 936h300l-140 -938
q-13 -84 32.5 -137t134.5 -53q88 0 149 52.5t74 137.5z" />
    <glyph glyph-name="uogonek" unicode="&#x173;" horiz-adv-x="1097" 
d="M922 0q-189 -122 -189 -225q0 -29 18 -45t49 -16q52 0 89 13l-11 -176q-57 -19 -136 -19q-107 0 -169 41.5t-62 126.5q0 166 246 300h-84l2 106q-186 -126 -348 -126q-131 0 -191.5 74.5t-39.5 214.5l108 727h290l-95 -638q-19 -119 89 -119q39 0 90 19t101 53l102 685
h290z" />
    <glyph glyph-name="Wcircumflex" unicode="&#x174;" horiz-adv-x="1745" 
d="M1546 1354h321l-490 -1354h-389l-42 865l-299 -865h-389l-85 1354h319l40 -1045l341 1025h287l38 -1025zM700 1468l245 365h291l136 -365l-246 -13l-60 213l-123 -213z" />
    <glyph glyph-name="wcircumflex" unicode="&#x175;" horiz-adv-x="1496" 
d="M521 1109l246 366h290l136 -366l-246 -12l-60 212l-124 -212zM1282 996h300q-57 -221 -170.5 -475.5t-285.5 -520.5h-289l-71 527q-115 -281 -247 -527h-296l-119 996h296l49 -724q160 359 258 708h263l50 -708q156 344 262 724z" />
    <glyph glyph-name="Ycircumflex" unicode="&#x176;" horiz-adv-x="1119" 
d="M932 1354h308l-514 -871l-72 -483h-300l71 483l-252 871h308l139 -579zM387 1468l246 365h290l137 -365l-247 -13l-60 213l-123 -213z" />
    <glyph glyph-name="ycircumflex" unicode="&#x177;" horiz-adv-x="1032" 
d="M278 1109l245 366h291l136 -366l-246 -12l-60 212l-123 -212zM98 996h301l94 -838q181 397 285 838h308q-83 -317 -183.5 -578t-227.5 -460.5t-286.5 -312.5t-348.5 -113q-154 0 -250 42l61 230q31 -12 86 -22t112 -10q97 0 189.5 59t140.5 133h-144z" />
    <glyph glyph-name="Ydieresis" unicode="&#x178;" horiz-adv-x="1119" 
d="M932 1354h308l-514 -871l-72 -483h-300l71 483l-252 871h308l139 -579zM804 1613q0 86 47 131.5t135 45.5q137 0 137 -121q0 -86 -47 -131.5t-134 -45.5q-138 0 -138 121zM375 1613q0 86 47 131.5t135 45.5q137 0 137 -121q0 -86 -46.5 -131.5t-134.5 -45.5
q-138 0 -138 121z" />
    <glyph glyph-name="Zacute" unicode="&#x179;" horiz-adv-x="1025" 
d="M193 1104l37 250h854l-33 -222l-666 -882h562l-37 -250h-909l33 222l666 882h-507zM685 1440l-173 53l270 365l257 -91z" />
    <glyph glyph-name="zacute" unicode="&#x17a;" horiz-adv-x="832" 
d="M560 1081l-174 53l270 366l257 -92zM133 779l32 217h699l-31 -201l-490 -582q87 0 210.5 -8t224.5 -28l-66 -227q-100 21 -242.5 35.5t-283.5 14.5h-183l30 197l486 582h-386z" />
    <glyph glyph-name="Zdotaccent" unicode="&#x17b;" horiz-adv-x="1025" 
d="M193 1104l37 250h854l-33 -222l-666 -882h562l-37 -250h-909l33 222l666 882h-507zM539 1613q0 86 47 131.5t135 45.5q137 0 137 -121q0 -86 -47.5 -131.5t-134.5 -45.5q-137 0 -137 121z" />
    <glyph glyph-name="zdotaccent" unicode="&#x17c;" horiz-adv-x="831" 
d="M388 1255q0 86 47 131.5t135 45.5q137 0 137 -122q0 -86 -47 -131.5t-135 -45.5q-66 0 -101.5 31t-35.5 91zM133 779l32 217h699l-31 -201l-490 -582q87 0 210.5 -8t224.5 -28l-66 -227q-100 21 -242.5 35.5t-283.5 14.5h-183l30 197l486 582h-386z" />
    <glyph glyph-name="Zcaron" unicode="&#x17d;" horiz-adv-x="1025" 
d="M193 1104l37 250h854l-33 -222l-666 -882h562l-37 -250h-909l33 222l666 882h-507zM1072 1828l-251 -366h-291l-142 366l247 11l66 -211l128 211z" />
    <glyph glyph-name="zcaron" unicode="&#x17e;" horiz-adv-x="831" 
d="M923 1469l-251 -366h-291l-141 366l246 12l65 -211l129 211zM133 779l32 217h699l-31 -201l-490 -582q87 0 210.5 -8t224.5 -28l-66 -227q-100 21 -242.5 35.5t-283.5 14.5h-183l30 197l486 582h-386z" />
    <glyph glyph-name="uni018F" unicode="&#x18f;" horiz-adv-x="1104" 
d="M1101 915l-71 -476q-33 -220 -184.5 -339.5t-374.5 -119.5q-187 0 -290 98.5t-103 287.5q0 81 29 214t51 198h625l16 105q17 113 -42.5 178t-182.5 65q-28 0 -64.5 -1.5t-79.5 -6.5t-81 -11.5t-72 -14t-40 -8.5l-4 235q193 55 404 55q256 0 377 -118t87 -341zM503 219
q97 0 156 63t76 171l16 108h-379q-26 -147 -26 -170q0 -79 40 -125.5t117 -46.5z" />
    <glyph glyph-name="florin" unicode="&#x192;" horiz-adv-x="1042" 
d="M209 566l33 224h183l84 259q105 323 458 323q102 0 173 -22l-82 -222q-66 12 -112 12q-65 0 -103.5 -33.5t-65.5 -120.5l-62 -196h204l-33 -224h-244l-200 -624q-64 -199 -177 -303.5t-298 -105.5q-99 0 -177 23l85 222q63 -12 105 -12q62 0 99.5 32.5t64.5 115.5
l208 652h-143z" />
    <glyph glyph-name="uni019D" unicode="&#x19d;" horiz-adv-x="1269" 
d="M796 0l-310 856l-103 -688q-21 -128 -49 -231q-36 -126 -124.5 -221.5t-270.5 -183.5l-99 187q127 79 173.5 150t59.5 158l198 1327h294l310 -856l129 856h288l-202 -1354h-294z" />
    <glyph glyph-name="Gcaron" unicode="&#x1e6;" horiz-adv-x="1084" 
d="M1051 679l-93 -623q-80 -33 -197 -54.5t-233 -21.5q-163 0 -271 65t-144 170.5t-18 231.5l67 443q19 131 91.5 240t211 176.5t318.5 67.5q79 0 172 -15t166 -47l-80 -241q-48 19 -120.5 34t-143.5 15q-131 0 -214.5 -65.5t-101.5 -181.5l-62 -417q-17 -112 35.5 -170
t163.5 -58q67 0 126 17l64 434h263zM1149 1828l-251 -366h-290l-142 366l246 11l66 -211l128 211z" />
    <glyph glyph-name="gcaron" unicode="&#x1e7;" horiz-adv-x="1056" 
d="M1044 1469l-251 -366h-291l-141 366l246 12l66 -211l129 211zM628 -14l13 90q-149 -96 -285 -96q-103 0 -171 52t-95.5 135.5t-10.5 194.5l34 227q19 127 80.5 219.5t170.5 150t268 57.5q126 0 235.5 -18.5t183.5 -47.5l-140 -934q-36 -241 -179 -362.5t-407 -121.5
q-75 0 -161 12t-150 36l61 230q123 -41 251 -41q143 0 214 53t88 164zM488 220q87 0 174 66l71 470q-70 22 -138 22q-72 0 -124.5 -44t-66.5 -139l-30 -196q-26 -179 114 -179z" />
    <glyph glyph-name="uni01EA" unicode="&#x1ea;" horiz-adv-x="1183" 
d="M94 436l72 482q12 81 48.5 162.5t106 146t174.5 106t246 41.5q233 0 353 -118.5t88 -337.5l-72 -482q-26 -174 -131 -285.5t-267 -150.5q-189 -122 -189 -225q0 -29 18 -45t49 -16q52 0 89 13l-11 -176q-55 -19 -136 -19q-107 0 -169 41.5t-62 126.5q0 153 212 281
q-223 5 -337 122.5t-82 332.5zM469 925l-65 -434q-21 -142 23.5 -209t141.5 -67q96 0 160.5 67.5t85.5 208.5l56 372q21 141 -23.5 208t-141.5 67q-98 0 -160 -56.5t-77 -156.5z" />
    <glyph glyph-name="uni01EB" unicode="&#x1eb;" horiz-adv-x="1065" 
d="M84 399l30 197q11 74 43.5 149.5t95 135t156 97.5t219.5 38q100 0 179.5 -27t131 -80.5t72 -133t5.5 -179.5l-30 -197q-23 -157 -115 -259t-233 -140h1q-189 -122 -189 -225q0 -29 18 -45t50 -16q51 0 88 13l-11 -176q-55 -19 -136 -19q-106 0 -168 41.5t-62 126.5
q0 155 210 281q-191 9 -287.5 117t-67.5 301zM405 608l-30 -205q-14 -89 18.5 -141t113.5 -52t129 52t61 141l28 189q13 88 -19 141t-112 53q-77 0 -127 -48t-62 -130z" />
    <glyph glyph-name="Aringacute" unicode="&#x1fa;" horiz-adv-x="1213" 
d="M1138 0h-320l-28 288h-391l-113 -288h-321l575 1354h429zM719 1126l-237 -603h296zM557 1601q0 107 75.5 175.5t199.5 68.5q93 0 147 -49.5t54 -128.5q0 -107 -75 -175.5t-201 -68.5q-91 0 -145.5 49.5t-54.5 128.5zM720 1621q0 -28 17 -45.5t44 -17.5q41 0 65.5 25.5
t24.5 63.5q0 27 -17 44.5t-45 17.5q-39 0 -64 -25t-25 -63zM881 1891l-181 36l195 276l271 -67z" />
    <glyph glyph-name="aringacute" unicode="&#x1fb;" horiz-adv-x="1084" 
d="M442 1251q0 106 75.5 174.5t199.5 68.5q93 0 147 -49t54 -129q0 -107 -75 -175.5t-201 -68.5q-91 0 -145.5 50t-54.5 129zM606 1271q0 -28 16.5 -45.5t43.5 -17.5q41 0 65.5 25t24.5 63q0 27 -17 44.5t-45 17.5q-40 0 -64 -25t-24 -62zM766 1540l-181 36l195 276l271 -67
zM79 362l34 227q19 127 80.5 219.5t170.5 150t268 57.5q126 0 235.5 -18.5t183.5 -47.5l-142 -950h-248v96q-167 -116 -310 -116q-104 0 -170.5 53t-92.5 136.5t-9 192.5zM488 220q87 0 174 66l71 470q-70 22 -138 22q-72 0 -124.5 -44t-66.5 -139l-30 -196
q-26 -179 114 -179z" />
    <glyph glyph-name="AEacute" unicode="&#x1fc;" horiz-adv-x="1613" 
d="M826 0l3 282h-396l-147 -282h-321l748 1354h977l-38 -253h-511l5 -302h441l-36 -237h-416l4 -309h406l-37 -253h-682zM848 1091l-303 -574h295zM1106 1440l-173 53l270 365l256 -91z" />
    <glyph glyph-name="aeacute" unicode="&#x1fd;" horiz-adv-x="1481" 
d="M861 1081l-174 53l270 366l257 -92zM35 219q0 108 51 183.5t142 118.5t210 43h169l9 65q13 81 -23.5 114t-119.5 33q-126 0 -285 -47l-3 227q68 22 167 41t198 19q184 0 253 -94q118 94 284 94q189 0 284 -112.5t65 -314.5l-9 -63l-21 -107h-552l-5 -32
q-26 -175 193 -175q133 0 302 35l-10 -218q-173 -49 -370 -49q-113 0 -198.5 35.5t-133.5 103.5q-70 -57 -162 -98t-181 -41q-118 0 -186 60.5t-68 178.5zM884 620l-7 -48h287l6 40q28 185 -116 185q-142 0 -170 -177zM580 381l4 25h-138q-64 0 -101.5 -37.5t-37.5 -100.5
q0 -42 23 -67t60 -25q91 0 191 70q-11 62 -1 135z" />
    <glyph glyph-name="Oslashacute" unicode="&#x1fe;" horiz-adv-x="1183" 
d="M811 1447l-185 53l249 366l253 -92zM94 436l72 482q12 81 48.5 162.5t106 146t174.5 106t246 41.5q92 0 170 -26l142 249h166l-176 -307q86 -56 122 -150.5t17 -221.5l-72 -482q-12 -81 -48.5 -162.5t-106 -146.5t-175 -106t-247.5 -41q-97 0 -178 26l-140 -248h-165
l174 310q-167 115 -130 368zM469 925l-65 -434q-21 -142 23.5 -209t141.5 -67q96 0 160.5 67.5t85.5 208.5l56 372q21 141 -23.5 208t-141.5 67q-98 0 -160 -56.5t-77 -156.5z" />
    <glyph glyph-name="oslashacute" unicode="&#x1ff;" horiz-adv-x="1061" 
d="M688 1089l-186 53l251 366l252 -92zM1046 1238l-164 -287q83 -51 117.5 -141t16.5 -214l-30 -197q-11 -74 -43.5 -149t-94.5 -134.5t-155.5 -97.5t-219.5 -38q-67 0 -124 15l-130 -237h-160l160 287q-83 50 -118 139.5t-17 214.5l30 197q30 201 169 310.5t345 109.5
q64 0 123 -14l136 236h159zM405 608l-30 -205q-14 -89 18.5 -141t113.5 -52t129 52t61 141l28 189q13 88 -19 141t-112 53q-77 0 -127 -48t-62 -130z" />
    <glyph glyph-name="Scommaaccent" unicode="&#x218;" horiz-adv-x="979" 
d="M315 -93h251l-16 -68q-23 -108 -77.5 -207.5t-111.5 -157.5h-185q41 73 77 169t50 183zM938 457q0 -138 -51.5 -246.5t-171.5 -169.5t-308 -61q-94 0 -204.5 15.5t-197.5 48.5l76 247q167 -54 313 -54q120 0 182 36t62 130q0 50 -33 81t-138.5 69t-152.5 58
q-166 68 -166 263q0 76 23.5 160t87.5 164t169 128t238 48q196 0 355 -51l-72 -251q-152 46 -282 46q-104 0 -164.5 -44.5t-60.5 -127.5q0 -34 20.5 -67.5t97.5 -60.5l137 -47q123 -42 182 -116t59 -198z" />
    <glyph glyph-name="scommaaccent" unicode="&#x219;" horiz-adv-x="827" 
d="M226 -93h252l-16 -68q-18 -81 -66.5 -184.5t-122.5 -180.5h-185q41 75 77 170.5t49 181.5zM771 345q0 -185 -111 -275t-319 -90q-77 0 -172 12.5t-157 38.5l65 206q42 -15 114.5 -29.5t137.5 -14.5q84 0 124 23t40 80q0 33 -28 56t-163 60q-98 26 -145.5 75t-47.5 145
q0 124 55 209.5t147.5 130t220.5 44.5q156 0 297 -36l-58 -210q-129 33 -232 33q-78 0 -116.5 -24.5t-38.5 -83.5q0 -34 31.5 -56t138.5 -51q116 -32 166.5 -87t50.5 -156z" />
    <glyph glyph-name="uni021A" unicode="&#x21a;" horiz-adv-x="1023" 
d="M306 0l165 1105h-336l37 249h974l-38 -249h-335l-165 -1105h-302zM321 -93h252l-14 -62q-23 -109 -78 -210.5t-113 -160.5h-185q40 74 76 169.5t50 182.5z" />
    <glyph glyph-name="uni021B" unicode="&#x21b;" horiz-adv-x="684" 
d="M82 773l34 223h132l56 278h261l-41 -278h201l-33 -223h-196l-66 -448q-8 -54 9.5 -82.5t70.5 -28.5q52 0 117 13l-17 -221q-95 -26 -215 -26q-129 0 -197 57.5t-64 175.5q3 52 9.5 117.5t17.5 143t26.5 175.5t19.5 124h-125zM226 -93h253l-16 -68q-23 -107 -78 -206.5
t-111 -158.5h-185q41 74 76.5 170t48.5 182z" />
    <glyph glyph-name="uni0237" unicode="&#x237;" horiz-adv-x="530" 
d="M214 996h290l-160 -1072l-23 -120q-31 -142 -113 -207t-232 -65q-84 0 -158 20l49 229q40 -10 87 -10q77 0 93 112l10 64z" />
    <glyph glyph-name="uni0259" unicode="&#x259;" horiz-adv-x="991" 
d="M948 599l-29 -193q-11 -74 -42.5 -149.5t-90.5 -136.5t-147.5 -100.5t-207.5 -39.5q-106 0 -180 49t-117 145t-43 239q0 9 1.5 36t9.5 71.5t9 50.5h552l5 38q14 86 -34.5 130.5t-157.5 44.5q-133 0 -302 -35l10 218q173 49 370 49q100 0 180.5 -27t133.5 -80t74 -132
t6 -178zM464 199q143 0 171 184l5 35h-288l-4 -35q-28 -184 116 -184z" />
    <glyph glyph-name="uni0272" unicode="&#x272;" horiz-adv-x="1106" 
d="M214 996h249l-2 -106q191 126 351 126q132 0 193.5 -74.5t40.5 -214.5l-109 -727h-290l96 637q17 120 -92 120q-40 0 -92 -19t-102 -53l-101 -678q-23 -154 -117.5 -266t-304.5 -209l-99 188q114 71 166.5 139t67.5 168z" />
    <glyph glyph-name="circumflex" unicode="&#x2c6;" horiz-adv-x="809" 
d="M179 1109l246 366h290l136 -366l-246 -12l-60 212l-123 -212z" />
    <glyph glyph-name="caron" unicode="&#x2c7;" horiz-adv-x="820" 
d="M916 1469l-251 -366h-290l-142 366l246 12l66 -211l129 211z" />
    <glyph glyph-name="breve" unicode="&#x2d8;" horiz-adv-x="770" 
d="M229 1444h223q-6 -53 12 -86.5t64 -33.5q47 0 74.5 33.5t37.5 86.5h222q-22 -149 -119 -237t-246 -88q-148 0 -219 88t-49 237z" />
    <glyph glyph-name="dotaccent" unicode="&#x2d9;" horiz-adv-x="450" 
d="M202 1255q0 86 47 131.5t135 45.5q138 0 138 -122q0 -86 -47.5 -131.5t-134.5 -45.5q-138 0 -138 122z" />
    <glyph glyph-name="ring" unicode="&#x2da;" horiz-adv-x="641" 
d="M204 1265q0 115 81 187.5t211 72.5q101 0 160 -53t59 -140q0 -115 -81 -186.5t-211 -71.5q-100 0 -159.5 52.5t-59.5 138.5zM380 1289q0 -29 18.5 -48t48.5 -19q39 0 65.5 25t26.5 62q0 30 -18.5 48.5t-48.5 18.5q-39 0 -65.5 -25t-26.5 -62z" />
    <glyph glyph-name="ogonek" unicode="&#x2db;" horiz-adv-x="536" 
d="M352 60l26 -60q-188 -123 -188 -225q0 -29 18 -45t49 -16q52 0 89 13l-11 -176q-57 -19 -135 -19q-107 0 -169.5 41.5t-62.5 126.5q0 61 38.5 124t127 126t218.5 110z" />
    <glyph glyph-name="tilde" unicode="&#x2dc;" horiz-adv-x="852" 
d="M464 1426q47 0 119 -29.5t103 -29.5q59 0 125 68l118 -94q-16 -34 -51.5 -82.5t-93.5 -87t-124 -38.5q-47 0 -119 29.5t-102 29.5q-59 0 -127 -68l-117 93q16 34 51.5 83t93 87.5t124.5 38.5z" />
    <glyph glyph-name="hungarumlaut" unicode="&#x2dd;" horiz-adv-x="888" 
d="M360 1088l-180 26l153 405l250 -50zM693 1088l-180 28l206 399l262 -61z" />
    <glyph glyph-name="acutecomb" unicode="&#x301;" horiz-adv-x="571" 
d="M361 1038l-181 36l194 276l271 -67z" />
    <glyph glyph-name="dotbelowcomb" unicode="&#x323;" horiz-adv-x="450" 
d="M-33 -322q0 86 47 131.5t135 45.5q137 0 137 -121q0 -86 -47 -131.5t-135 -45.5q-137 0 -137 121z" />
    <glyph glyph-name="uni0E3F" unicode="&#xe3f;" horiz-adv-x="1117" 
d="M565 1522h262l-57 -280q144 -10 217.5 -76t73.5 -180q0 -92 -47 -169t-152 -120q73 -29 117.5 -90.5t44.5 -142.5q0 -159 -106.5 -252t-310.5 -102l-27 -278h-262l57 276h-271l169 1137h265zM736 474q0 55 -35.5 86.5t-96.5 31.5h-154l-43 -287h156q80 0 126.5 46.5
t46.5 122.5zM640 786q67 0 104 44t37 112q0 46 -25 73.5t-74 30.5l-53 2h-111l-39 -262h161z" />
    <glyph glyph-name="Wgrave" unicode="&#x1e80;" horiz-adv-x="1745" 
d="M1546 1354h321l-490 -1354h-389l-42 865l-299 -865h-389l-85 1354h319l40 -1045l341 1025h287l38 -1025zM1178 1493l-189 -53l-257 327l285 91z" />
    <glyph glyph-name="wgrave" unicode="&#x1e81;" horiz-adv-x="1496" 
d="M999 1134l-190 -53l-255 327l284 92zM1282 996h300q-57 -221 -170.5 -475.5t-285.5 -520.5h-289l-71 527q-115 -281 -247 -527h-296l-119 996h296l49 -724q160 359 258 708h263l50 -708q156 344 262 724z" />
    <glyph glyph-name="Wacute" unicode="&#x1e82;" horiz-adv-x="1745" 
d="M1546 1354h321l-490 -1354h-389l-42 865l-299 -865h-389l-85 1354h319l40 -1045l341 1025h287l38 -1025zM1072 1440l-173 53l270 365l257 -91z" />
    <glyph glyph-name="wacute" unicode="&#x1e83;" horiz-adv-x="1496" 
d="M889 1081l-173 53l270 366l257 -92zM1282 996h300q-57 -221 -170.5 -475.5t-285.5 -520.5h-289l-71 527q-115 -281 -247 -527h-296l-119 996h296l49 -724q160 359 258 708h263l50 -708q156 344 262 724z" />
    <glyph glyph-name="Wdieresis" unicode="&#x1e84;" horiz-adv-x="1745" 
d="M1546 1354h321l-490 -1354h-389l-42 865l-299 -865h-389l-85 1354h319l40 -1045l341 1025h287l38 -1025zM696 1613q0 86 47 131.5t135 45.5q66 0 101.5 -31t35.5 -90q0 -86 -47 -131.5t-135 -45.5q-137 0 -137 121zM1125 1613q0 86 47 131.5t135 45.5q137 0 137 -121
q0 -86 -47 -131.5t-134 -45.5q-138 0 -138 121z" />
    <glyph glyph-name="wdieresis" unicode="&#x1e85;" horiz-adv-x="1496" 
d="M509 1255q0 86 47 131.5t135 45.5q137 0 137 -122q0 -86 -47.5 -131.5t-134.5 -45.5q-66 0 -101.5 31t-35.5 91zM938 1255q0 86 47 131.5t135 45.5q137 0 137 -122q0 -86 -47 -131.5t-135 -45.5q-66 0 -101.5 31t-35.5 91zM1282 996h300q-57 -221 -170.5 -475.5
t-285.5 -520.5h-289l-71 527q-115 -281 -247 -527h-296l-119 996h296l49 -724q160 359 258 708h263l50 -708q156 344 262 724z" />
    <glyph glyph-name="uni1E9E" unicode="&#x1e9e;" horiz-adv-x="1264" 
d="M1234 427q0 -210 -127.5 -328.5t-366.5 -118.5q-166 0 -290 42l63 246q117 -34 233 -34q89 0 142 39.5t53 122.5q0 49 -35.5 89t-131.5 71l-165 52l315 472q-83 43 -182 43q-104 0 -173 -56.5t-84 -155.5l-136 -911h-290l143 954q29 190 180.5 305t377.5 115
q151 0 289 -49.5t226 -136.5l-305 -437l25 -10q119 -48 179 -124t60 -190z" />
    <glyph glyph-name="uni1EA0" unicode="&#x1ea0;" horiz-adv-x="1213" 
d="M1138 0h-320l-28 288h-391l-113 -288h-321l575 1354h429zM719 1126l-237 -603h296zM348 -322q0 86 47 131.5t134 45.5q137 0 137 -121q0 -86 -46.5 -131.5t-134.5 -45.5q-137 0 -137 121z" />
    <glyph glyph-name="uni1EA1" unicode="&#x1ea1;" horiz-adv-x="1084" 
d="M304 -322q0 86 47 131.5t135 45.5q137 0 137 -121q0 -86 -47 -131.5t-135 -45.5q-137 0 -137 121zM79 362l34 227q19 127 80.5 219.5t170.5 150t268 57.5q126 0 235.5 -18.5t183.5 -47.5l-142 -950h-248v96q-167 -116 -310 -116q-104 0 -170.5 53t-92.5 136.5t-9 192.5z
M488 220q87 0 174 66l71 470q-70 22 -138 22q-72 0 -124.5 -44t-66.5 -139l-30 -196q-26 -179 114 -179z" />
    <glyph glyph-name="uni1EB8" unicode="&#x1eb8;" horiz-adv-x="1011" 
d="M69 0l202 1354h817l-37 -253h-516l-45 -302h496l-35 -237h-497l-46 -309h536l-38 -253h-837zM298 -322q0 86 47 131.5t135 45.5q66 0 101.5 -31t35.5 -90q0 -86 -47 -131.5t-135 -45.5q-137 0 -137 121z" />
    <glyph glyph-name="uni1EB9" unicode="&#x1eb9;" horiz-adv-x="981" 
d="M242 -322q0 86 47.5 131.5t134.5 45.5q137 0 137 -121q0 -86 -47 -131.5t-134 -45.5q-138 0 -138 121zM78 397l30 193q11 74 43 149.5t92.5 136.5t152.5 100.5t216 39.5q167 0 264 -78.5t97 -208.5q0 -167 -105.5 -247.5t-343.5 -80.5q-91 0 -162 12l-4 -26
q-26 -175 193 -175q133 0 295 35l-9 -218q-173 -49 -365 -49q-74 0 -150 18t-136 64.5t-93 128.5t-15 206zM393 620l-7 -49q62 -12 118 -12q94 0 141.5 29.5t47.5 105.5q0 47 -31 75t-91 28q-152 0 -178 -177z" />
    <glyph glyph-name="uni1EBC" unicode="&#x1ebc;" horiz-adv-x="1011" 
d="M69 0l202 1354h817l-37 -253h-516l-45 -302h496l-35 -237h-497l-46 -309h536l-38 -253h-837zM631 1785q47 0 119 -30t103 -30q59 0 126 69l117 -95q-16 -34 -51.5 -82t-93 -86.5t-123.5 -38.5q-47 0 -119.5 29.5t-102.5 29.5q-60 0 -126 -69l-117 94q45 94 118 151.5
t150 57.5z" />
    <glyph glyph-name="uni1EBD" unicode="&#x1ebd;" horiz-adv-x="984" 
d="M531 1426q47 0 119 -29.5t103 -29.5q59 0 125 68l117 -94q-16 -34 -51 -82t-93 -87t-124 -39q-47 0 -119 29.5t-102 29.5q-59 0 -127 -68l-117 93q45 94 118.5 151.5t150.5 57.5zM78 397l30 193q11 74 43 149.5t92.5 136.5t152.5 100.5t216 39.5q167 0 264 -78.5
t97 -208.5q0 -167 -105.5 -247.5t-343.5 -80.5q-91 0 -162 12l-4 -26q-26 -175 193 -175q133 0 295 35l-9 -218q-173 -49 -365 -49q-74 0 -150 18t-136 64.5t-93 128.5t-15 206zM393 620l-7 -49q62 -12 118 -12q94 0 141.5 29.5t47.5 105.5q0 47 -31 75t-91 28
q-152 0 -178 -177z" />
    <glyph glyph-name="uni1ECA" unicode="&#x1eca;" horiz-adv-x="549" 
d="M572 1354l-203 -1354h-300l202 1354h301zM16 -322q0 86 47 131.5t135 45.5q137 0 137 -121q0 -86 -47 -131.5t-135 -45.5q-137 0 -137 121z" />
    <glyph glyph-name="uni1ECB" unicode="&#x1ecb;" horiz-adv-x="507" 
d="M202 996h290l-149 -996h-290zM-5 -322q0 86 47 131.5t135 45.5q137 0 137 -121q0 -86 -47 -131.5t-135 -45.5q-137 0 -137 121zM231 1255q0 86 47 131.5t134 45.5q138 0 138 -122q0 -86 -47.5 -131.5t-134.5 -45.5q-66 0 -101.5 31t-35.5 91z" />
    <glyph glyph-name="uni1ECC" unicode="&#x1ecc;" horiz-adv-x="1183" 
d="M94 436l72 482q12 81 48.5 162.5t106 146t174.5 106t246 41.5q233 0 353 -118.5t88 -337.5l-72 -482q-12 -81 -48.5 -162.5t-106 -146.5t-175 -106t-247.5 -41t-251 48.5t-160 152.5t-28 255zM469 925l-65 -434q-21 -142 23.5 -209t141.5 -67q96 0 160.5 67.5t85.5 208.5
l56 372q21 141 -23.5 208t-141.5 67q-98 0 -160 -56.5t-77 -156.5zM333 -322q0 86 47.5 131.5t134.5 45.5q137 0 137 -121q0 -86 -47 -131.5t-134 -45.5q-138 0 -138 121z" />
    <glyph glyph-name="uni1ECD" unicode="&#x1ecd;" horiz-adv-x="1065" 
d="M84 399l30 197q11 74 43.5 149.5t95 135t156 97.5t219.5 38q100 0 179.5 -27t131 -80.5t72 -133t5.5 -179.5l-30 -197q-11 -74 -43.5 -149t-94.5 -134.5t-155.5 -97.5t-219.5 -38q-100 0 -179.5 27t-131.5 80t-72.5 132.5t-5.5 179.5zM405 608l-30 -205
q-14 -89 18.5 -141t113.5 -52t129 52t61 141l28 189q13 88 -19 141t-112 53q-77 0 -127 -48t-62 -130zM272 -322q0 86 47 131.5t135 45.5q137 0 137 -121q0 -86 -47 -131.5t-134 -45.5q-138 0 -138 121z" />
    <glyph glyph-name="uni1EE4" unicode="&#x1ee4;" horiz-adv-x="1220" 
d="M951 1354h302l-140 -936q-31 -205 -180.5 -321.5t-380.5 -116.5q-113 0 -201.5 30t-144.5 86.5t-77.5 138.5t-6.5 183l140 936h300l-140 -938q-13 -84 32.5 -137t134.5 -53q88 0 149 52.5t74 137.5zM351 -322q0 86 47 131.5t135 45.5q137 0 137 -121q0 -86 -47 -131.5
t-134 -45.5q-138 0 -138 121z" />
    <glyph glyph-name="uni1EE5" unicode="&#x1ee5;" horiz-adv-x="1097" 
d="M922 0h-249l2 106q-186 -126 -348 -126q-131 0 -191.5 74.5t-39.5 214.5l108 727h290l-95 -638q-19 -119 89 -119q39 0 90 19t101 53l102 685h290zM293 -322q0 86 47 131.5t135 45.5q137 0 137 -121q0 -86 -47 -131.5t-135 -45.5q-137 0 -137 121z" />
    <glyph glyph-name="Ygrave" unicode="&#x1ef2;" horiz-adv-x="1119" 
d="M932 1354h308l-514 -871l-72 -483h-300l71 483l-252 871h308l139 -579zM865 1493l-190 -53l-255 327l284 91z" />
    <glyph glyph-name="ygrave" unicode="&#x1ef3;" horiz-adv-x="1032" 
d="M758 1134l-189 -53l-256 327l284 92zM98 996h301l94 -838q181 397 285 838h308q-83 -317 -183.5 -578t-227.5 -460.5t-286.5 -312.5t-348.5 -113q-154 0 -250 42l61 230q31 -12 86 -22t112 -10q97 0 189.5 59t140.5 133h-144z" />
    <glyph glyph-name="uni1EF8" unicode="&#x1ef8;" horiz-adv-x="1119" 
d="M932 1354h308l-514 -871l-72 -483h-300l71 483l-252 871h308l139 -579zM651 1785q47 0 119.5 -30t102.5 -30q57 0 126 69l117 -95q-16 -34 -51.5 -82t-93 -86.5t-123.5 -38.5q-47 0 -119.5 29.5t-102.5 29.5q-60 0 -126 -69l-117 94q45 94 118 151.5t150 57.5z" />
    <glyph glyph-name="uni1EF9" unicode="&#x1ef9;" horiz-adv-x="1032" 
d="M540 1426q47 0 119 -29.5t103 -29.5q58 0 126 68l117 -94q-45 -93 -118.5 -150.5t-149.5 -57.5q-47 0 -119.5 29.5t-103.5 29.5q-59 0 -125 -68l-117 93q16 34 51 83t92.5 87.5t124.5 38.5zM98 996h301l94 -838q181 397 285 838h308q-83 -317 -183.5 -578t-227.5 -460.5
t-286.5 -312.5t-348.5 -113q-154 0 -250 42l61 230q31 -12 86 -22t112 -10q97 0 189.5 59t140.5 133h-144z" />
    <glyph glyph-name="endash" unicode="&#x2013;" horiz-adv-x="1058" 
d="M79 385l34 226h905l-34 -226h-905z" />
    <glyph glyph-name="emdash" unicode="&#x2014;" horiz-adv-x="1495" 
d="M79 385l34 226h1342l-34 -226h-1342z" />
    <glyph glyph-name="quoteleft" unicode="&#x2018;" horiz-adv-x="411" 
d="M403 932h-250l17 113q37 246 198 431h177q-34 -65 -68 -169t-49 -205z" />
    <glyph glyph-name="quoteright" unicode="&#x2019;" horiz-adv-x="439" 
d="M276 1450h249l-16 -113q-36 -240 -198 -432h-177q34 67 68 171.5t49 204.5z" />
    <glyph glyph-name="quotesinglbase" unicode="&#x201a;" horiz-adv-x="433" 
d="M73 250h249l-17 -113q-36 -244 -198 -432h-177q34 66 68.5 170.5t48.5 205.5z" />
    <glyph glyph-name="quotedblleft" unicode="&#x201c;" horiz-adv-x="789" 
d="M403 932h-250l17 113q37 246 198 431h177q-34 -65 -68 -169t-49 -205zM781 932h-249l16 113q20 130 73.5 239.5t125.5 191.5h176q-34 -65 -68 -169t-49 -205z" />
    <glyph glyph-name="quotedblright" unicode="&#x201d;" horiz-adv-x="817" 
d="M276 1450h249l-16 -113q-36 -240 -198 -432h-177q34 67 68 171.5t49 204.5zM654 1450h250l-17 -113q-36 -243 -198 -432h-177q34 66 68 170.5t49 205.5z" />
    <glyph glyph-name="quotedblbase" unicode="&#x201e;" horiz-adv-x="811" 
d="M73 250h249l-17 -113q-36 -244 -198 -432h-177q34 66 68.5 170.5t48.5 205.5zM451 250h250l-17 -113q-36 -242 -198 -432h-177q34 67 68 171t49 205z" />
    <glyph glyph-name="dagger" unicode="&#x2020;" horiz-adv-x="1083" 
d="M587 1579h270l-68 -443l374 11l-39 -258l-372 9l-174 -1122h-251l161 1122l-374 -9l39 258l369 -11z" />
    <glyph glyph-name="daggerdbl" unicode="&#x2021;" horiz-adv-x="1095" 
d="M123 920l39 259l372 -13l61 413h265l-61 -413l376 13l-39 -259l-373 13l-76 -512l376 14l-38 -259l-373 11l-62 -411h-264l62 411l-375 -11l38 259l372 -14l76 512z" />
    <glyph glyph-name="bullet" unicode="&#x2022;" horiz-adv-x="672" 
d="M110 628q0 147 81 226t230 79q113 0 173 -53.5t60 -156.5q0 -147 -81 -226t-230 -79q-113 0 -173 53.5t-60 156.5z" />
    <glyph glyph-name="ellipsis" unicode="&#x2026;" horiz-adv-x="1380" 
d="M37 102q0 86 47 131.5t135 45.5q137 0 137 -122q0 -86 -47 -131.5t-135 -45.5q-137 0 -137 122zM495 102q0 86 47 131.5t135 45.5q66 0 101.5 -31t35.5 -91q0 -86 -47 -131.5t-135 -45.5q-137 0 -137 122zM953 102q0 86 47 131.5t134 45.5q138 0 138 -122
q0 -86 -47 -131.5t-135 -45.5q-66 0 -101.5 31t-35.5 91z" />
    <glyph glyph-name="guilsinglleft" unicode="&#x2039;" horiz-adv-x="594" 
d="M384 498l119 -371l-232 -89l-171 460l309 460l205 -89z" />
    <glyph glyph-name="guilsinglright" unicode="&#x203a;" horiz-adv-x="593" 
d="M249 498l-120 370l232 90l171 -460l-308 -460l-206 89z" />
    <glyph glyph-name="fraction" unicode="&#x2044;" horiz-adv-x="917" 
d="M106 754h821l-23 -152h-821z" />
    <glyph glyph-name="uni2070" unicode="&#x2070;" horiz-adv-x="754" 
d="M142 924l24 157q13 84 60.5 146t124.5 99.5t174 37.5t163.5 -37.5t96 -99.5t16.5 -146l-23 -157q-10 -67 -51.5 -133.5t-127 -108t-182.5 -41.5t-163 37.5t-95.5 99.5t-16.5 146zM384 1069l-20 -133q-7 -49 15.5 -77.5t66.5 -28.5q43 0 74.5 29t38.5 77l20 133
q7 49 -16 77.5t-66 28.5t-74.5 -28.5t-38.5 -77.5z" />
    <glyph glyph-name="uni2074" unicode="&#x2074;" horiz-adv-x="647" 
d="M89 769l23 154l350 429v2h217l-63 -419h93l-25 -166h-92l-18 -118h-214l17 118h-288zM315 930h100l23 155z" />
    <glyph glyph-name="franc" unicode="&#x20a3;" horiz-adv-x="1158" 
d="M177 0l31 203h-140l24 158h140l148 993h817l-37 -249h-516l-46 -302h497l-37 -245h-496l-30 -197h233l-23 -158h-233l-30 -203h-302z" />
    <glyph glyph-name="lira" unicode="&#x20a4;" horiz-adv-x="1159" 
d="M112 226q75 0 118.5 38t58.5 123l12 87h-133l23 153h750l-24 -153h-319l-14 -96q-17 -95 -82 -152h505l-37 -246h-894zM229 878h133l10 69q20 131 85 224t174 148t260 55q123 0 269 -33l-61 -249q-120 24 -213 24t-149.5 -51t-71.5 -148l-6 -39h318l-22 -153h-749z" />
    <glyph glyph-name="uni20A9" unicode="&#x20a9;" horiz-adv-x="1977" 
d="M1297 323l328 1031h311l-140 -411h189l-17 -117h-211l-38 -109h163l-17 -117h-186l-205 -600h-389l-26 838l-276 -838h-389l-26 600h-187l18 117h164l-5 109h-212l17 117h191l-18 411h312l22 -1031l319 1011h288z" />
    <glyph glyph-name="Euro" unicode="&#x20ac;" horiz-adv-x="1218" 
d="M159 627h776l-23 -153h-346l-3 -25q-16 -104 44.5 -159.5t178.5 -55.5q55 0 131.5 10.5t136.5 28.5l-15 -239q-150 -54 -339 -54q-128 0 -237 47t-166 148.5t-35 248.5l7 50h-134zM195 878h135l5 32q19 132 89 237t197 166t283 61q70 0 158 -15t145 -41l-59 -244
q-133 46 -247 46q-113 0 -184.5 -62t-89.5 -180h345l-22 -153h-777z" />
    <glyph glyph-name="uni20B1" unicode="&#x20b1;" horiz-adv-x="1364" 
d="M175 921l18 117h123l47 316h465q184 0 294.5 -81.5t120.5 -234.5h126l-17 -117h-115l-13 -83h116l-18 -117h-125q-52 -147 -176.5 -227.5t-293.5 -87.5l-88 -1h-117l-61 -405h-300l107 721h-122l17 117h123l12 83h-123zM628 1118l-71 -476h156q90 0 144 50.5t68 145.5
l15 99q13 86 -29 133.5t-127 47.5h-156z" />
    <glyph glyph-name="uni20B9" unicode="&#x20b9;" horiz-adv-x="1045" 
d="M195 832l22 147h369q4 145 -188 145h-160l34 230h868l-22 -147h-287q71 -90 61 -228h167l-22 -147h-168q-32 -130 -138 -216.5t-254 -120.5l301 -495h-337l-294 491l29 196h112q235 0 276 145h-369z" />
    <glyph glyph-name="uni20BA" unicode="&#x20ba;" horiz-adv-x="1096" 
d="M699 1354l-43 -284l217 139l61 -118l-303 -193l-14 -91l218 140l61 -118l-304 -194l-61 -401q102 0 169.5 70.5t81.5 201.5l253 10q-16 -152 -84 -268.5t-201.5 -182t-320.5 -65.5h-234l66 432l-131 -83l-60 118l216 138l14 90l-131 -84l-61 119l218 137l72 487h301z" />
    <glyph glyph-name="afii61352" unicode="&#x2116;" horiz-adv-x="1902" 
d="M800 0l-311 856l-127 -856h-293l202 1354h299l310 -856l128 856h293l-203 -1354h-298zM1382 1066l7 50q18 119 110.5 188.5t217.5 69.5t197 -69.5t55 -188.5l-8 -50q-11 -74 -53 -130.5t-113 -92.5t-163 -36q-125 0 -196.5 70t-53.5 189zM1337 716h564l-23 -154h-563z
M1589 1074q0 -81 72 -81q44 0 72 31.5t28 82.5q0 81 -72 81q-44 0 -72 -31.5t-28 -82.5z" />
    <glyph glyph-name="trademark" unicode="&#x2122;" horiz-adv-x="1108" 
d="M220 817l57 381h-130l22 156h432l-23 -156h-131l-56 -381h-171zM994 817l46 307l-116 -238h-110l-44 236l-46 -305h-159l81 537h200l52 -275l136 275h199l-80 -537h-159z" />
    <glyph glyph-name="estimated" unicode="&#x212e;" horiz-adv-x="1758" 
d="M1669 643h-1218q-10 0 -11 -10l-53 -357q-4 -23 10 -45q70 -88 183 -133t250 -45q147 0 279 51t236 148h108q-121 -125 -287 -198.5t-349 -73.5q-176 0 -326 75.5t-238.5 219t-88.5 319.5q0 116 47 245t165 255.5t291 203t358 76.5q210 0 372 -102.5t232 -265.5t43 -340z
M1404 724l54 356q3 28 -13 45q-61 75 -169 125.5t-260 50.5q-137 0 -262 -44.5t-222 -131.5q-21 -20 -26 -49l-52 -352q-1 -12 8 -12h933q8 0 9 12z" />
    <glyph glyph-name="minus" unicode="&#x2212;" horiz-adv-x="979" 
d="M189 799h730l-36 -244h-730z" />
    <glyph glyph-name="uni2215" unicode="&#x2215;" horiz-adv-x="917" 
d="M106 754h821l-23 -152h-821z" />
    <glyph glyph-name="uni2219" unicode="&#x2219;" horiz-adv-x="450" 
d="M112 650q0 86 47 131t135 45q137 0 137 -122q0 -86 -47 -131t-135 -45q-66 0 -101.5 31t-35.5 91z" />
    <glyph glyph-name="approxequal" unicode="&#x2248;" horiz-adv-x="1118" 
d="M285 711l-89 127q50 74 129.5 129t167.5 55q41 0 71 -9t98 -36.5t108 -27.5q79 0 170 76l88 -135q-50 -71 -129.5 -123.5t-166.5 -52.5q-8 0 -29.5 1.5t-46 9t-93 35.5t-108.5 28q-78 0 -170 -77zM249 338l-90 127q48 70 125.5 123t159.5 53q61 0 149.5 -37t138.5 -37
q89 0 194 77l88 -135q-53 -72 -137 -123t-181 -51q-64 0 -155 35.5t-136 35.5q-76 0 -156 -68z" />
    <glyph glyph-name="notequal" unicode="&#x2260;" horiz-adv-x="991" 
d="M182 745l34 236h431l177 286l124 -61l-139 -225h148l-35 -236h-259l-83 -136h322l-35 -236h-432l-176 -286l-124 61l139 225h-148l35 236h258l83 136h-320z" />
    <glyph glyph-name="lessequal" unicode="&#x2264;" horiz-adv-x="982" 
d="M131 187h698l-24 -165h-698zM811 1325l163 -170l-418 -338l317 -338l-214 -170l-467 508z" />
    <glyph glyph-name="greaterequal" unicode="&#x2265;" horiz-adv-x="982" 
d="M98 187h698l-24 -165h-699zM304 309l-162 170l418 338l-317 338l213 170l468 -508z" />
    <glyph glyph-name="uniF6C3" unicode="&#xf6c3;" horiz-adv-x="462" 
d="M73 -93h252l-16 -68q-23 -107 -77.5 -206.5t-111.5 -158.5h-185q41 75 77 170.5t49 181.5z" />
    <glyph glyph-name="uniF730" unicode="&#xf730;" horiz-adv-x="1150" 
d="M94 440l48 316q33 221 183.5 340.5t373.5 119.5q221 0 337.5 -117.5t83.5 -342.5l-47 -316q-12 -82 -47.5 -164.5t-103 -147.5t-169 -106.5t-238.5 -41.5q-136 0 -241 48.5t-154 153.5t-26 258zM443 762l-41 -280q-21 -140 20 -205t128 -65q85 0 145.5 57.5t80.5 187.5
l37 257q21 139 -20.5 204t-128.5 65q-91 0 -148 -58.5t-73 -162.5z" />
    <glyph glyph-name="uniF731" unicode="&#xf731;" horiz-adv-x="717" 
d="M129 826l10 247l361 123h217l-179 -1196h-296l135 903z" />
    <glyph glyph-name="uniF732" unicode="&#xf732;" horiz-adv-x="937" 
d="M849 254l-38 -254h-809l36 234q303 234 398 319t136.5 151.5t41.5 121.5q0 59 -39 96.5t-129 37.5q-130 0 -276 -57l12 245q62 28 154.5 48t175.5 20q129 0 215.5 -39.5t131.5 -108t45 -167.5q0 -161 -114 -307t-374 -340h433z" />
    <glyph glyph-name="uniF733" unicode="&#xf733;" horiz-adv-x="889" 
d="M167 411l34 226h183q84 0 147.5 50.5t63.5 138.5q0 140 -186 140q-131 0 -261 -37l15 233q149 54 331 54q183 0 286.5 -83.5t103.5 -238.5q0 -243 -232 -363q74 -37 116.5 -108.5t42.5 -165.5q0 -212 -149.5 -323.5t-406.5 -111.5q-157 0 -300 43l55 239q121 -32 266 -32
q108 0 182.5 50t74.5 144q0 61 -47.5 103t-139.5 42h-179z" />
    <glyph glyph-name="uniF734" unicode="&#xf734;" horiz-adv-x="1077" 
d="M761 1208h248l-127 -850h141l-34 -229h-141l-41 -275h-267l41 275h-544l33 219zM355 358h266l63 421z" />
    <glyph glyph-name="uniF735" unicode="&#xf735;" horiz-adv-x="943" 
d="M883 322q0 -242 -145 -365t-420 -123q-74 0 -167 10t-166 30l65 248q147 -30 278 -30q265 0 265 200q0 72 -58.5 115t-187.5 44h-56.5t-83.5 -2t-71.5 -3.5t-32.5 -1.5l143 764h707l-39 -254h-474l-54 -280q45 0 129 -6q171 -12 269.5 -98.5t98.5 -247.5z" />
    <glyph glyph-name="uniF736" unicode="&#xf736;" horiz-adv-x="1054" 
d="M90 412l57 381l26 135q49 216 204.5 331t401.5 115q153 0 283 -42l-63 -248q-132 37 -252 37q-274 0 -313 -261l-13 -87q125 48 226 48q121 0 200.5 -43t120 -119t40.5 -186q0 -229 -143 -361t-383 -132q-207 0 -315 110t-77 322zM568 596q-94 0 -180 -39l-24 -154
q-13 -84 28.5 -132.5t125.5 -48.5q95 0 151.5 57t56.5 157q0 160 -158 160z" />
    <glyph glyph-name="uniF737" unicode="&#xf737;" horiz-adv-x="880" 
d="M115 957l37 251h801l-36 -240l-573 -1114h-299l589 1103h-519z" />
    <glyph glyph-name="uniF738" unicode="&#xf738;" horiz-adv-x="1061" 
d="M994 380q0 -86 -36.5 -160t-104.5 -127.5t-165.5 -83t-214.5 -29.5q-194 0 -302.5 80.5t-108.5 213.5q0 122 64 222t230 188q-168 109 -168 275q0 86 34 162t98.5 133t157 88.5t203.5 31.5q182 0 282.5 -88t100.5 -231q0 -105 -56 -193.5t-208 -173.5q194 -119 194 -308z
M505 202q88 0 147 50.5t59 133.5q0 107 -150 199q-211 -97 -211 -249q0 -62 42.5 -98t112.5 -36zM793 1015q0 63 -40.5 96.5t-106.5 33.5q-82 0 -136.5 -46.5t-54.5 -128.5q0 -94 140 -183q92 43 145 92t53 136z" />
    <glyph glyph-name="uniF739" unicode="&#xf739;" horiz-adv-x="1054" 
d="M1033 784l-58 -394l-26 -137q-46 -208 -195.5 -319.5t-387.5 -111.5q-89 0 -181 15t-136 33l64 248q90 -25 142.5 -33t110.5 -8q131 0 212.5 49t107.5 199l16 91q-122 -46 -226 -46q-122 0 -201 42.5t-119.5 118.5t-40.5 187q0 231 143 364.5t383 133.5
q126 0 223.5 -44.5t144 -142.5t24.5 -245zM555 593q90 0 180 40l24 160q13 85 -28 133t-126 48q-95 0 -151.5 -58.5t-56.5 -160.5q0 -162 158 -162z" />
    <glyph glyph-name="uniFB00" unicode="&#xfb00;" horiz-adv-x="1222" 
d="M82 773l32 223h125l16 109q24 156 125.5 247.5t263.5 91.5q95 0 183 -22l-69 -222q-55 10 -90 10q-116 0 -134 -125l-14 -89h291l16 115q25 168 125.5 260.5t266.5 92.5q104 0 194 -24l-61 -222q-63 12 -105 12q-58 0 -92 -33.5t-46 -110.5l-13 -90h210l-33 -223h-206
l-115 -773h-290l115 773h-282l-182 -1221h-290l182 1221h-123z" />
    <glyph glyph-name="uniFB02" unicode="&#xfb02;" horiz-adv-x="1146" 
d="M532 1060l-9 -64h181l-33 -223h-176l-182 -1221h-290l182 1221h-123l32 223h125l12 78q23 160 127 260t286 119q94 10 187 -2q84 2 200.5 -13t132.5 -15l-213 -1423h-290l180 1207q-81 17 -143 17q-80 0 -126.5 -39t-59.5 -125z" />
    <glyph glyph-name="uniFB04" unicode="&#xfb04;" horiz-adv-x="1718" 
d="M82 773l32 223h125l16 109q24 156 125.5 247.5t263.5 91.5q95 0 183 -22l-69 -222q-55 10 -90 10q-116 0 -134 -125l-14 -89h291l11 78q24 160 128 260t286 119q94 10 186 -2q85 2 201.5 -13t131.5 -15l-212 -1423h-290l180 1207q-81 17 -142 17q-81 0 -127.5 -38.5
t-59.5 -125.5l-10 -64h182l-34 -223h-175l-182 -1221h-290l182 1221h-282l-182 -1221h-290l182 1221h-123z" />
    <glyph glyph-name="uniFB06" unicode="&#xfb06;" horiz-adv-x="1510" 
d="M771 345q0 -185 -111 -275t-319 -90q-77 0 -172 12.5t-157 38.5l65 206q42 -15 114.5 -29.5t137.5 -14.5q84 0 124 23t40 80q0 33 -28 57t-163 59q-100 28 -147.5 80t-47.5 155q0 171 114 269.5t315 99.5q-65 63 -65 154q0 63 28.5 121t84 103.5t138 71.5t185.5 26h510
l-7 -48l-67 -448h200l-33 -223h-195l-67 -448q-8 -54 9.5 -82.5t71.5 -28.5q51 0 116 13l-16 -221q-95 -26 -216 -26q-288 0 -264 266q3 23 12.5 96.5t33.5 233.5t30 197h-123l33 223h129l42 285h-220q-90 0 -139 -39.5t-49 -107.5q0 -97 131 -154l-58 -210q-129 33 -232 33
q-78 0 -116.5 -24.5t-38.5 -83.5q0 -29 26 -51.5t144 -55.5q116 -31 166.5 -86.5t50.5 -156.5z" />
    <glyph glyph-name="Euro.tnum" 
d="M151 627h777l-23 -153h-346l-3 -25q-15 -105 45 -160t178 -55q55 0 129.5 10t139.5 29l-16 -239q-63 -23 -153 -38.5t-185 -15.5q-129 0 -238 47t-166 148.5t-35 248.5l8 50h-135zM189 878h134l4 32q20 132 90 237t197 166t283 61q70 0 158 -15t145 -41l-59 -244
q-130 46 -247 46q-113 0 -184.5 -62t-89.5 -180h345l-23 -153h-776z" />
    <glyph glyph-name="Euro.aalt" horiz-adv-x="1129" 
d="M140 559h717l-22 -148h-309q-13 -93 37.5 -141t158.5 -48q50 0 121 9.5t129 25.5l-15 -228q-59 -20 -145 -34.5t-175 -14.5q-69 0 -144 17t-143.5 64t-102 128t-17.5 188l5 34h-117zM173 784h118l3 18q19 130 88 220.5t180 142t256 51.5q68 0 150.5 -13t142.5 -35
l-62 -231q-129 37 -228 37q-95 0 -159.5 -48.5t-79.5 -138.5v-3h309l-22 -148h-718z" />
    <glyph glyph-name="Euro.aalt.tnum" 
d="M176 559h718l-22 -148h-309q-13 -93 37.5 -141t157.5 -48q50 0 122 9.5t129 25.5l-15 -228q-59 -20 -145 -34.5t-175 -14.5q-69 0 -144 17t-143.5 64t-102 128t-17.5 188l5 34h-118zM210 784h118l2 18q20 130 89 220.5t180 142t255 51.5q68 0 150 -12.5t144 -35.5
l-62 -231q-133 37 -227 37q-96 0 -160.5 -48.5t-79.5 -138.5v-3h309l-23 -148h-717z" />
    <glyph glyph-name="glyph55" horiz-adv-x="1098" 
d="M820 1354h301l-201 -1347q-23 -154 -119.5 -265t-312.5 -210l-99 187q113 70 165.5 138.5t67.5 169.5zM572 1354l-203 -1354h-300l202 1354h301zM462 1440l-174 53l270 365l257 -91zM1010 1440l-173 53l270 365l257 -91z" />
    <glyph glyph-name="glyph138" horiz-adv-x="1119" 
d="M932 1354h308l-514 -871l-72 -483h-300l71 483l-252 871h308l139 -579zM427 1527l33 223h612l-34 -223h-611z" />
    <glyph glyph-name="a.salt" horiz-adv-x="962" 
d="M34 217q0 108 51 183.5t142 118t211 42.5h168l10 68q13 81 -23.5 114t-119.5 33q-126 0 -285 -47l-3 227q68 22 167 41t198 19q213 0 292 -92t48 -302l-93 -622h-218l-12 74q-144 -94 -278 -94q-119 0 -187 60t-68 177zM398 176q78 0 158 52l27 176h-137
q-64 0 -101.5 -37t-37.5 -101q0 -43 25.5 -66.5t65.5 -23.5z" />
    <glyph glyph-name="a.sc" horiz-adv-x="1054" 
d="M976 0h-292l-26 207h-311l-88 -207h-291l454 1036h410zM597 834l-182 -432h235z" />
    <glyph glyph-name="aacute.salt" horiz-adv-x="956" 
d="M588 1081l-174 53l271 366l256 -92zM34 217q0 108 51 183.5t142 118t211 42.5h168l10 68q13 81 -23.5 114t-119.5 33q-126 0 -285 -47l-3 227q68 22 167 41t198 19q213 0 292 -92t48 -302l-93 -622h-218l-12 74q-144 -94 -278 -94q-119 0 -187 60t-68 177zM398 176
q78 0 158 52l27 176h-137q-64 0 -101.5 -37t-37.5 -101q0 -43 25.5 -66.5t65.5 -23.5z" />
    <glyph glyph-name="aacute.sc" horiz-adv-x="1054" 
d="M976 0h-292l-26 207h-311l-88 -207h-291l454 1036h410zM597 834l-182 -432h235zM664 1109l-181 53l249 338l258 -93z" />
    <glyph glyph-name="abreve.salt" horiz-adv-x="956" 
d="M34 217q0 108 51 183.5t142 118t211 42.5h168l10 68q13 81 -23.5 114t-119.5 33q-126 0 -285 -47l-3 227q68 22 167 41t198 19q213 0 292 -92t48 -302l-93 -622h-218l-12 74q-144 -94 -278 -94q-119 0 -187 60t-68 177zM398 176q78 0 158 52l27 176h-137
q-64 0 -101.5 -37t-37.5 -101q0 -43 25.5 -66.5t65.5 -23.5zM299 1442h223q-6 -53 11.5 -86.5t63.5 -33.5q47 0 74.5 33.5t37.5 86.5h223q-22 -149 -119 -237t-245 -88q-149 0 -220.5 88t-48.5 237z" />
    <glyph glyph-name="abreve.sc" horiz-adv-x="1054" 
d="M976 0h-292l-26 207h-311l-88 -207h-291l454 1036h410zM597 834l-182 -432h235zM375 1444h223q-6 -49 11.5 -79.5t61.5 -30.5t70.5 30.5t35.5 79.5h223q-21 -143 -116.5 -227t-242.5 -84q-146 0 -216.5 84t-49.5 227z" />
    <glyph glyph-name="acircumflex.salt" horiz-adv-x="957" 
d="M34 217q0 108 51 183.5t142 118t211 42.5h168l10 68q13 81 -23.5 114t-119.5 33q-126 0 -285 -47l-3 227q68 22 167 41t198 19q213 0 292 -92t48 -302l-93 -622h-218l-12 74q-144 -94 -278 -94q-119 0 -187 60t-68 177zM398 176q78 0 158 52l27 176h-137
q-64 0 -101.5 -37t-37.5 -101q0 -43 25.5 -66.5t65.5 -23.5zM244 1109l245 366h291l136 -366l-247 -12l-59 212l-124 -212z" />
    <glyph glyph-name="acircumflex.sc" horiz-adv-x="1054" 
d="M976 0h-292l-26 207h-311l-88 -207h-291l454 1036h410zM597 834l-182 -432h235zM322 1137l225 338h290l125 -338l-239 -11l-56 183l-110 -183z" />
    <glyph glyph-name="glyph157" horiz-adv-x="613" 
d="M374 1109l-182 53l250 338l257 -93z" />
    <glyph glyph-name="glyph159" horiz-adv-x="571" 
d="M365 1046l-186 36l190 268l270 -67z" />
    <glyph glyph-name="adieresis.salt" horiz-adv-x="957" 
d="M34 217q0 108 51 183.5t142 118t211 42.5h168l10 68q13 81 -23.5 114t-119.5 33q-126 0 -285 -47l-3 227q68 22 167 41t198 19q213 0 292 -92t48 -302l-93 -622h-218l-12 74q-144 -94 -278 -94q-119 0 -187 60t-68 177zM398 176q78 0 158 52l27 176h-137
q-64 0 -101.5 -37t-37.5 -101q0 -43 25.5 -66.5t65.5 -23.5zM222 1255q0 86 47 131.5t135 45.5q66 0 101.5 -31t35.5 -91q0 -86 -47 -131.5t-135 -45.5q-137 0 -137 122zM651 1255q0 86 47 131.5t135 45.5q137 0 137 -122q0 -86 -47.5 -131.5t-134.5 -45.5q-66 0 -101.5 31
t-35.5 91z" />
    <glyph glyph-name="adieresis.sc" horiz-adv-x="1054" 
d="M976 0h-292l-26 207h-311l-88 -207h-291l454 1036h410zM597 834l-182 -432h235zM305 1265q0 81 46 124t131 43q65 0 99.5 -29.5t34.5 -86.5q0 -81 -46 -124t-131 -43q-65 0 -99.5 29.5t-34.5 86.5zM713 1265q0 81 46 124t131 43q134 0 134 -116q0 -81 -46 -124t-131 -43
q-65 0 -99.5 29.5t-34.5 86.5z" />
    <glyph glyph-name="uni1EA1.salt" horiz-adv-x="962" 
d="M242 -322q0 86 47 131.5t135 45.5q137 0 137 -121q0 -86 -47 -131.5t-135 -45.5q-137 0 -137 121zM34 217q0 108 51 183.5t142 118t211 42.5h168l10 68q13 81 -23.5 114t-119.5 33q-126 0 -285 -47l-3 227q68 22 167 41t198 19q213 0 292 -92t48 -302l-93 -622h-218
l-12 74q-144 -94 -278 -94q-119 0 -187 60t-68 177zM398 176q78 0 158 52l27 176h-137q-64 0 -101.5 -37t-37.5 -101q0 -43 25.5 -66.5t65.5 -23.5z" />
    <glyph glyph-name="uni1EA1.sc" horiz-adv-x="1054" 
d="M976 0h-292l-26 207h-311l-88 -207h-291l454 1036h410zM597 834l-182 -432h235zM268 -322q0 86 47 131.5t135 45.5q137 0 137 -121q0 -86 -47 -131.5t-135 -45.5q-137 0 -137 121z" />
    <glyph glyph-name="ae.sc" horiz-adv-x="1382" 
d="M675 0l1 207h-305l-112 -207h-291l578 1036h867l-33 -216h-430l5 -199h380l-30 -201h-353l4 -204h350l-33 -216h-598zM696 839l-234 -437h226z" />
    <glyph glyph-name="aeacute.sc" horiz-adv-x="1382" 
d="M675 0l1 207h-305l-112 -207h-291l578 1036h867l-33 -216h-430l5 -199h380l-30 -201h-353l4 -204h350l-33 -216h-598zM696 839l-234 -437h226zM953 1109l-182 53l251 338l257 -93z" />
    <glyph glyph-name="agrave.salt" horiz-adv-x="962" 
d="M34 217q0 108 51 183.5t142 118t211 42.5h168l10 68q13 81 -23.5 114t-119.5 33q-126 0 -285 -47l-3 227q68 22 167 41t198 19q213 0 292 -92t48 -302l-93 -622h-218l-12 74q-144 -94 -278 -94q-119 0 -187 60t-68 177zM398 176q78 0 158 52l27 176h-137
q-64 0 -101.5 -37t-37.5 -101q0 -43 25.5 -66.5t65.5 -23.5zM751 1134l-189 -53l-256 327l284 92z" />
    <glyph glyph-name="agrave.sc" horiz-adv-x="1054" 
d="M976 0h-292l-26 207h-311l-88 -207h-291l454 1036h410zM597 834l-182 -432h235zM805 1162l-193 -53l-240 298l285 93z" />
    <glyph glyph-name="amacron.salt" horiz-adv-x="957" 
d="M34 217q0 108 51 183.5t142 118t211 42.5h168l10 68q13 81 -23.5 114t-119.5 33q-126 0 -285 -47l-3 227q68 22 167 41t198 19q213 0 292 -92t48 -302l-93 -622h-218l-12 74q-144 -94 -278 -94q-119 0 -187 60t-68 177zM398 176q78 0 158 52l27 176h-137
q-64 0 -101.5 -37t-37.5 -101q0 -43 25.5 -66.5t65.5 -23.5zM283 1169l33 223h611l-33 -223h-611z" />
    <glyph glyph-name="amacron.sc" horiz-adv-x="1054" 
d="M976 0h-292l-26 207h-311l-88 -207h-291l454 1036h410zM597 834l-182 -432h235zM345 1169l33 223h603l-33 -223h-603z" />
    <glyph glyph-name="ampersand.sc" horiz-adv-x="1035" 
d="M33 246q0 200 235 328q-34 62 -48 98t-14 79q0 92 50 158.5t145.5 106.5t230.5 40q64 0 142 -11t137 -30l-62 -209q-141 31 -238 31q-80 0 -117.5 -23t-37.5 -75q0 -22 11 -52t53 -93l185 -297q29 18 29 77q0 36 -18.5 83.5t-113.5 183.5l13 90h423l-27 -185h-136
q36 -54 53.5 -98.5t17.5 -93.5q0 -54 -26.5 -109t-106.5 -121l99 -155l-174 -125l-111 171q-35 -13 -88.5 -23t-102.5 -10q-187 0 -295 67.5t-108 196.5zM447 177q41 0 68 10l-154 243q-79 -55 -79 -142q0 -111 165 -111z" />
    <glyph glyph-name="aogonek.salt" horiz-adv-x="962" 
d="M386 -300q0 166 246 300h-53l-12 74q-127 -84 -247 -91q-42 -3 -76 1q-99 11 -154.5 69.5t-55.5 163.5q0 108 51 183.5t142 118t211 42.5h168l10 68q13 81 -23.5 114t-119.5 33q-126 0 -285 -47l-3 227q68 22 167 41t198 19q213 0 292 -92t48 -302l-93 -622
q-189 -122 -189 -225q0 -29 17.5 -45t48.5 -16q53 0 90 13l-12 -176q-55 -19 -135 -19q-107 0 -169 41.5t-62 126.5zM398 176q78 0 158 52l27 176h-137q-64 0 -101.5 -37t-37.5 -101q0 -43 25.5 -66.5t65.5 -23.5z" />
    <glyph glyph-name="aogonek.sc" horiz-adv-x="1054" 
d="M976 0q-188 -122 -188 -225q0 -29 17.5 -45t48.5 -16q51 0 90 13l-12 -176q-55 -19 -135 -19q-107 0 -169 41.5t-62 126.5q0 167 245 300h-127l-26 207h-311l-88 -207h-291l454 1036h410zM597 834l-182 -432h235z" />
    <glyph glyph-name="approxequal.tnum" 
d="M307 711l-89 127q51 75 130.5 129.5t167.5 54.5q8 0 29.5 -1.5t46 -9t92.5 -35t108 -27.5q79 0 170 76l89 -135q-50 -71 -129.5 -123.5t-167.5 -52.5q-8 0 -29.5 1.5t-46 9t-92.5 35.5t-108 28q-77 0 -171 -77zM271 338l-89 127q47 70 124.5 123t159.5 53q61 0 150 -37
t139 -37q87 0 194 77l88 -135q-54 -72 -138 -123t-180 -51q-64 0 -155.5 35.5t-135.5 35.5q-75 0 -157 -68z" />
    <glyph glyph-name="approxequal.aalt" horiz-adv-x="1118" 
d="M184 759q50 75 129.5 130t167.5 55q41 0 71 -9t98 -37t108 -28q79 0 170 76l89 -135q-51 -71 -130.5 -123.5t-166.5 -52.5q-8 0 -29.5 1.5t-46 9t-93 35.5t-108.5 28q-74 0 -170 -76zM147 386q48 70 125.5 123t159.5 53q61 0 150 -37t139 -37q88 0 193 77l89 -135
q-54 -71 -140 -123.5t-181 -52.5q-8 0 -30.5 1.5t-48 9t-97.5 35.5t-113 28q-74 0 -156 -69z" />
    <glyph glyph-name="approxequal.aalt.tnum" 
d="M296 633l-90 126q51 75 130.5 130t167.5 55q8 0 29.5 -1.5t46 -9t92.5 -35.5t108 -28q79 0 170 76l89 -135q-50 -71 -129.5 -123.5t-166.5 -52.5q-41 0 -71 9t-98 37t-108 28q-77 0 -170 -76zM259 259l-89 127q48 70 125 123t159 53q62 0 140 -32.5t105 -37t44 -4.5
q89 0 194 77l88 -135q-54 -71 -138 -122.5t-180 -51.5q-64 0 -155.5 36t-135.5 36q-73 0 -157 -69z" />
    <glyph glyph-name="aring.salt" horiz-adv-x="962" 
d="M341 1265q0 115 80.5 187.5t210.5 72.5q101 0 160 -53t59 -140q0 -115 -80.5 -186.5t-211.5 -71.5q-100 0 -159 52t-59 139zM516 1289q0 -29 19 -48t49 -19q39 0 65.5 25t26.5 62q0 30 -19 48.5t-49 18.5q-39 0 -65.5 -25t-26.5 -62zM34 217q0 108 51 183.5t142 118
t211 42.5h168l10 68q13 81 -23.5 114t-119.5 33q-126 0 -285 -47l-3 227q68 22 167 41t198 19q213 0 292 -92t48 -302l-93 -622h-218l-12 74q-144 -94 -278 -94q-119 0 -187 60t-68 177zM398 176q78 0 158 52l27 176h-137q-64 0 -101.5 -37t-37.5 -101q0 -43 25.5 -66.5
t65.5 -23.5z" />
    <glyph glyph-name="aring.sc" horiz-adv-x="1054" 
d="M976 0h-292l-26 207h-311l-88 -207h-291l454 1036h410zM597 834l-182 -432h235zM415 1277q0 109 79 178.5t207 69.5q101 0 159.5 -50.5t58.5 -134.5q0 -110 -79 -178t-209 -68q-100 0 -158 49.5t-58 133.5zM591 1300q0 -26 18 -43.5t47 -17.5q38 0 62.5 22.5t24.5 56.5
q0 27 -18 44t-47 17q-38 0 -62.5 -22.5t-24.5 -56.5z" />
    <glyph glyph-name="aringacute.salt" horiz-adv-x="957" 
d="M34 217q0 108 51 183.5t142 118t211 42.5h168l10 68q13 81 -23.5 114t-119.5 33q-126 0 -285 -47l-3 227q68 22 167 41t198 19q213 0 292 -92t48 -302l-93 -622h-218l-12 74q-144 -94 -278 -94q-119 0 -187 60t-68 177zM360 1251q0 106 75 174.5t199 68.5q93 0 147.5 -49
t54.5 -129q0 -107 -75.5 -175.5t-200.5 -68.5q-91 0 -145.5 49.5t-54.5 129.5zM398 176q78 0 158 52l27 176h-137q-64 0 -101.5 -37t-37.5 -101q0 -43 25.5 -66.5t65.5 -23.5zM683 1540l-180 36l193 276l272 -67zM523 1271q0 -28 16.5 -45.5t44.5 -17.5q40 0 64.5 25
t24.5 63q0 27 -17 44.5t-45 17.5q-40 0 -64 -25t-24 -62z" />
    <glyph glyph-name="aringacute.sc" horiz-adv-x="1054" 
d="M976 0h-292l-26 207h-311l-88 -207h-291l454 1036h410zM597 834l-182 -432h235zM428 1265q0 103 76.5 168t193.5 65q93 0 149.5 -48t56.5 -127q0 -102 -77 -167t-195 -65q-92 0 -148 48t-56 126zM594 1286q0 -25 17 -42t44 -17q35 0 58.5 22t23.5 54q0 26 -16.5 42.5
t-44.5 16.5q-34 0 -58 -22t-24 -54zM755 1544l-186 36l190 268l270 -67z" />
    <glyph glyph-name="atilde.salt" horiz-adv-x="957" 
d="M34 217q0 108 51 183.5t142 118t211 42.5h168l10 68q13 81 -23.5 114t-119.5 33q-126 0 -285 -47l-3 227q68 22 167 41t198 19q213 0 292 -92t48 -302l-93 -622h-218l-12 74q-144 -94 -278 -94q-119 0 -187 60t-68 177zM398 176q78 0 158 52l27 176h-137
q-64 0 -101.5 -37t-37.5 -101q0 -43 25.5 -66.5t65.5 -23.5zM484 1426q47 0 119.5 -29.5t102.5 -29.5q60 0 126 68l117 -94q-16 -34 -51.5 -82.5t-93.5 -87t-124 -38.5q-47 0 -119 29.5t-102 29.5q-58 0 -126 -68l-118 93q16 34 51.5 83t93 87.5t124.5 38.5z" />
    <glyph glyph-name="atilde.sc" horiz-adv-x="1054" 
d="M976 0h-292l-26 207h-311l-88 -207h-291l454 1036h410zM597 834l-182 -432h235zM577 1426q44 0 112 -25.5t103 -25.5q54 0 121 60l103 -98q-15 -31 -49.5 -75t-92 -79t-123.5 -35q-43 0 -111.5 26t-103.5 26q-56 0 -120 -61l-105 98q38 73 108.5 131t157.5 58z" />
    <glyph glyph-name="b.sc" horiz-adv-x="1008" 
d="M491 0h-434l155 1036h414q177 0 266.5 -63.5t89.5 -180.5q0 -82 -44.5 -149.5t-144.5 -106.5q69 -26 114.5 -81t45.5 -130q0 -153 -116.5 -239t-345.5 -86zM674 337q0 53 -39 80.5t-103 27.5h-132l-38 -251h136q82 0 129 38.5t47 104.5zM564 608q71 0 109 39t38 98
q0 45 -29.5 71t-87.5 26h-135l-34 -234h139z" />
    <glyph glyph-name="braceleft.sc" horiz-adv-x="722" 
d="M609 1171l-52 -372q-17 -122 -65 -188t-143 -93q77 -22 113 -80.5t18 -187.5l-52 -372q-9 -60 14.5 -93t70.5 -33h96l-33 -236h-165q-135 0 -207.5 82.5t-54.5 210.5l64 453q7 53 -15.5 96.5t-78.5 43.5h-55l33 233h55q54 0 89 39.5t42 88.5l64 452q19 135 114 220
t231 85h165l-33 -236h-96q-46 0 -79 -31t-40 -82z" />
    <glyph glyph-name="braceright.sc" horiz-adv-x="722" 
d="M177 -134l52 372q17 122 65 188t143 93q-77 22 -113 80.5t-18 187.5l52 372q9 60 -14.5 93t-70.5 33h-96l33 236h165q135 0 207.5 -82.5t54.5 -210.5l-64 -453q-7 -53 15.5 -96.5t78.5 -43.5h55l-33 -233h-55q-54 0 -89 -39.5t-42 -88.5l-64 -452q-19 -135 -114 -220
t-231 -85h-165l33 236h96q46 0 79 31t40 82z" />
    <glyph glyph-name="bracketleft.sc" horiz-adv-x="649" 
d="M511 -253l-34 -231h-471l299 2004h471l-34 -232h-197l-230 -1541h196z" />
    <glyph glyph-name="bracketright.sc" horiz-adv-x="649" 
d="M182 1289l34 232h471l-300 -2004h-471l35 231h197l230 1541h-196z" />
    <glyph glyph-name="glyph211" horiz-adv-x="770" 
d="M233 1444h224q-6 -49 11 -79.5t61 -30.5q45 0 71 30.5t35 79.5h224q-22 -143 -117.5 -227t-242.5 -84q-146 0 -216.5 84t-49.5 227z" />
    <glyph glyph-name="c.sc" horiz-adv-x="816" 
d="M736 240l-16 -221q-115 -39 -264 -39q-186 0 -292 90t-94 247l11 97l30 200l18 96q22 103 84 178.5t163 121.5t237 46q55 0 127.5 -11t117.5 -29l-56 -224q-94 30 -182 30q-81 0 -140.5 -45.5t-71.5 -121.5l-42 -283q-11 -74 36.5 -116t136.5 -42q84 0 197 26z" />
    <glyph glyph-name="glyph216" horiz-adv-x="1916" 
d="M1872 635l-34 -229q-31 -205 -170 -315.5t-361 -110.5q-238 0 -408 74l184 1227h-167q-89 0 -137.5 -39t-48.5 -107q0 -44 32 -85t99 -69l-65 -231q-2 0 -18.5 4.5t-34.5 8.5t-42.5 8t-46.5 5.5t-36 1.5q-90 0 -149 -56t-73 -152l-23 -147q-14 -98 30.5 -152t137.5 -54
q94 0 193 24l-15 -229q-121 -32 -261 -32q-204 0 -304 109.5t-69 316.5l28 184q29 193 150.5 303t307.5 121q-69 66 -69 157q0 97 58.5 169.5t154 112t224.5 39.5h458l-86 -577q147 101 289 101q66 0 122 -25.5t94.5 -74.5t53.5 -121t2 -160zM1461 774q-85 0 -174 -67
l-71 -470q68 -22 134 -22q75 0 128.5 44t67.5 140l30 197q26 178 -115 178z" />
    <glyph glyph-name="glyph217" horiz-adv-x="1824" 
d="M736 240l-16 -221q-115 -39 -264 -39q-186 0 -292 90t-94 247l11 97l30 200l18 96q22 103 84 178.5t163 121.5t237 46q55 0 127.5 -11t117.5 -29l-56 -224q-94 30 -182 30q-81 0 -140.5 -45.5t-71.5 -121.5l-42 -283q-11 -74 36.5 -116t136.5 -42q84 0 197 26zM1307 0
h-435l155 1036h415q177 0 266.5 -63.5t89.5 -180.5q0 -183 -189 -256q69 -26 114.5 -81t45.5 -130q0 -153 -116.5 -239t-345.5 -86zM1490 337q0 53 -38.5 80.5t-103.5 27.5h-132l-37 -251h135q82 0 129 38.5t47 104.5zM1380 608q70 0 108 39t38 98q0 45 -29.5 71t-87.5 26
h-134l-35 -234h140z" />
    <glyph glyph-name="glyph218" horiz-adv-x="1932" 
d="M396 570l-23 -147q-14 -98 30.5 -152t137.5 -54q94 0 193 24l-15 -229q-121 -32 -261 -32q-204 0 -304 109.5t-69 316.5l28 184q29 193 150.5 303t307.5 121q-69 66 -69 157q0 97 58.5 169.5t154 112t224.5 39.5h458l-88 -590q176 114 329 114q132 0 193.5 -74.5
t40.5 -214.5l-108 -727h-290l95 637q17 120 -92 120q-40 0 -92 -19t-102 -53l-102 -685h-290l192 1281h-167q-89 0 -137.5 -39t-48.5 -107q0 -44 32 -85t99 -69l-65 -231q-2 0 -18.5 4.5t-34.5 8.5t-42.5 8t-46.5 5.5t-36 1.5q-90 0 -149 -56t-73 -152z" />
    <glyph glyph-name="glyph219" horiz-adv-x="1945" 
d="M736 240l-16 -221q-115 -39 -264 -39q-186 0 -292 90t-94 247l11 97l30 200l18 96q22 103 84 178.5t163 121.5t237 46q55 0 127.5 -11t117.5 -29l-56 -224q-94 30 -182 30q-81 0 -140.5 -45.5t-71.5 -121.5l-42 -283q-11 -74 36.5 -116t136.5 -42q84 0 197 26zM1779 0
h-291l60 405h-324l-61 -405h-291l155 1036h291l-59 -402h323l60 402h291z" />
    <glyph glyph-name="glyph220" horiz-adv-x="1879" 
d="M396 570l-23 -147q-14 -98 30.5 -152t137.5 -54q94 0 193 24l-15 -229q-121 -32 -261 -32q-204 0 -304 109.5t-69 316.5l28 184q29 193 150.5 303t307.5 121q-69 66 -69 157q0 97 58.5 169.5t154 112t224.5 39.5h465l-7 -48l-122 -817h98l232 369h321l-337 -491l119 -254
q15 -32 47 -32q39 0 79 10l-27 -219q-74 -30 -172 -30q-75 0 -129.5 35t-104.5 174l-74 205h-87l-59 -394h-290l191 1281h-166q-89 0 -137.5 -39t-48.5 -107q0 -44 32 -85t99 -69l-65 -231q-2 0 -18.5 4.5t-34.5 8.5t-42.5 8t-46.5 5.5t-36 1.5q-90 0 -149 -56t-73 -152z
" />
    <glyph glyph-name="glyph221" horiz-adv-x="1858" 
d="M736 240l-16 -221q-115 -39 -264 -39q-186 0 -292 90t-94 247l11 97l30 200l18 96q22 103 84 178.5t163 121.5t237 46q55 0 127.5 -11t117.5 -29l-56 -224q-94 30 -182 30q-81 0 -140.5 -45.5t-71.5 -121.5l-42 -283q-11 -74 36.5 -116t136.5 -42q84 0 197 26zM1602 1036
h317l-333 -522l192 -514h-319l-133 401h-100l-60 -401h-294l155 1036h294l-60 -399h105z" />
    <glyph glyph-name="glyph222" horiz-adv-x="1439" 
d="M396 570l-23 -147q-14 -98 30.5 -152t137.5 -54q94 0 193 24l-15 -229q-121 -32 -261 -32q-204 0 -304 109.5t-69 316.5l28 184q29 193 150.5 303t307.5 121q-69 66 -69 157q0 97 58.5 169.5t154 112t224.5 39.5h465l-7 -48l-171 -1141q-12 -84 64 -84q33 0 86 10
l-30 -219q-81 -30 -181 -30q-128 0 -185.5 56.5t-50.5 172.5q5 79 22 192l131 880h-166q-89 0 -137.5 -39t-48.5 -107q0 -44 32 -85t99 -69l-65 -231q-2 0 -18.5 4.5t-34.5 8.5t-42.5 8t-46.5 5.5t-36 1.5q-90 0 -149 -56t-73 -152z" />
    <glyph glyph-name="glyph223" horiz-adv-x="1650" 
d="M736 240l-16 -221q-115 -39 -264 -39q-186 0 -292 90t-94 247l11 97l30 200l18 96q22 103 84 178.5t163 121.5t237 46q55 0 127.5 -11t117.5 -29l-56 -224q-94 30 -182 30q-81 0 -140.5 -45.5t-71.5 -121.5l-42 -283q-11 -74 36.5 -116t136.5 -42q84 0 197 26zM1318 1036
l-120 -807h396l-33 -229h-689l155 1036h291z" />
    <glyph glyph-name="glyph224" horiz-adv-x="1522" 
d="M396 570l-23 -147q-14 -98 30.5 -152t137.5 -54q94 0 193 24l-15 -229q-121 -32 -261 -32q-204 0 -304 109.5t-69 316.5l28 184q29 193 150.5 303t307.5 121q-69 66 -69 157q0 97 58.5 169.5t154 112t224.5 39.5h490l-7 -48h-1l-67 -448h201l-33 -223h-196l-67 -448
q-8 -54 9.5 -82.5t71.5 -28.5q55 0 117 13l-17 -221q-92 -26 -215 -26q-288 0 -264 266q12 103 42 305.5t33 221.5h-123l33 223h130l42 285h-202q-89 0 -137.5 -39t-48.5 -107q0 -44 32 -85t99 -69l-65 -231q-2 0 -18.5 4.5t-34.5 8.5t-42.5 8t-46.5 5.5t-36 1.5
q-90 0 -149 -56t-73 -152z" />
    <glyph glyph-name="glyph225" horiz-adv-x="1703" 
d="M736 240l-16 -221q-115 -39 -264 -39q-186 0 -292 90t-94 247l11 97l30 200l18 96q22 103 84 178.5t163 121.5t237 46q55 0 127.5 -11t117.5 -29l-56 -224q-94 30 -182 30q-81 0 -140.5 -45.5t-71.5 -121.5l-42 -283q-11 -74 36.5 -116t136.5 -42q84 0 197 26zM1059 0
l121 809h-271l33 227h835l-34 -227h-271l-121 -809h-292z" />
    <glyph glyph-name="cacute.sc" horiz-adv-x="816" 
d="M736 240l-16 -221q-115 -39 -264 -39q-186 0 -292 90t-94 247l11 97l30 200l18 96q22 103 84 178.5t163 121.5t237 46q55 0 127.5 -11t117.5 -29l-56 -224q-94 30 -182 30q-81 0 -140.5 -45.5t-71.5 -121.5l-42 -283q-11 -74 36.5 -116t136.5 -42q84 0 197 26zM592 1109
l-181 53l250 338l257 -93z" />
    <glyph glyph-name="glyph229" horiz-adv-x="820" 
d="M908 1469l-240 -337h-288l-139 337l245 12l62 -191l119 191z" />
    <glyph glyph-name="ccaron.sc" horiz-adv-x="816" 
d="M736 240l-16 -221q-115 -39 -264 -39q-186 0 -292 90t-94 247l11 97l30 200l18 96q22 103 84 178.5t163 121.5t237 46q55 0 127.5 -11t117.5 -29l-56 -224q-94 30 -182 30q-81 0 -140.5 -45.5t-71.5 -121.5l-42 -283q-11 -74 36.5 -116t136.5 -42q84 0 197 26zM972 1469
l-239 -337h-288l-139 337l244 12l63 -191l118 191z" />
    <glyph glyph-name="ccedilla.sc" horiz-adv-x="816" 
d="M736 240l-16 -221q-94 -31 -217 -37l-65 -2l-20 -74q77 -9 121.5 -49t44.5 -111q0 -66 -38 -112.5t-108.5 -74t-169.5 -27.5q-75 0 -133 15l40 162q47 -11 88 -11q49 0 80.5 17.5t31.5 51.5q0 18 -16 34.5t-61 16.5h-60l65 180q-119 31 -182.5 116.5t-51.5 211.5l10 76
l34 224l13 77q21 104 83.5 181t164 124.5t239.5 47.5q55 0 127.5 -11t117.5 -29l-56 -224q-94 30 -182 30q-81 0 -140.5 -45.5t-71.5 -121.5l-42 -283q-11 -74 36.5 -116t136.5 -42q81 0 197 26z" />
    <glyph glyph-name="ccircumflex.sc" horiz-adv-x="816" 
d="M736 240l-16 -221q-115 -39 -264 -39q-186 0 -292 90t-94 247l11 97l30 200l18 96q22 103 84 178.5t163 121.5t237 46q55 0 127.5 -11t117.5 -29l-56 -224q-94 30 -182 30q-81 0 -140.5 -45.5t-71.5 -121.5l-42 -283q-11 -74 36.5 -116t136.5 -42q84 0 197 26zM248 1137
l226 338h291l124 -338l-239 -11l-56 183l-110 -183z" />
    <glyph glyph-name="cdotaccent.sc" horiz-adv-x="816" 
d="M736 240l-16 -221q-115 -39 -264 -39q-186 0 -292 90t-94 247l11 97l30 200l18 96q22 103 84 178.5t163 121.5t237 46q55 0 127.5 -11t117.5 -29l-56 -224q-94 30 -182 30q-81 0 -140.5 -45.5t-71.5 -121.5l-42 -283q-11 -74 36.5 -116t136.5 -42q84 0 197 26zM461 1265
q0 81 46 124t130 43q134 0 134 -116q0 -81 -45.5 -124t-129.5 -43q-135 0 -135 116z" />
    <glyph glyph-name="cent.tnum" 
d="M701 1482h262l-55 -272q91 -10 158 -34l-57 -224q-103 30 -198 30q-88 0 -153.5 -51.5t-77.5 -134.5l-36 -240q-13 -84 38.5 -133t147.5 -49q95 0 213 26l-15 -221q-86 -27 -191 -36l-26 -271h-262l58 283q-139 33 -209 133.5t-47 249.5l40 275q24 157 127.5 259
t256.5 132z" />
    <glyph glyph-name="cent.aalt" horiz-adv-x="961" 
d="M583 1408h262l-55 -272q88 -10 149 -34l-57 -224q-94 30 -181 30q-81 0 -141 -45.5t-71 -120.5l-43 -283q-11 -74 36.5 -116.5t136.5 -42.5q93 0 198 27l-15 -222q-80 -26 -184 -35l-25 -271h-263l59 285q-127 32 -192 125.5t-44 232.5l47 316q23 148 119 244t238 126z
" />
    <glyph glyph-name="cent.aalt.tnum" 
d="M690 1408h262l-56 -272q92 -10 159 -34l-57 -224q-103 30 -198 30q-87 0 -152.5 -51.5t-78.5 -133.5l-36 -242q-13 -82 38.5 -131.5t147.5 -49.5q98 0 214 27l-16 -222q-82 -26 -191 -35l-26 -271h-263l59 282q-139 32 -209 133t-48 251l41 274q24 158 127.5 259.5
t256.5 131.5z" />
    <glyph glyph-name="glyph244" horiz-adv-x="809" 
d="M199 1137l226 338h290l125 -338l-239 -11l-56 183l-110 -183z" />
    <glyph glyph-name="currency.tnum" 
d="M173 108l-131 144l210 212q-38 84 -22 197l6 34q15 103 72 188l-144 206l174 144l174 -189q86 40 179 40q89 0 163 -40l232 189l130 -144l-205 -205q34 -85 18 -189l-5 -34q-17 -109 -81 -199l145 -211l-173 -144l-183 201q-76 -36 -163 -36q-86 0 -154 36zM481 688
l-2 -19q-12 -75 20.5 -123t103.5 -48q70 0 117 48t58 123l3 19q11 75 -21.5 122.5t-102.5 47.5t-117 -47.5t-59 -122.5z" />
    <glyph glyph-name="currency.aalt" horiz-adv-x="1312" 
d="M200 23l-130 144l220 223q-38 84 -22 196l6 40q16 106 74 187l-152 216l173 145l182 -197q97 47 205 47q106 0 189 -47l239 197l130 -145l-215 -215q34 -80 19 -188l-6 -40q-17 -111 -82 -198l152 -221l-173 -144l-187 207q-91 -42 -191 -42q-104 0 -181 43zM528 619
l-3 -25q-12 -81 24.5 -131t114.5 -50t130 50t64 131l3 25q12 80 -24.5 129.5t-114.5 49.5t-130 -49.5t-64 -129.5z" />
    <glyph glyph-name="currency.aalt.tnum" 
d="M162 36l-131 143l209 213q-37 88 -21 197l5 34q16 105 74 188l-145 206l173 144l176 -189q85 40 177 40q87 0 164 -40l232 189l130 -144l-205 -205q34 -85 18 -189l-6 -34q-16 -109 -80 -199l145 -211l-174 -144l-182 202q-77 -37 -163 -37q-89 0 -154 37zM471 616
l-3 -19q-12 -75 21 -123t103 -48t116.5 48t58.5 123l3 19q11 75 -21.5 123t-102.5 48t-117 -48t-58 -123z" />
    <glyph glyph-name="d.sc" horiz-adv-x="1055" 
d="M57 0l155 1036h418q208 0 314 -101t80 -278l-25 -167q-14 -95 -33 -173q-25 -98 -86.5 -167t-162 -109.5t-242.5 -40.5h-418zM689 357l42 284q6 43 -3 81t-41 66.5t-97 28.5h-131l-89 -599h130q82 0 130.5 36.5t58.5 102.5z" />
    <glyph glyph-name="dagger.sc" horiz-adv-x="1083" 
d="M563 1419h271l-69 -443l374 11l-39 -258l-372 9l-173 -1122h-252l162 1122l-375 -9l39 258l370 -11z" />
    <glyph glyph-name="daggerdbl.sc" horiz-adv-x="1095" 
d="M99 760l39 259l372 -13l61 413h265l-61 -413l376 13l-39 -259l-372 13l-77 -513l376 14l-38 -259l-373 12l-61 -411h-265l62 411l-375 -12l38 259l371 -14l77 513z" />
    <glyph glyph-name="dcaron.sc" horiz-adv-x="1055" 
d="M57 0l155 1036h395q223 0 333.5 -98t83.5 -281l-42 -279q-28 -186 -161 -282t-346 -96h-418zM689 357l42 284q6 43 -3 81t-41 66.5t-97 28.5h-131l-89 -599h130q82 0 130.5 36.5t58.5 102.5zM1001 1469l-239 -337h-288l-139 337l244 12l63 -191l118 191z" />
    <glyph glyph-name="dcroat.sc" horiz-adv-x="1072" 
d="M39 441l23 156h99l66 439h395q151 0 245 -43.5t137 -115t37 -168.5q-1 -55 -13 -128l-19 -128l-24 -127q-37 -161 -168.5 -243.5t-326.5 -82.5h-418l66 441h-99zM704 357l44 292q11 82 -28.5 125t-114.5 43h-130l-33 -220h157l-24 -156h-156l-34 -223h130
q82 0 130.5 36.5t58.5 102.5z" />
    <glyph glyph-name="degree.aalt" horiz-adv-x="766" 
d="M138 852l11 76q13 84 60.5 146t124.5 99.5t175 37.5q97 0 163.5 -37.5t95.5 -99.5t16 -146l-11 -76q-13 -84 -60.5 -146t-125 -99.5t-174.5 -37.5q-98 0 -163.5 37.5t-95 99.5t-16.5 146zM363 913l-7 -45q-8 -50 15.5 -80t69.5 -30q45 0 78 30t40 80l7 45q8 50 -16 79.5
t-70 29.5q-45 0 -77.5 -29.5t-39.5 -79.5z" />
    <glyph glyph-name="glyph266" horiz-adv-x="876" 
d="M208 1265q0 81 46 124t130 43q134 0 134 -116q0 -81 -45.5 -124t-130.5 -43q-134 0 -134 116zM633 1265q0 81 46 124t131 43q65 0 99.5 -29.5t34.5 -86.5q0 -81 -46 -124t-131 -43q-134 0 -134 116z" />
    <glyph glyph-name="divide.tnum" 
d="M519 997q0 85 47.5 130.5t134.5 45.5q138 0 138 -121q0 -86 -47.5 -131.5t-134.5 -45.5q-138 0 -138 122zM261 770h761l-24 -164h-761zM420 325q0 86 46.5 132t134.5 46q137 0 137 -123q0 -86 -47 -131.5t-135 -45.5q-136 0 -136 122z" />
    <glyph glyph-name="divide.aalt" horiz-adv-x="1006" 
d="M430 908q0 86 47 131t135 45q137 0 137 -122q0 -86 -47 -131.5t-135 -45.5q-137 0 -137 123zM172 681h761l-25 -164h-761zM330 236q0 86 47 131t134 45q138 0 138 -122q0 -86 -47 -131t-135 -45q-66 0 -101.5 31t-35.5 91z" />
    <glyph glyph-name="divide.aalt.tnum" 
d="M506 908q0 86 47 131t135 45q137 0 137 -122q0 -86 -47 -131.5t-135 -45.5q-137 0 -137 123zM248 681h761l-25 -164h-761zM406 236q0 86 47 131t135 45q137 0 137 -122q0 -86 -47 -131t-135 -45q-66 0 -101.5 31t-35.5 91z" />
    <glyph glyph-name="dollar.tnum" 
d="M632 1542h263l-58 -281q118 -9 225 -40l-68 -229q-136 37 -272 37q-89 0 -140.5 -31.5t-51.5 -93.5q0 -21 8.5 -37.5t26.5 -28.5t41 -21t48 -16.5t61.5 -18t47.5 -13.5q117 -33 173.5 -100.5t56.5 -178.5q0 -166 -89.5 -268t-272.5 -127l-28 -283h-261l58 281
q-151 13 -259 52l75 228q49 -17 133 -32.5t154 -15.5q204 0 204 122q0 22 -11.5 42t-46 40t-206.5 69q-192 56 -192 260q0 154 95 261.5t259 136.5z" />
    <glyph glyph-name="dollar.aalt" horiz-adv-x="1046" 
d="M564 1468h263l-58 -281q109 -8 225 -39l-68 -230q-140 38 -272 38q-88 0 -140 -32t-52 -93q0 -21 8.5 -38t26.5 -29t41 -21t48 -16.5t63 -18t46 -12.5q117 -33 173.5 -101t56.5 -179q0 -166 -89 -267.5t-273 -126.5l-27 -283h-262l58 280q-146 13 -258 53l74 228
q47 -17 132.5 -33t154.5 -16q204 0 204 123q0 29 -15.5 48t-44.5 35.5t-204 67.5q-192 53 -192 259q0 155 95 262.5t259 135.5z" />
    <glyph glyph-name="dollar.aalt.tnum" 
d="M625 1468h263l-58 -281q113 -8 225 -39l-68 -230q-140 38 -272 38q-88 0 -140 -32t-52 -93q0 -21 8.5 -38t26.5 -29t41.5 -21t48 -16.5t61.5 -17.5t47 -13q117 -33 173.5 -101t56.5 -179q0 -165 -89.5 -267t-272.5 -127l-27 -283h-262l58 280q-144 12 -259 53l75 228
q49 -17 133.5 -33t153.5 -16q204 0 204 123q0 29 -15.5 48t-44.5 35.5t-204 67.5q-191 53 -191 259q0 155 94.5 262.5t258.5 135.5z" />
    <glyph glyph-name="glyph276" horiz-adv-x="450" 
d="M208 1265q0 81 46 124t130 43q134 0 134 -116q0 -81 -45.5 -124t-130.5 -43q-134 0 -134 116z" />
    <glyph glyph-name="e.sc" horiz-adv-x="900" 
d="M57 0l155 1036h718l-32 -216h-431l-30 -199h416l-31 -201h-415l-31 -204h448l-33 -216h-734z" />
    <glyph glyph-name="eacute.sc" horiz-adv-x="900" 
d="M57 0l155 1036h718l-32 -216h-431l-30 -199h416l-31 -201h-415l-31 -204h448l-33 -216h-734zM626 1109l-182 53l250 338l257 -93z" />
    <glyph glyph-name="ebreve.sc" horiz-adv-x="900" 
d="M57 0l155 1036h718l-32 -216h-431l-30 -199h416l-31 -201h-415l-31 -204h448l-33 -216h-734zM314 1444h224q-6 -49 11.5 -79.5t61.5 -30.5t70.5 30.5t35.5 79.5h223q-22 -143 -117.5 -227t-241.5 -84t-216.5 84t-50.5 227z" />
    <glyph glyph-name="ecaron.sc" horiz-adv-x="900" 
d="M57 0l155 1036h718l-32 -216h-431l-30 -199h416l-31 -201h-415l-31 -204h448l-33 -216h-734zM980 1469l-239 -337h-288l-138 337l244 12l62 -191l119 191z" />
    <glyph glyph-name="ecircumflex.sc" horiz-adv-x="900" 
d="M57 0l155 1036h718l-32 -216h-431l-30 -199h416l-31 -201h-415l-31 -204h448l-33 -216h-734zM261 1137l225 338h291l125 -338l-240 -11l-55 183l-111 -183z" />
    <glyph glyph-name="edieresis.sc" horiz-adv-x="900" 
d="M57 0l155 1036h718l-32 -216h-431l-30 -199h416l-31 -201h-415l-31 -204h448l-33 -216h-734zM239 1265q0 81 46 124t131 43q65 0 99.5 -29.5t34.5 -86.5q0 -81 -46 -124t-131 -43q-134 0 -134 116zM656 1265q0 81 45.5 124t130.5 43q135 0 135 -116q0 -81 -46.5 -124
t-130.5 -43q-134 0 -134 116z" />
    <glyph glyph-name="edotaccent.sc" horiz-adv-x="900" 
d="M57 0l155 1036h718l-32 -216h-431l-30 -199h416l-31 -201h-415l-31 -204h448l-33 -216h-734zM454 1265q0 81 46 124t130 43q134 0 134 -116q0 -81 -45.5 -124t-130.5 -43q-134 0 -134 116z" />
    <glyph glyph-name="uni1EB9.sc" horiz-adv-x="900" 
d="M57 0l155 1036h718l-32 -216h-431l-30 -199h416l-31 -201h-415l-31 -204h448l-33 -216h-734zM225 -322q0 86 47 131.5t135 45.5q137 0 137 -121q0 -86 -47 -131.5t-135 -45.5q-137 0 -137 121z" />
    <glyph glyph-name="egrave.sc" horiz-adv-x="900" 
d="M57 0l155 1036h718l-32 -216h-431l-30 -199h416l-31 -201h-415l-31 -204h448l-33 -216h-734zM773 1162l-192 -53l-241 298l286 93z" />
    <glyph glyph-name="eight.tnum" 
d="M1049 380q0 -86 -36.5 -160t-105.5 -127.5t-167.5 -83t-216.5 -29.5q-194 0 -304 80.5t-110 213.5q0 122 64.5 222t229.5 188q-168 109 -168 275q0 86 34.5 162t99.5 133t158 88.5t204 31.5q114 0 197.5 -36t135 -107t51.5 -176q0 -104 -55.5 -192.5t-205.5 -174.5
q195 -120 195 -308zM556 202q89 0 149.5 50t60.5 133q0 107 -154 200q-104 -48 -159.5 -108t-55.5 -139q0 -63 43.5 -99.5t115.5 -36.5zM848 1014q0 56 -37 93.5t-113 37.5q-85 0 -140.5 -46t-55.5 -128q0 -96 145 -184q93 43 147 92t54 135z" />
    <glyph glyph-name="uniF738.tnum" 
d="M1049 380q0 -86 -36.5 -160t-105.5 -127.5t-167.5 -83t-216.5 -29.5q-194 0 -304 80.5t-110 213.5q0 122 64.5 222t229.5 188q-168 109 -168 275q0 86 34.5 162t99.5 133t158 88.5t204 31.5q114 0 197.5 -36t135 -107t51.5 -176q0 -104 -55.5 -192.5t-205.5 -174.5
q195 -120 195 -308zM556 202q89 0 149.5 50t60.5 133q0 107 -154 200q-104 -48 -159.5 -108t-55.5 -139q0 -63 43.5 -99.5t115.5 -36.5zM848 1014q0 56 -37 93.5t-113 37.5q-85 0 -140.5 -46t-55.5 -128q0 -96 145 -184q93 43 147 92t54 135z" />
    <glyph glyph-name="emacron.sc" horiz-adv-x="900" 
d="M57 0l155 1036h718l-32 -216h-431l-30 -199h416l-31 -201h-415l-31 -204h448l-33 -216h-734zM278 1169l34 223h603l-34 -223h-603z" />
    <glyph glyph-name="eng.sc" horiz-adv-x="1131" 
d="M454 -289q115 72 168 137t68 160l-254 612l-93 -620h-286l155 1036h282l245 -627l94 627h286l-156 -1046h-1q-27 -147 -118.5 -255t-289.5 -203z" />
    <glyph glyph-name="eogonek.sc" horiz-adv-x="900" 
d="M57 0l155 1036h718l-32 -216h-431l-30 -199h416l-31 -201h-415l-31 -204h448l-33 -216q-188 -123 -188 -225q0 -29 18 -45t49 -16q52 0 89 13l-11 -176q-57 -19 -135 -19q-107 0 -169.5 41.5t-62.5 126.5q0 166 246 300h-570z" />
    <glyph glyph-name="equal.tnum" 
d="M303 981h740l-35 -236h-741zM248 609h740l-35 -236h-741z" />
    <glyph glyph-name="equal.aalt" horiz-adv-x="991" 
d="M205 902h741l-36 -236h-740zM149 531h741l-35 -236h-741z" />
    <glyph glyph-name="equal.aalt.tnum" 
d="M291 902h741l-36 -236h-740zM236 531h740l-35 -236h-741z" />
    <glyph glyph-name="estimated.aalt" horiz-adv-x="1589" 
d="M1486 561h-1079q-9 0 -11 -10l-44 -292q-3 -22 11 -39q54 -69 150 -114t234 -45q121 0 235 41.5t203 118.5h111q-108 -111 -254.5 -176t-308.5 -65q-157 0 -290 67t-211.5 194.5t-78.5 283.5q0 172 100 331.5t281 259.5t383 100q169 0 310.5 -81t214.5 -230.5t47 -323.5z
M1254 648l44 292q4 24 -12 40q-61 77 -160 117t-219 40q-117 0 -229 -38.5t-200 -118.5q-21 -18 -24 -43l-44 -289q-1 -10 9 -10h827q7 0 8 10z" />
    <glyph glyph-name="eth.sc" horiz-adv-x="1072" 
d="M39 441l23 156h99l66 439h395q151 0 245 -43.5t137 -115t37 -168.5q-1 -55 -13 -128l-19 -128l-24 -127q-37 -161 -168.5 -243.5t-326.5 -82.5h-418l66 441h-99zM704 357l44 292q11 82 -28.5 125t-114.5 43h-130l-33 -220h157l-24 -156h-156l-34 -223h130
q82 0 130.5 36.5t58.5 102.5z" />
    <glyph glyph-name="uni1EBD.sc" horiz-adv-x="900" 
d="M57 0l155 1036h718l-32 -216h-431l-30 -199h416l-31 -201h-415l-31 -204h448l-33 -216h-734zM517 1426q44 0 112 -25.5t102 -25.5q56 0 121 60l104 -98q-15 -31 -49.5 -75t-92 -79t-123.5 -35q-44 0 -112 26t-103 26q-56 0 -120 -61l-105 98q38 73 108.5 131t157.5 58z
" />
    <glyph glyph-name="exclam.sc" horiz-adv-x="500" 
d="M538 1196l-160 -788h-243l75 788h328zM54 102q0 86 47.5 131.5t135.5 45.5q66 0 101.5 -31t35.5 -91q0 -86 -47 -131.5t-135 -45.5q-138 0 -138 122z" />
    <glyph glyph-name="exclamdown.sc" horiz-adv-x="500" 
d="M6 -160l161 788h243l-75 -788h-329zM171 880q0 86 47 131t135 45q66 0 101.5 -31t35.5 -91q0 -86 -47.5 -131.5t-134.5 -45.5q-137 0 -137 123z" />
    <glyph glyph-name="f.sc" horiz-adv-x="868" 
d="M57 0l155 1036h708l-34 -227h-421l-30 -200h405l-31 -209h-405l-60 -400h-287z" />
    <glyph glyph-name="glyph329" horiz-adv-x="1708" 
d="M532 1060l-9 -64h181l-33 -223h-176l-182 -1221h-290l182 1221h-123l32 223h125l12 78q26 180 153 285t344 105q99 0 192 -21q13 -1 30 -2.5t98 -10t111 -7.5l-75 -508q145 101 287 101q67 0 123.5 -25.5t94.5 -74.5t53 -121t2 -160l-34 -229q-31 -205 -170 -315.5
t-362 -110.5q-236 0 -407 74l173 1152q-78 18 -146 18q-80 0 -126.5 -39t-59.5 -125zM1254 774q-84 0 -175 -67l-70 -470q66 -22 134 -22q168 0 200 208l24 161q13 92 -12 141t-101 49z" />
    <glyph glyph-name="glyph330" horiz-adv-x="1877" 
d="M57 0l155 1036h708l-34 -227h-421l-30 -200h405l-31 -209h-405l-60 -400h-287zM1359 0h-434l154 1036h416q176 0 265.5 -63.5t89.5 -180.5q0 -82 -44.5 -150t-143.5 -106q69 -26 114 -81t45 -130q0 -153 -116.5 -239t-345.5 -86zM1542 337q0 53 -38.5 80.5t-103.5 27.5
h-131l-38 -251h135q82 0 129 38t47 105zM1433 608q70 0 108 39t38 98q0 45 -29.5 71t-87.5 26h-134l-35 -234h140z" />
    <glyph glyph-name="uniFB00.sc" horiz-adv-x="1737" 
d="M57 0l155 1036h708l-34 -227h-421l-30 -200h405l-31 -209h-405l-60 -400h-287zM925 0l154 1036h708l-33 -227h-421l-30 -200h405l-31 -209h-405l-60 -400h-287z" />
    <glyph glyph-name="glyph333" horiz-adv-x="2280" 
d="M82 773l32 223h125l16 109q24 156 125.5 247.5t263.5 91.5q95 0 183 -22l-69 -222q-55 10 -90 10q-116 0 -134 -125l-14 -89h291l11 78q27 181 154 285.5t343 104.5q100 0 193 -21q13 -1 30 -2.5t97.5 -10t111.5 -7.5l-76 -508q147 101 288 101q102 0 168.5 -52
t93.5 -135.5t11 -193.5l-35 -229q-30 -204 -169 -315t-362 -111q-237 0 -407 74l173 1152q-78 18 -145 18q-81 0 -127.5 -38.5t-59.5 -125.5l-10 -64h182l-34 -223h-175l-182 -1221h-290l182 1221h-282l-182 -1221h-290l182 1221h-123zM1825 774q-85 0 -174 -67l-70 -470
q66 -22 134 -22q169 0 199 208l24 161q14 92 -11.5 141t-101.5 49z" />
    <glyph glyph-name="glyph334" horiz-adv-x="2745" 
d="M57 0l155 1036h708l-34 -227h-421l-30 -200h405l-31 -209h-405l-60 -400h-287zM925 0l154 1036h708l-33 -227h-421l-30 -200h405l-31 -209h-405l-60 -400h-287zM2227 0h-434l155 1036h415q176 0 265.5 -63.5t89.5 -180.5q0 -82 -44.5 -150t-143.5 -106q69 -26 114 -81
t45 -130q0 -153 -116.5 -239t-345.5 -86zM2411 337q0 53 -39 80.5t-103 27.5h-132l-38 -251h136q82 0 129 38.5t47 104.5zM2301 608q70 0 108 39t38 98q0 45 -29.5 71t-87.5 26h-134l-35 -234h140z" />
    <glyph glyph-name="glyph335" horiz-adv-x="2296" 
d="M82 773l32 223h125l16 109q24 156 125.5 247.5t263.5 91.5q95 0 183 -22l-69 -222q-55 10 -90 10q-116 0 -134 -125l-14 -89h291l11 78q27 180 154 285t343 105q99 0 196 -22q36 -3 121 -12t114 -9l-77 -519q178 114 328 114q134 0 195 -74.5t40 -214.5l-109 -727h-289
l95 637q19 120 -91 120q-87 0 -195 -72l-102 -685h-289l180 1206q-78 18 -145 18q-81 0 -127.5 -38.5t-59.5 -125.5l-10 -64h182l-34 -223h-175l-182 -1221h-290l182 1221h-282l-182 -1221h-290l182 1221h-123z" />
    <glyph glyph-name="glyph336" horiz-adv-x="2865" 
d="M57 0l155 1036h708l-34 -227h-421l-30 -200h405l-31 -209h-405l-60 -400h-287zM925 0l154 1036h708l-33 -227h-421l-30 -200h405l-31 -209h-405l-60 -400h-287zM2699 0h-291l61 405h-324l-61 -405h-291l155 1036h291l-60 -402h324l59 402h292z" />
    <glyph glyph-name="glyph337" horiz-adv-x="2232" 
d="M82 773l32 223h125l16 109q24 156 125.5 247.5t263.5 91.5q95 0 183 -22l-69 -222q-55 10 -90 10q-116 0 -134 -125l-14 -89h291l11 78q27 180 154 285t343 105q55 0 103 -13q85 2 201.5 -13t131.5 -15l-119 -798h98l233 371h320l-336 -491l199 -505h-320l-132 396h-96
l-59 -396h-290l180 1207q-81 17 -142 17q-81 0 -127.5 -38.5t-59.5 -125.5l-10 -64h182l-34 -223h-175l-182 -1221h-290l182 1221h-282l-182 -1221h-290l182 1221h-123z" />
    <glyph glyph-name="glyph338" horiz-adv-x="2778" 
d="M57 0l155 1036h708l-34 -227h-421l-30 -200h405l-31 -209h-405l-60 -400h-287zM925 0l154 1036h708l-33 -227h-421l-30 -200h405l-31 -209h-405l-60 -400h-287zM2522 1036h317l-332 -522l192 -514h-320l-132 401h-101l-60 -401h-293l155 1036h293l-59 -399h104z" />
    <glyph glyph-name="uniFB04.sc" horiz-adv-x="2570" 
d="M57 0l155 1036h708l-34 -227h-421l-30 -200h405l-31 -209h-405l-60 -400h-287zM925 0l154 1036h708l-33 -227h-421l-30 -200h405l-31 -209h-405l-60 -400h-287zM2239 1036l-120 -807h396l-34 -229h-688l155 1036h291z" />
    <glyph glyph-name="glyph341" horiz-adv-x="1827" 
d="M82 773l32 223h125l16 109q24 156 125.5 247.5t263.5 91.5q95 0 183 -22l-69 -222q-55 10 -90 10q-116 0 -134 -125l-14 -89h291l15 101q25 172 131 269.5t269 97.5q92 0 183 -22l-69 -222q-63 10 -98 10q-59 0 -92 -33t-45 -117l-13 -84h285l70 278h253l-40 -278h200
l-33 -223h-195l-67 -448q-8 -54 9.5 -82.5t70.5 -28.5q52 0 117 13l-17 -221q-92 -26 -215 -26q-286 0 -264 260q12 115 76 533h-275l-182 -1221h-290l182 1221h-282l-182 -1221h-290l182 1221h-123z" />
    <glyph glyph-name="glyph342" horiz-adv-x="2624" 
d="M57 0l155 1036h708l-34 -227h-421l-30 -200h405l-31 -209h-405l-60 -400h-287zM925 0l154 1036h708l-33 -227h-421l-30 -200h405l-31 -209h-405l-60 -400h-287zM1979 0l121 809h-271l34 227h834l-34 -227h-270l-121 -809h-293z" />
    <glyph glyph-name="glyph343" horiz-adv-x="1725" 
d="M82 773l32 223h125l12 78q26 180 153 285t344 105q96 0 195 -22q36 -3 121.5 -12t114.5 -9l-78 -519q178 114 329 114q133 0 194.5 -74.5t39.5 -214.5l-109 -727h-289l95 637q19 120 -91 120q-40 0 -92 -19t-102 -53l-102 -685h-290l180 1206q-78 18 -146 18
q-80 0 -126.5 -39t-59.5 -125l-9 -64h181l-33 -223h-176l-182 -1221h-290l182 1221h-123z" />
    <glyph glyph-name="glyph344" horiz-adv-x="1997" 
d="M57 0l155 1036h708l-34 -227h-421l-30 -200h405l-31 -209h-405l-60 -400h-287zM1831 0h-291l60 405h-324l-61 -405h-290l154 1036h291l-59 -402h323l61 402h290z" />
    <glyph glyph-name="glyph345" horiz-adv-x="1661" 
d="M532 1060l-10 -64h182l-33 -223h-176l-182 -1221h-290l182 1221h-123l32 223h125l12 78q26 180 153 285t344 105q98 0 192 -21q14 -1 28.5 -2.5t99 -10t116.5 -7.5l-120 -798h98l233 371h320l-336 -491l199 -505h-320l-132 396h-96l-59 -396h-290l180 1207
q-81 17 -143 17q-80 0 -126.5 -39t-59.5 -125z" />
    <glyph glyph-name="glyph346" horiz-adv-x="1910" 
d="M57 0l155 1036h708l-34 -227h-421l-30 -200h405l-31 -209h-405l-60 -400h-287zM1655 1036h317l-333 -522l191 -514h-318l-133 401h-101l-59 -401h-294l154 1036h294l-60 -399h105z" />
    <glyph glyph-name="uniFB02.sc" horiz-adv-x="1702" 
d="M57 0l155 1036h708l-34 -227h-421l-30 -200h405l-31 -209h-405l-60 -400h-287zM1370 1036l-120 -807h397l-34 -229h-688l154 1036h291z" />
    <glyph glyph-name="glyph349" horiz-adv-x="1255" 
d="M82 773l32 223h125l15 101q25 172 131.5 269.5t269.5 97.5q94 0 182 -22l-69 -222q-63 10 -97 10q-60 0 -93 -33t-45 -117l-13 -84h285l70 278h254l-41 -278h201l-34 -223h-195l-67 -448q-8 -54 9.5 -82.5t70.5 -28.5t118 13l-18 -221q-65 -20 -164 -24q-52 -2 -100 4
q-231 24 -214 254q12 121 75 533h-275l-182 -1221h-290l182 1221h-123z" />
    <glyph glyph-name="glyph350" horiz-adv-x="1756" 
d="M57 0l155 1036h708l-34 -227h-421l-30 -200h405l-31 -209h-405l-60 -400h-287zM1111 0l121 809h-271l34 227h834l-34 -227h-271l-121 -809h-292z" />
    <glyph glyph-name="glyph351" horiz-adv-x="1860" 
d="M82 773l32 223h125l15 101q25 172 131.5 269.5t269.5 97.5q97 0 184 -24l-71 -220q-63 10 -97 10q-60 0 -93 -33t-45 -117l-13 -84h285l68 264h254l-39 -264h328l56 278h261l-41 -278h201l-33 -223h-196l-66 -448q-8 -54 9.5 -82.5t70.5 -28.5q52 0 117 13l-17 -221
q-95 -26 -215 -26q-290 0 -264 266q6 56 17 135t31.5 213t27.5 179h-315l-68 -456q-7 -51 10 -77t71 -26q51 0 109 13l-16 -221q-95 -26 -207 -26q-290 0 -264 266q10 90 75 527h-275l-182 -1221h-290l182 1221h-123z" />
    <glyph glyph-name="glyph352" horiz-adv-x="2643" 
d="M57 0l155 1036h708l-34 -227h-421l-30 -200h405l-31 -209h-405l-60 -400h-287zM1111 0l121 809h-271l34 227h834l-34 -227h-271l-121 -809h-292zM1998 0l121 809h-271l34 227h834l-34 -227h-271l-121 -809h-292z" />
    <glyph glyph-name="five.tnum" 
d="M1018 464q0 -240 -148 -362t-431 -122q-75 0 -169 9.5t-171 29.5l65 249q47 -10 130.5 -20t154.5 -10q278 0 278 199q0 71 -62 114t-197 45q-76 1 -255 -6l143 764h730l-38 -254h-498l-54 -280q62 0 135 -5q133 -10 217.5 -56.5t127 -119.5t42.5 -175z" />
    <glyph glyph-name="uniF735.tnum" 
d="M996 319q0 -240 -148.5 -362.5t-429.5 -122.5q-76 0 -171 10t-171 30l66 248q153 -30 286 -30q277 0 277 199q0 71 -61.5 114t-196.5 45q-141 2 -257 -6l144 764h730l-37 -254h-499l-54 -280q47 0 135 -6q132 -9 217 -55t127.5 -119t42.5 -175z" />
    <glyph glyph-name="florin.tnum" 
d="M274 566l33 224h183l84 259q105 323 458 323q102 0 173 -22l-82 -222q-66 12 -112 12q-65 0 -103.5 -33.5t-65.5 -120.5l-62 -196h204l-33 -224h-244l-200 -624q-64 -199 -177 -303.5t-298 -105.5q-99 0 -177 23l85 222q63 -12 105 -12q62 0 99.5 32.5t64.5 115.5
l208 652h-143z" />
    <glyph glyph-name="florin.aalt" horiz-adv-x="1030" 
d="M233 593l48 223h168l87 264q105 318 456 318q100 0 174 -22l-88 -222q-63 12 -108 12q-64 0 -102 -34t-64 -120l-63 -196h205l-47 -223h-231l-140 -437q-56 -181 -172.5 -269.5t-302.5 -88.5q-101 0 -173 22l91 222q63 -12 104 -12q65 0 105 35t66 119l131 409h-144z" />
    <glyph glyph-name="florin.aalt.tnum" 
d="M304 593l48 223h168l87 264q105 318 456 318q100 0 174 -22l-88 -222q-63 12 -108 12q-64 0 -102 -34t-64 -120l-63 -196h205l-47 -223h-231l-140 -437q-56 -181 -172.5 -269.5t-302.5 -88.5q-101 0 -173 22l91 222q63 -12 104 -12q65 0 105 35t66 119l131 409h-144z" />
    <glyph glyph-name="glyph361" horiz-adv-x="2301" 
d="M200 945v71h295v-71h-112v-302h-80v302h-103zM449 643v253h81v-253h-81zM594 547v349h65l9 -24l8 7q6 7 23 14.5t35 7.5q48 0 75.5 -35.5t27.5 -93.5q0 -59 -33 -96t-88 -37q-23 0 -40 10v-102h-82zM676 826v-117q9 -9 30 -9q23 0 35.5 19t12.5 50t-12 50t-34 19
q-20 0 -32 -12zM1002 901q62 0 95 -36.5t33 -92.5q0 -61 -35 -97t-96 -36q-57 0 -91 35.5t-34 92.5q0 58 33.5 96t94.5 38zM1001 843q-45 0 -45 -71q0 -75 46 -75q45 0 45 72q0 74 -46 74zM1593 547v349h66l8 -24l7 7q7 7 24.5 14.5t35.5 7.5q47 0 75 -35.5t28 -93.5
q0 -59 -33.5 -96t-87.5 -37q-24 0 -42 10v-102h-81zM1674 826v-117q16 -9 33 -9q16 0 31 15t15 54q0 69 -46 69q-19 0 -33 -12zM1078 945v71h283v-71h-101v-302h-81v302h-101zM1386 659l-89 237h89l51 -173h3l41 173h88l-80 -257q-19 -54 -48.5 -78t-77.5 -24q-31 0 -60 13
l9 59q30 -6 46 -6q31 0 37 29zM2093 754h-139q4 -49 55 -49q37 0 69 13l17 -58q-39 -21 -95 -21q-58 0 -93 35.5t-35 92.5q0 58 33.5 96t94.5 38q46 0 73.5 -26.5t27.5 -68.5q0 -33 -8 -52zM1954 797h70q4 20 -4.5 33t-25.5 13q-35 0 -40 -46zM321 426h9l38 -102l37 106h12
l-43 -119h-12l-37 101l-38 -101h-10l-43 119h12l37 -106zM508 426h10l39 -102l35 106h12l-42 -119h-11l-38 101l-36 -101h-11l-43 119h10l38 -106zM697 426h9l38 -102l38 106h11l-43 -119h-12l-37 101l-37 -101h-10l-44 119h12l37 -106zM806 326q6 0 6 -8q0 -10 -8 -10
q-7 0 -7 9t9 9zM831 423v7h91v-7h-39v-112h-11v112h-41zM945 311v119h11v-119h-11zM1006 311h-10v119h36q43 0 43 -35q0 -12 -9.5 -24t-34.5 -12h-25v-48zM1031 423h-25v-56h26q14 0 23 7.5t9 19.5q0 29 -33 29zM1091 370q0 27 17 45t43 18t42 -18t16 -45t-16.5 -44.5
t-43.5 -17.5q-24 0 -41 18t-17 44zM1198 369q0 25 -13.5 39.5t-35.5 14.5q-20 0 -33 -14t-13 -38t13 -38.5t35 -14.5q20 0 33.5 13.5t13.5 37.5zM1218 423v7h91v-7h-40v-112h-10v112h-41zM1360 311v46l-45 73h11l40 -65l40 65h11l-46 -73v-46h-11zM1450 311h-10v119h37
q42 0 42 -35q0 -12 -9.5 -24t-33.5 -12h-26v-48zM1476 423h-26v-56h27q31 0 31 27q0 29 -32 29zM1616 430v-7h-61v-48h59v-9h-59v-47h63v-8h-73v119h71zM1655 326q8 0 8 -8q0 -10 -8 -10t-8 9t8 9zM1751 433l27 -6l-3 -7l-25 3q-22 0 -35.5 -13.5t-13.5 -38.5
q0 -24 14 -38.5t40 -14.5l25 4l3 -8l-30 -6q-28 0 -46 18t-18 44q0 28 17 45.5t45 17.5zM1800 370q0 28 16 45.5t43 17.5q25 0 42 -18t17 -45q0 -26 -17 -44t-43 -18q-25 0 -41.5 18t-16.5 44zM1906 369q0 25 -13.5 39.5t-34.5 14.5t-34.5 -14t-13.5 -38t13.5 -38.5
t35.5 -14.5q20 0 33.5 13.5t13.5 37.5zM1948 311v119h15l50 -90l48 90h16v-119h-11v108l-49 -91h-8l-50 91v-108h-11z" />
    <glyph glyph-name="four.tnum" 
d="M814 1354h249l-127 -851h161l-35 -228h-160l-41 -275h-267l41 275h-545l34 222zM409 503h266l63 422z" />
    <glyph glyph-name="uniF734.tnum" 
d="M792 1208h250l-127 -850h160l-34 -229h-160l-42 -275h-267l41 275h-544l33 222zM387 358h266l63 421z" />
    <glyph glyph-name="uni2074.aalt" horiz-adv-x="647" 
d="M66 611l23 154l349 429v2h217l-62 -419h92l-25 -166h-92l-18 -118h-214l18 118h-288zM291 772h100l23 155z" />
    <glyph glyph-name="fraction.aalt" horiz-adv-x="994" 
d="M143 674h820l-23 -152h-820z" />
    <glyph glyph-name="franc.tnum" 
d="M168 0l30 203h-139l24 158h139l148 993h818l-38 -249h-516l-45 -302h496l-36 -245h-496l-30 -197h233l-24 -158h-233l-30 -203h-301z" />
    <glyph glyph-name="franc.aalt" horiz-adv-x="1069" 
d="M158 0l25 168h-126l24 158h125l131 870h755l-36 -237h-466l-37 -248h449l-35 -235h-448l-23 -150h218l-24 -158h-217l-26 -168h-289z" />
    <glyph glyph-name="franc.aalt.tnum" 
d="M198 0l25 168h-125l23 158h126l130 870h755l-35 -237h-466l-37 -248h448l-35 -235h-448l-23 -150h218l-24 -158h-217l-25 -168h-290z" />
    <glyph glyph-name="g.salt" horiz-adv-x="992" 
d="M101 610l13 80q13 87 68 158.5t148 119.5t208 48q65 0 115 -24.5t77 -87t11 -170.5q17 48 28 125t-1 157l240 -20q-20 -369 -155.5 -540t-386.5 -171q-53 0 -97 9q-58 -47 -58 -85q0 -15 12.5 -29t46.5 -14h240q102 0 171.5 -37t105 -98.5t35.5 -145.5q0 -110 -56 -189
t-160.5 -125.5t-250.5 -46.5h-167q-158 0 -244 58t-86 164q0 76 48.5 140.5t140.5 112.5q-33 20 -52.5 55t-19.5 75q0 61 42.5 116t106.5 96q-71 42 -103.5 112t-19.5 157zM389 693l-9 -61q-11 -67 16 -113t99 -46q62 0 106 41t56 118l5 38q11 67 -16 114.5t-97 47.5
q-68 0 -110 -41.5t-50 -97.5zM551 -46h-195l-50 1q-38 -21 -67.5 -57t-29.5 -78q0 -44 33.5 -66.5t115.5 -22.5h103q206 0 206 128q0 95 -116 95z" />
    <glyph glyph-name="g.sc" horiz-adv-x="953" 
d="M899 528l-73 -490q-71 -25 -173.5 -41.5t-202.5 -16.5q-86 0 -158.5 22t-123.5 65.5t-76.5 107.5t-20.5 145l13 117l34 225q11 70 44 140.5t97.5 126.5t162.5 91.5t230 35.5q68 0 151 -13t145 -38l-73 -222q-115 39 -229 39q-105 0 -171.5 -47.5t-79.5 -131.5l-39 -261
q-13 -84 27 -126.5t126 -42.5q53 0 99 11l45 304h246z" />
    <glyph glyph-name="gbreve.sc" horiz-adv-x="953" 
d="M899 528l-73 -490q-71 -25 -173.5 -41.5t-202.5 -16.5q-86 0 -158.5 22t-123.5 65.5t-76.5 107.5t-20.5 145l13 117l34 225q11 70 44 140.5t97.5 126.5t162.5 91.5t230 35.5q68 0 151 -13t145 -38l-73 -222q-115 39 -229 39q-105 0 -171.5 -47.5t-79.5 -131.5l-39 -261
q-13 -84 27 -126.5t126 -42.5q53 0 99 11l45 304h246zM349 1444h223q-6 -49 11.5 -79.5t61.5 -30.5q45 0 71 30.5t35 79.5h223q-21 -143 -116.5 -227t-242.5 -84q-146 0 -216.5 84t-49.5 227z" />
    <glyph glyph-name="gcaron.sc" horiz-adv-x="953" 
d="M899 528l-73 -490q-71 -25 -173.5 -41.5t-202.5 -16.5q-86 0 -158.5 22t-123.5 65.5t-76.5 107.5t-20.5 145l13 117l34 225q11 70 44 140.5t97.5 126.5t162.5 91.5t230 35.5q68 0 151 -13t145 -38l-73 -222q-115 39 -229 39q-105 0 -171.5 -47.5t-79.5 -131.5l-39 -261
q-13 -84 27 -126.5t126 -42.5q53 0 99 11l45 304h246zM1008 1469l-239 -337h-289l-138 337l244 12l62 -191l119 191z" />
    <glyph glyph-name="gcircumflex.sc" horiz-adv-x="953" 
d="M899 528l-73 -490q-71 -25 -173.5 -41.5t-202.5 -16.5q-86 0 -158.5 22t-123.5 65.5t-76.5 107.5t-20.5 145l13 117l34 225q11 70 44 140.5t97.5 126.5t162.5 91.5t230 35.5q68 0 151 -13t145 -38l-73 -222q-115 39 -229 39q-105 0 -171.5 -47.5t-79.5 -131.5l-39 -261
q-13 -84 27 -126.5t126 -42.5q53 0 99 11l45 304h246zM304 1137l225 338h291l125 -338l-240 -11l-55 183l-110 -183z" />
    <glyph glyph-name="gcommaaccent.sc" horiz-adv-x="953" 
d="M899 528l-73 -490q-71 -25 -173.5 -41.5t-202.5 -16.5q-86 0 -158.5 22t-123.5 65.5t-76.5 107.5t-20.5 145l13 117l34 225q11 70 44 140.5t97.5 126.5t162.5 91.5t230 35.5q68 0 151 -13t145 -38l-73 -222q-115 39 -229 39q-105 0 -171.5 -47.5t-79.5 -131.5l-39 -261
q-13 -84 27 -126.5t126 -42.5q53 0 99 11l45 304h246zM330 -93h252l-16 -68q-18 -81 -66.5 -184.5t-122.5 -180.5h-185q101 186 125 352z" />
    <glyph glyph-name="gdotaccent.sc" horiz-adv-x="953" 
d="M899 528l-73 -490q-71 -25 -173.5 -41.5t-202.5 -16.5q-86 0 -158.5 22t-123.5 65.5t-76.5 107.5t-20.5 145l13 117l34 225q11 70 44 140.5t97.5 126.5t162.5 91.5t230 35.5q68 0 151 -13t145 -38l-73 -222q-115 39 -229 39q-105 0 -171.5 -47.5t-79.5 -131.5l-39 -261
q-13 -84 27 -126.5t126 -42.5q53 0 99 11l45 304h246zM487 1265q0 81 46 124t131 43q134 0 134 -116q0 -81 -46 -124t-131 -43q-65 0 -99.5 29.5t-34.5 86.5z" />
    <glyph glyph-name="germandbls.sc" horiz-adv-x="1740" 
d="M815 349q0 -183 -118.5 -276t-341.5 -93q-81 0 -178 12t-165 38l66 213q47 -15 123 -29t146 -14q183 0 183 109q0 20 -10.5 38.5t-41 34.5t-107 38.5t-90.5 26.5q-165 47 -165 235q0 167 118 270.5t322 103.5q160 0 316 -39l-60 -217q-132 36 -246 36q-80 0 -122.5 -28.5
t-42.5 -84.5q0 -12 5 -28t23.5 -29.5t47.5 -24.5t75 -24t58 -17q104 -30 154.5 -90.5t50.5 -160.5zM1686 349q0 -183 -118.5 -276t-341.5 -93q-81 0 -178.5 12t-165.5 38l66 213q48 -15 123.5 -29t145.5 -14q183 0 183 109q0 20 -10.5 38.5t-41 34.5t-108.5 39t-89 26
q-164 46 -164 235q0 167 118 270.5t322 103.5q157 0 316 -39l-61 -217q-130 36 -245 36q-166 0 -166 -113q0 -12 5 -27.5t23.5 -29.5t47.5 -24.5t74.5 -24t58.5 -17.5q105 -30 155.5 -90.5t50.5 -160.5z" />
    <glyph glyph-name="glyph390" horiz-adv-x="613" 
d="M657 1162l-193 -53l-241 298l286 93z" />
    <glyph glyph-name="greater.tnum" 
d="M416 169l-162 170l418 338l-317 338l214 170l467 -508z" />
    <glyph glyph-name="greater.aalt" horiz-adv-x="982" 
d="M272 89l-164 170l419 339l-317 338l214 170l467 -508z" />
    <glyph glyph-name="greater.aalt.tnum" 
d="M405 89l-163 170l419 339l-318 338l214 170l467 -508z" />
    <glyph glyph-name="greaterequal.tnum" 
d="M231 187h699l-25 -165h-698zM438 309l-164 170l419 338l-317 338l214 170l467 -508z" />
    <glyph glyph-name="greaterequal.aalt" horiz-adv-x="982" 
d="M89 123h698l-24 -164h-699zM295 246l-163 169l419 339l-318 338l214 170l467 -508z" />
    <glyph glyph-name="greaterequal.aalt.tnum" 
d="M221 123h699l-24 -164h-699zM428 246l-163 169l419 339l-318 338l214 170l467 -508z" />
    <glyph glyph-name="h.sc" horiz-adv-x="1130" 
d="M963 0h-291l60 405h-324l-60 -405h-291l155 1036h290l-60 -402h324l61 402h291z" />
    <glyph glyph-name="hbar.sc" horiz-adv-x="1168" 
d="M75 754l22 151h114l20 131h291l-20 -131h324l20 131h291l-20 -131h114l-22 -151h-114l-113 -754h-291l60 405h-323l-61 -405h-291l113 754h-114zM461 634h325l17 120h-323z" />
    <glyph glyph-name="hcircumflex.sc" horiz-adv-x="1130" 
d="M963 0h-291l60 405h-324l-60 -405h-291l155 1036h290l-60 -402h324l61 402h291zM358 1137l226 338h291l124 -338l-238 -11l-56 183l-111 -183z" />
    <glyph glyph-name="glyph412" horiz-adv-x="888" 
d="M375 1115l-184 26l142 378l250 -50zM714 1115l-186 29l191 371l262 -61z" />
    <glyph glyph-name="i.aalt" horiz-adv-x="507" 
d="M202 996h290l-149 -996h-290zM227 1255q0 86 47 131.5t135 45.5q137 0 137 -122q0 -86 -47 -131.5t-135 -45.5q-137 0 -137 122z" />
    <glyph glyph-name="i.sc" horiz-adv-x="514" 
d="M502 1036l-154 -1036h-291l155 1036h290z" />
    <glyph glyph-name="iacute.sc" horiz-adv-x="514" 
d="M502 1036l-154 -1036h-291l155 1036h290zM405 1109l-181 53l250 338l258 -93z" />
    <glyph glyph-name="ibreve.sc" horiz-adv-x="514" 
d="M502 1036l-154 -1036h-291l155 1036h290zM105 1444h224q-6 -49 11 -79.5t61 -30.5q45 0 71.5 30.5t35.5 79.5h223q-22 -143 -117.5 -227t-241.5 -84t-216.5 84t-50.5 227z" />
    <glyph glyph-name="icircumflex.sc" horiz-adv-x="514" 
d="M502 1036l-154 -1036h-291l155 1036h290zM52 1137l225 338h291l125 -338l-240 -11l-55 183l-111 -183z" />
    <glyph glyph-name="idieresis.sc" horiz-adv-x="514" 
d="M502 1036l-154 -1036h-291l155 1036h290zM41 1265q0 81 46 124t130 43q134 0 134 -116q0 -81 -45.5 -124t-130.5 -43q-65 0 -99.5 29.5t-34.5 86.5zM439 1265q0 81 45.5 124t130.5 43q134 0 134 -116q0 -81 -46 -124t-130 -43q-134 0 -134 116z" />
    <glyph glyph-name="i.aalt.sc" horiz-adv-x="514" 
d="M502 1036l-154 -1036h-291l155 1036h290zM239 1265q0 81 46 124t131 43q134 0 134 -116q0 -81 -46 -124t-131 -43q-65 0 -99.5 29.5t-34.5 86.5z" />
    <glyph glyph-name="uni1ECB.sc" horiz-adv-x="514" 
d="M502 1036l-154 -1036h-291l155 1036h290zM-2 -322q0 86 47.5 131.5t135.5 45.5q66 0 101.5 -31t35.5 -90q0 -86 -47.5 -131.5t-134.5 -45.5q-138 0 -138 121z" />
    <glyph glyph-name="igrave.sc" horiz-adv-x="514" 
d="M502 1036l-154 -1036h-291l155 1036h290zM534 1162l-193 -53l-240 298l285 93z" />
    <glyph glyph-name="ij.sc" horiz-adv-x="1029" 
d="M502 1036l-154 -1036h-291l155 1036h290zM726 1036h292l-155 -1031q-20 -134 -109 -231t-276 -175l-99 175q94 54 138.5 109.5t56.5 135.5z" />
    <glyph glyph-name="glyph432" horiz-adv-x="1042" 
d="M726 996h290l-147 -989q-23 -154 -118 -266t-305 -209l-99 188q115 72 167.5 139.5t67.5 167.5l13 87zM214 996h290l-149 -996h-290zM399 1081l-173 53l270 366l256 -92zM912 1081l-173 53l271 366l256 -92z" />
    <glyph glyph-name="glyph433" horiz-adv-x="1029" 
d="M726 1036h292l-155 -1031q-20 -134 -109 -231t-276 -175l-99 175q94 54 138.5 109.5t56.5 135.5zM502 1036l-154 -1036h-291l155 1036h290zM405 1109l-181 53l250 338l258 -93zM920 1109l-182 53l251 338l257 -93z" />
    <glyph glyph-name="imacron.sc" horiz-adv-x="514" 
d="M502 1036l-154 -1036h-291l155 1036h290zM75 1169l34 223h603l-33 -223h-604z" />
    <glyph glyph-name="iogonek.sc" horiz-adv-x="514" 
d="M502 1036l-154 -1036q-190 -122 -190 -225q0 -29 18.5 -45t49.5 -16q52 0 89 13l-12 -176q-54 -19 -135 -19q-107 0 -169 41.5t-62 126.5q0 166 246 300h-126l155 1036h290z" />
    <glyph glyph-name="itilde.sc" horiz-adv-x="514" 
d="M502 1036l-154 -1036h-291l155 1036h290zM307 1426q44 0 112.5 -25.5t102.5 -25.5q56 0 121 60l104 -98q-15 -31 -49.5 -75t-92 -79t-123.5 -35q-44 0 -112 26t-103 26q-56 0 -120 -61l-105 98q38 73 108.5 131t156.5 58z" />
    <glyph glyph-name="j.sc" horiz-adv-x="515" 
d="M212 1036h291l-154 -1031q-20 -134 -109 -231.5t-276 -174.5l-99 175q94 54 138.5 109.5t56.5 135.5l10 70z" />
    <glyph glyph-name="jcircumflex.sc" horiz-adv-x="515" 
d="M212 1036h291l-154 -1031q-20 -134 -109 -231.5t-276 -174.5l-99 175q94 54 138.5 109.5t56.5 135.5l10 70zM57 1137l225 338h291l124 -338l-239 -11l-56 183l-110 -183z" />
    <glyph glyph-name="k.sc" horiz-adv-x="1041" 
d="M787 1036h316l-333 -522l192 -514h-319l-132 401h-101l-60 -401h-293l155 1036h293l-60 -399h105z" />
    <glyph glyph-name="kcommaaccent.sc" horiz-adv-x="1041" 
d="M787 1036h316l-333 -522l192 -514h-319l-132 401h-101l-60 -401h-293l155 1036h293l-60 -399h105zM347 -93h252l-14 -62q-22 -109 -77.5 -210.5t-113.5 -160.5h-185q41 75 77 170.5t49 181.5z" />
    <glyph glyph-name="kgreenlandic.sc" horiz-adv-x="1041" 
d="M787 1036h316l-333 -522l192 -514h-319l-132 401h-101l-60 -401h-293l155 1036h293l-60 -399h105z" />
    <glyph glyph-name="l.sc" horiz-adv-x="833" 
d="M502 1036l-120 -807h397l-34 -229h-688l155 1036h290z" />
    <glyph glyph-name="lacute.sc" horiz-adv-x="833" 
d="M502 1036l-120 -807h397l-34 -229h-688l155 1036h290zM394 1109l-181 53l249 338l258 -93z" />
    <glyph glyph-name="lcaron.sc" horiz-adv-x="862" 
d="M674 1138h239l-92 -509h-207zM502 1036l-120 -807h397l-34 -229h-688l155 1036h290z" />
    <glyph glyph-name="lcommaaccent.sc" horiz-adv-x="833" 
d="M502 1036l-120 -807h397l-34 -229h-688l155 1036h290zM254 -93h253l-16 -68q-23 -107 -78 -207t-112 -158h-185q41 74 77 169.5t49 182.5z" />
    <glyph glyph-name="ldot.sc" horiz-adv-x="886" 
d="M502 1036l-120 -807h397l-34 -229h-688l155 1036h290zM564 557q0 81 46 124t130 43q135 0 135 -115q0 -82 -46 -125t-131 -43q-65 0 -99.5 29.5t-34.5 86.5z" />
    <glyph glyph-name="less.tnum" 
d="M840 1185l163 -170l-419 -338l317 -338l-213 -170l-467 508z" />
    <glyph glyph-name="less.aalt" horiz-adv-x="982" 
d="M779 1106l162 -170l-418 -338l317 -338l-213 -170l-468 508z" />
    <glyph glyph-name="less.aalt.tnum" 
d="M828 1106l163 -170l-419 -338l318 -338l-214 -170l-467 508z" />
    <glyph glyph-name="lessequal.tnum" 
d="M180 187h699l-25 -165h-698zM860 1325l164 -170l-419 -338l317 -338l-213 -170l-468 508z" />
    <glyph glyph-name="lessequal.aalt" horiz-adv-x="982" 
d="M122 123h698l-25 -164h-698zM802 1262l163 -170l-419 -338l318 -339l-214 -169l-467 508z" />
    <glyph glyph-name="lessequal.aalt.tnum" 
d="M171 123h698l-24 -164h-699zM851 1262l163 -170l-419 -338l318 -339l-213 -169l-468 508z" />
    <glyph glyph-name="lira.tnum" horiz-adv-x="1154" 
d="M121 226q75 0 118 38t58 123l13 87h-133l24 153h748l-23 -153h-319l-14 -96q-17 -95 -82 -152h505l-38 -246h-894zM238 878h133l10 69q19 131 84 224t174 148t261 55q127 0 268 -33l-60 -249q-120 24 -213 24t-150 -51t-71 -148l-6 -39h319l-23 -153h-749z" />
    <glyph glyph-name="lira.aalt" horiz-adv-x="1078" 
d="M172 559h700l-21 -148h-291l-11 -78q-15 -70 -56 -116h443l-35 -237h-833l35 237h12q60 2 96 31t48 92l10 71h-119zM206 784h121l7 50q18 117 77.5 200t160 132.5t240.5 49.5q120 0 257 -32l-58 -236q-115 23 -196 23q-79 0 -128.5 -41.5t-67.5 -145.5h287l-22 -148h-701
z" />
    <glyph glyph-name="lira.aalt.tnum" 
d="M222 559h701l-23 -148h-290l-11 -78q-15 -70 -56 -116h443l-35 -237h-833l35 237h11q60 2 96 31t49 92l10 71h-119zM255 784h122l7 50q18 117 77.5 200t160 132.5t240.5 49.5q115 0 257 -32l-59 -236q-115 23 -196 23q-78 0 -128 -41.5t-68 -145.5h288l-22 -148h-701z
" />
    <glyph glyph-name="logicalnot.tnum" 
d="M725 306l38 249h-576l36 244h846l-74 -493h-270z" />
    <glyph glyph-name="logicalnot.aalt" horiz-adv-x="1096" 
d="M681 227l36 250h-576l36 243h846l-73 -493h-269z" />
    <glyph glyph-name="logicalnot.aalt.tnum" 
d="M714 227l37 250h-576l36 243h846l-74 -493h-269z" />
    <glyph glyph-name="lslash.sc" horiz-adv-x="865" 
d="M534 1036l-48 -322l178 82l44 -141l-248 -115l-47 -311h397l-34 -229h-688l60 402l-90 -42l-45 142l161 73l69 461h291z" />
    <glyph glyph-name="m.sc" horiz-adv-x="1317" 
d="M876 0l94 634l-272 -490h-148l-125 489l-94 -633h-274l155 1036h326l132 -584l307 584h328l-155 -1036h-274z" />
    <glyph glyph-name="glyph481" horiz-adv-x="748" 
d="M192 1169l34 223h602l-33 -223h-603z" />
    <glyph glyph-name="minus.tnum" 
d="M281 799h730l-37 -244h-729z" />
    <glyph glyph-name="minus.aalt" horiz-adv-x="980" 
d="M177 719h730l-36 -243h-730z" />
    <glyph glyph-name="minus.aalt.tnum" 
d="M269 719h730l-37 -243h-729z" />
    <glyph glyph-name="uni00B5.tnum" 
d="M964 0h-249l1 105q-122 -93 -224 -100q-56 -9 -103 5q-27 -157 -120 -268t-303 -210l-99 188q114 71 166.5 139t67.5 168l145 969h290l-95 -638q-19 -119 89 -119q39 0 90.5 19t100.5 53l102 685h290z" />
    <glyph glyph-name="uni00B5.aalt" horiz-adv-x="1097" 
d="M922 0h-249l1 105q-124 -93 -225 -100q-54 -9 -103 5q-27 -157 -119.5 -268t-302.5 -210l-99 188q114 71 166.5 139t67.5 168l145 969h290l-95 -638q-19 -119 89 -119q39 0 90 19t101 53l102 685h290z" />
    <glyph glyph-name="uni00B5.aalt.tnum" 
d="M964 0h-249l1 105q-122 -93 -224 -100q-56 -9 -103 5q-27 -157 -120 -268t-303 -210l-99 188q114 71 166.5 139t67.5 168l145 969h290l-95 -638q-19 -119 89 -119q39 0 90.5 19t100.5 53l102 685h290z" />
    <glyph glyph-name="multiply.tnum" 
d="M916 1099l159 -187l-264 -239l187 -229l-208 -182l-187 231l-263 -238l-159 187l262 238l-185 230l208 181l186 -229z" />
    <glyph glyph-name="multiply.aalt" horiz-adv-x="1074" 
d="M860 1021l159 -188l-264 -238l187 -230l-209 -182l-186 231l-264 -238l-159 188l263 237l-186 231l208 181l187 -230z" />
    <glyph glyph-name="multiply.aalt.tnum" 
d="M905 1021l159 -188l-265 -238l187 -230l-208 -182l-187 231l-263 -238l-159 188l262 237l-185 231l208 181l187 -230z" />
    <glyph glyph-name="n.sc" horiz-adv-x="1131" 
d="M682 0l-246 618l-93 -618h-286l155 1036h282l246 -618l93 618h286l-155 -1036h-282z" />
    <glyph glyph-name="nacute.sc" horiz-adv-x="1131" 
d="M682 0l-246 618l-93 -618h-286l155 1036h282l246 -618l93 618h286l-155 -1036h-282zM706 1109l-181 53l249 338l258 -93z" />
    <glyph glyph-name="napostrophe.sc" horiz-adv-x="1131" 
d="M237 1614h250l-6 -43q-17 -114 -68.5 -218t-119.5 -184h-177q31 63 63 165t47 200zM682 0l-246 618l-93 -618h-286l155 1036h282l246 -618l93 618h286l-155 -1036h-282z" />
    <glyph glyph-name="ncaron.sc" horiz-adv-x="1131" 
d="M682 0l-246 618l-93 -618h-286l155 1036h282l246 -618l93 618h286l-155 -1036h-282zM1062 1469l-246 -350h-288l-143 350l245 12l65 -204l127 204z" />
    <glyph glyph-name="ncommaaccent.sc" horiz-adv-x="1131" 
d="M682 0l-246 618l-93 -618h-286l155 1036h282l246 -618l93 618h286l-155 -1036h-282zM392 -93h251l-15 -68q-23 -108 -78 -207.5t-112 -157.5h-185q41 73 77 169t50 183z" />
    <glyph glyph-name="uni0272.sc" horiz-adv-x="1131" 
d="M682 0l-246 618l-56 -372q-25 -168 -87 -343q-37 -115 -120 -202.5t-249 -168.5l-99 179q115 74 167.5 143.5t68.5 172.5l151 1009h282l246 -618l93 618h286l-155 -1036h-282z" />
    <glyph glyph-name="nine.tnum" horiz-adv-x="1168" 
d="M1114 942l-58 -394l-26 -137q-46 -208 -195.5 -319.5t-387.5 -111.5q-89 0 -181 15t-136 33l64 248q90 -25 142.5 -33t110.5 -8q131 0 212.5 49t107.5 199l16 91q-122 -46 -226 -46q-122 0 -201 42.5t-119.5 118.5t-40.5 187q0 231 143 364.5t383 133.5
q126 0 223.5 -44.5t144 -142.5t24.5 -245zM636 751q90 0 180 40l24 160q13 85 -28 133t-126 48q-95 0 -151.5 -58.5t-56.5 -160.5q0 -162 158 -162z" />
    <glyph glyph-name="uniF739.tnum" horiz-adv-x="1168" 
d="M1090 784l-58 -394l-26 -137q-46 -208 -195.5 -319.5t-387.5 -111.5q-89 0 -181 15t-136 33l64 248q90 -25 142.5 -33t110.5 -8q131 0 212.5 49t107.5 199l16 91q-122 -46 -226 -46q-122 0 -201 42.5t-119.5 118.5t-40.5 187q0 231 143 364.5t383 133.5
q126 0 223.5 -44.5t144 -142.5t24.5 -245zM612 593q90 0 180 40l24 160q13 85 -28 133t-126 48q-95 0 -151.5 -58.5t-56.5 -160.5q0 -162 158 -162z" />
    <glyph glyph-name="notequal.tnum" 
d="M267 745l36 236h430l177 286l124 -61l-140 -225h149l-35 -236h-259l-83 -136h322l-35 -236h-432l-176 -286l-124 61l139 225h-148l36 236h256l84 136h-321z" />
    <glyph glyph-name="notequal.aalt" horiz-adv-x="991" 
d="M170 666l34 236h431l177 287l124 -61l-139 -226h149l-36 -236h-258l-83 -136h321l-35 -235h-431l-177 -286l-124 60l139 226h-148l35 235h258l84 136h-321z" />
    <glyph glyph-name="notequal.aalt.tnum" 
d="M256 666l35 236h430l177 287l124 -61l-139 -226h148l-35 -236h-259l-83 -136h322l-35 -235h-432l-176 -286l-124 60l139 226h-148l36 235h257l83 136h-320z" />
    <glyph glyph-name="ntilde.sc" horiz-adv-x="1131" 
d="M682 0l-246 618l-93 -618h-286l155 1036h282l246 -618l93 618h286l-155 -1036h-282zM603 1426q44 0 112 -25.5t102 -25.5q55 0 122 60l104 -98q-38 -73 -108.5 -131t-157.5 -58q-44 0 -111.5 26t-102.5 26q-55 0 -121 -61l-105 98q38 73 108.5 131t157.5 58z" />
    <glyph glyph-name="numbersign.tnum" 
d="M917 1354h229l-93 -330h183l-63 -221h-183l-72 -258h183l-63 -219h-183l-91 -326h-232l92 326h-185l-91 -326h-230l91 326h-189l61 219h190l72 258h-186l63 221h186l92 330h231l-92 -330h187zM573 803l-71 -258h185l73 258h-187z" />
    <glyph glyph-name="numbersign.aalt" horiz-adv-x="1373" 
d="M561 1209h240l-83 -293h191l83 293h240l-83 -293h187l-64 -215h-185l-56 -197h184l-63 -215h-182l-82 -289h-243l83 289h-189l-82 -289h-242l82 289h-190l63 215h189l56 197h-188l63 215h187zM656 701l-56 -197h189l57 197h-190z" />
    <glyph glyph-name="numbersign.aalt.tnum" 
d="M470 1209h233l-84 -293h179l85 293h231l-83 -293h168l-64 -215h-167l-55 -197h164l-62 -215h-163l-82 -289h-235l82 289h-178l-81 -289h-234l83 289h-171l62 215h170l57 197h-169l62 215h169zM558 701l-56 -197h178l56 197h-178z" />
    <glyph glyph-name="o.sc" horiz-adv-x="1064" 
d="M74 367l45 302q28 187 164.5 287t351.5 100t321 -100t78 -287l-45 -302q-28 -187 -164 -287t-351 -100t-321.5 100t-78.5 287zM416 682l-47 -315q-11 -73 24.5 -116t114.5 -43q78 0 126.5 43.5t59.5 115.5l45 302q11 72 -24.5 115.5t-113.5 43.5t-126 -39t-59 -107z" />
    <glyph glyph-name="oacute.sc" horiz-adv-x="1064" 
d="M74 367l33 224q15 88 30 140q39 156 172 240.5t326 84.5q215 0 321 -100t78 -287l-33 -224q-8 -58 -29 -140q-40 -157 -172.5 -241t-325.5 -84q-215 0 -321.5 100t-78.5 287zM416 682l-42 -279q-14 -99 22 -147t112 -48q73 0 123.5 43t65.5 134l37 248q12 85 -18.5 140
t-114.5 55q-78 0 -126 -39t-59 -107zM649 1109l-181 53l250 338l257 -93z" />
    <glyph glyph-name="obreve.sc" horiz-adv-x="1064" 
d="M74 367l45 302q28 187 164.5 287t351.5 100t321 -100t78 -287l-45 -302q-28 -187 -164 -287t-351 -100t-321.5 100t-78.5 287zM416 682l-47 -315q-11 -73 24.5 -116t114.5 -43q78 0 126.5 43.5t59.5 115.5l45 302q11 72 -24.5 115.5t-113.5 43.5t-126 -39t-59 -107z
M380 1444h223q-6 -49 11 -79.5t61 -30.5q45 0 71 30.5t35 79.5h223q-20 -142 -116 -226.5t-242 -84.5q-147 0 -217.5 84t-48.5 227z" />
    <glyph glyph-name="ocircumflex.sc" horiz-adv-x="1064" 
d="M74 367l33 224q15 88 30 140q39 156 172 240.5t326 84.5q215 0 321 -100t78 -287l-33 -224q-8 -58 -29 -140q-40 -157 -172.5 -241t-325.5 -84q-215 0 -321.5 100t-78.5 287zM416 682l-42 -279q-14 -99 22 -147t112 -48q73 0 123.5 43t65.5 134l37 248q12 85 -18.5 140
t-114.5 55q-78 0 -126 -39t-59 -107zM326 1137l225 338h291l124 -338l-238 -11l-56 183l-111 -183z" />
    <glyph glyph-name="odieresis.sc" horiz-adv-x="1064" 
d="M74 367l33 224q15 88 30 140q39 156 172 240.5t326 84.5q215 0 321 -100t78 -287l-33 -224q-8 -58 -29 -140q-40 -157 -172.5 -241t-325.5 -84q-215 0 -321.5 100t-78.5 287zM416 682l-42 -279q-14 -99 22 -147t112 -48q73 0 123.5 43t65.5 134l37 248q12 85 -18.5 140
t-114.5 55q-78 0 -126 -39t-59 -107zM309 1265q0 81 46 124t131 43q134 0 134 -116q0 -81 -46 -124t-130 -43q-135 0 -135 116zM718 1265q0 81 46 124t131 43q65 0 99.5 -29.5t34.5 -86.5q0 -81 -46.5 -124t-130.5 -43q-65 0 -99.5 29.5t-34.5 86.5z" />
    <glyph glyph-name="uni1ECD.sc" horiz-adv-x="1064" 
d="M74 367l33 224q15 88 30 140q39 156 172 240.5t326 84.5q215 0 321 -100t78 -287l-33 -224q-8 -58 -29 -140q-40 -157 -172.5 -241t-325.5 -84q-215 0 -321.5 100t-78.5 287zM416 682l-42 -279q-14 -99 22 -147t112 -48q73 0 123.5 43t65.5 134l37 248q12 85 -18.5 140
t-114.5 55q-78 0 -126 -39t-59 -107zM273 -322q0 86 47 131.5t134 45.5q138 0 138 -121q0 -86 -47.5 -131.5t-134.5 -45.5q-137 0 -137 121z" />
    <glyph glyph-name="oe.sc" horiz-adv-x="1438" 
d="M649 0l7 45q-97 -65 -219 -65q-181 0 -280.5 89t-85.5 253l14 123l22 146l23 123q35 164 161 253t307 89q124 0 199 -66l7 46h667l-32 -216h-420l-30 -199h404l-30 -201h-404l-31 -204h436l-32 -216h-683zM497 208q85 0 143 55l76 510q-42 56 -126 56q-152 0 -176 -163
l-43 -283q-12 -79 18 -127t108 -48z" />
    <glyph glyph-name="ograve.sc" horiz-adv-x="1064" 
d="M74 367l33 224q15 88 30 140q39 156 172 240.5t326 84.5q215 0 321 -100t78 -287l-33 -224q-8 -58 -29 -140q-40 -157 -172.5 -241t-325.5 -84q-215 0 -321.5 100t-78.5 287zM416 682l-42 -279q-14 -99 22 -147t112 -48q73 0 123.5 43t65.5 134l37 248q12 85 -18.5 140
t-114.5 55q-78 0 -126 -39t-59 -107zM809 1162l-193 -53l-239 298l285 93z" />
    <glyph glyph-name="ohungarumlaut.sc" horiz-adv-x="1064" 
d="M74 367l33 224q15 88 30 140q39 156 172 240.5t326 84.5q215 0 321 -100t78 -287l-33 -224q-8 -58 -29 -140q-40 -157 -172.5 -241t-325.5 -84q-215 0 -321.5 100t-78.5 287zM416 682l-42 -279q-14 -99 22 -147t112 -48q73 0 123.5 43t65.5 134l37 248q12 85 -18.5 140
t-114.5 55q-78 0 -126 -39t-59 -107zM537 1115l-184 26l142 378l250 -50zM876 1115l-187 29l192 371l262 -61z" />
    </font>
</defs>
</svg>
